<?xml version="1.0" encoding="UTF-8" standalone="no"?>
<svg
   xmlns:svg="http://www.w3.org/2000/svg"
   xmlns="http://www.w3.org/2000/svg"
   viewBox="0 0 384 384"
   height="384"
   width="384"
   xml:space="preserve"
   id="svg2"
   version="1.1">
    <defs
     id="defs6" /><g
     transform="matrix(1.3333333,0,0,-1.3333333,0,384)"
     id="g10"><g
       transform="scale(0.1)"
       id="g12"><path
         id="path14"
         style="fill:#ffffff;fill-opacity:1;fill-rule:evenodd;stroke:none"
         d="M 0,0 H 2879.96 V 2879.98 H 0 Z" /><path
         id="path16"
         style="fill:#2f3a53;fill-opacity:1;fill-rule:evenodd;stroke:none"
         d="m 1355.98,2905.28 c -0.3,-5.23 -0.86,-10.47 -0.86,-15.69 -0.04,-356.97 -0.04,-713.94 -0.04,-1070.89 0,-616.25 0,-1232.489 0.04,-1848.7391 0,-5.582 0.56,-11.1718 0.86,-16.75 -6.12,0 -12.23,0 -18.34,0 0.13,4.5586 0.41,9.1289 0.41,13.6797 0,974.8984 0,1949.8094 0,2924.6894 0,4.57 -0.28,9.12 -0.41,13.7 6.11,0 12.22,0 18.34,0" /><path
         id="path18"
         style="fill:#2f3a53;fill-opacity:1;fill-rule:evenodd;stroke:none"
         d="m 1091.03,2905.28 c -0.31,-5.23 -0.85,-10.47 -0.85,-15.69 -0.06,-356.27 -0.06,-712.53 -0.06,-1068.78 0,-616.94 0,-1233.912 0.06,-1850.8491 0,-5.582 0.54,-11.1718 0.85,-16.75 -6.11,0 -12.24,0 -18.35,0 0.15,4.5586 0.41,9.1289 0.41,13.6797 0.02,974.8984 0.02,1949.8094 0,2924.6894 0,4.57 -0.26,9.12 -0.41,13.7 6.11,0 12.24,0 18.35,0" /><path
         id="path20"
         style="fill:#2f3a53;fill-opacity:1;fill-rule:evenodd;stroke:none"
         d="m 1488.44,2905.28 c -0.3,-5.23 -0.86,-10.47 -0.86,-15.69 -0.04,-356.27 -0.04,-712.53 -0.04,-1068.78 0,-616.94 0,-1233.912 0.04,-1850.8491 0,-5.582 0.56,-11.1718 0.86,-16.75 -6.1,0 -12.21,0 -18.34,0 0.13,4.5586 0.41,9.1289 0.41,13.6797 0.02,974.8984 0.02,1949.8094 0,2924.6894 0,4.57 -0.28,9.12 -0.41,13.7 6.13,0 12.24,0 18.34,0" /><path
         id="path22"
         style="fill:#2f3a53;fill-opacity:1;fill-rule:evenodd;stroke:none"
         d="m 1620.92,2905.28 c -0.29,-5.23 -0.86,-10.47 -0.86,-15.69 -0.02,-356.27 -0.02,-712.53 -0.02,-1068.78 0,-616.94 0,-1233.912 0.02,-1850.8491 0,-5.582 0.57,-11.1718 0.86,-16.75 -6.12,0 -12.23,0 -18.34,0 0.13,4.5586 0.41,9.1289 0.41,13.6797 0.02,974.8984 0.02,1949.8094 0,2924.6894 0,4.57 -0.28,9.12 -0.41,13.7 6.11,0 12.22,0 18.34,0" /><path
         id="path24"
         style="fill:#2f3a53;fill-opacity:1;fill-rule:evenodd;stroke:none"
         d="m 1753.4,2905.28 c -0.29,-5.23 -0.86,-10.47 -0.86,-15.69 -0.04,-356.27 -0.04,-712.53 -0.04,-1068.78 0,-616.94 0,-1233.912 0.04,-1850.8491 0,-5.582 0.57,-11.1718 0.86,-16.75 -6.11,0 -12.23,0 -18.34,0 0.14,4.5586 0.41,9.1289 0.41,13.6797 0,974.8984 0,1949.8094 0,2924.6894 0,4.57 -0.27,9.12 -0.41,13.7 6.11,0 12.23,0 18.34,0" /><path
         id="path26"
         style="fill:#2f3a53;fill-opacity:1;fill-rule:evenodd;stroke:none"
         d="m 1885.88,2905.28 c -0.31,-5.23 -0.86,-10.47 -0.86,-15.69 -0.06,-356.97 -0.06,-713.94 -0.06,-1070.89 0,-616.25 0,-1232.489 0.06,-1848.7391 0,-5.582 0.55,-11.1718 0.86,-16.75 -6.13,0 -12.23,0 -18.36,0 0.16,4.5586 0.41,9.1289 0.41,13.6797 0.02,974.8984 0.02,1949.8094 0,2924.6894 0,4.57 -0.25,9.12 -0.41,13.7 6.13,0 12.23,0 18.36,0" /><path
         id="path28"
         style="fill:#2f3a53;fill-opacity:1;fill-rule:evenodd;stroke:none"
         d="m 2018.34,2905.28 c -0.29,-5.23 -0.86,-10.47 -0.86,-15.69 -0.04,-356.61 -0.02,-713.23 -0.02,-1069.82 0,-616.61 0,-1233.2 0.02,-1849.8091 0,-5.582 0.57,-11.1718 0.86,-16.75 -6.11,0 -12.23,0 -18.34,0 0.14,4.5586 0.41,9.1289 0.41,13.6797 0.02,974.8984 0.02,1949.8094 0,2924.6894 0,4.57 -0.27,9.12 -0.41,13.7 6.11,0 12.23,0 18.34,0" /><path
         id="path30"
         style="fill:#2f3a53;fill-opacity:1;fill-rule:evenodd;stroke:none"
         d="m 2150.82,2905.28 c -0.29,-5.23 -0.86,-10.47 -0.86,-15.69 -0.04,-348.9 -0.04,-697.77 -0.04,-1046.64 0,-624.33 0,-1248.649 0.04,-1872.9891 0,-5.582 0.57,-11.1718 0.86,-16.75 -6.11,0 -12.25,0 -18.34,0 0.14,4.5586 0.39,9.1289 0.39,13.6797 0.02,974.8984 0.02,1949.8094 0,2924.6894 0,4.57 -0.25,9.12 -0.39,13.7 6.09,0 12.23,0 18.34,0" /><path
         id="path32"
         style="fill:#2f3a53;fill-opacity:1;fill-rule:evenodd;stroke:none"
         d="m 2283.28,2905.28 c -0.29,-5.23 -0.84,-10.47 -0.84,-15.69 -0.04,-348.9 -0.04,-697.77 -0.04,-1046.64 0,-624.33 0,-1248.649 0.04,-1872.9891 0,-5.582 0.55,-11.1718 0.84,-16.75 -6.11,0 -12.23,0 -18.34,0 0.16,4.5586 0.43,9.1289 0.43,13.6797 0,974.8984 0,1949.8094 0,2924.6894 0,4.57 -0.27,9.12 -0.43,13.7 6.11,0 12.23,0 18.34,0" /><path
         id="path34"
         style="fill:#2f3a53;fill-opacity:1;fill-rule:evenodd;stroke:none"
         d="m 31.25,2905.28 c -0.3125,-5.23 -0.8594,-10.47 -0.8594,-15.69 -0.039,-360.48 -0.039,-720.95 -0.039,-1081.43 0,-612.73 0,-1225.461 0.039,-1838.1991 0,-5.582 0.5469,-11.1718 0.8594,-16.75 -6.1133,0 -12.2461,0 -18.3594,0 0.1563,4.5586 0.4102,9.1289 0.4102,13.6797 0.0195,974.8984 0.0195,1949.8094 0,2924.6894 0,4.57 -0.2539,9.12 -0.4102,13.7 6.1133,0 12.2461,0 18.3594,0" /><path
         id="path36"
         style="fill:#2f3a53;fill-opacity:1;fill-rule:evenodd;stroke:none"
         d="m 163.711,2905.28 c -0.293,-5.23 -0.84,-10.47 -0.84,-15.69 -0.039,-361.54 -0.039,-723.06 -0.039,-1084.59 0,-611.67 0,-1223.352 0.039,-1835.0391 0,-5.582 0.547,-11.1718 0.84,-16.75 -6.133,0 -12.227,0 -18.34,0 0.137,4.5586 0.391,9.1289 0.391,13.6797 0.039,974.8984 0.039,1949.8094 0,2924.6894 0,4.57 -0.254,9.12 -0.391,13.7 6.113,0 12.207,0 18.34,0" /><path
         id="path38"
         style="fill:#2f3a53;fill-opacity:1;fill-rule:evenodd;stroke:none"
         d="m 2415.76,2905.28 c -0.29,-5.23 -0.84,-10.47 -0.84,-15.69 -0.06,-347.12 -0.04,-694.26 -0.04,-1041.38 0,-626.09 -0.02,-1252.159 0.04,-1878.2491 0,-5.582 0.55,-11.1718 0.84,-16.75 -6.11,0 -12.22,0 -18.34,0 0.14,4.5586 0.39,9.1289 0.39,13.6797 0.04,974.8984 0.04,1949.8094 0,2924.6894 0,4.57 -0.25,9.12 -0.39,13.7 6.12,0 12.23,0 18.34,0" /><path
         id="path40"
         style="fill:#2f3a53;fill-opacity:1;fill-rule:evenodd;stroke:none"
         d="m 296.191,2905.28 c -0.293,-5.23 -0.859,-10.47 -0.859,-15.69 -0.059,-358.01 -0.039,-716.04 -0.039,-1074.05 0,-615.19 0,-1230.38 0.039,-1845.5791 0,-5.582 0.566,-11.1718 0.859,-16.75 -6.132,0 -12.226,0 -18.359,0 0.156,4.5586 0.43,9.1289 0.43,13.6797 0,974.8984 0,1949.8094 0,2924.6894 0,4.57 -0.274,9.12 -0.43,13.7 6.133,0 12.227,0 18.359,0" /><path
         id="path42"
         style="fill:#2f3a53;fill-opacity:1;fill-rule:evenodd;stroke:none"
         d="m 428.652,2905.28 c -0.293,-5.23 -0.859,-10.47 -0.859,-15.69 -0.039,-358.37 -0.039,-716.74 -0.039,-1075.1 0,-614.84 0,-1229.681 0.039,-1844.5291 0,-5.582 0.566,-11.1718 0.859,-16.75 -6.113,0 -12.207,0 -18.339,0 0.136,4.5586 0.41,9.1289 0.41,13.6797 0.019,974.8984 0.019,1949.8094 0,2924.6894 0,4.57 -0.274,9.12 -0.41,13.7 6.132,0 12.226,0 18.339,0" /><path
         id="path44"
         style="fill:#2f3a53;fill-opacity:1;fill-rule:evenodd;stroke:none"
         d="m 2548.24,2905.28 c -0.29,-5.23 -0.86,-10.47 -0.86,-15.69 -0.04,-348.9 -0.04,-697.77 -0.04,-1046.64 0,-624.33 0,-1248.649 0.04,-1872.9891 0,-5.582 0.57,-11.1718 0.86,-16.75 -6.11,0 -12.22,0 -18.34,0 0.12,4.5586 0.39,9.1289 0.39,13.6797 0.02,974.8984 0.02,1949.8094 0,2924.6894 0,4.57 -0.27,9.12 -0.39,13.7 6.12,0 12.23,0 18.34,0" /><path
         id="path46"
         style="fill:#2f3a53;fill-opacity:1;fill-rule:evenodd;stroke:none"
         d="m 561.133,2905.28 c -0.293,-5.23 -0.86,-10.47 -0.86,-15.69 -0.039,-363.3 -0.039,-726.56 -0.039,-1089.86 0,-609.93 0,-1219.839 0.039,-1829.7691 0,-5.582 0.567,-11.1718 0.86,-16.75 -6.113,0 -12.227,0 -18.34,0 0.137,4.5586 0.41,9.1289 0.41,13.6797 0.02,974.8984 0.02,1949.8094 0,2924.6894 0,4.57 -0.273,9.12 -0.41,13.7 6.113,0 12.227,0 18.34,0" /><path
         id="path48"
         style="fill:#2f3a53;fill-opacity:1;fill-rule:evenodd;stroke:none"
         d="m 693.613,2905.28 c -0.312,-5.23 -0.859,-10.47 -0.859,-15.69 -0.059,-363.3 -0.039,-726.56 -0.039,-1089.86 0,-609.93 -0.02,-1219.839 0.039,-1829.7691 0,-5.582 0.547,-11.1718 0.859,-16.75 -6.113,0 -12.246,0 -18.359,0 0.156,4.5586 0.41,9.1289 0.41,13.6797 0.02,974.8984 0.02,1949.8094 0,2924.6894 0,4.57 -0.254,9.12 -0.41,13.7 6.113,0 12.246,0 18.359,0" /><path
         id="path50"
         style="fill:#2f3a53;fill-opacity:1;fill-rule:evenodd;stroke:none"
         d="m 2680.7,2905.28 c -0.27,-5.23 -0.84,-10.47 -0.84,-15.69 -0.04,-348.9 -0.04,-697.77 -0.04,-1046.64 0,-624.33 0,-1248.649 0.04,-1872.9891 0,-5.582 0.57,-11.1718 0.84,-16.75 -6.11,0 -12.22,0 -18.34,0 0.14,4.5586 0.41,9.1289 0.41,13.6797 0.02,974.8984 0.02,1949.8094 0,2924.6894 0,4.57 -0.27,9.12 -0.41,13.7 6.12,0 12.23,0 18.34,0" /><path
         id="path52"
         style="fill:#2f3a53;fill-opacity:1;fill-rule:evenodd;stroke:none"
         d="m 826.074,2905.28 c -0.293,-5.23 -0.84,-10.47 -0.84,-15.69 -0.039,-361.89 -0.039,-723.77 -0.039,-1085.65 0,-611.32 0,-1222.651 0.039,-1833.9791 0,-5.582 0.547,-11.1718 0.84,-16.75 -6.113,0 -12.207,0 -18.34,0 0.137,4.5586 0.411,9.1289 0.411,13.6797 0.019,974.8984 0.019,1949.8094 0,2924.6894 0,4.57 -0.274,9.12 -0.411,13.7 6.133,0 12.227,0 18.34,0" /><path
         id="path54"
         style="fill:#2f3a53;fill-opacity:1;fill-rule:evenodd;stroke:none"
         d="m 958.555,2905.28 c -0.293,-5.23 -0.86,-10.47 -0.86,-15.69 -0.039,-364.34 -0.039,-728.68 -0.039,-1093.03 0,-608.86 0,-1217.708 0.039,-1826.5991 0,-5.582 0.567,-11.1718 0.86,-16.75 -6.133,0 -12.246,0 -18.34,0 0.137,4.5586 0.41,9.1289 0.41,13.6797 0.02,974.8984 0.02,1949.8094 0,2924.6894 0,4.57 -0.273,9.12 -0.41,13.7 6.094,0 12.207,0 18.34,0" /><path
         id="path56"
         style="fill:#2f3a53;fill-opacity:1;fill-rule:evenodd;stroke:none"
         d="m 2813.18,2905.28 c -0.29,-5.23 -0.86,-10.47 -0.86,-15.69 -0.03,-348.9 -0.03,-697.77 -0.03,-1046.64 0,-624.33 0,-1248.649 0.03,-1872.9891 0,-5.582 0.57,-11.1718 0.86,-16.75 -6.11,0 -12.22,0 -18.36,0 0.16,4.5586 0.43,9.1289 0.43,13.6797 0.02,974.8984 0.02,1949.8094 0,2924.6894 0,4.57 -0.27,9.12 -0.43,13.7 6.14,0 12.25,0 18.36,0" /><path
         id="path58"
         style="fill:#2f3a53;fill-opacity:1;fill-rule:evenodd;stroke:none"
         d="m 1223.5,2905.28 c -0.3,-5.23 -0.84,-10.47 -0.84,-15.69 -0.04,-356.27 -0.04,-712.53 -0.04,-1068.78 0,-616.94 0,-1233.912 0.04,-1850.8491 0,-5.582 0.54,-11.1718 0.84,-16.75 -6.12,0 -12.23,0 -18.34,0 0.13,4.5586 0.39,9.1289 0.39,13.6797 0.04,974.8984 0.04,1949.8094 0,2924.6894 0,4.57 -0.26,9.12 -0.39,13.7 6.11,0 12.22,0 18.34,0" /><path
         id="path60"
         style="fill:#2f3a53;fill-opacity:1;fill-rule:evenodd;stroke:none"
         d="m 1113.44,-46.7891 c 0.13,4.5586 0.39,9.1289 0.39,13.6797 0.02,974.8984 0.02,1949.7994 0,2924.6894 0,4.57 -0.26,9.12 -0.39,13.7 5.43,0 10.88,0 16.33,0 0.05,-5.28 0.15,-10.53 0.15,-15.8 0,-973.5 0,-1946.968 0,-2920.4605 0,-5.2578 -0.1,-10.539 -0.15,-15.8086 -5.45,0 -10.9,0 -16.33,0" /><path
         id="path62"
         style="fill:#2f3a53;fill-opacity:1;fill-rule:evenodd;stroke:none"
         d="m 53.6523,-46.7891 c 0.1368,4.5586 0.3907,9.1289 0.3907,13.6797 0,974.8984 0,1949.7994 0,2924.6894 0,4.57 -0.2539,9.12 -0.3907,13.7 5.4297,0 10.879,0 16.3086,0 0.0586,-5.28 0.1758,-10.53 0.1758,-15.8 0.0196,-973.5 0.0196,-1946.968 0,-2920.4605 0,-5.2578 -0.1172,-10.539 -0.1758,-15.8086 -5.4296,0 -10.8789,0 -16.3086,0" /><path
         id="path64"
         style="fill:#2f3a53;fill-opacity:1;fill-rule:evenodd;stroke:none"
         d="m 2173.24,-46.7891 c 0.12,4.5586 0.37,9.1289 0.37,13.6797 0.02,974.8984 0.02,1949.7994 0,2924.6894 0,4.57 -0.25,9.12 -0.37,13.7 5.43,0 10.86,0 16.29,0 0.06,-5.28 0.18,-10.53 0.18,-15.8 0,-973.5 0,-1946.968 0,-2920.4605 0,-5.2578 -0.12,-10.539 -0.18,-15.8086 -5.43,0 -10.86,0 -16.29,0" /><path
         id="path66"
         style="fill:#2f3a53;fill-opacity:1;fill-rule:evenodd;stroke:none"
         d="m 1643.34,-46.7891 c 0.14,4.5586 0.37,9.1289 0.37,13.6797 0.02,974.8984 0.02,1949.7994 0,2924.6894 0,4.57 -0.23,9.12 -0.37,13.7 5.45,0 10.86,0 16.31,0 0.06,-5.28 0.17,-10.53 0.17,-15.8 0,-973.5 0,-1946.968 0,-2920.4605 0,-5.2578 -0.11,-10.539 -0.17,-15.8086 -5.45,0 -10.86,0 -16.31,0" /><path
         id="path68"
         style="fill:#2f3a53;fill-opacity:1;fill-rule:evenodd;stroke:none"
         d="m 980.977,-46.7891 c 0.136,4.5586 0.371,9.1289 0.371,13.6797 0,974.8984 0,1949.7994 0,2924.6894 0,4.57 -0.235,9.12 -0.371,13.7 5.449,0 10.859,0 16.289,0 0.078,-5.28 0.195,-10.53 0.195,-15.8 0,-973.5 0,-1946.968 0,-2920.4605 0,-5.2578 -0.117,-10.539 -0.195,-15.8086 -5.43,0 -10.84,0 -16.289,0" /><path
         id="path70"
         style="fill:#2f3a53;fill-opacity:1;fill-rule:evenodd;stroke:none"
         d="m 2305.7,-46.7891 c 0.14,4.5586 0.39,9.1289 0.39,13.6797 0.02,974.8984 0.02,1949.8094 0,2924.6894 0,4.57 -0.25,9.12 -0.39,13.7 5.45,0 10.88,0 16.31,0 0.08,-5.28 0.18,-10.53 0.18,-15.8 0.02,-973.5 0.02,-1946.968 0,-2920.4605 0,-5.2578 -0.1,-10.539 -0.18,-15.8086 -5.43,0 -10.86,0 -16.31,0" /><path
         id="path72"
         style="fill:#2f3a53;fill-opacity:1;fill-rule:evenodd;stroke:none"
         d="m 1510.86,-46.7891 c 0.14,4.5586 0.39,9.1289 0.39,13.6797 0.02,974.8984 0.02,1949.7994 0,2924.6894 0,4.57 -0.25,9.12 -0.39,13.7 5.43,0 10.88,0 16.31,0 0.06,-5.28 0.17,-10.53 0.17,-15.8 0.02,-973.5 0.02,-1946.968 0,-2920.4605 0,-5.2578 -0.11,-10.539 -0.17,-15.8086 -5.43,0 -10.88,0 -16.31,0" /><path
         id="path74"
         style="fill:#2f3a53;fill-opacity:1;fill-rule:evenodd;stroke:none"
         d="m 848.496,-46.7891 c 0.137,4.5586 0.391,9.1289 0.391,13.6797 0,974.8984 0,1949.7994 0,2924.6894 0,4.57 -0.254,9.12 -0.391,13.7 5.43,0 10.859,0 16.309,0 0.058,-5.28 0.175,-10.53 0.175,-15.8 0.02,-973.5 0.02,-1946.968 0,-2920.4605 0,-5.2578 -0.117,-10.539 -0.175,-15.8086 -5.45,0 -10.879,0 -16.309,0" /><path
         id="path76"
         style="fill:#2f3a53;fill-opacity:1;fill-rule:evenodd;stroke:none"
         d="m 1775.82,-46.7891 c 0.12,4.5586 0.37,9.1289 0.37,13.6797 0.02,974.8984 0.02,1949.8094 0,2924.6894 0,4.57 -0.25,9.12 -0.37,13.7 5.43,0 10.88,0 16.31,0 0.04,-5.28 0.17,-10.53 0.17,-15.8 0,-973.5 0,-1946.968 0,-2920.4605 0,-5.2578 -0.13,-10.539 -0.17,-15.8086 -5.43,0 -10.88,0 -16.31,0" /><path
         id="path78"
         style="fill:#2f3a53;fill-opacity:1;fill-rule:evenodd;stroke:none"
         d="m 2438.18,-46.7891 c 0.14,4.5586 0.37,9.1289 0.37,13.6797 0,974.8984 0,1949.7994 0,2924.6894 0,4.57 -0.23,9.12 -0.37,13.7 5.43,0 10.88,0 16.29,0 0.08,-5.28 0.2,-10.53 0.2,-15.8 0,-973.5 0,-1946.968 0,-2920.4605 0,-5.2578 -0.12,-10.539 -0.2,-15.8086 -5.41,0 -10.86,0 -16.29,0" /><path
         id="path80"
         style="fill:#2f3a53;fill-opacity:1;fill-rule:evenodd;stroke:none"
         d="m 716.016,-46.7891 c 0.136,4.5586 0.39,9.1289 0.39,13.6797 0.02,974.8984 0.02,1949.8094 0,2924.6894 0,4.57 -0.254,9.12 -0.39,13.7 5.449,0 10.879,0 16.328,0 0.039,-5.28 0.176,-10.53 0.176,-15.8 0,-973.5 0,-1946.968 0,-2920.4605 0,-5.2578 -0.137,-10.539 -0.176,-15.8086 -5.449,0 -10.879,0 -16.328,0" /><path
         id="path82"
         style="fill:#2f3a53;fill-opacity:1;fill-rule:evenodd;stroke:none"
         d="m 1245.92,-46.7891 c 0.13,4.5586 0.39,9.1289 0.39,13.6797 0.02,974.8984 0.02,1949.8094 0,2924.6894 0,4.57 -0.26,9.12 -0.39,13.7 5.43,0 10.86,0 16.31,0 0.05,-5.28 0.17,-10.53 0.17,-15.8 0.02,-973.5 0.02,-1946.968 0,-2920.4605 0,-5.2578 -0.12,-10.539 -0.17,-15.8086 -5.45,0 -10.88,0 -16.31,0" /><path
         id="path84"
         style="fill:#2f3a53;fill-opacity:1;fill-rule:evenodd;stroke:none"
         d="m 583.555,-46.7891 c 0.136,4.5586 0.371,9.1289 0.371,13.6797 0.019,974.8984 0.019,1949.7994 0,2924.6894 0,4.57 -0.235,9.12 -0.371,13.7 5.449,0 10.879,0 16.289,0 0.078,-5.28 0.195,-10.53 0.195,-15.8 0,-973.5 0,-1946.968 0,-2920.4605 0,-5.2578 -0.117,-10.539 -0.195,-15.8086 -5.41,0 -10.84,0 -16.289,0" /><path
         id="path86"
         style="fill:#2f3a53;fill-opacity:1;fill-rule:evenodd;stroke:none"
         d="m 2570.64,-46.7891 c 0.14,4.5586 0.4,9.1289 0.4,13.6797 0.01,974.8984 0.01,1949.7994 0,2924.6894 0,4.57 -0.26,9.12 -0.4,13.7 5.45,0 10.88,0 16.33,0 0.06,-5.28 0.16,-10.53 0.16,-15.8 0,-973.5 0,-1946.968 0,-2920.4605 0,-5.2578 -0.1,-10.539 -0.16,-15.8086 -5.45,0 -10.88,0 -16.33,0" /><path
         id="path88"
         style="fill:#2f3a53;fill-opacity:1;fill-rule:evenodd;stroke:none"
         d="m 1908.28,-46.7891 c 0.14,4.5586 0.39,9.1289 0.39,13.6797 0,974.8984 0,1949.7994 0,2924.6894 0,4.57 -0.25,9.12 -0.39,13.7 5.43,0 10.88,0 16.31,0 0.08,-5.28 0.2,-10.53 0.2,-15.8 0,-973.5 0,-1946.968 0,-2920.4605 0,-5.2578 -0.12,-10.539 -0.2,-15.8086 -5.43,0 -10.88,0 -16.31,0" /><path
         id="path90"
         style="fill:#2f3a53;fill-opacity:1;fill-rule:evenodd;stroke:none"
         d="m 451.094,-46.7891 c 0.117,4.5586 0.351,9.1289 0.351,13.6797 0.02,974.8984 0.02,1949.7994 0,2924.6894 0,4.57 -0.234,9.12 -0.351,13.7 5.41,0 10.84,0 16.289,0 0.058,-5.28 0.176,-10.53 0.176,-15.8 0.019,-973.5 0.019,-1946.968 0,-2920.4605 0,-5.2578 -0.118,-10.539 -0.176,-15.8086 -5.449,0 -10.879,0 -16.289,0" /><path
         id="path92"
         style="fill:#2f3a53;fill-opacity:1;fill-rule:evenodd;stroke:none"
         d="m 1378.4,-46.7891 c 0.13,4.5586 0.37,9.1289 0.37,13.6797 0.02,974.8984 0.02,1949.7994 0,2924.6894 0,4.57 -0.24,9.12 -0.37,13.7 5.43,0 10.88,0 16.29,0 0.08,-5.28 0.17,-10.53 0.17,-15.8 0.02,-973.5 0.02,-1946.968 0,-2920.4605 0,-5.2578 -0.09,-10.539 -0.17,-15.8086 -5.41,0 -10.86,0 -16.29,0" /><path
         id="path94"
         style="fill:#2f3a53;fill-opacity:1;fill-rule:evenodd;stroke:none"
         d="m 2703.14,-46.7891 c 0.12,4.5586 0.36,9.1289 0.36,13.6797 0.02,974.8984 0.02,1949.7994 0,2924.6894 0,4.57 -0.24,9.12 -0.36,13.7 5.41,0 10.84,0 16.29,0 0.06,-5.28 0.18,-10.53 0.18,-15.8 0.02,-973.5 0.02,-1946.968 0,-2920.4605 0,-5.2578 -0.12,-10.539 -0.18,-15.8086 -5.45,0 -10.88,0 -16.29,0" /><path
         id="path96"
         style="fill:#2f3a53;fill-opacity:1;fill-rule:evenodd;stroke:none"
         d="m 318.594,-46.7891 c 0.136,4.5586 0.371,9.1289 0.371,13.6797 0.039,974.8984 0.039,1949.7994 0,2924.6894 0,4.57 -0.235,9.12 -0.371,13.7 5.449,0 10.879,0 16.328,0 0.039,-5.28 0.156,-10.53 0.156,-15.8 0,-973.5 0,-1946.968 0,-2920.4605 0,-5.2578 -0.117,-10.539 -0.156,-15.8086 -5.449,0 -10.879,0 -16.328,0" /><path
         id="path98"
         style="fill:#2f3a53;fill-opacity:1;fill-rule:evenodd;stroke:none"
         d="m 2040.74,-46.7891 c 0.14,4.5586 0.39,9.1289 0.39,13.6797 0.02,974.8984 0.02,1949.7994 0,2924.6894 0,4.57 -0.25,9.12 -0.39,13.7 5.45,0 10.88,0 16.33,0 0.06,-5.28 0.18,-10.53 0.18,-15.8 0,-973.5 0,-1946.968 0,-2920.4605 0,-5.2578 -0.12,-10.539 -0.18,-15.8086 -5.45,0 -10.88,0 -16.33,0" /><path
         id="path100"
         style="fill:#2f3a53;fill-opacity:1;fill-rule:evenodd;stroke:none"
         d="m 186.133,-46.7891 c 0.137,4.5586 0.39,9.1289 0.39,13.6797 0.02,974.8984 0.02,1949.8094 0,2924.6894 0,4.57 -0.253,9.12 -0.39,13.7 5.43,0 10.859,0 16.308,0 0.059,-5.28 0.157,-10.53 0.157,-15.8 0.019,-973.5 0.019,-1946.968 0,-2920.4605 0,-5.2578 -0.098,-10.539 -0.157,-15.8086 -5.449,0 -10.878,0 -16.308,0" /><path
         id="path102"
         style="fill:#2f3a53;fill-opacity:1;fill-rule:evenodd;stroke:none"
         d="m 2835.61,-46.7891 c 0.13,4.5586 0.37,9.1289 0.37,13.6797 0.02,974.8984 0.02,1949.8094 0,2924.6894 0,4.57 -0.24,9.12 -0.37,13.7 5.43,0 10.87,0 16.28,0 0.08,-5.28 0.2,-10.53 0.2,-15.8 0,-973.5 0,-1946.968 0,-2920.4605 0,-5.2578 -0.12,-10.539 -0.2,-15.8086 -5.41,0 -10.85,0 -16.28,0" /></g></g></svg>