<?xml version="1.0" encoding="UTF-8" standalone="no"?>
<svg
   xmlns="http://www.w3.org/2000/svg"
   viewBox="0 0 384 384"
   height="384"
   width="384"
   xml:space="preserve"
   id="svg2"
   version="1.1">
    <defs
     id="defs6"></defs><g
     transform="matrix(1.3333333,0,0,-1.3333333,0,384)"
     id="g10"><g
       transform="scale(0.1)"
       id="g12"><path
         id="path14"
         style="fill:#ffffff;fill-opacity:1;fill-rule:nonzero;stroke:none"
         d="M 0,0 H 2880 V 2880 H 0 Z" /><path
         id="path16"
         style="fill:#ef2a68;fill-opacity:1;fill-rule:nonzero;stroke:none"
         d="m 2588.03,-185.309 -72.54,72.539 355.58,355.59 72.54,-72.55 -355.58,-355.579" /><path
         id="path18"
         style="fill:#ef2a68;fill-opacity:1;fill-rule:nonzero;stroke:none"
         d="m 2249.68,-185.309 -72.54,72.539 693.93,693.93 72.54,-72.551 -693.93,-693.918" /><path
         id="path20"
         style="fill:#ef2a68;fill-opacity:1;fill-rule:nonzero;stroke:none"
         d="M 1911.34,-185.309 1838.8,-112.77 2871.07,919.5 2943.61,846.949 1911.34,-185.309" /><path
         id="path22"
         style="fill:#ef2a68;fill-opacity:1;fill-rule:nonzero;stroke:none"
         d="m 1572.99,-185.309 -72.54,72.539 1370.62,1370.62 72.54,-72.55 -1370.62,-1370.609" /><path
         id="path24"
         style="fill:#ef2a68;fill-opacity:1;fill-rule:nonzero;stroke:none"
         d="m 1234.64,-185.309 -72.54,72.539 1708.97,1708.97 72.54,-72.54 -1708.97,-1708.969" /><path
         id="path26"
         style="fill:#ef2a68;fill-opacity:1;fill-rule:nonzero;stroke:none"
         d="M 896.297,-185.309 823.762,-112.77 2871.07,1934.54 2943.61,1862 896.297,-185.309" /><path
         id="path28"
         style="fill:#ef2a68;fill-opacity:1;fill-rule:nonzero;stroke:none"
         d="m 557.961,-185.309 -72.539,72.539 2385.648,2385.65 72.54,-72.54 L 557.961,-185.309" /><path
         id="path30"
         style="fill:#ef2a68;fill-opacity:1;fill-rule:nonzero;stroke:none"
         d="m 219.609,-185.309 -72.543,72.539 2724.004,2724 72.54,-72.54 L 219.609,-185.309" /><path
         id="path32"
         style="fill:#ef2a68;fill-opacity:1;fill-rule:nonzero;stroke:none"
         d="m -118.738,-185.309 -72.547,72.539 3062.355,3062.34 72.54,-72.54 -3062.348,-3062.339" /><path
         id="path34"
         style="fill:#ef2a68;fill-opacity:1;fill-rule:nonzero;stroke:none"
         d="m -118.738,153.031 -72.547,72.539 2724.005,2724 72.54,-72.54 L -118.738,153.031" /><path
         id="path36"
         style="fill:#ef2a68;fill-opacity:1;fill-rule:nonzero;stroke:none"
         d="m -118.738,491.371 -72.547,72.539 2385.665,2385.66 72.53,-72.54 L -118.738,491.371" /><path
         id="path38"
         style="fill:#ef2a68;fill-opacity:1;fill-rule:nonzero;stroke:none"
         d="m -118.738,829.719 -72.547,72.543 2047.315,2047.308 72.54,-72.54 L -118.738,829.719" /><path
         id="path40"
         style="fill:#ef2a68;fill-opacity:1;fill-rule:nonzero;stroke:none"
         d="m -118.738,1168.07 -72.547,72.55 1708.975,1708.95 72.54,-72.54 -1708.968,-1708.96" /><path
         id="path42"
         style="fill:#ef2a68;fill-opacity:1;fill-rule:nonzero;stroke:none"
         d="m -118.738,1506.41 -72.547,72.55 1370.625,1370.61 72.54,-72.54 -1370.618,-1370.62" /><path
         id="path44"
         style="fill:#ef2a68;fill-opacity:1;fill-rule:nonzero;stroke:none"
         d="m -118.738,1844.75 -72.547,72.55 1032.269,1032.27 72.539,-72.54 -1032.261,-1032.28" /><path
         id="path46"
         style="fill:#ef2a68;fill-opacity:1;fill-rule:nonzero;stroke:none"
         d="m -118.738,2183.1 -72.547,72.54 693.93,693.93 72.543,-72.54 -693.926,-693.93" /><path
         id="path48"
         style="fill:#ef2a68;fill-opacity:1;fill-rule:nonzero;stroke:none"
         d="m -118.738,2521.44 -72.547,72.54 355.594,355.59 72.539,-72.54 -355.586,-355.59" /></g></g></svg>