<?xml version="1.0" encoding="utf-8"?>
<svg id="master-artboard" viewBox="0 0 450 450" version="1.0" xmlns="http://www.w3.org/2000/svg" x="0px" y="0px" width="450px" height="450px" enable-background="new 0 0 450 450">

    <rect width="450" height="450" fill="#C7EAFB"/>
    <g transform="matrix(1, 0, 0, 1, -475.0376281738281, -35.48855972290039)">
        <path fill="none" stroke="#EFF9FE" stroke-width="2" stroke-miterlimit="10"
              d="M700.934,35.33&#10;&#9;&#9;&#9;&#9;&#9;c0,37.499,0.288,37.499,0.288,74.998c0,37.5-0.411,37.5-0.411,75.001c0,37.5-3.092,37.5-3.092,75.001"/>
        <path fill="none" stroke="#EFF9FE" stroke-width="2" stroke-miterlimit="10"
              d="M794.979,35.33&#10;&#9;&#9;&#9;&#9;&#9;c0,37.499,1.909,37.499,1.909,74.998c0,37.5-2.002,37.5-2.002,75.001c0,37.5,0.536,37.5,0.536,75.001"/>
        <path fill="none" stroke="#EFF9FE" stroke-width="2" stroke-miterlimit="10"
              d="M818.634,35.33&#10;&#9;&#9;&#9;&#9;&#9;c0,37.499-1.578,37.499-1.578,74.998c0,37.5,2.594,37.5,2.594,75.001c0,37.5-2.167,37.5-2.167,75.001"/>
        <path fill="none" stroke="#EFF9FE" stroke-width="2" stroke-miterlimit="10"
              d="M841.766,35.33&#10;&#9;&#9;&#9;&#9;&#9;c0,37.499-0.692,37.499-0.692,74.998c0,37.5-0.64,37.5-0.64,75.001c0,37.5,0.641,37.5,0.641,75.001"/>
        <path fill="none" stroke="#EFF9FE" stroke-width="2" stroke-miterlimit="10"
              d="M865.371,35.33&#10;&#9;&#9;&#9;&#9;&#9;c0,37.499,2.497,37.499,2.497,74.998c0,37.5-1.066,37.5-1.066,75.001c0,37.5,0.88,37.5,0.88,75.001"/>
        <path fill="none" stroke="#EFF9FE" stroke-width="2" stroke-miterlimit="10"
              d="M890.023,35.33&#10;&#9;&#9;&#9;&#9;&#9;c0,37.499,0.856,37.499,0.856,74.998c0,37.5,0.145,37.5,0.145,75.001c0,37.5-1.097,37.5-1.097,75.001"/>
        <path fill="none" stroke="#EFF9FE" stroke-width="2" stroke-miterlimit="10"
              d="M911.377,35.33&#10;&#9;&#9;&#9;&#9;&#9;c0,37.499,0.191,37.499,0.191,74.998c0,37.5,3.504,37.5,3.504,75.001c0,37.5-0.993,37.5-0.993,75.001"/>
        <path fill="none" stroke="#EFF9FE" stroke-width="2" stroke-miterlimit="10"
              d="M487.663,485.33&#10;&#9;&#9;&#9;&#9;&#9;c0-37.499-1.35-37.499-1.35-74.998c0-37.5-1.386-37.5-1.386-75.001c0-37.5,0.08-37.5,0.08-75.001s-0.08-37.5-0.08-75.001&#10;&#9;&#9;&#9;&#9;&#9;c0-37.501,1.386-37.501,1.386-75.001c0-37.499,1.35-37.499,1.35-74.998"/>
        <path fill="none" stroke="#EFF9FE" stroke-width="2" stroke-miterlimit="10"
              d="M508.249,485.33&#10;&#9;&#9;&#9;&#9;&#9;c0-37.499,1.404-37.499,1.404-74.998c0-37.5-0.644-37.5-0.644-75.001c0-37.5-0.256-37.5-0.256-75.001s0.256-37.5,0.256-75.001&#10;&#9;&#9;&#9;&#9;&#9;c0-37.501,0.644-37.501,0.644-75.001c0-37.499-1.404-37.499-1.404-74.998"/>
        <path fill="none" stroke="#EFF9FE" stroke-width="2" stroke-miterlimit="10"
              d="M535.467,485.33&#10;&#9;&#9;&#9;&#9;&#9;c0-37.499-2.249-37.499-2.249-74.998c0-37.5,3.022-37.5,3.022-75.001c0-37.5-4.208-37.5-4.208-75.001s4.208-37.5,4.208-75.001&#10;&#9;&#9;&#9;&#9;&#9;c0-37.501-3.022-37.501-3.022-75.001c0-37.499,2.249-37.499,2.249-74.998"/>
        <path fill="none" stroke="#EFF9FE" stroke-width="2" stroke-miterlimit="10"
              d="M557.799,485.33&#10;&#9;&#9;&#9;&#9;&#9;c0-37.499,1.934-37.499,1.934-74.998c0-37.5-1.688-37.5-1.688-75.001c0-37.5,0.955-37.5,0.955-75.001s-0.955-37.5-0.955-75.001&#10;&#9;&#9;&#9;&#9;&#9;c0-37.501,1.688-37.501,1.688-75.001c0-37.499-1.934-37.499-1.934-74.998"/>
        <path fill="none" stroke="#EFF9FE" stroke-width="2" stroke-miterlimit="10"
              d="M581.303,485.33&#10;&#9;&#9;&#9;&#9;&#9;c0-37.499,0.632-37.499,0.632-74.998c0-37.5-1.884-37.5-1.884-75.001c0-37.5,0.401-37.5,0.401-75.001s-0.401-37.5-0.401-75.001&#10;&#9;&#9;&#9;&#9;&#9;c0-37.501,1.884-37.501,1.884-75.001c0-37.499-0.632-37.499-0.632-74.998"/>
        <path fill="none" stroke="#EFF9FE" stroke-width="2" stroke-miterlimit="10"
              d="M607.116,485.33&#10;&#9;&#9;&#9;&#9;&#9;c0-37.499-2.037-37.499-2.037-74.998c0-37.5-0.99-37.5-0.99-75.001c0-37.5,1.237-37.5,1.237-75.001s-1.237-37.5-1.237-75.001&#10;&#9;&#9;&#9;&#9;&#9;c0-37.501,0.99-37.501,0.99-75.001c0-37.499,2.037-37.499,2.037-74.998"/>
        <path fill="none" stroke="#EFF9FE" stroke-width="2" stroke-miterlimit="10"
              d="M626.953,485.33&#10;&#9;&#9;&#9;&#9;&#9;c0-37.499,1.983-37.499,1.983-74.998c0-37.5-0.74-37.5-0.74-75.001c0-37.5,1.006-37.5,1.006-75.001s-1.006-37.5-1.006-75.001&#10;&#9;&#9;&#9;&#9;&#9;c0-37.501,0.74-37.501,0.74-75.001c0-37.499-1.983-37.499-1.983-74.998"/>
        <path fill="none" stroke="#EFF9FE" stroke-width="2" stroke-miterlimit="10"
              d="M654.608,485.33&#10;&#9;&#9;&#9;&#9;&#9;c0-37.499-2.316-37.499-2.316-74.998c0-37.5-1.185-37.5-1.185-75.001c0-37.5,1.189-37.5,1.189-75.001s-1.189-37.5-1.189-75.001&#10;&#9;&#9;&#9;&#9;&#9;c0-37.501,1.185-37.501,1.185-75.001c0-37.499,2.316-37.499,2.316-74.998"/>
        <path fill="none" stroke="#EFF9FE" stroke-width="2" stroke-miterlimit="10"
              d="M676.452,485.33&#10;&#9;&#9;&#9;&#9;&#9;c0-37.499,0.997-37.499,0.997-74.998c0-37.5-0.684-37.5-0.684-75.001c0-37.5-1.796-37.5-1.796-75.001s1.796-37.5,1.796-75.001&#10;&#9;&#9;&#9;&#9;&#9;c0-37.501,0.684-37.501,0.684-75.001c0-37.499-0.997-37.499-0.997-74.998"/>
        <path fill="none" stroke="#EFF9FE" stroke-width="2" stroke-miterlimit="10"
              d="M700.934,485.33&#10;&#9;&#9;&#9;&#9;&#9;c0-37.499,0.288-37.499,0.288-74.998c0-37.5-0.411-37.5-0.411-75.001c0-37.5-3.092-37.5-3.092-75.001"/>
        <path fill="none" stroke="#EFF9FE" stroke-width="2" stroke-miterlimit="10"
              d="M722.584,485.33&#10;&#9;&#9;&#9;&#9;&#9;c0-37.499,1.363-37.499,1.363-74.998c0-37.5,0.148-37.5,0.148-75.001c0-37.5,1.593-37.5,1.593-75.001s-1.593-37.5-1.593-75.001&#10;&#9;&#9;&#9;&#9;&#9;c0-37.501-0.148-37.501-0.148-75.001c0-37.499-1.363-37.499-1.363-74.998"/>
        <path fill="none" stroke="#EFF9FE" stroke-width="2" stroke-miterlimit="10"
              d="M749.005,485.33&#10;&#9;&#9;&#9;&#9;&#9;c0-37.499,0.465-37.499,0.465-74.998c0-37.5-1.305-37.5-1.305-75.001c0-37.5-2.009-37.5-2.009-75.001s2.009-37.5,2.009-75.001&#10;&#9;&#9;&#9;&#9;&#9;c0-37.501,1.305-37.501,1.305-75.001c0-37.499-0.465-37.499-0.465-74.998"/>
        <path fill="none" stroke="#EFF9FE" stroke-width="2" stroke-miterlimit="10"
              d="M769.383,485.33&#10;&#9;&#9;&#9;&#9;&#9;c0-37.499,2.274-37.499,2.274-74.998c0-37.5-0.88-37.5-0.88-75.001c0-37.5-1.73-37.5-1.73-75.001s1.73-37.5,1.73-75.001&#10;&#9;&#9;&#9;&#9;&#9;c0-37.501,0.88-37.501,0.88-75.001c0-37.499-2.274-37.499-2.274-74.998"/>
        <path fill="none" stroke="#EFF9FE" stroke-width="2" stroke-miterlimit="10"
              d="M794.979,485.33&#10;&#9;&#9;&#9;&#9;&#9;c0-37.499,1.909-37.499,1.909-74.998c0-37.5-2.002-37.5-2.002-75.001c0-37.5,0.536-37.5,0.536-75.001"/>
        <path fill="none" stroke="#EFF9FE" stroke-width="2" stroke-miterlimit="10"
              d="M818.634,485.33&#10;&#9;&#9;&#9;&#9;&#9;c0-37.499-1.578-37.499-1.578-74.998c0-37.5,2.594-37.5,2.594-75.001c0-37.5-2.167-37.5-2.167-75.001"/>
        <path fill="none" stroke="#EFF9FE" stroke-width="2" stroke-miterlimit="10"
              d="M841.766,485.33&#10;&#9;&#9;&#9;&#9;&#9;c0-37.499-0.692-37.499-0.692-74.998c0-37.5-0.64-37.5-0.64-75.001c0-37.5,0.641-37.5,0.641-75.001"/>
        <path fill="none" stroke="#EFF9FE" stroke-width="2" stroke-miterlimit="10"
              d="M865.371,485.33&#10;&#9;&#9;&#9;&#9;&#9;c0-37.499,2.497-37.499,2.497-74.998c0-37.5-1.066-37.5-1.066-75.001c0-37.5,0.88-37.5,0.88-75.001"/>
        <path fill="none" stroke="#EFF9FE" stroke-width="2" stroke-miterlimit="10"
              d="M890.023,485.33&#10;&#9;&#9;&#9;&#9;&#9;c0-37.499,0.856-37.499,0.856-74.998c0-37.5,0.145-37.5,0.145-75.001c0-37.5-1.097-37.5-1.097-75.001"/>
        <path fill="none" stroke="#EFF9FE" stroke-width="2" stroke-miterlimit="10"
              d="M911.377,485.33&#10;&#9;&#9;&#9;&#9;&#9;c0-37.499,0.191-37.499,0.191-74.998c0-37.5,3.504-37.5,3.504-75.001c0-37.5-0.993-37.5-0.993-75.001"/>
    </g>
    <g>
        <path fill="none" stroke="#EFF9FE" stroke-width="2" stroke-miterlimit="10"
              d="M925,261.264&#10;&#9;&#9;&#9;&#9;&#9;c-37.499,0-37.499,0.288-74.998,0.288c-37.5,0-37.5-0.411-75.001-0.411c-37.5,0-37.5-3.092-75.001-3.092"
              transform="matrix(1, 0, 0, 1, -475.0376281738281, -35.48855972290039)"/>
        <path fill="none" stroke="#EFF9FE" stroke-width="2" stroke-miterlimit="10"
              d="M925,355.309&#10;&#9;&#9;&#9;&#9;&#9;c-37.499,0-37.499,1.909-74.998,1.909c-37.5,0-37.5-2.002-75.001-2.002c-37.5,0-37.5,0.536-75.001,0.536"
              transform="matrix(1, 0, 0, 1, -475.0376281738281, -35.48855972290039)"/>
        <path fill="none" stroke="#EFF9FE" stroke-width="2" stroke-miterlimit="10"
              d="M925,378.964&#10;&#9;&#9;&#9;&#9;&#9;c-37.499,0-37.499-1.578-74.998-1.578c-37.5,0-37.5,2.594-75.001,2.594c-37.5,0-37.5-2.167-75.001-2.167"
              transform="matrix(1, 0, 0, 1, -475.0376281738281, -35.48855972290039)"/>
        <path fill="none" stroke="#EFF9FE" stroke-width="2" stroke-miterlimit="10"
              d="M925,402.096&#10;&#9;&#9;&#9;&#9;&#9;c-37.499,0-37.499-0.692-74.998-0.692c-37.5,0-37.5-0.64-75.001-0.64c-37.5,0-37.5,0.641-75.001,0.641"
              transform="matrix(1, 0, 0, 1, -475.0376281738281, -35.48855972290039)"/>
        <path fill="none" stroke="#EFF9FE" stroke-width="2" stroke-miterlimit="10"
              d="M925,425.701&#10;&#9;&#9;&#9;&#9;&#9;c-37.499,0-37.499,2.497-74.998,2.497c-37.5,0-37.5-1.066-75.001-1.066c-37.5,0-37.5,0.88-75.001,0.88"
              transform="matrix(1, 0, 0, 1, -475.0376281738281, -35.48855972290039)"/>
        <path fill="none" stroke="#EFF9FE" stroke-width="2" stroke-miterlimit="10"
              d="M925,450.354&#10;&#9;&#9;&#9;&#9;&#9;c-37.499,0-37.499,0.856-74.998,0.856c-37.5,0-37.5,0.145-75.001,0.145c-37.5,0-37.5-1.097-75.001-1.097"
              transform="matrix(1, 0, 0, 1, -475.0376281738281, -35.48855972290039)"/>
        <path fill="none" stroke="#EFF9FE" stroke-width="2" stroke-miterlimit="10"
              d="M925,471.707&#10;&#9;&#9;&#9;&#9;&#9;c-37.499,0-37.499,0.191-74.998,0.191c-37.5,0-37.5,3.504-75.001,3.504c-37.5,0-37.5-0.993-75.001-0.993"
              transform="matrix(1, 0, 0, 1, -475.0376281738281, -35.48855972290039)"/>
        <path fill="none" stroke="#EFF9FE" stroke-width="2" stroke-miterlimit="10"
              d="M475,47.993c37.499,0,37.499-1.35,74.998-1.35&#10;&#9;&#9;&#9;&#9;&#9;c37.5,0,37.5-1.386,75.001-1.386c37.5,0,37.5,0.08,75.001,0.08s37.5-0.08,75.001-0.08c37.501,0,37.501,1.386,75.001,1.386&#10;&#9;&#9;&#9;&#9;&#9;c37.499,0,37.499,1.35,74.998,1.35"
              transform="matrix(1, 0, 0, 1, -475.0376281738281, -35.48855972290039)"/>
        <path fill="none" stroke="#EFF9FE" stroke-width="2" stroke-miterlimit="10"
              d="M475,68.579c37.499,0,37.499,1.404,74.998,1.404&#10;&#9;&#9;&#9;&#9;&#9;c37.5,0,37.5-0.644,75.001-0.644c37.5,0,37.5-0.256,75.001-0.256s37.5,0.256,75.001,0.256c37.501,0,37.501,0.644,75.001,0.644&#10;&#9;&#9;&#9;&#9;&#9;c37.499,0,37.499-1.404,74.998-1.404"
              transform="matrix(1, 0, 0, 1, -475.0376281738281, -35.48855972290039)"/>
        <path fill="none" stroke="#EFF9FE" stroke-width="2" stroke-miterlimit="10"
              d="M475,95.797c37.499,0,37.499-2.249,74.998-2.249&#10;&#9;&#9;&#9;&#9;&#9;c37.5,0,37.5,3.022,75.001,3.022c37.5,0,37.5-4.208,75.001-4.208s37.5,4.208,75.001,4.208c37.501,0,37.501-3.022,75.001-3.022&#10;&#9;&#9;&#9;&#9;&#9;c37.499,0,37.499,2.249,74.998,2.249"
              transform="matrix(1, 0, 0, 1, -475.0376281738281, -35.48855972290039)"/>
        <path fill="none" stroke="#EFF9FE" stroke-width="2" stroke-miterlimit="10"
              d="M475,118.129&#10;&#9;&#9;&#9;&#9;&#9;c37.499,0,37.499,1.934,74.998,1.934c37.5,0,37.5-1.688,75.001-1.688c37.5,0,37.5,0.955,75.001,0.955s37.5-0.955,75.001-0.955&#10;&#9;&#9;&#9;&#9;&#9;c37.501,0,37.501,1.688,75.001,1.688c37.499,0,37.499-1.934,74.998-1.934"
              transform="matrix(1, 0, 0, 1, -475.0376281738281, -35.48855972290039)"/>
        <path fill="none" stroke="#EFF9FE" stroke-width="2" stroke-miterlimit="10"
              d="M475,141.633&#10;&#9;&#9;&#9;&#9;&#9;c37.499,0,37.499,0.632,74.998,0.632c37.5,0,37.5-1.884,75.001-1.884c37.5,0,37.5,0.401,75.001,0.401s37.5-0.401,75.001-0.401&#10;&#9;&#9;&#9;&#9;&#9;c37.501,0,37.501,1.884,75.001,1.884c37.499,0,37.499-0.632,74.998-0.632"
              transform="matrix(1, 0, 0, 1, -475.0376281738281, -35.48855972290039)"/>
        <path fill="none" stroke="#EFF9FE" stroke-width="2" stroke-miterlimit="10"
              d="M475,167.446&#10;&#9;&#9;&#9;&#9;&#9;c37.499,0,37.499-2.037,74.998-2.037c37.5,0,37.5-0.99,75.001-0.99c37.5,0,37.5,1.237,75.001,1.237s37.5-1.237,75.001-1.237&#10;&#9;&#9;&#9;&#9;&#9;c37.501,0,37.501,0.99,75.001,0.99c37.499,0,37.499,2.037,74.998,2.037"
              transform="matrix(1, 0, 0, 1, -475.0376281738281, -35.48855972290039)"/>
        <path fill="none" stroke="#EFF9FE" stroke-width="2" stroke-miterlimit="10"
              d="M475,187.283&#10;&#9;&#9;&#9;&#9;&#9;c37.499,0,37.499,1.983,74.998,1.983c37.5,0,37.5-0.74,75.001-0.74c37.5,0,37.5,1.006,75.001,1.006s37.5-1.006,75.001-1.006&#10;&#9;&#9;&#9;&#9;&#9;c37.501,0,37.501,0.74,75.001,0.74c37.499,0,37.499-1.983,74.998-1.983"
              transform="matrix(1, 0, 0, 1, -475.0376281738281, -35.48855972290039)"/>
        <path fill="none" stroke="#EFF9FE" stroke-width="2" stroke-miterlimit="10"
              d="M475,214.938&#10;&#9;&#9;&#9;&#9;&#9;c37.499,0,37.499-2.316,74.998-2.316c37.5,0,37.5-1.185,75.001-1.185c37.5,0,37.5,1.189,75.001,1.189s37.5-1.189,75.001-1.189&#10;&#9;&#9;&#9;&#9;&#9;c37.501,0,37.501,1.185,75.001,1.185c37.499,0,37.499,2.316,74.998,2.316"
              transform="matrix(1, 0, 0, 1, -475.0376281738281, -35.48855972290039)"/>
        <path fill="none" stroke="#EFF9FE" stroke-width="2" stroke-miterlimit="10"
              d="M475,236.782&#10;&#9;&#9;&#9;&#9;&#9;c37.499,0,37.499,0.997,74.998,0.997c37.5,0,37.5-0.684,75.001-0.684c37.5,0,37.5-1.796,75.001-1.796s37.5,1.796,75.001,1.796&#10;&#9;&#9;&#9;&#9;&#9;c37.501,0,37.501,0.684,75.001,0.684c37.499,0,37.499-0.997,74.998-0.997"
              transform="matrix(1, 0, 0, 1, -475.0376281738281, -35.48855972290039)"/>
        <path fill="none" stroke="#EFF9FE" stroke-width="2" stroke-miterlimit="10"
              d="M475,261.264&#10;&#9;&#9;&#9;&#9;&#9;c37.499,0,37.499,0.288,74.998,0.288c37.5,0,37.5-0.411,75.001-0.411c37.5,0,37.5-3.092,75.001-3.092"
              transform="matrix(1, 0, 0, 1, -475.0376281738281, -35.48855972290039)"/>
        <path fill="none" stroke="#EFF9FE" stroke-width="2" stroke-miterlimit="10"
              d="M475,282.914&#10;&#9;&#9;&#9;&#9;&#9;c37.499,0,37.499,1.363,74.998,1.363c37.5,0,37.5,0.148,75.001,0.148c37.5,0,37.5,1.593,75.001,1.593s37.5-1.593,75.001-1.593&#10;&#9;&#9;&#9;&#9;&#9;c37.501,0,37.501-0.148,75.001-0.148c37.499,0,37.499-1.363,74.998-1.363"
              transform="matrix(1, 0, 0, 1, -475.0376281738281, -35.48855972290039)"/>
        <path fill="none" stroke="#EFF9FE" stroke-width="2" stroke-miterlimit="10"
              d="M475,309.335&#10;&#9;&#9;&#9;&#9;&#9;c37.499,0,37.499,0.465,74.998,0.465c37.5,0,37.5-1.305,75.001-1.305c37.5,0,37.5-2.009,75.001-2.009s37.5,2.009,75.001,2.009&#10;&#9;&#9;&#9;&#9;&#9;c37.501,0,37.501,1.305,75.001,1.305c37.499,0,37.499-0.465,74.998-0.465"
              transform="matrix(1, 0, 0, 1, -475.0376281738281, -35.48855972290039)"/>
        <path fill="none" stroke="#EFF9FE" stroke-width="2" stroke-miterlimit="10"
              d="M475,329.713&#10;&#9;&#9;&#9;&#9;&#9;c37.499,0,37.499,2.274,74.998,2.274c37.5,0,37.5-0.88,75.001-0.88c37.5,0,37.5-1.73,75.001-1.73s37.5,1.73,75.001,1.73&#10;&#9;&#9;&#9;&#9;&#9;c37.501,0,37.501,0.88,75.001,0.88c37.499,0,37.499-2.274,74.998-2.274"
              transform="matrix(1, 0, 0, 1, -475.0376281738281, -35.48855972290039)"/>
        <path fill="none" stroke="#EFF9FE" stroke-width="2" stroke-miterlimit="10"
              d="M475,355.309&#10;&#9;&#9;&#9;&#9;&#9;c37.499,0,37.499,1.909,74.998,1.909c37.5,0,37.5-2.002,75.001-2.002c37.5,0,37.5,0.536,75.001,0.536"
              transform="matrix(1, 0, 0, 1, -475.0376281738281, -35.48855972290039)"/>
        <path fill="none" stroke="#EFF9FE" stroke-width="2" stroke-miterlimit="10"
              d="M475,378.964&#10;&#9;&#9;&#9;&#9;&#9;c37.499,0,37.499-1.578,74.998-1.578c37.5,0,37.5,2.594,75.001,2.594c37.5,0,37.5-2.167,75.001-2.167"
              transform="matrix(1, 0, 0, 1, -475.0376281738281, -35.48855972290039)"/>
        <path fill="none" stroke="#EFF9FE" stroke-width="2" stroke-miterlimit="10"
              d="M475,402.096&#10;&#9;&#9;&#9;&#9;&#9;c37.499,0,37.499-0.692,74.998-0.692c37.5,0,37.5-0.64,75.001-0.64c37.5,0,37.5,0.641,75.001,0.641"
              transform="matrix(1, 0, 0, 1, -475.0376281738281, -35.48855972290039)"/>
        <path fill="none" stroke="#EFF9FE" stroke-width="2" stroke-miterlimit="10"
              d="M475,425.701&#10;&#9;&#9;&#9;&#9;&#9;c37.499,0,37.499,2.497,74.998,2.497c37.5,0,37.5-1.066,75.001-1.066c37.5,0,37.5,0.88,75.001,0.88"
              transform="matrix(1, 0, 0, 1, -475.0376281738281, -35.48855972290039)"/>
        <path fill="none" stroke="#EFF9FE" stroke-width="2" stroke-miterlimit="10"
              d="M475,450.354&#10;&#9;&#9;&#9;&#9;&#9;c37.499,0,37.499,0.856,74.998,0.856c37.5,0,37.5,0.145,75.001,0.145c37.5,0,37.5-1.097,75.001-1.097"
              transform="matrix(1, 0, 0, 1, -475.0376281738281, -35.48855972290039)"/>
        <path fill="none" stroke="#EFF9FE" stroke-width="2" stroke-miterlimit="10"
              d="M475,471.707&#10;&#9;&#9;&#9;&#9;&#9;c37.499,0,37.499,0.191,74.998,0.191c37.5,0,37.5,3.504,75.001,3.504c37.5,0,37.5-0.993,75.001-0.993"
              transform="matrix(1, 0, 0, 1, -475.0376281738281, -35.48855972290039)"/>
        <path fill="none" stroke="#00B9F2" stroke-width="0.75" stroke-miterlimit="10"
              d="M845.445,35.33&#10;&#9;&#9;&#9;&#9;c0,18.749-1.559,18.749-1.559,37.497c0,18.749,2.208,18.749,2.208,37.498c0,18.75,0.668,18.75,0.668,37.5&#10;&#9;&#9;&#9;&#9;s-0.267,18.75-0.267,37.499c0,18.752-0.658,18.752-0.658,37.503s-2.114,18.751-2.114,37.503h0.239&#10;&#9;&#9;&#9;&#9;c0,18.752,2.114,18.752,2.114,37.503s0.658,18.751,0.658,37.503c0,18.749,0.267,18.749,0.267,37.499s-0.668,18.75-0.668,37.5&#10;&#9;&#9;&#9;&#9;c0,18.749-2.208,18.749-2.208,37.498c0,18.749,1.559,18.749,1.559,37.497"
              transform="matrix(1, 0, 0, 1, -475.0376281738281, -35.48855972290039)"/>
        <path fill="none" stroke="#00B9F2" stroke-width="0.75" stroke-miterlimit="10"
              d="M856.126,35.33&#10;&#9;&#9;&#9;&#9;c0,18.749,1.994,18.749,1.994,37.497c0,18.749-0.552,18.749-0.552,37.498c0,18.75-0.209,18.75-0.209,37.5&#10;&#9;&#9;&#9;&#9;s-1.005,18.75-1.005,37.499c0,18.752,2.5,18.752,2.5,37.503s1.02,18.751,1.02,37.503h0.239c0,18.752-1.02,18.752-1.02,37.503&#10;&#9;&#9;&#9;&#9;s-2.5,18.751-2.5,37.503c0,18.749,1.005,18.749,1.005,37.499s0.209,18.75,0.209,37.5c0,18.749,0.552,18.749,0.552,37.498&#10;&#9;&#9;&#9;&#9;c0,18.749-1.994,18.749-1.994,37.497"
              transform="matrix(1, 0, 0, 1, -475.0376281738281, -35.48855972290039)"/>
        <path fill="none" stroke="#00B9F2" stroke-width="0.75" stroke-miterlimit="10"
              d="M870.425,35.33&#10;&#9;&#9;&#9;&#9;c0,18.749,0.354,18.749,0.354,37.497c0,18.749,1.159,18.749,1.159,37.498c0,18.75-0.279,18.75-0.279,37.5&#10;&#9;&#9;&#9;&#9;s-0.082,18.75-0.082,37.499c0,18.752-0.94,18.752-0.94,37.503s0.928,18.751,0.928,37.503h0.239&#10;&#9;&#9;&#9;&#9;c0,18.752-0.928,18.752-0.928,37.503s0.94,18.751,0.94,37.503c0,18.749,0.082,18.749,0.082,37.499s0.279,18.75,0.279,37.5&#10;&#9;&#9;&#9;&#9;c0,18.749-1.159,18.749-1.159,37.498c0,18.749-0.354,18.749-0.354,37.497"
              transform="matrix(1, 0, 0, 1, -475.0376281738281, -35.48855972290039)"/>
        <path fill="none" stroke="#00B9F2" stroke-width="0.75" stroke-miterlimit="10"
              d="M881.257,35.33&#10;&#9;&#9;&#9;&#9;c0,18.749,2.895,18.749,2.895,37.497c0,18.749-3.694,18.749-3.694,37.498c0,18.75,1.43,18.75,1.43,37.5S880,166.574,880,185.323&#10;&#9;&#9;&#9;&#9;c0,18.752,3.248,18.752,3.248,37.503s-2.102,18.751-2.102,37.503h0.239c0,18.752,2.102,18.752,2.102,37.503&#10;&#9;&#9;&#9;&#9;s-3.248,18.751-3.248,37.503c0,18.749,1.887,18.749,1.887,37.499s-1.43,18.75-1.43,37.5c0,18.749,3.694,18.749,3.694,37.498&#10;&#9;&#9;&#9;&#9;c0,18.749-2.895,18.749-2.895,37.497"
              transform="matrix(1, 0, 0, 1, -475.0376281738281, -35.48855972290039)"/>
        <path fill="none" stroke="#00B9F2" stroke-width="0.75" stroke-miterlimit="10"
              d="M894.05,35.33&#10;&#9;&#9;&#9;&#9;c0,18.749-1.822,18.749-1.822,37.497c0,18.749,0.292,18.749,0.292,37.498c0,18.75,3.077,18.75,3.077,37.5&#10;&#9;&#9;&#9;&#9;s-2.373,18.75-2.373,37.499c0,18.752-0.524,18.752-0.524,37.503s0.654,18.751,0.654,37.503h0.239&#10;&#9;&#9;&#9;&#9;c0,18.752-0.654,18.752-0.654,37.503s0.524,18.751,0.524,37.503c0,18.749,2.373,18.749,2.373,37.499s-3.077,18.75-3.077,37.5&#10;&#9;&#9;&#9;&#9;c0,18.749-0.292,18.749-0.292,37.498c0,18.749,1.822,18.749,1.822,37.497"
              transform="matrix(1, 0, 0, 1, -475.0376281738281, -35.48855972290039)"/>
        <path fill="none" stroke="#00B9F2" stroke-width="0.75" stroke-miterlimit="10"
              d="M904.253,35.33&#10;&#9;&#9;&#9;&#9;c0,18.749,3.451,18.749,3.451,37.497c0,18.749-3.542,18.749-3.542,37.498c0,18.75,0.008,18.75,0.008,37.5&#10;&#9;&#9;&#9;&#9;s1.945,18.75,1.945,37.499c0,18.752,0.845,18.752,0.845,37.503s-0.646,18.751-0.646,37.503h0.239&#10;&#9;&#9;&#9;&#9;c0,18.752,0.646,18.752,0.646,37.503s-0.845,18.751-0.845,37.503c0,18.749-1.945,18.749-1.945,37.499s-0.008,18.75-0.008,37.5&#10;&#9;&#9;&#9;&#9;c0,18.749,3.542,18.749,3.542,37.498c0,18.749-3.451,18.749-3.451,37.497"
              transform="matrix(1, 0, 0, 1, -475.0376281738281, -35.48855972290039)"/>
        <path fill="none" stroke="#00B9F2" stroke-width="0.75" stroke-miterlimit="10"
              d="M479.44,485.33&#10;&#9;&#9;&#9;&#9;c0-18.749,3.081-18.749,3.081-37.497c0-18.749-1.952-18.749-1.952-37.498c0-18.75,0.053-18.75,0.053-37.5&#10;&#9;&#9;&#9;&#9;s2.122-18.75,2.122-37.499c0-18.752-0.549-18.752-0.549-37.503s-1.684-18.751-1.684-37.503s1.684-18.752,1.684-37.503&#10;&#9;&#9;&#9;&#9;s0.549-18.751,0.549-37.503c0-18.749-2.122-18.749-2.122-37.499s-0.053-18.75-0.053-37.5c0-18.749,1.952-18.749,1.952-37.498&#10;&#9;&#9;&#9;&#9;c0-18.749-3.081-18.749-3.081-37.497"
              transform="matrix(1, 0, 0, 1, -475.0376281738281, -35.48855972290039)"/>
        <path fill="none" stroke="#00B9F2" stroke-width="0.75" stroke-miterlimit="10"
              d="M493.539,485.33&#10;&#9;&#9;&#9;&#9;c0-18.749-1.395-18.749-1.395-37.497c0-18.749-0.467-18.749-0.467-37.498c0-18.75-0.957-18.75-0.957-37.5&#10;&#9;&#9;&#9;&#9;s2.621-18.75,2.621-37.499c0-18.752-2.307-18.752-2.307-37.503s1.501-18.751,1.501-37.503s-1.501-18.752-1.501-37.503&#10;&#9;&#9;&#9;&#9;s2.307-18.751,2.307-37.503c0-18.749-2.621-18.749-2.621-37.499s0.957-18.75,0.957-37.5c0-18.749,0.467-18.749,0.467-37.498&#10;&#9;&#9;&#9;&#9;c0-18.749,1.395-18.749,1.395-37.497"
              transform="matrix(1, 0, 0, 1, -475.0376281738281, -35.48855972290039)"/>
        <path fill="none" stroke="#00B9F2" stroke-width="0.75" stroke-miterlimit="10"
              d="M504.572,485.33&#10;&#9;&#9;&#9;&#9;c0-18.749,1.917-18.749,1.917-37.497c0-18.749-1.533-18.749-1.533-37.498c0-18.75-1.607-18.75-1.607-37.5&#10;&#9;&#9;&#9;&#9;s0.923-18.75,0.923-37.499c0-18.752,0.774-18.752,0.774-37.503s1.331-18.751,1.331-37.503s-1.331-18.752-1.331-37.503&#10;&#9;&#9;&#9;&#9;s-0.774-18.751-0.774-37.503c0-18.749-0.923-18.749-0.923-37.499s1.607-18.75,1.607-37.5c0-18.749,1.533-18.749,1.533-37.498&#10;&#9;&#9;&#9;&#9;c0-18.749-1.917-18.749-1.917-37.497"
              transform="matrix(1, 0, 0, 1, -475.0376281738281, -35.48855972290039)"/>
        <path fill="none" stroke="#00B9F2" stroke-width="0.75" stroke-miterlimit="10"
              d="M516.987,485.33&#10;&#9;&#9;&#9;&#9;c0-18.749-1.232-18.749-1.232-37.497c0-18.749,0.69-18.749,0.69-37.498c0-18.75,2.448-18.75,2.448-37.5&#10;&#9;&#9;&#9;&#9;s-3.988-18.75-3.988-37.499c0-18.752,3.792-18.752,3.792-37.503s-3.035-18.751-3.035-37.503s3.035-18.752,3.035-37.503&#10;&#9;&#9;&#9;&#9;s-3.792-18.751-3.792-37.503c0-18.749,3.988-18.749,3.988-37.499s-2.448-18.75-2.448-37.5c0-18.749-0.69-18.749-0.69-37.498&#10;&#9;&#9;&#9;&#9;c0-18.749,1.232-18.749,1.232-37.497"
              transform="matrix(1, 0, 0, 1, -475.0376281738281, -35.48855972290039)"/>
        <path fill="none" stroke="#00B9F2" stroke-width="0.75" stroke-miterlimit="10"
              d="M529.746,485.33&#10;&#9;&#9;&#9;&#9;c0-18.749-0.909-18.749-0.909-37.497c0-18.749,2.479-18.749,2.479-37.498c0-18.75-0.757-18.75-0.757-37.5&#10;&#9;&#9;&#9;&#9;s-0.187-18.75-0.187-37.499c0-18.752-0.964-18.752-0.964-37.503s0.501-18.751,0.501-37.503s-0.501-18.752-0.501-37.503&#10;&#9;&#9;&#9;&#9;s0.964-18.751,0.964-37.503c0-18.749,0.187-18.749,0.187-37.499s0.757-18.75,0.757-37.5c0-18.749-2.479-18.749-2.479-37.498&#10;&#9;&#9;&#9;&#9;c0-18.749,0.909-18.749,0.909-37.497"
              transform="matrix(1, 0, 0, 1, -475.0376281738281, -35.48855972290039)"/>
        <path fill="none" stroke="#00B9F2" stroke-width="0.75" stroke-miterlimit="10"
              d="M540.826,485.33&#10;&#9;&#9;&#9;&#9;c0-18.749,1.012-18.749,1.012-37.497c0-18.749-0.449-18.749-0.449-37.498c0-18.75,0.999-18.75,0.999-37.5&#10;&#9;&#9;&#9;&#9;s1.185-18.75,1.185-37.499c0-18.752-1.521-18.752-1.521-37.503s0.976-18.751,0.976-37.503s-0.976-18.752-0.976-37.503&#10;&#9;&#9;&#9;&#9;s1.521-18.751,1.521-37.503c0-18.749-1.185-18.749-1.185-37.499s-0.999-18.75-0.999-37.5c0-18.749,0.449-18.749,0.449-37.498&#10;&#9;&#9;&#9;&#9;c0-18.749-1.012-18.749-1.012-37.497"
              transform="matrix(1, 0, 0, 1, -475.0376281738281, -35.48855972290039)"/>
        <path fill="none" stroke="#00B9F2" stroke-width="0.75" stroke-miterlimit="10"
              d="M551.719,485.33&#10;&#9;&#9;&#9;&#9;c0-18.749-0.16-18.749-0.16-37.497c0-18.749,0.558-18.749,0.558-37.498c0-18.75,3.624-18.75,3.624-37.5&#10;&#9;&#9;&#9;&#9;s-2.577-18.75-2.577-37.499c0-18.752,2.285-18.752,2.285-37.503s0.362-18.751,0.362-37.503s-0.362-18.752-0.362-37.503&#10;&#9;&#9;&#9;&#9;s-2.285-18.751-2.285-37.503c0-18.749,2.577-18.749,2.577-37.499s-3.624-18.75-3.624-37.5c0-18.749-0.558-18.749-0.558-37.498&#10;&#9;&#9;&#9;&#9;c0-18.749,0.16-18.749,0.16-37.497"
              transform="matrix(1, 0, 0, 1, -475.0376281738281, -35.48855972290039)"/>
        <path fill="none" stroke="#00B9F2" stroke-width="0.75" stroke-miterlimit="10"
              d="M567.435,485.33&#10;&#9;&#9;&#9;&#9;c0-18.749-2.925-18.749-2.925-37.497c0-18.749,0.09-18.749,0.09-37.498c0-18.75,0.214-18.75,0.214-37.5&#10;&#9;&#9;&#9;&#9;s-1.235-18.75-1.235-37.499c0-18.752,3.304-18.752,3.304-37.503s0.071-18.751,0.071-37.503s-0.071-18.752-0.071-37.503&#10;&#9;&#9;&#9;&#9;s-3.304-18.751-3.304-37.503c0-18.749,1.235-18.749,1.235-37.499s-0.214-18.75-0.214-37.5c0-18.749-0.09-18.749-0.09-37.498&#10;&#9;&#9;&#9;&#9;c0-18.749,2.925-18.749,2.925-37.497"
              transform="matrix(1, 0, 0, 1, -475.0376281738281, -35.48855972290039)"/>
        <path fill="none" stroke="#00B9F2" stroke-width="0.75" stroke-miterlimit="10"
              d="M578.498,485.33&#10;&#9;&#9;&#9;&#9;c0-18.749,0.403-18.749,0.403-37.497c0-18.749,1.176-18.749,1.176-37.498c0-18.75-0.945-18.75-0.945-37.5&#10;&#9;&#9;&#9;&#9;s-3.12-18.75-3.12-37.499c0-18.752,0.574-18.752,0.574-37.503s0.95-18.751,0.95-37.503s-0.95-18.752-0.95-37.503&#10;&#9;&#9;&#9;&#9;s-0.574-18.751-0.574-37.503c0-18.749,3.12-18.749,3.12-37.499s0.945-18.75,0.945-37.5c0-18.749-1.176-18.749-1.176-37.498&#10;&#9;&#9;&#9;&#9;c0-18.749-0.403-18.749-0.403-37.497"
              transform="matrix(1, 0, 0, 1, -475.0376281738281, -35.48855972290039)"/>
        <path fill="none" stroke="#00B9F2" stroke-width="0.75" stroke-miterlimit="10"
              d="M587.947,485.33&#10;&#9;&#9;&#9;&#9;c0-18.749,1.197-18.749,1.197-37.497c0-18.749,1.779-18.749,1.779-37.498c0-18.75,1.115-18.75,1.115-37.5&#10;&#9;&#9;&#9;&#9;s-3.618-18.75-3.618-37.499c0-18.752,3.818-18.752,3.818-37.503s-1.215-18.751-1.215-37.503s1.215-18.752,1.215-37.503&#10;&#9;&#9;&#9;&#9;s-3.818-18.751-3.818-37.503c0-18.749,3.618-18.749,3.618-37.499s-1.115-18.75-1.115-37.5c0-18.749-1.779-18.749-1.779-37.498&#10;&#9;&#9;&#9;&#9;c0-18.749-1.197-18.749-1.197-37.497"
              transform="matrix(1, 0, 0, 1, -475.0376281738281, -35.48855972290039)"/>
        <path fill="none" stroke="#00B9F2" stroke-width="0.75" stroke-miterlimit="10"
              d="M602.338,485.33&#10;&#9;&#9;&#9;&#9;c0-18.749,1.518-18.749,1.518-37.497c0-18.749-0.696-18.749-0.696-37.498c0-18.75,0.055-18.75,0.055-37.5&#10;&#9;&#9;&#9;&#9;s-3.185-18.75-3.185-37.499c0-18.752,1.952-18.752,1.952-37.503s2.298-18.751,2.298-37.503s-2.298-18.752-2.298-37.503&#10;&#9;&#9;&#9;&#9;s-1.952-18.751-1.952-37.503c0-18.749,3.185-18.749,3.185-37.499s-0.055-18.75-0.055-37.5c0-18.749,0.696-18.749,0.696-37.498&#10;&#9;&#9;&#9;&#9;c0-18.749-1.518-18.749-1.518-37.497"
              transform="matrix(1, 0, 0, 1, -475.0376281738281, -35.48855972290039)"/>
        <path fill="none" stroke="#00B9F2" stroke-width="0.75" stroke-miterlimit="10"
              d="M613.744,485.33&#10;&#9;&#9;&#9;&#9;c0-18.749,0.614-18.749,0.614-37.497c0-18.749-0.409-18.749-0.409-37.498c0-18.75,0.22-18.75,0.22-37.5s1.665-18.75,1.665-37.499&#10;&#9;&#9;&#9;&#9;c0-18.752-0.927-18.752-0.927-37.503s1.652-18.751,1.652-37.503s-1.652-18.752-1.652-37.503s0.927-18.751,0.927-37.503&#10;&#9;&#9;&#9;&#9;c0-18.749-1.665-18.749-1.665-37.499s-0.22-18.75-0.22-37.5c0-18.749,0.409-18.749,0.409-37.498&#10;&#9;&#9;&#9;&#9;c0-18.749-0.614-18.749-0.614-37.497"
              transform="matrix(1, 0, 0, 1, -475.0376281738281, -35.48855972290039)"/>
        <path fill="none" stroke="#00B9F2" stroke-width="0.75" stroke-miterlimit="10"
              d="M626.749,485.33&#10;&#9;&#9;&#9;&#9;c0-18.749-0.578-18.749-0.578-37.497c0-18.749-1.083-18.749-1.083-37.498c0-18.75,3.144-18.75,3.144-37.5&#10;&#9;&#9;&#9;&#9;s0.354-18.75,0.354-37.499c0-18.752-3.53-18.752-3.53-37.503s-0.057-18.751-0.057-37.503s0.057-18.752,0.057-37.503&#10;&#9;&#9;&#9;&#9;s3.53-18.751,3.53-37.503c0-18.749-0.354-18.749-0.354-37.499s-3.144-18.75-3.144-37.5c0-18.749,1.083-18.749,1.083-37.498&#10;&#9;&#9;&#9;&#9;c0-18.749,0.578-18.749,0.578-37.497"
              transform="matrix(1, 0, 0, 1, -475.0376281738281, -35.48855972290039)"/>
        <path fill="none" stroke="#00B9F2" stroke-width="0.75" stroke-miterlimit="10"
              d="M640.457,485.33&#10;&#9;&#9;&#9;&#9;c0-18.749-3.934-18.749-3.934-37.497c0-18.749,1.999-18.749,1.999-37.498c0-18.75-1.452-18.75-1.452-37.5&#10;&#9;&#9;&#9;&#9;s-0.256-18.75-0.256-37.499c0-18.752,1.619-18.752,1.619-37.503s-0.292-18.751-0.292-37.503s0.292-18.752,0.292-37.503&#10;&#9;&#9;&#9;&#9;s-1.619-18.751-1.619-37.503c0-18.749,0.256-18.749,0.256-37.499s1.452-18.75,1.452-37.5c0-18.749-1.999-18.749-1.999-37.498&#10;&#9;&#9;&#9;&#9;c0-18.749,3.934-18.749,3.934-37.497"
              transform="matrix(1, 0, 0, 1, -475.0376281738281, -35.48855972290039)"/>
        <path fill="none" stroke="#00B9F2" stroke-width="0.75" stroke-miterlimit="10"
              d="M652.986,485.33&#10;&#9;&#9;&#9;&#9;c0-18.749-0.645-18.749-0.645-37.497c0-18.749-0.513-18.749-0.513-37.498c0-18.75,0.341-18.75,0.341-37.5&#10;&#9;&#9;&#9;&#9;s-2.871-18.75-2.871-37.499c0-18.752,1.18-18.752,1.18-37.503s-1.58-18.751-1.58-37.503s1.58-18.752,1.58-37.503&#10;&#9;&#9;&#9;&#9;s-1.18-18.751-1.18-37.503c0-18.749,2.871-18.749,2.871-37.499s-0.341-18.75-0.341-37.5c0-18.749,0.513-18.749,0.513-37.498&#10;&#9;&#9;&#9;&#9;c0-18.749,0.645-18.749,0.645-37.497"
              transform="matrix(1, 0, 0, 1, -475.0376281738281, -35.48855972290039)"/>
        <path fill="none" stroke="#00B9F2" stroke-width="0.75" stroke-miterlimit="10"
              d="M661.469,485.33&#10;&#9;&#9;&#9;&#9;c0-18.749,1.79-18.749,1.79-37.497c0-18.749-0.526-18.749-0.526-37.498c0-18.75,1.62-18.75,1.62-37.5s-1.754-18.75-1.754-37.499&#10;&#9;&#9;&#9;&#9;c0-18.752,1.506-18.752,1.506-37.503s-2.511-18.751-2.511-37.503s2.511-18.752,2.511-37.503s-1.506-18.751-1.506-37.503&#10;&#9;&#9;&#9;&#9;c0-18.749,1.754-18.749,1.754-37.499s-1.62-18.75-1.62-37.5c0-18.749,0.526-18.749,0.526-37.498&#10;&#9;&#9;&#9;&#9;c0-18.749-1.79-18.749-1.79-37.497"
              transform="matrix(1, 0, 0, 1, -475.0376281738281, -35.48855972290039)"/>
        <path fill="none" stroke="#00B9F2" stroke-width="0.75" stroke-miterlimit="10"
              d="M675.556,485.33&#10;&#9;&#9;&#9;&#9;c0-18.749-2.445-18.749-2.445-37.497c0-18.749,0.487-18.749,0.487-37.498c0-18.75,1.667-18.75,1.667-37.5&#10;&#9;&#9;&#9;&#9;s-0.733-18.75-0.733-37.499c0-18.752,1.632-18.752,1.632-37.503s-2.236-18.751-2.236-37.503s2.236-18.752,2.236-37.503&#10;&#9;&#9;&#9;&#9;s-1.632-18.751-1.632-37.503c0-18.749,0.733-18.749,0.733-37.499s-1.667-18.75-1.667-37.5c0-18.749-0.487-18.749-0.487-37.498&#10;&#9;&#9;&#9;&#9;c0-18.749,2.445-18.749,2.445-37.497"
              transform="matrix(1, 0, 0, 1, -475.0376281738281, -35.48855972290039)"/>
        <path fill="none" stroke="#00B9F2" stroke-width="0.75" stroke-miterlimit="10"
              d="M685.911,485.33&#10;&#9;&#9;&#9;&#9;c0-18.749,0.525-18.749,0.525-37.497c0-18.749,0.491-18.749,0.491-37.498c0-18.75,1.454-18.75,1.454-37.5&#10;&#9;&#9;&#9;&#9;s0.301-18.75,0.301-37.499c0-18.752-2.214-18.752-2.214-37.503s-0.471-18.751-0.471-37.503s0.471-18.752,0.471-37.503&#10;&#9;&#9;&#9;&#9;s2.214-18.751,2.214-37.503c0-18.749-0.301-18.749-0.301-37.499s-1.454-18.75-1.454-37.5c0-18.749-0.491-18.749-0.491-37.498&#10;&#9;&#9;&#9;&#9;c0-18.749-0.525-18.749-0.525-37.497"
              transform="matrix(1, 0, 0, 1, -475.0376281738281, -35.48855972290039)"/>
        <path fill="none" stroke="#00B9F2" stroke-width="0.75" stroke-miterlimit="10"
              d="M700.215,485.33&#10;&#9;&#9;&#9;&#9;c0-18.749-0.739-18.749-0.739-37.497c0-18.749,1.388-18.749,1.388-37.498c0-18.75-0.86-18.75-0.86-37.5s0.896-18.75,0.896-37.499&#10;&#9;&#9;&#9;&#9;c0-18.752-3.123-18.752-3.123-37.503s2.508-18.751,2.508-37.503s-2.508-18.752-2.508-37.503s3.123-18.751,3.123-37.503&#10;&#9;&#9;&#9;&#9;c0-18.749-0.896-18.749-0.896-37.499s0.86-18.75,0.86-37.5c0-18.749-1.388-18.749-1.388-37.498&#10;&#9;&#9;&#9;&#9;c0-18.749,0.739-18.749,0.739-37.497"
              transform="matrix(1, 0, 0, 1, -475.0376281738281, -35.48855972290039)"/>
        <path fill="none" stroke="#00B9F2" stroke-width="0.75" stroke-miterlimit="10"
              d="M711.665,485.33&#10;&#9;&#9;&#9;&#9;c0-18.749,2.01-18.749,2.01-37.497c0-18.749,0.02-18.749,0.02-37.498c0-18.75-0.93-18.75-0.93-37.5s0.038-18.75,0.038-37.499&#10;&#9;&#9;&#9;&#9;c0-18.752-1.491-18.752-1.491-37.503s1.363-18.751,1.363-37.503s-1.363-18.752-1.363-37.503s1.491-18.751,1.491-37.503&#10;&#9;&#9;&#9;&#9;c0-18.749-0.038-18.749-0.038-37.499s0.93-18.75,0.93-37.5c0-18.749-0.02-18.749-0.02-37.498c0-18.749-2.01-18.749-2.01-37.497"
              transform="matrix(1, 0, 0, 1, -475.0376281738281, -35.48855972290039)"/>
        <path fill="none" stroke="#00B9F2" stroke-width="0.75" stroke-miterlimit="10"
              d="M725.972,485.33&#10;&#9;&#9;&#9;&#9;c0-18.749-3.791-18.749-3.791-37.497c0-18.749,1.664-18.749,1.664-37.498c0-18.75-1.721-18.75-1.721-37.5&#10;&#9;&#9;&#9;&#9;s0.648-18.75,0.648-37.499c0-18.752-0.534-18.752-0.534-37.503s3.691-18.751,3.691-37.503s-3.691-18.752-3.691-37.503&#10;&#9;&#9;&#9;&#9;s0.534-18.751,0.534-37.503c0-18.749-0.648-18.749-0.648-37.499s1.721-18.75,1.721-37.5c0-18.749-1.664-18.749-1.664-37.498&#10;&#9;&#9;&#9;&#9;c0-18.749,3.791-18.749,3.791-37.497"
              transform="matrix(1, 0, 0, 1, -475.0376281738281, -35.48855972290039)"/>
        <path fill="none" stroke="#00B9F2" stroke-width="0.75" stroke-miterlimit="10"
              d="M734.363,485.33&#10;&#9;&#9;&#9;&#9;c0-18.749,2.482-18.749,2.482-37.497c0-18.749-2.464-18.749-2.464-37.498c0-18.75-0.012-18.75-0.012-37.5&#10;&#9;&#9;&#9;&#9;s0.585-18.75,0.585-37.499c0-18.752,2.726-18.752,2.726-37.503s-1.473-18.751-1.473-37.503s1.473-18.752,1.473-37.503&#10;&#9;&#9;&#9;&#9;s-2.726-18.751-2.726-37.503c0-18.749-0.585-18.749-0.585-37.499s0.012-18.75,0.012-37.5c0-18.749,2.464-18.749,2.464-37.498&#10;&#9;&#9;&#9;&#9;c0-18.749-2.482-18.749-2.482-37.497"
              transform="matrix(1, 0, 0, 1, -475.0376281738281, -35.48855972290039)"/>
        <path fill="none" stroke="#00B9F2" stroke-width="0.75" stroke-miterlimit="10"
              d="M749.582,485.33&#10;&#9;&#9;&#9;&#9;c0-18.749-1.861-18.749-1.861-37.497c0-18.749,0.788-18.749,0.788-37.498c0-18.75,0.106-18.75,0.106-37.5&#10;&#9;&#9;&#9;&#9;s1.649-18.75,1.649-37.499c0-18.752-0.551-18.752-0.551-37.503s-3.155-18.751-3.155-37.503s3.155-18.752,3.155-37.503&#10;&#9;&#9;&#9;&#9;s0.551-18.751,0.551-37.503c0-18.749-1.649-18.749-1.649-37.499s-0.106-18.75-0.106-37.5c0-18.749-0.788-18.749-0.788-37.498&#10;&#9;&#9;&#9;&#9;c0-18.749,1.861-18.749,1.861-37.497"
              transform="matrix(1, 0, 0, 1, -475.0376281738281, -35.48855972290039)"/>
        <path fill="none" stroke="#00B9F2" stroke-width="0.75" stroke-miterlimit="10"
              d="M760.887,485.33&#10;&#9;&#9;&#9;&#9;c0-18.749-1.82-18.749-1.82-37.497c0-18.749,1.51-18.749,1.51-37.498c0-18.75,0.728-18.75,0.728-37.5s0.573-18.75,0.573-37.499&#10;&#9;&#9;&#9;&#9;c0-18.752,0.487-18.752,0.487-37.503s0.055-18.751,0.055-37.503s-0.055-18.752-0.055-37.503s-0.487-18.751-0.487-37.503&#10;&#9;&#9;&#9;&#9;c0-18.749-0.573-18.749-0.573-37.499s-0.728-18.75-0.728-37.5c0-18.749-1.51-18.749-1.51-37.498&#10;&#9;&#9;&#9;&#9;c0-18.749,1.82-18.749,1.82-37.497"
              transform="matrix(1, 0, 0, 1, -475.0376281738281, -35.48855972290039)"/>
        <path fill="none" stroke="#00B9F2" stroke-width="0.75" stroke-miterlimit="10"
              d="M774.553,485.33&#10;&#9;&#9;&#9;&#9;c0-18.749-3.211-18.749-3.211-37.497c0-18.749,2.731-18.749,2.731-37.498c0-18.75-3.362-18.75-3.362-37.5&#10;&#9;&#9;&#9;&#9;s2.529-18.75,2.529-37.499c0-18.752,0.378-18.752,0.378-37.503s0.006-18.751,0.006-37.503s-0.006-18.752-0.006-37.503&#10;&#9;&#9;&#9;&#9;s-0.378-18.751-0.378-37.503c0-18.749-2.529-18.749-2.529-37.499s3.362-18.75,3.362-37.5c0-18.749-2.731-18.749-2.731-37.498&#10;&#9;&#9;&#9;&#9;c0-18.749,3.211-18.749,3.211-37.497"
              transform="matrix(1, 0, 0, 1, -475.0376281738281, -35.48855972290039)"/>
        <path fill="none" stroke="#00B9F2" stroke-width="0.75" stroke-miterlimit="10"
              d="M786.869,485.33&#10;&#9;&#9;&#9;&#9;c0-18.749-1.159-18.749-1.159-37.497c0-18.749-2.084-18.749-2.084-37.498c0-18.75,2.309-18.75,2.309-37.5&#10;&#9;&#9;&#9;&#9;s-1.372-18.75-1.372-37.499c0-18.752-0.155-18.752-0.155-37.503s1.483-18.751,1.483-37.503s-1.483-18.752-1.483-37.503&#10;&#9;&#9;&#9;&#9;s0.155-18.751,0.155-37.503c0-18.749,1.372-18.749,1.372-37.499s-2.309-18.75-2.309-37.5c0-18.749,2.084-18.749,2.084-37.498&#10;&#9;&#9;&#9;&#9;c0-18.749,1.159-18.749,1.159-37.497"
              transform="matrix(1, 0, 0, 1, -475.0376281738281, -35.48855972290039)"/>
        <path fill="none" stroke="#00B9F2" stroke-width="0.75" stroke-miterlimit="10"
              d="M797.64,485.33&#10;&#9;&#9;&#9;&#9;c0-18.749-2.603-18.749-2.603-37.497c0-18.749,2.467-18.749,2.467-37.498c0-18.75-2.103-18.75-2.103-37.5&#10;&#9;&#9;&#9;&#9;s1.917-18.75,1.917-37.499c0-18.752,1.302-18.752,1.302-37.503s-0.29-18.751-0.29-37.503s0.29-18.752,0.29-37.503&#10;&#9;&#9;&#9;&#9;s-1.302-18.751-1.302-37.503c0-18.749-1.917-18.749-1.917-37.499s2.103-18.75,2.103-37.5c0-18.749-2.467-18.749-2.467-37.498&#10;&#9;&#9;&#9;&#9;c0-18.749,2.603-18.749,2.603-37.497"
              transform="matrix(1, 0, 0, 1, -475.0376281738281, -35.48855972290039)"/>
        <path fill="none" stroke="#00B9F2" stroke-width="0.75" stroke-miterlimit="10"
              d="M810.189,485.33&#10;&#9;&#9;&#9;&#9;c0-18.749,0.706-18.749,0.706-37.497c0-18.749-0.274-18.749-0.274-37.498c0-18.75-3.25-18.75-3.25-37.5s2.381-18.75,2.381-37.499&#10;&#9;&#9;&#9;&#9;c0-18.752-0.151-18.752-0.151-37.503s-1.653-18.751-1.653-37.503s1.653-18.752,1.653-37.503s0.151-18.751,0.151-37.503&#10;&#9;&#9;&#9;&#9;c0-18.749-2.381-18.749-2.381-37.499s3.25-18.75,3.25-37.5c0-18.749,0.274-18.749,0.274-37.498&#10;&#9;&#9;&#9;&#9;c0-18.749-0.706-18.749-0.706-37.497"
              transform="matrix(1, 0, 0, 1, -475.0376281738281, -35.48855972290039)"/>
        <path fill="none" stroke="#00B9F2" stroke-width="0.75" stroke-miterlimit="10"
              d="M822.352,485.33&#10;&#9;&#9;&#9;&#9;c0-18.749,0.702-18.749,0.702-37.497c0-18.749-0.531-18.749-0.531-37.498c0-18.75,0.4-18.75,0.4-37.5s-1.558-18.75-1.558-37.499&#10;&#9;&#9;&#9;&#9;c0-18.752,1.273-18.752,1.273-37.503s0.492-18.751,0.492-37.503s-0.492-18.752-0.492-37.503s-1.273-18.751-1.273-37.503&#10;&#9;&#9;&#9;&#9;c0-18.749,1.558-18.749,1.558-37.499s-0.4-18.75-0.4-37.5c0-18.749,0.531-18.749,0.531-37.498&#10;&#9;&#9;&#9;&#9;c0-18.749-0.702-18.749-0.702-37.497"
              transform="matrix(1, 0, 0, 1, -475.0376281738281, -35.48855972290039)"/>
        <path fill="none" stroke="#00B9F2" stroke-width="0.75" stroke-miterlimit="10"
              d="M835.481,485.33&#10;&#9;&#9;&#9;&#9;c0-18.749,0.01-18.749,0.01-37.497c0-18.749-2.588-18.749-2.588-37.498c0-18.75-1.43-18.75-1.43-37.5s1.46-18.75,1.46-37.499&#10;&#9;&#9;&#9;&#9;c0-18.752-0.45-18.752-0.45-37.503s-0.32-18.751-0.32-37.503s0.32-18.752,0.32-37.503s0.45-18.751,0.45-37.503&#10;&#9;&#9;&#9;&#9;c0-18.749-1.46-18.749-1.46-37.499s1.43-18.75,1.43-37.5c0-18.749,2.588-18.749,2.588-37.498c0-18.749-0.01-18.749-0.01-37.497"
              transform="matrix(1, 0, 0, 1, -475.0376281738281, -35.48855972290039)"/>
        <path fill="none" stroke="#00B9F2" stroke-width="0.75" stroke-miterlimit="10"
              d="M919.827,485.33&#10;&#9;&#9;&#9;&#9;c0-18.749-2.85-18.749-2.85-37.497c0-18.749,3.582-18.749,3.582-37.498c0-18.75-1.744-18.75-1.744-37.5s0.489-18.75,0.489-37.499&#10;&#9;&#9;&#9;&#9;c0-18.752-0.358-18.752-0.358-37.503s1.597-18.751,1.597-37.503s-1.597-18.752-1.597-37.503s0.358-18.751,0.358-37.503&#10;&#9;&#9;&#9;&#9;c0-18.749-0.489-18.749-0.489-37.499s1.744-18.75,1.744-37.5c0-18.749-3.582-18.749-3.582-37.498&#10;&#9;&#9;&#9;&#9;c0-18.749,2.85-18.749,2.85-37.497"
              transform="matrix(1, 0, 0, 1, -475.0376281738281, -35.48855972290039)"/>
        <path fill="none" stroke="#00B9F2" stroke-width="0.5" stroke-miterlimit="10"
              d="M475,114.886&#10;&#9;&#9;&#9;&#9;c18.749,0,18.749,1.559,37.497,1.559c18.749,0,18.749-2.208,37.498-2.208c18.75,0,18.75-0.668,37.5-0.668&#10;&#9;&#9;&#9;&#9;s18.75,0.267,37.499,0.267c18.752,0,18.752,0.658,37.503,0.658s18.751,2.114,37.503,2.114v-0.239&#10;&#9;&#9;&#9;&#9;c18.752,0,18.752-2.114,37.503-2.114s18.751-0.658,37.503-0.658c18.749,0,18.749-0.267,37.499-0.267s18.75,0.668,37.5,0.668&#10;&#9;&#9;&#9;&#9;c18.749,0,18.749,2.208,37.498,2.208c18.749,0,18.749-1.559,37.497-1.559"
              transform="matrix(1, 0, 0, 1, -475.0376281738281, -35.48855972290039)"/>
        <path fill="none" stroke="#00B9F2" stroke-width="0.5" stroke-miterlimit="10"
              d="M475,104.204&#10;&#9;&#9;&#9;&#9;c18.749,0,18.749-1.994,37.497-1.994c18.749,0,18.749,0.552,37.498,0.552c18.75,0,18.75,0.209,37.5,0.209&#10;&#9;&#9;&#9;&#9;s18.75,1.005,37.499,1.005c18.752,0,18.752-2.5,37.503-2.5s18.751-1.02,37.503-1.02v-0.239c18.752,0,18.752,1.02,37.503,1.02&#10;&#9;&#9;&#9;&#9;s18.751,2.5,37.503,2.5c18.749,0,18.749-1.005,37.499-1.005s18.75-0.209,37.5-0.209c18.749,0,18.749-0.552,37.498-0.552&#10;&#9;&#9;&#9;&#9;c18.749,0,18.749,1.994,37.497,1.994"
              transform="matrix(1, 0, 0, 1, -475.0376281738281, -35.48855972290039)"/>
        <path fill="none" stroke="#00B9F2" stroke-width="0.5" stroke-miterlimit="10"
              d="M475,89.905&#10;&#9;&#9;&#9;&#9;c18.749,0,18.749-0.354,37.497-0.354c18.749,0,18.749-1.159,37.498-1.159c18.75,0,18.75,0.279,37.5,0.279&#10;&#9;&#9;&#9;&#9;s18.75,0.082,37.499,0.082c18.752,0,18.752,0.94,37.503,0.94s18.751-0.928,37.503-0.928v-0.239&#10;&#9;&#9;&#9;&#9;c18.752,0,18.752,0.928,37.503,0.928s18.751-0.94,37.503-0.94c18.749,0,18.749-0.082,37.499-0.082s18.75-0.279,37.5-0.279&#10;&#9;&#9;&#9;&#9;c18.749,0,18.749,1.159,37.498,1.159c18.749,0,18.749,0.354,37.497,0.354"
              transform="matrix(1, 0, 0, 1, -475.0376281738281, -35.48855972290039)"/>
        <path fill="none" stroke="#00B9F2" stroke-width="0.5" stroke-miterlimit="10"
              d="M475,79.074&#10;&#9;&#9;&#9;&#9;c18.749,0,18.749-2.895,37.497-2.895c18.749,0,18.749,3.694,37.498,3.694c18.75,0,18.75-1.43,37.5-1.43s18.75,1.887,37.499,1.887&#10;&#9;&#9;&#9;&#9;c18.752,0,18.752-3.248,37.503-3.248s18.751,2.102,37.503,2.102v-0.239c18.752,0,18.752-2.102,37.503-2.102&#10;&#9;&#9;&#9;&#9;s18.751,3.248,37.503,3.248c18.749,0,18.749-1.887,37.499-1.887s18.75,1.43,37.5,1.43c18.749,0,18.749-3.694,37.498-3.694&#10;&#9;&#9;&#9;&#9;c18.749,0,18.749,2.895,37.497,2.895"
              transform="matrix(1, 0, 0, 1, -475.0376281738281, -35.48855972290039)"/>
        <path fill="none" stroke="#00B9F2" stroke-width="0.5" stroke-miterlimit="10"
              d="M475,66.28c18.749,0,18.749,1.822,37.497,1.822&#10;&#9;&#9;&#9;&#9;c18.749,0,18.749-0.292,37.498-0.292c18.75,0,18.75-3.077,37.5-3.077s18.75,2.373,37.499,2.373&#10;&#9;&#9;&#9;&#9;c18.752,0,18.752,0.524,37.503,0.524s18.751-0.654,37.503-0.654v-0.239c18.752,0,18.752,0.654,37.503,0.654&#10;&#9;&#9;&#9;&#9;s18.751-0.524,37.503-0.524c18.749,0,18.749-2.373,37.499-2.373s18.75,3.077,37.5,3.077c18.749,0,18.749,0.292,37.498,0.292&#10;&#9;&#9;&#9;&#9;c18.749,0,18.749-1.822,37.497-1.822"
              transform="matrix(1, 0, 0, 1, -475.0376281738281, -35.48855972290039)"/>
        <path fill="none" stroke="#00B9F2" stroke-width="0.5" stroke-miterlimit="10"
              d="M475,56.077&#10;&#9;&#9;&#9;&#9;c18.749,0,18.749-3.451,37.497-3.451c18.749,0,18.749,3.542,37.498,3.542c18.75,0,18.75-0.008,37.5-0.008&#10;&#9;&#9;&#9;&#9;s18.75-1.945,37.499-1.945c18.752,0,18.752-0.845,37.503-0.845s18.751,0.646,37.503,0.646v-0.239&#10;&#9;&#9;&#9;&#9;c18.752,0,18.752-0.646,37.503-0.646s18.751,0.845,37.503,0.845c18.749,0,18.749,1.945,37.499,1.945s18.75,0.008,37.5,0.008&#10;&#9;&#9;&#9;&#9;c18.749,0,18.749-3.542,37.498-3.542c18.749,0,18.749,3.451,37.497,3.451"
              transform="matrix(1, 0, 0, 1, -475.0376281738281, -35.48855972290039)"/>
        <path fill="none" stroke="#00B9F2" stroke-width="0.5" stroke-miterlimit="10"
              d="M925,480.89&#10;&#9;&#9;&#9;&#9;c-18.749,0-18.749-3.081-37.497-3.081c-18.749,0-18.749,1.952-37.498,1.952c-18.75,0-18.75-0.053-37.5-0.053&#10;&#9;&#9;&#9;&#9;s-18.75-2.122-37.499-2.122c-18.752,0-18.752,0.549-37.503,0.549S718.752,479.82,700,479.82s-18.752-1.684-37.503-1.684&#10;&#9;&#9;&#9;&#9;s-18.751-0.549-37.503-0.549c-18.749,0-18.749,2.122-37.499,2.122s-18.75,0.053-37.5,0.053c-18.749,0-18.749-1.952-37.498-1.952&#10;&#9;&#9;&#9;&#9;c-18.749,0-18.749,3.081-37.497,3.081"
              transform="matrix(1, 0, 0, 1, -475.0376281738281, -35.48855972290039)"/>
        <path fill="none" stroke="#00B9F2" stroke-width="0.5" stroke-miterlimit="10"
              d="M925,466.792&#10;&#9;&#9;&#9;&#9;c-18.749,0-18.749,1.395-37.497,1.395c-18.749,0-18.749,0.467-37.498,0.467c-18.75,0-18.75,0.957-37.5,0.957&#10;&#9;&#9;&#9;&#9;s-18.75-2.621-37.499-2.621c-18.752,0-18.752,2.307-37.503,2.307s-18.751-1.501-37.503-1.501s-18.752,1.501-37.503,1.501&#10;&#9;&#9;&#9;&#9;s-18.751-2.307-37.503-2.307c-18.749,0-18.749,2.621-37.499,2.621s-18.75-0.957-37.5-0.957c-18.749,0-18.749-0.467-37.498-0.467&#10;&#9;&#9;&#9;&#9;c-18.749,0-18.749-1.395-37.497-1.395"
              transform="matrix(1, 0, 0, 1, -475.0376281738281, -35.48855972290039)"/>
        <path fill="none" stroke="#00B9F2" stroke-width="0.5" stroke-miterlimit="10"
              d="M925,455.758&#10;&#9;&#9;&#9;&#9;c-18.749,0-18.749-1.917-37.497-1.917c-18.749,0-18.749,1.533-37.498,1.533c-18.75,0-18.75,1.607-37.5,1.607&#10;&#9;&#9;&#9;&#9;s-18.75-0.923-37.499-0.923c-18.752,0-18.752-0.774-37.503-0.774s-18.751-1.331-37.503-1.331s-18.752,1.331-37.503,1.331&#10;&#9;&#9;&#9;&#9;s-18.751,0.774-37.503,0.774c-18.749,0-18.749,0.923-37.499,0.923s-18.75-1.607-37.5-1.607c-18.749,0-18.749-1.533-37.498-1.533&#10;&#9;&#9;&#9;&#9;c-18.749,0-18.749,1.917-37.497,1.917"
              transform="matrix(1, 0, 0, 1, -475.0376281738281, -35.48855972290039)"/>
        <path fill="none" stroke="#00B9F2" stroke-width="0.5" stroke-miterlimit="10"
              d="M925,443.343&#10;&#9;&#9;&#9;&#9;c-18.749,0-18.749,1.232-37.497,1.232c-18.749,0-18.749-0.69-37.498-0.69c-18.75,0-18.75-2.448-37.5-2.448&#10;&#9;&#9;&#9;&#9;s-18.75,3.988-37.499,3.988c-18.752,0-18.752-3.792-37.503-3.792s-18.751,3.035-37.503,3.035s-18.752-3.035-37.503-3.035&#10;&#9;&#9;&#9;&#9;s-18.751,3.792-37.503,3.792c-18.749,0-18.749-3.988-37.499-3.988s-18.75,2.448-37.5,2.448c-18.749,0-18.749,0.69-37.498,0.69&#10;&#9;&#9;&#9;&#9;c-18.749,0-18.749-1.232-37.497-1.232"
              transform="matrix(1, 0, 0, 1, -475.0376281738281, -35.48855972290039)"/>
        <path fill="none" stroke="#00B9F2" stroke-width="0.5" stroke-miterlimit="10"
              d="M925,430.584&#10;&#9;&#9;&#9;&#9;c-18.749,0-18.749,0.909-37.497,0.909c-18.749,0-18.749-2.479-37.498-2.479c-18.75,0-18.75,0.757-37.5,0.757&#10;&#9;&#9;&#9;&#9;s-18.75,0.187-37.499,0.187c-18.752,0-18.752,0.964-37.503,0.964s-18.751-0.501-37.503-0.501s-18.752,0.501-37.503,0.501&#10;&#9;&#9;&#9;&#9;s-18.751-0.964-37.503-0.964c-18.749,0-18.749-0.187-37.499-0.187s-18.75-0.757-37.5-0.757c-18.749,0-18.749,2.479-37.498,2.479&#10;&#9;&#9;&#9;&#9;c-18.749,0-18.749-0.909-37.497-0.909"
              transform="matrix(1, 0, 0, 1, -475.0376281738281, -35.48855972290039)"/>
        <path fill="none" stroke="#00B9F2" stroke-width="0.5" stroke-miterlimit="10"
              d="M925,419.505&#10;&#9;&#9;&#9;&#9;c-18.749,0-18.749-1.012-37.497-1.012c-18.749,0-18.749,0.449-37.498,0.449c-18.75,0-18.75-0.999-37.5-0.999&#10;&#9;&#9;&#9;&#9;s-18.75-1.185-37.499-1.185c-18.752,0-18.752,1.521-37.503,1.521s-18.751-0.976-37.503-0.976s-18.752,0.976-37.503,0.976&#10;&#9;&#9;&#9;&#9;s-18.751-1.521-37.503-1.521c-18.749,0-18.749,1.185-37.499,1.185s-18.75,0.999-37.5,0.999c-18.749,0-18.749-0.449-37.498-0.449&#10;&#9;&#9;&#9;&#9;c-18.749,0-18.749,1.012-37.497,1.012"
              transform="matrix(1, 0, 0, 1, -475.0376281738281, -35.48855972290039)"/>
        <path fill="none" stroke="#00B9F2" stroke-width="0.5" stroke-miterlimit="10"
              d="M925,408.611&#10;&#9;&#9;&#9;&#9;c-18.749,0-18.749,0.16-37.497,0.16c-18.749,0-18.749-0.558-37.498-0.558c-18.75,0-18.75-3.624-37.5-3.624&#10;&#9;&#9;&#9;&#9;s-18.75,2.577-37.499,2.577c-18.752,0-18.752-2.285-37.503-2.285s-18.751-0.362-37.503-0.362s-18.752,0.362-37.503,0.362&#10;&#9;&#9;&#9;&#9;s-18.751,2.285-37.503,2.285c-18.749,0-18.749-2.577-37.499-2.577s-18.75,3.624-37.5,3.624c-18.749,0-18.749,0.558-37.498,0.558&#10;&#9;&#9;&#9;&#9;c-18.749,0-18.749-0.16-37.497-0.16"
              transform="matrix(1, 0, 0, 1, -475.0376281738281, -35.48855972290039)"/>
        <path fill="none" stroke="#00B9F2" stroke-width="0.5" stroke-miterlimit="10"
              d="M925,392.896&#10;&#9;&#9;&#9;&#9;c-18.749,0-18.749,2.925-37.497,2.925c-18.749,0-18.749-0.09-37.498-0.09c-18.75,0-18.75-0.214-37.5-0.214&#10;&#9;&#9;&#9;&#9;s-18.75,1.235-37.499,1.235c-18.752,0-18.752-3.304-37.503-3.304s-18.751-0.071-37.503-0.071s-18.752,0.071-37.503,0.071&#10;&#9;&#9;&#9;&#9;s-18.751,3.304-37.503,3.304c-18.749,0-18.749-1.235-37.499-1.235s-18.75,0.214-37.5,0.214c-18.749,0-18.749,0.09-37.498,0.09&#10;&#9;&#9;&#9;&#9;c-18.749,0-18.749-2.925-37.497-2.925"
              transform="matrix(1, 0, 0, 1, -475.0376281738281, -35.48855972290039)"/>
        <path fill="none" stroke="#00B9F2" stroke-width="0.5" stroke-miterlimit="10"
              d="M925,381.833&#10;&#9;&#9;&#9;&#9;c-18.749,0-18.749-0.403-37.497-0.403c-18.749,0-18.749-1.176-37.498-1.176c-18.75,0-18.75,0.945-37.5,0.945&#10;&#9;&#9;&#9;&#9;s-18.75,3.12-37.499,3.12c-18.752,0-18.752-0.574-37.503-0.574s-18.751-0.95-37.503-0.95s-18.752,0.95-37.503,0.95&#10;&#9;&#9;&#9;&#9;s-18.751,0.574-37.503,0.574c-18.749,0-18.749-3.12-37.499-3.12s-18.75-0.945-37.5-0.945c-18.749,0-18.749,1.176-37.498,1.176&#10;&#9;&#9;&#9;&#9;c-18.749,0-18.749,0.403-37.497,0.403"
              transform="matrix(1, 0, 0, 1, -475.0376281738281, -35.48855972290039)"/>
        <path fill="none" stroke="#00B9F2" stroke-width="0.5" stroke-miterlimit="10"
              d="M925,372.384&#10;&#9;&#9;&#9;&#9;c-18.749,0-18.749-1.197-37.497-1.197c-18.749,0-18.749-1.779-37.498-1.779c-18.75,0-18.75-1.115-37.5-1.115&#10;&#9;&#9;&#9;&#9;s-18.75,3.618-37.499,3.618c-18.752,0-18.752-3.818-37.503-3.818s-18.751,1.215-37.503,1.215s-18.752-1.215-37.503-1.215&#10;&#9;&#9;&#9;&#9;s-18.751,3.818-37.503,3.818c-18.749,0-18.749-3.618-37.499-3.618s-18.75,1.115-37.5,1.115c-18.749,0-18.749,1.779-37.498,1.779&#10;&#9;&#9;&#9;&#9;c-18.749,0-18.749,1.197-37.497,1.197"
              transform="matrix(1, 0, 0, 1, -475.0376281738281, -35.48855972290039)"/>
        <path fill="none" stroke="#00B9F2" stroke-width="0.5" stroke-miterlimit="10"
              d="M925,357.992&#10;&#9;&#9;&#9;&#9;c-18.749,0-18.749-1.518-37.497-1.518c-18.749,0-18.749,0.696-37.498,0.696c-18.75,0-18.75-0.055-37.5-0.055&#10;&#9;&#9;&#9;&#9;s-18.75,3.185-37.499,3.185c-18.752,0-18.752-1.952-37.503-1.952S718.752,356.05,700,356.05s-18.752,2.298-37.503,2.298&#10;&#9;&#9;&#9;&#9;s-18.751,1.952-37.503,1.952c-18.749,0-18.749-3.185-37.499-3.185s-18.75,0.055-37.5,0.055c-18.749,0-18.749-0.696-37.498-0.696&#10;&#9;&#9;&#9;&#9;c-18.749,0-18.749,1.518-37.497,1.518"
              transform="matrix(1, 0, 0, 1, -475.0376281738281, -35.48855972290039)"/>
        <path fill="none" stroke="#00B9F2" stroke-width="0.5" stroke-miterlimit="10"
              d="M925,346.587&#10;&#9;&#9;&#9;&#9;c-18.749,0-18.749-0.614-37.497-0.614c-18.749,0-18.749,0.409-37.498,0.409c-18.75,0-18.75-0.22-37.5-0.22&#10;&#9;&#9;&#9;&#9;s-18.75-1.665-37.499-1.665c-18.752,0-18.752,0.927-37.503,0.927s-18.751-1.652-37.503-1.652s-18.752,1.652-37.503,1.652&#10;&#9;&#9;&#9;&#9;s-18.751-0.927-37.503-0.927c-18.749,0-18.749,1.665-37.499,1.665s-18.75,0.22-37.5,0.22c-18.749,0-18.749-0.409-37.498-0.409&#10;&#9;&#9;&#9;&#9;c-18.749,0-18.749,0.614-37.497,0.614"
              transform="matrix(1, 0, 0, 1, -475.0376281738281, -35.48855972290039)"/>
        <path fill="none" stroke="#00B9F2" stroke-width="0.5" stroke-miterlimit="10"
              d="M925,333.582&#10;&#9;&#9;&#9;&#9;c-18.749,0-18.749,0.578-37.497,0.578c-18.749,0-18.749,1.083-37.498,1.083c-18.75,0-18.75-3.144-37.5-3.144&#10;&#9;&#9;&#9;&#9;s-18.75-0.354-37.499-0.354c-18.752,0-18.752,3.53-37.503,3.53S718.752,335.33,700,335.33s-18.752-0.057-37.503-0.057&#10;&#9;&#9;&#9;&#9;s-18.751-3.53-37.503-3.53c-18.749,0-18.749,0.354-37.499,0.354s-18.75,3.144-37.5,3.144c-18.749,0-18.749-1.083-37.498-1.083&#10;&#9;&#9;&#9;&#9;c-18.749,0-18.749-0.578-37.497-0.578"
              transform="matrix(1, 0, 0, 1, -475.0376281738281, -35.48855972290039)"/>
        <path fill="none" stroke="#00B9F2" stroke-width="0.5" stroke-miterlimit="10"
              d="M925,319.874&#10;&#9;&#9;&#9;&#9;c-18.749,0-18.749,3.934-37.497,3.934c-18.749,0-18.749-1.999-37.498-1.999c-18.75,0-18.75,1.452-37.5,1.452&#10;&#9;&#9;&#9;&#9;s-18.75,0.256-37.499,0.256c-18.752,0-18.752-1.619-37.503-1.619S718.752,322.19,700,322.19s-18.752-0.292-37.503-0.292&#10;&#9;&#9;&#9;&#9;s-18.751,1.619-37.503,1.619c-18.749,0-18.749-0.256-37.499-0.256s-18.75-1.452-37.5-1.452c-18.749,0-18.749,1.999-37.498,1.999&#10;&#9;&#9;&#9;&#9;c-18.749,0-18.749-3.934-37.497-3.934"
              transform="matrix(1, 0, 0, 1, -475.0376281738281, -35.48855972290039)"/>
        <path fill="none" stroke="#00B9F2" stroke-width="0.5" stroke-miterlimit="10"
              d="M925,307.344&#10;&#9;&#9;&#9;&#9;c-18.749,0-18.749,0.645-37.497,0.645c-18.749,0-18.749,0.513-37.498,0.513c-18.75,0-18.75-0.341-37.5-0.341&#10;&#9;&#9;&#9;&#9;s-18.75,2.871-37.499,2.871c-18.752,0-18.752-1.18-37.503-1.18s-18.751,1.58-37.503,1.58s-18.752-1.58-37.503-1.58&#10;&#9;&#9;&#9;&#9;s-18.751,1.18-37.503,1.18c-18.749,0-18.749-2.871-37.499-2.871s-18.75,0.341-37.5,0.341c-18.749,0-18.749-0.513-37.498-0.513&#10;&#9;&#9;&#9;&#9;c-18.749,0-18.749-0.645-37.497-0.645"
              transform="matrix(1, 0, 0, 1, -475.0376281738281, -35.48855972290039)"/>
        <path fill="none" stroke="#00B9F2" stroke-width="0.5" stroke-miterlimit="10"
              d="M925,298.861&#10;&#9;&#9;&#9;&#9;c-18.749,0-18.749-1.79-37.497-1.79c-18.749,0-18.749,0.526-37.498,0.526c-18.75,0-18.75-1.62-37.5-1.62&#10;&#9;&#9;&#9;&#9;s-18.75,1.754-37.499,1.754c-18.752,0-18.752-1.506-37.503-1.506s-18.751,2.511-37.503,2.511s-18.752-2.511-37.503-2.511&#10;&#9;&#9;&#9;&#9;s-18.751,1.506-37.503,1.506c-18.749,0-18.749-1.754-37.499-1.754s-18.75,1.62-37.5,1.62c-18.749,0-18.749-0.526-37.498-0.526&#10;&#9;&#9;&#9;&#9;c-18.749,0-18.749,1.79-37.497,1.79"
              transform="matrix(1, 0, 0, 1, -475.0376281738281, -35.48855972290039)"/>
        <path fill="none" stroke="#00B9F2" stroke-width="0.5" stroke-miterlimit="10"
              d="M925,284.774&#10;&#9;&#9;&#9;&#9;c-18.749,0-18.749,2.445-37.497,2.445c-18.749,0-18.749-0.487-37.498-0.487c-18.75,0-18.75-1.667-37.5-1.667&#10;&#9;&#9;&#9;&#9;s-18.75,0.733-37.499,0.733c-18.752,0-18.752-1.632-37.503-1.632s-18.751,2.236-37.503,2.236s-18.752-2.236-37.503-2.236&#10;&#9;&#9;&#9;&#9;s-18.751,1.632-37.503,1.632c-18.749,0-18.749-0.733-37.499-0.733s-18.75,1.667-37.5,1.667c-18.749,0-18.749,0.487-37.498,0.487&#10;&#9;&#9;&#9;&#9;c-18.749,0-18.749-2.445-37.497-2.445"
              transform="matrix(1, 0, 0, 1, -475.0376281738281, -35.48855972290039)"/>
        <path fill="none" stroke="#00B9F2" stroke-width="0.5" stroke-miterlimit="10"
              d="M925,274.419&#10;&#9;&#9;&#9;&#9;c-18.749,0-18.749-0.525-37.497-0.525c-18.749,0-18.749-0.491-37.498-0.491c-18.75,0-18.75-1.454-37.5-1.454&#10;&#9;&#9;&#9;&#9;s-18.75-0.301-37.499-0.301c-18.752,0-18.752,2.214-37.503,2.214s-18.751,0.471-37.503,0.471s-18.752-0.471-37.503-0.471&#10;&#9;&#9;&#9;&#9;s-18.751-2.214-37.503-2.214c-18.749,0-18.749,0.301-37.499,0.301s-18.75,1.454-37.5,1.454c-18.749,0-18.749,0.491-37.498,0.491&#10;&#9;&#9;&#9;&#9;c-18.749,0-18.749,0.525-37.497,0.525"
              transform="matrix(1, 0, 0, 1, -475.0376281738281, -35.48855972290039)"/>
        <path fill="none" stroke="#00B9F2" stroke-width="0.5" stroke-miterlimit="10"
              d="M925,260.115&#10;&#9;&#9;&#9;&#9;c-18.749,0-18.749,0.739-37.497,0.739c-18.749,0-18.749-1.388-37.498-1.388c-18.75,0-18.75,0.86-37.5,0.86&#10;&#9;&#9;&#9;&#9;s-18.75-0.896-37.499-0.896c-18.752,0-18.752,3.123-37.503,3.123s-18.751-2.508-37.503-2.508s-18.752,2.508-37.503,2.508&#10;&#9;&#9;&#9;&#9;s-18.751-3.123-37.503-3.123c-18.749,0-18.749,0.896-37.499,0.896s-18.75-0.86-37.5-0.86c-18.749,0-18.749,1.388-37.498,1.388&#10;&#9;&#9;&#9;&#9;c-18.749,0-18.749-0.739-37.497-0.739"
              transform="matrix(1, 0, 0, 1, -475.0376281738281, -35.48855972290039)"/>
        <path fill="none" stroke="#00B9F2" stroke-width="0.5" stroke-miterlimit="10"
              d="M925,248.666&#10;&#9;&#9;&#9;&#9;c-18.749,0-18.749-2.01-37.497-2.01c-18.749,0-18.749-0.02-37.498-0.02c-18.75,0-18.75,0.93-37.5,0.93s-18.75-0.038-37.499-0.038&#10;&#9;&#9;&#9;&#9;c-18.752,0-18.752,1.491-37.503,1.491s-18.751-1.363-37.503-1.363s-18.752,1.363-37.503,1.363s-18.751-1.491-37.503-1.491&#10;&#9;&#9;&#9;&#9;c-18.749,0-18.749,0.038-37.499,0.038s-18.75-0.93-37.5-0.93c-18.749,0-18.749,0.02-37.498,0.02&#10;&#9;&#9;&#9;&#9;c-18.749,0-18.749,2.01-37.497,2.01"
              transform="matrix(1, 0, 0, 1, -475.0376281738281, -35.48855972290039)"/>
        <path fill="none" stroke="#00B9F2" stroke-width="0.5" stroke-miterlimit="10"
              d="M925,234.358&#10;&#9;&#9;&#9;&#9;c-18.749,0-18.749,3.791-37.497,3.791c-18.749,0-18.749-1.664-37.498-1.664c-18.75,0-18.75,1.721-37.5,1.721&#10;&#9;&#9;&#9;&#9;s-18.75-0.648-37.499-0.648c-18.752,0-18.752,0.534-37.503,0.534s-18.751-3.691-37.503-3.691s-18.752,3.691-37.503,3.691&#10;&#9;&#9;&#9;&#9;s-18.751-0.534-37.503-0.534c-18.749,0-18.749,0.648-37.499,0.648s-18.75-1.721-37.5-1.721c-18.749,0-18.749,1.664-37.498,1.664&#10;&#9;&#9;&#9;&#9;c-18.749,0-18.749-3.791-37.497-3.791"
              transform="matrix(1, 0, 0, 1, -475.0376281738281, -35.48855972290039)"/>
        <path fill="none" stroke="#00B9F2" stroke-width="0.5" stroke-miterlimit="10"
              d="M925,225.967&#10;&#9;&#9;&#9;&#9;c-18.749,0-18.749-2.482-37.497-2.482c-18.749,0-18.749,2.464-37.498,2.464c-18.75,0-18.75,0.012-37.5,0.012&#10;&#9;&#9;&#9;&#9;s-18.75-0.585-37.499-0.585c-18.752,0-18.752-2.726-37.503-2.726s-18.751,1.473-37.503,1.473s-18.752-1.473-37.503-1.473&#10;&#9;&#9;&#9;&#9;s-18.751,2.726-37.503,2.726c-18.749,0-18.749,0.585-37.499,0.585s-18.75-0.012-37.5-0.012c-18.749,0-18.749-2.464-37.498-2.464&#10;&#9;&#9;&#9;&#9;c-18.749,0-18.749,2.482-37.497,2.482"
              transform="matrix(1, 0, 0, 1, -475.0376281738281, -35.48855972290039)"/>
        <path fill="none" stroke="#00B9F2" stroke-width="0.5" stroke-miterlimit="10"
              d="M925,210.749&#10;&#9;&#9;&#9;&#9;c-18.749,0-18.749,1.861-37.497,1.861c-18.749,0-18.749-0.788-37.498-0.788c-18.75,0-18.75-0.106-37.5-0.106&#10;&#9;&#9;&#9;&#9;s-18.75-1.649-37.499-1.649c-18.752,0-18.752,0.551-37.503,0.551s-18.751,3.155-37.503,3.155s-18.752-3.155-37.503-3.155&#10;&#9;&#9;&#9;&#9;s-18.751-0.551-37.503-0.551c-18.749,0-18.749,1.649-37.499,1.649s-18.75,0.106-37.5,0.106c-18.749,0-18.749,0.788-37.498,0.788&#10;&#9;&#9;&#9;&#9;c-18.749,0-18.749-1.861-37.497-1.861"
              transform="matrix(1, 0, 0, 1, -475.0376281738281, -35.48855972290039)"/>
        <path fill="none" stroke="#00B9F2" stroke-width="0.5" stroke-miterlimit="10"
              d="M925,199.444&#10;&#9;&#9;&#9;&#9;c-18.749,0-18.749,1.82-37.497,1.82c-18.749,0-18.749-1.51-37.498-1.51c-18.75,0-18.75-0.728-37.5-0.728&#10;&#9;&#9;&#9;&#9;s-18.75-0.573-37.499-0.573c-18.752,0-18.752-0.487-37.503-0.487s-18.751-0.055-37.503-0.055s-18.752,0.055-37.503,0.055&#10;&#9;&#9;&#9;&#9;s-18.751,0.487-37.503,0.487c-18.749,0-18.749,0.573-37.499,0.573s-18.75,0.728-37.5,0.728c-18.749,0-18.749,1.51-37.498,1.51&#10;&#9;&#9;&#9;&#9;c-18.749,0-18.749-1.82-37.497-1.82"
              transform="matrix(1, 0, 0, 1, -475.0376281738281, -35.48855972290039)"/>
        <path fill="none" stroke="#00B9F2" stroke-width="0.5" stroke-miterlimit="10"
              d="M925,185.778&#10;&#9;&#9;&#9;&#9;c-18.749,0-18.749,3.211-37.497,3.211c-18.749,0-18.749-2.731-37.498-2.731c-18.75,0-18.75,3.362-37.5,3.362&#10;&#9;&#9;&#9;&#9;s-18.75-2.529-37.499-2.529c-18.752,0-18.752-0.378-37.503-0.378s-18.751-0.006-37.503-0.006s-18.752,0.006-37.503,0.006&#10;&#9;&#9;&#9;&#9;s-18.751,0.378-37.503,0.378c-18.749,0-18.749,2.529-37.499,2.529s-18.75-3.362-37.5-3.362c-18.749,0-18.749,2.731-37.498,2.731&#10;&#9;&#9;&#9;&#9;c-18.749,0-18.749-3.211-37.497-3.211"
              transform="matrix(1, 0, 0, 1, -475.0376281738281, -35.48855972290039)"/>
        <path fill="none" stroke="#00B9F2" stroke-width="0.5" stroke-miterlimit="10"
              d="M925,173.462&#10;&#9;&#9;&#9;&#9;c-18.749,0-18.749,1.159-37.497,1.159c-18.749,0-18.749,2.084-37.498,2.084c-18.75,0-18.75-2.309-37.5-2.309&#10;&#9;&#9;&#9;&#9;s-18.75,1.372-37.499,1.372c-18.752,0-18.752,0.155-37.503,0.155s-18.751-1.483-37.503-1.483s-18.752,1.483-37.503,1.483&#10;&#9;&#9;&#9;&#9;s-18.751-0.155-37.503-0.155c-18.749,0-18.749-1.372-37.499-1.372s-18.75,2.309-37.5,2.309c-18.749,0-18.749-2.084-37.498-2.084&#10;&#9;&#9;&#9;&#9;c-18.749,0-18.749-1.159-37.497-1.159"
              transform="matrix(1, 0, 0, 1, -475.0376281738281, -35.48855972290039)"/>
        <path fill="none" stroke="#00B9F2" stroke-width="0.5" stroke-miterlimit="10"
              d="M925,162.69&#10;&#9;&#9;&#9;&#9;c-18.749,0-18.749,2.603-37.497,2.603c-18.749,0-18.749-2.467-37.498-2.467c-18.75,0-18.75,2.103-37.5,2.103&#10;&#9;&#9;&#9;&#9;s-18.75-1.917-37.499-1.917c-18.752,0-18.752-1.302-37.503-1.302s-18.751,0.29-37.503,0.29s-18.752-0.29-37.503-0.29&#10;&#9;&#9;&#9;&#9;s-18.751,1.302-37.503,1.302c-18.749,0-18.749,1.917-37.499,1.917s-18.75-2.103-37.5-2.103c-18.749,0-18.749,2.467-37.498,2.467&#10;&#9;&#9;&#9;&#9;c-18.749,0-18.749-2.603-37.497-2.603"
              transform="matrix(1, 0, 0, 1, -475.0376281738281, -35.48855972290039)"/>
        <path fill="none" stroke="#00B9F2" stroke-width="0.5" stroke-miterlimit="10"
              d="M925,150.141&#10;&#9;&#9;&#9;&#9;c-18.749,0-18.749-0.706-37.497-0.706c-18.749,0-18.749,0.274-37.498,0.274c-18.75,0-18.75,3.25-37.5,3.25&#10;&#9;&#9;&#9;&#9;s-18.75-2.381-37.499-2.381c-18.752,0-18.752,0.151-37.503,0.151s-18.751,1.653-37.503,1.653s-18.752-1.653-37.503-1.653&#10;&#9;&#9;&#9;&#9;s-18.751-0.151-37.503-0.151c-18.749,0-18.749,2.381-37.499,2.381s-18.75-3.25-37.5-3.25c-18.749,0-18.749-0.274-37.498-0.274&#10;&#9;&#9;&#9;&#9;c-18.749,0-18.749,0.706-37.497,0.706"
              transform="matrix(1, 0, 0, 1, -475.0376281738281, -35.48855972290039)"/>
        <path fill="none" stroke="#00B9F2" stroke-width="0.5" stroke-miterlimit="10"
              d="M925,137.979&#10;&#9;&#9;&#9;&#9;c-18.749,0-18.749-0.702-37.497-0.702c-18.749,0-18.749,0.531-37.498,0.531c-18.75,0-18.75-0.4-37.5-0.4&#10;&#9;&#9;&#9;&#9;s-18.75,1.558-37.499,1.558c-18.752,0-18.752-1.273-37.503-1.273S718.752,137.2,700,137.2s-18.752,0.492-37.503,0.492&#10;&#9;&#9;&#9;&#9;s-18.751,1.273-37.503,1.273c-18.749,0-18.749-1.558-37.499-1.558s-18.75,0.4-37.5,0.4c-18.749,0-18.749-0.531-37.498-0.531&#10;&#9;&#9;&#9;&#9;c-18.749,0-18.749,0.702-37.497,0.702"
              transform="matrix(1, 0, 0, 1, -475.0376281738281, -35.48855972290039)"/>
        <path fill="none" stroke="#00B9F2" stroke-width="0.5" stroke-miterlimit="10"
              d="M925,124.849&#10;&#9;&#9;&#9;&#9;c-18.749,0-18.749-0.01-37.497-0.01c-18.749,0-18.749,2.588-37.498,2.588c-18.75,0-18.75,1.43-37.5,1.43s-18.75-1.46-37.499-1.46&#10;&#9;&#9;&#9;&#9;c-18.752,0-18.752,0.45-37.503,0.45s-18.751,0.32-37.503,0.32s-18.752-0.32-37.503-0.32s-18.751-0.45-37.503-0.45&#10;&#9;&#9;&#9;&#9;c-18.749,0-18.749,1.46-37.499,1.46s-18.75-1.43-37.5-1.43c-18.749,0-18.749-2.588-37.498-2.588&#10;&#9;&#9;&#9;&#9;c-18.749,0-18.749,0.01-37.497,0.01"
              transform="matrix(1, 0, 0, 1, -475.0376281738281, -35.48855972290039)"/>
        <path fill="none" stroke="#00B9F2" stroke-width="0.5" stroke-miterlimit="10"
              d="M925,40.503c-18.749,0-18.749,2.85-37.497,2.85&#10;&#9;&#9;&#9;&#9;c-18.749,0-18.749-3.582-37.498-3.582c-18.75,0-18.75,1.744-37.5,1.744s-18.75-0.489-37.499-0.489&#10;&#9;&#9;&#9;&#9;c-18.752,0-18.752,0.358-37.503,0.358S718.752,39.787,700,39.787s-18.752,1.597-37.503,1.597s-18.751-0.358-37.503-0.358&#10;&#9;&#9;&#9;&#9;c-18.749,0-18.749,0.489-37.499,0.489s-18.75-1.744-37.5-1.744c-18.749,0-18.749,3.582-37.498,3.582&#10;&#9;&#9;&#9;&#9;c-18.749,0-18.749-2.85-37.497-2.85"
              transform="matrix(1, 0, 0, 1, -475.0376281738281, -35.48855972290039)"/>
    </g>
</svg>
