<?xml version="1.0" encoding="UTF-8" standalone="no"?>
<svg
   xmlns="http://www.w3.org/2000/svg"
   viewBox="0 0 1866.6667 1306.6667"
   height="1306.6667"
   width="1866.6667"
   xml:space="preserve"
   id="svg2"
   version="1.1"><defs
     id="defs6"></defs><g
     transform="matrix(1.3333333,0,0,-1.3333333,0,1306.6667)"
     id="g10"><path
       id="path12"
       fill="#727272"
       d="M 0,0 H 1400 V 980 H 0 Z" /><g
       id="g14"><g
         id="g16"><g
           id="g22"><g
             id="g24" /><g
             id="g34"><g
               style="opacity:0.5"
               id="g32"
               ><path
                 id="path30"
                 fill="#e6e6e6"
                 d="M 0,743.141 H 1400 V 606.457 H 0 Z" /></g></g></g><g
           id="g36"><g
             id="g38" /><g
             id="g48"><g
               style="opacity:0.5"
               id="g46"
               ><path
                 id="path44"
                 fill="#e6e6e6"
                 d="M 0,927.939 H 1400 V 791.255 H 0 Z" /></g></g></g><g
           id="g50"><g
             id="g52" /><g
             id="g62"><g
               style="opacity:0.5"
               id="g60"
               ><path
                 id="path58"
                 fill="#e6e6e6"
                 d="M 0,373.543 H 1400 V 236.86 H 0 Z" /></g></g></g><g
           id="g64"><g
             id="g66" /><g
             id="g76"><g
               style="opacity:0.5"
               id="g74"
               ><path
                 id="path72"
                 fill="#e6e6e6"
                 d="M 0,558.342 H 1400 V 421.658 H 0 Z" /></g></g></g><g
           id="g78"><g
             id="g80" /><g
             id="g90"><g
               style="opacity:0.5"
               id="g88"
               ><path
                 id="path86"
                 fill="#e6e6e6"
                 d="M 0,188.744 H 1400 V 52.061 H 0 Z" /></g></g></g></g></g><path
       id="path92"
       fill="#363636"
       d="m 0,844.83 h 1400 v 29.535 H 0 Z" /><path
       id="path94"
       fill="#727272"
       d="m 0,854.563 h 1400 v 10.07 H 0 Z" /><path
       id="path96"
       fill="#363636"
       d="m 0,660.031 h 1400 v 29.535 H 0 Z" /><path
       id="path98"
       fill="#727272"
       d="m 0,669.764 h 1400 v 10.07 H 0 Z" /><path
       id="path100"
       fill="#363636"
       d="m 0,475.232 h 1400 v 29.536 H 0 Z" /><path
       id="path102"
       fill="#727272"
       d="m 0,484.965 h 1400 v 10.07 H 0 Z" /><path
       id="path104"
       fill="#363636"
       d="m 0,290.434 h 1400 v 29.534 H 0 Z" /><path
       id="path106"
       fill="#727272"
       d="m 0,300.166 h 1400 v 10.07 H 0 Z" /><path
       id="path108"
       fill="#363636"
       d="M 0,105.635 H 1400 V 135.17 H 0 Z" /><path
       id="path110"
       fill="#727272"
       d="m 0,115.367 h 1400 v 10.07 H 0 Z" /></g></svg>