<?xml version="1.0" encoding="utf-8"?>
<!-- Generator: Adobe Illustrator 18.1.1, SVG Export Plug-In . SVG Version: 6.00 Build 0)  -->
<svg version="1.1" id="Capa_1" xmlns="http://www.w3.org/2000/svg" xmlns:xlink="http://www.w3.org/1999/xlink" x="0px" y="0px"
	 width="1400" height="980" viewBox="0 0 1400 980" enable-background="new 0 0 1400 980" xml:space="preserve">
<g>
	<g>
		<defs>
			<rect id="SVGID_1_" width="1400" height="980"/>
		</defs>
		<g>
			<g>
				<defs>
					<rect id="SVGID_3_" x="1330" width="665" height="552.1"/>
				</defs>
				<g>
					<g>
						<rect x="1993.8" y="441.7" fill="#f3b4d1" width="667.5" height="12.9"/>
						<rect x="1993.8" y="485" fill="#ffffff" width="667.5" height="9.1"/>
						<rect x="1993.8" y="458.9" fill="#fb98b5" width="667.5" height="21.7"/>
					</g>
					<g>
						<rect x="1993.8" y="499.7" fill="#bbddf6" width="667.5" height="12.9"/>
						<rect x="1993.8" y="543" fill="#ffffff" width="667.5" height="9.1"/>
						<rect x="1993.8" y="516.9" fill="#fb98b5" width="667.5" height="21.7"/>
					</g>
				</g>
				<g>
					<rect x="1330" y="441.7" fill="#ffffff" width="665" height="110.4"/>
					<g>
						<rect x="1328.8" y="441.7" fill="#f3b4d1" width="667.5" height="12.9"/>
						<rect x="1328.8" y="485" fill="#ffffff" width="667.5" height="9.1"/>
						<rect x="1328.8" y="458.9" fill="#fb98b5" width="667.5" height="21.7"/>
					</g>
					<g>
						<rect x="1328.8" y="499.7" fill="#bbddf6" width="667.5" height="12.9"/>
						<rect x="1328.8" y="543" fill="#ffffff" width="667.5" height="9.1"/>
						<rect x="1328.8" y="516.9" fill="#fb98b5" width="667.5" height="21.7"/>
					</g>
				</g>
				<g>
					<g>
						<rect x="663.8" y="441.7" fill="#f3b4d1" width="667.5" height="12.9"/>
						<rect x="663.8" y="485" fill="#ffffff" width="667.5" height="9.1"/>
						<rect x="663.8" y="458.9" fill="#fb98b5" width="667.5" height="21.7"/>
					</g>
					<g>
						<rect x="663.8" y="499.7" fill="#bbddf6" width="667.5" height="12.9"/>
						<rect x="663.8" y="543" fill="#ffffff" width="667.5" height="9.1"/>
						<rect x="663.8" y="516.9" fill="#fb98b5" width="667.5" height="21.7"/>
					</g>
				</g>
				<g>
					<g>
						<rect x="1993.8" y="331.3" fill="#f3b4d1" width="667.5" height="12.9"/>
						<rect x="1993.8" y="374.6" fill="#ffffff" width="667.5" height="9.1"/>
						<rect x="1993.8" y="348.5" fill="#fb98b5" width="667.5" height="21.7"/>
					</g>
					<g>
						<rect x="1993.8" y="389.3" fill="#bbddf6" width="667.5" height="12.9"/>
						<rect x="1993.8" y="432.6" fill="#ffffff" width="667.5" height="9.1"/>
						<rect x="1993.8" y="406.5" fill="#fb98b5" width="667.5" height="21.7"/>
					</g>
				</g>
				<g>
					<rect x="1330" y="331.3" fill="#ffffff" width="665" height="110.4"/>
					<g>
						<rect x="1328.8" y="331.3" fill="#f3b4d1" width="667.5" height="12.9"/>
						<rect x="1328.8" y="374.6" fill="#ffffff" width="667.5" height="9.1"/>
						<rect x="1328.8" y="348.5" fill="#fb98b5" width="667.5" height="21.7"/>
					</g>
					<g>
						<rect x="1328.8" y="389.3" fill="#bbddf6" width="667.5" height="12.9"/>
						<rect x="1328.8" y="432.6" fill="#ffffff" width="667.5" height="9.1"/>
						<rect x="1328.8" y="406.5" fill="#fb98b5" width="667.5" height="21.7"/>
					</g>
				</g>
				<g>
					<g>
						<rect x="663.8" y="331.3" fill="#f3b4d1" width="667.5" height="12.9"/>
						<rect x="663.8" y="374.6" fill="#ffffff" width="667.5" height="9.1"/>
						<rect x="663.8" y="348.5" fill="#fb98b5" width="667.5" height="21.7"/>
					</g>
					<g>
						<rect x="663.8" y="389.3" fill="#bbddf6" width="667.5" height="12.9"/>
						<rect x="663.8" y="432.6" fill="#ffffff" width="667.5" height="9.1"/>
						<rect x="663.8" y="406.5" fill="#fb98b5" width="667.5" height="21.7"/>
					</g>
				</g>
				<g>
					<g>
						<rect x="1993.8" y="220.8" fill="#f3b4d1" width="667.5" height="12.9"/>
						<rect x="1993.8" y="264.2" fill="#ffffff" width="667.5" height="9.1"/>
						<rect x="1993.8" y="238.1" fill="#fb98b5" width="667.5" height="21.7"/>
					</g>
					<g>
						<rect x="1993.8" y="278.8" fill="#bbddf6" width="667.5" height="12.9"/>
						<rect x="1993.8" y="322.2" fill="#ffffff" width="667.5" height="9.1"/>
						<rect x="1993.8" y="296.1" fill="#fb98b5" width="667.5" height="21.7"/>
					</g>
				</g>
				<g>
					<rect x="1330" y="220.8" fill="#ffffff" width="665" height="110.4"/>
					<g>
						<rect x="1328.8" y="220.8" fill="#f3b4d1" width="667.5" height="12.9"/>
						<rect x="1328.8" y="264.2" fill="#ffffff" width="667.5" height="9.1"/>
						<rect x="1328.8" y="238.1" fill="#fb98b5" width="667.5" height="21.7"/>
					</g>
					<g>
						<rect x="1328.8" y="278.8" fill="#bbddf6" width="667.5" height="12.9"/>
						<rect x="1328.8" y="322.2" fill="#ffffff" width="667.5" height="9.1"/>
						<rect x="1328.8" y="296.1" fill="#fb98b5" width="667.5" height="21.7"/>
					</g>
				</g>
				<g>
					<g>
						<rect x="663.8" y="220.8" fill="#f3b4d1" width="667.5" height="12.9"/>
						<rect x="663.8" y="264.2" fill="#ffffff" width="667.5" height="9.1"/>
						<rect x="663.8" y="238.1" fill="#fb98b5" width="667.5" height="21.7"/>
					</g>
					<g>
						<rect x="663.8" y="278.8" fill="#bbddf6" width="667.5" height="12.9"/>
						<rect x="663.8" y="322.2" fill="#ffffff" width="667.5" height="9.1"/>
						<rect x="663.8" y="296.1" fill="#fb98b5" width="667.5" height="21.7"/>
					</g>
				</g>
				<g>
					<g>
						<rect x="1993.8" y="110.4" fill="#f3b4d1" width="667.5" height="12.9"/>
						<rect x="1993.8" y="153.8" fill="#ffffff" width="667.5" height="9.1"/>
						<rect x="1993.8" y="127.7" fill="#fb98b5" width="667.5" height="21.7"/>
					</g>
					<g>
						<rect x="1993.8" y="168.4" fill="#bbddf6" width="667.5" height="12.9"/>
						<rect x="1993.8" y="211.8" fill="#ffffff" width="667.5" height="9.1"/>
						<rect x="1993.8" y="185.7" fill="#fb98b5" width="667.5" height="21.7"/>
					</g>
				</g>
				<g>
					<rect x="1330" y="110.4" fill="#ffffff" width="665" height="110.4"/>
					<g>
						<rect x="1328.8" y="110.4" fill="#f3b4d1" width="667.5" height="12.9"/>
						<rect x="1328.8" y="153.8" fill="#ffffff" width="667.5" height="9.1"/>
						<rect x="1328.8" y="127.7" fill="#fb98b5" width="667.5" height="21.7"/>
					</g>
					<g>
						<rect x="1328.8" y="168.4" fill="#bbddf6" width="667.5" height="12.9"/>
						<rect x="1328.8" y="211.8" fill="#ffffff" width="667.5" height="9.1"/>
						<rect x="1328.8" y="185.7" fill="#fb98b5" width="667.5" height="21.7"/>
					</g>
				</g>
				<g>
					<g>
						<rect x="663.8" y="110.4" fill="#f3b4d1" width="667.5" height="12.9"/>
						<rect x="663.8" y="153.8" fill="#ffffff" width="667.5" height="9.1"/>
						<rect x="663.8" y="127.7" fill="#fb98b5" width="667.5" height="21.7"/>
					</g>
					<g>
						<rect x="663.8" y="168.4" fill="#bbddf6" width="667.5" height="12.9"/>
						<rect x="663.8" y="211.8" fill="#ffffff" width="667.5" height="9.1"/>
						<rect x="663.8" y="185.7" fill="#fb98b5" width="667.5" height="21.7"/>
					</g>
				</g>
				<g>
					<g>
						<rect x="1993.8" fill="#f3b4d1" width="667.5" height="12.9"/>
						<rect x="1993.8" y="43.3" fill="#ffffff" width="667.5" height="9.1"/>
						<rect x="1993.8" y="17.3" fill="#fb98b5" width="667.5" height="21.7"/>
					</g>
					<g>
						<rect x="1993.8" y="58" fill="#bbddf6" width="667.5" height="12.9"/>
						<rect x="1993.8" y="101.3" fill="#ffffff" width="667.5" height="9.1"/>
						<rect x="1993.8" y="75.3" fill="#fb98b5" width="667.5" height="21.7"/>
					</g>
				</g>
				<g>
					<rect x="1330" fill="#ffffff" width="665" height="110.4"/>
					<g>
						<rect x="1328.8" fill="#f3b4d1" width="667.5" height="12.9"/>
						<rect x="1328.8" y="43.3" fill="#ffffff" width="667.5" height="9.1"/>
						<rect x="1328.8" y="17.3" fill="#fb98b5" width="667.5" height="21.7"/>
					</g>
					<g>
						<rect x="1328.8" y="58" fill="#bbddf6" width="667.5" height="12.9"/>
						<rect x="1328.8" y="101.3" fill="#ffffff" width="667.5" height="9.1"/>
						<rect x="1328.8" y="75.3" fill="#fb98b5" width="667.5" height="21.7"/>
					</g>
				</g>
				<g>
					<g>
						<rect x="663.8" fill="#f3b4d1" width="667.5" height="12.9"/>
						<rect x="663.8" y="43.3" fill="#ffffff" width="667.5" height="9.1"/>
						<rect x="663.8" y="17.3" fill="#fb98b5" width="667.5" height="21.7"/>
					</g>
					<g>
						<rect x="663.8" y="58" fill="#bbddf6" width="667.5" height="12.9"/>
						<rect x="663.8" y="101.3" fill="#ffffff" width="667.5" height="9.1"/>
						<rect x="663.8" y="75.3" fill="#fb98b5" width="667.5" height="21.7"/>
					</g>
				</g>
			</g>
		</g>
		<g>
			<g>
				<defs>
					<rect id="SVGID_5_" x="1330" y="552.1" width="665" height="552.1"/>
				</defs>
				<g>
					<g>
						<rect x="1993.8" y="993.8" fill="#f3b4d1" width="667.5" height="12.9"/>
						<rect x="1993.8" y="1037.1" fill="#ffffff" width="667.5" height="9.1"/>
						<rect x="1993.8" y="1011" fill="#fb98b5" width="667.5" height="21.7"/>
					</g>
					<g>
						<rect x="1993.8" y="1051.8" fill="#bbddf6" width="667.5" height="12.9"/>
						<rect x="1993.8" y="1095.1" fill="#ffffff" width="667.5" height="9.1"/>
						<rect x="1993.8" y="1069" fill="#fb98b5" width="667.5" height="21.7"/>
					</g>
				</g>
				<g>
					<rect x="1330" y="993.8" fill="#ffffff" width="665" height="110.4"/>
					<g>
						<rect x="1328.8" y="993.8" fill="#f3b4d1" width="667.5" height="12.9"/>
						<rect x="1328.8" y="1037.1" fill="#ffffff" width="667.5" height="9.1"/>
						<rect x="1328.8" y="1011" fill="#fb98b5" width="667.5" height="21.7"/>
					</g>
					<g>
						<rect x="1328.8" y="1051.8" fill="#bbddf6" width="667.5" height="12.9"/>
						<rect x="1328.8" y="1095.1" fill="#ffffff" width="667.5" height="9.1"/>
						<rect x="1328.8" y="1069" fill="#fb98b5" width="667.5" height="21.7"/>
					</g>
				</g>
				<g>
					<g>
						<rect x="663.8" y="993.8" fill="#f3b4d1" width="667.5" height="12.9"/>
						<rect x="663.8" y="1037.1" fill="#ffffff" width="667.5" height="9.1"/>
						<rect x="663.8" y="1011" fill="#fb98b5" width="667.5" height="21.7"/>
					</g>
					<g>
						<rect x="663.8" y="1051.8" fill="#bbddf6" width="667.5" height="12.9"/>
						<rect x="663.8" y="1095.1" fill="#ffffff" width="667.5" height="9.1"/>
						<rect x="663.8" y="1069" fill="#fb98b5" width="667.5" height="21.7"/>
					</g>
				</g>
				<g>
					<g>
						<rect x="1993.8" y="883.4" fill="#f3b4d1" width="667.5" height="12.9"/>
						<rect x="1993.8" y="926.7" fill="#ffffff" width="667.5" height="9.1"/>
						<rect x="1993.8" y="900.6" fill="#fb98b5" width="667.5" height="21.7"/>
					</g>
					<g>
						<rect x="1993.8" y="941.4" fill="#bbddf6" width="667.5" height="12.9"/>
						<rect x="1993.8" y="984.7" fill="#ffffff" width="667.5" height="9.1"/>
						<rect x="1993.8" y="958.6" fill="#fb98b5" width="667.5" height="21.7"/>
					</g>
				</g>
				<g>
					<rect x="1330" y="883.4" fill="#ffffff" width="665" height="110.4"/>
					<g>
						<rect x="1328.8" y="883.4" fill="#f3b4d1" width="667.5" height="12.9"/>
						<rect x="1328.8" y="926.7" fill="#ffffff" width="667.5" height="9.1"/>
						<rect x="1328.8" y="900.6" fill="#fb98b5" width="667.5" height="21.7"/>
					</g>
					<g>
						<rect x="1328.8" y="941.4" fill="#bbddf6" width="667.5" height="12.9"/>
						<rect x="1328.8" y="984.7" fill="#ffffff" width="667.5" height="9.1"/>
						<rect x="1328.8" y="958.6" fill="#fb98b5" width="667.5" height="21.7"/>
					</g>
				</g>
				<g>
					<g>
						<rect x="663.8" y="883.4" fill="#f3b4d1" width="667.5" height="12.9"/>
						<rect x="663.8" y="926.7" fill="#ffffff" width="667.5" height="9.1"/>
						<rect x="663.8" y="900.6" fill="#fb98b5" width="667.5" height="21.7"/>
					</g>
					<g>
						<rect x="663.8" y="941.4" fill="#bbddf6" width="667.5" height="12.9"/>
						<rect x="663.8" y="984.7" fill="#ffffff" width="667.5" height="9.1"/>
						<rect x="663.8" y="958.6" fill="#fb98b5" width="667.5" height="21.7"/>
					</g>
				</g>
				<g>
					<g>
						<rect x="1993.8" y="772.9" fill="#f3b4d1" width="667.5" height="12.9"/>
						<rect x="1993.8" y="816.3" fill="#ffffff" width="667.5" height="9.1"/>
						<rect x="1993.8" y="790.2" fill="#fb98b5" width="667.5" height="21.7"/>
					</g>
					<g>
						<rect x="1993.8" y="830.9" fill="#bbddf6" width="667.5" height="12.9"/>
						<rect x="1993.8" y="874.3" fill="#ffffff" width="667.5" height="9.1"/>
						<rect x="1993.8" y="848.2" fill="#fb98b5" width="667.5" height="21.7"/>
					</g>
				</g>
				<g>
					<rect x="1330" y="772.9" fill="#ffffff" width="665" height="110.4"/>
					<g>
						<rect x="1328.8" y="772.9" fill="#f3b4d1" width="667.5" height="12.9"/>
						<rect x="1328.8" y="816.3" fill="#ffffff" width="667.5" height="9.1"/>
						<rect x="1328.8" y="790.2" fill="#fb98b5" width="667.5" height="21.7"/>
					</g>
					<g>
						<rect x="1328.8" y="830.9" fill="#bbddf6" width="667.5" height="12.9"/>
						<rect x="1328.8" y="874.3" fill="#ffffff" width="667.5" height="9.1"/>
						<rect x="1328.8" y="848.2" fill="#fb98b5" width="667.5" height="21.7"/>
					</g>
				</g>
				<g>
					<g>
						<rect x="663.8" y="772.9" fill="#f3b4d1" width="667.5" height="12.9"/>
						<rect x="663.8" y="816.3" fill="#ffffff" width="667.5" height="9.1"/>
						<rect x="663.8" y="790.2" fill="#fb98b5" width="667.5" height="21.7"/>
					</g>
					<g>
						<rect x="663.8" y="830.9" fill="#bbddf6" width="667.5" height="12.9"/>
						<rect x="663.8" y="874.3" fill="#ffffff" width="667.5" height="9.1"/>
						<rect x="663.8" y="848.2" fill="#fb98b5" width="667.5" height="21.7"/>
					</g>
				</g>
				<g>
					<g>
						<rect x="1993.8" y="662.5" fill="#f3b4d1" width="667.5" height="12.9"/>
						<rect x="1993.8" y="705.8" fill="#ffffff" width="667.5" height="9.1"/>
						<rect x="1993.8" y="679.8" fill="#fb98b5" width="667.5" height="21.7"/>
					</g>
					<g>
						<rect x="1993.8" y="720.5" fill="#bbddf6" width="667.5" height="12.9"/>
						<rect x="1993.8" y="763.8" fill="#ffffff" width="667.5" height="9.1"/>
						<rect x="1993.8" y="737.8" fill="#fb98b5" width="667.5" height="21.7"/>
					</g>
				</g>
				<g>
					<rect x="1330" y="662.5" fill="#ffffff" width="665" height="110.4"/>
					<g>
						<rect x="1328.8" y="662.5" fill="#f3b4d1" width="667.5" height="12.9"/>
						<rect x="1328.8" y="705.8" fill="#ffffff" width="667.5" height="9.1"/>
						<rect x="1328.8" y="679.8" fill="#fb98b5" width="667.5" height="21.7"/>
					</g>
					<g>
						<rect x="1328.8" y="720.5" fill="#bbddf6" width="667.5" height="12.9"/>
						<rect x="1328.8" y="763.8" fill="#ffffff" width="667.5" height="9.1"/>
						<rect x="1328.8" y="737.8" fill="#fb98b5" width="667.5" height="21.7"/>
					</g>
				</g>
				<g>
					<g>
						<rect x="663.8" y="662.5" fill="#f3b4d1" width="667.5" height="12.9"/>
						<rect x="663.8" y="705.8" fill="#ffffff" width="667.5" height="9.1"/>
						<rect x="663.8" y="679.8" fill="#fb98b5" width="667.5" height="21.7"/>
					</g>
					<g>
						<rect x="663.8" y="720.5" fill="#bbddf6" width="667.5" height="12.9"/>
						<rect x="663.8" y="763.8" fill="#ffffff" width="667.5" height="9.1"/>
						<rect x="663.8" y="737.8" fill="#fb98b5" width="667.5" height="21.7"/>
					</g>
				</g>
				<g>
					<g>
						<rect x="1993.8" y="552.1" fill="#f3b4d1" width="667.5" height="12.9"/>
						<rect x="1993.8" y="595.4" fill="#ffffff" width="667.5" height="9.1"/>
						<rect x="1993.8" y="569.3" fill="#fb98b5" width="667.5" height="21.7"/>
					</g>
					<g>
						<rect x="1993.8" y="610.1" fill="#bbddf6" width="667.5" height="12.9"/>
						<rect x="1993.8" y="653.4" fill="#ffffff" width="667.5" height="9.1"/>
						<rect x="1993.8" y="627.3" fill="#fb98b5" width="667.5" height="21.7"/>
					</g>
				</g>
				<g>
					<rect x="1330" y="552.1" fill="#ffffff" width="665" height="110.4"/>
					<g>
						<rect x="1328.8" y="552.1" fill="#f3b4d1" width="667.5" height="12.9"/>
						<rect x="1328.8" y="595.4" fill="#ffffff" width="667.5" height="9.1"/>
						<rect x="1328.8" y="569.3" fill="#fb98b5" width="667.5" height="21.7"/>
					</g>
					<g>
						<rect x="1328.8" y="610.1" fill="#bbddf6" width="667.5" height="12.9"/>
						<rect x="1328.8" y="653.4" fill="#ffffff" width="667.5" height="9.1"/>
						<rect x="1328.8" y="627.3" fill="#fb98b5" width="667.5" height="21.7"/>
					</g>
				</g>
				<g>
					<g>
						<rect x="663.8" y="552.1" fill="#f3b4d1" width="667.5" height="12.9"/>
						<rect x="663.8" y="595.4" fill="#ffffff" width="667.5" height="9.1"/>
						<rect x="663.8" y="569.3" fill="#fb98b5" width="667.5" height="21.7"/>
					</g>
					<g>
						<rect x="663.8" y="610.1" fill="#bbddf6" width="667.5" height="12.9"/>
						<rect x="663.8" y="653.4" fill="#ffffff" width="667.5" height="9.1"/>
						<rect x="663.8" y="627.3" fill="#fb98b5" width="667.5" height="21.7"/>
					</g>
				</g>
			</g>
		</g>
		<g>
			<g>
				<defs>
					<rect id="SVGID_7_" x="665" width="665" height="552.1"/>
				</defs>
				<g>
					<g>
						<rect x="1328.8" y="441.7" fill="#f3b4d1" width="667.5" height="12.9"/>
						<rect x="1328.8" y="485" fill="#ffffff" width="667.5" height="9.1"/>
						<rect x="1328.8" y="458.9" fill="#fb98b5" width="667.5" height="21.7"/>
					</g>
					<g>
						<rect x="1328.8" y="499.7" fill="#bbddf6" width="667.5" height="12.9"/>
						<rect x="1328.8" y="543" fill="#ffffff" width="667.5" height="9.1"/>
						<rect x="1328.8" y="516.9" fill="#fb98b5" width="667.5" height="21.7"/>
					</g>
				</g>
				<g>
					<rect x="665" y="441.7" fill="#ffffff" width="665" height="110.4"/>
					<g>
						<rect x="663.8" y="441.7" fill="#f3b4d1" width="667.5" height="12.9"/>
						<rect x="663.8" y="485" fill="#ffffff" width="667.5" height="9.1"/>
						<rect x="663.8" y="458.9" fill="#fb98b5" width="667.5" height="21.7"/>
					</g>
					<g>
						<rect x="663.8" y="499.7" fill="#bbddf6" width="667.5" height="12.9"/>
						<rect x="663.8" y="543" fill="#ffffff" width="667.5" height="9.1"/>
						<rect x="663.8" y="516.9" fill="#fb98b5" width="667.5" height="21.7"/>
					</g>
				</g>
				<g>
					<g>
						<rect x="-1.2" y="441.7" fill="#f3b4d1" width="667.5" height="12.9"/>
						<rect x="-1.2" y="485" fill="#ffffff" width="667.5" height="9.1"/>
						<rect x="-1.2" y="458.9" fill="#fb98b5" width="667.5" height="21.7"/>
					</g>
					<g>
						<rect x="-1.2" y="499.7" fill="#bbddf6" width="667.5" height="12.9"/>
						<rect x="-1.2" y="543" fill="#ffffff" width="667.5" height="9.1"/>
						<rect x="-1.2" y="516.9" fill="#fb98b5" width="667.5" height="21.7"/>
					</g>
				</g>
				<g>
					<g>
						<rect x="1328.8" y="331.3" fill="#f3b4d1" width="667.5" height="12.9"/>
						<rect x="1328.8" y="374.6" fill="#ffffff" width="667.5" height="9.1"/>
						<rect x="1328.8" y="348.5" fill="#fb98b5" width="667.5" height="21.7"/>
					</g>
					<g>
						<rect x="1328.8" y="389.3" fill="#bbddf6" width="667.5" height="12.9"/>
						<rect x="1328.8" y="432.6" fill="#ffffff" width="667.5" height="9.1"/>
						<rect x="1328.8" y="406.5" fill="#fb98b5" width="667.5" height="21.7"/>
					</g>
				</g>
				<g>
					<rect x="665" y="331.3" fill="#ffffff" width="665" height="110.4"/>
					<g>
						<rect x="663.8" y="331.3" fill="#f3b4d1" width="667.5" height="12.9"/>
						<rect x="663.8" y="374.6" fill="#ffffff" width="667.5" height="9.1"/>
						<rect x="663.8" y="348.5" fill="#fb98b5" width="667.5" height="21.7"/>
					</g>
					<g>
						<rect x="663.8" y="389.3" fill="#bbddf6" width="667.5" height="12.9"/>
						<rect x="663.8" y="432.6" fill="#ffffff" width="667.5" height="9.1"/>
						<rect x="663.8" y="406.5" fill="#fb98b5" width="667.5" height="21.7"/>
					</g>
				</g>
				<g>
					<g>
						<rect x="-1.2" y="331.3" fill="#f3b4d1" width="667.5" height="12.9"/>
						<rect x="-1.2" y="374.6" fill="#ffffff" width="667.5" height="9.1"/>
						<rect x="-1.2" y="348.5" fill="#fb98b5" width="667.5" height="21.7"/>
					</g>
					<g>
						<rect x="-1.2" y="389.3" fill="#bbddf6" width="667.5" height="12.9"/>
						<rect x="-1.2" y="432.6" fill="#ffffff" width="667.5" height="9.1"/>
						<rect x="-1.2" y="406.5" fill="#fb98b5" width="667.5" height="21.7"/>
					</g>
				</g>
				<g>
					<g>
						<rect x="1328.8" y="220.8" fill="#f3b4d1" width="667.5" height="12.9"/>
						<rect x="1328.8" y="264.2" fill="#ffffff" width="667.5" height="9.1"/>
						<rect x="1328.8" y="238.1" fill="#fb98b5" width="667.5" height="21.7"/>
					</g>
					<g>
						<rect x="1328.8" y="278.8" fill="#bbddf6" width="667.5" height="12.9"/>
						<rect x="1328.8" y="322.2" fill="#ffffff" width="667.5" height="9.1"/>
						<rect x="1328.8" y="296.1" fill="#fb98b5" width="667.5" height="21.7"/>
					</g>
				</g>
				<g>
					<rect x="665" y="220.8" fill="#ffffff" width="665" height="110.4"/>
					<g>
						<rect x="663.8" y="220.8" fill="#f3b4d1" width="667.5" height="12.9"/>
						<rect x="663.8" y="264.2" fill="#ffffff" width="667.5" height="9.1"/>
						<rect x="663.8" y="238.1" fill="#fb98b5" width="667.5" height="21.7"/>
					</g>
					<g>
						<rect x="663.8" y="278.8" fill="#bbddf6" width="667.5" height="12.9"/>
						<rect x="663.8" y="322.2" fill="#ffffff" width="667.5" height="9.1"/>
						<rect x="663.8" y="296.1" fill="#fb98b5" width="667.5" height="21.7"/>
					</g>
				</g>
				<g>
					<g>
						<rect x="-1.2" y="220.8" fill="#f3b4d1" width="667.5" height="12.9"/>
						<rect x="-1.2" y="264.2" fill="#ffffff" width="667.5" height="9.1"/>
						<rect x="-1.2" y="238.1" fill="#fb98b5" width="667.5" height="21.7"/>
					</g>
					<g>
						<rect x="-1.2" y="278.8" fill="#bbddf6" width="667.5" height="12.9"/>
						<rect x="-1.2" y="322.2" fill="#ffffff" width="667.5" height="9.1"/>
						<rect x="-1.2" y="296.1" fill="#fb98b5" width="667.5" height="21.7"/>
					</g>
				</g>
				<g>
					<g>
						<rect x="1328.8" y="110.4" fill="#f3b4d1" width="667.5" height="12.9"/>
						<rect x="1328.8" y="153.8" fill="#ffffff" width="667.5" height="9.1"/>
						<rect x="1328.8" y="127.7" fill="#fb98b5" width="667.5" height="21.7"/>
					</g>
					<g>
						<rect x="1328.8" y="168.4" fill="#bbddf6" width="667.5" height="12.9"/>
						<rect x="1328.8" y="211.8" fill="#ffffff" width="667.5" height="9.1"/>
						<rect x="1328.8" y="185.7" fill="#fb98b5" width="667.5" height="21.7"/>
					</g>
				</g>
				<g>
					<rect x="665" y="110.4" fill="#ffffff" width="665" height="110.4"/>
					<g>
						<rect x="663.8" y="110.4" fill="#f3b4d1" width="667.5" height="12.9"/>
						<rect x="663.8" y="153.8" fill="#ffffff" width="667.5" height="9.1"/>
						<rect x="663.8" y="127.7" fill="#fb98b5" width="667.5" height="21.7"/>
					</g>
					<g>
						<rect x="663.8" y="168.4" fill="#bbddf6" width="667.5" height="12.9"/>
						<rect x="663.8" y="211.8" fill="#ffffff" width="667.5" height="9.1"/>
						<rect x="663.8" y="185.7" fill="#fb98b5" width="667.5" height="21.7"/>
					</g>
				</g>
				<g>
					<g>
						<rect x="-1.2" y="110.4" fill="#f3b4d1" width="667.5" height="12.9"/>
						<rect x="-1.2" y="153.8" fill="#ffffff" width="667.5" height="9.1"/>
						<rect x="-1.2" y="127.7" fill="#fb98b5" width="667.5" height="21.7"/>
					</g>
					<g>
						<rect x="-1.2" y="168.4" fill="#bbddf6" width="667.5" height="12.9"/>
						<rect x="-1.2" y="211.8" fill="#ffffff" width="667.5" height="9.1"/>
						<rect x="-1.2" y="185.7" fill="#fb98b5" width="667.5" height="21.7"/>
					</g>
				</g>
				<g>
					<g>
						<rect x="1328.8" fill="#f3b4d1" width="667.5" height="12.9"/>
						<rect x="1328.8" y="43.3" fill="#ffffff" width="667.5" height="9.1"/>
						<rect x="1328.8" y="17.3" fill="#fb98b5" width="667.5" height="21.7"/>
					</g>
					<g>
						<rect x="1328.8" y="58" fill="#bbddf6" width="667.5" height="12.9"/>
						<rect x="1328.8" y="101.3" fill="#ffffff" width="667.5" height="9.1"/>
						<rect x="1328.8" y="75.3" fill="#fb98b5" width="667.5" height="21.7"/>
					</g>
				</g>
				<g>
					<rect x="665" fill="#ffffff" width="665" height="110.4"/>
					<g>
						<rect x="663.8" fill="#f3b4d1" width="667.5" height="12.9"/>
						<rect x="663.8" y="43.3" fill="#ffffff" width="667.5" height="9.1"/>
						<rect x="663.8" y="17.3" fill="#fb98b5" width="667.5" height="21.7"/>
					</g>
					<g>
						<rect x="663.8" y="58" fill="#bbddf6" width="667.5" height="12.9"/>
						<rect x="663.8" y="101.3" fill="#ffffff" width="667.5" height="9.1"/>
						<rect x="663.8" y="75.3" fill="#fb98b5" width="667.5" height="21.7"/>
					</g>
				</g>
				<g>
					<g>
						<rect x="-1.2" fill="#f3b4d1" width="667.5" height="12.9"/>
						<rect x="-1.2" y="43.3" fill="#ffffff" width="667.5" height="9.1"/>
						<rect x="-1.2" y="17.3" fill="#fb98b5" width="667.5" height="21.7"/>
					</g>
					<g>
						<rect x="-1.2" y="58" fill="#bbddf6" width="667.5" height="12.9"/>
						<rect x="-1.2" y="101.3" fill="#ffffff" width="667.5" height="9.1"/>
						<rect x="-1.2" y="75.3" fill="#fb98b5" width="667.5" height="21.7"/>
					</g>
				</g>
			</g>
		</g>
		<g>
			<g>
				<defs>
					<rect id="SVGID_9_" x="665" y="552.1" width="665" height="552.1"/>
				</defs>
				<g >
					<g>
						<rect x="1328.8" y="993.8" fill="#f3b4d1" width="667.5" height="12.9"/>
						<rect x="1328.8" y="1037.1" fill="#ffffff" width="667.5" height="9.1"/>
						<rect x="1328.8" y="1011" fill="#fb98b5" width="667.5" height="21.7"/>
					</g>
					<g>
						<rect x="1328.8" y="1051.8" fill="#bbddf6" width="667.5" height="12.9"/>
						<rect x="1328.8" y="1095.1" fill="#ffffff" width="667.5" height="9.1"/>
						<rect x="1328.8" y="1069" fill="#fb98b5" width="667.5" height="21.7"/>
					</g>
				</g>
				<g >
					<rect x="665" y="993.8" fill="#ffffff" width="665" height="110.4"/>
					<g>
						<rect x="663.8" y="993.8" fill="#f3b4d1" width="667.5" height="12.9"/>
						<rect x="663.8" y="1037.1" fill="#ffffff" width="667.5" height="9.1"/>
						<rect x="663.8" y="1011" fill="#fb98b5" width="667.5" height="21.7"/>
					</g>
					<g>
						<rect x="663.8" y="1051.8" fill="#bbddf6" width="667.5" height="12.9"/>
						<rect x="663.8" y="1095.1" fill="#ffffff" width="667.5" height="9.1"/>
						<rect x="663.8" y="1069" fill="#fb98b5" width="667.5" height="21.7"/>
					</g>
				</g>
				<g >
					<g>
						<rect x="-1.2" y="993.8" fill="#f3b4d1" width="667.5" height="12.9"/>
						<rect x="-1.2" y="1037.1" fill="#ffffff" width="667.5" height="9.1"/>
						<rect x="-1.2" y="1011" fill="#fb98b5" width="667.5" height="21.7"/>
					</g>
					<g>
						<rect x="-1.2" y="1051.8" fill="#bbddf6" width="667.5" height="12.9"/>
						<rect x="-1.2" y="1095.1" fill="#ffffff" width="667.5" height="9.1"/>
						<rect x="-1.2" y="1069" fill="#fb98b5" width="667.5" height="21.7"/>
					</g>
				</g>
				<g >
					<g>
						<rect x="1328.8" y="883.4" fill="#f3b4d1" width="667.5" height="12.9"/>
						<rect x="1328.8" y="926.7" fill="#ffffff" width="667.5" height="9.1"/>
						<rect x="1328.8" y="900.6" fill="#fb98b5" width="667.5" height="21.7"/>
					</g>
					<g>
						<rect x="1328.8" y="941.4" fill="#bbddf6" width="667.5" height="12.9"/>
						<rect x="1328.8" y="984.7" fill="#ffffff" width="667.5" height="9.1"/>
						<rect x="1328.8" y="958.6" fill="#fb98b5" width="667.5" height="21.7"/>
					</g>
				</g>
				<g >
					<rect x="665" y="883.4" fill="#ffffff" width="665" height="110.4"/>
					<g>
						<rect x="663.8" y="883.4" fill="#f3b4d1" width="667.5" height="12.9"/>
						<rect x="663.8" y="926.7" fill="#ffffff" width="667.5" height="9.1"/>
						<rect x="663.8" y="900.6" fill="#fb98b5" width="667.5" height="21.7"/>
					</g>
					<g>
						<rect x="663.8" y="941.4" fill="#bbddf6" width="667.5" height="12.9"/>
						<rect x="663.8" y="984.7" fill="#ffffff" width="667.5" height="9.1"/>
						<rect x="663.8" y="958.6" fill="#fb98b5" width="667.5" height="21.7"/>
					</g>
				</g>
				<g >
					<g>
						<rect x="-1.2" y="883.4" fill="#f3b4d1" width="667.5" height="12.9"/>
						<rect x="-1.2" y="926.7" fill="#ffffff" width="667.5" height="9.1"/>
						<rect x="-1.2" y="900.6" fill="#fb98b5" width="667.5" height="21.7"/>
					</g>
					<g>
						<rect x="-1.2" y="941.4" fill="#bbddf6" width="667.5" height="12.9"/>
						<rect x="-1.2" y="984.7" fill="#ffffff" width="667.5" height="9.1"/>
						<rect x="-1.2" y="958.6" fill="#fb98b5" width="667.5" height="21.7"/>
					</g>
				</g>
				<g >
					<g>
						<rect x="1328.8" y="772.9" fill="#f3b4d1" width="667.5" height="12.9"/>
						<rect x="1328.8" y="816.3" fill="#ffffff" width="667.5" height="9.1"/>
						<rect x="1328.8" y="790.2" fill="#fb98b5" width="667.5" height="21.7"/>
					</g>
					<g>
						<rect x="1328.8" y="830.9" fill="#bbddf6" width="667.5" height="12.9"/>
						<rect x="1328.8" y="874.3" fill="#ffffff" width="667.5" height="9.1"/>
						<rect x="1328.8" y="848.2" fill="#fb98b5" width="667.5" height="21.7"/>
					</g>
				</g>
				<g >
					<rect x="665" y="772.9" fill="#ffffff" width="665" height="110.4"/>
					<g>
						<rect x="663.8" y="772.9" fill="#f3b4d1" width="667.5" height="12.9"/>
						<rect x="663.8" y="816.3" fill="#ffffff" width="667.5" height="9.1"/>
						<rect x="663.8" y="790.2" fill="#fb98b5" width="667.5" height="21.7"/>
					</g>
					<g>
						<rect x="663.8" y="830.9" fill="#bbddf6" width="667.5" height="12.9"/>
						<rect x="663.8" y="874.3" fill="#ffffff" width="667.5" height="9.1"/>
						<rect x="663.8" y="848.2" fill="#fb98b5" width="667.5" height="21.7"/>
					</g>
				</g>
				<g >
					<g>
						<rect x="-1.2" y="772.9" fill="#f3b4d1" width="667.5" height="12.9"/>
						<rect x="-1.2" y="816.3" fill="#ffffff" width="667.5" height="9.1"/>
						<rect x="-1.2" y="790.2" fill="#fb98b5" width="667.5" height="21.7"/>
					</g>
					<g>
						<rect x="-1.2" y="830.9" fill="#bbddf6" width="667.5" height="12.9"/>
						<rect x="-1.2" y="874.3" fill="#ffffff" width="667.5" height="9.1"/>
						<rect x="-1.2" y="848.2" fill="#fb98b5" width="667.5" height="21.7"/>
					</g>
				</g>
				<g >
					<g>
						<rect x="1328.8" y="662.5" fill="#f3b4d1" width="667.5" height="12.9"/>
						<rect x="1328.8" y="705.8" fill="#ffffff" width="667.5" height="9.1"/>
						<rect x="1328.8" y="679.8" fill="#fb98b5" width="667.5" height="21.7"/>
					</g>
					<g>
						<rect x="1328.8" y="720.5" fill="#bbddf6" width="667.5" height="12.9"/>
						<rect x="1328.8" y="763.8" fill="#ffffff" width="667.5" height="9.1"/>
						<rect x="1328.8" y="737.8" fill="#fb98b5" width="667.5" height="21.7"/>
					</g>
				</g>
				<g >
					<rect x="665" y="662.5" fill="#ffffff" width="665" height="110.4"/>
					<g>
						<rect x="663.8" y="662.5" fill="#f3b4d1" width="667.5" height="12.9"/>
						<rect x="663.8" y="705.8" fill="#ffffff" width="667.5" height="9.1"/>
						<rect x="663.8" y="679.8" fill="#fb98b5" width="667.5" height="21.7"/>
					</g>
					<g>
						<rect x="663.8" y="720.5" fill="#bbddf6" width="667.5" height="12.9"/>
						<rect x="663.8" y="763.8" fill="#ffffff" width="667.5" height="9.1"/>
						<rect x="663.8" y="737.8" fill="#fb98b5" width="667.5" height="21.7"/>
					</g>
				</g>
				<g >
					<g>
						<rect x="-1.2" y="662.5" fill="#f3b4d1" width="667.5" height="12.9"/>
						<rect x="-1.2" y="705.8" fill="#ffffff" width="667.5" height="9.1"/>
						<rect x="-1.2" y="679.8" fill="#fb98b5" width="667.5" height="21.7"/>
					</g>
					<g>
						<rect x="-1.2" y="720.5" fill="#bbddf6" width="667.5" height="12.9"/>
						<rect x="-1.2" y="763.8" fill="#ffffff" width="667.5" height="9.1"/>
						<rect x="-1.2" y="737.8" fill="#fb98b5" width="667.5" height="21.7"/>
					</g>
				</g>
				<g >
					<g>
						<rect x="1328.8" y="552.1" fill="#f3b4d1" width="667.5" height="12.9"/>
						<rect x="1328.8" y="595.4" fill="#ffffff" width="667.5" height="9.1"/>
						<rect x="1328.8" y="569.3" fill="#fb98b5" width="667.5" height="21.7"/>
					</g>
					<g>
						<rect x="1328.8" y="610.1" fill="#bbddf6" width="667.5" height="12.9"/>
						<rect x="1328.8" y="653.4" fill="#ffffff" width="667.5" height="9.1"/>
						<rect x="1328.8" y="627.3" fill="#fb98b5" width="667.5" height="21.7"/>
					</g>
				</g>
				<g >
					<rect x="665" y="552.1" fill="#ffffff" width="665" height="110.4"/>
					<g>
						<rect x="663.8" y="552.1" fill="#f3b4d1" width="667.5" height="12.9"/>
						<rect x="663.8" y="595.4" fill="#ffffff" width="667.5" height="9.1"/>
						<rect x="663.8" y="569.3" fill="#fb98b5" width="667.5" height="21.7"/>
					</g>
					<g>
						<rect x="663.8" y="610.1" fill="#bbddf6" width="667.5" height="12.9"/>
						<rect x="663.8" y="653.4" fill="#ffffff" width="667.5" height="9.1"/>
						<rect x="663.8" y="627.3" fill="#fb98b5" width="667.5" height="21.7"/>
					</g>
				</g>
				<g >
					<g>
						<rect x="-1.2" y="552.1" fill="#f3b4d1" width="667.5" height="12.9"/>
						<rect x="-1.2" y="595.4" fill="#ffffff" width="667.5" height="9.1"/>
						<rect x="-1.2" y="569.3" fill="#fb98b5" width="667.5" height="21.7"/>
					</g>
					<g>
						<rect x="-1.2" y="610.1" fill="#bbddf6" width="667.5" height="12.9"/>
						<rect x="-1.2" y="653.4" fill="#ffffff" width="667.5" height="9.1"/>
						<rect x="-1.2" y="627.3" fill="#fb98b5" width="667.5" height="21.7"/>
					</g>
				</g>
			</g>
		</g>
		<g>
			<g>
				<defs>
					<rect id="SVGID_11_" width="665" height="552.1"/>
				</defs>
				<g >
					<g>
						<rect x="663.8" y="441.7" fill="#f3b4d1" width="667.5" height="12.9"/>
						<rect x="663.8" y="485" fill="#ffffff" width="667.5" height="9.1"/>
						<rect x="663.8" y="458.9" fill="#fb98b5" width="667.5" height="21.7"/>
					</g>
					<g>
						<rect x="663.8" y="499.7" fill="#bbddf6" width="667.5" height="12.9"/>
						<rect x="663.8" y="543" fill="#ffffff" width="667.5" height="9.1"/>
						<rect x="663.8" y="516.9" fill="#fb98b5" width="667.5" height="21.7"/>
					</g>
				</g>
				<g >
					<rect y="441.7" fill="#ffffff" width="665" height="110.4"/>
					<g>
						<rect x="-1.2" y="441.7" fill="#f3b4d1" width="667.5" height="12.9"/>
						<rect x="-1.2" y="485" fill="#ffffff" width="667.5" height="9.1"/>
						<rect x="-1.2" y="458.9" fill="#fb98b5" width="667.5" height="21.7"/>
					</g>
					<g>
						<rect x="-1.2" y="499.7" fill="#bbddf6" width="667.5" height="12.9"/>
						<rect x="-1.2" y="543" fill="#ffffff" width="667.5" height="9.1"/>
						<rect x="-1.2" y="516.9" fill="#fb98b5" width="667.5" height="21.7"/>
					</g>
				</g>
				<g >
					<g>
						<rect x="-666.2" y="441.7" fill="#f3b4d1" width="667.5" height="12.9"/>
						<rect x="-666.2" y="485" fill="#ffffff" width="667.5" height="9.1"/>
						<rect x="-666.2" y="458.9" fill="#fb98b5" width="667.5" height="21.7"/>
					</g>
					<g>
						<rect x="-666.2" y="499.7" fill="#bbddf6" width="667.5" height="12.9"/>
						<rect x="-666.2" y="543" fill="#ffffff" width="667.5" height="9.1"/>
						<rect x="-666.2" y="516.9" fill="#fb98b5" width="667.5" height="21.7"/>
					</g>
				</g>
				<g >
					<g>
						<rect x="663.8" y="331.3" fill="#f3b4d1" width="667.5" height="12.9"/>
						<rect x="663.8" y="374.6" fill="#ffffff" width="667.5" height="9.1"/>
						<rect x="663.8" y="348.5" fill="#fb98b5" width="667.5" height="21.7"/>
					</g>
					<g>
						<rect x="663.8" y="389.3" fill="#bbddf6" width="667.5" height="12.9"/>
						<rect x="663.8" y="432.6" fill="#ffffff" width="667.5" height="9.1"/>
						<rect x="663.8" y="406.5" fill="#fb98b5" width="667.5" height="21.7"/>
					</g>
				</g>
				<g >
					<rect y="331.3" fill="#ffffff" width="665" height="110.4"/>
					<g>
						<rect x="-1.2" y="331.3" fill="#f3b4d1" width="667.5" height="12.9"/>
						<rect x="-1.2" y="374.6" fill="#ffffff" width="667.5" height="9.1"/>
						<rect x="-1.2" y="348.5" fill="#fb98b5" width="667.5" height="21.7"/>
					</g>
					<g>
						<rect x="-1.2" y="389.3" fill="#bbddf6" width="667.5" height="12.9"/>
						<rect x="-1.2" y="432.6" fill="#ffffff" width="667.5" height="9.1"/>
						<rect x="-1.2" y="406.5" fill="#fb98b5" width="667.5" height="21.7"/>
					</g>
				</g>
				<g >
					<g>
						<rect x="-666.2" y="331.3" fill="#f3b4d1" width="667.5" height="12.9"/>
						<rect x="-666.2" y="374.6" fill="#ffffff" width="667.5" height="9.1"/>
						<rect x="-666.2" y="348.5" fill="#fb98b5" width="667.5" height="21.7"/>
					</g>
					<g>
						<rect x="-666.2" y="389.3" fill="#bbddf6" width="667.5" height="12.9"/>
						<rect x="-666.2" y="432.6" fill="#ffffff" width="667.5" height="9.1"/>
						<rect x="-666.2" y="406.5" fill="#fb98b5" width="667.5" height="21.7"/>
					</g>
				</g>
				<g >
					<g>
						<rect x="663.8" y="220.8" fill="#f3b4d1" width="667.5" height="12.9"/>
						<rect x="663.8" y="264.2" fill="#ffffff" width="667.5" height="9.1"/>
						<rect x="663.8" y="238.1" fill="#fb98b5" width="667.5" height="21.7"/>
					</g>
					<g>
						<rect x="663.8" y="278.8" fill="#bbddf6" width="667.5" height="12.9"/>
						<rect x="663.8" y="322.2" fill="#ffffff" width="667.5" height="9.1"/>
						<rect x="663.8" y="296.1" fill="#fb98b5" width="667.5" height="21.7"/>
					</g>
				</g>
				<g >
					<rect y="220.8" fill="#ffffff" width="665" height="110.4"/>
					<g>
						<rect x="-1.2" y="220.8" fill="#f3b4d1" width="667.5" height="12.9"/>
						<rect x="-1.2" y="264.2" fill="#ffffff" width="667.5" height="9.1"/>
						<rect x="-1.2" y="238.1" fill="#fb98b5" width="667.5" height="21.7"/>
					</g>
					<g>
						<rect x="-1.2" y="278.8" fill="#bbddf6" width="667.5" height="12.9"/>
						<rect x="-1.2" y="322.2" fill="#ffffff" width="667.5" height="9.1"/>
						<rect x="-1.2" y="296.1" fill="#fb98b5" width="667.5" height="21.7"/>
					</g>
				</g>
				<g >
					<g>
						<rect x="-666.2" y="220.8" fill="#f3b4d1" width="667.5" height="12.9"/>
						<rect x="-666.2" y="264.2" fill="#ffffff" width="667.5" height="9.1"/>
						<rect x="-666.2" y="238.1" fill="#fb98b5" width="667.5" height="21.7"/>
					</g>
					<g>
						<rect x="-666.2" y="278.8" fill="#bbddf6" width="667.5" height="12.9"/>
						<rect x="-666.2" y="322.2" fill="#ffffff" width="667.5" height="9.1"/>
						<rect x="-666.2" y="296.1" fill="#fb98b5" width="667.5" height="21.7"/>
					</g>
				</g>
				<g >
					<g>
						<rect x="663.8" y="110.4" fill="#f3b4d1" width="667.5" height="12.9"/>
						<rect x="663.8" y="153.8" fill="#ffffff" width="667.5" height="9.1"/>
						<rect x="663.8" y="127.7" fill="#fb98b5" width="667.5" height="21.7"/>
					</g>
					<g>
						<rect x="663.8" y="168.4" fill="#bbddf6" width="667.5" height="12.9"/>
						<rect x="663.8" y="211.8" fill="#ffffff" width="667.5" height="9.1"/>
						<rect x="663.8" y="185.7" fill="#fb98b5" width="667.5" height="21.7"/>
					</g>
				</g>
				<g >
					<rect y="110.4" fill="#ffffff" width="665" height="110.4"/>
					<g>
						<rect x="-1.2" y="110.4" fill="#f3b4d1" width="667.5" height="12.9"/>
						<rect x="-1.2" y="153.8" fill="#ffffff" width="667.5" height="9.1"/>
						<rect x="-1.2" y="127.7" fill="#fb98b5" width="667.5" height="21.7"/>
					</g>
					<g>
						<rect x="-1.2" y="168.4" fill="#bbddf6" width="667.5" height="12.9"/>
						<rect x="-1.2" y="211.8" fill="#ffffff" width="667.5" height="9.1"/>
						<rect x="-1.2" y="185.7" fill="#fb98b5" width="667.5" height="21.7"/>
					</g>
				</g>
				<g >
					<g>
						<rect x="-666.2" y="110.4" fill="#f3b4d1" width="667.5" height="12.9"/>
						<rect x="-666.2" y="153.8" fill="#ffffff" width="667.5" height="9.1"/>
						<rect x="-666.2" y="127.7" fill="#fb98b5" width="667.5" height="21.7"/>
					</g>
					<g>
						<rect x="-666.2" y="168.4" fill="#bbddf6" width="667.5" height="12.9"/>
						<rect x="-666.2" y="211.8" fill="#ffffff" width="667.5" height="9.1"/>
						<rect x="-666.2" y="185.7" fill="#fb98b5" width="667.5" height="21.7"/>
					</g>
				</g>
				<g >
					<g>
						<rect x="663.8" fill="#f3b4d1" width="667.5" height="12.9"/>
						<rect x="663.8" y="43.3" fill="#ffffff" width="667.5" height="9.1"/>
						<rect x="663.8" y="17.3" fill="#fb98b5" width="667.5" height="21.7"/>
					</g>
					<g>
						<rect x="663.8" y="58" fill="#bbddf6" width="667.5" height="12.9"/>
						<rect x="663.8" y="101.3" fill="#ffffff" width="667.5" height="9.1"/>
						<rect x="663.8" y="75.3" fill="#fb98b5" width="667.5" height="21.7"/>
					</g>
				</g>
				<g >
					<rect fill="#ffffff" width="665" height="110.4"/>
					<g>
						<rect x="-1.2" fill="#f3b4d1" width="667.5" height="12.9"/>
						<rect x="-1.2" y="43.3" fill="#ffffff" width="667.5" height="9.1"/>
						<rect x="-1.2" y="17.3" fill="#fb98b5" width="667.5" height="21.7"/>
					</g>
					<g>
						<rect x="-1.2" y="58" fill="#bbddf6" width="667.5" height="12.9"/>
						<rect x="-1.2" y="101.3" fill="#ffffff" width="667.5" height="9.1"/>
						<rect x="-1.2" y="75.3" fill="#fb98b5" width="667.5" height="21.7"/>
					</g>
				</g>
				<g >
					<g>
						<rect x="-666.2" fill="#f3b4d1" width="667.5" height="12.9"/>
						<rect x="-666.2" y="43.3" fill="#ffffff" width="667.5" height="9.1"/>
						<rect x="-666.2" y="17.3" fill="#fb98b5" width="667.5" height="21.7"/>
					</g>
					<g>
						<rect x="-666.2" y="58" fill="#bbddf6" width="667.5" height="12.9"/>
						<rect x="-666.2" y="101.3" fill="#ffffff" width="667.5" height="9.1"/>
						<rect x="-666.2" y="75.3" fill="#fb98b5" width="667.5" height="21.7"/>
					</g>
				</g>
			</g>
		</g>
		<g>
			<g>
				<defs>
					<rect id="SVGID_13_" y="552.1" width="665" height="552.1"/>
				</defs>
				<g>
					<g>
						<rect x="663.8" y="993.8" fill="#f3b4d1" width="667.5" height="12.9"/>
						<rect x="663.8" y="1037.1" fill="#ffffff" width="667.5" height="9.1"/>
						<rect x="663.8" y="1011" fill="#fb98b5" width="667.5" height="21.7"/>
					</g>
					<g>
						<rect x="663.8" y="1051.8" fill="#bbddf6" width="667.5" height="12.9"/>
						<rect x="663.8" y="1095.1" fill="#ffffff" width="667.5" height="9.1"/>
						<rect x="663.8" y="1069" fill="#fb98b5" width="667.5" height="21.7"/>
					</g>
				</g>
				<g>
					<rect y="993.8" fill="#ffffff" width="665" height="110.4"/>
					<g>
						<rect x="-1.2" y="993.8" fill="#f3b4d1" width="667.5" height="12.9"/>
						<rect x="-1.2" y="1037.1" fill="#ffffff" width="667.5" height="9.1"/>
						<rect x="-1.2" y="1011" fill="#fb98b5" width="667.5" height="21.7"/>
					</g>
					<g>
						<rect x="-1.2" y="1051.8" fill="#bbddf6" width="667.5" height="12.9"/>
						<rect x="-1.2" y="1095.1" fill="#ffffff" width="667.5" height="9.1"/>
						<rect x="-1.2" y="1069" fill="#fb98b5" width="667.5" height="21.7"/>
					</g>
				</g>
				<g>
					<g>
						<rect x="-666.2" y="993.8" fill="#f3b4d1" width="667.5" height="12.9"/>
						<rect x="-666.2" y="1037.1" fill="#ffffff" width="667.5" height="9.1"/>
						<rect x="-666.2" y="1011" fill="#fb98b5" width="667.5" height="21.7"/>
					</g>
					<g>
						<rect x="-666.2" y="1051.8" fill="#bbddf6" width="667.5" height="12.9"/>
						<rect x="-666.2" y="1095.1" fill="#ffffff" width="667.5" height="9.1"/>
						<rect x="-666.2" y="1069" fill="#fb98b5" width="667.5" height="21.7"/>
					</g>
				</g>
				<g>
					<g>
						<rect x="663.8" y="883.4" fill="#f3b4d1" width="667.5" height="12.9"/>
						<rect x="663.8" y="926.7" fill="#ffffff" width="667.5" height="9.1"/>
						<rect x="663.8" y="900.6" fill="#fb98b5" width="667.5" height="21.7"/>
					</g>
					<g>
						<rect x="663.8" y="941.4" fill="#bbddf6" width="667.5" height="12.9"/>
						<rect x="663.8" y="984.7" fill="#ffffff" width="667.5" height="9.1"/>
						<rect x="663.8" y="958.6" fill="#fb98b5" width="667.5" height="21.7"/>
					</g>
				</g>
				<g>
					<rect y="883.4" fill="#ffffff" width="665" height="110.4"/>
					<g>
						<rect x="-1.2" y="883.4" fill="#f3b4d1" width="667.5" height="12.9"/>
						<rect x="-1.2" y="926.7" fill="#ffffff" width="667.5" height="9.1"/>
						<rect x="-1.2" y="900.6" fill="#fb98b5" width="667.5" height="21.7"/>
					</g>
					<g>
						<rect x="-1.2" y="941.4" fill="#bbddf6" width="667.5" height="12.9"/>
						<rect x="-1.2" y="984.7" fill="#ffffff" width="667.5" height="9.1"/>
						<rect x="-1.2" y="958.6" fill="#fb98b5" width="667.5" height="21.7"/>
					</g>
				</g>
				<g>
					<g>
						<rect x="-666.2" y="883.4" fill="#f3b4d1" width="667.5" height="12.9"/>
						<rect x="-666.2" y="926.7" fill="#ffffff" width="667.5" height="9.1"/>
						<rect x="-666.2" y="900.6" fill="#fb98b5" width="667.5" height="21.7"/>
					</g>
					<g>
						<rect x="-666.2" y="941.4" fill="#bbddf6" width="667.5" height="12.9"/>
						<rect x="-666.2" y="984.7" fill="#ffffff" width="667.5" height="9.1"/>
						<rect x="-666.2" y="958.6" fill="#fb98b5" width="667.5" height="21.7"/>
					</g>
				</g>
				<g>
					<g>
						<rect x="663.8" y="772.9" fill="#f3b4d1" width="667.5" height="12.9"/>
						<rect x="663.8" y="816.3" fill="#ffffff" width="667.5" height="9.1"/>
						<rect x="663.8" y="790.2" fill="#fb98b5" width="667.5" height="21.7"/>
					</g>
					<g>
						<rect x="663.8" y="830.9" fill="#bbddf6" width="667.5" height="12.9"/>
						<rect x="663.8" y="874.3" fill="#ffffff" width="667.5" height="9.1"/>
						<rect x="663.8" y="848.2" fill="#fb98b5" width="667.5" height="21.7"/>
					</g>
				</g>
				<g>
					<rect y="772.9" fill="#ffffff" width="665" height="110.4"/>
					<g>
						<rect x="-1.2" y="772.9" fill="#f3b4d1" width="667.5" height="12.9"/>
						<rect x="-1.2" y="816.3" fill="#ffffff" width="667.5" height="9.1"/>
						<rect x="-1.2" y="790.2" fill="#fb98b5" width="667.5" height="21.7"/>
					</g>
					<g>
						<rect x="-1.2" y="830.9" fill="#bbddf6" width="667.5" height="12.9"/>
						<rect x="-1.2" y="874.3" fill="#ffffff" width="667.5" height="9.1"/>
						<rect x="-1.2" y="848.2" fill="#fb98b5" width="667.5" height="21.7"/>
					</g>
				</g>
				<g>
					<g>
						<rect x="-666.2" y="772.9" fill="#f3b4d1" width="667.5" height="12.9"/>
						<rect x="-666.2" y="816.3" fill="#ffffff" width="667.5" height="9.1"/>
						<rect x="-666.2" y="790.2" fill="#fb98b5" width="667.5" height="21.7"/>
					</g>
					<g>
						<rect x="-666.2" y="830.9" fill="#bbddf6" width="667.5" height="12.9"/>
						<rect x="-666.2" y="874.3" fill="#ffffff" width="667.5" height="9.1"/>
						<rect x="-666.2" y="848.2" fill="#fb98b5" width="667.5" height="21.7"/>
					</g>
				</g>
				<g>
					<g>
						<rect x="663.8" y="662.5" fill="#f3b4d1" width="667.5" height="12.9"/>
						<rect x="663.8" y="705.8" fill="#ffffff" width="667.5" height="9.1"/>
						<rect x="663.8" y="679.8" fill="#fb98b5" width="667.5" height="21.7"/>
					</g>
					<g>
						<rect x="663.8" y="720.5" fill="#bbddf6" width="667.5" height="12.9"/>
						<rect x="663.8" y="763.8" fill="#ffffff" width="667.5" height="9.1"/>
						<rect x="663.8" y="737.8" fill="#fb98b5" width="667.5" height="21.7"/>
					</g>
				</g>
				<g>
					<rect y="662.5" fill="#ffffff" width="665" height="110.4"/>
					<g>
						<rect x="-1.2" y="662.5" fill="#f3b4d1" width="667.5" height="12.9"/>
						<rect x="-1.2" y="705.8" fill="#ffffff" width="667.5" height="9.1"/>
						<rect x="-1.2" y="679.8" fill="#fb98b5" width="667.5" height="21.7"/>
					</g>
					<g>
						<rect x="-1.2" y="720.5" fill="#bbddf6" width="667.5" height="12.9"/>
						<rect x="-1.2" y="763.8" fill="#ffffff" width="667.5" height="9.1"/>
						<rect x="-1.2" y="737.8" fill="#fb98b5" width="667.5" height="21.7"/>
					</g>
				</g>
				<g>
					<g>
						<rect x="-666.2" y="662.5" fill="#f3b4d1" width="667.5" height="12.9"/>
						<rect x="-666.2" y="705.8" fill="#ffffff" width="667.5" height="9.1"/>
						<rect x="-666.2" y="679.8" fill="#fb98b5" width="667.5" height="21.7"/>
					</g>
					<g>
						<rect x="-666.2" y="720.5" fill="#bbddf6" width="667.5" height="12.9"/>
						<rect x="-666.2" y="763.8" fill="#ffffff" width="667.5" height="9.1"/>
						<rect x="-666.2" y="737.8" fill="#fb98b5" width="667.5" height="21.7"/>
					</g>
				</g>
				<g>
					<g>
						<rect x="663.8" y="552.1" fill="#f3b4d1" width="667.5" height="12.9"/>
						<rect x="663.8" y="595.4" fill="#ffffff" width="667.5" height="9.1"/>
						<rect x="663.8" y="569.3" fill="#fb98b5" width="667.5" height="21.7"/>
					</g>
					<g>
						<rect x="663.8" y="610.1" fill="#bbddf6" width="667.5" height="12.9"/>
						<rect x="663.8" y="653.4" fill="#ffffff" width="667.5" height="9.1"/>
						<rect x="663.8" y="627.3" fill="#fb98b5" width="667.5" height="21.7"/>
					</g>
				</g>
				<g>
					<rect y="552.1" fill="#ffffff" width="665" height="110.4"/>
					<g>
						<rect x="-1.2" y="552.1" fill="#f3b4d1" width="667.5" height="12.9"/>
						<rect x="-1.2" y="595.4" fill="#ffffff" width="667.5" height="9.1"/>
						<rect x="-1.2" y="569.3" fill="#fb98b5" width="667.5" height="21.7"/>
					</g>
					<g>
						<rect x="-1.2" y="610.1" fill="#bbddf6" width="667.5" height="12.9"/>
						<rect x="-1.2" y="653.4" fill="#ffffff" width="667.5" height="9.1"/>
						<rect x="-1.2" y="627.3" fill="#fb98b5" width="667.5" height="21.7"/>
					</g>
				</g>
				<g>
					<g>
						<rect x="-666.2" y="552.1" fill="#f3b4d1" width="667.5" height="12.9"/>
						<rect x="-666.2" y="595.4" fill="#ffffff" width="667.5" height="9.1"/>
						<rect x="-666.2" y="569.3" fill="#fb98b5" width="667.5" height="21.7"/>
					</g>
					<g>
						<rect x="-666.2" y="610.1" fill="#bbddf6" width="667.5" height="12.9"/>
						<rect x="-666.2" y="653.4" fill="#ffffff" width="667.5" height="9.1"/>
						<rect x="-666.2" y="627.3" fill="#fb98b5" width="667.5" height="21.7"/>
					</g>
				</g>
			</g>
		</g>
	</g>
</g>
</svg>
