<?xml version="1.0" encoding="utf-8"?>
<svg id="master-artboard" viewBox="0 0 450 450" version="1.0" xmlns="http://www.w3.org/2000/svg" x="0px" y="0px" width="450px" height="450px"
     enable-background="new 0 0 450 450">

    <rect width="450" height="450" fill="#D1D3D4"/>
    <path fill="none" stroke="#F1F2F2" stroke-width="2" stroke-miterlimit="10"
          d="M954.74,35.33c0,37.5,7.904,37.5,7.904,75.001&#10;&#9;&#9;&#9;&#9;s-0.911,37.5-0.911,75.001c0,37.499-7.583,37.499-7.583,74.998s7.583,37.499,7.583,74.998c0,37.501,0.911,37.501,0.911,75.001&#10;&#9;&#9;&#9;&#9;s-7.904,37.5-7.904,75.001"
          transform="matrix(1, 0, 0, 1, -934.3058471679688, -34.90579605102539)"/>
    <path fill="none" stroke="#F1F2F2" stroke-width="2" stroke-miterlimit="10"
          d="M1000.264,35.33c0,37.5-5.271,37.5-5.271,75.001&#10;&#9;&#9;&#9;&#9;s14.968,37.5,14.968,75.001c0,37.499-13.085,37.499-13.085,74.998s13.085,37.499,13.085,74.998&#10;&#9;&#9;&#9;&#9;c0,37.501-14.968,37.501-14.968,75.001s5.271,37.5,5.271,75.001"
          transform="matrix(1, 0, 0, 1, -934.3058471679688, -34.90579605102539)"/>
    <path fill="none" stroke="#F1F2F2" stroke-width="2" stroke-miterlimit="10"
          d="M1049.335,35.33&#10;&#9;&#9;&#9;&#9;c0,37.5-10.659,37.5-10.659,75.001s16.916,37.5,16.916,75.001c0,37.499-8.16,37.499-8.16,74.998s8.16,37.499,8.16,74.998&#10;&#9;&#9;&#9;&#9;c0,37.501-16.916,37.501-16.916,75.001s10.659,37.5,10.659,75.001"
          transform="matrix(1, 0, 0, 1, -934.3058471679688, -34.90579605102539)"/>
    <path fill="none" stroke="#F1F2F2" stroke-width="2" stroke-miterlimit="10"
          d="M1092.632,35.33c0,37.5-7.716,37.5-7.716,75.001&#10;&#9;&#9;&#9;&#9;s10.469,37.5,10.469,75.001c0,37.499-5.061,37.499-5.061,74.998s5.061,37.499,5.061,74.998c0,37.501-10.469,37.501-10.469,75.001&#10;&#9;&#9;&#9;&#9;s7.716,37.5,7.716,75.001"
          transform="matrix(1, 0, 0, 1, -934.3058471679688, -34.90579605102539)"/>
    <path fill="none" stroke="#F1F2F2" stroke-width="2" stroke-miterlimit="10"
          d="M1130.398,35.33c0,37.5,6.354,37.5,6.354,75.001&#10;&#9;&#9;&#9;&#9;s-5.585,37.5-5.585,75.001c0,37.499,4.21,37.499,4.21,74.998s-4.21,37.499-4.21,74.998c0,37.501,5.585,37.501,5.585,75.001&#10;&#9;&#9;&#9;&#9;s-6.354,37.5-6.354,75.001"
          transform="matrix(1, 0, 0, 1, -934.3058471679688, -34.90579605102539)"/>
    <path fill="none" stroke="#F1F2F2" stroke-width="2" stroke-miterlimit="10"
          d="M1190.437,35.33c0,37.5,0.594,37.5,0.594,75.001&#10;&#9;&#9;&#9;&#9;s-3.208,37.5-3.208,75.001c0,37.499-6.099,37.499-6.099,74.998s6.099,37.499,6.099,74.998c0,37.501,3.208,37.501,3.208,75.001&#10;&#9;&#9;&#9;&#9;s-0.594,37.5-0.594,75.001"
          transform="matrix(1, 0, 0, 1, -934.3058471679688, -34.90579605102539)"/>
    <path fill="none" stroke="#F1F2F2" stroke-width="2" stroke-miterlimit="10"
          d="M1220.115,35.33c0,37.5,0.299,37.5,0.299,75.001&#10;&#9;&#9;&#9;&#9;s2.887,37.5,2.887,75.001c0,37.499,12.511,37.499,12.511,74.998s-12.511,37.499-12.511,74.998&#10;&#9;&#9;&#9;&#9;c0,37.501-2.887,37.501-2.887,75.001s-0.299,37.5-0.299,75.001"
          transform="matrix(1, 0, 0, 1, -934.3058471679688, -34.90579605102539)"/>
    <path fill="none" stroke="#F1F2F2" stroke-width="2" stroke-miterlimit="10"
          d="M1266.361,35.33&#10;&#9;&#9;&#9;&#9;c0,37.5,15.017,37.5,15.017,75.001s-8.765,37.5-8.765,75.001c0,37.499,2.788,37.499,2.788,74.998s-2.788,37.499-2.788,74.998&#10;&#9;&#9;&#9;&#9;c0,37.501,8.765,37.501,8.765,75.001s-15.017,37.5-15.017,75.001"
          transform="matrix(1, 0, 0, 1, -934.3058471679688, -34.90579605102539)"/>
    <path fill="none" stroke="#F1F2F2" stroke-width="2" stroke-miterlimit="10"
          d="M1313.667,35.33c0,37.5,2.539,37.5,2.539,75.001&#10;&#9;&#9;&#9;&#9;s5.625,37.5,5.625,75.001c0,37.499-0.271,37.499-0.271,74.998s0.271,37.499,0.271,74.998c0,37.501-5.625,37.501-5.625,75.001&#10;&#9;&#9;&#9;&#9;s-2.539,37.5-2.539,75.001"
          transform="matrix(1, 0, 0, 1, -934.3058471679688, -34.90579605102539)"/>
    <path fill="none" stroke="#F1F2F2" stroke-width="2" stroke-miterlimit="10"
          d="M1356.088,35.33&#10;&#9;&#9;&#9;&#9;c0,37.5,12.912,37.5,12.912,75.001s-6.906,37.5-6.906,75.001c0,37.499,4.582,37.499,4.582,74.998s-4.582,37.499-4.582,74.998&#10;&#9;&#9;&#9;&#9;c0,37.501,6.906,37.501,6.906,75.001s-12.912,37.5-12.912,75.001"
          transform="matrix(1, 0, 0, 1, -934.3058471679688, -34.90579605102539)"/>
    <path fill="none" stroke="#F1F2F2" stroke-width="2" stroke-miterlimit="10"
          d="M935,467.166c37.5,0,37.5-7.904,75.001-7.904&#10;&#9;&#9;&#9;&#9;s37.5,0.911,75.001,0.911c37.499,0,37.499,7.583,74.998,7.583s37.499-7.583,74.998-7.583c37.501,0,37.501-0.911,75.001-0.911&#10;&#9;&#9;&#9;&#9;s37.5,7.904,75.001,7.904"
          transform="matrix(1, 0, 0, 1, -934.3058471679688, -34.90579605102539)"/>
    <path fill="none" stroke="#F1F2F2" stroke-width="2" stroke-miterlimit="10"
          d="M935,421.642c37.5,0,37.5,5.271,75.001,5.271&#10;&#9;&#9;&#9;&#9;s37.5-14.968,75.001-14.968c37.499,0,37.499,13.085,74.998,13.085s37.499-13.085,74.998-13.085&#10;&#9;&#9;&#9;&#9;c37.501,0,37.501,14.968,75.001,14.968s37.5-5.271,75.001-5.271"
          transform="matrix(1, 0, 0, 1, -934.3058471679688, -34.90579605102539)"/>
    <path fill="none" stroke="#F1F2F2" stroke-width="2" stroke-miterlimit="10"
          d="M935,372.571c37.5,0,37.5,10.659,75.001,10.659&#10;&#9;&#9;&#9;&#9;s37.5-16.916,75.001-16.916c37.499,0,37.499,8.16,74.998,8.16s37.499-8.16,74.998-8.16c37.501,0,37.501,16.916,75.001,16.916&#10;&#9;&#9;&#9;&#9;s37.5-10.659,75.001-10.659"
          transform="matrix(1, 0, 0, 1, -934.3058471679688, -34.90579605102539)"/>
    <path fill="none" stroke="#F1F2F2" stroke-width="2" stroke-miterlimit="10"
          d="M935,329.273c37.5,0,37.5,7.716,75.001,7.716&#10;&#9;&#9;&#9;&#9;s37.5-10.469,75.001-10.469c37.499,0,37.499,5.061,74.998,5.061s37.499-5.061,74.998-5.061c37.501,0,37.501,10.469,75.001,10.469&#10;&#9;&#9;&#9;&#9;s37.5-7.716,75.001-7.716"
          transform="matrix(1, 0, 0, 1, -934.3058471679688, -34.90579605102539)"/>
    <path fill="none" stroke="#F1F2F2" stroke-width="2" stroke-miterlimit="10"
          d="M935,291.508c37.5,0,37.5-6.354,75.001-6.354&#10;&#9;&#9;&#9;&#9;s37.5,5.585,75.001,5.585c37.499,0,37.499-4.21,74.998-4.21s37.499,4.21,74.998,4.21c37.501,0,37.501-5.585,75.001-5.585&#10;&#9;&#9;&#9;&#9;s37.5,6.354,75.001,6.354"
          transform="matrix(1, 0, 0, 1, -934.3058471679688, -34.90579605102539)"/>
    <path fill="none" stroke="#F1F2F2" stroke-width="2" stroke-miterlimit="10"
          d="M935,231.469c37.5,0,37.5-0.594,75.001-0.594&#10;&#9;&#9;&#9;&#9;s37.5,3.208,75.001,3.208c37.499,0,37.499,6.099,74.998,6.099s37.499-6.099,74.998-6.099c37.501,0,37.501-3.208,75.001-3.208&#10;&#9;&#9;&#9;&#9;s37.5,0.594,75.001,0.594"
          transform="matrix(1, 0, 0, 1, -934.3058471679688, -34.90579605102539)"/>
    <path fill="none" stroke="#F1F2F2" stroke-width="2" stroke-miterlimit="10"
          d="M935,201.791c37.5,0,37.5-0.299,75.001-0.299&#10;&#9;&#9;&#9;&#9;s37.5-2.887,75.001-2.887c37.499,0,37.499-12.511,74.998-12.511s37.499,12.511,74.998,12.511c37.501,0,37.501,2.887,75.001,2.887&#10;&#9;&#9;&#9;&#9;s37.5,0.299,75.001,0.299"
          transform="matrix(1, 0, 0, 1, -934.3058471679688, -34.90579605102539)"/>
    <path fill="none" stroke="#F1F2F2" stroke-width="2" stroke-miterlimit="10"
          d="M935,155.545c37.5,0,37.5-15.017,75.001-15.017&#10;&#9;&#9;&#9;&#9;s37.5,8.765,75.001,8.765c37.499,0,37.499-2.788,74.998-2.788s37.499,2.788,74.998,2.788c37.501,0,37.501-8.765,75.001-8.765&#10;&#9;&#9;&#9;&#9;s37.5,15.017,75.001,15.017"
          transform="matrix(1, 0, 0, 1, -934.3058471679688, -34.90579605102539)"/>
    <path fill="none" stroke="#F1F2F2" stroke-width="2" stroke-miterlimit="10"
          d="M935,108.238c37.5,0,37.5-2.539,75.001-2.539&#10;&#9;&#9;&#9;&#9;s37.5-5.625,75.001-5.625c37.499,0,37.499,0.271,74.998,0.271s37.499-0.271,74.998-0.271c37.501,0,37.501,5.625,75.001,5.625&#10;&#9;&#9;&#9;&#9;s37.5,2.539,75.001,2.539"
          transform="matrix(1, 0, 0, 1, -934.3058471679688, -34.90579605102539)"/>
    <path fill="none" stroke="#F1F2F2" stroke-width="2" stroke-miterlimit="10"
          d="M935,65.817c37.5,0,37.5-12.912,75.001-12.912&#10;&#9;&#9;&#9;&#9;s37.5,6.906,75.001,6.906c37.499,0,37.499-4.582,74.998-4.582s37.499,4.582,74.998,4.582c37.501,0,37.501-6.906,75.001-6.906&#10;&#9;&#9;&#9;&#9;s37.5,12.912,75.001,12.912"
          transform="matrix(1, 0, 0, 1, -934.3058471679688, -34.90579605102539)"/>
    <path fill="none" stroke="#939598" stroke-miterlimit="10"
          d="M936.924,485.33c0-37.499,4.275-37.499,4.275-74.998&#10;&#9;&#9;&#9;&#9;c0-37.5,11.411-37.5,11.411-75.001c0-37.5,0.793-37.5,0.793-75.001s-0.793-37.5-0.793-75.001&#10;&#9;&#9;&#9;&#9;c0-37.501-11.411-37.501-11.411-75.001c0-37.499-4.275-37.499-4.275-74.998"
          transform="matrix(1, 0, 0, 1, -934.3058471679688, -34.90579605102539)"/>
    <path fill="none" stroke="#939598" stroke-miterlimit="10"
          d="M963.219,485.33c0-37.499,8.897-37.499,8.897-74.998&#10;&#9;&#9;&#9;&#9;c0-37.5-1.84-37.5-1.84-75.001c0-37.5-6.603-37.5-6.603-75.001s6.603-37.5,6.603-75.001c0-37.501,1.84-37.501,1.84-75.001&#10;&#9;&#9;&#9;&#9;c0-37.499-8.897-37.499-8.897-74.998"
          transform="matrix(1, 0, 0, 1, -934.3058471679688, -34.90579605102539)"/>
    <path fill="none" stroke="#939598" stroke-miterlimit="10"
          d="M992.202,485.33c0-37.499-7.702-37.499-7.702-74.998&#10;&#9;&#9;&#9;&#9;c0-37.5,10.407-37.5,10.407-75.001c0-37.5-3.046-37.5-3.046-75.001s3.046-37.5,3.046-75.001&#10;&#9;&#9;&#9;&#9;c0-37.501-10.407-37.501-10.407-75.001c0-37.499,7.702-37.499,7.702-74.998"
          transform="matrix(1, 0, 0, 1, -934.3058471679688, -34.90579605102539)"/>
    <path fill="none" stroke="#939598" stroke-miterlimit="10"
          d="M1009.506,485.33c0-37.499-1.766-37.499-1.766-74.998&#10;&#9;&#9;&#9;&#9;c0-37.5,2.114-37.5,2.114-75.001c0-37.5-11.583-37.5-11.583-75.001s11.583-37.5,11.583-75.001&#10;&#9;&#9;&#9;&#9;c0-37.501-2.114-37.501-2.114-75.001c0-37.499,1.766-37.499,1.766-74.998"
          transform="matrix(1, 0, 0, 1, -934.3058471679688, -34.90579605102539)"/>
    <path fill="none" stroke="#939598" stroke-miterlimit="10"
          d="M1026.078,485.33c0-37.499-3.796-37.499-3.796-74.998&#10;&#9;&#9;&#9;&#9;c0-37.5,5.995-37.5,5.995-75.001c0-37.5-3.508-37.5-3.508-75.001s3.508-37.5,3.508-75.001c0-37.501-5.995-37.501-5.995-75.001&#10;&#9;&#9;&#9;&#9;c0-37.499,3.796-37.499,3.796-74.998"
          transform="matrix(1, 0, 0, 1, -934.3058471679688, -34.90579605102539)"/>
    <path fill="none" stroke="#939598" stroke-miterlimit="10"
          d="M1042.177,485.33c0-37.499,7.46-37.499,7.46-74.998&#10;&#9;&#9;&#9;&#9;c0-37.5-10.49-37.5-10.49-75.001c0-37.5,11.637-37.5,11.637-75.001s-11.637-37.5-11.637-75.001&#10;&#9;&#9;&#9;&#9;c0-37.501,10.49-37.501,10.49-75.001c0-37.499-7.46-37.499-7.46-74.998"
          transform="matrix(1, 0, 0, 1, -934.3058471679688, -34.90579605102539)"/>
    <path fill="none" stroke="#939598" stroke-miterlimit="10"
          d="M1065.376,485.33c0-37.499-2.995-37.499-2.995-74.998&#10;&#9;&#9;&#9;&#9;c0-37.5-1.125-37.5-1.125-75.001c0-37.5,4.051-37.5,4.051-75.001s-4.051-37.5-4.051-75.001c0-37.501,1.125-37.501,1.125-75.001&#10;&#9;&#9;&#9;&#9;c0-37.499,2.995-37.499,2.995-74.998"
          transform="matrix(1, 0, 0, 1, -934.3058471679688, -34.90579605102539)"/>
    <path fill="none" stroke="#939598" stroke-miterlimit="10"
          d="M1092.559,485.33c0-37.499-0.409-37.499-0.409-74.998&#10;&#9;&#9;&#9;&#9;c0-37.5-2.947-37.5-2.947-75.001c0-37.5-4.306-37.5-4.306-75.001s4.306-37.5,4.306-75.001c0-37.501,2.947-37.501,2.947-75.001&#10;&#9;&#9;&#9;&#9;c0-37.499,0.409-37.499,0.409-74.998"
          transform="matrix(1, 0, 0, 1, -934.3058471679688, -34.90579605102539)"/>
    <path fill="none" stroke="#939598" stroke-miterlimit="10"
          d="M1109.921,485.33c0-37.499-6.28-37.499-6.28-74.998&#10;&#9;&#9;&#9;&#9;c0-37.5,7.755-37.5,7.755-75.001c0-37.5,6.271-37.5,6.271-75.001s-6.271-37.5-6.271-75.001c0-37.501-7.755-37.501-7.755-75.001&#10;&#9;&#9;&#9;&#9;c0-37.499,6.28-37.499,6.28-74.998"
          transform="matrix(1, 0, 0, 1, -934.3058471679688, -34.90579605102539)"/>
    <path fill="none" stroke="#939598" stroke-miterlimit="10"
          d="M1128.974,485.33c0-37.499-8.358-37.499-8.358-74.998&#10;&#9;&#9;&#9;&#9;c0-37.5,7.445-37.5,7.445-75.001c0-37.5-0.766-37.5-0.766-75.001s0.766-37.5,0.766-75.001c0-37.501-7.445-37.501-7.445-75.001&#10;&#9;&#9;&#9;&#9;c0-37.499,8.358-37.499,8.358-74.998"
          transform="matrix(1, 0, 0, 1, -934.3058471679688, -34.90579605102539)"/>
    <path fill="none" stroke="#939598" stroke-miterlimit="10"
          d="M1150.538,485.33c0-37.499,3.362-37.499,3.362-74.998&#10;&#9;&#9;&#9;&#9;c0-37.5-2.665-37.5-2.665-75.001c0-37.5-10.21-37.5-10.21-75.001s10.21-37.5,10.21-75.001c0-37.501,2.665-37.501,2.665-75.001&#10;&#9;&#9;&#9;&#9;c0-37.499-3.362-37.499-3.362-74.998"
          transform="matrix(1, 0, 0, 1, -934.3058471679688, -34.90579605102539)"/>
    <path fill="none" stroke="#939598" stroke-miterlimit="10"
          d="M1164.747,485.33c0-37.499,0.629-37.499,0.629-74.998&#10;&#9;&#9;&#9;&#9;c0-37.5,3.39-37.5,3.39-75.001c0-37.5,8.894-37.5,8.894-75.001s-8.894-37.5-8.894-75.001c0-37.501-3.39-37.501-3.39-75.001&#10;&#9;&#9;&#9;&#9;c0-37.499-0.629-37.499-0.629-74.998"
          transform="matrix(1, 0, 0, 1, -934.3058471679688, -34.90579605102539)"/>
    <path fill="none" stroke="#939598" stroke-miterlimit="10"
          d="M1187.048,485.33c0-37.499,6.948-37.499,6.948-74.998&#10;&#9;&#9;&#9;&#9;c0-37.5,4.32-37.5,4.32-75.001c0-37.5-4.75-37.5-4.75-75.001s4.75-37.5,4.75-75.001c0-37.501-4.32-37.501-4.32-75.001&#10;&#9;&#9;&#9;&#9;c0-37.499-6.948-37.499-6.948-74.998"
          transform="matrix(1, 0, 0, 1, -934.3058471679688, -34.90579605102539)"/>
    <path fill="none" stroke="#939598" stroke-miterlimit="10"
          d="M1204.202,485.33c0-37.499,7.569-37.499,7.569-74.998&#10;&#9;&#9;&#9;&#9;c0-37.5,3.59-37.5,3.59-75.001c0-37.5-6.685-37.5-6.685-75.001s6.685-37.5,6.685-75.001c0-37.501-3.59-37.501-3.59-75.001&#10;&#9;&#9;&#9;&#9;c0-37.499-7.569-37.499-7.569-74.998"
          transform="matrix(1, 0, 0, 1, -934.3058471679688, -34.90579605102539)"/>
    <path fill="none" stroke="#939598" stroke-miterlimit="10"
          d="M1228.279,485.33c0-37.499,3.494-37.499,3.494-74.998&#10;&#9;&#9;&#9;&#9;c0-37.5-6.589-37.5-6.589-75.001c0-37.5,9.293-37.5,9.293-75.001s-9.293-37.5-9.293-75.001c0-37.501,6.589-37.501,6.589-75.001&#10;&#9;&#9;&#9;&#9;c0-37.499-3.494-37.499-3.494-74.998"
          transform="matrix(1, 0, 0, 1, -934.3058471679688, -34.90579605102539)"/>
    <path fill="none" stroke="#939598" stroke-miterlimit="10"
          d="M1260.663,485.33c0-37.499-6.525-37.499-6.525-74.998&#10;&#9;&#9;&#9;&#9;c0-37.5-9.252-37.5-9.252-75.001c0-37.5,11.14-37.5,11.14-75.001s-11.14-37.5-11.14-75.001c0-37.501,9.252-37.501,9.252-75.001&#10;&#9;&#9;&#9;&#9;c0-37.499,6.525-37.499,6.525-74.998"
          transform="matrix(1, 0, 0, 1, -934.3058471679688, -34.90579605102539)"/>
    <path fill="none" stroke="#939598" stroke-miterlimit="10"
          d="M1274.053,485.33c0-37.499-7.986-37.499-7.986-74.998&#10;&#9;&#9;&#9;&#9;c0-37.5,1.313-37.5,1.313-75.001c0-37.5,0.559-37.5,0.559-75.001s-0.559-37.5-0.559-75.001c0-37.501-1.313-37.501-1.313-75.001&#10;&#9;&#9;&#9;&#9;c0-37.499,7.986-37.499,7.986-74.998"
          transform="matrix(1, 0, 0, 1, -934.3058471679688, -34.90579605102539)"/>
    <path fill="none" stroke="#939598" stroke-miterlimit="10"
          d="M1284.455,485.33c0-37.499,11.364-37.499,11.364-74.998&#10;&#9;&#9;&#9;&#9;c0-37.5,1.569-37.5,1.569-75.001c0-37.5-4.994-37.5-4.994-75.001s4.994-37.5,4.994-75.001c0-37.501-1.569-37.501-1.569-75.001&#10;&#9;&#9;&#9;&#9;c0-37.499-11.364-37.499-11.364-74.998"
          transform="matrix(1, 0, 0, 1, -934.3058471679688, -34.90579605102539)"/>
    <path fill="none" stroke="#939598" stroke-miterlimit="10"
          d="M1315.194,485.33c0-37.499-10.475-37.499-10.475-74.998&#10;&#9;&#9;&#9;&#9;c0-37.5,10.729-37.5,10.729-75.001c0-37.5-8.312-37.5-8.312-75.001s8.312-37.5,8.312-75.001&#10;&#9;&#9;&#9;&#9;c0-37.501-10.729-37.501-10.729-75.001c0-37.499,10.475-37.499,10.475-74.998"
          transform="matrix(1, 0, 0, 1, -934.3058471679688, -34.90579605102539)"/>
    <path fill="none" stroke="#939598" stroke-miterlimit="10"
          d="M1324.902,485.33c0-37.499,6.251-37.499,6.251-74.998&#10;&#9;&#9;&#9;&#9;c0-37.5,0.754-37.5,0.754-75.001c0-37.5,3.557-37.5,3.557-75.001s-3.557-37.5-3.557-75.001c0-37.501-0.754-37.501-0.754-75.001&#10;&#9;&#9;&#9;&#9;c0-37.499-6.251-37.499-6.251-74.998"
          transform="matrix(1, 0, 0, 1, -934.3058471679688, -34.90579605102539)"/>
    <path fill="none" stroke="#939598" stroke-miterlimit="10"
          d="M1351.527,485.33c0-37.499-4.957-37.499-4.957-74.998&#10;&#9;&#9;&#9;&#9;c0-37.5,4.36-37.5,4.36-75.001c0-37.5,5.32-37.5,5.32-75.001s-5.32-37.5-5.32-75.001c0-37.501-4.36-37.501-4.36-75.001&#10;&#9;&#9;&#9;&#9;c0-37.499,4.957-37.499,4.957-74.998"
          transform="matrix(1, 0, 0, 1, -934.3058471679688, -34.90579605102539)"/>
    <path fill="none" stroke="#939598" stroke-miterlimit="10"
          d="M1368.329,485.33c0-37.499,13.153-37.499,13.153-74.998&#10;&#9;&#9;&#9;&#9;c0-37.5-10.993-37.5-10.993-75.001c0-37.5,5.432-37.5,5.432-75.001s-5.432-37.5-5.432-75.001&#10;&#9;&#9;&#9;&#9;c0-37.501,10.993-37.501,10.993-75.001c0-37.499-13.153-37.499-13.153-74.998"
          transform="matrix(1, 0, 0, 1, -934.3058471679688, -34.90579605102539)"/>
    <path fill="none" stroke="#939598" stroke-miterlimit="10"
          d="M1385,482.609c-37.499,0-37.499-4.275-74.998-4.275&#10;&#9;&#9;&#9;&#9;c-37.5,0-37.5-11.411-75.001-11.411c-37.5,0-37.5-0.793-75.001-0.793s-37.5,0.793-75.001,0.793&#10;&#9;&#9;&#9;&#9;c-37.501,0-37.501,11.411-75.001,11.411c-37.499,0-37.499,4.275-74.998,4.275"
          transform="matrix(1, 0, 0, 1, -934.3058471679688, -34.90579605102539)"/>
    <path fill="none" stroke="#939598" stroke-miterlimit="10"
          d="M1385,456.314c-37.499,0-37.499-8.897-74.998-8.897&#10;&#9;&#9;&#9;&#9;c-37.5,0-37.5,1.84-75.001,1.84c-37.5,0-37.5,6.603-75.001,6.603s-37.5-6.603-75.001-6.603c-37.501,0-37.501-1.84-75.001-1.84&#10;&#9;&#9;&#9;&#9;c-37.499,0-37.499,8.897-74.998,8.897"
          transform="matrix(1, 0, 0, 1, -934.3058471679688, -34.90579605102539)"/>
    <path fill="none" stroke="#939598" stroke-miterlimit="10"
          d="M1385,427.332c-37.499,0-37.499,7.702-74.998,7.702&#10;&#9;&#9;&#9;&#9;c-37.5,0-37.5-10.407-75.001-10.407c-37.5,0-37.5,3.046-75.001,3.046s-37.5-3.046-75.001-3.046&#10;&#9;&#9;&#9;&#9;c-37.501,0-37.501,10.407-75.001,10.407c-37.499,0-37.499-7.702-74.998-7.702"
          transform="matrix(1, 0, 0, 1, -934.3058471679688, -34.90579605102539)"/>
    <path fill="none" stroke="#939598" stroke-miterlimit="10"
          d="M1385,410.028c-37.499,0-37.499,1.766-74.998,1.766&#10;&#9;&#9;&#9;&#9;c-37.5,0-37.5-2.114-75.001-2.114c-37.5,0-37.5,11.583-75.001,11.583s-37.5-11.583-75.001-11.583&#10;&#9;&#9;&#9;&#9;c-37.501,0-37.501,2.114-75.001,2.114c-37.499,0-37.499-1.766-74.998-1.766"
          transform="matrix(1, 0, 0, 1, -934.3058471679688, -34.90579605102539)"/>
    <path fill="none" stroke="#939598" stroke-miterlimit="10"
          d="M1385,393.456c-37.499,0-37.499,3.796-74.998,3.796&#10;&#9;&#9;&#9;&#9;c-37.5,0-37.5-5.995-75.001-5.995c-37.5,0-37.5,3.508-75.001,3.508s-37.5-3.508-75.001-3.508&#10;&#9;&#9;&#9;&#9;c-37.501,0-37.501,5.995-75.001,5.995c-37.499,0-37.499-3.796-74.998-3.796"
          transform="matrix(1, 0, 0, 1, -934.3058471679688, -34.90579605102539)"/>
    <path fill="none" stroke="#939598" stroke-miterlimit="10"
          d="M1385,377.356c-37.499,0-37.499-7.46-74.998-7.46&#10;&#9;&#9;&#9;&#9;c-37.5,0-37.5,10.49-75.001,10.49c-37.5,0-37.5-11.637-75.001-11.637s-37.5,11.637-75.001,11.637&#10;&#9;&#9;&#9;&#9;c-37.501,0-37.501-10.49-75.001-10.49c-37.499,0-37.499,7.46-74.998,7.46"
          transform="matrix(1, 0, 0, 1, -934.3058471679688, -34.90579605102539)"/>
    <path fill="none" stroke="#939598" stroke-miterlimit="10"
          d="M1385,354.158c-37.499,0-37.499,2.995-74.998,2.995&#10;&#9;&#9;&#9;&#9;c-37.5,0-37.5,1.125-75.001,1.125c-37.5,0-37.5-4.051-75.001-4.051s-37.5,4.051-75.001,4.051&#10;&#9;&#9;&#9;&#9;c-37.501,0-37.501-1.125-75.001-1.125c-37.499,0-37.499-2.995-74.998-2.995"
          transform="matrix(1, 0, 0, 1, -934.3058471679688, -34.90579605102539)"/>
    <path fill="none" stroke="#939598" stroke-miterlimit="10"
          d="M1385,326.975c-37.499,0-37.499,0.409-74.998,0.409&#10;&#9;&#9;&#9;&#9;c-37.5,0-37.5,2.947-75.001,2.947c-37.5,0-37.5,4.306-75.001,4.306s-37.5-4.306-75.001-4.306&#10;&#9;&#9;&#9;&#9;c-37.501,0-37.501-2.947-75.001-2.947c-37.499,0-37.499-0.409-74.998-0.409"
          transform="matrix(1, 0, 0, 1, -934.3058471679688, -34.90579605102539)"/>
    <path fill="none" stroke="#939598" stroke-miterlimit="10"
          d="M1385,309.613c-37.499,0-37.499,6.28-74.998,6.28&#10;&#9;&#9;&#9;&#9;c-37.5,0-37.5-7.755-75.001-7.755c-37.5,0-37.5-6.271-75.001-6.271s-37.5,6.271-75.001,6.271&#10;&#9;&#9;&#9;&#9;c-37.501,0-37.501,7.755-75.001,7.755c-37.499,0-37.499-6.28-74.998-6.28"
          transform="matrix(1, 0, 0, 1, -934.3058471679688, -34.90579605102539)"/>
    <path fill="none" stroke="#939598" stroke-miterlimit="10"
          d="M1385,290.56c-37.499,0-37.499,8.358-74.998,8.358&#10;&#9;&#9;&#9;&#9;c-37.5,0-37.5-7.445-75.001-7.445c-37.5,0-37.5,0.766-75.001,0.766s-37.5-0.766-75.001-0.766&#10;&#9;&#9;&#9;&#9;c-37.501,0-37.501,7.445-75.001,7.445c-37.499,0-37.499-8.358-74.998-8.358"
          transform="matrix(1, 0, 0, 1, -934.3058471679688, -34.90579605102539)"/>
    <path fill="none" stroke="#939598" stroke-miterlimit="10"
          d="M1385,268.996c-37.499,0-37.499-3.362-74.998-3.362&#10;&#9;&#9;&#9;&#9;c-37.5,0-37.5,2.665-75.001,2.665c-37.5,0-37.5,10.21-75.001,10.21s-37.5-10.21-75.001-10.21&#10;&#9;&#9;&#9;&#9;c-37.501,0-37.501-2.665-75.001-2.665c-37.499,0-37.499,3.362-74.998,3.362"
          transform="matrix(1, 0, 0, 1, -934.3058471679688, -34.90579605102539)"/>
    <path fill="none" stroke="#939598" stroke-miterlimit="10"
          d="M1385,254.787c-37.499,0-37.499-0.629-74.998-0.629&#10;&#9;&#9;&#9;&#9;c-37.5,0-37.5-3.39-75.001-3.39c-37.5,0-37.5-8.894-75.001-8.894s-37.5,8.894-75.001,8.894c-37.501,0-37.501,3.39-75.001,3.39&#10;&#9;&#9;&#9;&#9;c-37.499,0-37.499,0.629-74.998,0.629"
          transform="matrix(1, 0, 0, 1, -934.3058471679688, -34.90579605102539)"/>
    <path fill="none" stroke="#939598" stroke-miterlimit="10"
          d="M1385,232.485c-37.499,0-37.499-6.948-74.998-6.948&#10;&#9;&#9;&#9;&#9;c-37.5,0-37.5-4.32-75.001-4.32c-37.5,0-37.5,4.75-75.001,4.75s-37.5-4.75-75.001-4.75c-37.501,0-37.501,4.32-75.001,4.32&#10;&#9;&#9;&#9;&#9;c-37.499,0-37.499,6.948-74.998,6.948"
          transform="matrix(1, 0, 0, 1, -934.3058471679688, -34.90579605102539)"/>
    <path fill="none" stroke="#939598" stroke-miterlimit="10"
          d="M1385,215.332c-37.499,0-37.499-7.569-74.998-7.569&#10;&#9;&#9;&#9;&#9;c-37.5,0-37.5-3.59-75.001-3.59c-37.5,0-37.5,6.685-75.001,6.685s-37.5-6.685-75.001-6.685c-37.501,0-37.501,3.59-75.001,3.59&#10;&#9;&#9;&#9;&#9;c-37.499,0-37.499,7.569-74.998,7.569"
          transform="matrix(1, 0, 0, 1, -934.3058471679688, -34.90579605102539)"/>
    <path fill="none" stroke="#939598" stroke-miterlimit="10"
          d="M1385,191.255c-37.499,0-37.499-3.494-74.998-3.494&#10;&#9;&#9;&#9;&#9;c-37.5,0-37.5,6.589-75.001,6.589c-37.5,0-37.5-9.293-75.001-9.293s-37.5,9.293-75.001,9.293&#10;&#9;&#9;&#9;&#9;c-37.501,0-37.501-6.589-75.001-6.589c-37.499,0-37.499,3.494-74.998,3.494"
          transform="matrix(1, 0, 0, 1, -934.3058471679688, -34.90579605102539)"/>
    <path fill="none" stroke="#939598" stroke-miterlimit="10"
          d="M1385,158.871c-37.499,0-37.499,6.525-74.998,6.525&#10;&#9;&#9;&#9;&#9;c-37.5,0-37.5,9.252-75.001,9.252c-37.5,0-37.5-11.14-75.001-11.14s-37.5,11.14-75.001,11.14&#10;&#9;&#9;&#9;&#9;c-37.501,0-37.501-9.252-75.001-9.252c-37.499,0-37.499-6.525-74.998-6.525"
          transform="matrix(1, 0, 0, 1, -934.3058471679688, -34.90579605102539)"/>
    <path fill="none" stroke="#939598" stroke-miterlimit="10"
          d="M1385,145.481c-37.499,0-37.499,7.986-74.998,7.986&#10;&#9;&#9;&#9;&#9;c-37.5,0-37.5-1.313-75.001-1.313c-37.5,0-37.5-0.559-75.001-0.559s-37.5,0.559-75.001,0.559&#10;&#9;&#9;&#9;&#9;c-37.501,0-37.501,1.313-75.001,1.313c-37.499,0-37.499-7.986-74.998-7.986"
          transform="matrix(1, 0, 0, 1, -934.3058471679688, -34.90579605102539)"/>
    <path fill="none" stroke="#939598" stroke-miterlimit="10"
          d="M1385,135.079c-37.499,0-37.499-11.364-74.998-11.364&#10;&#9;&#9;&#9;&#9;c-37.5,0-37.5-1.569-75.001-1.569c-37.5,0-37.5,4.994-75.001,4.994s-37.5-4.994-75.001-4.994&#10;&#9;&#9;&#9;&#9;c-37.501,0-37.501,1.569-75.001,1.569c-37.499,0-37.499,11.364-74.998,11.364"
          transform="matrix(1, 0, 0, 1, -934.3058471679688, -34.90579605102539)"/>
    <path fill="none" stroke="#939598" stroke-miterlimit="10"
          d="M1385,104.34c-37.499,0-37.499,10.475-74.998,10.475&#10;&#9;&#9;&#9;&#9;c-37.5,0-37.5-10.729-75.001-10.729c-37.5,0-37.5,8.312-75.001,8.312s-37.5-8.312-75.001-8.312&#10;&#9;&#9;&#9;&#9;c-37.501,0-37.501,10.729-75.001,10.729c-37.499,0-37.499-10.475-74.998-10.475"
          transform="matrix(1, 0, 0, 1, -934.3058471679688, -34.90579605102539)"/>
    <path fill="none" stroke="#939598" stroke-miterlimit="10"
          d="M1385,94.631c-37.499,0-37.499-6.251-74.998-6.251&#10;&#9;&#9;&#9;&#9;c-37.5,0-37.5-0.754-75.001-0.754c-37.5,0-37.5-3.557-75.001-3.557s-37.5,3.557-75.001,3.557&#10;&#9;&#9;&#9;&#9;c-37.501,0-37.501,0.754-75.001,0.754c-37.499,0-37.499,6.251-74.998,6.251"
          transform="matrix(1, 0, 0, 1, -934.3058471679688, -34.90579605102539)"/>
    <path fill="none" stroke="#939598" stroke-miterlimit="10"
          d="M1385,68.006c-37.499,0-37.499,4.957-74.998,4.957&#10;&#9;&#9;&#9;&#9;c-37.5,0-37.5-4.36-75.001-4.36c-37.5,0-37.5-5.32-75.001-5.32s-37.5,5.32-75.001,5.32c-37.501,0-37.501,4.36-75.001,4.36&#10;&#9;&#9;&#9;&#9;c-37.499,0-37.499-4.957-74.998-4.957"
          transform="matrix(1, 0, 0, 1, -934.3058471679688, -34.90579605102539)"/>
    <path fill="none" stroke="#939598" stroke-miterlimit="10"
          d="M1385,51.205c-37.499,0-37.499-13.153-74.998-13.153&#10;&#9;&#9;&#9;&#9;c-37.5,0-37.5,10.993-75.001,10.993c-37.5,0-37.5-5.432-75.001-5.432s-37.5,5.432-75.001,5.432&#10;&#9;&#9;&#9;&#9;c-37.501,0-37.501-10.993-75.001-10.993c-37.499,0-37.499,13.153-74.998,13.153"
          transform="matrix(1, 0, 0, 1, -934.3058471679688, -34.90579605102539)"/>
</svg>
