<?xml version="1.0" encoding="UTF-8" standalone="no"?>
<svg
   xmlns:svg="http://www.w3.org/2000/svg"
   xmlns="http://www.w3.org/2000/svg"
   viewBox="0 0 1866.6667 1306.6667"
   height="1306.6667"
   width="1866.6667"
   xml:space="preserve"
   id="svg2"
   version="1.1">
    <defs
     id="defs6" /><g
     transform="matrix(1.3333333,0,0,-1.3333333,0,1306.6667)"
     id="g10"><g
       transform="scale(0.1)"
       id="g12"><path
         id="path14"
         style="fill:#70c72d;fill-opacity:1;fill-rule:nonzero;stroke:none"
         d="M 454.984,-47.8984 H -22.3945 V 9829.8 H 454.984 V -47.8984" /><path
         id="path16"
         style="fill:#108550;fill-opacity:1;fill-rule:nonzero;stroke:none"
         d="M 1104.68,-47.8984 H 454.984 V 9829.8 H 1104.68 V -47.8984" /><path
         id="path18"
         style="fill:#27963c;fill-opacity:1;fill-rule:nonzero;stroke:none"
         d="M 3367.94,-47.8984 H 3118.63 V 9829.8 h 249.31 V -47.8984" /><path
         id="path20"
         style="fill:#40b93c;fill-opacity:1;fill-rule:nonzero;stroke:none"
         d="M 3520.96,-47.8984 H 3367.94 V 9829.8 h 153.02 V -47.8984" /><path
         id="path22"
         style="fill:#509f2f;fill-opacity:1;fill-rule:nonzero;stroke:none"
         d="M 3699.31,-47.8984 H 3520.96 V 9829.8 h 178.35 V -47.8984" /><path
         id="path24"
         style="fill:#70c72d;fill-opacity:1;fill-rule:nonzero;stroke:none"
         d="M 3897.95,-47.8984 H 3699.31 V 9829.8 h 198.64 V -47.8984" /><path
         id="path26"
         style="fill:#108550;fill-opacity:1;fill-rule:nonzero;stroke:none"
         d="M 4035.76,-47.8984 H 3897.95 V 9829.8 h 137.81 V -47.8984" /><path
         id="path28"
         style="fill:#108550;fill-opacity:1;fill-rule:nonzero;stroke:none"
         d="M 6914.58,-47.8984 H 6362.8 V 9829.8 h 551.78 V -47.8984" /><path
         id="path30"
         style="fill:#9bd221;fill-opacity:1;fill-rule:nonzero;stroke:none"
         d="M 4396.57,-47.8984 H 4035.76 V 9829.8 h 360.81 V -47.8984" /><path
         id="path32"
         style="fill:#9bd221;fill-opacity:1;fill-rule:nonzero;stroke:none"
         d="M 5118.19,-47.8984 H 4757.38 V 9829.8 h 360.81 V -47.8984" /><path
         id="path34"
         style="fill:#509f2f;fill-opacity:1;fill-rule:nonzero;stroke:none"
         d="M 5408.05,-47.8984 H 5118.19 V 9829.8 h 289.86 V -47.8984" /><path
         id="path36"
         style="fill:#70c72d;fill-opacity:1;fill-rule:nonzero;stroke:none"
         d="M 5920.9,-47.8984 H 5408.05 V 9829.8 H 5920.9 V -47.8984" /><path
         id="path38"
         style="fill:#bae158;fill-opacity:1;fill-rule:nonzero;stroke:none"
         d="M 6362.8,-47.8984 H 5920.9 V 9829.8 h 441.9 V -47.8984" /><path
         id="path40"
         style="fill:#70c72d;fill-opacity:1;fill-rule:nonzero;stroke:none"
         d="M 4757.38,-47.8984 H 4396.57 V 9829.8 h 360.81 V -47.8984" /><path
         id="path42"
         style="fill:#509f2f;fill-opacity:1;fill-rule:nonzero;stroke:none"
         d="M 1479.19,-47.8984 H 1104.68 V 9829.8 h 374.51 V -47.8984" /><path
         id="path44"
         style="fill:#9bd221;fill-opacity:1;fill-rule:nonzero;stroke:none"
         d="m 1800.49,-47.8984 h -321.3 V 9829.8 h 321.3 V -47.8984" /><path
         id="path46"
         style="fill:#70c72d;fill-opacity:1;fill-rule:nonzero;stroke:none"
         d="M 1977.35,-47.8984 H 1800.49 V 9829.8 h 176.86 V -47.8984" /><path
         id="path48"
         style="fill:#509f2f;fill-opacity:1;fill-rule:nonzero;stroke:none"
         d="M 2182.08,-47.8984 H 1977.35 V 9829.8 h 204.73 V -47.8984" /><path
         id="path50"
         style="fill:#bae158;fill-opacity:1;fill-rule:nonzero;stroke:none"
         d="M 2533.79,-47.8984 H 2182.08 V 9829.8 h 351.71 V -47.8984" /><path
         id="path52"
         style="fill:#9bd221;fill-opacity:1;fill-rule:nonzero;stroke:none"
         d="M 3118.63,-47.8984 H 2533.79 V 9829.8 h 584.84 V -47.8984" /><path
         id="path54"
         style="fill:#70c72d;fill-opacity:1;fill-rule:nonzero;stroke:none"
         d="m 9578.22,-47.8984 h 477.38 V 9829.8 H 9578.22 V -47.8984" /><path
         id="path56"
         style="fill:#108550;fill-opacity:1;fill-rule:nonzero;stroke:none"
         d="m 8928.53,-47.8984 h 649.69 V 9829.8 H 8928.53 V -47.8984" /><path
         id="path58"
         style="fill:#509f2f;fill-opacity:1;fill-rule:nonzero;stroke:none"
         d="m 8554.02,-47.8984 h 374.51 V 9829.8 H 8554.02 V -47.8984" /><path
         id="path60"
         style="fill:#9bd221;fill-opacity:1;fill-rule:nonzero;stroke:none"
         d="m 8232.71,-47.8984 h 321.31 V 9829.8 H 8232.71 V -47.8984" /><path
         id="path62"
         style="fill:#70c72d;fill-opacity:1;fill-rule:nonzero;stroke:none"
         d="m 8055.86,-47.8984 h 176.85 V 9829.8 H 8055.86 V -47.8984" /><path
         id="path64"
         style="fill:#509f2f;fill-opacity:1;fill-rule:nonzero;stroke:none"
         d="m 7851.13,-47.8984 h 204.73 V 9829.8 H 7851.13 V -47.8984" /><path
         id="path66"
         style="fill:#bae158;fill-opacity:1;fill-rule:nonzero;stroke:none"
         d="m 7499.42,-47.8984 h 351.71 V 9829.8 H 7499.42 V -47.8984" /><path
         id="path68"
         style="fill:#9bd221;fill-opacity:1;fill-rule:nonzero;stroke:none"
         d="m 6914.58,-47.8984 h 584.84 V 9829.8 H 6914.58 V -47.8984" /><path
         id="path70"
         style="fill:#27963c;fill-opacity:1;fill-rule:nonzero;stroke:none"
         d="M 9820.62,-47.8984 H 9571.31 V 9829.8 h 249.31 V -47.8984" /><path
         id="path72"
         style="fill:#40b93c;fill-opacity:1;fill-rule:nonzero;stroke:none"
         d="M 9973.64,-47.8984 H 9820.62 V 9829.8 h 153.02 V -47.8984" /><path
         id="path74"
         style="fill:#509f2f;fill-opacity:1;fill-rule:nonzero;stroke:none"
         d="M 10152,-47.8984 H 9973.64 V 9829.8 H 10152 V -47.8984" /><path
         id="path76"
         style="fill:#70c72d;fill-opacity:1;fill-rule:nonzero;stroke:none"
         d="M 10350.6,-47.8984 H 10152 V 9829.8 h 198.6 V -47.8984" /><path
         id="path78"
         style="fill:#108550;fill-opacity:1;fill-rule:nonzero;stroke:none"
         d="m 10488.4,-47.8984 h -137.8 V 9829.8 h 137.8 V -47.8984" /><path
         id="path80"
         style="fill:#108550;fill-opacity:1;fill-rule:nonzero;stroke:none"
         d="m 13367.3,-47.8984 h -551.8 V 9829.8 h 551.8 V -47.8984" /><path
         id="path82"
         style="fill:#9bd221;fill-opacity:1;fill-rule:nonzero;stroke:none"
         d="m 10849.3,-47.8984 h -360.9 V 9829.8 h 360.9 V -47.8984" /><path
         id="path84"
         style="fill:#9bd221;fill-opacity:1;fill-rule:nonzero;stroke:none"
         d="m 11570.9,-47.8984 h -360.8 V 9829.8 h 360.8 V -47.8984" /><path
         id="path86"
         style="fill:#509f2f;fill-opacity:1;fill-rule:nonzero;stroke:none"
         d="m 11860.7,-47.8984 h -289.8 V 9829.8 h 289.8 V -47.8984" /><path
         id="path88"
         style="fill:#70c72d;fill-opacity:1;fill-rule:nonzero;stroke:none"
         d="m 12373.6,-47.8984 h -512.9 V 9829.8 h 512.9 V -47.8984" /><path
         id="path90"
         style="fill:#bae158;fill-opacity:1;fill-rule:nonzero;stroke:none"
         d="m 12815.5,-47.8984 h -441.9 V 9829.8 h 441.9 V -47.8984" /><path
         id="path92"
         style="fill:#70c72d;fill-opacity:1;fill-rule:nonzero;stroke:none"
         d="m 11210.1,-47.8984 h -360.8 V 9829.8 h 360.8 V -47.8984" /><path
         id="path94"
         style="fill:#9bd221;fill-opacity:1;fill-rule:nonzero;stroke:none"
         d="m 13367.3,-47.8984 h 584.8 V 9829.8 h -584.8 V -47.8984" /></g></g></svg>