<?xml version="1.0" encoding="utf-8"?>
<svg id="master-artboard" viewBox="0 0 1400 980" version="1.1" xmlns="http://www.w3.org/2000/svg" x="0px" y="0px" style="enable-background:new 0 0 1400 980;" width="1400px" height="980px" xmlns:xlink="http://www.w3.org/1999/xlink"><switch>
	<g>
		<path d="M 0 0 H 1400 V 980 H 0 V 0 Z" class="st0" fill="#EAE6D3"/>
		<g>
			<defs>
				<path d="M 0 0 H 1400 V 980 H 0 V 0 Z" id="SVGID_1_"/>
			</defs>
			<g class="st1">
				<g>
					<path d="M 32.900001525878906 288.20001220703125 L 110.69999694824219 243.3000030517578 L 188.39999389648438 288.20001220703125 L 188.39999389648438 378.1000061035156 L 110.69999694824219 423 L 32.900001525878906 378.1000061035156 Z" class="st2" fill="#CEA87F"/>
				</g>
				<g>
					<path d="M 32.900001525878906 607.0999755859375 L 110.69999694824219 562.2000122070312 L 188.39999389648438 607.0999755859375 L 188.39999389648438 697 L 110.69999694824219 741.9000244140625 L 32.900001525878906 697 Z" class="st2" fill="#CEA87F"/>
				</g>
				<g>
					<path d="M 32.900001525878906 926 L 110.69999694824219 881.0999755859375 L 188.39999389648438 926 L 188.39999389648438 1015.7999877929688 L 110.69999694824219 1060.800048828125 L 32.900001525878906 1015.7999877929688 Z" class="st2" fill="#CEA87F"/>
				</g>
				<g>
					<path d="M 32.900001525878906 -30.600000381469727 L 110.5999984741211 -75.5999984741211 L 188.39999389648438 -30.600000381469727 L 188.39999389648438 59.20000076293945 L 110.5999984741211 104.0999984741211 L 32.900001525878906 59.20000076293945 Z" class="st3" fill="#805940"/>
				</g>
				<g>
					<path d="M 576.9000244140625 926 L 654.7000122070312 881.0999755859375 L 732.4000244140625 926 L 732.4000244140625 1015.7999877929688 L 654.7000122070312 1060.800048828125 L 576.9000244140625 1015.7999877929688 Z" class="st2" fill="#CEA87F"/>
				</g>
				<g>
					<path d="M 576.9000244140625 -30.600000381469727 L 654.7000122070312 -75.5999984741211 L 732.4000244140625 -30.600000381469727 L 732.4000244140625 59.20000076293945 L 654.7000122070312 104.0999984741211 L 576.9000244140625 59.20000076293945 Z" class="st3" fill="#805940"/>
				</g>
				<g>
					<path d="M 576.9000244140625 607.0999755859375 L 654.7000122070312 562.2000122070312 L 732.4000244140625 607.0999755859375 L 732.4000244140625 697 L 654.7000122070312 741.9000244140625 L 576.9000244140625 697 Z" class="st3" fill="#805940"/>
				</g>
				<g>
					<path d="M 576.9000244140625 288.20001220703125 L 654.7000122070312 243.3000030517578 L 732.4000244140625 288.20001220703125 L 732.4000244140625 378.1000061035156 L 654.7000122070312 423 L 576.9000244140625 378.1000061035156 Z" class="st4" fill="#00806C"/>
				</g>
				<g>
					<path d="M 1030.199951171875 126.19999694824219 L 1108 81.30000305175781 L 1185.800048828125 126.19999694824219 L 1185.800048828125 216 L 1108 260.8999938964844 L 1030.199951171875 216 Z" class="st2" fill="#CEA87F"/>
				</g>
				<g>
					<path d="M 1030.199951171875 1082.9000244140625 L 1108 1038 L 1185.800048828125 1082.9000244140625 L 1185.800048828125 1172.699951171875 L 1108 1217.5999755859375 L 1030.199951171875 1172.699951171875 Z" class="st2" fill="#CEA87F"/>
				</g>
				<g>
					<path d="M 1030.199951171875 764 L 1108 719.0999755859375 L 1185.800048828125 764 L 1185.800048828125 853.7999877929688 L 1108 898.7000122070312 L 1030.199951171875 853.7999877929688 Z" class="st3" fill="#805940"/>
				</g>
				<g>
					<g>
						<path d="M 1030.199951171875 -192.6999969482422 L 1108 -237.60000610351562 L 1185.800048828125 -192.6999969482422 L 1185.800048828125 -102.9000015258789 L 1108 -58 L 1030.199951171875 -102.9000015258789 Z" class="st4" fill="#00806C"/>
					</g>
				</g>
				<g>
					<g>
						<path d="M 1030.199951171875 445.1000061035156 L 1108 400.20001220703125 L 1185.800048828125 445.1000061035156 L 1185.800048828125 534.9000244140625 L 1108 579.7999877929688 L 1030.199951171875 534.9000244140625 Z" class="st4" fill="#00806C"/>
					</g>
				</g>
				<g>
					<path d="M 395.5 288.20001220703125 L 473.29998779296875 243.3000030517578 L 551.0999755859375 288.20001220703125 L 551.0999755859375 378.1000061035156 L 473.29998779296875 423 L 395.5 378.1000061035156 Z" class="st2" fill="#CEA87F"/>
				</g>
				<g>
					<path d="M 395.5 607.0999755859375 L 473.29998779296875 562.2000122070312 L 551.0999755859375 607.0999755859375 L 551.0999755859375 697 L 473.29998779296875 741.9000244140625 L 395.5 697 Z" class="st2" fill="#CEA87F"/>
				</g>
				<g>
					<g>
						<path d="M 395.5 -30.600000381469727 L 473.29998779296875 -75.5999984741211 L 551.0999755859375 -30.600000381469727 L 551.0999755859375 59.20000076293945 L 473.29998779296875 104.0999984741211 L 395.5 59.20000076293945 Z" class="st4" fill="#00806C"/>
					</g>
				</g>
				<g>
					<g>
						<path d="M 395.5 926 L 473.29998779296875 881.0999755859375 L 551.0999755859375 926 L 551.0999755859375 1015.7999877929688 L 473.29998779296875 1060.800048828125 L 395.5 1015.7999877929688 Z" class="st4" fill="#00806C"/>
					</g>
				</g>
				<g>
					<path d="M 1211.5999755859375 -192.6999969482422 L 1289.300048828125 -237.60000610351562 L 1367.0999755859375 -192.6999969482422 L 1367.0999755859375 -102.9000015258789 L 1289.300048828125 -58 L 1211.5999755859375 -102.9000015258789 Z" class="st2" fill="#CEA87F"/>
				</g>
				<g>
					<path d="M 1211.5999755859375 445.1000061035156 L 1289.300048828125 400.20001220703125 L 1367.0999755859375 445.1000061035156 L 1367.0999755859375 534.9000244140625 L 1289.300048828125 579.7999877929688 L 1211.5999755859375 534.9000244140625 Z" class="st2" fill="#CEA87F"/>
				</g>
				<g>
					<g>
						<path d="M 1211.5999755859375 126.19999694824219 L 1289.300048828125 81.30000305175781 L 1367.0999755859375 126.19999694824219 L 1367.0999755859375 216 L 1289.300048828125 260.8999938964844 L 1211.5999755859375 216 Z" class="st4" fill="#00806C"/>
					</g>
				</g>
				<g>
					<g>
						<path d="M 1211.5999755859375 764 L 1289.300048828125 719.0999755859375 L 1367.0999755859375 764 L 1367.0999755859375 853.7999877929688 L 1289.300048828125 898.7000122070312 L 1211.5999755859375 853.7999877929688 Z" class="st4" fill="#00806C"/>
					</g>
				</g>
				<g>
					<path d="M 1211.5999755859375 1082.9000244140625 L 1289.300048828125 1038 L 1367.0999755859375 1082.9000244140625 L 1367.0999755859375 1172.699951171875 L 1289.300048828125 1217.5999755859375 L 1211.5999755859375 1172.699951171875 Z" class="st4" fill="#00806C"/>
				</g>
				<g>
					<path d="M 214.1999969482422 288.20001220703125 L 292 243.3000030517578 L 369.79998779296875 288.20001220703125 L 369.79998779296875 378.1000061035156 L 292 423 L 214.1999969482422 378.1000061035156 Z" class="st3" fill="#805940"/>
				</g>
				<g>
					<path d="M 214.1999969482422 607.0999755859375 L 292 562.2000122070312 L 369.79998779296875 607.0999755859375 L 369.79998779296875 697 L 292 741.9000244140625 L 214.1999969482422 697 Z" class="st3" fill="#805940"/>
				</g>
				<g>
					<path d="M 214.1999969482422 926 L 292 881.0999755859375 L 369.79998779296875 926 L 369.79998779296875 1015.7999877929688 L 292 1060.800048828125 L 214.1999969482422 1015.7999877929688 Z" class="st3" fill="#805940"/>
				</g>
				<g>
					<g>
						<path d="M 214.1999969482422 -30.600000381469727 L 292 -75.5999984741211 L 369.79998779296875 -30.600000381469727 L 369.79998779296875 59.20000076293945 L 292 104.0999984741211 L 214.1999969482422 59.20000076293945 Z" class="st5" fill="#F06C49"/>
					</g>
				</g>
				<g>
					<path d="M 758.2000122070312 -30.600000381469727 L 836 -75.5999984741211 L 913.7999877929688 -30.600000381469727 L 913.7999877929688 59.20000076293945 L 836 104.0999984741211 L 758.2000122070312 59.20000076293945 Z" class="st2" fill="#CEA87F"/>
				</g>
				<g>
					<path d="M 758.2000122070312 926 L 836 881.0999755859375 L 913.7999877929688 926 L 913.7999877929688 1015.7999877929688 L 836 1060.800048828125 L 758.2000122070312 1015.7999877929688 Z" class="st3" fill="#805940"/>
				</g>
				<g>
					<g>
						<path d="M 758.2000122070312 607.0999755859375 L 836 562.2000122070312 L 913.7999877929688 607.0999755859375 L 913.7999877929688 697 L 836 741.9000244140625 L 758.2000122070312 697 Z" class="st4" fill="#00806C"/>
					</g>
				</g>
				<g>
					<path d="M 758.2000122070312 288.20001220703125 L 836 243.3000030517578 L 913.7999877929688 288.20001220703125 L 913.7999877929688 378.1000061035156 L 836 423 L 758.2000122070312 378.1000061035156 Z" class="st5" fill="#F06C49"/>
				</g>
				<g>
					<path d="M 1302.199951171875 926 L 1380 881.0999755859375 L 1457.800048828125 926 L 1457.800048828125 1015.7999877929688 L 1380 1060.800048828125 L 1302.199951171875 1015.7999877929688 Z" class="st2" fill="#CEA87F"/>
				</g>
				<g>
					<path d="M 1302.199951171875 -30.600000381469727 L 1380 -75.5999984741211 L 1457.800048828125 -30.600000381469727 L 1457.800048828125 59.20000076293945 L 1380 104.0999984741211 L 1302.199951171875 59.20000076293945 Z" class="st3" fill="#805940"/>
				</g>
				<g>
					<path d="M 1302.199951171875 288.20001220703125 L 1380 243.3000030517578 L 1457.800048828125 288.20001220703125 L 1457.800048828125 378.1000061035156 L 1380 423 L 1302.199951171875 378.1000061035156 Z" class="st3" fill="#805940"/>
				</g>
				<g>
					<path d="M 1302.199951171875 607.0999755859375 L 1380 562.2000122070312 L 1457.800048828125 607.0999755859375 L 1457.800048828125 697 L 1380 741.9000244140625 L 1302.199951171875 697 Z" class="st5" fill="#F06C49"/>
				</g>
				<g>
					<path d="M 939.5999755859375 -30.600000381469727 L 1017.2999877929688 -75.5999984741211 L 1095.0999755859375 -30.600000381469727 L 1095.0999755859375 59.20000076293945 L 1017.2999877929688 104.0999984741211 L 939.5999755859375 59.20000076293945 Z" class="st3" fill="#805940"/>
				</g>
				<g>
					<path d="M 939.5999755859375 288.20001220703125 L 1017.2999877929688 243.3000030517578 L 1095.0999755859375 288.20001220703125 L 1095.0999755859375 378.1000061035156 L 1017.2999877929688 423 L 939.5999755859375 378.1000061035156 Z" class="st3" fill="#805940"/>
				</g>
				<g>
					<g>
						<path d="M 939.5999755859375 926 L 1017.2999877929688 881.0999755859375 L 1095.0999755859375 926 L 1095.0999755859375 1015.7999877929688 L 1017.2999877929688 1060.800048828125 L 939.5999755859375 1015.7999877929688 Z" class="st4" fill="#00806C"/>
					</g>
				</g>
				<g>
					<g>
						<path d="M 939.5999755859375 607.0999755859375 L 1017.2999877929688 562.2000122070312 L 1095.0999755859375 607.0999755859375 L 1095.0999755859375 697 L 1017.2999877929688 741.9000244140625 L 939.5999755859375 697 Z" class="st5" fill="#F06C49"/>
					</g>
				</g>
				<g>
					<path d="M 1120.9000244140625 607.0999755859375 L 1198.699951171875 562.2000122070312 L 1276.5 607.0999755859375 L 1276.5 697 L 1198.699951171875 741.9000244140625 L 1120.9000244140625 697 Z" class="st3" fill="#805940"/>
				</g>
				<g>
					<g>
						<path d="M 1120.9000244140625 -30.600000381469727 L 1198.699951171875 -75.5999984741211 L 1276.5 -30.600000381469727 L 1276.5 59.20000076293945 L 1198.699951171875 104.0999984741211 L 1120.9000244140625 59.20000076293945 Z" class="st5" fill="#F06C49"/>
					</g>
				</g>
				<g>
					<g>
						<path d="M 1120.9000244140625 288.20001220703125 L 1198.699951171875 243.3000030517578 L 1276.5 288.20001220703125 L 1276.5 378.1000061035156 L 1198.699951171875 423 L 1120.9000244140625 378.1000061035156 Z" class="st5" fill="#F06C49"/>
					</g>
				</g>
				<g>
					<g>
						<path d="M 1120.9000244140625 926 L 1198.699951171875 881.0999755859375 L 1276.5 926 L 1276.5 1015.7999877929688 L 1198.699951171875 1060.800048828125 L 1120.9000244140625 1015.7999877929688 Z" class="st5" fill="#F06C49"/>
					</g>
				</g>
				<g>
					<path d="M 667.5 445.1000061035156 L 745.2999877929688 400.20001220703125 L 823.0999755859375 445.1000061035156 L 823.0999755859375 534.9000244140625 L 745.2999877929688 579.7999877929688 L 667.5 534.9000244140625 Z" class="st2" fill="#CEA87F"/>
				</g>
				<g>
					<path d="M 667.5 126.19999694824219 L 745.2999877929688 81.30000305175781 L 823.0999755859375 126.19999694824219 L 823.0999755859375 216 L 745.2999877929688 260.8999938964844 L 667.5 216 Z" class="st3" fill="#805940"/>
				</g>
				<g>
					<g>
						<path d="M 667.5 -192.6999969482422 L 745.2999877929688 -237.60000610351562 L 823.0999755859375 -192.6999969482422 L 823.0999755859375 -102.9000015258789 L 745.2999877929688 -58 L 667.5 -102.9000015258789 Z" class="st4" fill="#00806C"/>
					</g>
				</g>
				<g>
					<path d="M 667.5 1082.9000244140625 L 745.2999877929688 1038 L 823.0999755859375 1082.9000244140625 L 823.0999755859375 1172.699951171875 L 745.2999877929688 1217.5999755859375 L 667.5 1172.699951171875 Z" class="st4" fill="#00806C"/>
				</g>
				<g>
					<g>
						<path d="M 667.5 764 L 745.2999877929688 719.0999755859375 L 823.0999755859375 764 L 823.0999755859375 853.7999877929688 L 745.2999877929688 898.7000122070312 L 667.5 853.7999877929688 Z" class="st5" fill="#F06C49"/>
					</g>
				</g>
				<g>
					<path d="M 304.8999938964844 -192.6999969482422 L 382.70001220703125 -237.60000610351562 L 460.3999938964844 -192.6999969482422 L 460.3999938964844 -102.9000015258789 L 382.70001220703125 -58 L 304.8999938964844 -102.9000015258789 Z" class="st2" fill="#CEA87F"/>
				</g>
				<g>
					<path d="M 304.8999938964844 1082.9000244140625 L 382.70001220703125 1038 L 460.3999938964844 1082.9000244140625 L 460.3999938964844 1172.699951171875 L 382.70001220703125 1217.5999755859375 L 304.8999938964844 1172.699951171875 Z" class="st2" fill="#CEA87F"/>
				</g>
				<g>
					<path d="M 304.8999938964844 126.19999694824219 L 382.70001220703125 81.30000305175781 L 460.3999938964844 126.19999694824219 L 460.3999938964844 216 L 382.70001220703125 260.8999938964844 L 304.8999938964844 216 Z" class="st3" fill="#805940"/>
				</g>
				<g>
					<g>
						<path d="M 304.8999938964844 445.1000061035156 L 382.70001220703125 400.20001220703125 L 460.3999938964844 445.1000061035156 L 460.3999938964844 534.9000244140625 L 382.70001220703125 579.7999877929688 L 304.8999938964844 534.9000244140625 Z" class="st4" fill="#00806C"/>
					</g>
				</g>
				<g>
					<path d="M 304.8999938964844 764 L 382.70001220703125 719.0999755859375 L 460.3999938964844 764 L 460.3999938964844 853.7999877929688 L 382.70001220703125 898.7000122070312 L 304.8999938964844 853.7999877929688 Z" class="st5" fill="#F06C49"/>
				</g>
				<g>
					<path d="M -57.79999923706055 -192.6999969482422 L 20 -237.60000610351562 L 97.80000305175781 -192.6999969482422 L 97.80000305175781 -102.9000015258789 L 20 -58 L -57.79999923706055 -102.9000015258789 Z" class="st3" fill="#805940"/>
				</g>
				<g>
					<path d="M -57.79999923706055 1082.9000244140625 L 20 1038 L 97.80000305175781 1082.9000244140625 L 97.80000305175781 1172.699951171875 L 20 1217.5999755859375 L -57.79999923706055 1172.699951171875 Z" class="st3" fill="#805940"/>
				</g>
				<g>
					<g>
						<path d="M -57.79999923706055 126.19999694824219 L 20 81.30000305175781 L 97.80000305175781 126.19999694824219 L 97.80000305175781 216 L 20 260.8999938964844 L -57.79999923706055 216 Z" class="st4" fill="#00806C"/>
					</g>
				</g>
				<g>
					<g>
						<path d="M -57.79999923706055 445.1000061035156 L 20 400.20001220703125 L 97.80000305175781 445.1000061035156 L 97.80000305175781 534.9000244140625 L 20 579.7999877929688 L -57.79999923706055 534.9000244140625 Z" class="st4" fill="#00806C"/>
					</g>
				</g>
				<g>
					<g>
						<path d="M -57.79999923706055 764 L 20 719.0999755859375 L 97.80000305175781 764 L 97.80000305175781 853.7999877929688 L 20 898.7000122070312 L -57.79999923706055 853.7999877929688 Z" class="st5" fill="#F06C49"/>
					</g>
				</g>
				<g>
					<path d="M 848.9000244140625 764 L 926.7000122070312 719.0999755859375 L 1004.5 764 L 1004.5 853.7999877929688 L 926.7000122070312 898.7000122070312 L 848.9000244140625 853.7999877929688 Z" class="st2" fill="#CEA87F"/>
				</g>
				<g>
					<path d="M 848.9000244140625 445.1000061035156 L 926.7000122070312 400.20001220703125 L 1004.5 445.1000061035156 L 1004.5 534.9000244140625 L 926.7000122070312 579.7999877929688 L 848.9000244140625 534.9000244140625 Z" class="st3" fill="#805940"/>
				</g>
				<g>
					<path d="M 848.9000244140625 126.19999694824219 L 926.7000122070312 81.30000305175781 L 1004.5 126.19999694824219 L 1004.5 216 L 926.7000122070312 260.8999938964844 L 848.9000244140625 216 Z" class="st4" fill="#00806C"/>
				</g>
				<g>
					<g>
						<path d="M 848.9000244140625 -192.6999969482422 L 926.7000122070312 -237.60000610351562 L 1004.5 -192.6999969482422 L 1004.5 -102.9000015258789 L 926.7000122070312 -58 L 848.9000244140625 -102.9000015258789 Z" class="st5" fill="#F06C49"/>
					</g>
				</g>
				<g>
					<path d="M 848.9000244140625 1082.9000244140625 L 926.7000122070312 1038 L 1004.5 1082.9000244140625 L 1004.5 1172.699951171875 L 926.7000122070312 1217.5999755859375 L 848.9000244140625 1172.699951171875 Z" class="st5" fill="#F06C49"/>
				</g>
				<g>
					<path d="M 486.20001220703125 764 L 564 719.0999755859375 L 641.7999877929688 764 L 641.7999877929688 853.7999877929688 L 564 898.7000122070312 L 486.20001220703125 853.7999877929688 Z" class="st3" fill="#805940"/>
				</g>
				<g>
					<path d="M 486.20001220703125 -192.6999969482422 L 564 -237.60000610351562 L 641.7999877929688 -192.6999969482422 L 641.7999877929688 -102.9000015258789 L 564 -58 L 486.20001220703125 -102.9000015258789 Z" class="st5" fill="#F06C49"/>
				</g>
				<g>
					<g>
						<path d="M 486.20001220703125 126.19999694824219 L 564 81.30000305175781 L 641.7999877929688 126.19999694824219 L 641.7999877929688 216 L 564 260.8999938964844 L 486.20001220703125 216 Z" class="st5" fill="#F06C49"/>
					</g>
				</g>
				<g>
					<g>
						<path d="M 486.20001220703125 445.1000061035156 L 564 400.20001220703125 L 641.7999877929688 445.1000061035156 L 641.7999877929688 534.9000244140625 L 564 579.7999877929688 L 486.20001220703125 534.9000244140625 Z" class="st5" fill="#F06C49"/>
					</g>
				</g>
				<g>
					<path d="M 486.20001220703125 1082.9000244140625 L 564 1038 L 641.7999877929688 1082.9000244140625 L 641.7999877929688 1172.699951171875 L 564 1217.5999755859375 L 486.20001220703125 1172.699951171875 Z" class="st5" fill="#F06C49"/>
				</g>
				<g>
					<path d="M 123.5 126.19999694824219 L 201.3000030517578 81.30000305175781 L 279.1000061035156 126.19999694824219 L 279.1000061035156 216 L 201.3000030517578 260.8999938964844 L 123.5 216 Z" class="st2" fill="#CEA87F"/>
				</g>
				<g>
					<g>
						<path d="M 123.5 -192.6999969482422 L 201.3000030517578 -237.60000610351562 L 279.1000061035156 -192.6999969482422 L 279.1000061035156 -102.9000015258789 L 201.3000030517578 -58 L 123.5 -102.9000015258789 Z" class="st4" fill="#00806C"/>
					</g>
				</g>
				<g>
					<path d="M 123.5 764 L 201.3000030517578 719.0999755859375 L 279.1000061035156 764 L 279.1000061035156 853.7999877929688 L 201.3000030517578 898.7000122070312 L 123.5 853.7999877929688 Z" class="st4" fill="#00806C"/>
				</g>
				<g>
					<g>
						<path d="M 123.5 445.1000061035156 L 201.3000030517578 400.20001220703125 L 279.1000061035156 445.1000061035156 L 279.1000061035156 534.9000244140625 L 201.3000030517578 579.7999877929688 L 123.5 534.9000244140625 Z" class="st5" fill="#F06C49"/>
					</g>
				</g>
				<g>
					<g>
						<path d="M 123.5 1082.9000244140625 L 201.3000030517578 1038 L 279.1000061035156 1082.9000244140625 L 279.1000061035156 1172.699951171875 L 201.3000030517578 1217.5999755859375 L 123.5 1172.699951171875 Z" class="st5" fill="#F06C49"/>
					</g>
				</g>
			</g>
		</g>
	</g>
</switch></svg>
