<?xml version="1.0" encoding="utf-8"?>
<svg id="master-artboard" viewBox="0 0 328 328" version="1.1" xmlns="http://www.w3.org/2000/svg" x="0px" y="0px" width="328px" height="328px" enable-background="new 0 0 328 328">
    <path d="M 759.348022 92.907997 H 1087.493011 V 421.055 H 759.348022 V 92.907997 Z" fill-rule="evenodd" clip-rule="evenodd" fill="#99CCCC"
          transform="matrix(1, 0, 0, 1, -759.0999755859375, -93.4000015258789)"/>
    <path fill-rule="evenodd" clip-rule="evenodd" fill="#99CCCC"
          d="M785.214,121.73h-5.479&#10;&#9;&#9;&#9;c-1.876,9.544-10.288,16.748-20.387,16.748v18.233c10.098,0,18.51,7.208,20.387,16.753h5.479v-5.485&#10;&#9;&#9;&#9;c-9.545-1.871-16.75-10.287-16.75-20.378c0-10.097,7.205-18.513,16.749-20.385L785.214,121.73z"
          transform="matrix(1, 0, 0, 1, -759.0999755859375, -93.4000015258789)"/>
    <path fill-rule="evenodd" clip-rule="evenodd" fill="#99CCCC"
          d="M804.925,92.908c0,10.088-7.205,18.503-16.75,20.38v5.48h5.484&#10;&#9;&#9;&#9;c1.871-9.545,10.288-16.747,20.381-16.747c10.093-0.001,18.51,7.204,20.382,16.747h5.484v-5.48&#10;&#9;&#9;&#9;c-9.547-1.877-16.749-10.292-16.749-20.379L804.925,92.908z"
          transform="matrix(1, 0, 0, 1, -759.0999755859375, -93.4000015258789)"/>
    <path fill-rule="evenodd" clip-rule="evenodd" fill="#99CCCC"
          d="M785.214,231.113h-5.479&#10;&#9;&#9;&#9;c-1.876,9.549-10.288,16.753-20.387,16.753v18.233c10.098,0,18.51,7.203,20.387,16.747l5.479-0.001v-5.485&#10;&#9;&#9;&#9;c-9.545-1.867-16.75-10.282-16.75-20.384c0-10.092,7.205-18.503,16.749-20.384L785.214,231.113z"
          transform="matrix(1, 0, 0, 1, -759.0999755859375, -93.4000015258789)"/>
    <path fill-rule="evenodd" clip-rule="evenodd" fill="#99CCCC"
          d="M839.907,176.421h-5.484&#10;&#9;&#9;&#9;c-1.872,9.549-10.29,16.753-20.382,16.753c-10.093-0.001-18.51-7.203-20.382-16.747l-5.483-0.005v5.481&#10;&#9;&#9;&#9;c9.545,1.876,16.749,10.297,16.749,20.384c0,10.096-7.204,18.513-16.749,20.384v5.485h5.484&#10;&#9;&#9;&#9;c1.871-9.545,10.288-16.747,20.381-16.747c10.093-0.001,18.51,7.203,20.382,16.747h5.484v-5.485&#10;&#9;&#9;&#9;c-9.547-1.871-16.749-10.287-16.749-20.384c0-10.087,7.203-18.507,16.749-20.384V176.421z"
          transform="matrix(1, 0, 0, 1, -759.0999755859375, -93.4000015258789)"/>
    <path fill-rule="evenodd" clip-rule="evenodd" fill="#99CCCC"
          d="M894.6,121.73h-5.485c-1.877,9.544-10.292,16.748-20.379,16.748&#10;&#9;&#9;&#9;c-10.101-0.001-18.512-7.203-20.388-16.747l-5.481-0.001v5.48c9.547,1.877,16.753,10.292,16.753,20.389&#10;&#9;&#9;&#9;c0,10.091-7.206,18.507-16.753,20.379v5.485h5.481c1.877-9.544,10.287-16.752,20.388-16.752&#10;&#9;&#9;&#9;c10.087-0.001,18.503,7.208,20.379,16.752h5.485v-5.485c-9.548-1.871-16.754-10.287-16.754-20.378&#10;&#9;&#9;&#9;c0-10.097,7.206-18.513,16.754-20.385V121.73z"
          transform="matrix(1, 0, 0, 1, -759.0999755859375, -93.4000015258789)"/>
    <path fill-rule="evenodd" clip-rule="evenodd" fill="#99CCCC"
          d="M914.306,92.908c0,10.088-7.203,18.503-16.751,20.38v5.48h5.482&#10;&#9;&#9;&#9;c1.876-9.545,10.294-16.747,20.38-16.747c10.097-0.001,18.514,7.204,20.391,16.747h5.477v-5.48&#10;&#9;&#9;&#9;c-9.54-1.877-16.745-10.292-16.745-20.379L914.306,92.908z"
          transform="matrix(1, 0, 0, 1, -759.0999755859375, -93.4000015258789)"/>
    <path fill-rule="evenodd" clip-rule="evenodd" fill="#99CCCC"
          d="M785.214,340.5h-5.479c-1.876,9.548-10.288,16.752-20.387,16.752&#10;&#9;&#9;&#9;v18.224c10.098,0,18.51,7.203,20.387,16.757h5.479v-5.485c-9.545-1.877-16.75-10.283-16.75-20.384&#10;&#9;&#9;&#9;c0-10.096,7.205-18.507,16.749-20.384L785.214,340.5z"
          transform="matrix(1, 0, 0, 1, -759.0999755859375, -93.4000015258789)"/>
    <path fill-rule="evenodd" clip-rule="evenodd" fill="#99CCCC"
          d="M839.907,285.804h-5.484&#10;&#9;&#9;&#9;c-1.872,9.554-10.29,16.757-20.382,16.757c-10.093,0-18.51-7.203-20.382-16.757h-5.483v5.485&#10;&#9;&#9;&#9;c9.545,1.877,16.749,10.297,16.749,20.384c0,10.096-7.204,18.512-16.749,20.379v5.484h5.484&#10;&#9;&#9;&#9;c1.871-9.539,10.288-16.747,20.381-16.747c10.093,0,18.51,7.208,20.382,16.748l5.484-0.001v-5.484&#10;&#9;&#9;&#9;c-9.547-1.867-16.749-10.283-16.749-20.379c0-10.088,7.203-18.507,16.749-20.384V285.804z"
          transform="matrix(1, 0, 0, 1, -759.0999755859375, -93.4000015258789)"/>
    <path fill-rule="evenodd" clip-rule="evenodd" fill="#99CCCC"
          d="M894.6,231.113h-5.485c-1.877,9.549-10.292,16.753-20.379,16.753&#10;&#9;&#9;&#9;c-10.101,0-18.512-7.204-20.388-16.752l-5.481-0.001v5.48c9.547,1.881,16.753,10.292,16.753,20.384&#10;&#9;&#9;&#9;c0,10.101-7.206,18.516-16.753,20.384v5.485h5.481c1.877-9.545,10.287-16.747,20.388-16.747c10.087,0,18.503,7.203,20.379,16.747&#10;&#9;&#9;&#9;l5.485-0.001v-5.485c-9.548-1.867-16.754-10.282-16.754-20.384c0-10.092,7.206-18.503,16.754-20.384V231.113z"
          transform="matrix(1, 0, 0, 1, -759.0999755859375, -93.4000015258789)"/>
    <path fill-rule="evenodd" clip-rule="evenodd" fill="#99CCCC"
          d="M949.284,176.421h-5.476&#10;&#9;&#9;&#9;c-1.876,9.549-10.295,16.753-20.391,16.753c-10.086-0.001-18.504-7.203-20.38-16.747l-5.482-0.005v5.481&#10;&#9;&#9;&#9;c9.549,1.876,16.751,10.297,16.751,20.384c0,10.096-7.203,18.513-16.751,20.384v5.485h5.482&#10;&#9;&#9;&#9;c1.876-9.545,10.294-16.747,20.38-16.747c10.097-0.001,18.514,7.203,20.391,16.747h5.477v-5.485&#10;&#9;&#9;&#9;c-9.54-1.871-16.745-10.287-16.745-20.384c0-10.087,7.205-18.507,16.745-20.384L949.284,176.421z"
          transform="matrix(1, 0, 0, 1, -759.0999755859375, -93.4000015258789)"/>
    <path fill-rule="evenodd" clip-rule="evenodd" fill="#99CCCC"
          d="M1003.975,121.73h-5.476&#10;&#9;&#9;&#9;c-1.876,9.544-10.292,16.748-20.389,16.748c-10.087-0.001-18.503-7.203-20.383-16.747l-5.481-0.001v5.48&#10;&#9;&#9;&#9;c9.549,1.877,16.752,10.292,16.752,20.389c0,10.091-7.203,18.507-16.752,20.379v5.485h5.481&#10;&#9;&#9;&#9;c1.88-9.544,10.296-16.752,20.383-16.752c10.097-0.001,18.513,7.208,20.388,16.752h5.477v-5.485&#10;&#9;&#9;&#9;c-9.54-1.871-16.743-10.287-16.743-20.378c0-10.097,7.204-18.513,16.742-20.385L1003.975,121.73z"
          transform="matrix(1, 0, 0, 1, -759.0999755859375, -93.4000015258789)"/>
    <path fill-rule="evenodd" clip-rule="evenodd" fill="#99CCCC"
          d="M1023.69,92.908c0,10.088-7.203,18.503-16.752,20.38v5.48h5.485&#10;&#9;&#9;&#9;c1.876-9.545,10.291-16.747,20.378-16.747c10.097-0.001,18.513,7.204,20.379,16.747h5.486v-5.48&#10;&#9;&#9;&#9;c-9.54-1.877-16.743-10.292-16.743-20.379L1023.69,92.908z"
          transform="matrix(1, 0, 0, 1, -759.0999755859375, -93.4000015258789)"/>
    <path fill-rule="evenodd" clip-rule="evenodd" fill="#99CCCC"
          d="M839.907,395.191h-5.484&#10;&#9;&#9;&#9;c-1.872,9.544-10.29,16.748-20.382,16.748c-10.093-0.001-18.51-7.203-20.382-16.748h-5.483v5.485&#10;&#9;&#9;&#9;c9.545,1.867,16.749,10.283,16.749,20.38h18.233c0-10.097,7.203-18.512,16.749-20.379V395.191z"
          transform="matrix(1, 0, 0, 1, -759.0999755859375, -93.4000015258789)"/>
    <path fill-rule="evenodd" clip-rule="evenodd" fill="#99CCCC"
          d="M894.6,340.5h-5.485c-1.877,9.548-10.292,16.752-20.379,16.752&#10;&#9;&#9;&#9;c-10.101,0-18.512-7.203-20.388-16.752h-5.481v5.48c9.547,1.876,16.753,10.287,16.753,20.384c0,10.101-7.206,18.507-16.753,20.384&#10;&#9;&#9;&#9;v5.485h5.481c1.877-9.553,10.287-16.756,20.388-16.756c10.087-0.001,18.503,7.203,20.379,16.756h5.485v-5.485&#10;&#9;&#9;&#9;c-9.548-1.877-16.754-10.283-16.754-20.384c0-10.096,7.206-18.507,16.754-20.384V340.5z"
          transform="matrix(1, 0, 0, 1, -759.0999755859375, -93.4000015258789)"/>
    <path fill-rule="evenodd" clip-rule="evenodd" fill="#99CCCC"
          d="M949.284,285.804h-5.476&#10;&#9;&#9;&#9;c-1.876,9.554-10.295,16.757-20.391,16.757c-10.086,0-18.504-7.203-20.38-16.757h-5.482v5.485&#10;&#9;&#9;&#9;c9.549,1.877,16.751,10.297,16.751,20.384c0,10.096-7.203,18.512-16.751,20.379v5.484h5.482&#10;&#9;&#9;&#9;c1.876-9.539,10.294-16.747,20.38-16.747c10.097,0,18.514,7.208,20.391,16.748l5.477-0.001v-5.484&#10;&#9;&#9;&#9;c-9.54-1.867-16.745-10.283-16.745-20.379c0-10.088,7.205-18.507,16.745-20.384L949.284,285.804z"
          transform="matrix(1, 0, 0, 1, -759.0999755859375, -93.4000015258789)"/>
    <path fill-rule="evenodd" clip-rule="evenodd" fill="#99CCCC"
          d="M1003.975,231.113h-5.476&#10;&#9;&#9;&#9;c-1.876,9.549-10.292,16.753-20.389,16.753c-10.087,0-18.503-7.204-20.383-16.752l-5.481-0.001v5.48&#10;&#9;&#9;&#9;c9.549,1.881,16.752,10.292,16.752,20.384c0,10.101-7.203,18.516-16.752,20.384v5.485h5.481&#10;&#9;&#9;&#9;c1.88-9.545,10.296-16.747,20.383-16.747c10.097,0,18.513,7.203,20.388,16.747l5.477-0.001v-5.485&#10;&#9;&#9;&#9;c-9.54-1.867-16.743-10.282-16.743-20.384c0-10.092,7.204-18.503,16.742-20.384L1003.975,231.113z"
          transform="matrix(1, 0, 0, 1, -759.0999755859375, -93.4000015258789)"/>
    <path fill-rule="evenodd" clip-rule="evenodd" fill="#99CCCC"
          d="M1058.667,176.421h-5.485&#10;&#9;&#9;&#9;c-1.867,9.549-10.282,16.753-20.38,16.753c-10.087-0.001-18.503-7.203-20.379-16.747l-5.484-0.005v5.481&#10;&#9;&#9;&#9;c9.549,1.876,16.752,10.297,16.752,20.384c0,10.096-7.203,18.513-16.752,20.384v5.485h5.485&#10;&#9;&#9;&#9;c1.876-9.545,10.291-16.747,20.378-16.747c10.097-0.001,18.513,7.203,20.379,16.747h5.486v-5.485&#10;&#9;&#9;&#9;c-9.54-1.871-16.743-10.287-16.743-20.384c0-10.087,7.203-18.507,16.743-20.384L1058.667,176.421z"
          transform="matrix(1, 0, 0, 1, -759.0999755859375, -93.4000015258789)"/>
    <path fill-rule="evenodd" clip-rule="evenodd" fill="#99CCCC"
          d="M1087.493,138.478L1087.493,138.478&#10;&#9;&#9;&#9;c-10.097,0-18.503-7.203-20.379-16.747l-5.485-0.001v5.48c9.549,1.877,16.757,10.292,16.757,20.389&#10;&#9;&#9;&#9;c0,10.091-7.208,18.507-16.757,20.379v5.485h5.485c1.877-9.544,10.282-16.752,20.379-16.752v-0.001V138.478z"
          transform="matrix(1, 0, 0, 1, -759.0999755859375, -93.4000015258789)"/>
    <path fill-rule="evenodd" clip-rule="evenodd" fill="#99CCCC"
          d="M949.284,395.191h-5.476&#10;&#9;&#9;&#9;c-1.876,9.544-10.295,16.748-20.391,16.748c-10.086-0.001-18.504-7.203-20.38-16.748h-5.482v5.485&#10;&#9;&#9;&#9;c9.549,1.867,16.751,10.283,16.751,20.38h18.233c0-10.097,7.205-18.512,16.745-20.379L949.284,395.191z"
          transform="matrix(1, 0, 0, 1, -759.0999755859375, -93.4000015258789)"/>
    <path fill-rule="evenodd" clip-rule="evenodd" fill="#99CCCC"
          d="M1003.975,340.5h-5.476&#10;&#9;&#9;&#9;c-1.876,9.548-10.292,16.752-20.389,16.752c-10.087,0-18.503-7.203-20.383-16.752h-5.481v5.48&#10;&#9;&#9;&#9;c9.549,1.876,16.752,10.287,16.752,20.384c0,10.101-7.203,18.507-16.752,20.384v5.485h5.481&#10;&#9;&#9;&#9;c1.88-9.553,10.296-16.756,20.383-16.756c10.097-0.001,18.513,7.203,20.388,16.756h5.477v-5.485&#10;&#9;&#9;&#9;c-9.54-1.877-16.743-10.283-16.743-20.384c0-10.096,7.204-18.507,16.742-20.384L1003.975,340.5z"
          transform="matrix(1, 0, 0, 1, -759.0999755859375, -93.4000015258789)"/>
    <path fill-rule="evenodd" clip-rule="evenodd" fill="#99CCCC"
          d="M1058.667,285.804h-5.485&#10;&#9;&#9;&#9;c-1.867,9.554-10.282,16.757-20.38,16.757c-10.087,0-18.503-7.203-20.379-16.757h-5.484v5.485&#10;&#9;&#9;&#9;c9.549,1.877,16.752,10.297,16.752,20.384c0,10.096-7.203,18.512-16.752,20.379v5.484h5.485&#10;&#9;&#9;&#9;c1.876-9.539,10.291-16.747,20.378-16.747c10.097,0,18.513,7.208,20.379,16.748l5.486-0.001v-5.484&#10;&#9;&#9;&#9;c-9.54-1.867-16.743-10.283-16.743-20.379c0-10.088,7.203-18.507,16.743-20.384L1058.667,285.804z"
          transform="matrix(1, 0, 0, 1, -759.0999755859375, -93.4000015258789)"/>
    <path fill-rule="evenodd" clip-rule="evenodd" fill="#99CCCC"
          d="M1087.493,247.865L1087.493,247.865&#10;&#9;&#9;&#9;c-10.097,0-18.503-7.204-20.379-16.752l-5.485-0.001v5.48c9.549,1.881,16.757,10.292,16.757,20.384&#10;&#9;&#9;&#9;c0,10.101-7.208,18.516-16.757,20.384v5.485h5.485c1.877-9.545,10.282-16.747,20.379-16.747V247.865z"
          transform="matrix(1, 0, 0, 1, -759.0999755859375, -93.4000015258789)"/>
    <path fill-rule="evenodd" clip-rule="evenodd" fill="#99CCCC"
          d="M1058.667,395.191h-5.485&#10;&#9;&#9;&#9;c-1.867,9.544-10.282,16.748-20.38,16.748c-10.087-0.001-18.503-7.203-20.379-16.748h-5.484v5.485&#10;&#9;&#9;&#9;c9.549,1.867,16.752,10.283,16.752,20.38h18.234c0-10.097,7.203-18.512,16.743-20.379L1058.667,395.191z"
          transform="matrix(1, 0, 0, 1, -759.0999755859375, -93.4000015258789)"/>
    <path fill-rule="evenodd" clip-rule="evenodd" fill="#99CCCC"
          d="M1087.493,357.252L1087.493,357.252&#10;&#9;&#9;&#9;c-10.097,0-18.503-7.203-20.379-16.752h-5.485v5.48c9.549,1.876,16.757,10.287,16.757,20.384c0,10.101-7.208,18.507-16.757,20.384&#10;&#9;&#9;&#9;v5.485h5.485c1.877-9.553,10.282-16.756,20.379-16.756v-0.001V357.252z"
          transform="matrix(1, 0, 0, 1, -759.0999755859375, -93.4000015258789)"/>
    <path fill-rule="evenodd" clip-rule="evenodd" fill="#FEFEFE"
          d="M759.348,134.6c7.517,0,15.029-4.538,16.809-13.594l0.576-2.944&#10;&#9;&#9;&#9;h7.797v-7.793l2.942-0.58c9.052-1.775,13.582-9.279,13.591-16.78l-4.256-0.001c0.004,6.79-4.477,13.571-13.455,13.52&#10;&#9;&#9;&#9;c-1.354-0.009-2.024-0.005-3.197,0v7.259h-7.262c0,1.5,0,1.997,0,3.2c0,8.963-6.77,13.451-13.544,13.451V134.6L759.348,134.6z&#10;&#9;&#9;&#9; M759.348,92.908h12.591c0,6.952-5.636,12.586-12.591,12.586V92.908z"
          transform="matrix(1, 0, 0, 1, -759.0999755859375, -93.4000015258789)"/>
    <path fill-rule="evenodd" clip-rule="evenodd" fill="#FEFEFE"
          d="M759.348,243.982c7.517,0,15.029-4.532,16.809-13.594&#10;&#9;&#9;&#9;l0.576-2.945h7.797v-7.793l2.942-0.576c9.052-1.779,13.582-9.284,13.591-16.789c-0.009-7.505-4.54-15.006-13.591-16.78&#10;&#9;&#9;&#9;l-2.942-0.58v-7.793h-7.797l-0.576-2.94c-1.78-9.061-9.292-13.594-16.809-13.594v4.259c6.774,0,13.544,4.486,13.544,13.45&#10;&#9;&#9;&#9;c0,1.203,0,1.7,0,3.2l7.262-0.001v7.26c1.173,0.005,1.843,0.009,3.197,0c8.978-0.056,13.46,6.73,13.455,13.519&#10;&#9;&#9;&#9;c0.004,6.795-4.477,13.58-13.455,13.529c-1.354-0.01-2.024-0.009-3.197,0v7.258h-7.262c0,1.5,0,1.988,0,3.2&#10;&#9;&#9;&#9;c0,8.963-6.77,13.45-13.544,13.45V243.982L759.348,243.982z M759.348,160.599L759.348,160.599L759.348,160.599z M759.348,214.881&#10;&#9;&#9;&#9;v-25.182c6.955,0,12.591,5.634,12.591,12.586C771.939,209.243,766.303,214.882,759.348,214.881L759.348,214.881z"
          transform="matrix(1, 0, 0, 1, -759.0999755859375, -93.4000015258789)"/>
    <path fill-rule="evenodd" clip-rule="evenodd" fill="#FEFEFE"
          d="M814.041,105.898c-7.513,0-15.025,4.538-16.805,13.599&#10;&#9;&#9;&#9;l-0.582,2.944h-7.796v7.793l-2.942,0.576c-9.052,1.774-13.582,9.284-13.588,16.79c0.005,7.5,4.536,15.01,13.587,16.784&#10;&#9;&#9;&#9;l2.942,0.576v7.793h7.796l0.582,2.945c1.78,9.061,9.292,13.589,16.804,13.589c7.512-0.001,15.025-4.528,16.803-13.589l0.583-2.945&#10;&#9;&#9;&#9;h7.796v-7.793l2.942-0.576c9.052-1.774,13.582-9.284,13.591-16.784c-0.009-7.506-4.54-15.016-13.592-16.79l-2.941-0.576v-7.793&#10;&#9;&#9;&#9;h-7.796l-0.583-2.95C829.065,110.435,821.553,105.898,814.041,105.898L814.041,105.898L814.041,105.898z M814.041,135.004&#10;&#9;&#9;&#9;c6.949,0,12.59,5.638,12.59,12.596c0,6.947-5.64,12.59-12.591,12.59c-6.95,0-12.59-5.643-12.59-12.59&#10;&#9;&#9;&#9;C801.45,140.642,807.09,135.004,814.041,135.004L814.041,135.004L814.041,135.004z M776.587,147.599&#10;&#9;&#9;&#9;c-0.009-6.795,4.472-13.58,13.451-13.529c1.358,0.009,2.028,0.005,3.201,0v-7.259h7.258c0-1.501,0-1.993,0-3.2&#10;&#9;&#9;&#9;c0-8.964,6.769-13.451,13.543-13.451c6.774,0,13.543,4.486,13.543,13.451c0,1.207,0,1.699,0,3.2h7.264v7.259&#10;&#9;&#9;&#9;c1.167,0.005,1.843,0.009,3.197,0c8.98-0.052,13.461,6.734,13.45,13.53c0.012,6.785-4.47,13.574-13.45,13.524&#10;&#9;&#9;&#9;c-1.354-0.014-2.03-0.005-3.197,0l0.001,7.254h-7.264c0,1.501,0,1.998,0,3.2c0,8.968-6.769,13.455-13.543,13.455&#10;&#9;&#9;&#9;c-6.775,0-13.543-4.486-13.543-13.455c0-1.202,0-1.699,0-3.2l-7.258-0.001v-7.254c-1.173-0.005-1.843-0.013-3.201,0.001&#10;&#9;&#9;&#9;C781.06,161.175,776.577,154.39,776.587,147.599L776.587,147.599z"
          transform="matrix(1, 0, 0, 1, -759.0999755859375, -93.4000015258789)"/>
    <path fill-rule="evenodd" clip-rule="evenodd" fill="#FEFEFE"
          d="M827.017,92.908c0.009,7.501,4.542,15.006,13.594,16.78&#10;&#9;&#9;&#9;l2.942,0.58v7.793h7.795l0.576,2.939c1.779,9.062,9.298,13.599,16.812,13.599c7.505,0,15.024-4.538,16.803-13.594l0.576-2.944&#10;&#9;&#9;&#9;h7.793v-7.793l2.949-0.58c9.052-1.775,13.58-9.279,13.59-16.78l-4.263-0.001c0.009,6.79-4.478,13.571-13.451,13.52&#10;&#9;&#9;&#9;c-1.358-0.009-2.023-0.005-3.195,0v7.259h-7.264c0,1.5,0,1.997,0,3.2c0,8.963-6.774,13.451-13.538,13.451&#10;&#9;&#9;&#9;c-6.776-0.001-13.552-4.486-13.552-13.451c0-1.203,0-1.699,0-3.2h-7.259v-7.259c-1.17-0.005-1.842-0.009-3.196,0&#10;&#9;&#9;&#9;c-8.98,0.051-13.462-6.729-13.455-13.519L827.017,92.908L827.017,92.908z M856.143,92.908h25.184&#10;&#9;&#9;&#9;c0,6.952-5.643,12.586-12.591,12.586C861.784,105.494,856.143,99.861,856.143,92.908L856.143,92.908z"
          transform="matrix(1, 0, 0, 1, -759.0999755859375, -93.4000015258789)"/>
    <path fill-rule="evenodd" clip-rule="evenodd" fill="#FEFEFE"
          d="M759.348,353.36c7.517,0,15.029-4.523,16.809-13.584l0.576-2.945&#10;&#9;&#9;&#9;h7.797v-7.798l2.942-0.576c9.052-1.783,13.582-9.279,13.591-16.784c-0.009-7.509-4.54-15.005-13.591-16.784l-2.942-0.576v-7.793&#10;&#9;&#9;&#9;h-7.797l-0.576-2.954c-1.78-9.052-9.292-13.584-16.809-13.584v4.258c6.774,0,13.544,4.478,13.544,13.455c0,1.202,0,1.7,0,3.195&#10;&#9;&#9;&#9;h7.262v7.263c1.173,0,1.843,0.009,3.197,0.001c8.978-0.061,13.46,6.725,13.455,13.519c0.004,6.79-4.477,13.575-13.455,13.529&#10;&#9;&#9;&#9;c-1.354-0.009-2.024-0.009-3.197,0v7.249h-7.262c0,1.496,0,1.998,0,3.201c0,8.973-6.77,13.459-13.544,13.459V353.36&#10;&#9;&#9;&#9;L759.348,353.36z M759.348,269.981L759.348,269.981L759.348,269.981z M759.348,324.263v-25.182&#10;&#9;&#9;&#9;c6.955,0,12.591,5.638,12.591,12.591C771.939,318.62,766.303,324.263,759.348,324.263L759.348,324.263z"
          transform="matrix(1, 0, 0, 1, -759.0999755859375, -93.4000015258789)"/>
    <path fill-rule="evenodd" clip-rule="evenodd" fill="#FEFEFE"
          d="M814.041,215.285c-7.513,0-15.025,4.533-16.805,13.595&#10;&#9;&#9;&#9;l-0.582,2.939h-7.796v7.797l-2.942,0.576c-9.052,1.778-13.582,9.275-13.588,16.785c0.005,7.51,4.536,15.005,13.587,16.784&#10;&#9;&#9;&#9;l2.942,0.581v7.798h7.796l0.582,2.945c1.78,9.061,9.292,13.585,16.804,13.585c7.512-0.001,15.025-4.523,16.803-13.585l0.583-2.945&#10;&#9;&#9;&#9;h7.796v-7.798l2.942-0.581c9.052-1.779,13.582-9.274,13.591-16.784c-0.009-7.51-4.54-15.006-13.592-16.785l-2.941-0.576v-7.797&#10;&#9;&#9;&#9;h-7.796l-0.583-2.94C829.065,219.818,821.553,215.285,814.041,215.285L814.041,215.285L814.041,215.285z M814.041,244.386&#10;&#9;&#9;&#9;c6.949,0,12.59,5.639,12.59,12.591c0,6.957-5.64,12.59-12.591,12.59c-6.95,0-12.59-5.633-12.59-12.59&#10;&#9;&#9;&#9;C801.45,250.024,807.09,244.386,814.041,244.386L814.041,244.386L814.041,244.386z M776.587,256.977&#10;&#9;&#9;&#9;c-0.009-6.795,4.472-13.58,13.451-13.519c1.358,0.009,2.028,0.005,3.201,0v-7.264h7.258c0-1.495,0-1.992,0-3.195&#10;&#9;&#9;&#9;c0-8.968,6.769-13.45,13.543-13.45c6.774,0,13.543,4.482,13.543,13.45c0,1.202,0,1.7,0,3.196l7.264-0.001v7.264&#10;&#9;&#9;&#9;c1.167,0.004,1.843,0.009,3.197,0c8.98-0.061,13.461,6.725,13.45,13.519c0.012,6.794-4.47,13.58-13.45,13.529&#10;&#9;&#9;&#9;c-1.354-0.01-2.03-0.01-3.197,0l0.001,7.253h-7.264c0,1.505,0,1.998,0,3.195c0,8.978-6.769,13.464-13.543,13.464&#10;&#9;&#9;&#9;c-6.775,0-13.543-4.486-13.543-13.464c0-1.199,0-1.69,0-3.195l-7.258-0.001v-7.254c-1.173-0.009-1.843-0.009-3.201,0.001&#10;&#9;&#9;&#9;C781.06,270.556,776.577,263.772,776.587,256.977L776.587,256.977z"
          transform="matrix(1, 0, 0, 1, -759.0999755859375, -93.4000015258789)"/>
    <path fill-rule="evenodd" clip-rule="evenodd" fill="#FEFEFE"
          d="M868.736,160.599c-7.514,0-15.034,4.533-16.813,13.594&#10;&#9;&#9;&#9;l-0.576,2.94h-7.795v7.793l-2.942,0.58c-9.052,1.774-13.585,9.275-13.594,16.78c0.009,7.505,4.542,15.01,13.594,16.789&#10;&#9;&#9;&#9;l2.942,0.576v7.793h7.795l0.576,2.945c1.779,9.06,9.298,13.594,16.812,13.594c7.505-0.001,15.024-4.533,16.803-13.594l0.576-2.945&#10;&#9;&#9;&#9;h7.793v-7.793l2.949-0.576c9.052-1.779,13.58-9.284,13.59-16.789c-0.009-7.505-4.538-15.006-13.59-16.78l-2.949-0.58v-7.793&#10;&#9;&#9;&#9;h-7.793l-0.575-2.94C883.761,165.131,876.241,160.599,868.736,160.599L868.736,160.599L868.736,160.599z M868.736,189.699&#10;&#9;&#9;&#9;c6.948,0,12.591,5.634,12.591,12.586c0,6.958-5.642,12.596-12.591,12.596c-6.953-0.001-12.593-5.638-12.593-12.596&#10;&#9;&#9;&#9;C856.143,195.333,861.784,189.7,868.736,189.699L868.736,189.699L868.736,189.699z M831.276,202.286&#10;&#9;&#9;&#9;c-0.008-6.79,4.474-13.575,13.454-13.519c1.354,0.009,2.026,0.005,3.196,0v-7.26h7.259c0-1.5,0-1.996,0-3.199&#10;&#9;&#9;&#9;c0-8.963,6.776-13.45,13.552-13.45c6.765,0,13.538,4.486,13.538,13.45c0,1.203,0,1.7,0,3.2l7.264-0.001v7.26&#10;&#9;&#9;&#9;c1.173,0.005,1.837,0.009,3.195,0c8.973-0.056,13.459,6.73,13.451,13.519c0.009,6.795-4.478,13.58-13.451,13.529&#10;&#9;&#9;&#9;c-1.358-0.01-2.023-0.009-3.195,0v7.258h-7.264c0,1.5,0,1.988,0,3.2c0,8.963-6.774,13.45-13.538,13.45&#10;&#9;&#9;&#9;c-6.776,0-13.552-4.486-13.552-13.45c0-1.213,0-1.7,0-3.2l-7.259-0.001v-7.259c-1.17-0.01-1.842-0.009-3.196,0&#10;&#9;&#9;&#9;C835.75,215.865,831.268,209.081,831.276,202.286L831.276,202.286z"
          transform="matrix(1, 0, 0, 1, -759.0999755859375, -93.4000015258789)"/>
    <path fill-rule="evenodd" clip-rule="evenodd" fill="#FEFEFE"
          d="M923.418,105.898c-7.505,0-15.024,4.538-16.802,13.599&#10;&#9;&#9;&#9;l-0.576,2.944h-7.793v7.793l-2.951,0.576c-9.043,1.774-13.578,9.284-13.588,16.79c0.01,7.5,4.545,15.01,13.587,16.784l2.952,0.576&#10;&#9;&#9;&#9;v7.793h7.793l0.576,2.945c1.779,9.061,9.297,13.589,16.802,13.589c7.52-0.001,15.036-4.528,16.815-13.589l0.577-2.945h7.793&#10;&#9;&#9;&#9;v-7.793l2.939-0.576c9.052-1.774,13.589-9.284,13.598-16.784c-0.009-7.506-4.547-15.016-13.598-16.79l-2.939-0.576v-7.793h-7.793&#10;&#9;&#9;&#9;l-0.577-2.95C938.453,110.435,930.937,105.898,923.418,105.898L923.418,105.898L923.418,105.898z M923.418,135.004&#10;&#9;&#9;&#9;c6.962,0,12.599,5.638,12.599,12.596c0.001,6.947-5.638,12.59-12.6,12.59c-6.947,0-12.58-5.643-12.58-12.59&#10;&#9;&#9;&#9;C910.837,140.642,916.47,135.004,923.418,135.004L923.418,135.004L923.418,135.004z M885.969,147.599&#10;&#9;&#9;&#9;c-0.009-6.795,4.477-13.58,13.452-13.529c1.356,0.009,2.023,0.005,3.195,0v-7.259h7.264c0-1.501,0-1.993,0-3.2&#10;&#9;&#9;&#9;c0-8.964,6.775-13.451,13.537-13.451c6.777,0,13.55,4.486,13.55,13.451c0.001,1.207,0,1.699,0,3.2h7.264v7.259&#10;&#9;&#9;&#9;c1.17,0.005,1.834,0.009,3.195,0c8.973-0.052,13.459,6.734,13.45,13.53c0.009,6.785-4.477,13.574-13.45,13.524&#10;&#9;&#9;&#9;c-1.361-0.014-2.025-0.005-3.195,0v7.254h-7.263c0,1.501-0.001,1.998-0.001,3.2c0.001,8.968-6.773,13.455-13.55,13.455&#10;&#9;&#9;&#9;c-6.762,0-13.537-4.486-13.537-13.455c0-1.202,0-1.699,0-3.2l-7.263-0.001v-7.254c-1.173-0.005-1.839-0.013-3.195,0.001&#10;&#9;&#9;&#9;C890.446,161.175,885.96,154.39,885.969,147.599L885.969,147.599z"
          transform="matrix(1, 0, 0, 1, -759.0999755859375, -93.4000015258789)"/>
    <path fill-rule="evenodd" clip-rule="evenodd" fill="#FEFEFE"
          d="M936.398,92.908c0.009,7.501,4.536,15.006,13.587,16.78&#10;&#9;&#9;&#9;l2.944,0.58v7.793h7.803l0.576,2.939c1.779,9.062,9.293,13.599,16.803,13.599c7.515,0,15.034-4.538,16.813-13.594l0.576-2.944&#10;&#9;&#9;&#9;h7.793v-7.793l2.94-0.58c9.052-1.775,13.589-9.279,13.598-16.78l-4.263-0.001c0.01,6.79-4.477,13.571-13.45,13.52&#10;&#9;&#9;&#9;c-1.356-0.009-2.025-0.005-3.195,0v7.259h-7.263c0,1.5-0.001,1.997-0.001,3.2c0.001,8.963-6.776,13.451-13.548,13.451&#10;&#9;&#9;&#9;c-6.766-0.001-13.538-4.486-13.538-13.451c0-1.203,0-1.699,0-3.2h-7.263v-7.259c-1.175-0.005-1.849-0.009-3.196,0&#10;&#9;&#9;&#9;c-8.978,0.051-13.464-6.729-13.455-13.519L936.398,92.908L936.398,92.908z M965.521,92.908h25.181&#10;&#9;&#9;&#9;c0,6.952-5.634,12.586-12.591,12.586C971.158,105.494,965.52,99.861,965.521,92.908L965.521,92.908z"
          transform="matrix(1, 0, 0, 1, -759.0999755859375, -93.4000015258789)"/>
    <path fill-rule="evenodd" clip-rule="evenodd" fill="#FEFEFE"
          d="M801.063,421.055c-0.009-7.506-4.54-15.001-13.591-16.78&#10;&#9;&#9;&#9;l-2.942-0.581v-7.797h-7.797l-0.576-2.945c-1.78-9.061-9.292-13.585-16.809-13.585v4.25c6.774,0,13.544,4.486,13.544,13.45&#10;&#9;&#9;&#9;c0,1.212,0,1.705,0,3.209h7.262v7.249c1.173,0.014,1.843,0.014,3.197,0.001c8.978-0.047,13.46,6.738,13.455,13.529H801.063&#10;&#9;&#9;&#9;L801.063,421.055z M771.939,421.055h-12.591v-12.586C766.303,408.469,771.939,414.107,771.939,421.055L771.939,421.055z"
          transform="matrix(1, 0, 0, 1, -759.0999755859375, -93.4000015258789)"/>
    <path fill-rule="evenodd" clip-rule="evenodd" fill="#FEFEFE"
          d="M814.041,324.673c-7.513,0-15.025,4.524-16.805,13.589&#10;&#9;&#9;&#9;l-0.582,2.94h-7.796v7.803l-2.942,0.576c-9.052,1.779-13.582,9.275-13.588,16.784c0.005,7.51,4.536,15.006,13.587,16.784&#10;&#9;&#9;&#9;l2.942,0.576v7.803h7.796l0.582,2.939c1.78,9.066,9.292,13.589,16.804,13.589c7.512,0,15.025-4.524,16.803-13.589l0.583-2.939&#10;&#9;&#9;&#9;h7.796v-7.803l2.942-0.576c9.052-1.779,13.582-9.275,13.591-16.784c-0.009-7.51-4.54-15.005-13.592-16.784l-2.941-0.576v-7.803&#10;&#9;&#9;&#9;h-7.796l-0.583-2.94C829.065,329.195,821.553,324.673,814.041,324.673L814.041,324.673L814.041,324.673z M814.041,353.773&#10;&#9;&#9;&#9;c6.949,0,12.59,5.638,12.59,12.591c0,6.953-5.64,12.591-12.591,12.591c-6.95,0-12.59-5.638-12.59-12.591&#10;&#9;&#9;&#9;C801.45,359.411,807.09,353.774,814.041,353.773L814.041,353.773L814.041,353.773z M776.587,366.364&#10;&#9;&#9;&#9;c-0.009-6.795,4.472-13.58,13.451-13.529c1.358,0.009,2.028,0.009,3.201,0v-7.255h7.258c0-1.504,0-1.992,0-3.195&#10;&#9;&#9;&#9;c0-8.973,6.769-13.45,13.543-13.45c6.774-0.001,13.543,4.477,13.543,13.45c0,1.202,0,1.691,0,3.195h7.264v7.255&#10;&#9;&#9;&#9;c1.167,0.009,1.843,0.009,3.197,0c8.98-0.051,13.461,6.734,13.45,13.529c0.012,6.794-4.47,13.58-13.45,13.52&#10;&#9;&#9;&#9;c-1.354,0-2.03,0-3.197,0l0.001,7.264h-7.264c0,1.505,0,1.993,0,3.195c0,8.973-6.769,13.45-13.543,13.45&#10;&#9;&#9;&#9;c-6.775,0-13.543-4.477-13.543-13.45c0-1.203,0-1.691,0-3.195l-7.258-0.001v-7.264c-1.173,0-1.843,0-3.201,0&#10;&#9;&#9;&#9;C781.06,379.944,776.577,373.158,776.587,366.364L776.587,366.364z"
          transform="matrix(1, 0, 0, 1, -759.0999755859375, -93.4000015258789)"/>
    <path fill-rule="evenodd" clip-rule="evenodd" fill="#FEFEFE"
          d="M868.736,269.981c-7.514,0-15.034,4.533-16.813,13.585&#10;&#9;&#9;&#9;l-0.576,2.954h-7.795v7.793l-2.942,0.576c-9.052,1.779-13.585,9.276-13.594,16.785c0.009,7.505,4.542,15.001,13.594,16.784&#10;&#9;&#9;&#9;l2.942,0.576v7.798h7.795l0.576,2.944c1.779,9.061,9.298,13.585,16.812,13.585c7.505,0,15.024-4.523,16.803-13.584l0.576-2.945&#10;&#9;&#9;&#9;h7.793v-7.798l2.949-0.576c9.052-1.783,13.58-9.279,13.59-16.784c-0.009-7.509-4.538-15.005-13.59-16.784l-2.949-0.576v-7.793&#10;&#9;&#9;&#9;h-7.793l-0.575-2.954C883.761,274.514,876.241,269.981,868.736,269.981L868.736,269.981L868.736,269.981z M868.736,299.082&#10;&#9;&#9;&#9;c6.948,0,12.591,5.638,12.591,12.591c0,6.948-5.642,12.59-12.591,12.59c-6.953,0-12.593-5.642-12.593-12.59&#10;&#9;&#9;&#9;C856.143,304.72,861.784,299.083,868.736,299.082L868.736,299.082L868.736,299.082z M831.276,311.673&#10;&#9;&#9;&#9;c-0.008-6.795,4.474-13.58,13.454-13.519c1.354,0.009,2.026,0,3.196,0v-7.264h7.259c0-1.496,0-1.993,0-3.195&#10;&#9;&#9;&#9;c0-8.978,6.776-13.454,13.552-13.454c6.765-0.001,13.538,4.477,13.538,13.454c0,1.202,0,1.7,0,3.195h7.264v7.263&#10;&#9;&#9;&#9;c1.173,0,1.837,0.009,3.195,0.001c8.973-0.061,13.459,6.725,13.451,13.519c0.009,6.79-4.478,13.575-13.451,13.529&#10;&#9;&#9;&#9;c-1.358-0.009-2.023-0.009-3.195,0v7.249h-7.264c0,1.496,0,1.998,0,3.201c0,8.973-6.774,13.459-13.538,13.459&#10;&#9;&#9;&#9;c-6.776,0-13.552-4.486-13.552-13.459c0-1.203,0-1.705,0-3.2l-7.259-0.001v-7.259c-1.17,0-1.842,0-3.196,0.009&#10;&#9;&#9;&#9;C835.75,325.248,831.268,318.463,831.276,311.673L831.276,311.673z"
          transform="matrix(1, 0, 0, 1, -759.0999755859375, -93.4000015258789)"/>
    <path fill-rule="evenodd" clip-rule="evenodd" fill="#FEFEFE"
          d="M923.418,215.285c-7.505,0-15.024,4.533-16.802,13.595&#10;&#9;&#9;&#9;l-0.576,2.939h-7.793v7.797l-2.951,0.576c-9.043,1.778-13.578,9.275-13.588,16.785c0.01,7.51,4.545,15.005,13.587,16.784&#10;&#9;&#9;&#9;l2.952,0.581v7.798h7.793l0.576,2.945c1.779,9.061,9.297,13.585,16.802,13.585c7.52-0.001,15.036-4.523,16.815-13.585l0.577-2.945&#10;&#9;&#9;&#9;h7.793v-7.798l2.939-0.581c9.052-1.779,13.589-9.274,13.598-16.784c-0.009-7.51-4.547-15.006-13.598-16.785l-2.939-0.576v-7.797&#10;&#9;&#9;&#9;h-7.793l-0.577-2.94C938.453,219.818,930.937,215.285,923.418,215.285L923.418,215.285L923.418,215.285z M923.418,244.386&#10;&#9;&#9;&#9;c6.962,0,12.599,5.639,12.599,12.591c0.001,6.957-5.638,12.59-12.6,12.59c-6.947,0-12.58-5.633-12.58-12.59&#10;&#9;&#9;&#9;C910.837,250.024,916.47,244.386,923.418,244.386L923.418,244.386L923.418,244.386z M885.969,256.977&#10;&#9;&#9;&#9;c-0.009-6.795,4.477-13.58,13.452-13.519c1.356,0.009,2.023,0.005,3.195,0v-7.264h7.264c0-1.495,0-1.992,0-3.195&#10;&#9;&#9;&#9;c0-8.968,6.775-13.45,13.537-13.45c6.777,0,13.55,4.482,13.55,13.45c0.001,1.202,0,1.7,0,3.196l7.264-0.001v7.264&#10;&#9;&#9;&#9;c1.17,0.004,1.834,0.009,3.195,0c8.973-0.061,13.459,6.725,13.45,13.519c0.009,6.794-4.477,13.58-13.45,13.529&#10;&#9;&#9;&#9;c-1.361-0.01-2.025-0.01-3.195,0v7.253h-7.263c0,1.505-0.001,1.998-0.001,3.195c0.001,8.978-6.773,13.464-13.55,13.464&#10;&#9;&#9;&#9;c-6.762,0-13.537-4.486-13.537-13.464c0-1.199,0-1.69,0-3.195l-7.263-0.001v-7.254c-1.173-0.009-1.839-0.009-3.195,0.001&#10;&#9;&#9;&#9;C890.446,270.556,885.96,263.772,885.969,256.977L885.969,256.977z"
          transform="matrix(1, 0, 0, 1, -759.0999755859375, -93.4000015258789)"/>
    <path fill-rule="evenodd" clip-rule="evenodd" fill="#FEFEFE"
          d="M978.111,160.599c-7.51,0-15.024,4.533-16.803,13.594&#10;&#9;&#9;&#9;l-0.576,2.94h-7.803v7.793l-2.944,0.58c-9.052,1.774-13.578,9.275-13.587,16.78c0.009,7.505,4.536,15.01,13.587,16.789&#10;&#9;&#9;&#9;l2.944,0.576v7.793h7.803l0.576,2.945c1.779,9.06,9.293,13.594,16.803,13.594c7.515-0.001,15.034-4.533,16.813-13.594l0.576-2.945&#10;&#9;&#9;&#9;h7.793v-7.793l2.94-0.576c9.052-1.779,13.589-9.284,13.598-16.789c-0.009-7.505-4.547-15.006-13.598-16.78l-2.94-0.58v-7.793&#10;&#9;&#9;&#9;h-7.793l-0.576-2.94C993.144,165.131,985.625,160.599,978.111,160.599L978.111,160.599L978.111,160.599z M978.111,189.699&#10;&#9;&#9;&#9;c6.957,0,12.59,5.634,12.59,12.586c0,6.958-5.634,12.596-12.591,12.596c-6.952-0.001-12.591-5.638-12.591-12.596&#10;&#9;&#9;&#9;C965.521,195.333,971.158,189.7,978.111,189.699L978.111,189.699L978.111,189.699z M940.659,202.286&#10;&#9;&#9;&#9;c-0.009-6.79,4.468-13.575,13.455-13.519c1.347,0.009,2.02,0.005,3.195,0l0.001-7.26h7.263c0-1.5,0-1.996,0-3.199&#10;&#9;&#9;&#9;c0-8.963,6.771-13.45,13.538-13.45c6.772,0,13.548,4.486,13.548,13.45c0.001,1.203,0,1.7,0,3.2l7.264-0.001v7.26&#10;&#9;&#9;&#9;c1.17,0.005,1.839,0.009,3.195,0c8.974-0.056,13.459,6.73,13.45,13.519c0.01,6.795-4.477,13.58-13.45,13.529&#10;&#9;&#9;&#9;c-1.356-0.01-2.025-0.009-3.195,0v7.258h-7.263c0,1.5-0.001,1.988-0.001,3.2c0.001,8.963-6.776,13.45-13.548,13.45&#10;&#9;&#9;&#9;c-6.766,0-13.538-4.486-13.538-13.45c0-1.213,0-1.7,0-3.2l-7.263-0.001v-7.259c-1.175-0.01-1.849-0.009-3.196,0&#10;&#9;&#9;&#9;C945.136,215.865,940.65,209.081,940.659,202.286L940.659,202.286z"
          transform="matrix(1, 0, 0, 1, -759.0999755859375, -93.4000015258789)"/>
    <path fill-rule="evenodd" clip-rule="evenodd" fill="#FEFEFE"
          d="M1032.802,105.898c-7.505,0-15.024,4.538-16.803,13.599&#10;&#9;&#9;&#9;l-0.575,2.944h-7.803v7.793l-2.939,0.576c-9.052,1.774-13.581,9.284-13.59,16.79c0.009,7.5,4.537,15.01,13.589,16.784l2.94,0.576&#10;&#9;&#9;&#9;v7.793h7.803l0.575,2.945c1.78,9.061,9.298,13.589,16.803,13.589c7.52-0.001,15.025-4.528,16.803-13.589l0.586-2.945h7.793v-7.793&#10;&#9;&#9;&#9;l2.939-0.576c9.052-1.774,13.589-9.284,13.598-16.784c-0.009-7.506-4.547-15.016-13.598-16.79l-2.939-0.576v-7.793h-7.793&#10;&#9;&#9;&#9;l-0.585-2.95C1047.827,110.435,1040.32,105.898,1032.802,105.898L1032.802,105.898L1032.802,105.898z M1032.802,135.004&#10;&#9;&#9;&#9;c6.962,0,12.59,5.638,12.59,12.596c0,6.947-5.638,12.59-12.591,12.59c-6.947,0-12.59-5.643-12.59-12.59&#10;&#9;&#9;&#9;C1020.211,140.642,1025.854,135.004,1032.802,135.004L1032.802,135.004L1032.802,135.004z M995.355,147.599&#10;&#9;&#9;&#9;c-0.009-6.795,4.477-13.58,13.45-13.529c1.347,0.009,2.025,0.005,3.195,0l0.001-7.259h7.263c0-1.501,0-1.993,0-3.2&#10;&#9;&#9;&#9;c0-8.964,6.762-13.451,13.537-13.451c6.777,0,13.548,4.486,13.548,13.451c0,1.207,0,1.699,0,3.2h7.264v7.259&#10;&#9;&#9;&#9;c1.166,0.005,1.839,0.009,3.195,0c8.978-0.052,13.463,6.734,13.454,13.53c0.009,6.785-4.478,13.574-13.454,13.524&#10;&#9;&#9;&#9;c-1.356-0.014-2.03-0.005-3.196,0l0.001,7.254h-7.264c0,1.501,0,1.998,0,3.2c0,8.968-6.771,13.455-13.548,13.455&#10;&#9;&#9;&#9;c-6.775,0-13.537-4.486-13.537-13.455c0-1.202,0-1.699,0-3.2l-7.263-0.001v-7.254c-1.17-0.005-1.849-0.013-3.196,0.001&#10;&#9;&#9;&#9;C999.832,161.175,995.346,154.39,995.355,147.599L995.355,147.599z"
          transform="matrix(1, 0, 0, 1, -759.0999755859375, -93.4000015258789)"/>
    <path fill-rule="evenodd" clip-rule="evenodd" fill="#FEFEFE"
          d="M1045.783,92.908c0.009,7.501,4.537,15.006,13.589,16.78&#10;&#9;&#9;&#9;l2.94,0.58v7.793h7.802l0.576,2.939c1.779,9.062,9.298,13.599,16.803,13.599l0,0v-4.264c-6.771,0-13.538-4.486-13.538-13.45&#10;&#9;&#9;&#9;c0-1.203,0-1.699,0-3.2h-7.263v-7.259c-1.17-0.005-1.849-0.009-3.196,0c-8.982,0.051-13.459-6.729-13.459-13.519L1045.783,92.908&#10;&#9;&#9;&#9;L1045.783,92.908z M1074.902,92.908h12.591v12.586C1080.545,105.494,1074.902,99.861,1074.902,92.908L1074.902,92.908&#10;&#9;&#9;&#9;L1074.902,92.908z M1050.037,92.908"
          transform="matrix(1, 0, 0, 1, -759.0999755859375, -93.4000015258789)"/>
    <path fill-rule="evenodd" clip-rule="evenodd" fill="#FEFEFE"
          d="M868.736,379.368c-7.514,0-15.034,4.523-16.813,13.585&#10;&#9;&#9;&#9;l-0.576,2.945h-7.795v7.797l-2.942,0.581c-9.052,1.779-13.585,9.275-13.594,16.78h4.259c-0.008-6.79,4.474-13.575,13.454-13.529&#10;&#9;&#9;&#9;c1.354,0.013,2.026,0.013,3.196,0v-7.25h7.259c0-1.504,0-1.997,0-3.209c0-8.963,6.776-13.45,13.552-13.45&#10;&#9;&#9;&#9;c6.765,0,13.538,4.486,13.538,13.45c0,1.212,0,1.705,0,3.209h7.264v7.249c1.173,0.014,1.837,0.014,3.195,0.001&#10;&#9;&#9;&#9;c8.973-0.047,13.459,6.738,13.451,13.529h4.263c-0.009-7.506-4.538-15.001-13.59-16.78l-2.949-0.581v-7.797h-7.793l-0.575-2.945&#10;&#9;&#9;&#9;C883.761,383.891,876.241,379.368,868.736,379.368L868.736,379.368L868.736,379.368z M881.328,421.055h-25.184&#10;&#9;&#9;&#9;c0-6.948,5.64-12.586,12.593-12.586l0,0C875.685,408.469,881.318,414.107,881.328,421.055L881.328,421.055z"
          transform="matrix(1, 0, 0, 1, -759.0999755859375, -93.4000015258789)"/>
    <path fill-rule="evenodd" clip-rule="evenodd" fill="#FEFEFE"
          d="M923.418,324.673c-7.505,0-15.024,4.524-16.802,13.589&#10;&#9;&#9;&#9;l-0.576,2.94h-7.793v7.803l-2.951,0.576c-9.043,1.779-13.578,9.275-13.588,16.784c0.01,7.51,4.545,15.006,13.587,16.784&#10;&#9;&#9;&#9;l2.952,0.576v7.803h7.793l0.576,2.939c1.779,9.066,9.297,13.589,16.802,13.589c7.52,0,15.036-4.524,16.815-13.589l0.577-2.939&#10;&#9;&#9;&#9;h7.793v-7.803l2.939-0.576c9.052-1.779,13.589-9.275,13.598-16.784c-0.009-7.51-4.547-15.005-13.598-16.784l-2.939-0.576v-7.803&#10;&#9;&#9;&#9;h-7.793l-0.577-2.94C938.453,329.195,930.937,324.673,923.418,324.673L923.418,324.673L923.418,324.673z M923.418,353.773&#10;&#9;&#9;&#9;c6.962,0,12.599,5.638,12.599,12.591c0.001,6.953-5.638,12.591-12.6,12.591c-6.947,0-12.58-5.638-12.58-12.591&#10;&#9;&#9;&#9;C910.837,359.411,916.47,353.774,923.418,353.773L923.418,353.773L923.418,353.773z M885.969,366.364&#10;&#9;&#9;&#9;c-0.009-6.795,4.477-13.58,13.452-13.529c1.356,0.009,2.023,0.009,3.195,0v-7.255h7.264c0-1.504,0-1.992,0-3.195&#10;&#9;&#9;&#9;c0-8.973,6.775-13.45,13.537-13.45c6.777-0.001,13.55,4.477,13.55,13.45c0.001,1.202,0,1.691,0,3.195h7.264v7.255&#10;&#9;&#9;&#9;c1.17,0.009,1.834,0.009,3.195,0c8.973-0.051,13.459,6.734,13.45,13.529c0.009,6.794-4.477,13.58-13.45,13.52&#10;&#9;&#9;&#9;c-1.361,0-2.025,0-3.195,0v7.264h-7.263c0,1.505-0.001,1.993-0.001,3.195c0.001,8.973-6.773,13.45-13.55,13.45&#10;&#9;&#9;&#9;c-6.762,0-13.537-4.477-13.537-13.45c0-1.203,0-1.691,0-3.195l-7.263-0.001v-7.264c-1.173,0-1.839,0-3.195,0&#10;&#9;&#9;&#9;C890.446,379.944,885.96,373.158,885.969,366.364L885.969,366.364z"
          transform="matrix(1, 0, 0, 1, -759.0999755859375, -93.4000015258789)"/>
    <path fill-rule="evenodd" clip-rule="evenodd" fill="#FEFEFE"
          d="M978.111,269.981c-7.51,0-15.024,4.533-16.803,13.585&#10;&#9;&#9;&#9;l-0.576,2.954h-7.803v7.793l-2.944,0.576c-9.052,1.779-13.578,9.276-13.587,16.785c0.009,7.505,4.536,15.001,13.587,16.784&#10;&#9;&#9;&#9;l2.944,0.576v7.798h7.803l0.576,2.944c1.779,9.061,9.293,13.585,16.803,13.585c7.515,0,15.034-4.523,16.813-13.584l0.576-2.945&#10;&#9;&#9;&#9;h7.793v-7.798l2.94-0.576c9.052-1.783,13.589-9.279,13.598-16.784c-0.009-7.509-4.547-15.005-13.598-16.784l-2.94-0.576v-7.793&#10;&#9;&#9;&#9;h-7.793l-0.576-2.954C993.144,274.514,985.625,269.981,978.111,269.981L978.111,269.981L978.111,269.981z M978.111,299.082&#10;&#9;&#9;&#9;c6.957,0,12.59,5.638,12.59,12.591c0,6.948-5.634,12.59-12.591,12.59c-6.952,0-12.591-5.642-12.591-12.59&#10;&#9;&#9;&#9;C965.521,304.72,971.158,299.083,978.111,299.082L978.111,299.082L978.111,299.082z M940.659,311.673&#10;&#9;&#9;&#9;c-0.009-6.795,4.468-13.58,13.455-13.519c1.347,0.009,2.02,0,3.195,0l0.001-7.264h7.263c0-1.496,0-1.993,0-3.195&#10;&#9;&#9;&#9;c0-8.978,6.771-13.454,13.538-13.454c6.772-0.001,13.548,4.477,13.548,13.454c0.001,1.202,0,1.7,0,3.195h7.264v7.263&#10;&#9;&#9;&#9;c1.17,0,1.839,0.009,3.195,0.001c8.974-0.061,13.459,6.725,13.45,13.519c0.01,6.79-4.477,13.575-13.45,13.529&#10;&#9;&#9;&#9;c-1.356-0.009-2.025-0.009-3.195,0v7.249h-7.263c0,1.496-0.001,1.998-0.001,3.201c0.001,8.973-6.776,13.459-13.548,13.459&#10;&#9;&#9;&#9;c-6.766,0-13.538-4.486-13.538-13.459c0-1.203,0-1.705,0-3.2l-7.263-0.001v-7.259c-1.175,0-1.849,0-3.196,0.009&#10;&#9;&#9;&#9;C945.136,325.248,940.65,318.463,940.659,311.673L940.659,311.673z"
          transform="matrix(1, 0, 0, 1, -759.0999755859375, -93.4000015258789)"/>
    <path fill-rule="evenodd" clip-rule="evenodd" fill="#FEFEFE"
          d="M1032.802,215.285c-7.505,0-15.024,4.533-16.803,13.595&#10;&#9;&#9;&#9;l-0.575,2.939h-7.803v7.797l-2.939,0.576c-9.052,1.778-13.581,9.275-13.59,16.785c0.009,7.51,4.537,15.005,13.589,16.784&#10;&#9;&#9;&#9;l2.94,0.581v7.798h7.803l0.575,2.945c1.78,9.061,9.298,13.585,16.803,13.585c7.52-0.001,15.025-4.523,16.803-13.585l0.586-2.945&#10;&#9;&#9;&#9;h7.793v-7.798l2.939-0.581c9.052-1.779,13.589-9.274,13.598-16.784c-0.009-7.51-4.547-15.006-13.598-16.785l-2.939-0.576v-7.797&#10;&#9;&#9;&#9;h-7.793l-0.585-2.94C1047.827,219.818,1040.32,215.285,1032.802,215.285L1032.802,215.285L1032.802,215.285z M1032.802,244.386&#10;&#9;&#9;&#9;c6.962,0,12.59,5.639,12.59,12.591c0,6.957-5.638,12.59-12.591,12.59c-6.947,0-12.59-5.633-12.59-12.59&#10;&#9;&#9;&#9;C1020.211,250.024,1025.854,244.386,1032.802,244.386L1032.802,244.386L1032.802,244.386z M995.355,256.977&#10;&#9;&#9;&#9;c-0.009-6.795,4.477-13.58,13.45-13.519c1.347,0.009,2.025,0.005,3.195,0l0.001-7.264h7.263c0-1.495,0-1.992,0-3.195&#10;&#9;&#9;&#9;c0-8.968,6.762-13.45,13.537-13.45c6.777,0,13.548,4.482,13.548,13.45c0,1.202,0,1.7,0,3.196l7.264-0.001v7.264&#10;&#9;&#9;&#9;c1.166,0.004,1.839,0.009,3.195,0c8.978-0.061,13.463,6.725,13.454,13.519c0.009,6.794-4.478,13.58-13.454,13.529&#10;&#9;&#9;&#9;c-1.356-0.01-2.03-0.01-3.196,0l0.001,7.253h-7.264c0,1.505,0,1.998,0,3.195c0,8.978-6.771,13.464-13.548,13.464&#10;&#9;&#9;&#9;c-6.775,0-13.537-4.486-13.537-13.464c0-1.199,0-1.69,0-3.195L1012,277.76v-7.254c-1.17-0.009-1.849-0.009-3.196,0.001&#10;&#9;&#9;&#9;C999.832,270.556,995.346,263.772,995.355,256.977L995.355,256.977z"
          transform="matrix(1, 0, 0, 1, -759.0999755859375, -93.4000015258789)"/>
    <path fill-rule="evenodd" clip-rule="evenodd" fill="#FEFEFE"
          d="M1087.493,160.599c-7.505,0-15.024,4.533-16.803,13.594&#10;&#9;&#9;&#9;l-0.576,2.94h-7.802v7.793l-2.939,0.58c-9.052,1.774-13.581,9.275-13.589,16.78c0.009,7.505,4.537,15.01,13.589,16.789l2.94,0.576&#10;&#9;&#9;&#9;v7.793h7.802l0.576,2.945c1.779,9.06,9.298,13.594,16.803,13.594v-0.001v-4.259c-6.771,0-13.538-4.486-13.538-13.45&#10;&#9;&#9;&#9;c0-1.213,0-1.7,0-3.2l-7.263-0.001v-7.259c-1.17-0.01-1.849-0.009-3.196,0c-8.982,0.05-13.459-6.734-13.459-13.529h0.001&#10;&#9;&#9;&#9;c0-6.79,4.476-13.575,13.459-13.519c1.347,0.009,2.025,0.005,3.195,0l0.001-7.26h7.263c0-1.5,0-1.996,0-3.199&#10;&#9;&#9;&#9;c0-8.963,6.767-13.45,13.538-13.45l0,0V160.599L1087.493,160.599z M1087.493,189.699v25.182c-6.947,0-12.591-5.638-12.591-12.595&#10;&#9;&#9;&#9;C1074.902,195.333,1080.545,189.7,1087.493,189.699L1087.493,189.699z"
          transform="matrix(1, 0, 0, 1, -759.0999755859375, -93.4000015258789)"/>
    <path fill-rule="evenodd" clip-rule="evenodd" fill="#FEFEFE"
          d="M978.111,379.368c-7.51,0-15.024,4.523-16.803,13.585&#10;&#9;&#9;&#9;l-0.576,2.945h-7.803v7.797l-2.944,0.581c-9.052,1.779-13.578,9.275-13.587,16.78h4.261c-0.009-6.79,4.477-13.575,13.455-13.529&#10;&#9;&#9;&#9;c1.347,0.013,2.02,0.013,3.195,0l0.001-7.25h7.263c0-1.504,0-1.997,0-3.209c0-8.963,6.771-13.45,13.538-13.45&#10;&#9;&#9;&#9;c6.772,0,13.548,4.486,13.548,13.45c0.001,1.212,0,1.705,0,3.209h7.264v7.249c1.17,0.014,1.839,0.014,3.195,0.001&#10;&#9;&#9;&#9;c8.974-0.047,13.459,6.738,13.45,13.529h4.264c-0.01-7.506-4.548-15.001-13.599-16.78l-2.94-0.581v-7.797h-7.793l-0.576-2.945&#10;&#9;&#9;&#9;C993.144,383.891,985.625,379.368,978.111,379.368L978.111,379.368L978.111,379.368z M990.701,421.055h-25.181&#10;&#9;&#9;&#9;c0-6.948,5.638-12.586,12.59-12.586h0.001C985.068,408.469,990.701,414.107,990.701,421.055L990.701,421.055z"
          transform="matrix(1, 0, 0, 1, -759.0999755859375, -93.4000015258789)"/>
    <path fill-rule="evenodd" clip-rule="evenodd" fill="#FEFEFE"
          d="M1032.802,324.673c-7.505,0-15.024,4.524-16.803,13.589&#10;&#9;&#9;&#9;l-0.575,2.94h-7.803v7.803l-2.939,0.576c-9.052,1.779-13.581,9.275-13.59,16.784c0.009,7.51,4.537,15.006,13.589,16.784&#10;&#9;&#9;&#9;l2.94,0.576v7.803h7.803l0.575,2.939c1.78,9.066,9.298,13.589,16.803,13.589c7.52,0,15.025-4.524,16.803-13.589l0.586-2.939h7.793&#10;&#9;&#9;&#9;v-7.803l2.939-0.576c9.052-1.779,13.589-9.275,13.598-16.784c-0.009-7.51-4.547-15.005-13.598-16.784l-2.939-0.576v-7.803h-7.793&#10;&#9;&#9;&#9;l-0.585-2.94C1047.827,329.195,1040.32,324.673,1032.802,324.673L1032.802,324.673L1032.802,324.673z M1032.802,353.773&#10;&#9;&#9;&#9;c6.962,0,12.59,5.638,12.59,12.591c0,6.953-5.638,12.591-12.591,12.591c-6.947,0-12.59-5.638-12.59-12.591&#10;&#9;&#9;&#9;C1020.211,359.411,1025.854,353.774,1032.802,353.773L1032.802,353.773L1032.802,353.773z M995.355,366.364&#10;&#9;&#9;&#9;c-0.009-6.795,4.477-13.58,13.45-13.529c1.347,0.009,2.025,0.009,3.195,0l0.001-7.255h7.263c0-1.504,0-1.992,0-3.195&#10;&#9;&#9;&#9;c0-8.973,6.762-13.45,13.537-13.45c6.777-0.001,13.548,4.477,13.548,13.45c0,1.202,0,1.691,0,3.195h7.264v7.255&#10;&#9;&#9;&#9;c1.166,0.009,1.839,0.009,3.195,0c8.978-0.051,13.463,6.734,13.454,13.529c0.009,6.794-4.478,13.58-13.454,13.52&#10;&#9;&#9;&#9;c-1.356,0-2.03,0-3.196,0l0.001,7.264h-7.264c0,1.505,0,1.993,0,3.195c0,8.973-6.771,13.45-13.548,13.45&#10;&#9;&#9;&#9;c-6.775,0-13.537-4.477-13.537-13.45c0-1.203,0-1.691,0-3.195l-7.263-0.001v-7.264c-1.17,0-1.849,0-3.196,0&#10;&#9;&#9;&#9;C999.832,379.944,995.346,373.158,995.355,366.364L995.355,366.364z"
          transform="matrix(1, 0, 0, 1, -759.0999755859375, -93.4000015258789)"/>
    <path fill-rule="evenodd" clip-rule="evenodd" fill="#FEFEFE"
          d="M1087.493,269.981c-7.505,0-15.024,4.533-16.803,13.585&#10;&#9;&#9;&#9;l-0.576,2.954h-7.802v7.793l-2.939,0.576c-9.052,1.779-13.581,9.276-13.589,16.785c0.009,7.505,4.537,15.001,13.589,16.784&#10;&#9;&#9;&#9;l2.94,0.576v7.798h7.802l0.576,2.944c1.779,9.061,9.298,13.585,16.803,13.585l0,0v-4.249c-6.771,0-13.538-4.486-13.538-13.459&#10;&#9;&#9;&#9;c0-1.203,0-1.705,0-3.2l-7.263-0.001v-7.259c-1.17,0-1.849,0-3.196,0.009c-8.982,0.047-13.459-6.739-13.459-13.529h0.001&#10;&#9;&#9;&#9;c0-6.795,4.476-13.58,13.459-13.519c1.347,0.009,2.025,0,3.195,0l0.001-7.264h7.263c0-1.496,0-1.993,0-3.195&#10;&#9;&#9;&#9;c0-8.978,6.767-13.454,13.538-13.454v-0.001V269.981L1087.493,269.981z M1087.493,299.082v25.182&#10;&#9;&#9;&#9;c-6.947,0-12.591-5.642-12.591-12.59C1074.902,304.72,1080.545,299.083,1087.493,299.082L1087.493,299.082z"
          transform="matrix(1, 0, 0, 1, -759.0999755859375, -93.4000015258789)"/>
    <path fill-rule="evenodd" clip-rule="evenodd" fill="#FEFEFE"
          d="M1087.493,379.368c-7.505,0-15.024,4.523-16.803,13.585&#10;&#9;&#9;&#9;l-0.576,2.945h-7.802v7.797l-2.939,0.581c-9.052,1.779-13.581,9.275-13.589,16.78h4.255c0-6.79,4.476-13.575,13.459-13.529&#10;&#9;&#9;&#9;c1.347,0.013,2.025,0.013,3.195,0l0.001-7.25h7.263c0-1.504,0-1.997,0-3.209c0-8.963,6.767-13.45,13.538-13.45l0,0V379.368&#10;&#9;&#9;&#9;L1087.493,379.368z M1087.493,408.469v12.586h-12.591C1074.902,414.107,1080.545,408.469,1087.493,408.469L1087.493,408.469z"
          transform="matrix(1, 0, 0, 1, -759.0999755859375, -93.4000015258789)"/>
</svg>
