<?xml version="1.0" encoding="UTF-8" standalone="no"?>
<svg
   xmlns:svg="http://www.w3.org/2000/svg"
   xmlns="http://www.w3.org/2000/svg"
   viewBox="0 0 384 384"
   height="384"
   width="384"
   xml:space="preserve"
   id="svg2"
   version="1.1">
    <defs
     id="defs6" /><g
     transform="matrix(1.3333333,0,0,-1.3333333,0,384)"
     id="g10"><g
       transform="scale(0.1)"
       id="g12"><path
         id="path14"
         style="fill:#ffffff;fill-opacity:1;fill-rule:nonzero;stroke:none"
         d="M 2880,0 H 0 V 2880.01 H 2880 V 0" /><path
         id="path16"
         style="fill:#f36380;fill-opacity:1;fill-rule:evenodd;stroke:none"
         d="m 0,1888.16 c 5.17578,-1.51 10.3516,-3 15.1563,-4.39 13.75,18.45 5.4218,43.12 -15.1563,47.58 0,2.06 0,4.11 0,6.17 16.25,-3.25 28.332,-18.6 27.5703,-35.46 -0.3711,-8.26 -2.414,-16.13 -8.3125,-24.1 -6.1328,1.28 -12.6953,2.65 -19.2578,4.02 0,2.05 0,4.11 0,6.18" /><path
         id="path18"
         style="fill:#f36380;fill-opacity:1;fill-rule:evenodd;stroke:none"
         d="m 0,878.102 c 5.17578,-1.512 10.3516,-2.993 15.1563,-4.383 13.75,18.429 5.4218,43.101 -15.1563,47.57 0,2.063 0,4.109 0,6.172 C 16.2695,924.211 28.2813,908.91 27.5586,892 27.1992,883.738 25.1563,875.871 19.2578,867.91 13.125,869.191 6.5625,870.559 0,871.922 c 0,2.047 0,4.117 0,6.18" /><path
         id="path20"
         style="fill:#f36380;fill-opacity:1;fill-rule:evenodd;stroke:none"
         d="m 0,2392.15 c 5.29297,-0.95 10.5938,-1.9 15.5664,-2.79 13.1641,18.2 5.9375,39.62 -15.5664,48.04 0,2.06 0,4.12 0,6.17 26.9141,-9.96 35.3711,-34.83 19.5234,-60.02 -6.2031,0.77 -12.86324,1.6 -19.5234,2.43 0,2.06 0,4.11 0,6.17" /><path
         id="path22"
         style="fill:#f36380;fill-opacity:1;fill-rule:evenodd;stroke:none"
         d="m 0,372.031 c 5.29297,-0.953 10.5938,-1.902 15.5664,-2.793 13.1524,18.231 5.9258,39.641 -15.5664,48.063 0,2.051 0,4.109 0,6.168 26.9219,-9.981 35.3711,-34.828 19.5234,-60.039 -6.2031,0.769 -12.86324,1.601 -19.5234,2.429 0,2.063 0,4.11 0,6.172" /><path
         id="path24"
         style="fill:#f36380;fill-opacity:1;fill-rule:evenodd;stroke:none"
         d="M 0,444.031 C 21.2891,452.719 27.8516,471 16.3398,492.18 11.1445,491.262 5.57422,490.27 0,489.289 c 0,2.063 0,4.121 0,6.172 6.66016,0.859 13.3086,1.73 19.4805,2.519 C 37.3828,470.871 22.7539,444.398 0,437.859 c 0,2.063 0,4.121 0,6.172" /><path
         id="path26"
         style="fill:#f36380;fill-opacity:1;fill-rule:evenodd;stroke:none"
         d="m 0,1960.15 c 13.4844,3.14 23.4063,16.21 22.0508,30 -0.5586,5.6 -2.6445,11.05 -4.1602,17.07 -6.6797,-0.68 -12.28513,-1.24 -17.8906,-1.82 0,1.38 0,2.76 0,4.12 6.54297,1.43 13.0938,2.86 19.1211,4.18 16.4062,-25.69 6.7187,-54.12 -19.1211,-59.72 0,2.06 0,4.12 0,6.17" /><path
         id="path28"
         style="fill:#f36380;fill-opacity:1;fill-rule:evenodd;stroke:none"
         d="m 0,1454.09 c 21.2695,8.68 27.8516,27.01 16.3281,48.15 -5.1836,-0.92 -10.75388,-1.91 -16.3281,-2.89 0,2.06 0,4.12 0,6.17 6.66016,0.86 13.3086,1.72 19.4805,2.52 17.8047,-26.94 3.4687,-53.48 -19.4805,-60.12 0,2.05 0,4.11 0,6.17" /><path
         id="path30"
         style="fill:#f36380;fill-opacity:1;fill-rule:evenodd;stroke:none"
         d="m 0,2464.15 c 21.2695,8.67 27.8516,26.99 16.3281,48.15 -5.1836,-0.92 -10.76169,-1.91 -16.3281,-2.89 0,2.05 0,4.12 0,6.16 6.66016,0.87 13.3086,1.73 19.4805,2.53 17.8633,-27.05 3.3515,-53.54 -19.4805,-60.12 0,2.05 0,4.11 0,6.17" /><path
         id="path32"
         style="fill:#f36380;fill-opacity:1;fill-rule:evenodd;stroke:none"
         d="m 0,950.09 c 13.4844,3.14 23.4063,16.211 22.0508,30 -0.5586,5.601 -2.6445,11.051 -4.1602,17.07 C 11.2109,996.48 5.60547,995.922 0,995.34 c 0,1.379 0,2.762 0,4.121 6.54297,1.429 13.0938,2.859 19.1211,4.179 C 35.5273,977.941 25.8477,949.551 0,943.922 c 0,2.058 0,4.117 0,6.168" /><path
         id="path34"
         style="fill:#f36380;fill-opacity:1;fill-rule:evenodd;stroke:none"
         d="m 0,1382.09 c 5.29297,-0.95 10.5938,-1.9 15.5664,-2.79 13.1524,18.22 5.9258,39.62 -15.5664,48.05 0,2.05 0,4.12 0,6.18 26.8945,-9.98 35.3594,-34.87 19.5117,-60.04 -6.1914,0.77 -12.85154,1.6 -19.5117,2.43 0,2.06 0,4.11 0,6.17" /><path
         id="path36"
         style="fill:#f36380;fill-opacity:1;fill-rule:evenodd;stroke:none"
         d="m 845.344,1440.84 c -16.821,24.01 -44.27,23.65 -57.832,-0.21 14.5,-23.73 41.609,-23.83 57.832,0.21 z m -65.149,-0.14 c 8.34,13.82 18.868,23.63 35.442,23.32 16.433,-0.3 28.191,-8.87 36.851,-23.07 -7.925,-14.08 -19.453,-22.44 -35.281,-23.43 -17.019,-1.06 -28.019,8.76 -37.012,23.18" /><path
         id="path38"
         style="fill:#f36380;fill-opacity:1;fill-rule:evenodd;stroke:none"
         d="m 2539.86,1440.22 c 6.94,-10.33 15.75,-17.8 29.25,-17.15 12.88,0.61 22.32,7.01 29.09,17.45 -16.81,24.36 -44.02,24.09 -58.34,-0.3 z m 65.46,0.55 c -9.41,-15.02 -21.58,-23.63 -38.48,-23.26 -16.01,0.34 -26.13,10.12 -33.91,23.27 8.28,13.74 18.81,23.53 35.38,23.25 16.47,-0.28 28.15,-8.95 37.01,-23.26" /><path
         id="path40"
         style="fill:#f36380;fill-opacity:1;fill-rule:evenodd;stroke:none"
         d="m 1721.67,1440.81 c -16.67,24.06 -43.99,23.76 -57.84,-0.12 14.34,-23.77 41.51,-23.93 57.84,0.12 z m -65.17,-0.18 c 8.45,13.99 19.01,23.75 35.59,23.39 16.44,-0.36 28.15,-8.95 36.76,-23.09 -8.01,-14.14 -19.57,-22.46 -35.41,-23.42 -17.04,-1.02 -27.94,8.93 -36.94,23.12" /><path
         id="path42"
         style="fill:#f36380;fill-opacity:1;fill-rule:evenodd;stroke:none"
         d="m 578.105,2450.45 c 7.422,-11.2 17.625,-17.72 31.485,-17.31 12.473,0.37 20.566,7.66 26.848,17.29 -15.442,24.29 -42.747,24.18 -58.333,0.02 z m -7.175,0.34 c 8.789,14.42 20.535,23 36.98,23.28 16.563,0.29 27.11,-9.46 35.383,-23.24 -7.766,-13.16 -17.902,-22.91 -33.898,-23.26 -16.915,-0.38 -29.075,8.24 -38.465,23.22" /><path
         id="path44"
         style="fill:#f36380;fill-opacity:1;fill-rule:evenodd;stroke:none"
         d="m 578.215,1440.81 c 16.355,-24.06 43.523,-23.89 57.84,-0.12 -13.86,23.88 -41.172,24.18 -57.84,0.12 z m -7.277,-0.06 c 8.574,14.2 20.273,22.82 36.691,23.27 16.59,0.44 27.168,-9.31 35.652,-23.11 -7.793,-13.54 -18.183,-23.36 -34.621,-23.4 -16.863,-0.05 -28.894,8.72 -37.722,23.24" /><path
         id="path46"
         style="fill:#f36380;fill-opacity:1;fill-rule:evenodd;stroke:none"
         d="m 2330.72,1440.22 c 7.66,-10.87 17.73,-17.65 31.66,-17.15 12.46,0.45 20.53,7.7 26.74,17.37 -15.62,24.18 -43.05,23.98 -58.4,-0.22 z m 65.28,0.49 c -8.22,-13.54 -18.68,-23.44 -35.25,-23.22 -16.43,0.22 -28.25,8.76 -37,23.13 8.09,14.27 19.82,22.76 36.13,23.37 17.03,0.65 27.81,-9.35 36.12,-23.28" /><path
         id="path48"
         style="fill:#f36380;fill-opacity:1;fill-rule:evenodd;stroke:none"
         d="m 1663.52,430.18 c 6.89,-10.328 15.7,-17.789 29.19,-17.168 12.9,0.578 22.33,7 29.17,17.386 -16.66,24.364 -43.88,24.141 -58.36,-0.218 z m 65.39,0.5 c -9.19,-14.891 -21.35,-23.508 -38.25,-23.231 -16.02,0.262 -26.24,9.981 -34.04,23.281 8.12,13.622 18.61,23.442 35.18,23.231 16.44,-0.199 28.26,-8.723 37.11,-23.281" /><path
         id="path50"
         style="fill:#f36380;fill-opacity:1;fill-rule:evenodd;stroke:none"
         d="m 845.43,431.27 c -7.598,11.039 -17.793,17.621 -31.692,17.109 -12.468,-0.449 -20.468,-7.77 -26.675,-17.367 16.003,-24.223 43.425,-23.91 58.367,0.258 z m -65.235,-0.649 c 8.223,13.75 18.731,23.539 35.285,23.348 16.485,-0.188 28.18,-8.86 37.04,-23.039 -8.133,-14.348 -19.891,-22.809 -36.18,-23.481 -17.043,-0.687 -27.688,9.492 -36.145,23.172" /><path
         id="path52"
         style="fill:#f36380;fill-opacity:1;fill-rule:evenodd;stroke:none"
         d="m 2330.7,2450.31 c 7.63,-10.85 17.66,-17.64 31.59,-17.2 12.48,0.42 20.52,7.74 26.86,17.27 -15.47,24.34 -42.77,24.23 -58.45,-0.07 z m -7.07,0.58 c 9.29,14.83 21.39,23.26 38.32,23.23 13.87,-0.03 25.54,-8.48 33.76,-23.8 -7.94,-13.14 -18.42,-23.02 -34.99,-22.77 -16.42,0.23 -28.24,8.77 -37.09,23.34" /><path
         id="path54"
         style="fill:#f36380;fill-opacity:1;fill-rule:evenodd;stroke:none"
         d="m 2598.02,430.801 c -16.79,24 -44.26,23.629 -57.82,-0.219 14.49,-23.73 41.64,-23.844 57.82,0.219 z m 7.25,0 c -8.78,-14.582 -20.61,-23.09 -37.03,-23.371 -16.54,-0.258 -27.08,9.558 -35.26,23.191 7.7,13.328 17.9,22.988 33.92,23.328 16.93,0.352 29.05,-8.308 38.37,-23.148" /><path
         id="path56"
         style="fill:#f36380;fill-opacity:1;fill-rule:evenodd;stroke:none"
         d="m 1512.59,1440.63 c -15.04,24 -42.39,23.95 -57.8,0.34 14.05,-23.69 41.8,-24.12 57.8,-0.34 z m -65.34,0.15 c 9.4,14.95 21.54,23.59 38.46,23.22 16.01,-0.35 26.2,-10.03 33.9,-23.35 -8.24,-13.61 -18.77,-23.42 -35.32,-23.16 -16.46,0.25 -28.17,8.93 -37.04,23.29" /><path
         id="path58"
         style="fill:#f36380;fill-opacity:1;fill-rule:evenodd;stroke:none"
         d="m 1454.55,2450.81 c 16.63,-24.06 43.91,-23.8 57.83,0.05 -14.17,23.8 -41.41,24 -57.83,-0.05 z m -7.26,0.11 c 9.33,14.81 21.42,23.26 38.36,23.2 13.86,-0.05 25.59,-8.55 33.71,-23.84 -7.95,-13.12 -18.45,-22.99 -35.01,-22.73 -16.42,0.25 -28.26,8.77 -37.06,23.37" /><path
         id="path60"
         style="fill:#f36380;fill-opacity:1;fill-rule:evenodd;stroke:none"
         d="m 636.387,431.191 c -6.653,9.989 -15.086,17.368 -28.145,17.231 -13.406,-0.152 -23.086,-6.711 -30.234,-17.363 16.562,-24.368 43.73,-24.188 58.379,0.132 z m -65.449,-0.472 c 8.71,14.293 20.429,22.902 36.867,23.25 16.558,0.34 27.144,-9.387 35.488,-23.258 -7.941,-13.422 -18.332,-23.32 -34.816,-23.262 -16.836,0.063 -28.829,8.789 -37.539,23.27" /><path
         id="path62"
         style="fill:#f36380;fill-opacity:1;fill-rule:evenodd;stroke:none"
         d="m 1454.46,430.262 c 7.49,-11.16 17.73,-17.711 31.6,-17.242 12.47,0.429 20.53,7.71 26.71,17.39 -15.68,24.16 -43.13,23.93 -58.31,-0.148 z m 64.7,0.449 c -16.73,-32.191 -51.03,-28.16 -68.07,-5.891 -3.25,4.27 -3.28,7.481 -0.02,11.739 17.07,22.339 51.42,26.273 68.09,-5.848" /><path
         id="path64"
         style="fill:#f36380;fill-opacity:1;fill-rule:evenodd;stroke:none"
         d="m 2389.04,431.57 c -7.15,9.989 -15.87,17.61 -29.41,16.821 -12.83,-0.743 -22.34,-6.93 -28.86,-17.621 17.09,-24.168 44.74,-23.731 58.27,0.8 z m -65.45,-0.922 c 8.82,14.434 20.56,23.032 37.01,23.321 16.55,0.281 27.11,-9.469 35.37,-23.258 -7.77,-13.152 -17.89,-22.91 -33.89,-23.262 -16.92,-0.379 -29.04,8.301 -38.49,23.199" /><path
         id="path66"
         style="fill:#f36380;fill-opacity:1;fill-rule:evenodd;stroke:none"
         d="m 787.285,2450.96 c 15.059,-24.01 42.332,-23.98 57.793,-0.35 -13.84,23.68 -41.797,24.13 -57.793,0.35 z m 65.254,0.08 c -8.035,-14.15 -19.559,-22.51 -35.41,-23.46 -17.012,-1.02 -28.008,8.82 -36.848,23.01 7.395,13.24 17.492,22.88 33.391,23.44 17.344,0.61 29.68,-8.27 38.867,-22.99" /><path
         id="path68"
         style="fill:#f36380;fill-opacity:1;fill-rule:evenodd;stroke:none"
         d="m 1663.63,2450.89 c 15.3,-23.96 42.56,-23.84 57.82,-0.19 -14.3,23.69 -42.01,24.05 -57.82,0.19 z m 65.32,0 c -8.63,-14.37 -20.4,-22.95 -36.8,-23.34 -16.55,-0.39 -27.16,9.36 -35.51,23.15 7.79,13.59 18.22,23.34 34.69,23.37 16.91,0.02 28.8,-8.87 37.62,-23.18" /><path
         id="path70"
         style="fill:#f36380;fill-opacity:1;fill-rule:evenodd;stroke:none"
         d="m 2598.01,2450.85 c -16.55,24.06 -43.84,23.79 -57.84,-0.06 14.25,-23.82 41.43,-24.01 57.84,0.06 z m 7.13,0.29 c -19.91,-31.64 -53.6,-31.37 -71.98,-0.15 7.57,13.25 17.97,23.03 34.43,23.07 16.88,0.03 28.87,-8.74 37.55,-22.92" /><path
         id="path72"
         style="fill:#f36380;fill-opacity:1;fill-rule:evenodd;stroke:none"
         d="m 2646.03,1884.8 c 5.9,10.62 7.72,21.68 1.26,32.83 -6.69,11.54 -17.23,16.82 -30.06,17.6 -13.58,-25.2 0.53,-49.7 28.8,-50.43 z m 2.76,-5.94 c -38.37,-0.27 -48.56,32.42 -39.18,55.09 3.05,7.36 3.93,8 11.39,6.8 30.67,-4.9 45.95,-34.7 27.79,-61.89" /><path
         id="path74"
         style="fill:#f36380;fill-opacity:1;fill-rule:evenodd;stroke:none"
         d="m 1769.55,1884.51 c 6.25,11.6 7.91,22.98 0.7,34.29 -6.92,10.84 -17.2,15.81 -29.58,16.41 -12.78,-25.7 -0.03,-48.16 28.88,-50.7 z m 2.99,-5.58 c -38.59,-0.62 -49,32.96 -38.93,55.8 2.95,6.67 3.66,7.16 10.87,6.04 30.23,-4.66 46.28,-34.03 28.06,-61.84" /><path
         id="path76"
         style="fill:#f36380;fill-opacity:1;fill-rule:evenodd;stroke:none"
         d="m 997.605,1177.72 c -28.523,-1.43 -42.324,-25.64 -28.96,-49.81 27.085,-0.51 41.665,24.03 28.96,49.81 z m 3.435,6.66 c 8.51,-15.37 9.9,-30.1 1.32,-44.7 -8.141,-13.9 -21.598,-17.8 -37.087,-18.17 -7.793,13.38 -10.91,26.98 -3.293,41.04 8.11,14.95 21.797,20.78 39.06,21.83" /><path
         id="path78"
         style="fill:#f36380;fill-opacity:1;fill-rule:evenodd;stroke:none"
         d="m 893.359,1884.84 c 5.887,10.65 7.704,21.71 1.192,32.87 -6.719,11.51 -17.266,16.74 -30.071,17.53 -13.394,-25.47 0.774,-49.92 28.879,-50.4 z m 2.762,-5.97 c -38.25,-0.33 -48.594,32.27 -39.219,55.05 3.137,7.6 4.004,8.09 12.383,6.65 29.113,-5.02 45.149,-34.02 26.836,-61.7" /><path
         id="path80"
         style="fill:#f36380;fill-opacity:1;fill-rule:evenodd;stroke:none"
         d="m 893.086,874.691 c 12.93,25.45 -1.621,50.047 -28.789,49.789 -13.555,-23.859 0.488,-48.582 28.789,-49.789 z m -32.188,55.797 c 32.188,1.731 52.649,-28.527 38.516,-56.789 -1.953,-3.918 -4.199,-5.48 -8.723,-5.097 -31.863,2.66 -47.339,34.648 -29.793,61.886" /><path
         id="path82"
         style="fill:#f36380;fill-opacity:1;fill-rule:evenodd;stroke:none"
         d="m 2646.36,874.949 c 5.54,11.102 7.52,22.461 0.24,33.789 -6.95,10.821 -17.21,15.813 -29.58,16.422 -12.98,-26.07 1.55,-50.648 29.34,-50.211 z m 2.4,-6.187 c -23.31,0.648 -37.51,11 -41.51,30 -1.96,9.32 -0.54,18.277 3.09,27.09 1.97,4.769 5.02,5.718 9.69,5.046 31.23,-4.488 47.17,-34.617 28.73,-62.136" /><path
         id="path84"
         style="fill:#f36380;fill-opacity:1;fill-rule:evenodd;stroke:none"
         d="m 2721.91,1127.18 c 12.29,1.03 23.28,4.82 29.32,16.89 5.73,11.44 5.28,22.84 -0.83,33.83 -29.23,-2.38 -42.76,-26.7 -28.49,-50.72 z m 31.51,56.35 c 17.7,-27 2.24,-59.18 -29.63,-61.96 -4.45,-0.38 -6.78,1.04 -8.77,5 -14.18,28.24 5.98,58.25 38.4,56.96" /><path
         id="path86"
         style="fill:#f36380;fill-opacity:1;fill-rule:evenodd;stroke:none"
         d="m 2721.5,117.469 c 28.66,2.133 42.54,27.312 28.29,50.109 -27.79,-1.066 -41.71,-25.277 -28.29,-50.109 z m -3.27,-5.739 c -18.31,27.891 -2.12,57.239 27.95,61.891 7.32,1.141 7.96,0.688 10.91,-5.949 10.03,-22.481 0.16,-56.313 -38.86,-55.942" /><path
         id="path88"
         style="fill:#f36380;fill-opacity:1;fill-rule:evenodd;stroke:none"
         d="m 969.18,117.141 c 12.297,1.007 23.281,4.757 29.336,16.828 5.744,11.453 5.334,22.851 -0.801,33.84 -29.141,-2.207 -42.703,-26.489 -28.535,-50.668 z m 31.99,57.058 c 8.36,-15.418 9.65,-30.09 1.13,-44.758 -7.027,-12.132 -20.405,-18.222 -37.429,-17.402 -7.359,12.949 -10.555,26.563 -2.793,40.59 8.195,14.832 21.77,20.84 39.092,21.57" /><path
         id="path90"
         style="fill:#f36380;fill-opacity:1;fill-rule:evenodd;stroke:none"
         d="m 530.691,1884.31 c 13.528,0.98 24.602,5.41 30.325,18.11 5.047,11.21 4.472,22.31 -1.543,32.81 -29.524,-3.61 -41.817,-25.49 -28.782,-50.92 z m -3.699,-5.71 c -7.637,13.52 -10.82,27.13 -3.105,41.17 8.191,14.88 21.855,20.7 38.75,21.65 8.633,-14.21 10.058,-28.57 2.5,-43.03 -7.891,-15.1 -21.844,-19.45 -38.145,-19.79" /><path
         id="path92"
         style="fill:#f36380;fill-opacity:1;fill-rule:evenodd;stroke:none"
         d="m 2283.32,1884.3 c 13.47,0.95 24.54,5.33 30.31,18 5.12,11.21 4.57,22.32 -1.44,32.84 -29.32,-3.17 -41.76,-25.08 -28.87,-50.84 z m -3.17,-5.48 c -18.23,27.25 -2.86,57.03 27.73,61.92 7.52,1.21 8.35,0.61 11.41,-6.75 9.34,-22.47 -0.54,-55.3 -39.14,-55.17" /><path
         id="path94"
         style="fill:#f36380;fill-opacity:1;fill-rule:evenodd;stroke:none"
         d="m 1435.6,1934.93 c -28.88,-2.23 -42.46,-26.56 -28.56,-50.09 27.53,0.43 41.71,24.8 28.56,50.09 z m 3.72,6.41 c 8.39,-15.33 9.67,-29.99 1.21,-44.69 -6.98,-12.12 -20.22,-18.18 -37.5,-17.49 -7.34,12.9 -10.53,26.52 -2.82,40.54 8.16,14.84 21.73,20.89 39.11,21.64" /><path
         id="path96"
         style="fill:#f36380;fill-opacity:1;fill-rule:evenodd;stroke:none"
         d="m 559.188,924.91 c -28.915,-2.422 -42.458,-26.808 -28.434,-50.14 27.613,0.589 41.746,25.019 28.434,50.14 z m 3.722,6.41 c 8.477,-15.242 9.844,-29.961 1.32,-44.57 -8.125,-13.922 -21.585,-17.801 -37.113,-18.238 -7.801,13.367 -10.945,26.957 -3.328,40.988 8.098,14.922 21.699,20.949 39.121,21.82" /><path
         id="path98"
         style="fill:#f36380;fill-opacity:1;fill-rule:evenodd;stroke:none"
         d="m 1435.55,924.91 c -28.93,-2.422 -42.46,-26.789 -28.46,-50.129 27.62,0.578 41.74,24.981 28.46,50.129 z m -32.14,-56.5 c -7.71,13.649 -10.92,27.27 -3.17,41.301 8.2,14.82 21.76,20.848 38.8,21.551 8.59,-14.102 9.94,-28.461 2.44,-42.942 -7.87,-15.172 -21.95,-19.25 -38.07,-19.91" /><path
         id="path100"
         style="fill:#f36380;fill-opacity:1;fill-rule:evenodd;stroke:none"
         d="m 1769.28,874.602 c 13.31,24.886 -0.9,49.386 -28.43,49.988 -14.03,-23.102 -0.11,-48.102 28.43,-49.988 z m 11.06,18.007 c -0.56,-7.828 -0.71,-18.418 -7.86,-22.668 -7.64,-4.543 -17.3,0.34 -25.01,4.879 -17.89,10.539 -21.95,34.309 -12.53,52.571 0.88,1.718 3.6,3.621 5.41,3.57 18.87,-0.59 39.57,-14.492 39.99,-38.352" /><path
         id="path102"
         style="fill:#f36380;fill-opacity:1;fill-rule:evenodd;stroke:none"
         d="m 2312.1,924.762 c -28.57,-1.524 -42.35,-25.793 -28.9,-49.864 27.19,-0.308 41.66,24.153 28.9,49.864 z m 3.21,5.758 c 17.58,-27.211 2.13,-59.2 -29.75,-61.918 -4.51,-0.391 -6.77,1.128 -8.74,5.058 -14.12,28.289 6.21,58.43 38.49,56.86" /><path
         id="path104"
         style="fill:#f36380;fill-opacity:1;fill-rule:evenodd;stroke:none"
         d="m 968.652,1753.87 c -13.007,-25.25 1.407,-49.75 28.703,-49.81 13.705,23.64 -0.429,48.66 -28.703,49.81 z m -3.144,5.86 c 39.082,0.45 48.912,-33.47 38.902,-55.88 -2.98,-6.71 -3.51,-7.08 -10.863,-5.97 -30.188,4.57 -46.234,34.07 -28.039,61.85" /><path
         id="path106"
         style="fill:#f36380;fill-opacity:1;fill-rule:evenodd;stroke:none"
         d="m 92.3164,743.82 c -13.0195,-25.242 1.375,-49.718 28.6916,-49.832 13.726,23.641 -0.403,48.66 -28.6916,49.832 z m -3.3125,5.719 c 36.9921,1.152 49.0701,-30.617 39.6291,-54.488 -3.125,-7.91 -3.985,-8.403 -12.11,-7.11 -28.1246,4.438 -45.8589,32.379 -27.5191,61.598" /><path
         id="path108"
         style="fill:#f36380;fill-opacity:1;fill-rule:evenodd;stroke:none"
         d="m 1330.63,744.309 c -12.27,-1.059 -23.23,-4.848 -29.3,-16.899 -5.76,-11.449 -5.11,-22.828 0.68,-33.832 29.44,2.442 43,26.813 28.62,50.731 z m 3.73,5.39 c 18.18,-27.648 2.3,-57.25 -27.96,-61.867 -7.41,-1.133 -7.91,-0.762 -10.91,5.906 -9.96,22.192 -0.47,56.274 38.87,55.961" /><path
         id="path110"
         style="fill:#f36380;fill-opacity:1;fill-rule:evenodd;stroke:none"
         d="m 425.754,1178.21 c -6.074,-12.16 -6.566,-23.92 -0.024,-35.5 6.379,-11.29 17.129,-14.59 28.833,-15.55 13.328,25.12 1.05,47.15 -28.809,51.05 z m -3.383,6.03 c 17.336,-0.7 30.715,-6.81 39.133,-21.52 6.934,-12.11 5.469,-26.82 -3.801,-41.2 -14.773,0.34 -28.223,4.17 -36.441,18 -8.664,14.57 -7.278,29.32 1.109,44.72" /><path
         id="path112"
         style="fill:#f36380;fill-opacity:1;fill-rule:evenodd;stroke:none"
         d="m 2749.71,673.129 c -12.66,-0.938 -23.24,-6.02 -29.9,-17.59 -6.39,-11.117 -4.73,-22.09 1.19,-32.598 27.95,0 42.6,25.309 28.71,50.188 z m -31.74,-55.988 c -19.55,31.347 2.51,58.359 28.51,61.519 5.68,0.699 8.69,-0.91 10.9,-6.351 10.46,-25.579 -3.91,-57.188 -39.41,-55.168" /><path
         id="path114"
         style="fill:#f36380;fill-opacity:1;fill-rule:evenodd;stroke:none"
         d="m 1874.34,1703.45 c 5.97,12.61 6.44,24.76 -0.82,36.44 -6.55,10.5 -16.95,13.85 -28.38,14.3 -12.95,-25.43 -0.47,-47.44 29.2,-50.74 z m -32.64,56.16 c 38.19,1.06 49.25,-32.35 39.19,-55.48 -3,-6.89 -3.6,-7.33 -10.7,-6.31 -29.7,4.33 -46.67,33.1 -28.49,61.79" /><path
         id="path116"
         style="fill:#f36380;fill-opacity:1;fill-rule:evenodd;stroke:none"
         d="m 2178.93,2187.95 c -13.45,-24.94 0.72,-49.53 28.31,-50.14 14.21,23.07 0.63,47.63 -28.31,50.14 z m -3.8,6.39 c 17.39,-0.81 30.77,-6.96 39.15,-21.69 6.91,-12.18 5.35,-27.09 -4,-41.06 -14.81,0.34 -28.25,4.25 -36.4,18.12 -8.59,14.59 -7.22,29.32 1.25,44.63" /><path
         id="path118"
         style="fill:#f36380;fill-opacity:1;fill-rule:evenodd;stroke:none"
         d="m 121.223,1682.58 c -28.2464,-0.9 -42.5902,-26.14 -28.8011,-49.5 27.0121,-0.65 41.7661,24.25 28.8011,49.5 z m -32.1878,-55.45 c -18.0586,27.91 -1.6719,56.06 26.2068,61.21 9.199,1.69 10.676,0.75 13.723,-7.72 9.387,-26.08 -5.899,-55.19 -39.9298,-53.49" /><path
         id="path120"
         style="fill:#f36380;fill-opacity:1;fill-rule:evenodd;stroke:none"
         d="m 1302.29,1682.53 c -12.91,-25.25 1.92,-50.22 28.84,-49.42 13.78,23.35 -0.67,48.73 -28.84,49.42 z m 32.28,-55.34 c -35.61,-1.97 -49.82,29.75 -39.36,55.23 2.24,5.46 5.3,6.98 10.94,6.29 26.33,-3.27 47.9,-30.58 28.42,-61.52" /><path
         id="path122"
         style="fill:#f36380;fill-opacity:1;fill-rule:evenodd;stroke:none"
         d="m 2179.15,1703.52 c 29.25,3.37 42.64,28.04 27.89,50.33 -27.71,-1.11 -41.82,-26.01 -27.89,-50.33 z m 31.52,55.98 c 18.16,-26.11 3.29,-57.65 -29.64,-61.97 -5.18,-0.68 -7.26,1.69 -9.15,5.96 -10.67,24.1 1.46,57.71 38.79,56.01" /><path
         id="path124"
         style="fill:#f36380;fill-opacity:1;fill-rule:evenodd;stroke:none"
         d="m 1844.89,1633.25 c 22.17,-2.68 39.64,18.44 32.12,43.21 -2.02,6.67 -3.53,7.47 -10.55,5.83 -21.1,-4.93 -35.28,-27.08 -21.57,-49.04 z m -3.87,-5.97 c -7.74,14.42 -10.47,28.74 -1.16,42.94 8.75,13.32 21.75,18.83 37.76,18.75 8.31,-15.04 9.51,-29.64 1.12,-44.29 -7.02,-12.25 -20.03,-18.18 -37.72,-17.4" /><path
         id="path126"
         style="fill:#f36380;fill-opacity:1;fill-rule:evenodd;stroke:none"
         d="m 1874.35,693.391 c 5.94,12.621 6.45,24.757 -0.83,36.437 -6.56,10.492 -16.94,13.883 -28.38,14.301 -12.97,-25.399 -0.47,-47.449 29.21,-50.738 z m -32.55,56.23 c 38.75,0.711 49.04,-33.07 39.01,-55.711 -3.02,-6.828 -3.52,-7.199 -10.8,-6.109 -30.06,4.5 -46.38,33.73 -28.21,61.82" /><path
         id="path128"
         style="fill:#f36380;fill-opacity:1;fill-rule:evenodd;stroke:none"
         d="m 2750.76,1703.55 c 5.86,12.65 6.37,24.82 -0.98,36.48 -6.6,10.46 -17,13.71 -28.4,14.12 -12.78,-25.76 -0.11,-47.82 29.38,-50.6 z m -32.52,56.21 c 38.52,0.29 48.59,-32.5 39.25,-55.06 -3.18,-7.7 -3.81,-8.02 -12.36,-6.61 -28.57,4.69 -45.34,33.52 -26.89,61.67" /><path
         id="path130"
         style="fill:#f36380;fill-opacity:1;fill-rule:evenodd;stroke:none"
         d="m 120.605,2188.16 c -29.2495,-3.75 -42.5855,-28.61 -27.6362,-50.47 27.9222,1.67 41.8362,26.55 27.6362,50.47 z m -31.4448,-56.3 c -18.1446,27.8 -2.2266,57.21 28.0668,61.88 7.304,1.14 7.89,0.69 10.859,-6.01 10,-22.52 0.059,-56.33 -38.9258,-55.87" /><path
         id="path132"
         style="fill:#f36380;fill-opacity:1;fill-rule:evenodd;stroke:none"
         d="m 92.207,1753.82 c -12.7539,-25.57 1.9336,-50.22 28.945,-49.69 13.379,24.11 -0.847,48.97 -28.945,49.69 z m -3.0078,5.94 c 38.4768,0.31 48.6138,-32.47 39.2578,-55.06 -3.184,-7.69 -3.828,-8.03 -12.363,-6.61 -28.6213,4.73 -45.3127,33.56 -26.8948,61.67" /><path
         id="path134"
         style="fill:#f36380;fill-opacity:1;fill-rule:evenodd;stroke:none"
         d="m 454.648,2137.57 c 13.645,24.56 -0.293,48.96 -28.144,50.14 -14.434,-22.52 -0.547,-47.85 28.144,-50.14 z m 3.157,-5.53 c -37.043,-1.36 -49.004,31.5 -38.879,55.28 3.047,7.13 3.808,7.61 11.64,6.32 31.629,-5.23 45.254,-36.67 27.239,-61.6" /><path
         id="path136"
         style="fill:#f36380;fill-opacity:1;fill-rule:evenodd;stroke:none"
         d="m 1845.21,1127.49 c 28.72,2.32 42.56,27.54 28.19,50.18 -27.89,-1.25 -41.73,-25.45 -28.19,-50.18 z m -3.65,-6.01 c -7.72,13.54 -10.9,27.16 -3.16,41.19 8.18,14.82 21.76,20.86 38.8,21.57 8.61,-14.09 9.99,-28.46 2.45,-42.92 -7.87,-15.11 -21.85,-19.44 -38.09,-19.84" /><path
         id="path138"
         style="fill:#f36380;fill-opacity:1;fill-rule:evenodd;stroke:none"
         d="m 2207.55,1127.63 c 13.06,25.24 -1.3,49.72 -28.64,49.88 -13.78,-23.52 0.22,-48.4 28.64,-49.88 z m 2.6,-6.16 c -15.18,0.51 -28.89,4.61 -36.87,19.16 -7.89,14.42 -6.46,28.83 1.72,43.36 16.84,-0.02 30.12,-6.17 38.81,-20.62 7.46,-12.42 5.98,-27.9 -3.66,-41.9" /><path
         id="path140"
         style="fill:#f36380;fill-opacity:1;fill-rule:evenodd;stroke:none"
         d="m 426.223,1703.64 c 29.004,2.62 42.527,27.04 28.355,50.14 -27.527,-0.49 -41.734,-25.12 -28.355,-50.14 z m 31.922,56.55 c 7.832,-13.11 10.793,-26.41 3.945,-40.23 -6.973,-14.05 -19.453,-20.48 -34.61,-22.5 -4.863,-0.65 -6.511,2.18 -8.203,5.88 -9.05,19.91 -2.929,50.93 29.461,55.93 2.992,0.46 6.028,0.59 9.407,0.92" /><path
         id="path142"
         style="fill:#f36380;fill-opacity:1;fill-rule:evenodd;stroke:none"
         d="m 92.7734,1127.18 c 12.2656,1.03 23.2616,4.71 29.3676,16.78 5.789,11.42 5.359,22.84 -0.727,33.86 -29.0312,-1.95 -42.6445,-26.14 -28.6406,-50.64 z m 31.8826,57.16 c 8.418,-14.7 9.824,-29.1 2.043,-43.53 -7.89,-14.63 -21.621,-18.75 -37.6834,-19.38 -7.6875,12.86 -10.8711,26.14 -3.9765,39.94 7.7851,15.59 21.6599,21.92 39.6169,22.97" /><path
         id="path144"
         style="fill:#f36380;fill-opacity:1;fill-rule:evenodd;stroke:none"
         d="m 997.051,673.102 c -12.715,-0.821 -23.235,-6 -29.903,-17.551 -6.418,-11.102 -4.765,-22.082 1.153,-32.61 27.929,-0.05 42.599,25.231 28.75,50.161 z m -31.68,-56.02 c -18.047,27.93 -1.66,56.047 26.231,61.199 9.178,1.699 10.678,0.739 13.708,-7.722 9.4,-26.168 -5.994,-55.207 -39.939,-53.477" /><path
         id="path146"
         style="fill:#f36380;fill-opacity:1;fill-rule:evenodd;stroke:none"
         d="m 1845.28,2137.24 c 13.94,1.16 25.22,5.84 30.69,19.2 4.49,10.95 3.92,21.74 -2.1,31.82 -29.63,-3.93 -41.83,-25.83 -28.59,-51.02 z m -3.42,-5.38 c -18.16,27.79 -2.25,57.21 28.04,61.88 7.32,1.14 7.89,0.69 10.87,-6.01 10,-22.52 0.07,-56.32 -38.91,-55.87" /><path
         id="path148"
         style="fill:#f36380;fill-opacity:1;fill-rule:evenodd;stroke:none"
         d="m 1331.17,2137.67 c 13.13,25.13 -1.17,49.63 -28.56,49.92 -13.88,-23.36 0.11,-48.32 28.56,-49.92 z m 3.3,-5.51 c -37.05,-1.97 -49.63,31.43 -39.02,55.82 2.13,4.9 4.75,6.75 10.12,5.97 31.22,-4.54 47.13,-34.76 28.9,-61.79" /><path
         id="path150"
         style="fill:#f36380;fill-opacity:1;fill-rule:evenodd;stroke:none"
         d="m 2101.99,178.148 c 16,-23.308 42.12,-23.117 57.32,-0.019 -14.64,23.031 -41.4,23.32 -57.32,0.019 z m -7.09,-0.019 c 8.46,13.43 18.71,22.973 34.81,22.851 16.44,-0.128 28.24,-8.55 37.1,-22.71 -8.3,-13.668 -19.58,-21.989 -35.62,-22.731 -16.7,-0.769 -27.3,8.711 -36.29,22.59" /><path
         id="path152"
         style="fill:#f36380;fill-opacity:1;fill-rule:evenodd;stroke:none"
         d="m 2826.91,178.281 c -16.25,23.18 -43.16,22.77 -57.32,-0.269 15.66,-23.024 41.74,-23.102 57.32,0.269 z m -64.9,-0.133 c 9.05,14.34 20.86,22.762 37.32,22.84 16.1,0.063 26.31,-9.508 34.6,-22.738 -7.86,-12.801 -17.6,-22.199 -33.27,-22.691 -17.05,-0.559 -29.11,7.929 -38.65,22.589" /><path
         id="path154"
         style="fill:#f36380;fill-opacity:1;fill-rule:evenodd;stroke:none"
         d="m 559.395,1429.59 c -28.262,-0.9 -42.586,-26.08 -28.809,-49.5 26.992,-0.67 41.777,24.28 28.809,49.5 z m -32.215,-55.42 c -18.977,29.88 0.64,57.41 27.312,61.32 8.36,1.22 9.317,0.6 12.285,-6.97 10.039,-25.72 -4.746,-56.16 -39.597,-54.35" /><path
         id="path156"
         style="fill:#f36380;fill-opacity:1;fill-rule:evenodd;stroke:none"
         d="m 864.18,1429.58 c -13.067,-25.1 1.738,-50.14 28.742,-49.49 13.887,23.26 -0.488,48.6 -28.742,49.49 z m -3.758,6.47 c 17.598,-0.34 30.84,-6.64 39.266,-21.27 6.992,-12.14 5.468,-27.12 -3.848,-41.01 -14.856,-0.02 -28.145,4.01 -36.387,17.79 -8.672,14.52 -7.305,29.21 0.969,44.49" /><path
         id="path158"
         style="fill:#f36380;fill-opacity:1;fill-rule:evenodd;stroke:none"
         d="m 92.6367,117.121 c 13.9653,1.188 25.2343,5.899 30.6763,19.277 4.46,10.961 3.835,21.731 -2.122,31.774 -29.734,-4.133 -41.8941,-26.09 -28.5543,-51.051 z m 31.7653,56.328 c 17.688,-26.988 2.219,-59.16 -29.6559,-61.937 -4.4609,-0.371 -6.7695,1.058 -8.7617,5.019 -14.168,28.27 6.039,58.309 38.4176,56.918" /><path
         id="path160"
         style="fill:#f36380;fill-opacity:1;fill-rule:evenodd;stroke:none"
         d="m 426.199,167.82 c -13.367,-25.019 0.813,-49.55 28.391,-50.109 14.14,23.199 0.578,47.668 -28.391,50.109 z m 31.86,-56.011 c -38.539,-0.688 -49.067,32.871 -38.977,55.73 2.969,6.731 3.613,7.199 10.84,6.102 30.019,-4.571 46.406,-33.77 28.137,-61.832" /><path
         id="path162"
         style="fill:#f36380;fill-opacity:1;fill-rule:evenodd;stroke:none"
         d="m 1302.66,167.871 c -13.62,-24.699 0.51,-49.359 28.17,-50.199 14.38,22.867 0.89,47.43 -28.17,50.199 z m 32.35,-55.93 c -38.18,-1.359 -50.19,32.09 -39.37,56.25 1.68,3.758 3.45,6.45 8.27,5.809 15.16,-2.02 27.55,-8.5 34.57,-22.539 6.92,-13.871 3.56,-27.082 -3.47,-39.52" /><path
         id="path164"
         style="fill:#f36380;fill-opacity:1;fill-rule:evenodd;stroke:none"
         d="m 1873.26,168.059 c -29.27,-3.868 -42.58,-28.727 -27.58,-50.508 27.93,1.801 41.84,26.679 27.58,50.508 z m 4.1,6.211 c 8.39,-14.79 9.83,-29.18 1.97,-43.622 -7.94,-14.589 -21.67,-18.687 -37.71,-19.269 -7.55,12.973 -10.82,26.25 -3.86,40.043 7.87,15.558 21.73,21.828 39.6,22.848" /><path
         id="path166"
         style="fill:#f36380;fill-opacity:1;fill-rule:evenodd;stroke:none"
         d="m 2207.91,117.719 c 5.81,10.652 7.68,21.703 1.15,32.863 -6.75,11.52 -17.28,16.727 -30.08,17.539 -13.35,-25.551 0.87,-50.019 28.93,-50.402 z m 10.63,17.582 c -0.83,-7.75 -0.58,-18.731 -8.66,-22.852 -7.28,-3.73 -16.7,0.821 -24.18,5.242 -17.74,10.438 -22.13,34.098 -12.59,52.528 0.95,1.863 4.26,3.75 6.35,3.609 20.15,-1.269 38.65,-15.949 39.08,-38.527" /><path
         id="path168"
         style="fill:#f36380;fill-opacity:1;fill-rule:evenodd;stroke:none"
         d="m 1406.72,2390.03 c 27.87,0.2 42.52,25.68 28.91,49.32 -26.75,0.97 -41.75,-24.08 -28.91,-49.32 z m 32.49,55.24 c 16.72,-26.74 2.18,-58.31 -28.22,-61.23 -7.69,-0.73 -8.42,-0.29 -11.46,6.99 -11.95,28.53 8.71,56.78 39.68,54.24" /><path
         id="path170"
         style="fill:#f36380;fill-opacity:1;fill-rule:evenodd;stroke:none"
         d="m 1892.99,1188.38 c 10.86,-20.17 44.59,-26.55 57.15,0.68 -16.08,22.36 -40.26,22.3 -57.15,-0.68 z m -7.33,-0.14 c 9.52,14.8 21.69,23.27 38.63,22.78 15.59,-0.45 25.39,-10.05 33.39,-22.78 -8.37,-13.17 -18.45,-22.7 -34.65,-22.66 -16.58,0.04 -28.27,8.47 -37.37,22.66" /><path
         id="path172"
         style="fill:#f36380;fill-opacity:1;fill-rule:evenodd;stroke:none"
         d="m 558.887,2440.05 c -12.891,-0.54 -23.321,-5.93 -29.961,-17.46 -6.399,-11.09 -4.656,-22.07 1.191,-32.56 28.113,0.2 42.766,25.67 28.77,50.02 z m 3.957,5.22 c 17.027,-27 1.636,-59.18 -29.192,-61.41 -5.293,-0.37 -8.027,1.41 -10.136,6.15 -12.774,28.58 7.91,57.77 39.328,55.26" /><path
         id="path174"
         style="fill:#f36380;fill-opacity:1;fill-rule:evenodd;stroke:none"
         d="m 893.555,2390.25 c 5.925,11.05 7.5,22.36 0.293,33.63 -6.934,10.87 -17.2,15.7 -29.493,16.3 -13.066,-26.03 1.875,-51.03 29.2,-49.93 z m -33.172,55.82 c 17.469,-0.24 30.711,-6.49 39.207,-21.07 7.019,-12.05 5.625,-26.75 -3.621,-41.22 -14.739,0.1 -28.117,3.91 -36.418,17.68 -8.723,14.49 -7.461,29.2 0.832,44.61" /><path
         id="path176"
         style="fill:#f36380;fill-opacity:1;fill-rule:evenodd;stroke:none"
         d="m 1769.52,2390.05 c 12.86,25.2 -2.24,50.37 -28.95,49.27 -13.55,-23.68 1.15,-49.18 28.95,-49.27 z m -32.78,56.06 c 17.55,-0.33 30.97,-6.49 39.2,-21.23 7.78,-13.95 4.67,-27.54 -2.97,-41.06 -15.55,0 -28.87,3.96 -37.13,17.73 -8.7,14.52 -7.37,29.22 0.9,44.56" /><path
         id="path178"
         style="fill:#f36380;fill-opacity:1;fill-rule:evenodd;stroke:none"
         d="m 2283.55,2389.55 c 11.96,0.42 22.52,4.15 28.83,15.42 6.45,11.51 6.14,23.23 0.11,34.61 -28.39,-0.51 -42.84,-25.62 -28.94,-50.03 z m -3.39,-5.75 c -20.2,31.68 2.34,59.43 28.92,62.03 4.65,0.46 7.7,-0.46 9.61,-5.22 5.72,-14.28 5.71,-28.16 -3.2,-41 -8.58,-12.37 -21.38,-15.91 -35.33,-15.81" /><path
         id="path180"
         style="fill:#f36380;fill-opacity:1;fill-rule:evenodd;stroke:none"
         d="m 2645.98,2390.12 c 12.56,25.47 -2.84,50.76 -29.23,49.12 -13.16,-24.23 1.59,-49.45 29.23,-49.12 z m -32.99,55.97 c 17.39,-0.26 30.39,-6.37 38.9,-20.45 7.25,-11.96 6.27,-25.61 -2.89,-41.76 -14.16,-0.27 -27.22,3.27 -35.8,16.09 -9.91,14.82 -8.61,30.16 -0.21,46.12" /><path
         id="path182"
         style="fill:#f36380;fill-opacity:1;fill-rule:evenodd;stroke:none"
         d="m 2283.05,1380.28 c 22.15,-2.63 39.64,18.27 32.15,43.18 -2.02,6.69 -3.53,7.47 -10.54,5.85 -20.93,-4.83 -35.36,-26.9 -21.61,-49.03 z m -3.2,-6.11 c -18.97,29.93 0.72,57.44 27.35,61.33 8.35,1.21 9.3,0.59 12.26,-6.99 10.05,-25.76 -4.8,-56.18 -39.61,-54.34" /><path
         id="path184"
         style="fill:#f36380;fill-opacity:1;fill-rule:evenodd;stroke:none"
         d="m 2645.87,1380 c 12.84,25.23 -2.3,50.42 -28.98,49.25 -13.5,-23.72 1.2,-49.21 28.98,-49.25 z m -39.42,33.22 c 2.44,24.74 7.44,27.89 29.4,17.43 19.98,-9.51 26.45,-33.07 15.99,-52.52 -1.98,-3.68 -4.45,-4.47 -8.22,-4.35 -21.78,0.7 -37.6,17.4 -37.17,39.44" /><path
         id="path186"
         style="fill:#f36380;fill-opacity:1;fill-rule:evenodd;stroke:none"
         d="m 140.273,2198.2 c 17.098,-23.31 43.282,-23.04 57.278,0.13 -14.321,23.23 -40.688,23.44 -57.278,-0.13 z m 64.715,0.09 c -8.457,-13.26 -18.582,-22.74 -34.8,-22.66 -16.614,0.07 -28.176,8.63 -37.102,22.48 8.164,13.97 19.719,22.17 35.598,22.96 16.582,0.84 27.3,-8.71 36.304,-22.78" /><path
         id="path188"
         style="fill:#f36380;fill-opacity:1;fill-rule:evenodd;stroke:none"
         d="m 406.594,2198.39 c -15.364,23.46 -44.817,23.11 -56.946,-0.68 15.965,-22.83 42.293,-22.52 56.946,0.68 z m 7.644,-0.12 c -9.383,-14.5 -21.379,-23.04 -38.437,-22.61 -15.696,0.39 -25.508,9.76 -33.457,22.63 7.793,12.89 17.746,22.31 33.293,22.78 16.922,0.52 29.097,-7.99 38.601,-22.8" /><path
         id="path190"
         style="fill:#f36380;fill-opacity:1;fill-rule:evenodd;stroke:none"
         d="m 1225.69,2198.08 c 16.59,-23.24 43.08,-22.81 57.22,0.44 -15.45,23 -41.97,23.03 -57.22,-0.44 z m 64.64,0.58 c -19.37,-30.73 -52.48,-30.76 -71.42,-0.31 7.09,12.5 16.93,21.92 32.36,22.67 17.32,0.84 29.76,-7.84 39.06,-22.36" /><path
         id="path192"
         style="fill:#f36380;fill-opacity:1;fill-rule:evenodd;stroke:none"
         d="m 2159.63,2198.28 c -16.94,23.53 -43.4,23.22 -57.32,-0.07 14.42,-23.05 40.52,-23.2 57.32,0.07 z m 7.17,-0.03 c -8.47,-13.64 -19.77,-22 -35.84,-22.61 -16.69,-0.62 -27.27,8.85 -35.95,22.47 7.75,13.17 17.92,22.74 33.92,22.96 16.85,0.22 28.98,-8.29 37.87,-22.82" /><path
         id="path194"
         style="fill:#f36380;fill-opacity:1;fill-rule:evenodd;stroke:none"
         d="m 426.23,693.578 c 28.985,2.602 42.532,27.082 28.34,50.141 -27.5,-0.469 -41.738,-25.141 -28.34,-50.141 z m 31.766,56.133 c 18.422,-28.16 1.711,-56.973 -26.91,-61.68 -8.547,-1.422 -9.172,-1.09 -12.356,6.617 -9.328,22.571 0.743,55.332 39.266,55.063" /><path
         id="path196"
         style="fill:#f36380;fill-opacity:1;fill-rule:evenodd;stroke:none"
         d="m 1893.01,2198.05 c 17.57,-23.25 44.09,-22.77 57.2,0.54 -14.91,22.97 -41.43,22.94 -57.2,-0.54 z m -7.35,0.21 c 9.4,14.75 21.57,23.24 38.47,22.81 15.58,-0.39 25.5,-9.85 33.43,-22.72 -7.89,-12.87 -17.68,-22.24 -33.36,-22.69 -17.03,-0.47 -29.08,8 -38.54,22.6" /><path
         id="path198"
         style="fill:#f36380;fill-opacity:1;fill-rule:evenodd;stroke:none"
         d="m 2207.34,743.941 c -28.57,-2.062 -42.55,-27.472 -28.17,-50.101 27.88,1.23 41.82,25.57 28.17,50.101 z m 3.34,5.77 c 18.42,-28.16 1.7,-56.973 -26.91,-61.68 -8.55,-1.422 -9.16,-1.09 -12.34,6.617 -9.34,22.563 0.72,55.321 39.25,55.063" /><path
         id="path200"
         style="fill:#f36380;fill-opacity:1;fill-rule:evenodd;stroke:none"
         d="m 2721.35,743.82 c -13.03,-25.242 1.39,-49.75 28.69,-49.82 13.71,23.648 -0.43,48.68 -28.69,49.82 z m -3.09,5.629 c 37.42,1.653 49.42,-32.019 38.77,-56.039 -1.89,-4.281 -3.99,-6.609 -9.16,-5.941 -32.95,4.34 -47.79,35.922 -29.61,61.98" /><path
         id="path202"
         style="fill:#f36380;fill-opacity:1;fill-rule:evenodd;stroke:none"
         d="m 1301.89,1178.12 c -5.95,-12.62 -6.46,-24.74 0.81,-36.45 6.54,-10.55 16.98,-13.77 28.34,-14.41 13.02,25.47 0.56,47.54 -29.15,50.86 z m 40.32,-32.8 c -0.88,-7.71 -0.57,-18.7 -8.67,-22.82 -7.29,-3.72 -16.7,0.82 -24.18,5.23 -17.86,10.55 -22.07,34.25 -12.59,52.55 0.96,1.86 4.27,3.74 6.36,3.62 20.18,-1.29 38.64,-15.99 39.08,-38.58" /><path
         id="path204"
         style="fill:#f36380;fill-opacity:1;fill-rule:evenodd;stroke:none"
         d="m 893.02,491.531 c -25.082,0.91 -38.704,-20.929 -32.036,-43.383 2.004,-6.726 3.567,-7.589 10.454,-6.007 21.101,4.839 35.386,26.839 21.582,49.39 z m 3.347,5.77 c 18.692,-29.281 0.028,-57.16 -27.336,-61.332 -8.347,-1.27 -9.285,-0.617 -12.254,7 -10.089,25.781 4.832,56.172 39.59,54.332" /><path
         id="path206"
         style="fill:#f36380;fill-opacity:1;fill-rule:evenodd;stroke:none"
         d="m 2645.98,491.43 c -27.69,0.218 -42.34,-24.84 -29.24,-49.149 26.41,-1.633 41.8,23.68 29.24,49.149 z m 3.21,6.351 c 7.85,-13.609 10.87,-27.222 3.07,-41.16 -8.25,-14.73 -21.66,-20.91 -38.85,-21.16 -8.51,14.078 -9.87,28.41 -2.24,42.801 7.95,15 21.81,19.418 38.02,19.519" /><path
         id="path208"
         style="fill:#f36380;fill-opacity:1;fill-rule:evenodd;stroke:none"
         d="m 997.766,693.25 c 6.124,12.148 6.594,23.93 0.047,35.488 -6.36,11.262 -17.043,14.731 -28.821,15.532 -13.387,-24.879 -1.101,-46.981 28.774,-51.02 z m -32.407,56.121 c 36.831,2.109 50.141,-31.41 38.701,-56.711 -2.11,-4.66 -4.939,-5.73 -9.665,-5.051 -31.473,4.493 -47.051,34.821 -29.036,61.762" /><path
         id="path210"
         style="fill:#f36380;fill-opacity:1;fill-rule:evenodd;stroke:none"
         d="m 1331.03,1754.34 c -13.41,-1.05 -24.52,-5.35 -30.29,-18.04 -5.1,-11.22 -4.52,-22.32 1.47,-32.83 29.38,3.33 41.83,25.3 28.82,50.87 z m 3.38,5.36 c 18.28,-28.1 1.86,-57.78 -29.16,-62.08 -4.86,-0.68 -7.47,0.78 -9.51,5.32 -10.65,23.59 0.06,57.43 38.67,56.76" /><path
         id="path212"
         style="fill:#f36380;fill-opacity:1;fill-rule:evenodd;stroke:none"
         d="m 2769.59,1188.03 c 16.02,-23.33 45.33,-22.84 56.9,0.93 -15.91,22.56 -42.85,22.12 -56.9,-0.93 z m 64.29,0.2 c -7.93,-12.89 -17.77,-22.22 -33.46,-22.63 -17.07,-0.45 -29.01,8.16 -38.37,22.5 8.43,14.01 20.12,22.52 36.5,22.93 16.55,0.41 27.08,-9.25 35.33,-22.8" /><path
         id="path214"
         style="fill:#f36380;fill-opacity:1;fill-rule:evenodd;stroke:none"
         d="m 2159.33,1188.08 c -14.56,23.57 -43.85,23.47 -57.04,-0.18 15.35,-22.93 41.4,-22.85 57.04,0.18 z m -64.43,0.11 c 8.51,13.51 18.8,23.02 34.9,22.85 16.43,-0.18 28.23,-8.59 37.02,-22.76 -8.38,-13.66 -19.67,-21.98 -35.71,-22.68 -16.71,-0.74 -27.28,8.77 -36.21,22.59" /><path
         id="path216"
         style="fill:#f36380;fill-opacity:1;fill-rule:evenodd;stroke:none"
         d="m 1016.65,1188.02 c 17.53,-23.28 43.94,-22.83 57.22,0.47 -14.79,23 -41.3,23.01 -57.22,-0.47 z m -7.35,0.17 c 9.49,14.83 21.68,23.32 38.59,22.82 15.57,-0.45 25.49,-9.91 33.31,-22.76 -7.93,-12.9 -17.76,-22.23 -33.45,-22.65 -17.07,-0.45 -29.02,8.15 -38.45,22.59" /><path
         id="path218"
         style="fill:#f36380;fill-opacity:1;fill-rule:evenodd;stroke:none"
         d="m 349.109,1188.09 c 7.278,-11.03 16.594,-18.08 29.895,-17.07 12.168,0.92 21.863,6.6 27.891,17.46 -17.207,22.97 -41.309,22.93 -57.786,-0.39 z m 65.11,0.15 c -9.485,-14.68 -21.543,-23.11 -38.594,-22.64 -15.73,0.43 -25.332,10.02 -33.379,22.55 8.262,13.39 18.508,22.9 34.59,22.9 16.484,-0.02 28.242,-8.53 37.383,-22.81" /><path
         id="path220"
         style="fill:#f36380;fill-opacity:1;fill-rule:evenodd;stroke:none"
         d="m 197.891,1188.25 c -16.067,23.26 -42.891,22.93 -57.317,-0.12 15.383,-23.06 41.477,-23.2 57.317,0.12 z m 7.097,-0.01 c -8.765,-13.78 -19.324,-23.27 -36.011,-22.65 -16.086,0.59 -27.395,8.94 -35.879,22.61 8.347,13.85 19.851,22.13 35.769,22.83 16.594,0.72 27.227,-8.89 36.121,-22.79" /><path
         id="path222"
         style="fill:#f36380;fill-opacity:1;fill-rule:evenodd;stroke:none"
         d="m 530.449,369.871 c 27.989,0.469 42.586,26.117 28.739,49.41 -26.961,0.59 -41.817,-24.453 -28.739,-49.41 z m 40.227,32.66 c -0.813,-21.742 -16.438,-37.89 -37.91,-38.832 -4.368,-0.179 -6.77,1.153 -8.743,5.153 -12.714,25.808 3.965,54.867 32.657,56.918 4.836,0.351 8.027,-0.782 9.336,-5.579 1.613,-5.871 3.105,-11.769 4.66,-17.66" /><path
         id="path224"
         style="fill:#f36380;fill-opacity:1;fill-rule:evenodd;stroke:none"
         d="m 140.559,178.02 c 15.879,-23.391 45.093,-22.961 56.921,0.839 -15.82,22.602 -42.675,22.192 -56.921,-0.839 z m -7.59,0.128 c 9.492,14.813 21.679,23.321 38.594,22.813 15.554,-0.481 25.488,-9.91 33.3,-22.77 -7.949,-12.902 -17.773,-22.25 -33.468,-22.652 -17.059,-0.43 -29.051,8.109 -38.426,22.609" /><path
         id="path226"
         style="fill:#f36380;fill-opacity:1;fill-rule:evenodd;stroke:none"
         d="m 1406.72,369.91 c 27.87,0.219 42.51,25.692 28.91,49.32 -26.75,0.981 -41.76,-24.082 -28.91,-49.32 z m -3.21,-5.789 c -19,29.981 0.78,57.449 27.35,61.32 8.35,1.207 9.32,0.598 12.27,-6.992 10.07,-25.879 -4.94,-56.168 -39.62,-54.328" /><path
         id="path228"
         style="fill:#f36380;fill-opacity:1;fill-rule:evenodd;stroke:none"
         d="m 1769.92,370.191 c 5.9,11.059 7.49,22.379 0.24,33.629 -6.98,10.809 -17.17,15.739 -29.51,16.2 -12.94,-26.129 2.08,-51.161 29.27,-49.829 z m -33.28,55.778 c 17.38,-0.258 30.51,-6.289 38.88,-20.438 8.18,-13.84 5.21,-27.492 -2.39,-41.769 -14.61,-0.274 -27.68,3.269 -36.26,16.09 -9.93,14.808 -8.62,30.148 -0.23,46.117" /><path
         id="path230"
         style="fill:#f36380;fill-opacity:1;fill-rule:evenodd;stroke:none"
         d="m 2283.09,369.898 c 27.89,0.282 42.53,25.813 28.85,49.352 -26.84,0.852 -41.78,-24.199 -28.85,-49.352 z m 32.75,56.09 c 8.28,-15.386 9.58,-30.117 0.86,-44.609 -8.28,-13.75 -21.62,-17.688 -37.13,-17.688 -7.59,13.59 -10.74,27.18 -2.91,41.129 8.26,14.719 21.69,20.871 39.18,21.168" /><path
         id="path232"
         style="fill:#f36380;fill-opacity:1;fill-rule:evenodd;stroke:none"
         d="m 406.953,178.23 c -17.148,23.469 -43.691,23.079 -57.324,-0.21 14.656,-23.032 40.664,-23.11 57.324,0.21 z m 7.235,0 c -8.614,-13.769 -19.918,-22.152 -36.012,-22.699 -16.692,-0.582 -27.231,8.918 -35.852,22.489 7.805,13.191 17.989,22.73 34.016,22.949 16.922,0.222 28.836,-8.539 37.848,-22.739" /><path
         id="path234"
         style="fill:#f36380;fill-opacity:1;fill-rule:evenodd;stroke:none"
         d="m 1074.23,178.129 c -15.8,23.312 -42.57,23.051 -57.3,0.043 15.02,-23.133 41.2,-23.363 57.3,-0.043 z m 7.15,0.121 c -8.53,-13.379 -18.68,-22.84 -34.91,-22.738 -16.61,0.109 -28.15,8.668 -37.05,22.508 8.22,13.96 19.76,22.171 35.66,22.949 16.62,0.82 27.23,-8.86 36.3,-22.719" /><path
         id="path236"
         style="fill:#f36380;fill-opacity:1;fill-rule:evenodd;stroke:none"
         d="m 1950.25,178.09 c -13.97,23.441 -43.38,23.281 -57.03,-0.32 16.54,-22.879 42.59,-22.739 57.03,0.32 z m -64.52,-0.051 c 8.33,13.922 19.84,22.18 35.74,22.93 16.61,0.769 27.26,-8.828 36.11,-22.637 -7.55,-12.613 -17.17,-22.051 -32.78,-22.73 -17.46,-0.782 -29.68,7.91 -39.07,22.437" /><path
         id="path238"
         style="fill:#f36380;fill-opacity:1;fill-rule:evenodd;stroke:none"
         d="m 2597.94,936.051 c -6.85,11.277 -17.1,17.437 -30.27,17.461 -12.7,0.008 -21.63,-6.961 -27.65,-17.621 14.94,-24.039 42.75,-23.93 57.92,0.16 z m -64.57,-0.449 c 16.01,31.23 50.52,28.777 67.66,6.457 4.53,-5.899 4.55,-6.668 0.15,-12.457 -16.65,-21.922 -50.87,-25.602 -67.81,6" /><path
         id="path240"
         style="fill:#f36380;fill-opacity:1;fill-rule:evenodd;stroke:none"
         d="m 455.313,1633.13 c 6.074,11.02 7.531,22.34 0.402,33.62 -6.899,10.91 -17.207,15.7 -29.477,16.38 -13.179,-25.89 1.653,-50.83 29.075,-50 z m -33.086,55.89 c 17.558,-0.3 30.988,-6.48 39.199,-21.22 7.773,-13.94 4.648,-27.54 -2.942,-41.05 -15.593,0.02 -28.914,3.96 -37.168,17.73 -8.687,14.51 -7.339,29.22 0.911,44.54" /><path
         id="path242"
         style="fill:#f36380;fill-opacity:1;fill-rule:evenodd;stroke:none"
         d="m 140.438,2703.54 c 15.539,-23.53 43.156,-23.4 57.003,-0.25 -16.535,21.96 -37.304,22.21 -57.003,0.25 z m 63.878,-0.19 c -17.343,-30.44 -51.582,-30.61 -70.293,-0.91 15.887,29.81 49.649,30.46 70.293,0.91" /><path
         id="path244"
         style="fill:#f36380;fill-opacity:1;fill-rule:evenodd;stroke:none"
         d="m 349.434,2702.85 c 6.894,-10.58 15.996,-17.57 29.414,-16.71 12.363,0.79 21.621,6.84 28.172,17.1 -19.957,22.26 -40.75,21.99 -57.586,-0.39 z m 64.152,-0.43 c -8.43,-13.44 -20.285,-21.82 -36.691,-21.88 -16.055,-0.06 -26.348,9.41 -34.122,22.13 19.192,30.14 52.2,30.04 70.813,-0.25" /><path
         id="path246"
         style="fill:#f36380;fill-opacity:1;fill-rule:evenodd;stroke:none"
         d="m 1074.06,2703.44 c -18.43,22 -39.14,21.83 -57.02,-0.02 14.06,-23.08 41.88,-23.32 57.02,0.02 z m 6.62,-0.13 c -17.57,-30.45 -51.81,-30.54 -70.33,-0.8 16.29,29.79 49.75,30.37 70.33,0.8" /><path
         id="path248"
         style="fill:#f36380;fill-opacity:1;fill-rule:evenodd;stroke:none"
         d="m 2208.28,1633.17 c 5.45,11.04 7.38,22.31 0.11,33.62 -6.98,10.86 -17.24,15.67 -29.5,16.33 -13.09,-26.02 1.79,-50.96 29.39,-49.95 z m 3.03,-6.45 c -15.63,0.07 -28.99,3.91 -37.26,17.68 -8.71,14.51 -7.43,29.22 0.78,44.46 16.31,0.41 29.44,-5.46 38.21,-19.22 9.12,-14.33 5.92,-28.56 -1.73,-42.92" /><path
         id="path250"
         style="fill:#f36380;fill-opacity:1;fill-rule:evenodd;stroke:none"
         d="m 1893.13,2703.52 c 15.64,-23.54 43.26,-23.38 57.01,-0.19 -16.67,21.92 -37.37,22.15 -57.01,0.19 z m 64.01,-0.82 c -7.76,-12.72 -18.06,-22.2 -34.09,-22.16 -16.41,0.05 -28.29,8.4 -36.73,21.86 18.47,30.29 51.43,30.43 70.82,0.3" /><path
         id="path252"
         style="fill:#f36380;fill-opacity:1;fill-rule:evenodd;stroke:none"
         d="m 2330.67,935.672 c 7.75,-11.91 18.29,-18.274 31.97,-17.633 12.15,0.563 20.82,7.32 26.32,17.832 -15.84,23.57 -41.08,23.59 -58.29,-0.199 z m 64.6,-0.051 c -14.97,-30.562 -50.14,-29.101 -67.93,-5.68 -3.3,4.348 -3.05,7.61 0.16,11.77 18.39,23.918 53.73,23.949 67.77,-6.09" /><path
         id="path254"
         style="fill:#f36380;fill-opacity:1;fill-rule:evenodd;stroke:none"
         d="m 968.945,2137.1 c 13.301,1.37 24.512,5.49 30.235,18.26 5.04,11.24 4.47,22.33 -1.524,32.84 -29.492,-3.55 -41.816,-25.43 -28.711,-51.1 z m -3.562,-5.76 c -7.746,13.16 -10.891,26.49 -3.93,40.25 7.863,15.53 21.738,21.83 39.527,22.77 8.08,-13.57 9.77,-27.5 2.92,-41.85 -7.611,-15.92 -21.908,-20.23 -38.517,-21.17" /><path
         id="path256"
         style="fill:#f36380;fill-opacity:1;fill-rule:evenodd;stroke:none"
         d="m 454.785,622.852 c 13.899,22.367 -0.293,44.5 -21.433,49.398 -6.946,1.609 -8.489,0.77 -10.508,-5.93 -6.614,-21.89 6.304,-44.199 31.941,-43.468 z m -39.199,33.359 c 2.461,24.641 7.441,27.848 29.465,17.34 19.695,-9.403 26.062,-31.711 16.336,-51.629 -1.934,-3.961 -4.285,-5.41 -8.692,-5.231 -21.855,0.86 -37.558,17.438 -37.109,39.52" /><path
         id="path258"
         style="fill:#f36380;fill-opacity:1;fill-rule:evenodd;stroke:none"
         d="m 578.281,1945.51 c 11.641,-20.38 44.395,-26.4 57.598,0.62 -14.453,23.57 -42.332,23.49 -57.598,-0.62 z m 64.317,0.24 c -14.7,-30.43 -49.903,-29.37 -67.891,-5.82 -3.269,4.29 -3.184,7.55 0.051,11.78 18.101,23.66 53.406,24.36 67.84,-5.96" /><path
         id="path260"
         style="fill:#f36380;fill-opacity:1;fill-rule:evenodd;stroke:none"
         d="m 120.703,673.09 c -12.695,-0.828 -23.2225,-5.988 -29.9022,-17.531 -6.4258,-11.118 -4.7461,-22.09 1.1523,-32.618 27.9299,-0.062 42.5979,25.239 28.7499,50.149 z m 3.914,5.082 c 17.121,-26.891 1.778,-59.121 -29.0701,-61.422 -5.2617,-0.398 -8.0274,1.309 -10.1758,6.07 -12.8398,28.52 7.7422,57.68 39.2459,55.352" /><path
         id="path262"
         style="fill:#f36380;fill-opacity:1;fill-rule:evenodd;stroke:none"
         d="m 1302.26,672.461 c -12.82,-25.359 2.04,-50.301 28.91,-49.379 13.7,23.438 -0.78,48.77 -28.91,49.379 z m -3.69,6.5 c 17.48,-0.27 30.91,-6.441 39.16,-21.16 7.81,-13.91 4.71,-27.539 -2.93,-41.141 -15.46,0.078 -28.82,3.93 -37.09,17.711 -8.72,14.5 -7.43,29.199 0.86,44.59" /><path
         id="path264"
         style="fill:#f36380;fill-opacity:1;fill-rule:evenodd;stroke:none"
         d="m 2750.38,1682.48 c -28.06,-0.42 -42.55,-25.55 -29.07,-49.29 26.72,-1.25 41.7,23.69 29.07,49.29 z m 3.67,6.55 c 8.41,-15.86 9.46,-30.8 0.29,-45.56 -7.2,-11.59 -20.62,-17.29 -37.05,-16.04 -7.31,13.31 -10.34,27.21 -1.91,41.38 8.42,14.14 21.65,19.93 38.67,20.22" /><path
         id="path266"
         style="fill:#f36380;fill-opacity:1;fill-rule:evenodd;stroke:none"
         d="m 2769.33,2198.42 c 10.9,-20.15 44.58,-26.56 57.15,0.71 -16.12,22.35 -40.3,22.28 -57.15,-0.71 z m -7.33,-0.13 c 9.41,14.7 21.55,23.21 38.47,22.78 15.57,-0.39 25.51,-9.84 33.45,-22.74 -7.91,-12.81 -17.67,-22.22 -33.36,-22.67 -17.04,-0.47 -29.1,7.99 -38.56,22.63" /><path
         id="path268"
         style="fill:#f36380;fill-opacity:1;fill-rule:evenodd;stroke:none"
         d="m 2207.73,622.949 c 12.76,25.281 -2.47,50.531 -29.05,49.211 -13.39,-23.89 1.32,-49.281 29.05,-49.211 z m -32.83,56.012 c 17.53,-0.281 30.96,-6.461 39.19,-21.18 7.79,-13.929 4.7,-27.543 -2.98,-41.14 -15.46,0.129 -28.82,3.961 -37.09,17.75 -8.69,14.507 -7.39,29.211 0.88,44.57" /><path
         id="path270"
         style="fill:#f36380;fill-opacity:1;fill-rule:evenodd;stroke:none"
         d="m 997.051,2693.2 c -12.742,-0.79 -23.25,-6 -29.922,-17.56 -6.406,-11.08 -4.746,-22.07 1.191,-32.59 27.942,0 42.6,25.3 28.731,50.15 z m -32.129,-55.71 c -16.016,26.87 -3.192,53.01 23.574,60.3 11.614,3.17 14.324,1.52 17.694,-9.97 8.03,-27.32 -10.831,-53.54 -41.268,-50.33" /><path
         id="path272"
         style="fill:#f36380;fill-opacity:1;fill-rule:evenodd;stroke:none"
         d="m 2749.71,2693.23 c -12.66,-0.93 -23.24,-6 -29.9,-17.57 -6.38,-11.12 -4.74,-22.09 1.2,-32.61 27.95,0.01 42.6,25.3 28.7,50.18 z m 4.3,5.85 c 8.26,-15.33 9.59,-30.05 0.89,-44.56 -8.26,-13.77 -21.58,-17.71 -37.18,-17.71 -7.57,13.52 -10.69,27.13 -2.91,41.06 8.23,14.74 21.65,20.92 39.2,21.21" /><path
         id="path274"
         style="fill:#f36380;fill-opacity:1;fill-rule:evenodd;stroke:none"
         d="m 2178.52,2692.51 c -12.62,-25.62 2.44,-50.62 29.1,-49.24 13.45,23.71 -1.15,48.98 -29.1,49.24 z m 32.08,-55.7 c -13.95,-0.13 -26.75,3.39 -35.35,15.76 -8.9,12.85 -8.92,26.72 -3.2,41 1.91,4.74 4.91,5.72 9.59,5.25 26.72,-2.66 49.06,-30.39 28.96,-62.01" /><path
         id="path276"
         style="fill:#f36380;fill-opacity:1;fill-rule:evenodd;stroke:none"
         d="m 1845.43,2642.53 c 12.37,0.53 23.17,4.46 29.32,16.4 5.83,11.32 5.52,22.72 -0.53,33.68 -28.44,-0.75 -42.84,-25.96 -28.79,-50.08 z m 31.92,55.74 c 17.01,-27.05 1.65,-59.18 -29.17,-61.42 -5.29,-0.39 -8.02,1.4 -10.14,6.14 -12.81,28.54 7.9,57.76 39.31,55.28" /><path
         id="path278"
         style="fill:#f36380;fill-opacity:1;fill-rule:evenodd;stroke:none"
         d="m 1301.6,2692.27 c -0.97,-2.49 -2.36,-5.21 -3.07,-8.09 -4.99,-20.06 6.67,-38.21 26.17,-41.24 4.6,-0.71 7.57,-0.04 9.53,4.98 8.8,22.4 -7.53,45.39 -32.63,44.35 z m 32.87,-55.1 c -36.25,-1.56 -49.65,30.56 -39.16,55.52 2.04,4.86 4.69,6.72 10.04,6.16 26.79,-2.78 49,-30.58 29.12,-61.68" /><path
         id="path280"
         style="fill:#f36380;fill-opacity:1;fill-rule:evenodd;stroke:none"
         d="m 455.02,2643.35 c 13.996,22.45 -1.231,44.86 -22.625,49.24 -4.028,0.82 -7.25,0.61 -8.957,-4.15 -8.528,-23.7 7.011,-47.73 31.582,-45.09 z m -32.872,55.74 c 17.688,-0.32 30.625,-6.79 39.454,-21.2 5.8,-9.48 5.976,-28.93 -4.024,-41.08 -14.734,0.01 -28.035,3.99 -36.289,17.77 -8.711,14.54 -7.195,29.22 0.859,44.51" /><path
         id="path282"
         style="fill:#f36380;fill-opacity:1;fill-rule:evenodd;stroke:none"
         d="m 121.094,2692.69 c -28.387,-1.23 -42.676,-26.62 -28.5549,-49.59 27.1169,-0.36 41.8359,24.71 28.5549,49.59 z m 3.574,5.58 c 17.012,-27.03 1.66,-59.17 -29.1602,-61.42 -5.293,-0.39 -8.0273,1.38 -10.1562,6.13 -12.8047,28.55 7.8789,57.75 39.3164,55.29" /><path
         id="path284"
         style="fill:#f36380;fill-opacity:1;fill-rule:evenodd;stroke:none"
         d="m 1406.44,2006.69 c -5.97,-11.08 -7.68,-22.45 -0.52,-33.78 6.87,-10.88 17.15,-15.93 29.59,-16.49 13.14,25.74 -1.23,50.27 -29.07,50.27 z m -2.8,5.76 c 37.27,1.84 49.52,-31.74 38.94,-55.92 -2.15,-4.92 -4.79,-6.69 -10.14,-5.89 -32.05,4.76 -46.73,35.65 -28.8,61.81" /><path
         id="path286"
         style="fill:#f36380;fill-opacity:1;fill-rule:evenodd;stroke:none"
         d="m 1073.91,2198.27 c -14.21,23.42 -43.73,23.19 -57,-0.45 16.69,-22.89 42.8,-22.67 57,0.45 z m -64.59,0.02 c 9.49,14.79 21.68,23.29 38.59,22.78 15.55,-0.47 25.5,-9.89 33.34,-22.87 -8.26,-13.05 -18.33,-22.59 -34.53,-22.56 -16.6,0.02 -28.28,8.45 -37.4,22.65" /><path
         id="path288"
         style="fill:#f36380;fill-opacity:1;fill-rule:evenodd;stroke:none"
         d="m 1225.66,178.102 c 16.18,-23.301 42.36,-23.051 57.29,0.097 -14.91,23.071 -41.5,23.289 -57.29,-0.097 z m 64.87,0.148 c -8.6,-13.789 -19.9,-22.148 -35.99,-22.719 -16.69,-0.601 -27.25,8.899 -35.95,22.61 7.95,12.937 18.02,22.609 34.07,22.828 16.93,0.23 28.84,-8.539 37.87,-22.719" /><path
         id="path290"
         style="fill:#f36380;fill-opacity:1;fill-rule:evenodd;stroke:none"
         d="m 578.223,935.5 c 17.187,-23.871 44.843,-23.41 57.656,0.449 -14.055,23.621 -41.934,23.672 -57.656,-0.449 z m 64.621,0.441 c -15.793,-31.132 -49.906,-28.722 -66.938,-7.402 -5.34,6.68 -5.359,7.563 -0.281,14.051 16.328,20.859 50.098,24.961 67.219,-6.649" /><path
         id="path292"
         style="fill:#f36380;fill-opacity:1;fill-rule:evenodd;stroke:none"
         d="m 969.148,1632.44 c 12.356,0.62 23.176,4.52 29.29,16.5 5.792,11.33 5.492,22.72 -0.586,33.65 -28.575,-0.95 -42.911,-26.21 -28.704,-50.15 z m -3.953,-5.01 c -19.16,29.97 1.438,57.85 28.36,61.15 7.675,0.94 8.435,0.42 11.325,-6.97 10.87,-27.77 -7.235,-57.5 -39.685,-54.18" /><path
         id="path294"
         style="fill:#f36380;fill-opacity:1;fill-rule:evenodd;stroke:none"
         d="m 787.051,935.59 c 7.129,-11.141 16.269,-18.328 29.57,-17.57 12.676,0.718 22.461,6.832 28.809,17.82 -17.012,23.601 -42.215,23.621 -58.379,-0.25 z m -6.367,0.121 c 16.308,31.289 50.734,28.5 67.722,6.258 4.453,-5.821 4.453,-6.641 0.024,-12.457 -16.86,-22.082 -51.196,-25.242 -67.746,6.199" /><path
         id="path296"
         style="fill:#f36380;fill-opacity:1;fill-rule:evenodd;stroke:none"
         d="m 1845.43,622.41 c 11.95,0.488 22.54,4.18 28.83,15.488 6.39,11.543 6.08,23.231 0.01,34.59 -28.47,-0.718 -42.88,-25.929 -28.84,-50.078 z m 32.24,56.578 c 8.23,-15.347 9.6,-30.047 0.88,-44.578 -8.26,-13.781 -21.58,-17.699 -37.16,-17.719 -7.58,13.528 -10.7,27.129 -2.92,41.059 8.22,14.75 21.66,20.91 39.2,21.238" /><path
         id="path298"
         style="fill:#f36380;fill-opacity:1;fill-rule:evenodd;stroke:none"
         d="m 1512.77,935.98 c -7.14,11.2 -16.4,18.321 -29.67,17.489 -12.63,-0.797 -22.44,-6.879 -28.66,-17.93 17.47,-23.578 42.67,-23.437 58.33,0.441 z m 6.43,-0.48 c -17.2,-31.602 -50.92,-27.441 -67.23,-6.621 -5.09,6.5 -5.07,7.359 0.29,14.062 17.11,21.411 51.24,23.598 66.94,-7.441" /><path
         id="path300"
         style="fill:#f36380;fill-opacity:1;fill-rule:evenodd;stroke:none"
         d="m 2769.43,2703.45 c 16.09,-23.57 43.7,-23.28 57.07,0.02 -17.18,21.85 -37.57,21.99 -57.07,-0.02 z m -7.05,-0.67 c 21.08,30.01 50.63,29.99 71.16,0.26 -7.27,-12.65 -17.33,-21.93 -32.81,-22.47 -16.87,-0.57 -29.15,7.86 -38.35,22.21" /><path
         id="path302"
         style="fill:#f36380;fill-opacity:1;fill-rule:evenodd;stroke:none"
         d="m 2749.69,2188.14 c -29.29,-3.62 -42.6,-28.32 -27.74,-50.45 27.91,1.56 41.84,26.34 27.74,50.45 z m -31.8,-56.6 c -7.68,13.55 -10.84,27.14 -3.14,41.19 8.18,14.93 21.87,20.67 38.73,21.7 8.67,-14.24 10.05,-28.6 2.52,-43.07 -7.87,-15.11 -21.88,-19.41 -38.11,-19.82" /><path
         id="path304"
         style="fill:#f36380;fill-opacity:1;fill-rule:evenodd;stroke:none"
         d="m 1721.93,935.781 c -7.76,11.91 -18.28,18.309 -31.95,17.668 -12.13,-0.57 -20.86,-7.277 -26.36,-17.84 15.78,-23.55 40.87,-23.609 58.31,0.172 z m -64.63,-0.133 c 14.1,30 49.39,29.981 67.81,6.032 3.22,-4.192 3.38,-7.45 0.1,-11.77 -17.85,-23.449 -53.08,-24.769 -67.91,5.738" /><path
         id="path306"
         style="fill:#f36380;fill-opacity:1;fill-rule:evenodd;stroke:none"
         d="m 1283.29,1188.26 c -17.09,23.49 -43.61,23.13 -57.32,-0.15 14.61,-23.04 40.6,-23.16 57.32,0.15 z m 7.26,-0.07 c -8.96,-13.98 -20.54,-22.5 -37.12,-22.61 -16.22,-0.13 -26.39,9.35 -34.78,22.48 7.86,13.25 18.07,22.81 34.09,22.96 16.87,0.14 28.9,-8.45 37.81,-22.83" /><path
         id="path308"
         style="fill:#f36380;fill-opacity:1;fill-rule:evenodd;stroke:none"
         d="m 2159.2,2703.5 c -18.42,22.09 -41.6,21.82 -56.69,-0.66 15.01,-22.78 42.84,-22.46 56.69,0.66 z m 7.07,-1.08 c -8.43,-13.44 -20.28,-21.82 -36.7,-21.88 -16.04,-0.06 -26.34,9.41 -34.11,22.13 19.19,30.14 52.2,30.04 70.81,-0.25" /><path
         id="path310"
         style="fill:#f36380;fill-opacity:1;fill-rule:evenodd;stroke:none"
         d="m 2540.02,1945.81 c 15.32,-23.99 43.13,-23.75 57.64,-0.04 -14.39,23.78 -42.23,24.05 -57.64,0.04 z m -6.39,-0.17 c 14,30 49,29.86 67.05,6.9 4.93,-6.26 4.95,-7.13 0.2,-13.26 -17.42,-22.47 -52.15,-24.18 -67.25,6.36" /><path
         id="path312"
         style="fill:#f36380;fill-opacity:1;fill-rule:evenodd;stroke:none"
         d="m 2389.13,1945.84 c -6.98,11.36 -16.26,18.43 -29.49,17.69 -12.65,-0.71 -22.58,-6.69 -28.77,-17.93 16.92,-23.48 42.03,-23.52 58.26,0.24 z m 6.42,0.03 c -16.27,-31.35 -50.67,-28.55 -67.7,-6.37 -4.46,5.82 -4.47,6.69 -0.08,12.46 16.68,21.98 51.04,25.46 67.78,-6.09" /><path
         id="path314"
         style="fill:#f36380;fill-opacity:1;fill-rule:evenodd;stroke:none"
         d="m 1721.99,1945.99 c -7.97,11.65 -18.38,18.24 -32.11,17.52 -12.13,-0.63 -20.82,-7.33 -26.28,-17.91 16.07,-23.51 41.13,-23.49 58.39,0.39 z m -64.97,-0.23 c 16.46,31.47 50.86,28.35 67.73,6.29 4.45,-5.84 4.45,-6.67 0.03,-12.47 -16.81,-22.05 -51.15,-25.29 -67.76,6.18" /><path
         id="path316"
         style="fill:#f36380;fill-opacity:1;fill-rule:evenodd;stroke:none"
         d="m 1512.56,1945.98 c -15.9,23.92 -43.7,23.52 -57.64,-0.34 14.95,-23.63 42.74,-23.71 57.64,0.34 z m 6.38,-0.13 c -14.31,-30.17 -49.58,-29.78 -67.83,-5.99 -3.24,4.22 -3.34,7.48 -0.07,11.77 17.98,23.6 53.21,24.61 67.9,-5.78" /><path
         id="path318"
         style="fill:#f36380;fill-opacity:1;fill-rule:evenodd;stroke:none"
         d="m 787.063,1945.57 c 7.175,-11.12 16.355,-18.3 29.656,-17.5 12.636,0.79 22.414,6.88 28.719,17.84 -17.196,23.63 -42.469,23.56 -58.375,-0.34 z m -6.379,0.07 c 15.949,31.17 50.449,28.86 67.644,6.49 4.543,-5.91 4.563,-6.69 0.168,-12.46 -16.609,-21.9 -50.828,-25.65 -67.812,5.97" /><path
         id="path320"
         style="fill:#f36380;fill-opacity:1;fill-rule:evenodd;stroke:none"
         d="m 2312.89,442.172 c 5.52,11.879 6.11,23.949 -1.2,35.59 -6.57,10.449 -16.78,14.078 -28.32,14.16 -13.38,-25.203 1.55,-50.41 29.52,-49.75 z m 10.48,15.687 c -1.69,-5.859 -3.31,-11.718 -5.07,-17.55 -1.17,-3.868 -3.91,-4.86 -7.88,-4.75 -29.13,0.8 -47.31,32.5 -33.29,57.921 2.05,3.7 4.59,4.329 8.31,4.192 21.88,-0.84 37.52,-17.461 37.93,-39.813" /><path
         id="path322"
         style="fill:#f36380;fill-opacity:1;fill-rule:evenodd;stroke:none"
         d="m 2178.58,2713.07 c 28.14,0.61 42.63,25.95 28.94,49.4 -26.93,0.84 -41.7,-23.93 -28.94,-49.4 z m -3.61,-6.55 c -8.33,15.44 -9.65,30.15 -0.92,44.65 8.28,13.75 21.59,17.68 37.08,17.74 7.68,-13.64 10.74,-27.26 2.93,-41.18 -8.24,-14.75 -21.7,-20.84 -39.09,-21.21" /><path
         id="path324"
         style="fill:#f36380;fill-opacity:1;fill-rule:evenodd;stroke:none"
         d="m 2721.34,2762.67 c -13.21,-24.77 1.73,-50 28.68,-49.4 13.9,23.23 -0.66,48.83 -28.68,49.4 z m -3.6,6.27 c 15.56,-0.12 28.88,-4.04 37.14,-17.81 8.71,-14.5 7.4,-29.22 -0.85,-44.46 -16.24,-0.24 -29.45,5.53 -38.17,19.34 -9.04,14.3 -6.07,28.54 1.88,42.93" /><path
         id="path326"
         style="fill:#f36380;fill-opacity:1;fill-rule:evenodd;stroke:none"
         d="m 406.77,1693.68 c -16.946,22.91 -42.18,22.8 -57.227,-0.22 14.148,-23.55 42.945,-23.43 57.227,0.22 z m -64.102,-0.23 c 18.855,30.32 54.461,30 71.043,-0.8 -8.289,-13.54 -20.098,-21.8 -36.531,-22.22 -13.957,-0.36 -25.434,7.47 -34.512,23.02" /><path
         id="path328"
         style="fill:#f36380;fill-opacity:1;fill-rule:evenodd;stroke:none"
         d="m 1282.83,2703.35 c -17.91,22.24 -41.07,22.09 -56.69,-0.37 14.67,-22.86 42.41,-22.69 56.69,0.37 z m 7.37,-0.49 c -9.03,-14.29 -21.24,-22.74 -38.1,-22.3 -15.53,0.41 -25.55,9.76 -33.02,22.21 19.53,29.86 49.63,30.09 71.12,0.09" /><path
         id="path330"
         style="fill:#f36380;fill-opacity:1;fill-rule:evenodd;stroke:none"
         d="m 559.414,2462.02 c 12.922,25.27 -1.848,50.17 -28.809,49.46 -13.835,-23.27 0.625,-48.71 28.809,-49.46 z m -31.973,55.77 c 13.985,0.21 26.77,-3.38 35.352,-15.73 8.926,-12.85 8.937,-26.72 3.215,-40.99 -1.906,-4.77 -4.922,-5.75 -9.59,-5.27 -26.953,2.75 -48.969,30.59 -28.977,61.99" /><path
         id="path332"
         style="fill:#f36380;fill-opacity:1;fill-rule:evenodd;stroke:none"
         d="m 864.609,2461.48 c 12.832,0.6 23.25,5.99 29.954,17.48 6.453,11.07 4.773,22.08 -1.145,32.6 -27.93,0.06 -42.559,-25.1 -28.809,-50.08 z m -4.14,-5.91 c -8.34,15.13 -9.676,29.79 -1.094,44.34 8.176,13.83 21.492,17.84 37.195,17.91 7.883,-13.71 10.891,-27.57 2.61,-41.73 -8.496,-14.56 -21.973,-20.48 -38.711,-20.52" /><path
         id="path334"
         style="fill:#f36380;fill-opacity:1;fill-rule:evenodd;stroke:none"
         d="m 1406.92,2511.65 c -13.85,-22.26 0.21,-44.45 21.45,-49.38 6.94,-1.61 8.49,-0.77 10.51,5.93 6.69,22.25 -6.7,44.29 -31.96,43.45 z m 32.68,-56.08 c -17.62,0.25 -31.04,6.44 -39.28,21.16 -7.8,13.93 -4.69,27.54 2.93,41.15 15.5,-0.1 28.82,-3.98 37.12,-17.74 8.76,-14.53 7.26,-29.21 -0.77,-44.57" /><path
         id="path336"
         style="fill:#f36380;fill-opacity:1;fill-rule:evenodd;stroke:none"
         d="m 1769.28,2512.18 c -12.97,-0.7 -23.74,-4.75 -29.79,-16.74 -5.73,-11.39 -5.06,-22.71 0.45,-33.59 28.74,1.54 42.19,24.72 29.34,50.33 z m 3.77,5.75 c 7.7,-14.4 10.6,-28.05 2.48,-41.89 -8.34,-14.2 -21.52,-20.15 -38.49,-20.53 -8.33,13.95 -9.85,28.21 -2.32,42.67 7.86,15.09 21.73,19.49 38.33,19.75" /><path
         id="path338"
         style="fill:#f36380;fill-opacity:1;fill-rule:evenodd;stroke:none"
         d="m 2283.17,2511.6 c -14.02,-23.01 1.21,-45.26 22.68,-49.63 4.86,-0.98 7.61,0.46 9.18,5.37 7.03,21.97 -5.78,45.29 -31.86,44.26 z m -3.32,5.8 c 34.8,1.87 49.68,-28.6 39.6,-54.33 -2.98,-7.59 -3.92,-8.27 -12.26,-6.98 -27.66,4.25 -45.87,32.26 -27.34,61.31" /><path
         id="path340"
         style="fill:#f36380;fill-opacity:1;fill-rule:evenodd;stroke:none"
         d="m 2645.32,2512.12 c -11.88,-0.6 -22.52,-4.12 -28.82,-15.47 -6.4,-11.54 -6.07,-23.22 -0.06,-34.59 28.4,0.53 42.9,25.8 28.88,50.06 z m 4.48,5.02 c 7.31,-13.31 10.34,-27.22 1.9,-41.37 -8.42,-14.11 -21.61,-20 -38.34,-20.18 -8.6,14.52 -9.72,29.06 -1.68,43.77 6.98,12.75 20.84,19.07 38.12,17.78" /><path
         id="path342"
         style="fill:#f36380;fill-opacity:1;fill-rule:evenodd;stroke:none"
         d="m 455.137,2762.55 c -27.676,0.27 -42.305,-24.73 -29.27,-49.13 26.399,-1.65 41.821,23.66 29.27,49.13 z m 3.301,6.36 c 7.675,-13.61 10.75,-27.22 2.968,-41.14 -8.23,-14.72 -21.648,-20.93 -38.847,-21.2 -8.496,14.09 -9.871,28.4 -2.254,42.79 7.937,15 21.765,19.46 38.133,19.55" /><path
         id="path344"
         style="fill:#f36380;fill-opacity:1;fill-rule:evenodd;stroke:none"
         d="m 122.168,2209.48 c 5.527,12.4 6.016,24.85 -2.129,36.56 -6.738,9.67 -16.641,13.18 -27.7734,12.91 -12.7343,-25.91 2.7149,-51.25 29.9024,-49.47 z m -33.1836,54.93 c 35.3786,1.97 49.8946,-29.57 39.3356,-55.28 -2.257,-5.49 -5.351,-6.99 -10.957,-6.26 -27.2263,3.61 -47.4997,31.34 -28.3786,61.54" /><path
         id="path346"
         style="fill:#f36380;fill-opacity:1;fill-rule:evenodd;stroke:none"
         d="m 454.375,2259.14 c -12.344,-0.61 -23.176,-4.52 -29.277,-16.48 -5.774,-11.34 -5.469,-22.72 0.593,-33.64 28.547,0.86 42.961,26.26 28.684,50.12 z m 4.07,5.76 c 7.668,-13.57 10.735,-27.17 2.981,-41.1 -8.203,-14.75 -21.641,-20.93 -38.828,-21.27 -8.555,14.08 -9.91,28.4 -2.305,42.8 7.922,15.01 21.738,19.49 38.152,19.57" /><path
         id="path348"
         style="fill:#f36380;fill-opacity:1;fill-rule:evenodd;stroke:none"
         d="m 997.488,2209 c 13.152,24.98 -1.558,50 -28.633,49.52 -14.097,-22.99 0.317,-48.52 28.633,-49.52 z m 3.552,-5.61 c -31.313,-2.64 -52.161,26.73 -39.36,55.24 2.121,4.72 4.812,6.54 10.136,6.16 30.804,-2.19 46.154,-34.24 29.224,-61.4" /><path
         id="path350"
         style="fill:#f36380;fill-opacity:1;fill-rule:evenodd;stroke:none"
         d="m 1331.22,2258.69 c -28.06,-0.71 -42.57,-26.31 -28.65,-49.44 27.02,-0.51 41.9,24.69 28.65,49.44 z m -32.33,-55.32 c -17.01,27.05 -1.69,59.14 29.14,61.41 5.29,0.39 8.01,-1.37 10.15,-6.11 12.86,-28.48 -7.88,-57.78 -39.29,-55.3" /><path
         id="path352"
         style="fill:#f36380;fill-opacity:1;fill-rule:evenodd;stroke:none"
         d="m 1844.8,2258.57 c -12.67,-25.35 2.65,-50.65 29.14,-49.18 13.25,24.12 -1.42,49.33 -29.14,49.18 z m 32.86,-55.98 c -17.5,0.21 -30.91,6.44 -39.16,21.14 -7.82,13.92 -4.73,27.53 2.94,41.17 15.49,-0.04 28.81,-3.99 37.09,-17.74 8.73,-14.49 7.42,-29.22 -0.87,-44.57" /><path
         id="path354"
         style="fill:#f36380;fill-opacity:1;fill-rule:evenodd;stroke:none"
         d="m 2179.12,2208.46 c 12.76,0.71 23.24,5.99 29.94,17.49 6.45,11.08 4.8,22.09 -1.11,32.62 -27.94,0.11 -42.55,-24.98 -28.83,-50.11 z m -4.18,-5.89 c -8.27,15.25 -9.65,29.95 -0.97,44.48 8.25,13.78 21.54,17.79 37.14,17.84 7.7,-13.51 10.77,-27.12 3.03,-41.05 -8.19,-14.74 -21.61,-20.99 -39.2,-21.27" /><path
         id="path356"
         style="fill:#f36380;fill-opacity:1;fill-rule:evenodd;stroke:none"
         d="m 2721.27,2258.35 c -13.91,-21.94 0.62,-44.7 22.49,-49.28 3.97,-0.83 7.28,-0.72 9,4.07 8.69,24.2 -7.35,47.75 -31.49,45.21 z m 32.33,-55.01 c -31.51,-2.27 -52.08,26.94 -39.19,55.41 2.17,4.8 4.98,6.42 10.22,6.03 30.82,-2.31 46.19,-34.71 28.97,-61.44" /><path
         id="path358"
         style="fill:#f36380;fill-opacity:1;fill-rule:evenodd;stroke:none"
         d="m 121.34,2713.11 c 12.683,25.54 -2.277,50.48 -29.0353,49.28 -13.5547,-23.56 1.043,-48.91 29.0353,-49.28 z m -31.6134,55.74 c 14.7264,0.02 28.0004,-4.05 36.2114,-17.84 8.671,-14.53 7.265,-29.22 -0.989,-44.44 -16.66,0.09 -29.656,6.2 -38.8552,20.34 -6.6485,10.21 -6.1836,30.7 3.6328,41.94" /><path
         id="path360"
         style="fill:#f36380;fill-opacity:1;fill-rule:evenodd;stroke:none"
         d="m 559.824,1956.33 c 5.742,12.59 6.531,24.68 -0.742,36.44 -6.543,10.56 -16.98,13.78 -28.328,14.55 -13.195,-25.26 -0.859,-47.26 29.07,-50.99 z m -32.617,56.28 c 38.301,0.96 49.211,-32.48 39.148,-55.54 -3.015,-6.9 -3.562,-7.31 -10.73,-6.26 -29.805,4.4 -46.582,33.22 -28.418,61.8" /><path
         id="path362"
         style="fill:#f36380;fill-opacity:1;fill-rule:evenodd;stroke:none"
         d="m 864.297,1956.67 c 28.887,2.29 42.48,26.69 28.535,50.08 -27.48,-0.37 -41.699,-24.84 -28.535,-50.08 z m 31.902,56.04 c 18.149,-27.75 2.278,-57.21 -28.047,-61.86 -7.3,-1.13 -7.879,-0.71 -10.867,6 -10.019,22.47 -0.066,56.33 38.914,55.86" /><path
         id="path364"
         style="fill:#f36380;fill-opacity:1;fill-rule:evenodd;stroke:none"
         d="m 1740.32,1956.34 c 12.82,0.72 23.14,5.67 30.01,16.6 7.13,11.34 5.41,22.72 -0.54,33.78 -27.59,-0.15 -41.21,-22.55 -29.47,-50.38 z m 31.69,56.77 c 18.63,-26.45 3.99,-58.2 -29.07,-62.59 -5.13,-0.68 -7.29,1.57 -9.21,5.87 -9.02,20.14 -2.61,51 29.61,55.86 2.99,0.45 6.02,0.6 8.67,0.86" /><path
         id="path366"
         style="fill:#f36380;fill-opacity:1;fill-rule:evenodd;stroke:none"
         d="m 2312.03,1956.76 c 12.92,25.5 -1.54,50.1 -28.76,49.89 -13.66,-23.81 0.05,-48.11 28.76,-49.89 z m -32.01,55.69 c 37.21,1.82 49.5,-31.69 38.9,-55.93 -2.15,-4.93 -4.81,-6.66 -10.16,-5.86 -32.06,4.74 -46.71,35.74 -28.74,61.79" /><path
         id="path368"
         style="fill:#f36380;fill-opacity:1;fill-rule:evenodd;stroke:none"
         d="m 2645.64,369.859 c 13.96,22.571 -0.49,44.59 -21.42,49.403 -6.97,1.597 -8.49,0.789 -10.52,-5.91 -6.54,-21.571 5.99,-44.141 31.94,-43.493 z m 3.44,-5.711 c -35.34,-1.968 -49.88,29.454 -39.36,55.231 2.22,5.473 5.32,6.98 10.94,6.281 26.18,-3.211 47.95,-30.359 28.42,-61.512" /><path
         id="path370"
         style="fill:#f36380;fill-opacity:1;fill-rule:evenodd;stroke:none"
         d="m 2616.87,1956.75 c 28.73,1.8 42.43,26.07 28.78,49.92 -27.24,0.14 -41.66,-24.35 -28.78,-49.92 z m 32.13,56.43 c 7.81,-13.13 10.81,-26.43 3.95,-40.26 -6.99,-14.04 -19.47,-20.47 -34.63,-22.48 -4.86,-0.64 -6.5,2.2 -8.18,5.9 -9.1,20.02 -2.8,51 29.48,55.9 2.99,0.46 6.02,0.6 9.38,0.94" /><path
         id="path372"
         style="fill:#f36380;fill-opacity:1;fill-rule:evenodd;stroke:none"
         d="m 122.102,1199.37 c 5.488,11.96 6.011,24.1 -1.418,35.66 -6.621,10.32 -16.739,14.12 -28.391,13.79 -12.8789,-25.57 2.3945,-50.88 29.809,-49.45 z m -32.7739,55.44 c 13.9339,0.1 26.7269,-3.42 35.3129,-15.82 8.894,-12.85 8.914,-26.7 3.179,-40.99 -1.914,-4.77 -4.949,-5.73 -9.59,-5.24 -27.5464,2.91 -48.7261,31.17 -28.9019,62.05" /><path
         id="path374"
         style="fill:#f36380;fill-opacity:1;fill-rule:evenodd;stroke:none"
         d="m 529.855,1501.44 c -5.878,-11.92 -7.265,-23.29 0.282,-34.4 6.992,-10.31 16.914,-15.16 28.906,-15.6 13.457,25.39 -1.277,50.48 -29.188,50 z m -2.968,6.37 c 15.515,-0.07 28.843,-3.96 37.129,-17.72 8.718,-14.49 7.41,-29.21 -0.793,-44.46 -16.289,-0.35 -29.473,5.47 -38.203,19.26 -9.051,14.31 -6.114,28.56 1.867,42.92" /><path
         id="path376"
         style="fill:#f36380;fill-opacity:1;fill-rule:evenodd;stroke:none"
         d="m 864.668,1451.37 c 12.687,0.89 23.254,5.96 29.922,17.55 6.387,11.11 4.758,22.09 -1.192,32.6 -27.96,-0.03 -42.578,-25.26 -28.73,-50.15 z m 32.129,55.69 c 16.152,-27.04 3,-53.61 -24.59,-60.53 -10.73,-2.69 -13.113,-1.18 -16.406,9.25 -8.758,27.84 10.371,54.6 40.996,51.28" /><path
         id="path378"
         style="fill:#f36380;fill-opacity:1;fill-rule:evenodd;stroke:none"
         d="m 1406.93,1501.6 c -13.86,-22.23 0.2,-44.47 21.43,-49.38 6.95,-1.61 8.5,-0.78 10.51,5.91 6.72,22.39 -6.8,44.3 -31.94,43.47 z m 31.8,-56.06 c -14.88,-0.08 -27.57,5.23 -36.49,17.92 -8.75,12.43 -7.51,25.6 -1.94,39 1.98,4.74 5.07,5.54 9.67,5.23 30.82,-2.13 46.15,-34.17 28.76,-62.15" /><path
         id="path380"
         style="fill:#f36380;fill-opacity:1;fill-rule:evenodd;stroke:none"
         d="m 121.953,189.27 c 0.969,2.5 2.356,5.21 3.067,8.101 4.968,20.078 -6.68,38.301 -26.1919,41.16 -6.4765,0.949 -7.5664,0.289 -9.7929,-5.922 -8.0391,-22.398 8.2421,-44.398 32.9178,-43.339 z m 2.61,-6.059 c -31.5669,-2.172 -52.0825,27 -39.1607,55.437 2.1758,4.821 5.0079,6.391 10.2227,6 30.84,-2.328 46.191,-34.75 28.938,-61.437" /><path
         id="path382"
         style="fill:#f36380;fill-opacity:1;fill-rule:evenodd;stroke:none"
         d="m 454.871,238.578 c -28.055,-0.699 -42.558,-26.277 -28.641,-49.437 27.024,-0.5 41.883,24.668 28.641,49.437 z m 3.598,6.223 c 7.625,-13.653 10.73,-27.27 2.918,-41.192 -8.262,-14.687 -21.66,-20.918 -38.867,-21.129 -8.457,14.09 -9.825,28.418 -2.2,42.801 7.961,15 21.797,19.418 38.149,19.52" /><path
         id="path384"
         style="fill:#f36380;fill-opacity:1;fill-rule:evenodd;stroke:none"
         d="m 968.484,238.469 c -12.742,-25.278 2.493,-50.528 29.075,-49.207 13.341,23.988 -1.297,49.238 -29.075,49.207 z m -3.191,5.801 c 34.937,2.128 50.017,-29.071 39.397,-55.188 -2.22,-5.461 -5.264,-7.062 -10.913,-6.344 -26.922,3.481 -47.672,30.961 -28.484,61.532" /><path
         id="path386"
         style="fill:#f36380;fill-opacity:1;fill-rule:evenodd;stroke:none"
         d="m 1331.31,238.238 c -21.33,2.75 -39.8,-17.609 -32.08,-43.25 1.99,-6.617 3.6,-7.449 10.57,-5.797 21.47,5.09 35.13,27.52 21.51,49.047 z m -32.42,-54.988 c -17.01,27.051 -1.68,59.16 29.14,61.422 5.29,0.379 8.01,-1.383 10.15,-6.121 12.86,-28.473 -7.89,-57.781 -39.29,-55.301" /><path
         id="path388"
         style="fill:#f36380;fill-opacity:1;fill-rule:evenodd;stroke:none"
         d="m 1873.89,188.922 c 13.02,25.137 -1.71,50.066 -28.73,49.469 -13.97,-23.153 0.47,-48.61 28.73,-49.469 z m 3.76,-6.473 c -17.6,0.27 -30.51,6.813 -39.35,21.18 -5.98,9.723 -5.76,29.492 4.08,41.16 14.67,-0.07 27.97,-4.059 36.21,-17.84 8.69,-14.519 7.32,-29.23 -0.94,-44.5" /><path
         id="path390"
         style="fill:#f36380;fill-opacity:1;fill-rule:evenodd;stroke:none"
         d="m 2179.12,188.359 c 12.79,0.661 23.25,5.993 29.94,17.493 6.45,11.07 4.81,22.078 -1.13,32.617 -27.95,0.07 -42.54,-25.008 -28.81,-50.11 z m 31.76,55.961 c 18.41,-28.679 0.73,-56.929 -27.31,-61.34 -8.36,-1.308 -9.27,-0.66 -12.26,6.969 -10.14,25.801 4.86,56.231 39.57,54.371" /><path
         id="path392"
         style="fill:#f36380;fill-opacity:1;fill-rule:evenodd;stroke:none"
         d="m 2750.37,189 c 12.67,25.582 -2.24,50.441 -29.04,49.289 -13.55,-23.59 1.03,-48.91 29.04,-49.289 z m 3.72,-6.551 c -17.71,0.262 -30.62,6.821 -39.45,21.192 -6.12,9.98 -5.58,29.847 4.1,41.148 14.66,-0.051 27.94,-4.078 36.2,-17.848 8.71,-14.531 7.19,-29.222 -0.85,-44.492" /><path
         id="path394"
         style="fill:#f36380;fill-opacity:1;fill-rule:evenodd;stroke:none"
         d="m 425.801,1199.09 c 27.898,0.18 42.551,25.43 29.16,49.21 -26.668,1.44 -41.68,-23.42 -29.16,-49.21 z m 32.597,55.74 c 7.715,-13.47 10.774,-27.07 3.067,-41.01 -8.164,-14.77 -21.602,-20.98 -38.914,-21.36 -8.41,14.02 -9.875,28.31 -2.317,42.74 7.903,15.02 21.7,19.56 38.164,19.63" /><path
         id="path396"
         style="fill:#f36380;fill-opacity:1;fill-rule:evenodd;stroke:none"
         d="m 1435.68,1429.62 c -28.35,-1.05 -42.62,-26.27 -28.71,-49.55 27.06,-0.53 41.82,24.47 28.71,49.55 z m -32.43,-55.89 c -7.61,13.57 -10.73,27.18 -2.96,41.11 8.23,14.75 21.68,20.87 38.83,21.22 8.56,-14.1 9.9,-28.41 2.29,-42.82 -7.95,-15.02 -21.81,-19.4 -38.16,-19.51" /><path
         id="path398"
         style="fill:#f36380;fill-opacity:1;fill-rule:evenodd;stroke:none"
         d="m 1770.07,1380.13 c 5.5,11.03 7.41,22.3 0.18,33.62 -6.94,10.87 -17.18,15.74 -29.48,16.39 -13.25,-25.78 1.57,-50.77 29.3,-50.01 z m -33.88,55.85 c 16.18,0.1 28.85,-5.19 37.79,-17.88 8.77,-12.44 7.5,-25.61 1.96,-39 -1.96,-4.72 -5.04,-5.58 -9.65,-5.26 -24.61,1.7 -40.68,23.03 -35.29,47.46 1.07,4.88 3.33,9.49 5.19,14.68" /><path
         id="path400"
         style="fill:#f36380;fill-opacity:1;fill-rule:evenodd;stroke:none"
         d="m 2645.04,997.32 c -12.22,-1.16 -23.2,-4.91 -29.24,-17.011 -5.71,-11.457 -5.04,-22.829 0.72,-33.809 29.57,2.68 43.1,27.148 28.52,50.82 z m 3.78,5.12 c 18.2,-26.088 3.34,-57.639 -29.59,-61.979 -5.16,-0.68 -7.28,1.641 -9.17,5.918 -10.69,24.23 1.5,57.691 38.76,56.061" /><path
         id="path402"
         style="fill:#f36380;fill-opacity:1;fill-rule:evenodd;stroke:none"
         d="m 2282.77,996.609 c -5.95,-11.07 -7.66,-22.449 -0.5,-33.781 6.88,-10.879 17.16,-15.887 29.58,-16.469 13.13,25.77 -1.29,50.352 -29.08,50.25 z m -2.71,6.061 c 39.14,0.37 48.87,-33.619 38.86,-55.94 -2.98,-6.64 -3.59,-7.07 -10.91,-5.941 -30.44,4.731 -46.09,34.359 -27.95,61.881" /><path
         id="path404"
         style="fill:#f36380;fill-opacity:1;fill-rule:evenodd;stroke:none"
         d="m 1768.71,997.32 c -12.23,-1.16 -23.21,-4.91 -29.24,-17 -5.72,-11.461 -5.08,-22.832 0.73,-33.82 29.56,2.691 43.06,27.121 28.51,50.82 z m 3.88,5.31 c 18.31,-28.321 1.71,-57.778 -29.17,-62.091 -4.86,-0.687 -7.46,0.801 -9.51,5.332 -10.67,23.57 0.07,57.419 38.68,56.759" /><path
         id="path406"
         style="fill:#f36380;fill-opacity:1;fill-rule:evenodd;stroke:none"
         d="m 893.723,370.07 c 5.496,11.008 7.41,22.282 0.203,33.61 -6.934,10.89 -17.196,15.73 -29.492,16.379 -13.282,-25.707 1.523,-50.688 29.289,-49.989 z m -40.852,33.481 c 1.68,5.847 3.289,11.719 5.051,17.551 1.172,3.867 3.914,4.859 7.891,4.75 29.167,-0.84 47.312,-32.442 33.289,-57.911 -2.032,-3.691 -4.59,-4.339 -8.301,-4.203 -21.836,0.821 -37.52,17.492 -37.93,39.813" /><path
         id="path408"
         style="fill:#f36380;fill-opacity:1;fill-rule:evenodd;stroke:none"
         d="m 1436.33,946.789 c 5.47,11.481 6.29,23.199 -0.26,34.82 -6.36,11.332 -17.09,14.711 -28.82,15.692 -13.79,-24.992 0.17,-49.352 29.08,-50.512 z m -32.58,55.911 c 38.47,0.25 48.58,-32.528 39.22,-55.091 -3.18,-7.64 -3.89,-8.027 -12.38,-6.597 -29,4.879 -45.14,33.937 -26.84,61.688" /><path
         id="path410"
         style="fill:#f36380;fill-opacity:1;fill-rule:evenodd;stroke:none"
         d="m 892.551,997.281 c -12.258,-1.043 -23.254,-4.75 -29.336,-16.812 -5.774,-11.43 -5.344,-22.828 0.769,-33.84 29.082,2.07 42.696,26.351 28.567,50.652 z m 3.726,5.309 c 18.286,-28.442 1.543,-57.809 -29.285,-62.07 -4.902,-0.668 -7.441,0.929 -9.465,5.429 -10.672,23.77 0.364,57.461 38.75,56.641" /><path
         id="path412"
         style="fill:#f36380;fill-opacity:1;fill-rule:evenodd;stroke:none"
         d="m 139.941,683.059 c 8.575,-11.848 19.278,-18.25 33.582,-16.918 11.477,1.078 18.79,8.238 24.739,16.98 -17.356,23.301 -40.703,23.16 -58.321,-0.062 z m 64.922,0.222 c -7.761,-12.89 -17.715,-22.351 -33.281,-22.84 -16.941,-0.543 -29.082,8.09 -38.555,22.641 8.125,13.52 19.336,21.949 35.293,22.789 17.09,0.91 27.969,-8.691 36.543,-22.59" /><path
         id="path414"
         style="fill:#f36380;fill-opacity:1;fill-rule:evenodd;stroke:none"
         d="m 406.965,683.488 c -17.856,23.242 -43.567,22.852 -57.356,-0.418 14.864,-23.109 41.211,-23.16 57.356,0.418 z m -64.563,-0.508 c 19.102,30.739 54.59,30.45 71.321,-0.351 -8.274,-13.559 -20.09,-22 -36.516,-22.207 -16.102,-0.223 -26.445,9.308 -34.805,22.558" /><path
         id="path416"
         style="fill:#f36380;fill-opacity:1;fill-rule:evenodd;stroke:none"
         d="m 1283.29,683.551 c -17.98,23.179 -43.96,22.687 -57.31,-0.59 15.06,-23.012 41.46,-22.961 57.31,0.59 z m -64.52,-0.571 c 18.97,30.711 54.34,30.469 71.31,-0.308 -8.24,-13.582 -20.06,-22.024 -36.48,-22.25 -16.09,-0.242 -26.47,9.238 -34.83,22.558" /><path
         id="path418"
         style="fill:#f36380;fill-opacity:1;fill-rule:evenodd;stroke:none"
         d="m 1950.63,683.309 c -16.29,23.273 -41.67,23.132 -57.45,0.043 14.73,-23.114 41.39,-23.422 57.45,-0.043 z m -64.59,-0.539 c 18,30.859 52.97,30.89 71.33,0.191 -7.9,-13.121 -18.44,-22.832 -34.96,-22.531 -16.38,0.289 -28.15,8.82 -36.37,22.34" /><path
         id="path420"
         style="fill:#f36380;fill-opacity:1;fill-rule:evenodd;stroke:none"
         d="m 1741.05,1451.35 c 13.52,1.02 24.36,6.74 30.85,19.41 5.35,10.44 3.58,22.98 -3.89,31.09 -27.4,-2.27 -40.65,-26.2 -26.96,-50.5 z m 31.85,56.47 c 7.73,-13.49 10.8,-27.1 3.08,-41.03 -8.19,-14.75 -21.6,-21 -38.95,-21.29 -8.36,13.98 -9.84,28.28 -2.26,42.69 7.9,15.05 21.73,19.5 38.13,19.63" /><path
         id="path422"
         style="fill:#f36380;fill-opacity:1;fill-rule:evenodd;stroke:none"
         d="m 2283.01,1501.49 c -12.77,-25.23 2.48,-50.52 29.06,-49.19 13.36,23.93 -1.32,49.27 -29.06,49.19 z m -3.19,5.84 c 35.36,1.96 49.91,-29.48 39.37,-55.25 -2.25,-5.49 -5.34,-6.99 -10.95,-6.27 -26.76,3.42 -47.7,30.88 -28.42,61.52" /><path
         id="path424"
         style="fill:#f36380;fill-opacity:1;fill-rule:evenodd;stroke:none"
         d="m 2645.23,1502.06 c -12.34,-0.62 -23.18,-4.51 -29.27,-16.48 -5.78,-11.35 -5.47,-22.72 0.59,-33.65 28.55,0.89 42.94,26.29 28.68,50.13 z m 4.09,5.74 c 7.65,-13.59 10.73,-27.21 2.93,-41.14 -8.25,-14.72 -21.66,-20.9 -38.84,-21.14 -8.52,14.08 -9.87,28.42 -2.24,42.8 7.96,14.99 21.8,19.43 38.15,19.48" /><path
         id="path426"
         style="fill:#f36380;fill-opacity:1;fill-rule:evenodd;stroke:none"
         d="m 2751.05,1199.25 c 5.53,11.87 6.12,23.93 -1.19,35.58 -6.56,10.47 -16.81,14 -28.32,14.18 -13.4,-25.19 1.55,-50.43 29.51,-49.76 z m 2.58,-5.96 c -31.48,-2.34 -52.11,26.9 -39.23,55.37 2.16,4.77 4.94,6.45 10.2,6.06 30.84,-2.31 46.17,-34.56 29.03,-61.43" /><path
         id="path428"
         style="fill:#f36380;fill-opacity:1;fill-rule:evenodd;stroke:none"
         d="m 2179.12,1198.34 c 12.72,0.8 23.21,6.03 29.92,17.53 6.47,11.07 4.83,22.08 -1.1,32.64 -27.85,0.19 -42.47,-24.87 -28.82,-50.17 z m 31.79,56.02 c 19.15,-30.29 -1.26,-57.98 -28.41,-61.55 -5.61,-0.73 -8.69,0.77 -10.94,6.27 -10.55,25.73 3.99,57.24 39.35,55.28" /><path
         id="path430"
         style="fill:#f36380;fill-opacity:1;fill-rule:evenodd;stroke:none"
         d="m 1844.83,1248.52 c -12.74,-25.25 2.51,-50.54 29.07,-49.2 13.35,23.95 -1.32,49.26 -29.07,49.2 z m -3.59,6.26 c 15.94,0.02 29.21,-4.07 37.4,-17.87 8.65,-14.53 7.26,-29.2 -1,-44.36 -15.9,-0.06 -28.93,5.37 -37.7,18.67 -9.34,14.16 -6.68,28.5 1.3,43.56" /><path
         id="path432"
         style="fill:#f36380;fill-opacity:1;fill-rule:evenodd;stroke:none"
         d="m 1331.11,1248.64 c -23.81,0.84 -38.39,-19.34 -32.21,-42.56 2.05,-7.69 3.97,-8.69 11.83,-6.61 20.75,5.48 34.03,27.37 20.38,49.17 z m -32.16,-55.36 c -17.15,26.86 -1.83,59.13 29,61.44 5.25,0.39 8.05,-1.26 10.21,-6.04 12.89,-28.46 -7.69,-57.66 -39.21,-55.4" /><path
         id="path434"
         style="fill:#f36380;fill-opacity:1;fill-rule:evenodd;stroke:none"
         d="m 2159.66,683.43 c -17.61,23.242 -43.16,22.949 -57.39,-0.25 14.6,-23.18 40.94,-23.34 57.39,0.25 z m 7.24,-0.071 c -8.9,-14.39 -20.75,-22.789 -37.17,-22.937 -16.12,-0.152 -26.4,9.406 -34.68,22.687 7.65,12.821 17.41,22.172 33.04,22.762 17.07,0.641 29.14,-7.902 38.81,-22.512" /><path
         id="path436"
         style="fill:#f36380;fill-opacity:1;fill-rule:evenodd;stroke:none"
         d="m 530.496,996.82 c -13.023,-25.269 1.34,-49.738 28.664,-49.859 13.778,23.578 -0.273,48.519 -28.664,49.859 z m -3.641,5.63 c 38.204,1.44 49.981,-32.29 39.231,-56.188 -1.684,-3.731 -3.359,-6.524 -8.215,-5.871 -15.156,2.007 -27.637,8.449 -34.609,22.507 -6.836,13.813 -3.848,27.114 3.593,39.552" /><path
         id="path438"
         style="fill:#f36380;fill-opacity:1;fill-rule:evenodd;stroke:none"
         d="m 968.691,2762.65 c -14.05,-22.87 1.028,-45.2 22.579,-49.64 4.804,-1 7.625,0.32 9.23,5.29 7,21.78 -5.5,45.25 -31.809,44.35 z m -3.41,5.74 c 35.059,2.11 49.989,-29.19 39.419,-55.18 -2.22,-5.44 -5.259,-7.08 -10.911,-6.35 -26.875,3.46 -47.695,30.91 -28.508,61.53" /><path
         id="path440"
         style="fill:#f36380;fill-opacity:1;fill-rule:evenodd;stroke:none"
         d="m 1331.73,2762.52 c -27.78,0.44 -42.45,-24.48 -29.09,-50 12.41,0.48 22.59,5.57 29.49,16.44 7.15,11.29 5.46,22.57 -0.4,33.56 z m -33.12,-55.95 c -8.29,15.29 -9.65,30 -0.95,44.52 8.25,13.79 21.56,17.74 37.11,17.83 7.69,-13.59 10.76,-27.19 2.99,-41.12 -8.21,-14.73 -21.62,-20.96 -39.15,-21.23" /><path
         id="path442"
         style="fill:#f36380;fill-opacity:1;fill-rule:evenodd;stroke:none"
         d="m 2769.56,1693.3 c 15.4,-23.59 44.31,-23.32 57.11,0.54 -16.26,22.87 -41.78,22.63 -57.11,-0.54 z m 64.39,0.01 c -8.32,-13.39 -18.61,-22.96 -34.71,-22.83 -16.43,0.12 -28.28,8.52 -37.17,22.82 8.36,13.5 19.58,21.94 35.63,22.65 16.66,0.73 27.4,-8.6 36.25,-22.64" /><path
         id="path444"
         style="fill:#f36380;fill-opacity:1;fill-rule:evenodd;stroke:none"
         d="m 2159.41,1693.48 c -16.09,23.03 -41.34,23.12 -57.23,0.18 13.61,-23.73 42.32,-23.83 57.23,-0.18 z m -64.21,-0.35 c 18.63,30.61 53.67,30.49 71.32,-0.41 -8.54,-13.75 -20.58,-22.4 -37.46,-22.22 -16.03,0.16 -26.27,9.76 -33.86,22.63" /><path
         id="path446"
         style="fill:#f36380;fill-opacity:1;fill-rule:evenodd;stroke:none"
         d="m 1225.62,1693.41 c 15.89,-23.42 42.46,-23.18 57.41,-0.07 -15.51,23.14 -40.99,23.35 -57.41,0.07 z m 64.91,-0.04 c -8.86,-14.33 -20.71,-22.74 -37.13,-22.89 -16.11,-0.16 -26.41,9.4 -34.69,22.67 7.64,12.84 17.4,22.2 33.03,22.77 17.02,0.61 29.19,-7.78 38.79,-22.55" /><path
         id="path448"
         style="fill:#f36380;fill-opacity:1;fill-rule:evenodd;stroke:none"
         d="m 1074,1693.46 c -15.05,23.01 -40.28,23.12 -57.22,0.23 14.26,-23.66 43.05,-23.78 57.22,-0.23 z m 7.31,-0.11 c -8.42,-13.48 -18.72,-23.03 -34.83,-22.87 -16.42,0.15 -28.26,8.55 -37.09,22.83 8.38,13.54 19.64,21.94 35.69,22.64 16.69,0.73 27.33,-8.74 36.23,-22.6" /><path
         id="path450"
         style="fill:#f36380;fill-opacity:1;fill-rule:evenodd;stroke:none"
         d="m 530.41,491.199 c -13.933,-22.008 0.735,-44.73 22.5,-49.258 3.985,-0.82 7.278,-0.722 9.004,4.071 8.535,23.629 -6.797,47.668 -31.504,45.187 z m 32.813,-55.758 c -17.676,0.278 -30.887,6.618 -39.344,21.231 -6.984,12.047 -5.449,27.148 3.816,41.019 14.844,0.028 28.125,-3.992 36.375,-17.75 8.723,-14.519 7.219,-29.211 -0.847,-44.5" /><path
         id="path452"
         style="fill:#f36380;fill-opacity:1;fill-rule:evenodd;stroke:none"
         d="m 997.52,1198.96 c 13.08,25.07 -1.629,50.01 -28.68,49.49 -14.055,-23.06 0.379,-48.56 28.68,-49.49 z m 3.78,-6.43 c -17.53,0.23 -30.941,6.47 -39.171,21.19 -7.781,13.93 -4.68,27.53 2.969,41.15 15.527,-0.1 28.855,-4.04 37.112,-17.81 8.71,-14.51 7.37,-29.22 -0.91,-44.53" /><path
         id="path454"
         style="fill:#f36380;fill-opacity:1;fill-rule:evenodd;stroke:none"
         d="m 1874.79,2713.43 c 5.48,11.95 6.01,24.09 -1.41,35.66 -6.63,10.32 -16.76,14.12 -28.4,13.79 -12.89,-25.56 2.4,-50.88 29.81,-49.45 z m -32.83,55.41 c 14.35,0.16 27.37,-3.61 35.89,-16.57 8.61,-13.06 8.28,-26.95 2.27,-41.09 -1.9,-4.46 -5.11,-4.75 -9.13,-4.34 -27.4,2.78 -48.84,30.87 -29.03,62" /><path
         id="path456"
         style="fill:#f36380;fill-opacity:1;fill-rule:evenodd;stroke:none"
         d="m 1406.41,491.32 c -6.09,-11.031 -7.56,-22.359 -0.39,-33.601 6.89,-10.848 17.11,-15.867 29.48,-16.36 13.13,25.903 -1.66,50.801 -29.09,49.961 z m 33.16,-55.429 c -23.65,-0.141 -41.12,13.73 -43.36,33.519 -0.91,8.031 1.08,15.512 4.05,22.918 1.91,4.711 4.98,5.633 9.63,5.313 24.24,-1.661 40.13,-22.211 35.61,-46.43 -0.5,-2.66 -1.29,-5.32 -2.28,-7.852 -0.96,-2.5 -2.34,-4.839 -3.65,-7.468" /><path
         id="path458"
         style="fill:#f36380;fill-opacity:1;fill-rule:evenodd;stroke:none"
         d="m 1768.96,492 c -12.33,-0.602 -23.16,-4.449 -29.31,-16.398 -5.83,-11.34 -5.46,-22.723 0.51,-33.68 28.42,0.668 42.87,25.949 28.8,50.078 z m 3.89,5.02 c 18.96,-29.461 -0.86,-57.649 -28.35,-61.149 -7.65,-0.98 -8.45,-0.41 -11.33,6.969 -10.91,27.961 7.44,57.519 39.68,54.18" /><path
         id="path460"
         style="fill:#f36380;fill-opacity:1;fill-rule:evenodd;stroke:none"
         d="m 1950.35,1693.44 c -14.99,23.05 -40.25,23.17 -57.22,0.26 14.18,-23.67 43,-23.81 57.22,-0.26 z m 7.19,-0.1 c -8.01,-13.27 -18.29,-22.8 -34.36,-22.86 -16.46,-0.06 -28.3,8.44 -37.46,22.69 8.16,13.5 19.36,21.95 35.34,22.76 17.08,0.87 27.93,-8.72 36.48,-22.59" /><path
         id="path462"
         style="fill:#f36380;fill-opacity:1;fill-rule:evenodd;stroke:none"
         d="m 140.227,1693.49 c 16.453,-23.6 42.781,-23.44 57.39,-0.26 -14.219,23.21 -39.765,23.5 -57.39,0.26 z m 64.628,-0.15 c -8.007,-13.27 -18.292,-22.82 -34.347,-22.86 -16.445,-0.04 -28.36,8.37 -37.449,22.72 8.132,13.47 19.324,21.92 35.32,22.73 17.082,0.87 27.93,-8.72 36.476,-22.59" /><path
         id="path464"
         style="fill:#f36380;fill-opacity:1;fill-rule:evenodd;stroke:none"
         d="m 2769.47,683.559 c 14.49,-23.629 43.26,-23.68 57.24,-0.09 -15.29,22.992 -40.56,23.019 -57.24,0.09 z m 64.21,-0.629 c -7.89,-13.141 -18.47,-22.821 -34.97,-22.5 -16.4,0.32 -28.14,8.859 -36.35,22.39 18.27,30.852 53.23,30.84 71.32,0.11" /><path
         id="path466"
         style="fill:#f36380;fill-opacity:1;fill-rule:evenodd;stroke:none"
         d="m 1016.55,683.379 c 16.75,-23.617 43.05,-23.391 57.43,-0.109 -14.59,23.152 -39.98,23.351 -57.43,0.109 z m -6.96,-0.559 c 18.82,30.961 53.69,30.852 71.35,0.051 -7.44,-12.48 -17.42,-21.949 -32.97,-22.41 -16.89,-0.512 -29.16,7.918 -38.38,22.359" /></g></g></svg>