<?xml version="1.0" encoding="utf-8"?>
<svg id="master-artboard" viewBox="0 0 328 328" version="1.1" xmlns="http://www.w3.org/2000/svg" x="0px" y="0px" width="328px" height="328px" enable-background="new 0 0 328 328">

    <path d="M 759.348999 421.054993 H 1087.496002 V 749.201996 H 759.348999 V 421.054993 Z" fill-rule="evenodd" clip-rule="evenodd" fill="#99CCCC"
          transform="matrix(1, 0, 0, 1, -759.3456420898438, -421.3139953613281)"/>
    <path fill-rule="evenodd" clip-rule="evenodd" fill="#FEFEFE"
          d="M759.549,464.027c2.095-20.424,11.301-15.446,17.469-21.067&#10;&#9;&#9;&#9;c0.154-0.141,0.3-0.289,0.447-0.442c-0.196,3.491-0.41,7.089-1.75,10.667c-1.363,3.638-3.845,6.371-6.877,8.184&#10;&#9;&#9;&#9;C766.057,463.031,762.816,463.92,759.549,464.027L759.549,464.027z"
          transform="matrix(1, 0, 0, 1, -759.3456420898438, -421.3139953613281)"/>
    <path fill-rule="evenodd" clip-rule="evenodd" fill="#FEFEFE"
          d="M759.549,573.411c2.095-20.43,11.301-15.449,17.469-21.07&#10;&#9;&#9;&#9;c0.154-0.14,0.3-0.288,0.447-0.444c-0.196,3.497-0.41,7.091-1.75,10.666c-1.363,3.642-3.845,6.375-6.877,8.186&#10;&#9;&#9;&#9;C766.057,572.413,762.816,573.302,759.549,573.411L759.549,573.411z"
          transform="matrix(1, 0, 0, 1, -759.3456420898438, -421.3139953613281)"/>
    <path fill-rule="evenodd" clip-rule="evenodd" fill="#FEFEFE"
          d="M777.465,508.975c-0.146-0.154-0.293-0.302-0.447-0.441&#10;&#9;&#9;&#9;c-6.168-5.622-15.374-0.643-17.469-21.071c3.267,0.11,6.508,1,9.289,2.661c3.033,1.813,5.514,4.546,6.877,8.184&#10;&#9;&#9;&#9;c1.34,3.578,1.554,7.173,1.75,10.668V508.975z"
          transform="matrix(1, 0, 0, 1, -759.3456420898438, -421.3139953613281)"/>
    <path fill-rule="evenodd" clip-rule="evenodd" fill="#FEFEFE"
          d="M795.925,497.207c0.146,0.154,0.293,0.303,0.445,0.443&#10;&#9;&#9;&#9;c6.171,5.623,15.378,0.643,17.47,21.07c-3.267-0.109-6.508-0.996-9.288-2.659c-3.032-1.815-5.515-4.545-6.878-8.186&#10;&#9;&#9;&#9;C796.339,504.296,796.121,500.702,795.925,497.207L795.925,497.207z"
          transform="matrix(1, 0, 0, 1, -759.3456420898438, -421.3139953613281)"/>
    <path fill-rule="evenodd" clip-rule="evenodd" fill="#FEFEFE"
          d="M814.239,518.718c2.094-20.426,11.303-15.446,17.47-21.069&#10;&#9;&#9;&#9;c0.155-0.141,0.301-0.288,0.447-0.442c-0.195,3.494-0.41,7.089-1.75,10.667c-1.363,3.642-3.847,6.372-6.876,8.186&#10;&#9;&#9;&#9;c-2.781,1.661-6.024,2.55-9.292,2.659V518.718z"
          transform="matrix(1, 0, 0, 1, -759.3456420898438, -421.3139953613281)"/>
    <path fill-rule="evenodd" clip-rule="evenodd" fill="#FEFEFE"
          d="M813.841,432.772c-2.092,20.429-11.3,15.449-17.47,21.072&#10;&#9;&#9;&#9;c-0.153,0.136-0.299,0.288-0.445,0.442c0.196-3.496,0.41-7.092,1.75-10.668c1.363-3.643,3.844-6.373,6.878-8.184&#10;&#9;&#9;&#9;c2.781-1.664,6.021-2.551,9.288-2.661V432.772z"
          transform="matrix(1, 0, 0, 1, -759.3456420898438, -421.3139953613281)"/>
    <path fill-rule="evenodd" clip-rule="evenodd" fill="#FEFEFE"
          d="M832.157,454.287c-0.144-0.155-0.292-0.306-0.447-0.442&#10;&#9;&#9;&#9;c-6.167-5.623-15.376-0.644-17.47-21.071c3.267,0.11,6.51,0.997,9.292,2.661c3.03,1.81,5.513,4.543,6.876,8.184&#10;&#9;&#9;&#9;C831.747,447.194,831.962,450.792,832.157,454.287z"
          transform="matrix(1, 0, 0, 1, -759.3456420898438, -421.3139953613281)"/>
    <path fill-rule="evenodd" clip-rule="evenodd" fill="#FEFEFE"
          d="M850.615,442.517c0.147,0.154,0.293,0.303,0.447,0.443&#10;&#9;&#9;&#9;c6.168,5.62,15.376,0.643,17.471,21.067c-3.267-0.106-6.511-0.996-9.291-2.658c-3.03-1.813-5.514-4.544-6.875-8.184&#10;&#9;&#9;&#9;C851.028,449.606,850.811,446.01,850.615,442.517L850.615,442.517z"
          transform="matrix(1, 0, 0, 1, -759.3456420898438, -421.3139953613281)"/>
    <path fill-rule="evenodd" clip-rule="evenodd" fill="#FEFEFE"
          d="M868.932,464.027c2.092-20.424,11.3-15.446,17.47-21.067&#10;&#9;&#9;&#9;c0.153-0.141,0.301-0.289,0.445-0.442c-0.195,3.491-0.41,7.089-1.752,10.667c-1.361,3.638-3.844,6.371-6.875,8.184&#10;&#9;&#9;&#9;C875.439,463.031,872.199,463.92,868.932,464.027L868.932,464.027z"
          transform="matrix(1, 0, 0, 1, -759.3456420898438, -421.3139953613281)"/>
    <path fill-rule="evenodd" clip-rule="evenodd" fill="#FEFEFE"
          d="M759.549,682.792c2.095-20.425,11.301-15.447,17.469-21.068&#10;&#9;&#9;&#9;c0.154-0.139,0.3-0.288,0.447-0.442c-0.196,3.492-0.41,7.089-1.75,10.664c-1.363,3.644-3.845,6.375-6.877,8.187&#10;&#9;&#9;&#9;C766.057,681.795,762.816,682.684,759.549,682.792L759.549,682.792z"
          transform="matrix(1, 0, 0, 1, -759.3456420898438, -421.3139953613281)"/>
    <path fill-rule="evenodd" clip-rule="evenodd" fill="#FEFEFE"
          d="M777.465,618.361c-0.146-0.156-0.293-0.305-0.447-0.444&#10;&#9;&#9;&#9;c-6.168-5.624-15.374-0.643-17.469-21.071c3.267,0.109,6.508,1,9.289,2.661c3.033,1.813,5.514,4.546,6.877,8.184&#10;&#9;&#9;&#9;C777.055,611.269,777.269,614.864,777.465,618.361L777.465,618.361z"
          transform="matrix(1, 0, 0, 1, -759.3456420898438, -421.3139953613281)"/>
    <path fill-rule="evenodd" clip-rule="evenodd" fill="#FEFEFE"
          d="M795.925,606.586c0.146,0.156,0.293,0.308,0.445,0.446&#10;&#9;&#9;&#9;c6.171,5.621,15.378,0.645,17.47,21.069c-3.267-0.109-6.508-0.995-9.288-2.658c-3.032-1.816-5.515-4.544-6.878-8.187&#10;&#9;&#9;&#9;C796.339,613.678,796.121,610.084,795.925,606.586L795.925,606.586z"
          transform="matrix(1, 0, 0, 1, -759.3456420898438, -421.3139953613281)"/>
    <path fill-rule="evenodd" clip-rule="evenodd" fill="#FEFEFE"
          d="M814.239,628.101c2.094-20.428,11.303-15.446,17.47-21.069&#10;&#9;&#9;&#9;c0.155-0.138,0.301-0.289,0.447-0.445c-0.195,3.497-0.41,7.092-1.75,10.669c-1.363,3.643-3.847,6.373-6.876,8.187&#10;&#9;&#9;&#9;C820.75,627.104,817.506,627.993,814.239,628.101L814.239,628.101z"
          transform="matrix(1, 0, 0, 1, -759.3456420898438, -421.3139953613281)"/>
    <path fill-rule="evenodd" clip-rule="evenodd" fill="#FEFEFE"
          d="M813.841,542.155c-2.092,20.426-11.3,15.449-17.47,21.071&#10;&#9;&#9;&#9;c-0.153,0.137-0.299,0.288-0.445,0.445c0.196-3.498,0.41-7.094,1.75-10.671c1.363-3.641,3.844-6.372,6.878-8.186&#10;&#9;&#9;&#9;C807.333,543.154,810.574,542.266,813.841,542.155L813.841,542.155z"
          transform="matrix(1, 0, 0, 1, -759.3456420898438, -421.3139953613281)"/>
    <path fill-rule="evenodd" clip-rule="evenodd" fill="#FEFEFE"
          d="M832.157,563.671c-0.144-0.156-0.292-0.305-0.447-0.444&#10;&#9;&#9;&#9;c-6.167-5.624-15.376-0.646-17.47-21.071c3.267,0.109,6.51,1,9.292,2.659c3.03,1.813,5.513,4.546,6.876,8.186&#10;&#9;&#9;&#9;C831.747,556.576,831.962,560.174,832.157,563.671L832.157,563.671z"
          transform="matrix(1, 0, 0, 1, -759.3456420898438, -421.3139953613281)"/>
    <path fill-rule="evenodd" clip-rule="evenodd" fill="#FEFEFE"
          d="M850.615,551.896c0.147,0.156,0.293,0.306,0.447,0.445&#10;&#9;&#9;&#9;c6.168,5.621,15.376,0.639,17.471,21.07c-3.267-0.111-6.511-0.998-9.291-2.661c-3.03-1.813-5.514-4.544-6.875-8.186&#10;&#9;&#9;&#9;C851.028,558.988,850.811,555.394,850.615,551.896L850.615,551.896z"
          transform="matrix(1, 0, 0, 1, -759.3456420898438, -421.3139953613281)"/>
    <path fill-rule="evenodd" clip-rule="evenodd" fill="#FEFEFE"
          d="M868.932,573.411c2.092-20.43,11.3-15.449,17.47-21.07&#10;&#9;&#9;&#9;c0.153-0.14,0.301-0.288,0.445-0.444c-0.195,3.497-0.41,7.091-1.752,10.666c-1.361,3.642-3.844,6.375-6.875,8.186&#10;&#9;&#9;&#9;C875.439,572.413,872.199,573.302,868.932,573.411L868.932,573.411z"
          transform="matrix(1, 0, 0, 1, -759.3456420898438, -421.3139953613281)"/>
    <path fill-rule="evenodd" clip-rule="evenodd" fill="#FEFEFE"
          d="M868.533,487.463c-2.095,20.428-11.303,15.451-17.471,21.071&#10;&#9;&#9;&#9;c-0.152,0.139-0.301,0.288-0.447,0.443c0.196-3.496,0.412-7.09,1.753-10.668c1.36-3.64,3.844-6.371,6.875-8.184&#10;&#9;&#9;&#9;C862.024,488.463,865.266,487.574,868.533,487.463L868.533,487.463z"
          transform="matrix(1, 0, 0, 1, -759.3456420898438, -421.3139953613281)"/>
    <path fill-rule="evenodd" clip-rule="evenodd" fill="#FEFEFE"
          d="M886.847,508.975c-0.144-0.154-0.293-0.302-0.446-0.441&#10;&#9;&#9;&#9;c-6.169-5.622-15.378-0.643-17.47-21.071c3.267,0.11,6.507,1,9.288,2.661c3.031,1.813,5.514,4.546,6.875,8.184&#10;&#9;&#9;&#9;c1.342,3.578,1.557,7.173,1.752,10.668L886.847,508.975z"
          transform="matrix(1, 0, 0, 1, -759.3456420898438, -421.3139953613281)"/>
    <path fill-rule="evenodd" clip-rule="evenodd" fill="#FEFEFE"
          d="M905.308,497.207c0.146,0.154,0.293,0.303,0.444,0.443&#10;&#9;&#9;&#9;c6.172,5.623,15.379,0.643,17.471,21.07c-3.267-0.109-6.507-0.996-9.288-2.659c-3.032-1.815-5.514-4.545-6.877-8.186&#10;&#9;&#9;&#9;c-1.339-3.578-1.555-7.173-1.752-10.667L905.308,497.207z"
          transform="matrix(1, 0, 0, 1, -759.3456420898438, -421.3139953613281)"/>
    <path fill-rule="evenodd" clip-rule="evenodd" fill="#FEFEFE"
          d="M923.622,518.718c2.093-20.426,11.302-15.446,17.47-21.069&#10;&#9;&#9;&#9;c0.151-0.141,0.304-0.288,0.45-0.442c-0.195,3.494-0.416,7.089-1.755,10.667c-1.363,3.642-3.846,6.372-6.876,8.186&#10;&#9;&#9;&#9;c-2.777,1.661-6.021,2.55-9.289,2.659V518.718z"
          transform="matrix(1, 0, 0, 1, -759.3456420898438, -421.3139953613281)"/>
    <path fill-rule="evenodd" clip-rule="evenodd" fill="#FEFEFE"
          d="M923.223,432.772c-2.092,20.429-11.3,15.449-17.471,21.072&#10;&#9;&#9;&#9;c-0.152,0.136-0.298,0.288-0.446,0.442c0.198-3.496,0.412-7.092,1.752-10.668c1.363-3.643,3.844-6.373,6.877-8.184&#10;&#9;&#9;&#9;c2.782-1.664,6.021-2.551,9.288-2.661V432.772z"
          transform="matrix(1, 0, 0, 1, -759.3456420898438, -421.3139953613281)"/>
    <path fill-rule="evenodd" clip-rule="evenodd" fill="#FEFEFE"
          d="M941.543,454.287c-0.146-0.155-0.299-0.306-0.45-0.442&#10;&#9;&#9;&#9;c-6.167-5.623-15.377-0.644-17.47-21.071c3.268,0.11,6.512,0.997,9.289,2.661c3.031,1.81,5.512,4.543,6.876,8.184&#10;&#9;&#9;&#9;C941.127,447.194,941.348,450.792,941.543,454.287z"
          transform="matrix(1, 0, 0, 1, -759.3456420898438, -421.3139953613281)"/>
    <path fill-rule="evenodd" clip-rule="evenodd" fill="#FEFEFE"
          d="M959.997,442.517c0.149,0.154,0.294,0.303,0.446,0.443&#10;&#9;&#9;&#9;c6.172,5.62,15.382,0.643,17.474,21.067c-3.265-0.106-6.511-0.996-9.293-2.658c-3.031-1.813-5.513-4.544-6.876-8.184&#10;&#9;&#9;&#9;C960.408,449.606,960.194,446.01,959.997,442.517L959.997,442.517z"
          transform="matrix(1, 0, 0, 1, -759.3456420898438, -421.3139953613281)"/>
    <path fill-rule="evenodd" clip-rule="evenodd" fill="#FEFEFE"
          d="M978.317,464.027c2.092-20.424,11.299-15.446,17.469-21.067&#10;&#9;&#9;&#9;c0.152-0.141,0.297-0.289,0.444-0.442c-0.194,3.491-0.411,7.089-1.748,10.667c-1.365,3.638-3.848,6.371-6.879,8.184&#10;&#9;&#9;&#9;C984.824,463.031,981.581,463.92,978.317,464.027L978.317,464.027z"
          transform="matrix(1, 0, 0, 1, -759.3456420898438, -421.3139953613281)"/>
    <path fill-rule="evenodd" clip-rule="evenodd" fill="#FEFEFE"
          d="M777.465,727.744c-0.146-0.156-0.293-0.307-0.447-0.446&#10;&#9;&#9;&#9;c-6.168-5.62-15.374-0.641-17.469-21.066c3.267,0.107,6.508,0.996,9.289,2.659c3.033,1.813,5.514,4.544,6.877,8.183&#10;&#9;&#9;&#9;C777.055,720.654,777.269,724.246,777.465,727.744L777.465,727.744z"
          transform="matrix(1, 0, 0, 1, -759.3456420898438, -421.3139953613281)"/>
    <path fill-rule="evenodd" clip-rule="evenodd" fill="#FEFEFE"
          d="M795.925,715.972c0.146,0.153,0.293,0.303,0.445,0.441&#10;&#9;&#9;&#9;c6.171,5.624,15.378,0.644,17.47,21.074c-3.267-0.115-6.508-1.004-9.288-2.664c-3.032-1.812-5.515-4.544-6.878-8.186&#10;&#9;&#9;&#9;C796.339,723.062,796.121,719.465,795.925,715.972L795.925,715.972z"
          transform="matrix(1, 0, 0, 1, -759.3456420898438, -421.3139953613281)"/>
    <path fill-rule="evenodd" clip-rule="evenodd" fill="#FEFEFE"
          d="M814.239,737.485c2.094-20.428,11.303-15.447,17.47-21.071&#10;&#9;&#9;&#9;c0.155-0.139,0.301-0.288,0.447-0.441c-0.195,3.492-0.41,7.09-1.75,10.665c-1.363,3.641-3.847,6.375-6.876,8.186&#10;&#9;&#9;&#9;c-2.781,1.66-6.024,2.55-9.292,2.664V737.485z"
          transform="matrix(1, 0, 0, 1, -759.3456420898438, -421.3139953613281)"/>
    <path fill-rule="evenodd" clip-rule="evenodd" fill="#FEFEFE"
          d="M813.841,651.535c-2.092,20.43-11.3,15.451-17.47,21.074&#10;&#9;&#9;&#9;c-0.153,0.137-0.299,0.288-0.445,0.443c0.196-3.496,0.41-7.092,1.75-10.669c1.363-3.639,3.844-6.372,6.878-8.184&#10;&#9;&#9;&#9;C807.333,652.535,810.574,651.648,813.841,651.535L813.841,651.535z"
          transform="matrix(1, 0, 0, 1, -759.3456420898438, -421.3139953613281)"/>
    <path fill-rule="evenodd" clip-rule="evenodd" fill="#FEFEFE"
          d="M832.157,673.052c-0.144-0.156-0.292-0.306-0.447-0.443&#10;&#9;&#9;&#9;c-6.167-5.624-15.376-0.643-17.47-21.073c3.267,0.113,6.51,1,9.292,2.663c3.03,1.812,5.513,4.546,6.876,8.184&#10;&#9;&#9;&#9;C831.747,665.959,831.962,669.556,832.157,673.052z"
          transform="matrix(1, 0, 0, 1, -759.3456420898438, -421.3139953613281)"/>
    <path fill-rule="evenodd" clip-rule="evenodd" fill="#FEFEFE"
          d="M850.615,661.279c0.147,0.156,0.293,0.306,0.447,0.445&#10;&#9;&#9;&#9;c6.168,5.621,15.376,0.644,17.471,21.068c-3.267-0.107-6.511-0.996-9.291-2.659c-3.03-1.813-5.514-4.543-6.875-8.187&#10;&#9;&#9;&#9;c-1.34-3.577-1.557-7.172-1.753-10.664V661.279z"
          transform="matrix(1, 0, 0, 1, -759.3456420898438, -421.3139953613281)"/>
    <path fill-rule="evenodd" clip-rule="evenodd" fill="#FEFEFE"
          d="M868.932,682.792c2.092-20.425,11.3-15.447,17.47-21.068&#10;&#9;&#9;&#9;c0.153-0.139,0.301-0.288,0.445-0.442c-0.195,3.492-0.41,7.089-1.752,10.664c-1.361,3.644-3.844,6.375-6.875,8.187&#10;&#9;&#9;&#9;C875.439,681.795,872.199,682.684,868.932,682.792L868.932,682.792z"
          transform="matrix(1, 0, 0, 1, -759.3456420898438, -421.3139953613281)"/>
    <path fill-rule="evenodd" clip-rule="evenodd" fill="#FEFEFE"
          d="M868.533,596.845c-2.095,20.427-11.303,15.448-17.471,21.071&#10;&#9;&#9;&#9;c-0.152,0.14-0.301,0.288-0.447,0.445c0.196-3.498,0.412-7.092,1.753-10.67c1.36-3.639,3.844-6.371,6.875-8.184&#10;&#9;&#9;&#9;C862.024,597.844,865.266,596.956,868.533,596.845L868.533,596.845z"
          transform="matrix(1, 0, 0, 1, -759.3456420898438, -421.3139953613281)"/>
    <path fill-rule="evenodd" clip-rule="evenodd" fill="#FEFEFE"
          d="M886.847,618.361c-0.144-0.156-0.293-0.305-0.446-0.444&#10;&#9;&#9;&#9;c-6.169-5.624-15.378-0.643-17.47-21.071c3.267,0.109,6.507,1,9.288,2.661c3.031,1.813,5.514,4.546,6.875,8.184&#10;&#9;&#9;&#9;C886.437,611.269,886.652,614.864,886.847,618.361L886.847,618.361z"
          transform="matrix(1, 0, 0, 1, -759.3456420898438, -421.3139953613281)"/>
    <path fill-rule="evenodd" clip-rule="evenodd" fill="#FEFEFE"
          d="M905.308,606.586c0.146,0.156,0.293,0.308,0.444,0.446&#10;&#9;&#9;&#9;c6.172,5.621,15.379,0.645,17.471,21.069c-3.267-0.109-6.507-0.995-9.288-2.658c-3.032-1.816-5.514-4.544-6.877-8.187&#10;&#9;&#9;&#9;c-1.339-3.578-1.555-7.172-1.752-10.669L905.308,606.586z"
          transform="matrix(1, 0, 0, 1, -759.3456420898438, -421.3139953613281)"/>
    <path fill-rule="evenodd" clip-rule="evenodd" fill="#FEFEFE"
          d="M923.622,628.101c2.093-20.428,11.302-15.446,17.47-21.069&#10;&#9;&#9;&#9;c0.151-0.138,0.304-0.289,0.45-0.445c-0.195,3.497-0.416,7.092-1.755,10.669c-1.363,3.643-3.846,6.373-6.876,8.187&#10;&#9;&#9;&#9;C930.134,627.104,926.89,627.993,923.622,628.101L923.622,628.101z"
          transform="matrix(1, 0, 0, 1, -759.3456420898438, -421.3139953613281)"/>
    <path fill-rule="evenodd" clip-rule="evenodd" fill="#FEFEFE"
          d="M923.223,542.155c-2.092,20.426-11.3,15.449-17.471,21.071&#10;&#9;&#9;&#9;c-0.152,0.137-0.298,0.288-0.446,0.445c0.198-3.498,0.412-7.094,1.752-10.671c1.363-3.641,3.844-6.372,6.877-8.186&#10;&#9;&#9;&#9;C916.717,543.154,919.956,542.266,923.223,542.155L923.223,542.155z"
          transform="matrix(1, 0, 0, 1, -759.3456420898438, -421.3139953613281)"/>
    <path fill-rule="evenodd" clip-rule="evenodd" fill="#FEFEFE"
          d="M941.543,563.671c-0.146-0.156-0.299-0.305-0.45-0.444&#10;&#9;&#9;&#9;c-6.167-5.624-15.377-0.646-17.47-21.071c3.268,0.109,6.512,1,9.289,2.659c3.031,1.813,5.512,4.546,6.876,8.186&#10;&#9;&#9;&#9;C941.127,556.576,941.348,560.174,941.543,563.671L941.543,563.671z"
          transform="matrix(1, 0, 0, 1, -759.3456420898438, -421.3139953613281)"/>
    <path fill-rule="evenodd" clip-rule="evenodd" fill="#FEFEFE"
          d="M959.997,551.896c0.149,0.156,0.294,0.306,0.446,0.445&#10;&#9;&#9;&#9;c6.172,5.621,15.382,0.639,17.474,21.07c-3.265-0.111-6.511-0.998-9.293-2.661c-3.031-1.813-5.513-4.544-6.876-8.186&#10;&#9;&#9;&#9;C960.408,558.988,960.194,555.394,959.997,551.896L959.997,551.896z"
          transform="matrix(1, 0, 0, 1, -759.3456420898438, -421.3139953613281)"/>
    <path fill-rule="evenodd" clip-rule="evenodd" fill="#FEFEFE"
          d="M978.317,573.411c2.092-20.43,11.299-15.449,17.469-21.07&#10;&#9;&#9;&#9;c0.152-0.14,0.297-0.288,0.444-0.444c-0.194,3.497-0.411,7.091-1.748,10.666c-1.365,3.642-3.848,6.375-6.879,8.186&#10;&#9;&#9;&#9;C984.824,572.413,981.581,573.302,978.317,573.411L978.317,573.411z"
          transform="matrix(1, 0, 0, 1, -759.3456420898438, -421.3139953613281)"/>
    <path fill-rule="evenodd" clip-rule="evenodd" fill="#FEFEFE"
          d="M977.917,487.463c-2.092,20.428-11.302,15.451-17.474,21.071&#10;&#9;&#9;&#9;c-0.151,0.139-0.297,0.288-0.446,0.443c0.197-3.496,0.41-7.09,1.75-10.668c1.363-3.64,3.845-6.371,6.876-8.184&#10;&#9;&#9;&#9;C971.405,488.463,974.651,487.574,977.917,487.463L977.917,487.463z"
          transform="matrix(1, 0, 0, 1, -759.3456420898438, -421.3139953613281)"/>
    <path fill-rule="evenodd" clip-rule="evenodd" fill="#FEFEFE"
          d="M996.229,508.975c-0.142-0.154-0.292-0.302-0.444-0.441&#10;&#9;&#9;&#9;c-6.17-5.622-15.377-0.643-17.469-21.071c3.265,0.11,6.506,1,9.286,2.661c3.036,1.813,5.513,4.546,6.879,8.184&#10;&#9;&#9;&#9;c1.338,3.578,1.554,7.173,1.748,10.668V508.975z"
          transform="matrix(1, 0, 0, 1, -759.3456420898438, -421.3139953613281)"/>
    <path fill-rule="evenodd" clip-rule="evenodd" fill="#FEFEFE"
          d="M1014.69,497.207c0.146,0.154,0.293,0.303,0.444,0.443&#10;&#9;&#9;&#9;c6.174,5.623,15.377,0.643,17.474,21.07c-3.269-0.109-6.511-0.996-9.291-2.659c-3.031-1.815-5.513-4.545-6.878-8.186&#10;&#9;&#9;&#9;C1015.102,504.296,1014.885,500.702,1014.69,497.207L1014.69,497.207z"
          transform="matrix(1, 0, 0, 1, -759.3456420898438, -421.3139953613281)"/>
    <path fill-rule="evenodd" clip-rule="evenodd" fill="#FEFEFE"
          d="M1033.005,518.718c2.094-20.426,11.299-15.446,17.467-21.069&#10;&#9;&#9;&#9;c0.156-0.141,0.304-0.288,0.45-0.442c-0.194,3.494-0.411,7.089-1.75,10.667c-1.363,3.642-3.845,6.372-6.876,8.186&#10;&#9;&#9;&#9;c-2.781,1.661-6.021,2.55-9.291,2.659L1033.005,518.718z"
          transform="matrix(1, 0, 0, 1, -759.3456420898438, -421.3139953613281)"/>
    <path fill-rule="evenodd" clip-rule="evenodd" fill="#FEFEFE"
          d="M1032.608,432.772c-2.096,20.429-11.304,15.449-17.474,21.072&#10;&#9;&#9;&#9;c-0.151,0.136-0.297,0.288-0.444,0.442c0.195-3.496,0.411-7.092,1.749-10.668c1.365-3.643,3.847-6.373,6.878-8.184&#10;&#9;&#9;&#9;c2.78-1.664,6.021-2.551,9.291-2.661V432.772z"
          transform="matrix(1, 0, 0, 1, -759.3456420898438, -421.3139953613281)"/>
    <path fill-rule="evenodd" clip-rule="evenodd" fill="#FEFEFE"
          d="M1050.922,454.287c-0.145-0.155-0.295-0.306-0.45-0.442&#10;&#9;&#9;&#9;c-6.167-5.623-15.373-0.644-17.467-21.071c3.27,0.11,6.509,0.997,9.291,2.661c3.031,1.81,5.513,4.543,6.876,8.184&#10;&#9;&#9;&#9;C1050.512,447.194,1050.728,450.792,1050.922,454.287z"
          transform="matrix(1, 0, 0, 1, -759.3456420898438, -421.3139953613281)"/>
    <path fill-rule="evenodd" clip-rule="evenodd" fill="#FEFEFE"
          d="M1069.382,442.517c0.141,0.154,0.294,0.303,0.446,0.443&#10;&#9;&#9;&#9;c6.167,5.62,15.377,0.643,17.467,21.067c-3.264-0.106-6.504-0.996-9.286-2.658c-3.035-1.813-5.513-4.544-6.876-8.184&#10;&#9;&#9;&#9;C1069.793,449.606,1069.578,446.01,1069.382,442.517L1069.382,442.517z"
          transform="matrix(1, 0, 0, 1, -759.3456420898438, -421.3139953613281)"/>
    <path fill-rule="evenodd" clip-rule="evenodd" fill="#FEFEFE"
          d="M868.533,706.231c-2.095,20.426-11.303,15.447-17.471,21.067&#10;&#9;&#9;&#9;c-0.152,0.138-0.301,0.29-0.447,0.446c0.196-3.498,0.412-7.09,1.753-10.67c1.36-3.639,3.844-6.37,6.875-8.183&#10;&#9;&#9;&#9;C862.024,707.227,865.266,706.338,868.533,706.231L868.533,706.231z"
          transform="matrix(1, 0, 0, 1, -759.3456420898438, -421.3139953613281)"/>
    <path fill-rule="evenodd" clip-rule="evenodd" fill="#FEFEFE"
          d="M886.847,727.744c-0.144-0.156-0.293-0.307-0.446-0.446&#10;&#9;&#9;&#9;c-6.169-5.62-15.378-0.641-17.47-21.066c3.267,0.107,6.507,0.996,9.288,2.659c3.031,1.813,5.514,4.544,6.875,8.183&#10;&#9;&#9;&#9;C886.437,720.654,886.652,724.246,886.847,727.744L886.847,727.744z"
          transform="matrix(1, 0, 0, 1, -759.3456420898438, -421.3139953613281)"/>
    <path fill-rule="evenodd" clip-rule="evenodd" fill="#FEFEFE"
          d="M905.308,715.972c0.146,0.153,0.293,0.303,0.444,0.441&#10;&#9;&#9;&#9;c6.172,5.624,15.379,0.644,17.471,21.074c-3.267-0.115-6.507-1.004-9.288-2.664c-3.032-1.812-5.514-4.544-6.877-8.186&#10;&#9;&#9;&#9;c-1.339-3.576-1.555-7.173-1.752-10.665L905.308,715.972z"
          transform="matrix(1, 0, 0, 1, -759.3456420898438, -421.3139953613281)"/>
    <path fill-rule="evenodd" clip-rule="evenodd" fill="#FEFEFE"
          d="M923.622,737.485c2.093-20.428,11.302-15.447,17.47-21.071&#10;&#9;&#9;&#9;c0.151-0.139,0.304-0.288,0.45-0.441c-0.195,3.492-0.416,7.09-1.755,10.665c-1.363,3.641-3.846,6.375-6.876,8.186&#10;&#9;&#9;&#9;c-2.777,1.66-6.021,2.55-9.289,2.664V737.485z"
          transform="matrix(1, 0, 0, 1, -759.3456420898438, -421.3139953613281)"/>
    <path fill-rule="evenodd" clip-rule="evenodd" fill="#FEFEFE"
          d="M923.223,651.535c-2.092,20.43-11.3,15.451-17.471,21.074&#10;&#9;&#9;&#9;c-0.152,0.137-0.298,0.288-0.446,0.443c0.198-3.496,0.412-7.092,1.752-10.669c1.363-3.639,3.844-6.372,6.877-8.184&#10;&#9;&#9;&#9;C916.717,652.535,919.956,651.648,923.223,651.535L923.223,651.535z"
          transform="matrix(1, 0, 0, 1, -759.3456420898438, -421.3139953613281)"/>
    <path fill-rule="evenodd" clip-rule="evenodd" fill="#FEFEFE"
          d="M941.543,673.052c-0.146-0.156-0.299-0.306-0.45-0.443&#10;&#9;&#9;&#9;c-6.167-5.624-15.377-0.643-17.47-21.073c3.268,0.113,6.512,1,9.289,2.663c3.031,1.812,5.512,4.546,6.876,8.184&#10;&#9;&#9;&#9;C941.127,665.959,941.348,669.556,941.543,673.052z"
          transform="matrix(1, 0, 0, 1, -759.3456420898438, -421.3139953613281)"/>
    <path fill-rule="evenodd" clip-rule="evenodd" fill="#FEFEFE"
          d="M959.997,661.279c0.149,0.156,0.294,0.306,0.446,0.445&#10;&#9;&#9;&#9;c6.172,5.621,15.382,0.644,17.474,21.068c-3.265-0.107-6.511-0.996-9.293-2.659c-3.031-1.813-5.513-4.543-6.876-8.187&#10;&#9;&#9;&#9;c-1.339-3.577-1.554-7.172-1.75-10.664V661.279z"
          transform="matrix(1, 0, 0, 1, -759.3456420898438, -421.3139953613281)"/>
    <path fill-rule="evenodd" clip-rule="evenodd" fill="#FEFEFE"
          d="M978.317,682.792c2.092-20.425,11.299-15.447,17.469-21.068&#10;&#9;&#9;&#9;c0.152-0.139,0.297-0.288,0.444-0.442c-0.194,3.492-0.411,7.089-1.748,10.664c-1.365,3.644-3.848,6.375-6.879,8.187&#10;&#9;&#9;&#9;C984.824,681.795,981.581,682.684,978.317,682.792L978.317,682.792z"
          transform="matrix(1, 0, 0, 1, -759.3456420898438, -421.3139953613281)"/>
    <path fill-rule="evenodd" clip-rule="evenodd" fill="#FEFEFE"
          d="M977.917,596.845c-2.092,20.427-11.302,15.448-17.474,21.071&#10;&#9;&#9;&#9;c-0.151,0.14-0.297,0.288-0.446,0.445c0.197-3.498,0.41-7.092,1.75-10.67c1.363-3.639,3.845-6.371,6.876-8.184&#10;&#9;&#9;&#9;C971.405,597.844,974.651,596.956,977.917,596.845L977.917,596.845z"
          transform="matrix(1, 0, 0, 1, -759.3456420898438, -421.3139953613281)"/>
    <path fill-rule="evenodd" clip-rule="evenodd" fill="#FEFEFE"
          d="M996.229,618.361c-0.142-0.156-0.292-0.305-0.444-0.444&#10;&#9;&#9;&#9;c-6.17-5.624-15.377-0.643-17.469-21.071c3.265,0.109,6.506,1,9.286,2.661c3.036,1.813,5.513,4.546,6.879,8.184&#10;&#9;&#9;&#9;C995.819,611.269,996.034,614.864,996.229,618.361L996.229,618.361z"
          transform="matrix(1, 0, 0, 1, -759.3456420898438, -421.3139953613281)"/>
    <path fill-rule="evenodd" clip-rule="evenodd" fill="#FEFEFE"
          d="M1014.69,606.586c0.146,0.156,0.293,0.308,0.444,0.446&#10;&#9;&#9;&#9;c6.174,5.621,15.377,0.645,17.474,21.069c-3.269-0.109-6.511-0.995-9.291-2.658c-3.031-1.816-5.513-4.544-6.878-8.187&#10;&#9;&#9;&#9;C1015.102,613.678,1014.885,610.084,1014.69,606.586L1014.69,606.586z"
          transform="matrix(1, 0, 0, 1, -759.3456420898438, -421.3139953613281)"/>
    <path fill-rule="evenodd" clip-rule="evenodd" fill="#FEFEFE"
          d="M1033.005,628.101c2.094-20.428,11.299-15.446,17.467-21.069&#10;&#9;&#9;&#9;c0.156-0.138,0.304-0.289,0.45-0.445c-0.194,3.497-0.411,7.092-1.75,10.669c-1.363,3.643-3.845,6.373-6.876,8.187&#10;&#9;&#9;&#9;C1039.515,627.104,1036.275,627.993,1033.005,628.101L1033.005,628.101z"
          transform="matrix(1, 0, 0, 1, -759.3456420898438, -421.3139953613281)"/>
    <path fill-rule="evenodd" clip-rule="evenodd" fill="#FEFEFE"
          d="M1032.608,542.155c-2.096,20.426-11.304,15.449-17.474,21.071&#10;&#9;&#9;&#9;c-0.151,0.137-0.297,0.288-0.444,0.445c0.195-3.498,0.411-7.094,1.749-10.671c1.365-3.641,3.847-6.372,6.878-8.186&#10;&#9;&#9;&#9;C1026.097,543.154,1029.338,542.266,1032.608,542.155L1032.608,542.155z"
          transform="matrix(1, 0, 0, 1, -759.3456420898438, -421.3139953613281)"/>
    <path fill-rule="evenodd" clip-rule="evenodd" fill="#FEFEFE"
          d="M1050.922,563.671c-0.145-0.156-0.295-0.305-0.45-0.444&#10;&#9;&#9;&#9;c-6.167-5.624-15.373-0.646-17.467-21.071c3.27,0.109,6.509,1,9.291,2.659c3.031,1.813,5.513,4.546,6.876,8.186&#10;&#9;&#9;&#9;C1050.512,556.576,1050.728,560.174,1050.922,563.671L1050.922,563.671z"
          transform="matrix(1, 0, 0, 1, -759.3456420898438, -421.3139953613281)"/>
    <path fill-rule="evenodd" clip-rule="evenodd" fill="#FEFEFE"
          d="M1069.382,551.896c0.141,0.156,0.294,0.306,0.446,0.445&#10;&#9;&#9;&#9;c6.167,5.621,15.377,0.639,17.467,21.07c-3.264-0.111-6.504-0.998-9.286-2.661c-3.035-1.813-5.513-4.544-6.876-8.186&#10;&#9;&#9;&#9;C1069.793,558.988,1069.578,555.394,1069.382,551.896L1069.382,551.896z"
          transform="matrix(1, 0, 0, 1, -759.3456420898438, -421.3139953613281)"/>
    <path fill-rule="evenodd" clip-rule="evenodd" fill="#FEFEFE"
          d="M1087.294,487.463c-2.089,20.428-11.3,15.451-17.467,21.071&#10;&#9;&#9;&#9;c-0.151,0.139-0.304,0.288-0.446,0.443c0.197-3.496,0.411-7.09,1.751-10.668c1.363-3.64,3.841-6.371,6.876-8.184&#10;&#9;&#9;&#9;C1080.79,488.463,1084.029,487.574,1087.294,487.463L1087.294,487.463z"
          transform="matrix(1, 0, 0, 1, -759.3456420898438, -421.3139953613281)"/>
    <path fill-rule="evenodd" clip-rule="evenodd" fill="#FEFEFE"
          d="M977.917,706.231c-2.092,20.426-11.302,15.447-17.474,21.067&#10;&#9;&#9;&#9;c-0.151,0.138-0.297,0.29-0.446,0.446c0.197-3.498,0.41-7.09,1.75-10.67c1.363-3.639,3.845-6.37,6.876-8.183&#10;&#9;&#9;&#9;C971.405,707.227,974.651,706.338,977.917,706.231L977.917,706.231z"
          transform="matrix(1, 0, 0, 1, -759.3456420898438, -421.3139953613281)"/>
    <path fill-rule="evenodd" clip-rule="evenodd" fill="#FEFEFE"
          d="M996.229,727.744c-0.142-0.156-0.292-0.307-0.444-0.446&#10;&#9;&#9;&#9;c-6.17-5.62-15.377-0.641-17.469-21.066c3.265,0.107,6.506,0.996,9.286,2.659c3.036,1.813,5.513,4.544,6.879,8.183&#10;&#9;&#9;&#9;C995.819,720.654,996.034,724.246,996.229,727.744L996.229,727.744z"
          transform="matrix(1, 0, 0, 1, -759.3456420898438, -421.3139953613281)"/>
    <path fill-rule="evenodd" clip-rule="evenodd" fill="#FEFEFE"
          d="M1014.69,715.972c0.146,0.153,0.293,0.303,0.444,0.441&#10;&#9;&#9;&#9;c6.174,5.624,15.377,0.644,17.474,21.074c-3.269-0.115-6.511-1.004-9.291-2.664c-3.031-1.812-5.513-4.544-6.878-8.186&#10;&#9;&#9;&#9;C1015.102,723.062,1014.885,719.465,1014.69,715.972L1014.69,715.972z"
          transform="matrix(1, 0, 0, 1, -759.3456420898438, -421.3139953613281)"/>
    <path fill-rule="evenodd" clip-rule="evenodd" fill="#FEFEFE"
          d="M1033.005,737.485c2.094-20.428,11.299-15.447,17.467-21.071&#10;&#9;&#9;&#9;c0.156-0.139,0.304-0.288,0.45-0.441c-0.194,3.492-0.411,7.09-1.75,10.665c-1.363,3.641-3.845,6.375-6.876,8.186&#10;&#9;&#9;&#9;c-2.781,1.66-6.021,2.55-9.291,2.664L1033.005,737.485z"
          transform="matrix(1, 0, 0, 1, -759.3456420898438, -421.3139953613281)"/>
    <path fill-rule="evenodd" clip-rule="evenodd" fill="#FEFEFE"
          d="M1032.608,651.535c-2.096,20.43-11.304,15.451-17.474,21.074&#10;&#9;&#9;&#9;c-0.151,0.137-0.297,0.288-0.444,0.443c0.195-3.496,0.411-7.092,1.749-10.669c1.365-3.639,3.847-6.372,6.878-8.184&#10;&#9;&#9;&#9;C1026.097,652.535,1029.338,651.648,1032.608,651.535L1032.608,651.535z"
          transform="matrix(1, 0, 0, 1, -759.3456420898438, -421.3139953613281)"/>
    <path fill-rule="evenodd" clip-rule="evenodd" fill="#FEFEFE"
          d="M1050.922,673.052c-0.145-0.156-0.295-0.306-0.45-0.443&#10;&#9;&#9;&#9;c-6.167-5.624-15.373-0.643-17.467-21.073c3.27,0.113,6.509,1,9.291,2.663c3.031,1.812,5.513,4.546,6.876,8.184&#10;&#9;&#9;&#9;C1050.512,665.959,1050.728,669.556,1050.922,673.052z"
          transform="matrix(1, 0, 0, 1, -759.3456420898438, -421.3139953613281)"/>
    <path fill-rule="evenodd" clip-rule="evenodd" fill="#FEFEFE"
          d="M1069.382,661.279c0.141,0.156,0.294,0.306,0.446,0.445&#10;&#9;&#9;&#9;c6.167,5.621,15.377,0.644,17.467,21.068c-3.264-0.107-6.504-0.996-9.286-2.659c-3.035-1.813-5.513-4.543-6.876-8.187&#10;&#9;&#9;&#9;c-1.339-3.577-1.554-7.172-1.751-10.664L1069.382,661.279z"
          transform="matrix(1, 0, 0, 1, -759.3456420898438, -421.3139953613281)"/>
    <path fill-rule="evenodd" clip-rule="evenodd" fill="#FEFEFE"
          d="M1087.294,596.845c-2.089,20.427-11.3,15.448-17.467,21.071&#10;&#9;&#9;&#9;c-0.151,0.14-0.304,0.288-0.446,0.445c0.197-3.498,0.411-7.092,1.751-10.67c1.363-3.639,3.841-6.371,6.876-8.184&#10;&#9;&#9;&#9;C1080.79,597.844,1084.029,596.956,1087.294,596.845L1087.294,596.845z"
          transform="matrix(1, 0, 0, 1, -759.3456420898438, -421.3139953613281)"/>
    <path fill-rule="evenodd" clip-rule="evenodd" fill="#FEFEFE"
          d="M1087.294,706.231c-2.089,20.426-11.3,15.447-17.467,21.067&#10;&#9;&#9;&#9;c-0.151,0.138-0.304,0.29-0.446,0.446c0.197-3.498,0.411-7.09,1.751-10.67c1.363-3.639,3.841-6.37,6.876-8.183&#10;&#9;&#9;&#9;C1080.79,707.227,1084.029,706.338,1087.294,706.231L1087.294,706.231z"
          transform="matrix(1, 0, 0, 1, -759.3456420898438, -421.3139953613281)"/>
    <path fill-rule="evenodd" clip-rule="evenodd" fill="#FEFEFE"
          d="M759.349,452.488c0.655-7.415,6.391-12.51,11.671-17.344&#10;&#9;&#9;&#9;c2.743-2.511,5.362-4.946,7.085-7.601c1.344-2.07,2.018-4.278,2.018-6.488l-20.774-0.001V452.488z"
          transform="matrix(1, 0, 0, 1, -759.3456420898438, -421.3139953613281)"/>
    <path fill-rule="evenodd" clip-rule="evenodd" fill="#FEFEFE"
          d="M759.349,499.006v0.004v62.861&#10;&#9;&#9;&#9;c0.655-7.415,6.391-12.512,11.671-17.346c2.743-2.509,5.362-4.946,7.085-7.598c2.69-4.139,2.69-8.837,0-12.976&#10;&#9;&#9;&#9;c-1.723-2.656-4.342-5.092-7.085-7.6C765.74,511.519,760.004,506.42,759.349,499.006L759.349,499.006z"
          transform="matrix(1, 0, 0, 1, -759.3456420898438, -421.3139953613281)"/>
    <path fill-rule="evenodd" clip-rule="evenodd" fill="#FEFEFE"
          d="M814.042,444.316c-0.655,7.414-6.391,12.51-11.673,17.344&#10;&#9;&#9;&#9;c-2.741,2.507-5.359,4.946-7.085,7.6c-2.69,4.14-2.69,8.835,0,12.974c1.726,2.654,4.344,5.093,7.085,7.6&#10;&#9;&#9;&#9;c5.282,4.831,11.017,9.932,11.672,17.345c0.652-7.415,6.387-12.513,11.669-17.345c2.745-2.508,5.362-4.946,7.087-7.6&#10;&#9;&#9;&#9;c2.688-4.139,2.688-8.834,0-12.974c-1.725-2.655-4.342-5.091-7.087-7.6C820.429,456.825,814.694,451.73,814.042,444.316&#10;&#9;&#9;&#9;L814.042,444.316z"
          transform="matrix(1, 0, 0, 1, -759.3456420898438, -421.3139953613281)"/>
    <path fill-rule="evenodd" clip-rule="evenodd" fill="#FEFEFE"
          d="M847.959,421.055c0,2.21,0.672,4.418,2.016,6.488&#10;&#9;&#9;&#9;c1.725,2.652,4.346,5.091,7.087,7.601c5.282,4.832,11.017,9.93,11.67,17.345c0.655-7.416,6.387-12.511,11.671-17.345&#10;&#9;&#9;&#9;c2.743-2.511,5.362-4.946,7.085-7.601c1.347-2.07,2.018-4.278,2.018-6.488L847.959,421.055z"
          transform="matrix(1, 0, 0, 1, -759.3456420898438, -421.3139953613281)"/>
    <path fill-rule="evenodd" clip-rule="evenodd" fill="#FEFEFE"
          d="M759.349,608.39v0.003v62.861&#10;&#9;&#9;&#9;c0.655-7.415,6.391-12.51,11.671-17.344c2.743-2.51,5.362-4.946,7.085-7.601c2.69-4.14,2.69-8.837,0-12.976&#10;&#9;&#9;&#9;c-1.723-2.654-4.342-5.092-7.085-7.601C765.74,620.898,760.004,615.803,759.349,608.39L759.349,608.39z"
          transform="matrix(1, 0, 0, 1, -759.3456420898438, -421.3139953613281)"/>
    <path fill-rule="evenodd" clip-rule="evenodd" fill="#FEFEFE"
          d="M814.042,553.697c-0.655,7.413-6.391,12.512-11.673,17.345&#10;&#9;&#9;&#9;c-2.741,2.509-5.359,4.947-7.085,7.599c-2.69,4.141-2.69,8.837,0,12.979c1.726,2.651,4.344,5.09,7.085,7.598&#10;&#9;&#9;&#9;c5.282,4.832,11.017,9.932,11.672,17.344c0.652-7.412,6.387-12.51,11.669-17.344c2.745-2.511,5.362-4.946,7.087-7.598&#10;&#9;&#9;&#9;c2.688-4.142,2.688-8.837,0-12.979c-1.725-2.653-4.342-5.089-7.087-7.599C820.429,566.208,814.694,561.11,814.042,553.697&#10;&#9;&#9;&#9;L814.042,553.697z"
          transform="matrix(1, 0, 0, 1, -759.3456420898438, -421.3139953613281)"/>
    <path fill-rule="evenodd" clip-rule="evenodd" fill="#FEFEFE"
          d="M868.732,499.006c-0.652,7.414-6.388,12.513-11.67,17.344&#10;&#9;&#9;&#9;c-2.741,2.508-5.362,4.949-7.087,7.6c-2.688,4.138-2.688,8.837,0,12.976c1.725,2.652,4.346,5.09,7.087,7.598&#10;&#9;&#9;&#9;c5.282,4.834,11.017,9.932,11.67,17.346c0.655-7.415,6.387-12.512,11.671-17.346c2.743-2.509,5.362-4.946,7.085-7.598&#10;&#9;&#9;&#9;c2.691-4.139,2.688-8.837,0-12.976c-1.723-2.656-4.342-5.092-7.085-7.6C875.119,511.519,869.387,506.42,868.732,499.006z"
          transform="matrix(1, 0, 0, 1, -759.3456420898438, -421.3139953613281)"/>
    <path fill-rule="evenodd" clip-rule="evenodd" fill="#FEFEFE"
          d="M923.423,444.316c-0.655,7.414-6.386,12.51-11.672,17.344&#10;&#9;&#9;&#9;c-2.741,2.507-5.362,4.946-7.085,7.6c-2.69,4.14-2.69,8.835,0,12.974c1.723,2.654,4.344,5.093,7.085,7.6&#10;&#9;&#9;&#9;c5.285,4.831,11.016,9.932,11.671,17.345c0.655-7.415,6.388-12.513,11.674-17.345c2.74-2.508,5.359-4.946,7.08-7.6&#10;&#9;&#9;&#9;c2.693-4.139,2.693-8.834,0-12.974c-1.72-2.655-4.34-5.091-7.08-7.6C929.811,456.825,924.073,451.73,923.423,444.316&#10;&#9;&#9;&#9;L923.423,444.316z"
          transform="matrix(1, 0, 0, 1, -759.3456420898438, -421.3139953613281)"/>
    <path fill-rule="evenodd" clip-rule="evenodd" fill="#FEFEFE"
          d="M957.345,421.055c0,2.21,0.668,4.418,2.013,6.488&#10;&#9;&#9;&#9;c1.726,2.652,4.345,5.091,7.087,7.601c5.284,4.832,11.017,9.93,11.672,17.345c0.65-7.416,6.388-12.511,11.666-17.345&#10;&#9;&#9;&#9;c2.743-2.511,5.362-4.946,7.087-7.601c1.345-2.07,2.018-4.278,2.018-6.488L957.345,421.055z"
          transform="matrix(1, 0, 0, 1, -759.3456420898438, -421.3139953613281)"/>
    <path fill-rule="evenodd" clip-rule="evenodd" fill="#FEFEFE"
          d="M759.349,717.77v0.004v31.428h20.774&#10;&#9;&#9;&#9;c0-2.208-0.675-4.419-2.018-6.488c-1.723-2.652-4.342-5.09-7.085-7.598C765.74,730.281,760.004,725.184,759.349,717.77&#10;&#9;&#9;&#9;L759.349,717.77z"
          transform="matrix(1, 0, 0, 1, -759.3456420898438, -421.3139953613281)"/>
    <path fill-rule="evenodd" clip-rule="evenodd" fill="#FEFEFE"
          d="M814.042,663.08c-0.655,7.415-6.391,12.51-11.673,17.344&#10;&#9;&#9;&#9;c-2.741,2.509-5.359,4.947-7.085,7.6c-2.69,4.137-2.69,8.835,0,12.974c1.726,2.654,4.344,5.094,7.085,7.599&#10;&#9;&#9;&#9;c5.282,4.835,11.017,9.932,11.672,17.344c0.652-7.413,6.387-12.509,11.669-17.344c2.745-2.505,5.362-4.945,7.087-7.599&#10;&#9;&#9;&#9;c2.688-4.14,2.688-8.835,0-12.974c-1.725-2.654-4.342-5.091-7.087-7.6C820.429,675.59,814.694,670.495,814.042,663.08&#10;&#9;&#9;&#9;L814.042,663.08z"
          transform="matrix(1, 0, 0, 1, -759.3456420898438, -421.3139953613281)"/>
    <path fill-rule="evenodd" clip-rule="evenodd" fill="#FEFEFE"
          d="M868.732,608.39c-0.652,7.412-6.388,12.509-11.67,17.342&#10;&#9;&#9;&#9;c-2.741,2.509-5.362,4.946-7.087,7.601c-2.688,4.139-2.688,8.837,0,12.976c1.725,2.653,4.346,5.09,7.087,7.601&#10;&#9;&#9;&#9;c5.282,4.833,11.017,9.929,11.67,17.344c0.655-7.415,6.387-12.51,11.671-17.344c2.743-2.51,5.362-4.946,7.085-7.601&#10;&#9;&#9;&#9;c2.691-4.14,2.688-8.837,0-12.976c-1.723-2.654-4.342-5.092-7.085-7.601C875.119,620.898,869.387,615.803,868.732,608.39&#10;&#9;&#9;&#9;L868.732,608.39z"
          transform="matrix(1, 0, 0, 1, -759.3456420898438, -421.3139953613281)"/>
    <path fill-rule="evenodd" clip-rule="evenodd" fill="#FEFEFE"
          d="M923.423,553.697c-0.655,7.413-6.386,12.512-11.672,17.345&#10;&#9;&#9;&#9;c-2.741,2.509-5.362,4.947-7.085,7.599c-2.69,4.141-2.69,8.837,0,12.979c1.723,2.651,4.344,5.09,7.085,7.598&#10;&#9;&#9;&#9;c5.285,4.832,11.016,9.932,11.671,17.344c0.655-7.412,6.388-12.51,11.674-17.344c2.74-2.511,5.359-4.946,7.08-7.598&#10;&#9;&#9;&#9;c2.693-4.142,2.693-8.837,0-12.979c-1.72-2.653-4.34-5.089-7.08-7.599C929.811,566.208,924.073,561.11,923.423,553.697&#10;&#9;&#9;&#9;L923.423,553.697z"
          transform="matrix(1, 0, 0, 1, -759.3456420898438, -421.3139953613281)"/>
    <path fill-rule="evenodd" clip-rule="evenodd" fill="#FEFEFE"
          d="M978.117,499.006c-0.654,7.414-6.389,12.513-11.672,17.344&#10;&#9;&#9;&#9;c-2.742,2.508-5.361,4.949-7.087,7.6c-2.69,4.138-2.69,8.837,0,12.976c1.726,2.652,4.345,5.09,7.087,7.598&#10;&#9;&#9;&#9;c5.284,4.834,11.017,9.932,11.672,17.346c0.65-7.415,6.388-12.512,11.666-17.346c2.743-2.509,5.362-4.946,7.087-7.598&#10;&#9;&#9;&#9;c2.687-4.139,2.687-8.837,0-12.976c-1.725-2.656-4.345-5.092-7.087-7.6C984.505,511.519,978.767,506.42,978.117,499.006&#10;&#9;&#9;&#9;L978.117,499.006z"
          transform="matrix(1, 0, 0, 1, -759.3456420898438, -421.3139953613281)"/>
    <path fill-rule="evenodd" clip-rule="evenodd" fill="#FEFEFE"
          d="M1032.803,444.316c-0.65,7.414-6.389,12.51-11.672,17.344&#10;&#9;&#9;&#9;c-2.738,2.507-5.357,4.946-7.082,7.6c-2.693,4.14-2.694,8.835,0,12.974c1.726,2.654,4.344,5.093,7.082,7.6&#10;&#9;&#9;&#9;c5.284,4.831,11.021,9.932,11.671,17.345c0.655-7.415,6.393-12.513,11.671-17.345c2.743-2.508,5.362-4.946,7.088-7.6&#10;&#9;&#9;&#9;c2.689-4.139,2.689-8.834,0-12.974c-1.725-2.655-4.345-5.091-7.088-7.6C1039.196,456.825,1033.458,451.73,1032.803,444.316&#10;&#9;&#9;&#9;L1032.803,444.316z"
          transform="matrix(1, 0, 0, 1, -759.3456420898438, -421.3139953613281)"/>
    <path fill-rule="evenodd" clip-rule="evenodd" fill="#FEFEFE"
          d="M1066.723,421.055c0,2.21,0.675,4.418,2.019,6.488&#10;&#9;&#9;&#9;c1.721,2.652,4.34,5.091,7.083,7.601c5.283,4.832,11.016,9.93,11.671,17.345v-31.433H1066.723z"
          transform="matrix(1, 0, 0, 1, -759.3456420898438, -421.3139953613281)"/>
    <path fill-rule="evenodd" clip-rule="evenodd" fill="#FEFEFE"
          d="M868.732,717.77c-0.652,7.414-6.388,12.511-11.67,17.346&#10;&#9;&#9;&#9;c-2.741,2.507-5.362,4.946-7.087,7.598c-1.343,2.069-2.016,4.28-2.016,6.488h41.547c0-2.208-0.671-4.419-2.018-6.488&#10;&#9;&#9;&#9;c-1.723-2.652-4.342-5.09-7.085-7.598C875.119,730.281,869.387,725.184,868.732,717.77L868.732,717.77z"
          transform="matrix(1, 0, 0, 1, -759.3456420898438, -421.3139953613281)"/>
    <path fill-rule="evenodd" clip-rule="evenodd" fill="#FEFEFE"
          d="M923.423,663.08c-0.655,7.415-6.386,12.51-11.672,17.344&#10;&#9;&#9;&#9;c-2.741,2.509-5.362,4.947-7.085,7.6c-2.69,4.137-2.69,8.835,0,12.974c1.723,2.654,4.344,5.094,7.085,7.599&#10;&#9;&#9;&#9;c5.285,4.835,11.016,9.932,11.671,17.344c0.655-7.413,6.388-12.509,11.674-17.344c2.74-2.505,5.359-4.945,7.08-7.599&#10;&#9;&#9;&#9;c2.693-4.14,2.693-8.835,0-12.974c-1.72-2.654-4.34-5.091-7.08-7.6C929.811,675.59,924.073,670.495,923.423,663.08L923.423,663.08&#10;&#9;&#9;&#9;z"
          transform="matrix(1, 0, 0, 1, -759.3456420898438, -421.3139953613281)"/>
    <path fill-rule="evenodd" clip-rule="evenodd" fill="#FEFEFE"
          d="M978.117,608.39c-0.654,7.412-6.389,12.509-11.672,17.342&#10;&#9;&#9;&#9;c-2.742,2.509-5.361,4.946-7.087,7.601c-2.69,4.139-2.69,8.837,0,12.976c1.726,2.653,4.345,5.09,7.087,7.601&#10;&#9;&#9;&#9;c5.284,4.833,11.017,9.929,11.672,17.344c0.65-7.415,6.388-12.51,11.666-17.344c2.743-2.51,5.362-4.946,7.087-7.601&#10;&#9;&#9;&#9;c2.687-4.14,2.687-8.837,0-12.976c-1.725-2.654-4.345-5.092-7.087-7.601C984.505,620.898,978.767,615.803,978.117,608.39&#10;&#9;&#9;&#9;L978.117,608.39z"
          transform="matrix(1, 0, 0, 1, -759.3456420898438, -421.3139953613281)"/>
    <path fill-rule="evenodd" clip-rule="evenodd" fill="#FEFEFE"
          d="M1032.803,553.697c-0.65,7.413-6.389,12.512-11.672,17.345&#10;&#9;&#9;&#9;c-2.738,2.509-5.357,4.947-7.082,7.599c-2.693,4.141-2.694,8.837,0,12.979c1.726,2.651,4.344,5.09,7.082,7.598&#10;&#9;&#9;&#9;c5.284,4.832,11.021,9.932,11.671,17.344c0.655-7.412,6.393-12.51,11.671-17.344c2.743-2.511,5.362-4.946,7.088-7.598&#10;&#9;&#9;&#9;c2.689-4.142,2.689-8.837,0-12.979c-1.725-2.653-4.345-5.089-7.088-7.599C1039.196,566.208,1033.458,561.11,1032.803,553.697&#10;&#9;&#9;&#9;L1032.803,553.697z"
          transform="matrix(1, 0, 0, 1, -759.3456420898438, -421.3139953613281)"/>
    <path fill-rule="evenodd" clip-rule="evenodd" fill="#FEFEFE"
          d="M1087.496,499.006c-0.654,7.414-6.388,12.513-11.671,17.344&#10;&#9;&#9;&#9;c-2.742,2.508-5.362,4.949-7.083,7.6c-2.693,4.138-2.693,8.837,0,12.976c1.721,2.652,4.34,5.09,7.083,7.598&#10;&#9;&#9;&#9;c5.283,4.834,11.016,9.932,11.671,17.346V499.006z M1087.496,499.006"
          transform="matrix(1, 0, 0, 1, -759.3456420898438, -421.3139953613281)"/>
    <path fill-rule="evenodd" clip-rule="evenodd" fill="#FEFEFE"
          d="M978.117,717.77c-0.654,7.414-6.389,12.511-11.672,17.346&#10;&#9;&#9;&#9;c-2.742,2.507-5.361,4.946-7.087,7.598c-1.344,2.069-2.013,4.28-2.013,6.488h41.543c0-2.208-0.673-4.419-2.018-6.488&#10;&#9;&#9;&#9;c-1.725-2.652-4.345-5.09-7.087-7.598C984.505,730.281,978.767,725.184,978.117,717.77L978.117,717.77z"
          transform="matrix(1, 0, 0, 1, -759.3456420898438, -421.3139953613281)"/>
    <path fill-rule="evenodd" clip-rule="evenodd" fill="#FEFEFE"
          d="M1032.803,663.08c-0.65,7.415-6.389,12.51-11.672,17.344&#10;&#9;&#9;&#9;c-2.738,2.509-5.357,4.947-7.082,7.6c-2.693,4.137-2.694,8.835,0,12.974c1.726,2.654,4.344,5.094,7.082,7.599&#10;&#9;&#9;&#9;c5.284,4.835,11.021,9.932,11.671,17.344c0.655-7.413,6.393-12.509,11.671-17.344c2.743-2.505,5.362-4.945,7.088-7.599&#10;&#9;&#9;&#9;c2.689-4.14,2.689-8.835,0-12.974c-1.725-2.654-4.345-5.091-7.088-7.6C1039.196,675.59,1033.458,670.495,1032.803,663.08&#10;&#9;&#9;&#9;L1032.803,663.08z"
          transform="matrix(1, 0, 0, 1, -759.3456420898438, -421.3139953613281)"/>
    <path fill-rule="evenodd" clip-rule="evenodd" fill="#FEFEFE"
          d="M1087.496,608.39c-0.654,7.412-6.388,12.509-11.671,17.342&#10;&#9;&#9;&#9;c-2.742,2.509-5.362,4.946-7.083,7.601c-2.693,4.139-2.693,8.837,0,12.976c1.721,2.653,4.34,5.09,7.083,7.601&#10;&#9;&#9;&#9;c5.283,4.833,11.016,9.929,11.671,17.344V608.39z M1087.496,608.39"
          transform="matrix(1, 0, 0, 1, -759.3456420898438, -421.3139953613281)"/>
    <path fill-rule="evenodd" clip-rule="evenodd" fill="#FEFEFE"
          d="M1087.496,717.77c-0.654,7.414-6.388,12.511-11.671,17.346&#10;&#9;&#9;&#9;c-2.742,2.507-5.362,4.946-7.083,7.598c-1.344,2.069-2.02,4.28-2.02,6.488h20.774V717.77z M1087.496,717.77"
          transform="matrix(1, 0, 0, 1, -759.3456420898438, -421.3139953613281)"/>
    <path fill-rule="evenodd" clip-rule="evenodd" fill="#FEFEFE"
          d="M780.811,439.171c0.153-0.148,0.302-0.293,0.442-0.447&#10;&#9;&#9;&#9;c5.621-6.169,0.642-15.377,21.07-17.469c-0.11,3.264-1,6.509-2.661,9.29c-1.813,3.03-4.543,5.513-8.184,6.875&#10;&#9;&#9;&#9;C787.9,438.761,784.306,438.976,780.811,439.171L780.811,439.171z"
          transform="matrix(1, 0, 0, 1, -759.3456420898438, -421.3139953613281)"/>
    <path fill-rule="evenodd" clip-rule="evenodd" fill="#FEFEFE"
          d="M780.811,548.554c0.153-0.147,0.302-0.293,0.442-0.444&#10;&#9;&#9;&#9;c5.621-6.172,0.642-15.38,21.07-17.474c-0.11,3.266-1,6.511-2.661,9.292c-1.813,3.03-4.543,5.512-8.184,6.877&#10;&#9;&#9;&#9;C787.9,548.143,784.306,548.358,780.811,548.554L780.811,548.554z"
          transform="matrix(1, 0, 0, 1, -759.3456420898438, -421.3139953613281)"/>
    <path fill-rule="evenodd" clip-rule="evenodd" fill="#FEFEFE"
          d="M802.323,530.236c-20.428-2.091-15.449-11.299-21.07-17.467&#10;&#9;&#9;&#9;c-0.139-0.154-0.289-0.303-0.442-0.447c3.495,0.196,7.089,0.411,10.667,1.75c3.641,1.363,6.37,3.846,8.184,6.877&#10;&#9;&#9;&#9;c1.664,2.781,2.551,6.021,2.661,9.289V530.236z"
          transform="matrix(1, 0, 0, 1, -759.3456420898438, -421.3139953613281)"/>
    <path fill-rule="evenodd" clip-rule="evenodd" fill="#FEFEFE"
          d="M835.501,493.861c0.156-0.144,0.305-0.293,0.445-0.444&#10;&#9;&#9;&#9;c5.624-6.172,0.642-15.377,21.068-17.471c-0.11,3.267-0.997,6.51-2.659,9.288c-1.814,3.033-4.546,5.513-8.184,6.877&#10;&#9;&#9;&#9;C842.593,493.451,838.998,493.666,835.501,493.861L835.501,493.861z"
          transform="matrix(1, 0, 0, 1, -759.3456420898438, -421.3139953613281)"/>
    <path fill-rule="evenodd" clip-rule="evenodd" fill="#FEFEFE"
          d="M857.013,475.546c-20.426-2.095-15.445-11.298-21.068-17.47&#10;&#9;&#9;&#9;c-0.14-0.151-0.289-0.301-0.445-0.447c3.497,0.194,7.091,0.414,10.669,1.752c3.638,1.364,6.37,3.844,8.184,6.877&#10;&#9;&#9;&#9;C856.016,469.036,856.903,472.28,857.013,475.546L857.013,475.546z"
          transform="matrix(1, 0, 0, 1, -759.3456420898438, -421.3139953613281)"/>
    <path fill-rule="evenodd" clip-rule="evenodd" fill="#FEFEFE"
          d="M771.068,475.946c20.427,2.094,15.449,11.301,21.07,17.471&#10;&#9;&#9;&#9;c0.137,0.15,0.289,0.3,0.444,0.445c-3.496-0.195-7.092-0.409-10.669-1.75c-3.639-1.365-6.371-3.844-8.187-6.877&#10;&#9;&#9;&#9;C772.066,482.456,771.177,479.214,771.068,475.946L771.068,475.946z"
          transform="matrix(1, 0, 0, 1, -759.3456420898438, -421.3139953613281)"/>
    <path fill-rule="evenodd" clip-rule="evenodd" fill="#FEFEFE"
          d="M792.582,457.629c-0.155,0.146-0.308,0.296-0.444,0.447&#10;&#9;&#9;&#9;c-5.621,6.17-0.642,15.38-21.071,17.47c0.111-3.267,1-6.51,2.659-9.288c1.816-3.034,4.548-5.513,8.187-6.877&#10;&#9;&#9;&#9;C785.49,458.043,789.086,457.828,792.582,457.629L792.582,457.629z"
          transform="matrix(1, 0, 0, 1, -759.3456420898438, -421.3139953613281)"/>
    <path fill-rule="evenodd" clip-rule="evenodd" fill="#FEFEFE"
          d="M890.193,439.171c0.153-0.148,0.303-0.293,0.442-0.447&#10;&#9;&#9;&#9;c5.623-6.169,0.644-15.377,21.07-17.469c-0.11,3.264-1,6.509-2.659,9.29c-1.815,3.03-4.545,5.513-8.186,6.875&#10;&#9;&#9;&#9;C897.283,438.761,893.688,438.976,890.193,439.171L890.193,439.171z"
          transform="matrix(1, 0, 0, 1, -759.3456420898438, -421.3139953613281)"/>
    <path fill-rule="evenodd" clip-rule="evenodd" fill="#FEFEFE"
          d="M825.759,421.255c20.426,2.092,15.447,11.301,21.07,17.47&#10;&#9;&#9;&#9;c0.137,0.152,0.289,0.3,0.442,0.448c-3.495-0.198-7.091-0.411-10.666-1.753c-3.641-1.362-6.373-3.844-8.186-6.875&#10;&#9;&#9;&#9;C826.757,427.764,825.87,424.524,825.759,421.255L825.759,421.255z"
          transform="matrix(1, 0, 0, 1, -759.3456420898438, -421.3139953613281)"/>
    <path fill-rule="evenodd" clip-rule="evenodd" fill="#FEFEFE"
          d="M780.811,657.936c0.153-0.147,0.302-0.294,0.442-0.447&#10;&#9;&#9;&#9;c5.621-6.17,0.642-15.378,21.07-17.472c-0.11,3.267-1,6.511-2.661,9.29c-1.813,3.033-4.543,5.515-8.184,6.877&#10;&#9;&#9;&#9;C787.9,657.525,784.306,657.74,780.811,657.936L780.811,657.936z"
          transform="matrix(1, 0, 0, 1, -759.3456420898438, -421.3139953613281)"/>
    <path fill-rule="evenodd" clip-rule="evenodd" fill="#FEFEFE"
          d="M802.323,639.619c-20.428-2.091-15.449-11.3-21.07-17.471&#10;&#9;&#9;&#9;c-0.139-0.15-0.289-0.301-0.442-0.445c3.495,0.196,7.089,0.411,10.667,1.75c3.641,1.363,6.37,3.847,8.184,6.877&#10;&#9;&#9;&#9;C801.326,633.111,802.213,636.352,802.323,639.619L802.323,639.619z"
          transform="matrix(1, 0, 0, 1, -759.3456420898438, -421.3139953613281)"/>
    <path fill-rule="evenodd" clip-rule="evenodd" fill="#FEFEFE"
          d="M835.501,603.247c0.156-0.149,0.305-0.296,0.445-0.447&#10;&#9;&#9;&#9;c5.624-6.17,0.642-15.378,21.068-17.472c-0.11,3.267-0.997,6.511-2.659,9.29c-1.814,3.03-4.546,5.513-8.184,6.877&#10;&#9;&#9;&#9;C842.593,602.833,838.998,603.048,835.501,603.247L835.501,603.247z"
          transform="matrix(1, 0, 0, 1, -759.3456420898438, -421.3139953613281)"/>
    <path fill-rule="evenodd" clip-rule="evenodd" fill="#FEFEFE"
          d="M857.013,584.929c-20.426-2.091-15.445-11.301-21.068-17.47&#10;&#9;&#9;&#9;c-0.14-0.154-0.289-0.301-0.445-0.447c3.497,0.194,7.091,0.413,10.669,1.752c3.638,1.364,6.37,3.844,8.184,6.877&#10;&#9;&#9;&#9;C856.016,578.419,856.903,581.662,857.013,584.929L857.013,584.929z"
          transform="matrix(1, 0, 0, 1, -759.3456420898438, -421.3139953613281)"/>
    <path fill-rule="evenodd" clip-rule="evenodd" fill="#FEFEFE"
          d="M771.068,585.327c20.427,2.092,15.449,11.304,21.07,17.473&#10;&#9;&#9;&#9;c0.137,0.15,0.289,0.299,0.444,0.447c-3.496-0.2-7.092-0.413-10.669-1.752c-3.639-1.365-6.371-3.845-8.187-6.877&#10;&#9;&#9;&#9;C772.066,591.838,771.177,588.596,771.068,585.327L771.068,585.327z"
          transform="matrix(1, 0, 0, 1, -759.3456420898438, -421.3139953613281)"/>
    <path fill-rule="evenodd" clip-rule="evenodd" fill="#FEFEFE"
          d="M792.582,567.01c-0.155,0.148-0.308,0.295-0.444,0.448&#10;&#9;&#9;&#9;c-5.621,6.169-0.642,15.38-21.071,17.47c0.111-3.267,1-6.51,2.659-9.288c1.816-3.034,4.548-5.513,8.187-6.877&#10;&#9;&#9;&#9;c3.577-1.34,7.173-1.557,10.669-1.752V567.01z"
          transform="matrix(1, 0, 0, 1, -759.3456420898438, -421.3139953613281)"/>
    <path fill-rule="evenodd" clip-rule="evenodd" fill="#FEFEFE"
          d="M890.193,548.554c0.153-0.147,0.303-0.293,0.442-0.444&#10;&#9;&#9;&#9;c5.623-6.172,0.644-15.38,21.07-17.474c-0.11,3.266-1,6.511-2.659,9.292c-1.815,3.03-4.545,5.512-8.186,6.877&#10;&#9;&#9;&#9;C897.283,548.143,893.688,548.358,890.193,548.554L890.193,548.554z"
          transform="matrix(1, 0, 0, 1, -759.3456420898438, -421.3139953613281)"/>
    <path fill-rule="evenodd" clip-rule="evenodd" fill="#FEFEFE"
          d="M911.706,530.236c-20.426-2.091-15.448-11.299-21.07-17.467&#10;&#9;&#9;&#9;c-0.14-0.154-0.289-0.303-0.442-0.447c3.495,0.196,7.089,0.411,10.667,1.75c3.641,1.363,6.37,3.846,8.186,6.877&#10;&#9;&#9;&#9;c1.659,2.781,2.549,6.021,2.659,9.289L911.706,530.236z"
          transform="matrix(1, 0, 0, 1, -759.3456420898438, -421.3139953613281)"/>
    <path fill-rule="evenodd" clip-rule="evenodd" fill="#FEFEFE"
          d="M825.759,530.634c20.426,2.095,15.447,11.304,21.07,17.475&#10;&#9;&#9;&#9;c0.137,0.15,0.289,0.297,0.442,0.444c-3.495-0.197-7.091-0.411-10.666-1.749c-3.641-1.365-6.373-3.847-8.186-6.877&#10;&#9;&#9;&#9;c-1.661-2.782-2.548-6.025-2.659-9.292V530.634z"
          transform="matrix(1, 0, 0, 1, -759.3456420898438, -421.3139953613281)"/>
    <path fill-rule="evenodd" clip-rule="evenodd" fill="#FEFEFE"
          d="M847.271,512.321c-0.153,0.145-0.305,0.294-0.442,0.448&#10;&#9;&#9;&#9;c-5.623,6.167-0.645,15.377-21.07,17.469c0.111-3.268,0.997-6.508,2.659-9.289c1.813-3.032,4.545-5.512,8.186-6.877&#10;&#9;&#9;&#9;c3.575-1.339,7.171-1.554,10.666-1.75V512.321z"
          transform="matrix(1, 0, 0, 1, -759.3456420898438, -421.3139953613281)"/>
    <path fill-rule="evenodd" clip-rule="evenodd" fill="#FEFEFE"
          d="M944.88,493.861c0.158-0.144,0.309-0.293,0.446-0.444&#10;&#9;&#9;&#9;c5.625-6.172,0.646-15.377,21.071-17.471c-0.108,3.267-0.999,6.51-2.659,9.288c-1.813,3.033-4.546,5.513-8.188,6.877&#10;&#9;&#9;&#9;C951.971,493.451,948.379,493.666,944.88,493.861L944.88,493.861z"
          transform="matrix(1, 0, 0, 1, -759.3456420898438, -421.3139953613281)"/>
    <path fill-rule="evenodd" clip-rule="evenodd" fill="#FEFEFE"
          d="M966.397,475.546c-20.426-2.095-15.448-11.298-21.072-17.47&#10;&#9;&#9;&#9;c-0.136-0.151-0.288-0.301-0.446-0.447c3.5,0.194,7.091,0.414,10.67,1.752c3.641,1.364,6.374,3.844,8.188,6.877&#10;&#9;&#9;&#9;C965.397,469.036,966.287,472.28,966.397,475.546L966.397,475.546z"
          transform="matrix(1, 0, 0, 1, -759.3456420898438, -421.3139953613281)"/>
    <path fill-rule="evenodd" clip-rule="evenodd" fill="#FEFEFE"
          d="M880.449,475.946c20.428,2.094,15.449,11.301,21.07,17.471&#10;&#9;&#9;&#9;c0.14,0.15,0.289,0.3,0.445,0.445c-3.496-0.195-7.092-0.409-10.669-1.75c-3.641-1.365-6.371-3.844-8.185-6.877&#10;&#9;&#9;&#9;C881.447,482.456,880.56,479.214,880.449,475.946L880.449,475.946z"
          transform="matrix(1, 0, 0, 1, -759.3456420898438, -421.3139953613281)"/>
    <path fill-rule="evenodd" clip-rule="evenodd" fill="#FEFEFE"
          d="M901.964,457.629c-0.156,0.146-0.305,0.296-0.445,0.447&#10;&#9;&#9;&#9;c-5.621,6.17-0.642,15.38-21.07,17.47c0.111-3.267,0.998-6.51,2.661-9.288c1.814-3.034,4.544-5.513,8.185-6.877&#10;&#9;&#9;&#9;C894.872,458.043,898.468,457.828,901.964,457.629L901.964,457.629z"
          transform="matrix(1, 0, 0, 1, -759.3456420898438, -421.3139953613281)"/>
    <path fill-rule="evenodd" clip-rule="evenodd" fill="#FEFEFE"
          d="M999.573,439.171c0.156-0.148,0.307-0.293,0.444-0.447&#10;&#9;&#9;&#9;c5.622-6.169,0.646-15.377,21.071-17.469c-0.111,3.264-0.996,6.509-2.659,9.29c-1.813,3.03-4.544,5.513-8.186,6.875&#10;&#9;&#9;&#9;C1006.665,438.761,1003.068,438.976,999.573,439.171L999.573,439.171z"
          transform="matrix(1, 0, 0, 1, -759.3456420898438, -421.3139953613281)"/>
    <path fill-rule="evenodd" clip-rule="evenodd" fill="#FEFEFE"
          d="M935.139,421.255c20.43,2.092,15.451,11.301,21.07,17.47&#10;&#9;&#9;&#9;c0.142,0.152,0.289,0.3,0.446,0.448c-3.495-0.198-7.091-0.411-10.67-1.753c-3.641-1.362-6.374-3.844-8.181-6.875&#10;&#9;&#9;&#9;C936.141,427.764,935.252,424.524,935.139,421.255L935.139,421.255z"
          transform="matrix(1, 0, 0, 1, -759.3456420898438, -421.3139953613281)"/>
    <path fill-rule="evenodd" clip-rule="evenodd" fill="#FEFEFE"
          d="M802.323,749.005c-20.428-2.094-15.449-11.303-21.07-17.472&#10;&#9;&#9;&#9;c-0.139-0.151-0.289-0.299-0.442-0.446c3.495,0.194,7.089,0.411,10.667,1.751c3.641,1.362,6.37,3.845,8.184,6.878&#10;&#9;&#9;&#9;C801.326,742.493,802.213,745.738,802.323,749.005L802.323,749.005z"
          transform="matrix(1, 0, 0, 1, -759.3456420898438, -421.3139953613281)"/>
    <path fill-rule="evenodd" clip-rule="evenodd" fill="#FEFEFE"
          d="M835.501,712.626c0.156-0.144,0.305-0.293,0.445-0.446&#10;&#9;&#9;&#9;c5.624-6.17,0.642-15.378,21.068-17.471c-0.11,3.268-0.997,6.511-2.659,9.29c-1.814,3.032-4.546,5.513-8.184,6.876&#10;&#9;&#9;&#9;C842.593,712.218,838.998,712.432,835.501,712.626L835.501,712.626z"
          transform="matrix(1, 0, 0, 1, -759.3456420898438, -421.3139953613281)"/>
    <path fill-rule="evenodd" clip-rule="evenodd" fill="#FEFEFE"
          d="M857.013,694.311c-20.426-2.093-15.445-11.299-21.068-17.47&#10;&#9;&#9;&#9;c-0.14-0.152-0.289-0.301-0.445-0.445c3.497,0.196,7.091,0.411,10.669,1.75c3.638,1.364,6.37,3.847,8.184,6.877&#10;&#9;&#9;&#9;C856.016,687.801,856.903,691.045,857.013,694.311L857.013,694.311z"
          transform="matrix(1, 0, 0, 1, -759.3456420898438, -421.3139953613281)"/>
    <path fill-rule="evenodd" clip-rule="evenodd" fill="#FEFEFE"
          d="M771.068,694.71c20.427,2.092,15.449,11.3,21.07,17.471&#10;&#9;&#9;&#9;c0.137,0.153,0.289,0.302,0.444,0.446c-3.496-0.192-7.092-0.409-10.669-1.75c-3.639-1.363-6.371-3.844-8.187-6.876&#10;&#9;&#9;&#9;C772.066,701.221,771.177,697.979,771.068,694.71L771.068,694.71z"
          transform="matrix(1, 0, 0, 1, -759.3456420898438, -421.3139953613281)"/>
    <path fill-rule="evenodd" clip-rule="evenodd" fill="#FEFEFE"
          d="M792.582,676.396c-0.155,0.144-0.308,0.294-0.444,0.445&#10;&#9;&#9;&#9;c-5.621,6.17-0.642,15.377-21.071,17.47c0.111-3.268,1-6.51,2.659-9.289c1.816-3.033,4.548-5.512,8.187-6.877&#10;&#9;&#9;&#9;C785.49,676.808,789.086,676.593,792.582,676.396L792.582,676.396z"
          transform="matrix(1, 0, 0, 1, -759.3456420898438, -421.3139953613281)"/>
    <path fill-rule="evenodd" clip-rule="evenodd" fill="#FEFEFE"
          d="M890.193,657.936c0.153-0.147,0.303-0.294,0.442-0.447&#10;&#9;&#9;&#9;c5.623-6.17,0.644-15.378,21.07-17.472c-0.11,3.267-1,6.511-2.659,9.29c-1.815,3.033-4.545,5.515-8.186,6.877&#10;&#9;&#9;&#9;C897.283,657.525,893.688,657.74,890.193,657.936L890.193,657.936z"
          transform="matrix(1, 0, 0, 1, -759.3456420898438, -421.3139953613281)"/>
    <path fill-rule="evenodd" clip-rule="evenodd" fill="#FEFEFE"
          d="M911.706,639.619c-20.426-2.091-15.448-11.3-21.07-17.471&#10;&#9;&#9;&#9;c-0.14-0.15-0.289-0.301-0.442-0.445c3.495,0.196,7.089,0.411,10.667,1.75c3.641,1.363,6.37,3.847,8.186,6.877&#10;&#9;&#9;&#9;C910.706,633.111,911.595,636.352,911.706,639.619L911.706,639.619z"
          transform="matrix(1, 0, 0, 1, -759.3456420898438, -421.3139953613281)"/>
    <path fill-rule="evenodd" clip-rule="evenodd" fill="#FEFEFE"
          d="M825.759,640.017c20.426,2.095,15.447,11.304,21.07,17.473&#10;&#9;&#9;&#9;c0.137,0.153,0.289,0.3,0.442,0.447c-3.495-0.197-7.091-0.41-10.666-1.752c-3.641-1.362-6.373-3.844-8.186-6.877&#10;&#9;&#9;&#9;C826.757,646.529,825.87,643.289,825.759,640.017L825.759,640.017z"
          transform="matrix(1, 0, 0, 1, -759.3456420898438, -421.3139953613281)"/>
    <path fill-rule="evenodd" clip-rule="evenodd" fill="#FEFEFE"
          d="M847.271,621.703c-0.153,0.145-0.305,0.297-0.442,0.445&#10;&#9;&#9;&#9;c-5.623,6.171-0.645,15.38-21.07,17.471c0.111-3.268,0.997-6.508,2.659-9.289c1.813-3.031,4.545-5.513,8.186-6.877&#10;&#9;&#9;&#9;C840.18,622.114,843.776,621.9,847.271,621.703L847.271,621.703z"
          transform="matrix(1, 0, 0, 1, -759.3456420898438, -421.3139953613281)"/>
    <path fill-rule="evenodd" clip-rule="evenodd" fill="#FEFEFE"
          d="M944.88,603.247c0.158-0.149,0.309-0.296,0.446-0.447&#10;&#9;&#9;&#9;c5.625-6.17,0.646-15.378,21.071-17.472c-0.108,3.267-0.999,6.511-2.659,9.29c-1.813,3.03-4.546,5.513-8.188,6.877&#10;&#9;&#9;&#9;C951.971,602.833,948.379,603.048,944.88,603.247L944.88,603.247z"
          transform="matrix(1, 0, 0, 1, -759.3456420898438, -421.3139953613281)"/>
    <path fill-rule="evenodd" clip-rule="evenodd" fill="#FEFEFE"
          d="M966.397,584.929c-20.426-2.091-15.448-11.301-21.072-17.47&#10;&#9;&#9;&#9;c-0.136-0.154-0.288-0.301-0.446-0.447c3.5,0.194,7.091,0.413,10.67,1.752c3.641,1.364,6.374,3.844,8.188,6.877&#10;&#9;&#9;&#9;C965.397,578.419,966.287,581.662,966.397,584.929L966.397,584.929z"
          transform="matrix(1, 0, 0, 1, -759.3456420898438, -421.3139953613281)"/>
    <path fill-rule="evenodd" clip-rule="evenodd" fill="#FEFEFE"
          d="M880.449,585.327c20.428,2.092,15.449,11.304,21.07,17.473&#10;&#9;&#9;&#9;c0.14,0.15,0.289,0.299,0.445,0.447c-3.496-0.2-7.092-0.413-10.669-1.752c-3.641-1.365-6.371-3.845-8.185-6.877&#10;&#9;&#9;&#9;C881.447,591.838,880.56,588.596,880.449,585.327L880.449,585.327z"
          transform="matrix(1, 0, 0, 1, -759.3456420898438, -421.3139953613281)"/>
    <path fill-rule="evenodd" clip-rule="evenodd" fill="#FEFEFE"
          d="M901.964,567.01c-0.156,0.148-0.305,0.295-0.445,0.448&#10;&#9;&#9;&#9;c-5.621,6.169-0.642,15.38-21.07,17.47c0.111-3.267,0.998-6.51,2.661-9.288c1.814-3.034,4.544-5.513,8.185-6.877&#10;&#9;&#9;&#9;c3.577-1.34,7.173-1.557,10.669-1.752V567.01z"
          transform="matrix(1, 0, 0, 1, -759.3456420898438, -421.3139953613281)"/>
    <path fill-rule="evenodd" clip-rule="evenodd" fill="#FEFEFE"
          d="M999.573,548.554c0.156-0.147,0.307-0.293,0.444-0.444&#10;&#9;&#9;&#9;c5.622-6.172,0.646-15.38,21.071-17.474c-0.111,3.266-0.996,6.511-2.659,9.292c-1.813,3.03-4.544,5.512-8.186,6.877&#10;&#9;&#9;&#9;C1006.665,548.143,1003.068,548.358,999.573,548.554L999.573,548.554z"
          transform="matrix(1, 0, 0, 1, -759.3456420898438, -421.3139953613281)"/>
    <path fill-rule="evenodd" clip-rule="evenodd" fill="#FEFEFE"
          d="M1021.088,530.236c-20.426-2.091-15.45-11.299-21.072-17.467&#10;&#9;&#9;&#9;c-0.136-0.154-0.288-0.303-0.444-0.447c3.495,0.196,7.092,0.411,10.67,1.75c3.642,1.363,6.372,3.846,8.186,6.877&#10;&#9;&#9;&#9;c1.664,2.781,2.548,6.021,2.659,9.289L1021.088,530.236z"
          transform="matrix(1, 0, 0, 1, -759.3456420898438, -421.3139953613281)"/>
    <path fill-rule="evenodd" clip-rule="evenodd" fill="#FEFEFE"
          d="M935.139,530.634c20.43,2.095,15.451,11.304,21.07,17.475&#10;&#9;&#9;&#9;c0.142,0.15,0.289,0.297,0.446,0.444c-3.495-0.197-7.091-0.411-10.67-1.749c-3.641-1.365-6.374-3.847-8.181-6.877&#10;&#9;&#9;&#9;c-1.662-2.782-2.552-6.025-2.665-9.292V530.634z"
          transform="matrix(1, 0, 0, 1, -759.3456420898438, -421.3139953613281)"/>
    <path fill-rule="evenodd" clip-rule="evenodd" fill="#FEFEFE"
          d="M956.656,512.321c-0.159,0.145-0.305,0.294-0.447,0.448&#10;&#9;&#9;&#9;c-5.619,6.167-0.641,15.377-21.07,17.469c0.114-3.268,1.003-6.508,2.665-9.289c1.808-3.032,4.54-5.512,8.181-6.877&#10;&#9;&#9;&#9;c3.579-1.339,7.175-1.554,10.67-1.75L956.656,512.321z"
          transform="matrix(1, 0, 0, 1, -759.3456420898438, -421.3139953613281)"/>
    <path fill-rule="evenodd" clip-rule="evenodd" fill="#FEFEFE"
          d="M1054.264,493.861c0.158-0.144,0.304-0.293,0.446-0.444&#10;&#9;&#9;&#9;c5.62-6.172,0.641-15.377,21.071-17.471c-0.113,3.267-1.003,6.51-2.663,9.288c-1.809,3.033-4.543,5.513-8.184,6.877&#10;&#9;&#9;&#9;C1061.356,493.451,1057.759,493.666,1054.264,493.861L1054.264,493.861z"
          transform="matrix(1, 0, 0, 1, -759.3456420898438, -421.3139953613281)"/>
    <path fill-rule="evenodd" clip-rule="evenodd" fill="#FEFEFE"
          d="M1075.782,475.546c-20.431-2.095-15.452-11.298-21.072-17.47&#10;&#9;&#9;&#9;c-0.141-0.151-0.288-0.301-0.446-0.447c3.496,0.194,7.092,0.414,10.67,1.752c3.641,1.364,6.374,3.844,8.184,6.877&#10;&#9;&#9;&#9;C1074.779,469.036,1075.668,472.28,1075.782,475.546L1075.782,475.546z"
          transform="matrix(1, 0, 0, 1, -759.3456420898438, -421.3139953613281)"/>
    <path fill-rule="evenodd" clip-rule="evenodd" fill="#FEFEFE"
          d="M989.832,475.946c20.43,2.094,15.449,11.301,21.071,17.471&#10;&#9;&#9;&#9;c0.137,0.15,0.288,0.3,0.444,0.445c-3.494-0.195-7.092-0.409-10.67-1.75c-3.641-1.365-6.372-3.844-8.186-6.877&#10;&#9;&#9;&#9;C990.828,482.456,989.939,479.214,989.832,475.946L989.832,475.946z"
          transform="matrix(1, 0, 0, 1, -759.3456420898438, -421.3139953613281)"/>
    <path fill-rule="evenodd" clip-rule="evenodd" fill="#FEFEFE"
          d="M1011.347,457.629c-0.156,0.146-0.307,0.296-0.444,0.447&#10;&#9;&#9;&#9;c-5.621,6.17-0.641,15.38-21.071,17.47c0.107-3.267,0.996-6.51,2.659-9.288c1.814-3.034,4.544-5.513,8.186-6.877&#10;&#9;&#9;&#9;C1004.255,458.043,1007.852,457.828,1011.347,457.629L1011.347,457.629z"
          transform="matrix(1, 0, 0, 1, -759.3456420898438, -421.3139953613281)"/>
    <path fill-rule="evenodd" clip-rule="evenodd" fill="#FEFEFE"
          d="M1044.523,421.255c20.426,2.092,15.452,11.301,21.071,17.47&#10;&#9;&#9;&#9;c0.137,0.152,0.288,0.3,0.441,0.448c-3.49-0.198-7.087-0.411-10.665-1.753c-3.641-1.362-6.375-3.844-8.186-6.875&#10;&#9;&#9;&#9;C1045.521,427.764,1044.632,424.524,1044.523,421.255L1044.523,421.255z"
          transform="matrix(1, 0, 0, 1, -759.3456420898438, -421.3139953613281)"/>
    <path fill-rule="evenodd" clip-rule="evenodd" fill="#FEFEFE"
          d="M911.706,749.005c-20.426-2.094-15.448-11.303-21.07-17.472&#10;&#9;&#9;&#9;c-0.14-0.151-0.289-0.299-0.442-0.446c3.495,0.194,7.089,0.411,10.667,1.751c3.641,1.362,6.37,3.845,8.186,6.878&#10;&#9;&#9;&#9;C910.706,742.493,911.595,745.738,911.706,749.005L911.706,749.005z"
          transform="matrix(1, 0, 0, 1, -759.3456420898438, -421.3139953613281)"/>
    <path fill-rule="evenodd" clip-rule="evenodd" fill="#FEFEFE"
          d="M847.271,731.088c-0.153,0.146-0.305,0.294-0.442,0.446&#10;&#9;&#9;&#9;c-5.623,6.167-0.645,15.377-21.07,17.472c0.111-3.267,0.997-6.511,2.659-9.288c1.813-3.033,4.545-5.515,8.186-6.878&#10;&#9;&#9;&#9;C840.18,731.499,843.776,731.282,847.271,731.088L847.271,731.088z"
          transform="matrix(1, 0, 0, 1, -759.3456420898438, -421.3139953613281)"/>
    <path fill-rule="evenodd" clip-rule="evenodd" fill="#FEFEFE"
          d="M944.88,712.626c0.158-0.144,0.309-0.293,0.446-0.446&#10;&#9;&#9;&#9;c5.625-6.17,0.646-15.378,21.071-17.471c-0.108,3.268-0.999,6.511-2.659,9.29c-1.813,3.032-4.546,5.513-8.188,6.876&#10;&#9;&#9;&#9;C951.971,712.218,948.379,712.432,944.88,712.626L944.88,712.626z"
          transform="matrix(1, 0, 0, 1, -759.3456420898438, -421.3139953613281)"/>
    <path fill-rule="evenodd" clip-rule="evenodd" fill="#FEFEFE"
          d="M966.397,694.311c-20.426-2.093-15.448-11.299-21.072-17.47&#10;&#9;&#9;&#9;c-0.136-0.152-0.288-0.301-0.446-0.445c3.5,0.196,7.091,0.411,10.67,1.75c3.641,1.364,6.374,3.847,8.188,6.877&#10;&#9;&#9;&#9;C965.397,687.801,966.287,691.045,966.397,694.311L966.397,694.311z"
          transform="matrix(1, 0, 0, 1, -759.3456420898438, -421.3139953613281)"/>
    <path fill-rule="evenodd" clip-rule="evenodd" fill="#FEFEFE"
          d="M880.449,694.71c20.428,2.092,15.449,11.3,21.07,17.471&#10;&#9;&#9;&#9;c0.14,0.153,0.289,0.302,0.445,0.446c-3.496-0.192-7.092-0.409-10.669-1.75c-3.641-1.363-6.371-3.844-8.185-6.876&#10;&#9;&#9;&#9;C881.447,701.221,880.56,697.979,880.449,694.71L880.449,694.71z"
          transform="matrix(1, 0, 0, 1, -759.3456420898438, -421.3139953613281)"/>
    <path fill-rule="evenodd" clip-rule="evenodd" fill="#FEFEFE"
          d="M901.964,676.396c-0.156,0.144-0.305,0.294-0.445,0.445&#10;&#9;&#9;&#9;c-5.621,6.17-0.642,15.377-21.07,17.47c0.111-3.268,0.998-6.51,2.661-9.289c1.814-3.033,4.544-5.512,8.185-6.877&#10;&#9;&#9;&#9;C894.872,676.808,898.468,676.593,901.964,676.396L901.964,676.396z"
          transform="matrix(1, 0, 0, 1, -759.3456420898438, -421.3139953613281)"/>
    <path fill-rule="evenodd" clip-rule="evenodd" fill="#FEFEFE"
          d="M999.573,657.936c0.156-0.147,0.307-0.294,0.444-0.447&#10;&#9;&#9;&#9;c5.622-6.17,0.646-15.378,21.071-17.472c-0.111,3.267-0.996,6.511-2.659,9.29c-1.813,3.033-4.544,5.515-8.186,6.877&#10;&#9;&#9;&#9;C1006.665,657.525,1003.068,657.74,999.573,657.936L999.573,657.936z"
          transform="matrix(1, 0, 0, 1, -759.3456420898438, -421.3139953613281)"/>
    <path fill-rule="evenodd" clip-rule="evenodd" fill="#FEFEFE"
          d="M1021.088,639.619c-20.426-2.091-15.45-11.3-21.072-17.471&#10;&#9;&#9;&#9;c-0.136-0.15-0.288-0.301-0.444-0.445c3.495,0.196,7.092,0.411,10.67,1.75c3.642,1.363,6.372,3.847,8.186,6.877&#10;&#9;&#9;&#9;C1020.092,633.111,1020.977,636.352,1021.088,639.619L1021.088,639.619z"
          transform="matrix(1, 0, 0, 1, -759.3456420898438, -421.3139953613281)"/>
    <path fill-rule="evenodd" clip-rule="evenodd" fill="#FEFEFE"
          d="M935.139,640.017c20.43,2.095,15.451,11.304,21.07,17.473&#10;&#9;&#9;&#9;c0.142,0.153,0.289,0.3,0.446,0.447c-3.495-0.197-7.091-0.41-10.67-1.752c-3.641-1.362-6.374-3.844-8.181-6.877&#10;&#9;&#9;&#9;C936.141,646.529,935.252,643.289,935.139,640.017L935.139,640.017z"
          transform="matrix(1, 0, 0, 1, -759.3456420898438, -421.3139953613281)"/>
    <path fill-rule="evenodd" clip-rule="evenodd" fill="#FEFEFE"
          d="M956.656,621.703c-0.159,0.145-0.305,0.297-0.447,0.445&#10;&#9;&#9;&#9;c-5.619,6.171-0.641,15.38-21.07,17.471c0.114-3.268,1.003-6.508,2.665-9.289c1.808-3.031,4.54-5.513,8.181-6.877&#10;&#9;&#9;&#9;C949.564,622.114,953.16,621.9,956.656,621.703L956.656,621.703z"
          transform="matrix(1, 0, 0, 1, -759.3456420898438, -421.3139953613281)"/>
    <path fill-rule="evenodd" clip-rule="evenodd" fill="#FEFEFE"
          d="M1054.264,603.247c0.158-0.149,0.304-0.296,0.446-0.447&#10;&#9;&#9;&#9;c5.62-6.17,0.641-15.378,21.071-17.472c-0.113,3.267-1.003,6.511-2.663,9.29c-1.809,3.03-4.543,5.513-8.184,6.877&#10;&#9;&#9;&#9;C1061.356,602.833,1057.759,603.048,1054.264,603.247L1054.264,603.247z"
          transform="matrix(1, 0, 0, 1, -759.3456420898438, -421.3139953613281)"/>
    <path fill-rule="evenodd" clip-rule="evenodd" fill="#FEFEFE"
          d="M1075.782,584.929c-20.431-2.091-15.452-11.301-21.072-17.47&#10;&#9;&#9;&#9;c-0.141-0.154-0.288-0.301-0.446-0.447c3.496,0.194,7.092,0.413,10.67,1.752c3.641,1.364,6.374,3.844,8.184,6.877&#10;&#9;&#9;&#9;C1074.779,578.419,1075.668,581.662,1075.782,584.929L1075.782,584.929z"
          transform="matrix(1, 0, 0, 1, -759.3456420898438, -421.3139953613281)"/>
    <path fill-rule="evenodd" clip-rule="evenodd" fill="#FEFEFE"
          d="M989.832,585.327c20.43,2.092,15.449,11.304,21.071,17.473&#10;&#9;&#9;&#9;c0.137,0.15,0.288,0.299,0.444,0.447c-3.494-0.2-7.092-0.413-10.67-1.752c-3.641-1.365-6.372-3.845-8.186-6.877&#10;&#9;&#9;&#9;C990.828,591.838,989.939,588.596,989.832,585.327L989.832,585.327z"
          transform="matrix(1, 0, 0, 1, -759.3456420898438, -421.3139953613281)"/>
    <path fill-rule="evenodd" clip-rule="evenodd" fill="#FEFEFE"
          d="M1011.347,567.01c-0.156,0.148-0.307,0.295-0.444,0.448&#10;&#9;&#9;&#9;c-5.621,6.169-0.641,15.38-21.071,17.47c0.107-3.267,0.996-6.51,2.659-9.288c1.814-3.034,4.544-5.513,8.186-6.877&#10;&#9;&#9;&#9;c3.578-1.34,7.175-1.557,10.67-1.752L1011.347,567.01z"
          transform="matrix(1, 0, 0, 1, -759.3456420898438, -421.3139953613281)"/>
    <path fill-rule="evenodd" clip-rule="evenodd" fill="#FEFEFE"
          d="M1044.523,530.634c20.426,2.095,15.452,11.304,21.071,17.475&#10;&#9;&#9;&#9;c0.137,0.15,0.288,0.297,0.441,0.444c-3.49-0.197-7.087-0.411-10.665-1.749c-3.641-1.365-6.375-3.847-8.186-6.877&#10;&#9;&#9;&#9;c-1.663-2.782-2.552-6.025-2.661-9.292V530.634z"
          transform="matrix(1, 0, 0, 1, -759.3456420898438, -421.3139953613281)"/>
    <path fill-rule="evenodd" clip-rule="evenodd" fill="#FEFEFE"
          d="M1066.036,512.321c-0.153,0.145-0.305,0.294-0.441,0.448&#10;&#9;&#9;&#9;c-5.62,6.167-0.646,15.377-21.071,17.469c0.109-3.268,0.998-6.508,2.661-9.289c1.812-3.032,4.544-5.512,8.186-6.877&#10;&#9;&#9;&#9;c3.578-1.339,7.171-1.554,10.665-1.75L1066.036,512.321z"
          transform="matrix(1, 0, 0, 1, -759.3456420898438, -421.3139953613281)"/>
    <path fill-rule="evenodd" clip-rule="evenodd" fill="#FEFEFE"
          d="M1021.088,749.005c-20.426-2.094-15.45-11.303-21.072-17.472&#10;&#9;&#9;&#9;c-0.136-0.151-0.288-0.299-0.444-0.446c3.495,0.194,7.092,0.411,10.67,1.751c3.642,1.362,6.372,3.845,8.186,6.878&#10;&#9;&#9;&#9;C1020.092,742.493,1020.977,745.738,1021.088,749.005L1021.088,749.005z"
          transform="matrix(1, 0, 0, 1, -759.3456420898438, -421.3139953613281)"/>
    <path fill-rule="evenodd" clip-rule="evenodd" fill="#FEFEFE"
          d="M956.656,731.088c-0.159,0.146-0.305,0.294-0.447,0.446&#10;&#9;&#9;&#9;c-5.619,6.167-0.641,15.377-21.07,17.472c0.114-3.267,1.003-6.511,2.665-9.288c1.808-3.033,4.54-5.515,8.181-6.878&#10;&#9;&#9;&#9;C949.564,731.499,953.16,731.282,956.656,731.088L956.656,731.088z"
          transform="matrix(1, 0, 0, 1, -759.3456420898438, -421.3139953613281)"/>
    <path fill-rule="evenodd" clip-rule="evenodd" fill="#FEFEFE"
          d="M1054.264,712.626c0.158-0.144,0.304-0.293,0.446-0.446&#10;&#9;&#9;&#9;c5.62-6.17,0.641-15.378,21.071-17.471c-0.113,3.268-1.003,6.511-2.663,9.29c-1.809,3.032-4.543,5.513-8.184,6.876&#10;&#9;&#9;&#9;C1061.356,712.218,1057.759,712.432,1054.264,712.626L1054.264,712.626z"
          transform="matrix(1, 0, 0, 1, -759.3456420898438, -421.3139953613281)"/>
    <path fill-rule="evenodd" clip-rule="evenodd" fill="#FEFEFE"
          d="M1075.782,694.311c-20.431-2.093-15.452-11.299-21.072-17.47&#10;&#9;&#9;&#9;c-0.141-0.152-0.288-0.301-0.446-0.445c3.496,0.196,7.092,0.411,10.67,1.75c3.641,1.364,6.374,3.847,8.184,6.877&#10;&#9;&#9;&#9;C1074.779,687.801,1075.668,691.045,1075.782,694.311L1075.782,694.311z"
          transform="matrix(1, 0, 0, 1, -759.3456420898438, -421.3139953613281)"/>
    <path fill-rule="evenodd" clip-rule="evenodd" fill="#FEFEFE"
          d="M989.832,694.71c20.43,2.092,15.449,11.3,21.071,17.471&#10;&#9;&#9;&#9;c0.137,0.153,0.288,0.302,0.444,0.446c-3.494-0.192-7.092-0.409-10.67-1.75c-3.641-1.363-6.372-3.844-8.186-6.876&#10;&#9;&#9;&#9;C990.828,701.221,989.939,697.979,989.832,694.71L989.832,694.71z"
          transform="matrix(1, 0, 0, 1, -759.3456420898438, -421.3139953613281)"/>
    <path fill-rule="evenodd" clip-rule="evenodd" fill="#FEFEFE"
          d="M1011.347,676.396c-0.156,0.144-0.307,0.294-0.444,0.445&#10;&#9;&#9;&#9;c-5.621,6.17-0.641,15.377-21.071,17.47c0.107-3.268,0.996-6.51,2.659-9.289c1.814-3.033,4.544-5.512,8.186-6.877&#10;&#9;&#9;&#9;C1004.255,676.808,1007.852,676.593,1011.347,676.396L1011.347,676.396z"
          transform="matrix(1, 0, 0, 1, -759.3456420898438, -421.3139953613281)"/>
    <path fill-rule="evenodd" clip-rule="evenodd" fill="#FEFEFE"
          d="M1044.523,640.017c20.426,2.095,15.452,11.304,21.071,17.473&#10;&#9;&#9;&#9;c0.137,0.153,0.288,0.3,0.441,0.447c-3.49-0.197-7.087-0.41-10.665-1.752c-3.641-1.362-6.375-3.844-8.186-6.877&#10;&#9;&#9;&#9;C1045.521,646.529,1044.632,643.289,1044.523,640.017L1044.523,640.017z"
          transform="matrix(1, 0, 0, 1, -759.3456420898438, -421.3139953613281)"/>
    <path fill-rule="evenodd" clip-rule="evenodd" fill="#FEFEFE"
          d="M1066.036,621.703c-0.153,0.145-0.305,0.297-0.441,0.445&#10;&#9;&#9;&#9;c-5.62,6.171-0.646,15.38-21.071,17.471c0.109-3.268,0.998-6.508,2.661-9.289c1.812-3.031,4.544-5.513,8.186-6.877&#10;&#9;&#9;&#9;C1058.948,622.114,1062.54,621.9,1066.036,621.703L1066.036,621.703z"
          transform="matrix(1, 0, 0, 1, -759.3456420898438, -421.3139953613281)"/>
    <path fill-rule="evenodd" clip-rule="evenodd" fill="#FEFEFE"
          d="M1066.036,731.088c-0.153,0.146-0.305,0.294-0.441,0.446&#10;&#9;&#9;&#9;c-5.62,6.167-0.646,15.377-21.071,17.472c0.109-3.267,0.998-6.511,2.661-9.288c1.812-3.033,4.544-5.515,8.186-6.878&#10;&#9;&#9;&#9;C1058.948,731.499,1062.54,731.282,1066.036,731.088L1066.036,731.088z"
          transform="matrix(1, 0, 0, 1, -759.3456420898438, -421.3139953613281)"/>
    <path fill-rule="evenodd" clip-rule="evenodd" fill="#FEFEFE"
          d="M814.042,738.48c5.917,0,10.719,4.801,10.719,10.722H803.32&#10;&#9;&#9;&#9;C803.32,743.28,808.12,738.481,814.042,738.48L814.042,738.48z"
          transform="matrix(1, 0, 0, 1, -759.3456420898438, -421.3139953613281)"/>
    <path fill-rule="evenodd" clip-rule="evenodd" fill="#FEFEFE"
          d="M923.423,738.48c5.92,0,10.719,4.801,10.719,10.722h-21.439&#10;&#9;&#9;&#9;C912.703,743.28,917.501,738.481,923.423,738.48L923.423,738.48z"
          transform="matrix(1, 0, 0, 1, -759.3456420898438, -421.3139953613281)"/>
    <path fill-rule="evenodd" clip-rule="evenodd" fill="#FEFEFE"
          d="M1032.803,738.48c5.924,0,10.723,4.801,10.723,10.722h-21.443&#10;&#9;&#9;&#9;C1022.084,743.28,1026.884,738.481,1032.803,738.48L1032.803,738.48z"
          transform="matrix(1, 0, 0, 1, -759.3456420898438, -421.3139953613281)"/>
    <path fill-rule="evenodd" clip-rule="evenodd" fill="#FEFEFE" d="M759.349,683.791c5.918,0,10.721,4.8,10.721,10.719&#10;&#9;&#9;&#9;c0,5.921-4.802,10.722-10.721,10.722V683.791z"
          transform="matrix(1, 0, 0, 1, -759.3456420898438, -421.3139953613281)"/>
    <path d="M 879.452994 694.512024 A 10.721 10.721 0 0 1 868.731995 705.233024 A 10.721 10.721 0 0 1 858.010995 694.512024 A 10.721 10.721 0 0 1 868.731995 683.791024 A 10.721 10.721 0 0 1 879.452994 694.512024 Z"
          fill-rule="evenodd" clip-rule="evenodd" fill="#FEFEFE" transform="matrix(1, 0, 0, 1, -759.3456420898438, -421.3139953613281)"/>
    <path fill-rule="evenodd" clip-rule="evenodd" fill="#FEFEFE"
          d="M978.117,683.791c5.919,0,10.719,4.8,10.719,10.719&#10;&#9;&#9;&#9;c0.001,5.921-4.8,10.722-10.719,10.722c-5.92,0-10.724-4.801-10.724-10.722C967.393,688.59,972.193,683.791,978.117,683.791&#10;&#9;&#9;&#9;L978.117,683.791z"
          transform="matrix(1, 0, 0, 1, -759.3456420898438, -421.3139953613281)"/>
    <path fill-rule="evenodd" clip-rule="evenodd" fill="#FEFEFE" d="M1087.496,705.233c-5.919,0-10.719-4.801-10.719-10.722&#10;&#9;&#9;&#9;c0-5.92,4.8-10.719,10.719-10.719V705.233z"
          transform="matrix(1, 0, 0, 1, -759.3456420898438, -421.3139953613281)"/>
    <path fill-rule="evenodd" clip-rule="evenodd" fill="#FEFEFE"
          d="M814.042,629.099c5.917,0,10.719,4.802,10.719,10.722&#10;&#9;&#9;&#9;c0.001,5.919-4.802,10.721-10.72,10.721c-5.922,0-10.721-4.802-10.721-10.721C803.32,633.901,808.12,629.099,814.042,629.099&#10;&#9;&#9;&#9;L814.042,629.099z"
          transform="matrix(1, 0, 0, 1, -759.3456420898438, -421.3139953613281)"/>
    <path fill-rule="evenodd" clip-rule="evenodd" fill="#FEFEFE"
          d="M923.423,629.099c5.92,0,10.719,4.802,10.719,10.722&#10;&#9;&#9;&#9;c0,5.919-4.8,10.721-10.719,10.721c-5.921,0-10.72-4.802-10.72-10.721C912.703,633.901,917.501,629.099,923.423,629.099&#10;&#9;&#9;&#9;L923.423,629.099z"
          transform="matrix(1, 0, 0, 1, -759.3456420898438, -421.3139953613281)"/>
    <path fill-rule="evenodd" clip-rule="evenodd" fill="#FEFEFE"
          d="M1032.803,629.099c5.924,0,10.723,4.802,10.723,10.722&#10;&#9;&#9;&#9;c0.001,5.919-4.8,10.721-10.724,10.721c-5.919,0-10.719-4.802-10.719-10.721C1022.084,633.901,1026.884,629.099,1032.803,629.099&#10;&#9;&#9;&#9;L1032.803,629.099z"
          transform="matrix(1, 0, 0, 1, -759.3456420898438, -421.3139953613281)"/>
    <path fill-rule="evenodd" clip-rule="evenodd" fill="#FEFEFE" d="M759.349,574.409c5.918,0,10.721,4.8,10.721,10.721&#10;&#9;&#9;&#9;c0,5.92-4.802,10.718-10.721,10.718V574.409z"
          transform="matrix(1, 0, 0, 1, -759.3456420898438, -421.3139953613281)"/>
    <path fill-rule="evenodd" clip-rule="evenodd" fill="#FEFEFE"
          d="M868.732,574.409c5.921,0,10.72,4.8,10.72,10.721&#10;&#9;&#9;&#9;c0,5.92-4.8,10.718-10.72,10.718c-5.919-0.002-10.719-4.799-10.719-10.718C858.013,579.208,862.813,574.409,868.732,574.409&#10;&#9;&#9;&#9;L868.732,574.409z"
          transform="matrix(1, 0, 0, 1, -759.3456420898438, -421.3139953613281)"/>
    <path fill-rule="evenodd" clip-rule="evenodd" fill="#FEFEFE"
          d="M978.117,574.409c5.919,0,10.719,4.8,10.719,10.721&#10;&#9;&#9;&#9;c0.001,5.92-4.8,10.718-10.719,10.718c-5.92-0.002-10.724-4.799-10.724-10.718C967.393,579.208,972.193,574.409,978.117,574.409&#10;&#9;&#9;&#9;L978.117,574.409z"
          transform="matrix(1, 0, 0, 1, -759.3456420898438, -421.3139953613281)"/>
    <path fill-rule="evenodd" clip-rule="evenodd" fill="#FEFEFE"
          d="M1087.496,595.847c-5.919,0-10.719-4.797-10.719-10.717&#10;&#9;&#9;&#9;c0-5.922,4.8-10.721,10.719-10.721V595.847z"
          transform="matrix(1, 0, 0, 1, -759.3456420898438, -421.3139953613281)"/>
    <path fill-rule="evenodd" clip-rule="evenodd" fill="#FEFEFE"
          d="M814.042,519.716c5.917,0,10.719,4.802,10.719,10.722&#10;&#9;&#9;&#9;c0.001,5.918-4.802,10.721-10.72,10.721c-5.922-0.001-10.721-4.8-10.721-10.721C803.32,524.518,808.12,519.717,814.042,519.716&#10;&#9;&#9;&#9;L814.042,519.716z"
          transform="matrix(1, 0, 0, 1, -759.3456420898438, -421.3139953613281)"/>
    <path fill-rule="evenodd" clip-rule="evenodd" fill="#FEFEFE"
          d="M923.423,519.716c5.92,0,10.719,4.802,10.719,10.722&#10;&#9;&#9;&#9;c0,5.918-4.8,10.721-10.719,10.721c-5.921-0.001-10.72-4.8-10.72-10.721C912.703,524.518,917.501,519.717,923.423,519.716&#10;&#9;&#9;&#9;L923.423,519.716z"
          transform="matrix(1, 0, 0, 1, -759.3456420898438, -421.3139953613281)"/>
    <path fill-rule="evenodd" clip-rule="evenodd" fill="#FEFEFE"
          d="M1032.803,519.716c5.924,0,10.723,4.802,10.723,10.722&#10;&#9;&#9;&#9;c0.001,5.918-4.8,10.721-10.724,10.721c-5.919-0.001-10.719-4.8-10.719-10.721&#10;&#9;&#9;&#9;C1022.084,524.518,1026.884,519.717,1032.803,519.716L1032.803,519.716z"
          transform="matrix(1, 0, 0, 1, -759.3456420898438, -421.3139953613281)"/>
    <path fill-rule="evenodd" clip-rule="evenodd" fill="#FEFEFE"
          d="M759.349,465.024c5.918,0,10.721,4.803,10.721,10.722&#10;&#9;&#9;&#9;c0,5.921-4.802,10.721-10.721,10.721V465.024z"
          transform="matrix(1, 0, 0, 1, -759.3456420898438, -421.3139953613281)"/>
    <path fill-rule="evenodd" clip-rule="evenodd" fill="#FEFEFE"
          d="M868.732,465.024c5.921,0,10.72,4.803,10.72,10.722&#10;&#9;&#9;&#9;c0,5.921-4.8,10.721-10.72,10.721c-5.919,0-10.719-4.8-10.719-10.721C858.013,469.826,862.813,465.024,868.732,465.024&#10;&#9;&#9;&#9;L868.732,465.024z"
          transform="matrix(1, 0, 0, 1, -759.3456420898438, -421.3139953613281)"/>
    <path fill-rule="evenodd" clip-rule="evenodd" fill="#FEFEFE"
          d="M978.117,465.024c5.919,0,10.719,4.803,10.719,10.722&#10;&#9;&#9;&#9;c0.001,5.921-4.8,10.721-10.719,10.721c-5.92,0-10.724-4.8-10.724-10.721C967.393,469.826,972.193,465.024,978.117,465.024&#10;&#9;&#9;&#9;L978.117,465.024z"
          transform="matrix(1, 0, 0, 1, -759.3456420898438, -421.3139953613281)"/>
    <path fill-rule="evenodd" clip-rule="evenodd" fill="#FEFEFE" d="M1087.496,486.467c-5.919,0-10.719-4.8-10.719-10.721&#10;&#9;&#9;&#9;c0-5.92,4.8-10.721,10.719-10.721V486.467z"
          transform="matrix(1, 0, 0, 1, -759.3456420898438, -421.3139953613281)"/>
</svg>
