<?xml version="1.0" encoding="utf-8"?>
<!-- Generator: Adobe Illustrator 13.0.0, SVG Export Plug-In . SVG Version: 6.00 Build 14948)  -->
<!DOCTYPE svg PUBLIC "-//W3C//DTD SVG 1.1//EN" "http://www.w3.org/Graphics/SVG/1.1/DTD/svg11.dtd">
<svg version="1.1" id="Layer_1" xmlns="http://www.w3.org/2000/svg" xmlns:xlink="http://www.w3.org/1999/xlink" x="0px" y="0px"
	 width="1399.231px" height="938.835px" viewBox="0 0 1399.231 938.835" enable-background="new 0 0 1399.231 938.835"
	 xml:space="preserve">

<rect fill="#FFFFFF" width="1399.231" height="938.835"/>
<g>
	<polygon fill="#8D87C1" points="849.159,820.01 826.236,780.307 849.159,740.604 895.001,740.604 917.927,780.307 895.001,820.01 	
		"/>
	<polygon fill="#65ABD0" opacity="0.75" points="986.87,820.01 963.945,780.307 986.87,740.604 1032.712,740.604 1055.635,780.307 1032.712,820.01
			"/>
	<polygon fill="#5B57A6" points="917.927,780.307 895.001,740.604 917.927,700.902 963.768,700.902 986.69,740.604 963.768,780.307 
			"/>
	<polygon fill="#65ABD0" points="848.98,740.604 826.058,700.902 848.98,661.199 894.824,661.199 917.748,700.902 894.824,740.604
		"/>
	<polygon fill="#8D87C1" points="711.166,740.264 688.243,700.561 711.166,660.858 757.008,660.858 779.934,700.561 
		757.008,740.264 	"/>
	<polygon fill="#8D87C1" points="643.67,704.266 620.747,664.563 643.67,624.86 689.512,624.86 712.438,664.563 689.512,704.266 	
		"/>
	<polygon fill="#65ABD0" opacity="0.75" points="710.987,660.857 688.064,621.156 710.987,581.453 756.831,581.453 779.755,621.156
		756.831,660.857 	"/>
	<polygon fill="#221F72" opacity="0.85" points="917.748,700.902 894.824,661.199 917.748,621.497 963.59,621.497 986.514,661.199 963.59,700.902
		"/>
	<polygon fill="#221F72" opacity="0.5" points="986.692,740.604 963.768,700.902 986.692,661.199 1032.534,661.199 1055.457,700.902
		1032.534,740.604 	"/>
	<polygon fill="#221F72" points="986.514,661.199 963.59,621.497 986.514,581.795 1032.355,581.795 1055.28,621.497
		1032.355,661.199 	"/>
	<polygon fill="#65ABD0" opacity="0.5" points="1055.442,780.307 1032.518,740.605 1055.442,700.902 1101.284,700.902 1124.207,740.605
		1101.284,780.307 	"/>
	<polygon fill="#8D87C1" points="1055.264,700.902 1032.34,661.2 1055.264,621.498 1101.105,621.498 1124.03,661.2 
		1101.105,700.902 	"/>
	<polygon fill="#65ABD0" points="1124.529,899.478 1101.604,859.774 1124.529,820.072 1170.371,820.072 1193.294,859.774
		1170.371,899.478 	"/>
	<polygon fill="#8D87C1" points="1124.352,820.071 1101.427,780.37 1124.352,740.667 1170.193,740.667 1193.116,780.37 
		1170.193,820.071 	"/>
	<polygon fill="#65ABD0" points="1124.173,740.667 1101.249,700.965 1124.173,661.263 1170.015,661.263 1192.939,700.965
		1170.015,740.667 	"/>
	<polygon fill="#4C75BA" points="1193.102,859.774 1170.177,820.073 1193.102,780.37 1238.943,780.37 1261.866,820.073 
		1238.943,859.774 	"/>
	<polygon fill="#5B57A6" points="1192.923,780.37 1169.999,740.668 1192.923,700.966 1238.765,700.966 1261.689,740.668 
		1238.765,780.37 	"/>
	<polygon fill="#65ABD0" opacity="0.75" points="1261.838,819.814 1238.913,780.113 1261.838,740.41 1307.68,740.41 1330.603,780.113
		1307.68,819.814 	"/>
	<polygon fill="#65ABD0" points="1261.659,740.41 1238.735,700.708 1261.659,661.006 1307.501,661.006 1330.426,700.708 
		1307.501,740.41 	"/>
	<polygon opacity="0.5" fill="#221F72" points="919.063,700.771 964.059,701.318 941.087,740.012 	"/>
	<polygon fill="#8D87C1" points="986.456,502.464 963.533,462.762 986.456,423.059 1032.299,423.059 1055.223,462.762 
		1032.299,502.464 	"/>
	<polygon fill="#221F72" points="160.719,502.464 137.797,462.762 160.719,423.059 206.563,423.059 229.485,462.762
		206.563,502.464 	"/>
	<polygon fill="#65ABD0" points="91.324,303.951 68.401,264.25 91.324,224.547 137.167,224.547 160.09,264.25 137.167,303.951 	"/>
	<polygon fill="#65ABD0" points="160.09,343.654 137.167,303.952 160.09,264.25 205.934,264.25 228.856,303.952 205.934,343.654
		"/>
	<polygon fill="#5B57A6" points="229.034,303.951 206.111,264.25 229.034,224.547 274.878,224.547 297.8,264.25 274.878,303.951 	
		"/>
	<polygon fill="#5B57A6" points="297.8,264.25 274.878,224.547 297.8,184.845 343.644,184.845 366.566,224.547 343.644,264.25 	"/>
	<polygon fill="#65ABD0" points="229.034,224.547 206.111,184.845 229.034,145.143 274.878,145.143 297.8,184.845 274.878,224.547
		"/>
	<polygon fill="#65ABD0" points="138.618,197.963 115.695,158.261 138.618,118.559 184.461,118.559 207.384,158.261
		184.461,197.963 	"/>
	<polygon fill="#BBB7DC" points="297.8,343.654 274.878,303.952 297.8,264.25 343.644,264.25 366.566,303.952 343.644,343.654 	"/>
	<polygon fill="#4C75BA" opacity="0.85" points="229.186,383.356 206.263,343.654 229.186,303.951 275.029,303.951 297.952,343.654 
		275.029,383.356 	"/>
	<polygon fill="#221F72" opacity="0.75" points="366.566,303.951 343.644,264.25 366.566,224.547 412.41,224.547 435.333,264.25 412.41,303.951
		"/>
	<polygon fill="#5B57A6" points="435.333,264.25 412.41,224.547 435.333,184.845 481.176,184.845 504.099,224.547 481.176,264.25 	
		"/>
	<polygon fill="#5B57A6" points="435.333,343.654 412.41,303.952 435.333,264.25 481.176,264.25 504.099,303.952 481.176,343.654 	
		"/>
	<polygon fill="#8D87C1" points="504.277,303.951 481.354,264.25 504.277,224.547 550.12,224.547 573.043,264.25 550.12,303.951 	
		"/>
	<polygon fill="#5B57A6" points="573.043,264.25 550.12,224.547 573.043,184.845 618.886,184.845 641.809,224.547 618.886,264.25 	
		"/>
	<polygon fill="#65ABD0" points="504.099,224.547 481.176,184.845 504.099,145.143 549.941,145.143 572.864,184.845 
		549.941,224.547 	"/>
	<polygon fill="#65ABD0" points="573.043,343.654 550.12,303.952 573.043,264.25 618.886,264.25 641.809,303.952 618.886,343.654 	
		"/>
	<polygon fill="#65ABD0" points="504.428,383.356 481.506,343.654 504.428,303.951 550.272,303.951 573.195,343.654 
		550.272,383.356 	"/>
	<polygon fill="#8D87C1" points="641.818,303.951 618.896,264.25 641.818,224.547 687.662,224.547 710.584,264.25 687.662,303.951 	
		"/>
	<polygon fill="#65ABD0" points="710.584,264.25 687.662,224.547 710.584,184.845 756.428,184.845 779.351,224.547 756.428,264.25 	
		"/>
	<polygon fill="#65ABD0" points="710.584,343.654 687.662,303.952 710.584,264.25 756.428,264.25 779.351,303.952 756.428,343.654
		"/>
	<polygon opacity="0.5" fill="#BBB7DC" points="779.529,303.951 756.606,264.25 779.529,224.547 825.371,224.547 848.294,264.25 
		825.371,303.951 	"/>
	<polygon fill="#221F72" points="848.294,264.25 825.371,224.547 848.294,184.845 894.138,184.845 917.062,224.547 894.138,264.25
		"/>
	<polygon fill="#5B57A6" points="779.351,224.547 756.428,184.845 779.351,145.143 825.193,145.143 848.117,184.845 
		825.193,224.547 	"/>
	<polygon fill="#65ABD0" points="848.294,343.654 825.371,303.952 848.294,264.25 894.138,264.25 917.062,303.952 894.138,343.654 	
		"/>
	<polygon fill="#F4F2EF" points="779.68,383.356 756.756,343.654 779.68,303.951 825.524,303.951 848.446,343.654 825.524,383.356 	
		"/>
	<polygon opacity="0.64" fill="#F4F2EF" points="550.249,383.462 528.756,344.031 550.249,304.058 573.351,343.92 619.015,343.761 
		596.094,383.462 	"/>
	<polygon fill="#5B57A6" points="917.062,303.951 894.138,264.25 917.062,224.547 962.904,224.547 985.827,264.25 962.904,303.951 	
		"/>
	<polygon fill="#8D87C1" points="985.827,264.25 962.904,224.547 985.827,184.845 1031.669,184.845 1054.595,224.547 
		1031.669,264.25 	"/>
	<polygon opacity="0.3" fill="#BBB7DC" points="985.827,343.654 962.904,303.952 985.827,264.25 1031.669,264.25 1054.595,303.952 
		1031.669,343.654 	"/>
	<polygon fill="#65ABD0" points="1054.771,303.951 1031.848,264.25 1054.771,224.547 1100.613,224.547 1123.538,264.25 
		1100.613,303.951 	"/>
	<polygon fill="#65ABD0" points="1123.538,264.25 1100.613,224.547 1123.538,184.845 1169.38,184.845 1192.303,224.547 
		1169.38,264.25 	"/>
	<polygon fill="#5B57A6" points="1054.595,224.547 1031.669,184.845 1054.595,145.143 1100.436,145.143 1123.358,184.845 
		1100.436,224.547 	"/>
	<polygon fill="#221F72" opacity="0.5" points="1123.538,343.654 1100.613,303.952 1123.538,264.25 1169.38,264.25 1192.303,303.952
		1169.38,343.654 	"/>
	<polygon fill="#221F72" opacity="0.75" points="1055.221,383.357 1032.299,343.655 1055.221,303.952 1101.066,303.952 1123.985,343.655
		1101.066,383.357 	"/>
	<polygon fill="#65ABD0" points="1192.303,303.951 1169.38,264.25 1192.303,224.547 1238.146,224.547 1261.07,264.25 
		1238.146,303.951 	"/>
	<polygon fill="#65ABD0" points="1261.07,264.25 1238.146,224.547 1261.07,184.845 1306.912,184.845 1329.836,224.547 
		1306.912,264.25 	"/>
	<polygon fill="#5B57A6" points="1261.07,343.654 1238.146,303.952 1261.07,264.25 1306.912,264.25 1329.836,303.952 
		1306.912,343.654 	"/>
	<polygon fill="#65ABD0" points="1330.015,303.951 1307.09,264.25 1330.015,224.547 1375.856,224.547 1398.779,264.25 
		1375.856,303.951 	"/>
	<polygon fill="#65ABD0" points="1329.836,224.547 1306.912,184.845 1329.836,145.143 1375.678,145.143 1398.603,184.845 
		1375.678,224.547 	"/>
	<polygon fill="#65ABD0" points="985.648,184.844 962.726,145.143 985.648,105.439 1031.492,105.439 1054.416,145.143 
		1031.492,184.844 	"/>
	<polygon fill="#221F72" points="1054.416,145.143 1031.492,105.44 1054.416,65.737 1100.258,65.737 1123.182,105.44
		1100.258,145.143 	"/>
	<polygon fill="#65ABD0" points="1123.36,184.844 1100.436,145.143 1123.36,105.439 1169.202,105.439 1192.125,145.143 
		1169.202,184.844 	"/>
	<polygon fill="#65ABD0" points="1123.182,105.439 1100.258,65.737 1123.182,26.035 1169.023,26.035 1191.948,65.737 
		1169.023,105.439 	"/>
	<polygon opacity="0.2" fill="#5B57A6" points="1192.11,224.547 1169.186,184.846 1192.11,145.143 1237.952,145.143 
		1260.875,184.846 1237.952,224.547 	"/>
	<polygon fill="#65ABD0" points="1191.932,145.143 1169.008,105.44 1191.932,65.738 1237.773,65.738 1260.698,105.44 
		1237.773,145.143 	"/>
	<polygon fill="#65ABD0" points="24.392,159.184 1.23,119.62 23.917,79.781 69.758,79.507 92.918,119.072 70.232,158.91 	"/>
	<polygon fill="#221F72" points="23.738,79.782 0.578,40.217 23.264,0.379 69.105,0.105 92.267,39.669 69.579,79.508 	"/>
	<polygon fill="#5B57A6" points="92.725,119.073 69.563,79.509 92.25,39.67 138.091,39.396 161.252,78.961 138.565,118.799 	"/>
	<polygon fill="#4C75BA" points="1330.164,383.356 1307.242,343.654 1330.164,303.951 1376.01,303.951 1398.931,343.654 
		1376.01,383.356 	"/>
	<polygon opacity="0.8" fill="#BBB7DC" points="23.339,502.464 0.417,462.762 23.339,423.059 69.182,423.059 92.105,462.762 69.182,502.464 	"/>
	<polygon fill="#F4F2EF" points="91.953,462.761 69.031,423.059 91.953,383.356 137.797,383.356 160.719,423.059 137.797,462.761
		"/>
	<polygon fill="#8D87C1" points="160.719,423.059 137.797,383.357 160.719,343.654 206.563,343.654 229.485,383.357 
		206.563,423.059 	"/>
	<polygon fill="#5B57A6" points="91.775,383.356 68.853,343.654 91.775,303.951 137.619,303.951 160.541,343.654 137.619,383.356 	
		"/>
	<polygon opacity="0.5" fill="#BBB7DC" points="114.461,343.548 91.539,303.846 114.461,264.143 160.305,264.143 183.227,303.846 
		160.305,343.548 	"/>
	<polygon opacity="0.5" fill="#BBB7DC" points="413.593,305.338 390.67,265.637 413.593,225.934 459.437,225.934 482.359,265.637 
		459.437,305.338 	"/>
	<polygon opacity="0.3" fill="#BBB7DC" points="206.276,343.548 183.354,303.846 206.276,264.143 252.12,264.143 275.042,303.846 
		252.12,343.548 	"/>
	<polygon opacity="0.3" fill="#BBB7DC" points="46.423,119.074 23.501,79.372 46.423,39.669 92.267,39.669 115.189,79.372 
		92.267,119.074 	"/>
	<polygon fill="#5B57A6" points="229.485,462.761 206.563,423.059 229.485,383.356 275.329,383.356 298.251,423.059 
		275.329,462.761 	"/>
	<polygon opacity="0.4" fill="#BBB7DC" points="321.237,383.296 298.314,343.594 321.237,303.891 367.081,303.891 390.003,343.594 
		367.081,383.296 	"/>
	<polygon opacity="0.3" fill="#BBB7DC" points="183.771,461.48 160.848,421.777 183.771,382.075 229.614,382.075 252.537,421.777 
		229.614,461.48 	"/>
	<polygon opacity="0.3" fill="#BBB7DC" points="69.182,502.464 46.26,462.762 69.182,423.059 115.026,423.059 137.949,462.762 
		115.026,502.464 	"/>
	<polygon opacity="0.3" fill="#BBB7DC" points="320.992,305.024 298.069,265.322 320.992,225.619 366.836,225.619 389.758,265.322 
		366.836,305.024 	"/>
	<polygon fill="#65ABD0" points="92.105,542.165 69.182,502.464 92.105,462.761 137.949,462.761 160.871,502.464 137.949,542.165 	
		"/>
	<polygon fill="#8D87C1" points="23.339,581.868 23.338,502.464 69.183,502.464 92.105,542.165 	"/>
	<polygon opacity="0.8" fill="#BBB7DC" points="298.251,423.059 275.329,383.357 298.251,343.654 344.095,343.654 367.018,383.357
		344.095,423.059 	"/>
	<polygon fill="#65ABD0" points="298.251,502.464 275.329,462.762 298.251,423.059 344.095,423.059 367.018,462.762 
		344.095,502.464 	"/>
	<polygon fill="#65ABD0" points="711.365,581.868 688.442,542.166 711.365,502.464 757.208,502.464 780.131,542.166 
		757.208,581.868 	"/>
	<polygon fill="#221F72" points="780.131,542.166 757.208,502.465 780.131,462.762 825.976,462.762 848.897,502.465 
		825.976,542.166 	"/>
	<polygon fill="#5B57A6" points="780.131,621.571 757.208,581.871 780.131,542.166 825.976,542.166 848.897,581.871 
		825.976,621.571 	"/>
	<polygon fill="#221F72" points="849.075,581.868 826.152,542.166 849.075,502.464 894.919,502.464 917.842,542.166 
		894.919,581.868 	"/>
	<polygon fill="#65ABD0" points="917.842,542.166 894.919,502.465 917.842,462.762 963.685,462.762 986.608,502.465 
		963.685,542.166 	"/>
	<polygon fill="#65ABD0" points="917.842,621.571 894.919,581.871 917.842,542.166 963.685,542.166 986.608,581.871 
		963.685,621.571 	"/>
	<polygon opacity="0.5" fill="#BBB7DC" points="849.227,661.274 826.305,621.571 849.227,581.868 895.069,581.868 917.993,621.571 
		895.069,661.274 	"/>
	<polygon fill="#8D87C1" points="986.608,581.868 963.685,542.166 986.608,502.464 1032.451,502.464 1055.373,542.166 
		1032.451,581.868 	"/>
	<polygon fill="#65ABD0" points="1055.373,542.166 1032.451,502.465 1055.373,462.762 1101.217,462.762 1124.14,502.465 
		1101.217,542.166 	"/>
	<polygon fill="#65ABD0" points="1055.373,621.571 1032.451,581.871 1055.373,542.166 1101.217,542.166 1124.14,581.871 
		1101.217,621.571 	"/>
	<polygon fill="#4C75BA" opacity="0.85" points="367.01,462.761 344.087,423.059 367.01,383.356 412.854,383.356 435.776,423.059 412.854,462.761 	
		"/>
	<polygon fill="#8D87C1" points="435.962,423.059 413.04,383.357 435.962,343.654 481.806,343.654 504.728,383.357 481.806,423.059 
			"/>
	<polygon fill="#F4F2EF" points="367.018,383.356 344.095,343.654 367.018,303.951 412.861,303.951 435.784,343.654 
		412.861,383.356 	"/>
	<polygon fill="#5B57A6" points="435.962,502.464 413.04,462.762 435.962,423.059 481.806,423.059 504.728,462.762 481.806,502.464 
			"/>
	<polygon fill="#221F72" points="367.348,542.165 344.425,502.464 367.348,462.761 413.191,462.761 436.113,502.464 
		413.191,542.165 	"/>
	<polygon opacity="0.5" fill="#BBB7DC" points="504.737,462.761 481.814,423.059 504.737,383.356 550.581,383.356 573.503,423.059 
		550.581,462.761 	"/>
	<polygon fill="#5B57A6" points="573.503,423.059 550.581,383.357 573.503,343.654 619.347,343.654 642.27,383.357 619.347,423.059 
			"/>
	<polygon fill="#65ABD0" points="573.503,502.464 550.581,462.762 573.503,423.059 619.347,423.059 642.27,462.762 619.347,502.464 
			"/>
	<polygon fill="#8D87C1" points="505.017,582.079 482.094,542.378 505.017,502.674 550.86,502.674 573.783,542.378 550.86,582.079 	
		"/>
	<polygon fill="#221F72" points="642.448,462.761 619.525,423.059 642.448,383.356 688.291,383.356 711.215,423.059 
		688.291,462.761 	"/>
	<polygon fill="#5B57A6" points="711.215,423.059 688.291,383.357 711.215,343.654 757.057,343.654 779.979,383.357 
		757.057,423.059 	"/>
	<polygon fill="#4C75BA" opacity="0.85" points="642.27,383.356 619.347,343.654 642.27,303.951 688.113,303.951 711.037,343.654 688.113,383.356 	
		"/>
	<polygon fill="#65ABD0" points="711.215,502.464 688.291,462.762 711.215,423.059 757.057,423.059 779.979,462.762 
		757.057,502.464 	"/>
	<polygon fill="#8D87C1" points="642.599,542.165 619.677,502.464 642.599,462.761 688.444,462.761 711.365,502.464 
		688.444,542.165 	"/>
	<polygon fill="#65ABD0" points="779.979,462.761 757.057,423.059 779.979,383.356 825.823,383.356 848.747,423.059 
		825.823,462.761 	"/>
	<polygon fill="#F4F2EF" points="848.747,423.059 825.823,383.357 848.747,343.654 894.59,343.654 917.514,383.357 894.59,423.059 	
		"/>
	<polygon fill="#65ABD0" points="848.747,502.464 825.823,462.762 848.747,423.059 894.59,423.059 917.514,462.762 894.59,502.464 	
		"/>
	<polygon fill="#65ABD0" points="917.691,462.761 894.768,423.059 917.691,383.356 963.533,383.356 986.456,423.059 
		963.533,462.761 	"/>
	<polygon fill="#65ABD0" points="986.456,423.059 963.533,383.357 986.456,343.654 1032.299,343.654 1055.223,383.357 
		1032.299,423.059 	"/>
	<polygon fill="#5B57A6" points="917.514,383.356 894.59,343.654 917.514,303.951 963.354,303.951 986.279,343.654 963.354,383.356 
			"/>
	<polygon fill="#F4F2EF" points="917.842,542.165 894.921,502.464 917.842,462.761 963.686,462.761 986.608,502.464 
		963.686,542.165 	"/>
	<polygon fill="#221F72" points="1055.223,462.761 1032.299,423.059 1055.223,383.356 1101.066,383.356 1123.989,423.059
		1101.066,462.761 	"/>
	<polygon fill="#221F72" points="1123.989,423.059 1101.066,383.357 1123.989,343.654 1169.83,343.654 1192.756,383.357 
		1169.83,423.059 	"/>
	<polygon fill="#5B57A6" points="1123.989,502.464 1101.066,462.762 1123.989,423.059 1169.83,423.059 1192.756,462.762
		1169.83,502.464 	"/>
	<polygon opacity="0.26" fill="#F4F2EF" points="1192.934,462.761 1170.011,423.059 1192.934,383.356 1238.774,383.356 
		1261.7,423.059 1238.774,462.761 	"/>
	<polygon fill="#65ABD0" points="1261.7,423.059 1238.774,383.357 1261.7,343.654 1307.542,343.654 1330.465,383.357 
		1307.542,423.059 	"/>
	<polygon fill="#221F72" points="1192.756,383.356 1169.83,343.654 1192.756,303.951 1238.598,303.951 1261.521,343.654 
		1238.598,383.356 	"/>
	<polygon opacity="0.39" fill="#BBB7DC" points="1261.7,502.464 1238.774,462.762 1261.7,423.059 1307.542,423.059 
		1330.465,462.762 1307.542,502.464 	"/>
	<polygon fill="#65ABD0" points="1193.084,542.165 1170.161,502.464 1193.084,462.761 1238.929,462.761 1261.85,502.464 
		1238.929,542.165 	"/>
	<polygon fill="#65ABD0" points="1330.465,462.761 1307.542,423.059 1330.465,383.356 1376.308,383.356 1399.231,423.059 
		1376.308,462.761 	"/>
	<polygon fill="#F4F2EF" points="161.675,613.459 81.508,634.939 102.989,554.772 	"/>
	<polygon fill="#F4F2EF" points="1081.48,869.52 1016.09,887.041 1033.611,821.649 	"/>
	<polygon fill="#F4F2EF" points="706.969,589.699 633.726,628.729 636.544,545.784 	"/>
	<polygon opacity="0.61" fill="#F4F2EF" points="1009.804,619.604 964.915,542.435 1054.189,542.145 	"/>
	<polygon fill="#BBB7DC" points="332.675,139.267 309.091,179.908 285.686,139.164 	"/>
	<polygon fill="#65ABD0" points="224.041,78.812 160.475,79.722 191.47,24.218 	"/>
	<polygon fill="#BBB7DC" points="223.996,138.378 190.967,84.059 254.522,82.614 	"/>
	<polygon fill="#65ABD0" points="1002.578,78.703 971.771,23.094 1035.332,24.218 	"/>
	<polygon opacity="0.47" fill="#221F72" points="1121.795,149.165 1090.987,93.556 1154.549,94.68 	"/>
	<polygon opacity="0.47" fill="#BBB7DC" points="1310.602,140.333 1342.538,85.365 1374.175,140.506 	"/>
	<polygon opacity="0.47" fill="#BBB7DC" points="478.602,670.191 510.538,615.223 542.175,670.363 	"/>
	<polygon fill="#F4F2EF" opacity="0.85" points="451.784,677.833 419.847,732.802 388.21,677.661 	"/>
	<polygon fill="#F4F2EF" points="479.649,610.849 424.681,578.912 479.821,547.275 	"/>
	<polygon fill="#F4F2EF" opacity="0.85" points="1237.654,66.362 1269.591,11.394 1301.228,66.534 	"/>
	<polygon fill="#F4F2EF" points="186.958,543.464 141.964,544.172 163.848,504.852 	"/>
	<polygon fill="#F4F2EF" points="409.085,198.903 364.092,199.613 385.975,160.292 	"/>
	<polygon opacity="0.52" fill="#F4F2EF" points="542.641,205.406 574.957,236.72 531.68,249.05 	"/>
	<polygon opacity="0.52" fill="#BBB7DC" points="738.468,120.61 783.449,121.88 759.861,160.201 	"/>
	<polygon opacity="0.5" fill="#221F72" points="1055.731,145.011 1100.727,145.559 1077.755,184.252 	"/>
	<polygon opacity="0.52" fill="#F4F2EF" points="896.845,165.127 941.825,166.396 918.236,204.716 	"/>
	<polygon fill="#221F72" points="825.868,225.401 870.866,225.225 848.52,264.283 	"/>
	<polygon fill="#F4F2EF" points="465.614,543.464 420.62,544.172 442.504,504.852 	"/>
	<polygon fill="#F4F2EF" points="1317.614,873.464 1272.62,874.172 1294.504,834.852 	"/>
	<polygon fill="#F4F2EF" points="1218.751,899.172 1242.473,937.411 1197.495,938.835 	"/>
	<polygon fill="#F4F2EF" points="610.7,585.591 565.706,586.299 587.589,546.978 	"/>
	<polygon fill="#F4F2EF" points="963.312,621.573 917.713,621.654 940.44,582.121 	"/>
	<polygon fill="#F4F2EF" points="625.406,171.68 580.412,172.386 602.295,133.066 	"/>
	<polygon fill="#F4F2EF" points="1305.406,654.347 1260.412,655.054 1282.295,615.733 	"/>
	<polygon opacity="0.63" fill="#F4F2EF" points="206.851,158.093 161.856,158.8 183.74,119.479 	"/>
	<polygon fill="#F4F2EF" points="785.663,415.52 740.67,416.227 762.553,376.907 	"/>
	<polygon fill="#F4F2EF" points="1284.579,383.416 1239.586,384.123 1261.469,344.803 	"/>
	<polygon opacity="0.49" fill="#F4F2EF" points="572.968,541.46 527.975,542.168 549.858,502.849 	"/>
	<polygon opacity="0.49" fill="#F4F2EF" points="688.541,541.46 643.546,542.168 665.429,502.849 	"/>
	<polygon fill="#221F72" points="734.128,541.46 689.133,542.168 711.017,502.849 	"/>
	<polygon fill="#221F72" points="917.757,463.128 872.765,463.837 894.647,424.516 	"/>
	<polygon fill="#221F72" points="1076.988,502.294 1031.995,503.002 1053.879,463.682 	"/>
	<polygon fill="#5B57A6" points="387.195,588.322 342.202,589.031 364.085,549.709 	"/>
	<polygon fill="#5B57A6" points="949.211,826.979 904.218,827.688 926.101,788.366 	"/>
	<polygon opacity="0.61" fill="#F4F2EF" points="1163.563,612.2 1142.103,651.752 1118.579,613.389 	"/>
	<polygon fill="#5B57A6" points="1115.636,900.715 1070.643,901.424 1092.525,862.102 	"/>
	<polygon fill="#F4F2EF" points="86.154,384.874 41.16,385.583 63.043,346.262 	"/>
	<polygon fill="#F4F2EF" points="159.349,420.83 114.355,421.539 136.239,382.217 	"/>
	<polygon opacity="0.2" fill="#F4F2EF" points="229.575,355.571 184.581,356.28 206.464,316.958 	"/>
	<polygon opacity="0.2" fill="#F4F2EF" points="687.649,462.166 642.655,462.874 664.539,423.553 	"/>
	<polygon fill="#5B57A6" points="547.68,303.576 502.685,304.285 524.568,264.963 	"/>
	<polygon fill="#221F72" points="573.75,343.323 528.756,344.031 550.64,304.71 	"/>
	<polygon fill="#F4F2EF" points="297.897,422.252 252.898,422.559 275.133,383.435 	"/>
	<polygon opacity="0.75" fill="#F4F2EF" points="504.201,223.373 459.207,224.081 481.09,184.761 	"/>
	<polygon opacity="0.94" fill="#F4F2EF" points="297.912,263.099 252.917,263.808 274.801,224.486 	"/>
	<polygon opacity="0.3" fill="#BBB7DC" points="344.962,503.848 322.04,464.146 344.962,424.443 390.806,424.443 413.729,464.146 
		390.806,503.848 	"/>
	<polygon opacity="0.5" fill="#BBB7DC" points="388.938,423.512 366.016,383.81 388.938,344.107 434.782,344.107 457.705,383.81 
		434.782,423.512 	"/>
	<polygon opacity="0.17" fill="#BBB7DC" points="525.896,343.394 502.974,303.691 525.896,263.989 571.741,263.989 594.663,303.691 
		571.741,343.394 	"/>
	<polygon opacity="0.5" fill="#BBB7DC" points="616.657,423.512 593.734,383.81 616.657,344.107 662.501,344.107 685.423,383.81 
		662.501,423.512 	"/>
	<polygon opacity="0.5" fill="#BBB7DC" points="1101.064,303.952 1078.141,264.25 1101.064,224.547 1146.907,224.547 
		1169.83,264.25 1146.907,303.952 	"/>
	<polygon opacity="0.5" fill="#BBB7DC" points="595.772,303.716 572.85,264.014 595.772,224.312 641.615,224.312 664.538,264.014 
		641.615,303.716 	"/>
	<polygon opacity="0.5" fill="#BBB7DC" points="688.286,383.559 665.363,343.856 688.286,304.154 734.13,304.154 757.053,343.856 
		734.13,383.559 	"/>
	<polygon opacity="0.74" fill="#F4F2EF" points="736.078,303.954 713.156,264.252 736.078,224.549 781.922,224.549 804.845,264.252 
		781.922,303.954 	"/>
	<polygon opacity="0.37" fill="#F4F2EF" points="1168.76,185.256 1145.838,145.555 1168.76,105.852 1214.604,105.852 
		1237.526,145.555 1214.604,185.256 	"/>
	<polygon opacity="0.37" fill="#F4F2EF" points="1286.849,303.345 1263.927,263.644 1286.849,223.941 1332.692,223.941 
		1355.615,263.644 1332.692,303.345 	"/>
	<polygon opacity="0.26" fill="#F4F2EF" points="826.396,381.857 803.474,342.156 826.396,302.453 872.242,302.453 895.161,342.156 
		872.242,381.857 	"/>
	<polygon opacity="0.26" fill="#F4F2EF" points="941.969,342.05 919.047,302.349 941.969,262.646 987.813,262.646 1010.733,302.349 
		987.813,342.05 	"/>
	<polygon opacity="0.26" fill="#F4F2EF" points="1032.161,423.342 1009.239,383.64 1032.161,343.938 1078.007,343.938 
		1100.927,383.64 1078.007,423.342 	"/>
	<polygon opacity="0.68" fill="#BBB7DC" points="756.773,502.982 733.85,463.281 756.773,423.578 802.616,423.578 825.537,463.281 
		802.616,502.982 	"/>
	<polygon opacity="0.36" fill="#BBB7DC" points="757.098,582.067 734.175,542.367 757.098,502.663 802.942,502.663 825.863,542.367 
		802.942,582.067 	"/>
	<polygon fill="#221F72" points="390.806,503.848 413.191,542.165 435.097,504.225 413.729,461.568 	"/>
	<polygon opacity="0.2" fill="#F4F2EF" points="435.104,481.642 390.109,482.35 411.993,443.029 	"/>
	<polygon fill="#221F72" points="390.356,265.322 366.174,303.958 413.044,303.958 	"/>
	<polyline opacity="0.36" fill="#BBB7DC" points="848.747,502.464 917.842,542.165 894.921,502.464 848.042,499.146 	"/>
	<polygon opacity="0.45" fill="#221F72" points="1101.066,383.357 1078.141,343.655 1101.066,303.952 1146.907,303.952 
		1169.83,343.655 1146.907,383.357 	"/>
	<polygon opacity="0.52" fill="#F4F2EF" points="963.46,304.025 985.97,342.99 940.968,343 	"/>
	<polygon opacity="0.52" fill="#F4F2EF" points="917.444,383.4 939.954,422.366 894.953,422.375 	"/>
	<polygon opacity="0.19" fill="#BBB7DC" points="963.517,461.889 940.594,422.187 963.517,382.484 1009.361,382.484 
		1032.283,422.187 1009.361,461.889 	"/>
	<polygon opacity="0.39" fill="#BBB7DC" points="1169.674,819.371 1146.751,779.669 1169.674,739.967 1215.519,739.967 
		1238.44,779.669 1215.519,819.371 	"/>
	<polygon opacity="0.39" fill="#BBB7DC" points="1009.182,780.373 986.259,740.671 1009.182,700.969 1055.026,700.969 
		1077.948,740.671 1055.026,780.373 	"/>
	<polygon opacity="0.29" fill="#BBB7DC" points="1032.848,581.466 1009.925,541.764 1032.848,502.062 1078.692,502.062 
		1101.614,541.764 1078.692,581.466 	"/>
	<polygon opacity="0.2" fill="#5B57A6" points="1170.859,502.464 1147.936,462.762 1170.859,423.059 1216.702,423.059 
		1239.625,462.762 1216.702,502.464 	"/>
	<polygon opacity="0.73" fill="#F4F2EF" points="779.979,383.356 804.475,420.431 825.823,383.357 	"/>
	<polygon fill="#65ABD0" points="69.105,0.105 92.267,39.669 138.091,39.396 169.667,0 	"/>
	<polygon fill="#221F72" opacity="0.5" points="0,0 0.578,40.217 23.264,0.379 	"/>
	<polygon fill="#221F72" opacity="0.75" points="0.578,40.217 1.23,119.62 23.828,79.938 	"/>
	<polygon opacity="0.63" fill="#F4F2EF" points="24.392,159.184 1.25,233.75 1.23,119.62 	"/>
</g>
</svg>
