<?xml version="1.0" encoding="UTF-8"?>
<svg enable-background="new 0 0 1400 980" version="1.1" viewBox="0 0 1400 980"
	 width="1400" height="980"
	 xml:space="preserve" xmlns="http://www.w3.org/2000/svg">
	<rect width="1400" height="980" fill="#ffffff"/>
						<path d="m901.5 138c20.4 0 37.5-17.1 37.5-37.5s-17.1-37.5-37.5-37.5-37.5 17.1-37.5 37.5 17.1 37.5 37.5 37.5z" fill="#56D7B3"/>
						<path d="m901.5 238c20.4 0 37.5-17.1 37.5-37.5s-17.1-37.5-37.5-37.5-37.5 17.1-37.5 37.5 17.1 37.5 37.5 37.5z" fill="#FF8FAE"/>
						<path d="m901.5 38c20.4 0 37.5-17.1 37.5-37.5s-17.1-37.5-37.5-37.5-37.5 17.1-37.5 37.5 17.1 37.5 37.5 37.5z" fill="#FF8FAE"/>
						<path d="m801.5 88c20.4 0 37.5-17.1 37.5-37.5s-17.1-37.5-37.5-37.5-37.5 17.1-37.5 37.5 17.1 37.5 37.5 37.5z" fill="#FAC15C"/>
						<path d="m801.5 188c20.4 0 37.5-17.1 37.5-37.5s-17.1-37.5-37.5-37.5-37.5 17.1-37.5 37.5 17.1 37.5 37.5 37.5z" fill="#49D4E1"/>
						<path d="m1001.5 88c20.4 0 37.5-17.1 37.5-37.5s-17.1-37.5-37.5-37.5-37.5 17.1-37.5 37.5 17.1 37.5 37.5 37.5z" fill="#FAC15C"/>
						<path d="m1001.5 188c20.4 0 37.5-17.1 37.5-37.5s-17.1-37.5-37.5-37.5-37.5 17.1-37.5 37.5 17.1 37.5 37.5 37.5z" fill="#49D4E1"/>
						<path d="m1101.5 138c20.4 0 37.5-17.1 37.5-37.5s-17.1-37.5-37.5-37.5-37.5 17.1-37.5 37.5 17.1 37.5 37.5 37.5z" fill="#56D7B3"/>
						<path d="m1101.5 238c20.4 0 37.5-17.1 37.5-37.5s-17.1-37.5-37.5-37.5-37.5 17.1-37.5 37.5 17.1 37.5 37.5 37.5z" fill="#FF8FAE"/>
						<path d="m1101.5 38c20.4 0 37.5-17.1 37.5-37.5s-17.1-37.5-37.5-37.5-37.5 17.1-37.5 37.5 17.1 37.5 37.5 37.5z" fill="#FF8FAE"/>
						<path d="m1001.5 88c20.4 0 37.5-17.1 37.5-37.5s-17.1-37.5-37.5-37.5-37.5 17.1-37.5 37.5 17.1 37.5 37.5 37.5z" fill="#FAC15C"/>
						<path d="m1001.5 188c20.4 0 37.5-17.1 37.5-37.5s-17.1-37.5-37.5-37.5-37.5 17.1-37.5 37.5 17.1 37.5 37.5 37.5z" fill="#49D4E1"/>
						<path d="m1201.5 88c20.4 0 37.5-17.1 37.5-37.5s-17.1-37.5-37.5-37.5-37.5 17.1-37.5 37.5 17.1 37.5 37.5 37.5z" fill="#FAC15C"/>
						<path d="m1201.5 188c20.4 0 37.5-17.1 37.5-37.5s-17.1-37.5-37.5-37.5-37.5 17.1-37.5 37.5 17.1 37.5 37.5 37.5z" fill="#49D4E1"/>
						<path d="m901.5 338c20.4 0 37.5-17.1 37.5-37.5s-17.1-37.5-37.5-37.5-37.5 17.1-37.5 37.5 17.1 37.5 37.5 37.5z" fill="#56D7B3"/>
						<path d="m901.5 438c20.4 0 37.5-17.1 37.5-37.5s-17.1-37.5-37.5-37.5-37.5 17.1-37.5 37.5 17.1 37.5 37.5 37.5z" fill="#FF8FAE"/>
						<path d="m901.5 238c20.4 0 37.5-17.1 37.5-37.5s-17.1-37.5-37.5-37.5-37.5 17.1-37.5 37.5 17.1 37.5 37.5 37.5z" fill="#FF8FAE"/>
						<path d="m801.5 288c20.4 0 37.5-17.1 37.5-37.5s-17.1-37.5-37.5-37.5-37.5 17.1-37.5 37.5 17.1 37.5 37.5 37.5z" fill="#FAC15C"/>
						<path d="m801.5 388c20.4 0 37.5-17.1 37.5-37.5s-17.1-37.5-37.5-37.5-37.5 17.1-37.5 37.5 17.1 37.5 37.5 37.5z" fill="#49D4E1"/>
						<path d="m1001.5 288c20.4 0 37.5-17.1 37.5-37.5s-17.1-37.5-37.5-37.5-37.5 17.1-37.5 37.5 17.1 37.5 37.5 37.5z" fill="#FAC15C"/>
						<path d="m1001.5 388c20.4 0 37.5-17.1 37.5-37.5s-17.1-37.5-37.5-37.5-37.5 17.1-37.5 37.5 17.1 37.5 37.5 37.5z" fill="#49D4E1"/>
						<path d="m1101.5 338c20.4 0 37.5-17.1 37.5-37.5s-17.1-37.5-37.5-37.5-37.5 17.1-37.5 37.5 17.1 37.5 37.5 37.5z" fill="#56D7B3"/>
						<path d="m1101.5 438c20.4 0 37.5-17.1 37.5-37.5s-17.1-37.5-37.5-37.5-37.5 17.1-37.5 37.5 17.1 37.5 37.5 37.5z" fill="#FF8FAE"/>
						<path d="m1101.5 238c20.4 0 37.5-17.1 37.5-37.5s-17.1-37.5-37.5-37.5-37.5 17.1-37.5 37.5 17.1 37.5 37.5 37.5z" fill="#FF8FAE"/>
						<path d="m1001.5 288c20.4 0 37.5-17.1 37.5-37.5s-17.1-37.5-37.5-37.5-37.5 17.1-37.5 37.5 17.1 37.5 37.5 37.5z" fill="#FAC15C"/>
						<path d="m1001.5 388c20.4 0 37.5-17.1 37.5-37.5s-17.1-37.5-37.5-37.5-37.5 17.1-37.5 37.5 17.1 37.5 37.5 37.5z" fill="#49D4E1"/>
						<path d="m1201.5 288c20.4 0 37.5-17.1 37.5-37.5s-17.1-37.5-37.5-37.5-37.5 17.1-37.5 37.5 17.1 37.5 37.5 37.5z" fill="#FAC15C"/>
						<path d="m1201.5 388c20.4 0 37.5-17.1 37.5-37.5s-17.1-37.5-37.5-37.5-37.5 17.1-37.5 37.5 17.1 37.5 37.5 37.5z" fill="#49D4E1"/>
						<path d="m1301.5 138c20.4 0 37.5-17.1 37.5-37.5s-17.1-37.5-37.5-37.5-37.5 17.1-37.5 37.5 17.1 37.5 37.5 37.5z" fill="#56D7B3"/>
						<path d="m1301.5 238c20.4 0 37.5-17.1 37.5-37.5s-17.1-37.5-37.5-37.5-37.5 17.1-37.5 37.5 17.1 37.5 37.5 37.5z" fill="#FF8FAE"/>
						<path d="m1301.5 38c20.4 0 37.5-17.1 37.5-37.5s-17.1-37.5-37.5-37.5-37.5 17.1-37.5 37.5 17.1 37.5 37.5 37.5z" fill="#FF8FAE"/>
						<path d="m1201.5 88c20.4 0 37.5-17.1 37.5-37.5s-17.1-37.5-37.5-37.5-37.5 17.1-37.5 37.5 17.1 37.5 37.5 37.5z" fill="#FAC15C"/>
						<path d="m1201.5 188c20.4 0 37.5-17.1 37.5-37.5s-17.1-37.5-37.5-37.5-37.5 17.1-37.5 37.5 17.1 37.5 37.5 37.5z" fill="#49D4E1"/>
						<path d="m1401.5 88c20.4 0 37.5-17.1 37.5-37.5s-17.1-37.5-37.5-37.5-37.5 17.1-37.5 37.5 17.1 37.5 37.5 37.5z" fill="#FAC15C"/>
						<path d="m1401.5 188c20.4 0 37.5-17.1 37.5-37.5s-17.1-37.5-37.5-37.5-37.5 17.1-37.5 37.5 17.1 37.5 37.5 37.5z" fill="#49D4E1"/>
						<path d="m1501.5 138c20.4 0 37.5-17.1 37.5-37.5s-17.1-37.5-37.5-37.5-37.5 17.1-37.5 37.5 17.1 37.5 37.5 37.5z" fill="#56D7B3"/>
						<path d="m1501.5 238c20.4 0 37.5-17.1 37.5-37.5s-17.1-37.5-37.5-37.5-37.5 17.1-37.5 37.5 17.1 37.5 37.5 37.5z" fill="#FF8FAE"/>
						<path d="m1501.5 38c20.4 0 37.5-17.1 37.5-37.5s-17.1-37.5-37.5-37.5-37.5 17.1-37.5 37.5 17.1 37.5 37.5 37.5z" fill="#FF8FAE"/>
						<path d="m1401.5 88c20.4 0 37.5-17.1 37.5-37.5s-17.1-37.5-37.5-37.5-37.5 17.1-37.5 37.5 17.1 37.5 37.5 37.5z" fill="#FAC15C"/>
						<path d="m1401.5 188c20.4 0 37.5-17.1 37.5-37.5s-17.1-37.5-37.5-37.5-37.5 17.1-37.5 37.5 17.1 37.5 37.5 37.5z" fill="#49D4E1"/>
						<path d="m1601.5 88c20.4 0 37.5-17.1 37.5-37.5s-17.1-37.5-37.5-37.5-37.5 17.1-37.5 37.5 17.1 37.5 37.5 37.5z" fill="#FAC15C"/>
						<path d="m1601.5 188c20.4 0 37.5-17.1 37.5-37.5s-17.1-37.5-37.5-37.5-37.5 17.1-37.5 37.5 17.1 37.5 37.5 37.5z" fill="#49D4E1"/>
						<path d="m1301.5 338c20.4 0 37.5-17.1 37.5-37.5s-17.1-37.5-37.5-37.5-37.5 17.1-37.5 37.5 17.1 37.5 37.5 37.5z" fill="#56D7B3"/>
						<path d="m1301.5 438c20.4 0 37.5-17.1 37.5-37.5s-17.1-37.5-37.5-37.5-37.5 17.1-37.5 37.5 17.1 37.5 37.5 37.5z" fill="#FF8FAE"/>
						<path d="m1301.5 238c20.4 0 37.5-17.1 37.5-37.5s-17.1-37.5-37.5-37.5-37.5 17.1-37.5 37.5 17.1 37.5 37.5 37.5z" fill="#FF8FAE"/>
						<path d="m1201.5 288c20.4 0 37.5-17.1 37.5-37.5s-17.1-37.5-37.5-37.5-37.5 17.1-37.5 37.5 17.1 37.5 37.5 37.5z" fill="#FAC15C"/>
						<path d="m1201.5 388c20.4 0 37.5-17.1 37.5-37.5s-17.1-37.5-37.5-37.5-37.5 17.1-37.5 37.5 17.1 37.5 37.5 37.5z" fill="#49D4E1"/>
						<path d="m1401.5 288c20.4 0 37.5-17.1 37.5-37.5s-17.1-37.5-37.5-37.5-37.5 17.1-37.5 37.5 17.1 37.5 37.5 37.5z" fill="#FAC15C"/>
						<path d="m1401.5 388c20.4 0 37.5-17.1 37.5-37.5s-17.1-37.5-37.5-37.5-37.5 17.1-37.5 37.5 17.1 37.5 37.5 37.5z" fill="#49D4E1"/>
						<path d="m1501.5 338c20.4 0 37.5-17.1 37.5-37.5s-17.1-37.5-37.5-37.5-37.5 17.1-37.5 37.5 17.1 37.5 37.5 37.5z" fill="#56D7B3"/>
						<path d="m1501.5 438c20.4 0 37.5-17.1 37.5-37.5s-17.1-37.5-37.5-37.5-37.5 17.1-37.5 37.5 17.1 37.5 37.5 37.5z" fill="#FF8FAE"/>
						<path d="m1501.5 238c20.4 0 37.5-17.1 37.5-37.5s-17.1-37.5-37.5-37.5-37.5 17.1-37.5 37.5 17.1 37.5 37.5 37.5z" fill="#FF8FAE"/>
						<path d="m1401.5 288c20.4 0 37.5-17.1 37.5-37.5s-17.1-37.5-37.5-37.5-37.5 17.1-37.5 37.5 17.1 37.5 37.5 37.5z" fill="#FAC15C"/>
						<path d="m1401.5 388c20.4 0 37.5-17.1 37.5-37.5s-17.1-37.5-37.5-37.5-37.5 17.1-37.5 37.5 17.1 37.5 37.5 37.5z" fill="#49D4E1"/>
						<path d="m1601.5 288c20.4 0 37.5-17.1 37.5-37.5s-17.1-37.5-37.5-37.5-37.5 17.1-37.5 37.5 17.1 37.5 37.5 37.5z" fill="#FAC15C"/>
						<path d="m1601.5 388c20.4 0 37.5-17.1 37.5-37.5s-17.1-37.5-37.5-37.5-37.5 17.1-37.5 37.5 17.1 37.5 37.5 37.5z" fill="#49D4E1"/>
						<path d="m901.5 538c20.4 0 37.5-17.1 37.5-37.5s-17.1-37.5-37.5-37.5-37.5 17.1-37.5 37.5 17.1 37.5 37.5 37.5z" fill="#56D7B3"/>
						<path d="m901.5 638c20.4 0 37.5-17.1 37.5-37.5s-17.1-37.5-37.5-37.5-37.5 17.1-37.5 37.5 17.1 37.5 37.5 37.5z" fill="#FF8FAE"/>
						<path d="m901.5 438c20.4 0 37.5-17.1 37.5-37.5s-17.1-37.5-37.5-37.5-37.5 17.1-37.5 37.5 17.1 37.5 37.5 37.5z" fill="#FF8FAE"/>
						<path d="m801.5 488c20.4 0 37.5-17.1 37.5-37.5s-17.1-37.5-37.5-37.5-37.5 17.1-37.5 37.5 17.1 37.5 37.5 37.5z" fill="#FAC15C"/>
						<path d="m801.5 588c20.4 0 37.5-17.1 37.5-37.5s-17.1-37.5-37.5-37.5-37.5 17.1-37.5 37.5 17.1 37.5 37.5 37.5z" fill="#49D4E1"/>
						<path d="m1001.5 488c20.4 0 37.5-17.1 37.5-37.5s-17.1-37.5-37.5-37.5-37.5 17.1-37.5 37.5 17.1 37.5 37.5 37.5z" fill="#FAC15C"/>
						<path d="m1001.5 588c20.4 0 37.5-17.1 37.5-37.5s-17.1-37.5-37.5-37.5-37.5 17.1-37.5 37.5 17.1 37.5 37.5 37.5z" fill="#49D4E1"/>
						<path d="m1101.5 538c20.4 0 37.5-17.1 37.5-37.5s-17.1-37.5-37.5-37.5-37.5 17.1-37.5 37.5 17.1 37.5 37.5 37.5z" fill="#56D7B3"/>
						<path d="m1101.5 638c20.4 0 37.5-17.1 37.5-37.5s-17.1-37.5-37.5-37.5-37.5 17.1-37.5 37.5 17.1 37.5 37.5 37.5z" fill="#FF8FAE"/>
						<path d="m1101.5 438c20.4 0 37.5-17.1 37.5-37.5s-17.1-37.5-37.5-37.5-37.5 17.1-37.5 37.5 17.1 37.5 37.5 37.5z" fill="#FF8FAE"/>
						<path d="m1001.5 488c20.4 0 37.5-17.1 37.5-37.5s-17.1-37.5-37.5-37.5-37.5 17.1-37.5 37.5 17.1 37.5 37.5 37.5z" fill="#FAC15C"/>
						<path d="m1001.5 588c20.4 0 37.5-17.1 37.5-37.5s-17.1-37.5-37.5-37.5-37.5 17.1-37.5 37.5 17.1 37.5 37.5 37.5z" fill="#49D4E1"/>
						<path d="m1201.5 488c20.4 0 37.5-17.1 37.5-37.5s-17.1-37.5-37.5-37.5-37.5 17.1-37.5 37.5 17.1 37.5 37.5 37.5z" fill="#FAC15C"/>
						<path d="m1201.5 588c20.4 0 37.5-17.1 37.5-37.5s-17.1-37.5-37.5-37.5-37.5 17.1-37.5 37.5 17.1 37.5 37.5 37.5z" fill="#49D4E1"/>
						<path d="m901.5 738c20.4 0 37.5-17.1 37.5-37.5s-17.1-37.5-37.5-37.5-37.5 17.1-37.5 37.5 17.1 37.5 37.5 37.5z" fill="#56D7B3"/>
						<path d="m901.5 838c20.4 0 37.5-17.1 37.5-37.5s-17.1-37.5-37.5-37.5-37.5 17.1-37.5 37.5 17.1 37.5 37.5 37.5z" fill="#FF8FAE"/>
						<path d="m901.5 638c20.4 0 37.5-17.1 37.5-37.5s-17.1-37.5-37.5-37.5-37.5 17.1-37.5 37.5 17.1 37.5 37.5 37.5z" fill="#FF8FAE"/>
						<path d="m801.5 688c20.4 0 37.5-17.1 37.5-37.5s-17.1-37.5-37.5-37.5-37.5 17.1-37.5 37.5 17.1 37.5 37.5 37.5z" fill="#FAC15C"/>
						<path d="m801.5 788c20.4 0 37.5-17.1 37.5-37.5s-17.1-37.5-37.5-37.5-37.5 17.1-37.5 37.5 17.1 37.5 37.5 37.5z" fill="#49D4E1"/>
						<path d="m1001.5 688c20.4 0 37.5-17.1 37.5-37.5s-17.1-37.5-37.5-37.5-37.5 17.1-37.5 37.5 17.1 37.5 37.5 37.5z" fill="#FAC15C"/>
						<path d="m1001.5 788c20.4 0 37.5-17.1 37.5-37.5s-17.1-37.5-37.5-37.5-37.5 17.1-37.5 37.5 17.1 37.5 37.5 37.5z" fill="#49D4E1"/>
						<path d="m1101.5 738c20.4 0 37.5-17.1 37.5-37.5s-17.1-37.5-37.5-37.5-37.5 17.1-37.5 37.5 17.1 37.5 37.5 37.5z" fill="#56D7B3"/>
						<path d="m1101.5 838c20.4 0 37.5-17.1 37.5-37.5s-17.1-37.5-37.5-37.5-37.5 17.1-37.5 37.5 17.1 37.5 37.5 37.5z" fill="#FF8FAE"/>
						<path d="m1101.5 638c20.4 0 37.5-17.1 37.5-37.5s-17.1-37.5-37.5-37.5-37.5 17.1-37.5 37.5 17.1 37.5 37.5 37.5z" fill="#FF8FAE"/>
						<path d="m1001.5 688c20.4 0 37.5-17.1 37.5-37.5s-17.1-37.5-37.5-37.5-37.5 17.1-37.5 37.5 17.1 37.5 37.5 37.5z" fill="#FAC15C"/>
						<path d="m1001.5 788c20.4 0 37.5-17.1 37.5-37.5s-17.1-37.5-37.5-37.5-37.5 17.1-37.5 37.5 17.1 37.5 37.5 37.5z" fill="#49D4E1"/>
						<path d="m1201.5 688c20.4 0 37.5-17.1 37.5-37.5s-17.1-37.5-37.5-37.5-37.5 17.1-37.5 37.5 17.1 37.5 37.5 37.5z" fill="#FAC15C"/>
						<path d="m1201.5 788c20.4 0 37.5-17.1 37.5-37.5s-17.1-37.5-37.5-37.5-37.5 17.1-37.5 37.5 17.1 37.5 37.5 37.5z" fill="#49D4E1"/>
						<path d="m1301.5 538c20.4 0 37.5-17.1 37.5-37.5s-17.1-37.5-37.5-37.5-37.5 17.1-37.5 37.5 17.1 37.5 37.5 37.5z" fill="#56D7B3"/>
						<path d="m1301.5 638c20.4 0 37.5-17.1 37.5-37.5s-17.1-37.5-37.5-37.5-37.5 17.1-37.5 37.5 17.1 37.5 37.5 37.5z" fill="#FF8FAE"/>
						<path d="m1301.5 438c20.4 0 37.5-17.1 37.5-37.5s-17.1-37.5-37.5-37.5-37.5 17.1-37.5 37.5 17.1 37.5 37.5 37.5z" fill="#FF8FAE"/>
						<path d="m1201.5 488c20.4 0 37.5-17.1 37.5-37.5s-17.1-37.5-37.5-37.5-37.5 17.1-37.5 37.5 17.1 37.5 37.5 37.5z" fill="#FAC15C"/>
						<path d="m1201.5 588c20.4 0 37.5-17.1 37.5-37.5s-17.1-37.5-37.5-37.5-37.5 17.1-37.5 37.5 17.1 37.5 37.5 37.5z" fill="#49D4E1"/>
						<path d="m1401.5 488c20.4 0 37.5-17.1 37.5-37.5s-17.1-37.5-37.5-37.5-37.5 17.1-37.5 37.5 17.1 37.5 37.5 37.5z" fill="#FAC15C"/>
						<path d="m1401.5 588c20.4 0 37.5-17.1 37.5-37.5s-17.1-37.5-37.5-37.5-37.5 17.1-37.5 37.5 17.1 37.5 37.5 37.5z" fill="#49D4E1"/>
						<path d="m1501.5 538c20.4 0 37.5-17.1 37.5-37.5s-17.1-37.5-37.5-37.5-37.5 17.1-37.5 37.5 17.1 37.5 37.5 37.5z" fill="#56D7B3"/>
						<path d="m1501.5 638c20.4 0 37.5-17.1 37.5-37.5s-17.1-37.5-37.5-37.5-37.5 17.1-37.5 37.5 17.1 37.5 37.5 37.5z" fill="#FF8FAE"/>
						<path d="m1501.5 438c20.4 0 37.5-17.1 37.5-37.5s-17.1-37.5-37.5-37.5-37.5 17.1-37.5 37.5 17.1 37.5 37.5 37.5z" fill="#FF8FAE"/>
						<path d="m1401.5 488c20.4 0 37.5-17.1 37.5-37.5s-17.1-37.5-37.5-37.5-37.5 17.1-37.5 37.5 17.1 37.5 37.5 37.5z" fill="#FAC15C"/>
						<path d="m1401.5 588c20.4 0 37.5-17.1 37.5-37.5s-17.1-37.5-37.5-37.5-37.5 17.1-37.5 37.5 17.1 37.5 37.5 37.5z" fill="#49D4E1"/>
						<path d="m1601.5 488c20.4 0 37.5-17.1 37.5-37.5s-17.1-37.5-37.5-37.5-37.5 17.1-37.5 37.5 17.1 37.5 37.5 37.5z" fill="#FAC15C"/>
						<path d="m1601.5 588c20.4 0 37.5-17.1 37.5-37.5s-17.1-37.5-37.5-37.5-37.5 17.1-37.5 37.5 17.1 37.5 37.5 37.5z" fill="#49D4E1"/>
						<path d="m1301.5 738c20.4 0 37.5-17.1 37.5-37.5s-17.1-37.5-37.5-37.5-37.5 17.1-37.5 37.5 17.1 37.5 37.5 37.5z" fill="#56D7B3"/>
						<path d="m1301.5 838c20.4 0 37.5-17.1 37.5-37.5s-17.1-37.5-37.5-37.5-37.5 17.1-37.5 37.5 17.1 37.5 37.5 37.5z" fill="#FF8FAE"/>
						<path d="m1301.5 638c20.4 0 37.5-17.1 37.5-37.5s-17.1-37.5-37.5-37.5-37.5 17.1-37.5 37.5 17.1 37.5 37.5 37.5z" fill="#FF8FAE"/>
						<path d="m1201.5 688c20.4 0 37.5-17.1 37.5-37.5s-17.1-37.5-37.5-37.5-37.5 17.1-37.5 37.5 17.1 37.5 37.5 37.5z" fill="#FAC15C"/>
						<path d="m1201.5 788c20.4 0 37.5-17.1 37.5-37.5s-17.1-37.5-37.5-37.5-37.5 17.1-37.5 37.5 17.1 37.5 37.5 37.5z" fill="#49D4E1"/>
						<path d="m1401.5 688c20.4 0 37.5-17.1 37.5-37.5s-17.1-37.5-37.5-37.5-37.5 17.1-37.5 37.5 17.1 37.5 37.5 37.5z" fill="#FAC15C"/>
						<path d="m1401.5 788c20.4 0 37.5-17.1 37.5-37.5s-17.1-37.5-37.5-37.5-37.5 17.1-37.5 37.5 17.1 37.5 37.5 37.5z" fill="#49D4E1"/>
						<path d="m1501.5 738c20.4 0 37.5-17.1 37.5-37.5s-17.1-37.5-37.5-37.5-37.5 17.1-37.5 37.5 17.1 37.5 37.5 37.5z" fill="#56D7B3"/>
						<path d="m1501.5 838c20.4 0 37.5-17.1 37.5-37.5s-17.1-37.5-37.5-37.5-37.5 17.1-37.5 37.5 17.1 37.5 37.5 37.5z" fill="#FF8FAE"/>
						<path d="m1501.5 638c20.4 0 37.5-17.1 37.5-37.5s-17.1-37.5-37.5-37.5-37.5 17.1-37.5 37.5 17.1 37.5 37.5 37.5z" fill="#FF8FAE"/>
						<path d="m1401.5 688c20.4 0 37.5-17.1 37.5-37.5s-17.1-37.5-37.5-37.5-37.5 17.1-37.5 37.5 17.1 37.5 37.5 37.5z" fill="#FAC15C"/>
						<path d="m1401.5 788c20.4 0 37.5-17.1 37.5-37.5s-17.1-37.5-37.5-37.5-37.5 17.1-37.5 37.5 17.1 37.5 37.5 37.5z" fill="#49D4E1"/>
						<path d="m1601.5 688c20.4 0 37.5-17.1 37.5-37.5s-17.1-37.5-37.5-37.5-37.5 17.1-37.5 37.5 17.1 37.5 37.5 37.5z" fill="#FAC15C"/>
						<path d="m1601.5 788c20.4 0 37.5-17.1 37.5-37.5s-17.1-37.5-37.5-37.5-37.5 17.1-37.5 37.5 17.1 37.5 37.5 37.5z" fill="#49D4E1"/>
						<path d="m901.5 939c20.4 0 37.5-17.1 37.5-37.5s-17.1-37.5-37.5-37.5-37.5 17.1-37.5 37.5 17.1 37.5 37.5 37.5z" fill="#56D7B3"/>
						<path d="m901.5 1039c20.4 0 37.5-17.1 37.5-37.5s-17.1-37.5-37.5-37.5-37.5 17.1-37.5 37.5 17.1 37.5 37.5 37.5z" fill="#FF8FAE"/>
						<path d="m901.5 839c20.4 0 37.5-17.1 37.5-37.5s-17.1-37.5-37.5-37.5-37.5 17.1-37.5 37.5 17.1 37.5 37.5 37.5z" fill="#FF8FAE"/>
						<path d="m801.5 889c20.4 0 37.5-17.1 37.5-37.5s-17.1-37.5-37.5-37.5-37.5 17.1-37.5 37.5 17.1 37.5 37.5 37.5z" fill="#FAC15C"/>
						<path d="m801.5 989c20.4 0 37.5-17.1 37.5-37.5s-17.1-37.5-37.5-37.5-37.5 17.1-37.5 37.5 17.1 37.5 37.5 37.5z" fill="#49D4E1"/>
						<path d="m1001.5 889c20.4 0 37.5-17.1 37.5-37.5s-17.1-37.5-37.5-37.5-37.5 17.1-37.5 37.5 17.1 37.5 37.5 37.5z" fill="#FAC15C"/>
						<path d="m1001.5 989c20.4 0 37.5-17.1 37.5-37.5s-17.1-37.5-37.5-37.5-37.5 17.1-37.5 37.5 17.1 37.5 37.5 37.5z" fill="#49D4E1"/>
						<path d="m1101.5 939c20.4 0 37.5-17.1 37.5-37.5s-17.1-37.5-37.5-37.5-37.5 17.1-37.5 37.5 17.1 37.5 37.5 37.5z" fill="#56D7B3"/>
						<path d="m1101.5 1039c20.4 0 37.5-17.1 37.5-37.5s-17.1-37.5-37.5-37.5-37.5 17.1-37.5 37.5 17.1 37.5 37.5 37.5z" fill="#FF8FAE"/>
						<path d="m1101.5 839c20.4 0 37.5-17.1 37.5-37.5s-17.1-37.5-37.5-37.5-37.5 17.1-37.5 37.5 17.1 37.5 37.5 37.5z" fill="#FF8FAE"/>
						<path d="m1001.5 889c20.4 0 37.5-17.1 37.5-37.5s-17.1-37.5-37.5-37.5-37.5 17.1-37.5 37.5 17.1 37.5 37.5 37.5z" fill="#FAC15C"/>
						<path d="m1001.5 989c20.4 0 37.5-17.1 37.5-37.5s-17.1-37.5-37.5-37.5-37.5 17.1-37.5 37.5 17.1 37.5 37.5 37.5z" fill="#49D4E1"/>
						<path d="m1201.5 889c20.4 0 37.5-17.1 37.5-37.5s-17.1-37.5-37.5-37.5-37.5 17.1-37.5 37.5 17.1 37.5 37.5 37.5z" fill="#FAC15C"/>
						<path d="m1201.5 989c20.4 0 37.5-17.1 37.5-37.5s-17.1-37.5-37.5-37.5-37.5 17.1-37.5 37.5 17.1 37.5 37.5 37.5z" fill="#49D4E1"/>
						<path d="m901.5 1139c20.4 0 37.5-17.1 37.5-37.5s-17.1-37.5-37.5-37.5-37.5 17.1-37.5 37.5 17.1 37.5 37.5 37.5z" fill="#56D7B3"/>
						<path d="m901.5 1239c20.4 0 37.5-17.1 37.5-37.5s-17.1-37.5-37.5-37.5-37.5 17.1-37.5 37.5 17.1 37.5 37.5 37.5z" fill="#FF8FAE"/>
						<path d="m901.5 1039c20.4 0 37.5-17.1 37.5-37.5s-17.1-37.5-37.5-37.5-37.5 17.1-37.5 37.5 17.1 37.5 37.5 37.5z" fill="#FF8FAE"/>
						<path d="m801.5 1089c20.4 0 37.5-17.1 37.5-37.5s-17.1-37.5-37.5-37.5-37.5 17.1-37.5 37.5 17.1 37.5 37.5 37.5z" fill="#FAC15C"/>
						<path d="m801.5 1189c20.4 0 37.5-17.1 37.5-37.5s-17.1-37.5-37.5-37.5-37.5 17.1-37.5 37.5 17.1 37.5 37.5 37.5z" fill="#49D4E1"/>
						<path d="m1001.5 1089c20.4 0 37.5-17.1 37.5-37.5s-17.1-37.5-37.5-37.5-37.5 17.1-37.5 37.5 17.1 37.5 37.5 37.5z" fill="#FAC15C"/>
						<path d="m1001.5 1189c20.4 0 37.5-17.1 37.5-37.5s-17.1-37.5-37.5-37.5-37.5 17.1-37.5 37.5 17.1 37.5 37.5 37.5z" fill="#49D4E1"/>
						<path d="m1101.5 1139c20.4 0 37.5-17.1 37.5-37.5s-17.1-37.5-37.5-37.5-37.5 17.1-37.5 37.5 17.1 37.5 37.5 37.5z" fill="#56D7B3"/>
						<path d="m1101.5 1239c20.4 0 37.5-17.1 37.5-37.5s-17.1-37.5-37.5-37.5-37.5 17.1-37.5 37.5 17.1 37.5 37.5 37.5z" fill="#FF8FAE"/>
						<path d="m1101.5 1039c20.4 0 37.5-17.1 37.5-37.5s-17.1-37.5-37.5-37.5-37.5 17.1-37.5 37.5 17.1 37.5 37.5 37.5z" fill="#FF8FAE"/>
						<path d="m1001.5 1089c20.4 0 37.5-17.1 37.5-37.5s-17.1-37.5-37.5-37.5-37.5 17.1-37.5 37.5 17.1 37.5 37.5 37.5z" fill="#FAC15C"/>
						<path d="m1001.5 1189c20.4 0 37.5-17.1 37.5-37.5s-17.1-37.5-37.5-37.5-37.5 17.1-37.5 37.5 17.1 37.5 37.5 37.5z" fill="#49D4E1"/>
						<path d="m1201.5 1089c20.4 0 37.5-17.1 37.5-37.5s-17.1-37.5-37.5-37.5-37.5 17.1-37.5 37.5 17.1 37.5 37.5 37.5z" fill="#FAC15C"/>
						<path d="m1201.5 1189c20.4 0 37.5-17.1 37.5-37.5s-17.1-37.5-37.5-37.5-37.5 17.1-37.5 37.5 17.1 37.5 37.5 37.5z" fill="#49D4E1"/>
						<path d="m1301.5 939c20.4 0 37.5-17.1 37.5-37.5s-17.1-37.5-37.5-37.5-37.5 17.1-37.5 37.5 17.1 37.5 37.5 37.5z" fill="#56D7B3"/>
						<path d="m1301.5 1039c20.4 0 37.5-17.1 37.5-37.5s-17.1-37.5-37.5-37.5-37.5 17.1-37.5 37.5 17.1 37.5 37.5 37.5z" fill="#FF8FAE"/>
						<path d="m1301.5 839c20.4 0 37.5-17.1 37.5-37.5s-17.1-37.5-37.5-37.5-37.5 17.1-37.5 37.5 17.1 37.5 37.5 37.5z" fill="#FF8FAE"/>
						<path d="m1201.5 889c20.4 0 37.5-17.1 37.5-37.5s-17.1-37.5-37.5-37.5-37.5 17.1-37.5 37.5 17.1 37.5 37.5 37.5z" fill="#FAC15C"/>
						<path d="m1201.5 989c20.4 0 37.5-17.1 37.5-37.5s-17.1-37.5-37.5-37.5-37.5 17.1-37.5 37.5 17.1 37.5 37.5 37.5z" fill="#49D4E1"/>
						<path d="m1401.5 889c20.4 0 37.5-17.1 37.5-37.5s-17.1-37.5-37.5-37.5-37.5 17.1-37.5 37.5 17.1 37.5 37.5 37.5z" fill="#FAC15C"/>
						<path d="m1401.5 989c20.4 0 37.5-17.1 37.5-37.5s-17.1-37.5-37.5-37.5-37.5 17.1-37.5 37.5 17.1 37.5 37.5 37.5z" fill="#49D4E1"/>
						<path d="m1501.5 939c20.4 0 37.5-17.1 37.5-37.5s-17.1-37.5-37.5-37.5-37.5 17.1-37.5 37.5 17.1 37.5 37.5 37.5z" fill="#56D7B3"/>
						<path d="m1501.5 1039c20.4 0 37.5-17.1 37.5-37.5s-17.1-37.5-37.5-37.5-37.5 17.1-37.5 37.5 17.1 37.5 37.5 37.5z" fill="#FF8FAE"/>
						<path d="m1501.5 839c20.4 0 37.5-17.1 37.5-37.5s-17.1-37.5-37.5-37.5-37.5 17.1-37.5 37.5 17.1 37.5 37.5 37.5z" fill="#FF8FAE"/>
						<path d="m1401.5 889c20.4 0 37.5-17.1 37.5-37.5s-17.1-37.5-37.5-37.5-37.5 17.1-37.5 37.5 17.1 37.5 37.5 37.5z" fill="#FAC15C"/>
						<path d="m1401.5 989c20.4 0 37.5-17.1 37.5-37.5s-17.1-37.5-37.5-37.5-37.5 17.1-37.5 37.5 17.1 37.5 37.5 37.5z" fill="#49D4E1"/>
						<path d="m1601.5 889c20.4 0 37.5-17.1 37.5-37.5s-17.1-37.5-37.5-37.5-37.5 17.1-37.5 37.5 17.1 37.5 37.5 37.5z" fill="#FAC15C"/>
						<path d="m1601.5 989c20.4 0 37.5-17.1 37.5-37.5s-17.1-37.5-37.5-37.5-37.5 17.1-37.5 37.5 17.1 37.5 37.5 37.5z" fill="#49D4E1"/>
						<path d="m1301.5 1139c20.4 0 37.5-17.1 37.5-37.5s-17.1-37.5-37.5-37.5-37.5 17.1-37.5 37.5 17.1 37.5 37.5 37.5z" fill="#56D7B3"/>
						<path d="m1301.5 1239c20.4 0 37.5-17.1 37.5-37.5s-17.1-37.5-37.5-37.5-37.5 17.1-37.5 37.5 17.1 37.5 37.5 37.5z" fill="#FF8FAE"/>
						<path d="m1301.5 1039c20.4 0 37.5-17.1 37.5-37.5s-17.1-37.5-37.5-37.5-37.5 17.1-37.5 37.5 17.1 37.5 37.5 37.5z" fill="#FF8FAE"/>
						<path d="m1201.5 1089c20.4 0 37.5-17.1 37.5-37.5s-17.1-37.5-37.5-37.5-37.5 17.1-37.5 37.5 17.1 37.5 37.5 37.5z" fill="#FAC15C"/>
						<path d="m1201.5 1189c20.4 0 37.5-17.1 37.5-37.5s-17.1-37.5-37.5-37.5-37.5 17.1-37.5 37.5 17.1 37.5 37.5 37.5z" fill="#49D4E1"/>
						<path d="m1401.5 1089c20.4 0 37.5-17.1 37.5-37.5s-17.1-37.5-37.5-37.5-37.5 17.1-37.5 37.5 17.1 37.5 37.5 37.5z" fill="#FAC15C"/>
						<path d="m1401.5 1189c20.4 0 37.5-17.1 37.5-37.5s-17.1-37.5-37.5-37.5-37.5 17.1-37.5 37.5 17.1 37.5 37.5 37.5z" fill="#49D4E1"/>
						<path d="m1501.5 1139c20.4 0 37.5-17.1 37.5-37.5s-17.1-37.5-37.5-37.5-37.5 17.1-37.5 37.5 17.1 37.5 37.5 37.5z" fill="#56D7B3"/>
						<path d="m1501.5 1239c20.4 0 37.5-17.1 37.5-37.5s-17.1-37.5-37.5-37.5-37.5 17.1-37.5 37.5 17.1 37.5 37.5 37.5z" fill="#FF8FAE"/>
						<path d="m1501.5 1039c20.4 0 37.5-17.1 37.5-37.5s-17.1-37.5-37.5-37.5-37.5 17.1-37.5 37.5 17.1 37.5 37.5 37.5z" fill="#FF8FAE"/>
						<path d="m1401.5 1089c20.4 0 37.5-17.1 37.5-37.5s-17.1-37.5-37.5-37.5-37.5 17.1-37.5 37.5 17.1 37.5 37.5 37.5z" fill="#FAC15C"/>
						<path d="m1401.5 1189c20.4 0 37.5-17.1 37.5-37.5s-17.1-37.5-37.5-37.5-37.5 17.1-37.5 37.5 17.1 37.5 37.5 37.5z" fill="#49D4E1"/>
						<path d="m1601.5 1089c20.4 0 37.5-17.1 37.5-37.5s-17.1-37.5-37.5-37.5-37.5 17.1-37.5 37.5 17.1 37.5 37.5 37.5z" fill="#FAC15C"/>
						<path d="m1601.5 1189c20.4 0 37.5-17.1 37.5-37.5s-17.1-37.5-37.5-37.5-37.5 17.1-37.5 37.5 17.1 37.5 37.5 37.5z" fill="#49D4E1"/>
						<path d="m901.5 1339c20.4 0 37.5-17.1 37.5-37.5s-17.1-37.5-37.5-37.5-37.5 17.1-37.5 37.5 17.1 37.5 37.5 37.5z" fill="#56D7B3"/>
						<path d="m901.5 1439c20.4 0 37.5-17.1 37.5-37.5s-17.1-37.5-37.5-37.5-37.5 17.1-37.5 37.5 17.1 37.5 37.5 37.5z" fill="#FF8FAE"/>
						<path d="m901.5 1239c20.4 0 37.5-17.1 37.5-37.5s-17.1-37.5-37.5-37.5-37.5 17.1-37.5 37.5 17.1 37.5 37.5 37.5z" fill="#FF8FAE"/>
						<path d="m801.5 1289c20.4 0 37.5-17.1 37.5-37.5s-17.1-37.5-37.5-37.5-37.5 17.1-37.5 37.5 17.1 37.5 37.5 37.5z" fill="#FAC15C"/>
						<path d="m801.5 1389c20.4 0 37.5-17.1 37.5-37.5s-17.1-37.5-37.5-37.5-37.5 17.1-37.5 37.5 17.1 37.5 37.5 37.5z" fill="#49D4E1"/>
						<path d="m1001.5 1289c20.4 0 37.5-17.1 37.5-37.5s-17.1-37.5-37.5-37.5-37.5 17.1-37.5 37.5 17.1 37.5 37.5 37.5z" fill="#FAC15C"/>
						<path d="m1001.5 1389c20.4 0 37.5-17.1 37.5-37.5s-17.1-37.5-37.5-37.5-37.5 17.1-37.5 37.5 17.1 37.5 37.5 37.5z" fill="#49D4E1"/>
						<path d="m1101.5 1339c20.4 0 37.5-17.1 37.5-37.5s-17.1-37.5-37.5-37.5-37.5 17.1-37.5 37.5 17.1 37.5 37.5 37.5z" fill="#56D7B3"/>
						<path d="m1101.5 1439c20.4 0 37.5-17.1 37.5-37.5s-17.1-37.5-37.5-37.5-37.5 17.1-37.5 37.5 17.1 37.5 37.5 37.5z" fill="#FF8FAE"/>
						<path d="m1101.5 1239c20.4 0 37.5-17.1 37.5-37.5s-17.1-37.5-37.5-37.5-37.5 17.1-37.5 37.5 17.1 37.5 37.5 37.5z" fill="#FF8FAE"/>
						<path d="m1001.5 1289c20.4 0 37.5-17.1 37.5-37.5s-17.1-37.5-37.5-37.5-37.5 17.1-37.5 37.5 17.1 37.5 37.5 37.5z" fill="#FAC15C"/>
						<path d="m1001.5 1389c20.4 0 37.5-17.1 37.5-37.5s-17.1-37.5-37.5-37.5-37.5 17.1-37.5 37.5 17.1 37.5 37.5 37.5z" fill="#49D4E1"/>
						<path d="m1201.5 1289c20.4 0 37.5-17.1 37.5-37.5s-17.1-37.5-37.5-37.5-37.5 17.1-37.5 37.5 17.1 37.5 37.5 37.5z" fill="#FAC15C"/>
						<path d="m1201.5 1389c20.4 0 37.5-17.1 37.5-37.5s-17.1-37.5-37.5-37.5-37.5 17.1-37.5 37.5 17.1 37.5 37.5 37.5z" fill="#49D4E1"/>
						<path d="m901.5 1539c20.4 0 37.5-17.1 37.5-37.5s-17.1-37.5-37.5-37.5-37.5 17.1-37.5 37.5 17.1 37.5 37.5 37.5z" fill="#56D7B3"/>
						<path d="m901.5 1639c20.4 0 37.5-17.1 37.5-37.5s-17.1-37.5-37.5-37.5-37.5 17.1-37.5 37.5 17.1 37.5 37.5 37.5z" fill="#FF8FAE"/>
						<path d="m901.5 1439c20.4 0 37.5-17.1 37.5-37.5s-17.1-37.5-37.5-37.5-37.5 17.1-37.5 37.5 17.1 37.5 37.5 37.5z" fill="#FF8FAE"/>
						<path d="m801.5 1489c20.4 0 37.5-17.1 37.5-37.5s-17.1-37.5-37.5-37.5-37.5 17.1-37.5 37.5 17.1 37.5 37.5 37.5z" fill="#FAC15C"/>
						<path d="m801.5 1589c20.4 0 37.5-17.1 37.5-37.5s-17.1-37.5-37.5-37.5-37.5 17.1-37.5 37.5 17.1 37.5 37.5 37.5z" fill="#49D4E1"/>
						<path d="m1001.5 1489c20.4 0 37.5-17.1 37.5-37.5s-17.1-37.5-37.5-37.5-37.5 17.1-37.5 37.5 17.1 37.5 37.5 37.5z" fill="#FAC15C"/>
						<path d="m1001.5 1589c20.4 0 37.5-17.1 37.5-37.5s-17.1-37.5-37.5-37.5-37.5 17.1-37.5 37.5 17.1 37.5 37.5 37.5z" fill="#49D4E1"/>
						<path d="m1101.5 1539c20.4 0 37.5-17.1 37.5-37.5s-17.1-37.5-37.5-37.5-37.5 17.1-37.5 37.5 17.1 37.5 37.5 37.5z" fill="#56D7B3"/>
						<path d="m1101.5 1639c20.4 0 37.5-17.1 37.5-37.5s-17.1-37.5-37.5-37.5-37.5 17.1-37.5 37.5 17.1 37.5 37.5 37.5z" fill="#FF8FAE"/>
						<path d="m1101.5 1439c20.4 0 37.5-17.1 37.5-37.5s-17.1-37.5-37.5-37.5-37.5 17.1-37.5 37.5 17.1 37.5 37.5 37.5z" fill="#FF8FAE"/>
						<path d="m1001.5 1489c20.4 0 37.5-17.1 37.5-37.5s-17.1-37.5-37.5-37.5-37.5 17.1-37.5 37.5 17.1 37.5 37.5 37.5z" fill="#FAC15C"/>
						<path d="m1001.5 1589c20.4 0 37.5-17.1 37.5-37.5s-17.1-37.5-37.5-37.5-37.5 17.1-37.5 37.5 17.1 37.5 37.5 37.5z" fill="#49D4E1"/>
						<path d="m1201.5 1489c20.4 0 37.5-17.1 37.5-37.5s-17.1-37.5-37.5-37.5-37.5 17.1-37.5 37.5 17.1 37.5 37.5 37.5z" fill="#FAC15C"/>
						<path d="m1201.5 1589c20.4 0 37.5-17.1 37.5-37.5s-17.1-37.5-37.5-37.5-37.5 17.1-37.5 37.5 17.1 37.5 37.5 37.5z" fill="#49D4E1"/>
						<path d="m1301.5 1339c20.4 0 37.5-17.1 37.5-37.5s-17.1-37.5-37.5-37.5-37.5 17.1-37.5 37.5 17.1 37.5 37.5 37.5z" fill="#56D7B3"/>
						<path d="m1301.5 1439c20.4 0 37.5-17.1 37.5-37.5s-17.1-37.5-37.5-37.5-37.5 17.1-37.5 37.5 17.1 37.5 37.5 37.5z" fill="#FF8FAE"/>
						<path d="m1301.5 1239c20.4 0 37.5-17.1 37.5-37.5s-17.1-37.5-37.5-37.5-37.5 17.1-37.5 37.5 17.1 37.5 37.5 37.5z" fill="#FF8FAE"/>
						<path d="m1201.5 1289c20.4 0 37.5-17.1 37.5-37.5s-17.1-37.5-37.5-37.5-37.5 17.1-37.5 37.5 17.1 37.5 37.5 37.5z" fill="#FAC15C"/>
						<path d="m1201.5 1389c20.4 0 37.5-17.1 37.5-37.5s-17.1-37.5-37.5-37.5-37.5 17.1-37.5 37.5 17.1 37.5 37.5 37.5z" fill="#49D4E1"/>
						<path d="m1401.5 1289c20.4 0 37.5-17.1 37.5-37.5s-17.1-37.5-37.5-37.5-37.5 17.1-37.5 37.5 17.1 37.5 37.5 37.5z" fill="#FAC15C"/>
						<path d="m1401.5 1389c20.4 0 37.5-17.1 37.5-37.5s-17.1-37.5-37.5-37.5-37.5 17.1-37.5 37.5 17.1 37.5 37.5 37.5z" fill="#49D4E1"/>
						<path d="m1501.5 1339c20.4 0 37.5-17.1 37.5-37.5s-17.1-37.5-37.5-37.5-37.5 17.1-37.5 37.5 17.1 37.5 37.5 37.5z" fill="#56D7B3"/>
						<path d="m1501.5 1439c20.4 0 37.5-17.1 37.5-37.5s-17.1-37.5-37.5-37.5-37.5 17.1-37.5 37.5 17.1 37.5 37.5 37.5z" fill="#FF8FAE"/>
						<path d="m1501.5 1239c20.4 0 37.5-17.1 37.5-37.5s-17.1-37.5-37.5-37.5-37.5 17.1-37.5 37.5 17.1 37.5 37.5 37.5z" fill="#FF8FAE"/>
						<path d="m1401.5 1289c20.4 0 37.5-17.1 37.5-37.5s-17.1-37.5-37.5-37.5-37.5 17.1-37.5 37.5 17.1 37.5 37.5 37.5z" fill="#FAC15C"/>
						<path d="m1401.5 1389c20.4 0 37.5-17.1 37.5-37.5s-17.1-37.5-37.5-37.5-37.5 17.1-37.5 37.5 17.1 37.5 37.5 37.5z" fill="#49D4E1"/>
						<path d="m1601.5 1289c20.4 0 37.5-17.1 37.5-37.5s-17.1-37.5-37.5-37.5-37.5 17.1-37.5 37.5 17.1 37.5 37.5 37.5z" fill="#FAC15C"/>
						<path d="m1601.5 1389c20.4 0 37.5-17.1 37.5-37.5s-17.1-37.5-37.5-37.5-37.5 17.1-37.5 37.5 17.1 37.5 37.5 37.5z" fill="#49D4E1"/>
						<path d="m1301.5 1539c20.4 0 37.5-17.1 37.5-37.5s-17.1-37.5-37.5-37.5-37.5 17.1-37.5 37.5 17.1 37.5 37.5 37.5z" fill="#56D7B3"/>
						<path d="m1301.5 1639c20.4 0 37.5-17.1 37.5-37.5s-17.1-37.5-37.5-37.5-37.5 17.1-37.5 37.5 17.1 37.5 37.5 37.5z" fill="#FF8FAE"/>
						<path d="m1301.5 1439c20.4 0 37.5-17.1 37.5-37.5s-17.1-37.5-37.5-37.5-37.5 17.1-37.5 37.5 17.1 37.5 37.5 37.5z" fill="#FF8FAE"/>
						<path d="m1201.5 1489c20.4 0 37.5-17.1 37.5-37.5s-17.1-37.5-37.5-37.5-37.5 17.1-37.5 37.5 17.1 37.5 37.5 37.5z" fill="#FAC15C"/>
						<path d="m1201.5 1589c20.4 0 37.5-17.1 37.5-37.5s-17.1-37.5-37.5-37.5-37.5 17.1-37.5 37.5 17.1 37.5 37.5 37.5z" fill="#49D4E1"/>
						<path d="m1401.5 1489c20.4 0 37.5-17.1 37.5-37.5s-17.1-37.5-37.5-37.5-37.5 17.1-37.5 37.5 17.1 37.5 37.5 37.5z" fill="#FAC15C"/>
						<path d="m1401.5 1589c20.4 0 37.5-17.1 37.5-37.5s-17.1-37.5-37.5-37.5-37.5 17.1-37.5 37.5 17.1 37.5 37.5 37.5z" fill="#49D4E1"/>
						<path d="m1501.5 1539c20.4 0 37.5-17.1 37.5-37.5s-17.1-37.5-37.5-37.5-37.5 17.1-37.5 37.5 17.1 37.5 37.5 37.5z" fill="#56D7B3"/>
						<path d="m1501.5 1639c20.4 0 37.5-17.1 37.5-37.5s-17.1-37.5-37.5-37.5-37.5 17.1-37.5 37.5 17.1 37.5 37.5 37.5z" fill="#FF8FAE"/>
						<path d="m1501.5 1439c20.4 0 37.5-17.1 37.5-37.5s-17.1-37.5-37.5-37.5-37.5 17.1-37.5 37.5 17.1 37.5 37.5 37.5z" fill="#FF8FAE"/>
						<path d="m1401.5 1489c20.4 0 37.5-17.1 37.5-37.5s-17.1-37.5-37.5-37.5-37.5 17.1-37.5 37.5 17.1 37.5 37.5 37.5z" fill="#FAC15C"/>
						<path d="m1401.5 1589c20.4 0 37.5-17.1 37.5-37.5s-17.1-37.5-37.5-37.5-37.5 17.1-37.5 37.5 17.1 37.5 37.5 37.5z" fill="#49D4E1"/>
						<path d="m1601.5 1489c20.4 0 37.5-17.1 37.5-37.5s-17.1-37.5-37.5-37.5-37.5 17.1-37.5 37.5 17.1 37.5 37.5 37.5z" fill="#FAC15C"/>
						<path d="m1601.5 1589c20.4 0 37.5-17.1 37.5-37.5s-17.1-37.5-37.5-37.5-37.5 17.1-37.5 37.5 17.1 37.5 37.5 37.5z" fill="#49D4E1"/>
						<path d="m100.5 138c20.4 0 37.5-17.1 37.5-37.5s-17.1-37.5-37.5-37.5-37.5 17.1-37.5 37.5 17.1 37.5 37.5 37.5z" fill="#56D7B3"/>
						<path d="m100.5 238c20.4 0 37.5-17.1 37.5-37.5s-17.1-37.5-37.5-37.5-37.5 17.1-37.5 37.5 17.1 37.5 37.5 37.5z" fill="#FF8FAE"/>
						<path d="m100.5 38c20.4 0 37.5-17.1 37.5-37.5s-17.1-37.5-37.5-37.5-37.5 17.1-37.5 37.5 17.1 37.5 37.5 37.5z" fill="#FF8FAE"/>
						<path d="m0.5 88c20.4 0 37.5-17.1 37.5-37.5s-17.1-37.5-37.5-37.5-37.5 17.1-37.5 37.5 17.1 37.5 37.5 37.5z" fill="#FAC15C"/>
						<path d="m0.5 188c20.4 0 37.5-17.1 37.5-37.5s-17.1-37.5-37.5-37.5-37.5 17.1-37.5 37.5 17.1 37.5 37.5 37.5z" fill="#49D4E1"/>
						<path d="m200.5 88c20.4 0 37.5-17.1 37.5-37.5s-17.1-37.5-37.5-37.5-37.5 17.1-37.5 37.5 17.1 37.5 37.5 37.5z" fill="#FAC15C"/>
						<path d="m200.5 188c20.4 0 37.5-17.1 37.5-37.5s-17.1-37.5-37.5-37.5-37.5 17.1-37.5 37.5 17.1 37.5 37.5 37.5z" fill="#49D4E1"/>
						<path d="m300.5 138c20.4 0 37.5-17.1 37.5-37.5s-17.1-37.5-37.5-37.5-37.5 17.1-37.5 37.5 17.1 37.5 37.5 37.5z" fill="#56D7B3"/>
						<path d="m300.5 238c20.4 0 37.5-17.1 37.5-37.5s-17.1-37.5-37.5-37.5-37.5 17.1-37.5 37.5 17.1 37.5 37.5 37.5z" fill="#FF8FAE"/>
						<path d="m300.5 38c20.4 0 37.5-17.1 37.5-37.5s-17.1-37.5-37.5-37.5-37.5 17.1-37.5 37.5 17.1 37.5 37.5 37.5z" fill="#FF8FAE"/>
						<path d="m200.5 88c20.4 0 37.5-17.1 37.5-37.5s-17.1-37.5-37.5-37.5-37.5 17.1-37.5 37.5 17.1 37.5 37.5 37.5z" fill="#FAC15C"/>
						<path d="m200.5 188c20.4 0 37.5-17.1 37.5-37.5s-17.1-37.5-37.5-37.5-37.5 17.1-37.5 37.5 17.1 37.5 37.5 37.5z" fill="#49D4E1"/>
						<path d="m400.5 88c20.4 0 37.5-17.1 37.5-37.5s-17.1-37.5-37.5-37.5-37.5 17.1-37.5 37.5 17.1 37.5 37.5 37.5z" fill="#FAC15C"/>
						<path d="m400.5 188c20.4 0 37.5-17.1 37.5-37.5s-17.1-37.5-37.5-37.5-37.5 17.1-37.5 37.5 17.1 37.5 37.5 37.5z" fill="#49D4E1"/>
						<path d="m100.5 338c20.4 0 37.5-17.1 37.5-37.5s-17.1-37.5-37.5-37.5-37.5 17.1-37.5 37.5 17.1 37.5 37.5 37.5z" fill="#56D7B3"/>
						<path d="m100.5 438c20.4 0 37.5-17.1 37.5-37.5s-17.1-37.5-37.5-37.5-37.5 17.1-37.5 37.5 17.1 37.5 37.5 37.5z" fill="#FF8FAE"/>
						<path d="m100.5 238c20.4 0 37.5-17.1 37.5-37.5s-17.1-37.5-37.5-37.5-37.5 17.1-37.5 37.5 17.1 37.5 37.5 37.5z" fill="#FF8FAE"/>
						<path d="m0.5 288c20.4 0 37.5-17.1 37.5-37.5s-17.1-37.5-37.5-37.5-37.5 17.1-37.5 37.5 17.1 37.5 37.5 37.5z" fill="#FAC15C"/>
						<path d="m0.5 388c20.4 0 37.5-17.1 37.5-37.5s-17.1-37.5-37.5-37.5-37.5 17.1-37.5 37.5 17.1 37.5 37.5 37.5z" fill="#49D4E1"/>
						<path d="m200.5 288c20.4 0 37.5-17.1 37.5-37.5s-17.1-37.5-37.5-37.5-37.5 17.1-37.5 37.5 17.1 37.5 37.5 37.5z" fill="#FAC15C"/>
						<path d="m200.5 388c20.4 0 37.5-17.1 37.5-37.5s-17.1-37.5-37.5-37.5-37.5 17.1-37.5 37.5 17.1 37.5 37.5 37.5z" fill="#49D4E1"/>
						<path d="m300.5 338c20.4 0 37.5-17.1 37.5-37.5s-17.1-37.5-37.5-37.5-37.5 17.1-37.5 37.5 17.1 37.5 37.5 37.5z" fill="#56D7B3"/>
						<path d="m300.5 438c20.4 0 37.5-17.1 37.5-37.5s-17.1-37.5-37.5-37.5-37.5 17.1-37.5 37.5 17.1 37.5 37.5 37.5z" fill="#FF8FAE"/>
						<path d="m300.5 238c20.4 0 37.5-17.1 37.5-37.5s-17.1-37.5-37.5-37.5-37.5 17.1-37.5 37.5 17.1 37.5 37.5 37.5z" fill="#FF8FAE"/>
						<path d="m200.5 288c20.4 0 37.5-17.1 37.5-37.5s-17.1-37.5-37.5-37.5-37.5 17.1-37.5 37.5 17.1 37.5 37.5 37.5z" fill="#FAC15C"/>
						<path d="m200.5 388c20.4 0 37.5-17.1 37.5-37.5s-17.1-37.5-37.5-37.5-37.5 17.1-37.5 37.5 17.1 37.5 37.5 37.5z" fill="#49D4E1"/>
						<path d="m400.5 288c20.4 0 37.5-17.1 37.5-37.5s-17.1-37.5-37.5-37.5-37.5 17.1-37.5 37.5 17.1 37.5 37.5 37.5z" fill="#FAC15C"/>
						<path d="m400.5 388c20.4 0 37.5-17.1 37.5-37.5s-17.1-37.5-37.5-37.5-37.5 17.1-37.5 37.5 17.1 37.5 37.5 37.5z" fill="#49D4E1"/>
						<path d="m500.5 138c20.4 0 37.5-17.1 37.5-37.5s-17.1-37.5-37.5-37.5-37.5 17.1-37.5 37.5 17.1 37.5 37.5 37.5z" fill="#56D7B3"/>
						<path d="m500.5 238c20.4 0 37.5-17.1 37.5-37.5s-17.1-37.5-37.5-37.5-37.5 17.1-37.5 37.5 17.1 37.5 37.5 37.5z" fill="#FF8FAE"/>
						<path d="m500.5 38c20.4 0 37.5-17.1 37.5-37.5s-17.1-37.5-37.5-37.5-37.5 17.1-37.5 37.5 17.1 37.5 37.5 37.5z" fill="#FF8FAE"/>
						<path d="m400.5 88c20.4 0 37.5-17.1 37.5-37.5s-17.1-37.5-37.5-37.5-37.5 17.1-37.5 37.5 17.1 37.5 37.5 37.5z" fill="#FAC15C"/>
						<path d="m400.5 188c20.4 0 37.5-17.1 37.5-37.5s-17.1-37.5-37.5-37.5-37.5 17.1-37.5 37.5 17.1 37.5 37.5 37.5z" fill="#49D4E1"/>
						<path d="m600.5 88c20.4 0 37.5-17.1 37.5-37.5s-17.1-37.5-37.5-37.5-37.5 17.1-37.5 37.5 17.1 37.5 37.5 37.5z" fill="#FAC15C"/>
						<path d="m600.5 188c20.4 0 37.5-17.1 37.5-37.5s-17.1-37.5-37.5-37.5-37.5 17.1-37.5 37.5 17.1 37.5 37.5 37.5z" fill="#49D4E1"/>
						<path d="m700.5 138c20.4 0 37.5-17.1 37.5-37.5s-17.1-37.5-37.5-37.5-37.5 17.1-37.5 37.5 17.1 37.5 37.5 37.5z" fill="#56D7B3"/>
						<path d="m700.5 238c20.4 0 37.5-17.1 37.5-37.5s-17.1-37.5-37.5-37.5-37.5 17.1-37.5 37.5 17.1 37.5 37.5 37.5z" fill="#FF8FAE"/>
						<path d="m700.5 38c20.4 0 37.5-17.1 37.5-37.5s-17.1-37.5-37.5-37.5-37.5 17.1-37.5 37.5 17.1 37.5 37.5 37.5z" fill="#FF8FAE"/>
						<path d="m600.5 88c20.4 0 37.5-17.1 37.5-37.5s-17.1-37.5-37.5-37.5-37.5 17.1-37.5 37.5 17.1 37.5 37.5 37.5z" fill="#FAC15C"/>
						<path d="m600.5 188c20.4 0 37.5-17.1 37.5-37.5s-17.1-37.5-37.5-37.5-37.5 17.1-37.5 37.5 17.1 37.5 37.5 37.5z" fill="#49D4E1"/>
						<path d="m800.5 88c20.4 0 37.5-17.1 37.5-37.5s-17.1-37.5-37.5-37.5-37.5 17.1-37.5 37.5 17.1 37.5 37.5 37.5z" fill="#FAC15C"/>
						<path d="m800.5 188c20.4 0 37.5-17.1 37.5-37.5s-17.1-37.5-37.5-37.5-37.5 17.1-37.5 37.5 17.1 37.5 37.5 37.5z" fill="#49D4E1"/>
						<path d="m500.5 338c20.4 0 37.5-17.1 37.5-37.5s-17.1-37.5-37.5-37.5-37.5 17.1-37.5 37.5 17.1 37.5 37.5 37.5z" fill="#56D7B3"/>
						<path d="m500.5 438c20.4 0 37.5-17.1 37.5-37.5s-17.1-37.5-37.5-37.5-37.5 17.1-37.5 37.5 17.1 37.5 37.5 37.5z" fill="#FF8FAE"/>
						<path d="m500.5 238c20.4 0 37.5-17.1 37.5-37.5s-17.1-37.5-37.5-37.5-37.5 17.1-37.5 37.5 17.1 37.5 37.5 37.5z" fill="#FF8FAE"/>
						<path d="m400.5 288c20.4 0 37.5-17.1 37.5-37.5s-17.1-37.5-37.5-37.5-37.5 17.1-37.5 37.5 17.1 37.5 37.5 37.5z" fill="#FAC15C"/>
						<path d="m400.5 388c20.4 0 37.5-17.1 37.5-37.5s-17.1-37.5-37.5-37.5-37.5 17.1-37.5 37.5 17.1 37.5 37.5 37.5z" fill="#49D4E1"/>
						<path d="m600.5 288c20.4 0 37.5-17.1 37.5-37.5s-17.1-37.5-37.5-37.5-37.5 17.1-37.5 37.5 17.1 37.5 37.5 37.5z" fill="#FAC15C"/>
						<path d="m600.5 388c20.4 0 37.5-17.1 37.5-37.5s-17.1-37.5-37.5-37.5-37.5 17.1-37.5 37.5 17.1 37.5 37.5 37.5z" fill="#49D4E1"/>
						<path d="m700.5 338c20.4 0 37.5-17.1 37.5-37.5s-17.1-37.5-37.5-37.5-37.5 17.1-37.5 37.5 17.1 37.5 37.5 37.5z" fill="#56D7B3"/>
						<path d="m700.5 438c20.4 0 37.5-17.1 37.5-37.5s-17.1-37.5-37.5-37.5-37.5 17.1-37.5 37.5 17.1 37.5 37.5 37.5z" fill="#FF8FAE"/>
						<path d="m700.5 238c20.4 0 37.5-17.1 37.5-37.5s-17.1-37.5-37.5-37.5-37.5 17.1-37.5 37.5 17.1 37.5 37.5 37.5z" fill="#FF8FAE"/>
						<path d="m600.5 288c20.4 0 37.5-17.1 37.5-37.5s-17.1-37.5-37.5-37.5-37.5 17.1-37.5 37.5 17.1 37.5 37.5 37.5z" fill="#FAC15C"/>
						<path d="m600.5 388c20.4 0 37.5-17.1 37.5-37.5s-17.1-37.5-37.5-37.5-37.5 17.1-37.5 37.5 17.1 37.5 37.5 37.5z" fill="#49D4E1"/>
						<path d="m800.5 288c20.4 0 37.5-17.1 37.5-37.5s-17.1-37.5-37.5-37.5-37.5 17.1-37.5 37.5 17.1 37.5 37.5 37.5z" fill="#FAC15C"/>
						<path d="m800.5 388c20.4 0 37.5-17.1 37.5-37.5s-17.1-37.5-37.5-37.5-37.5 17.1-37.5 37.5 17.1 37.5 37.5 37.5z" fill="#49D4E1"/>
						<path d="m100.5 538c20.4 0 37.5-17.1 37.5-37.5s-17.1-37.5-37.5-37.5-37.5 17.1-37.5 37.5 17.1 37.5 37.5 37.5z" fill="#56D7B3"/>
						<path d="m100.5 638c20.4 0 37.5-17.1 37.5-37.5s-17.1-37.5-37.5-37.5-37.5 17.1-37.5 37.5 17.1 37.5 37.5 37.5z" fill="#FF8FAE"/>
						<path d="m100.5 438c20.4 0 37.5-17.1 37.5-37.5s-17.1-37.5-37.5-37.5-37.5 17.1-37.5 37.5 17.1 37.5 37.5 37.5z" fill="#FF8FAE"/>
						<path d="m0.5 488c20.4 0 37.5-17.1 37.5-37.5s-17.1-37.5-37.5-37.5-37.5 17.1-37.5 37.5 17.1 37.5 37.5 37.5z" fill="#FAC15C"/>
						<path d="m0.5 588c20.4 0 37.5-17.1 37.5-37.5s-17.1-37.5-37.5-37.5-37.5 17.1-37.5 37.5 17.1 37.5 37.5 37.5z" fill="#49D4E1"/>
						<path d="m200.5 488c20.4 0 37.5-17.1 37.5-37.5s-17.1-37.5-37.5-37.5-37.5 17.1-37.5 37.5 17.1 37.5 37.5 37.5z" fill="#FAC15C"/>
						<path d="m200.5 588c20.4 0 37.5-17.1 37.5-37.5s-17.1-37.5-37.5-37.5-37.5 17.1-37.5 37.5 17.1 37.5 37.5 37.5z" fill="#49D4E1"/>
						<path d="m300.5 538c20.4 0 37.5-17.1 37.5-37.5s-17.1-37.5-37.5-37.5-37.5 17.1-37.5 37.5 17.1 37.5 37.5 37.5z" fill="#56D7B3"/>
						<path d="m300.5 638c20.4 0 37.5-17.1 37.5-37.5s-17.1-37.5-37.5-37.5-37.5 17.1-37.5 37.5 17.1 37.5 37.5 37.5z" fill="#FF8FAE"/>
						<path d="m300.5 438c20.4 0 37.5-17.1 37.5-37.5s-17.1-37.5-37.5-37.5-37.5 17.1-37.5 37.5 17.1 37.5 37.5 37.5z" fill="#FF8FAE"/>
						<path d="m200.5 488c20.4 0 37.5-17.1 37.5-37.5s-17.1-37.5-37.5-37.5-37.5 17.1-37.5 37.5 17.1 37.5 37.5 37.5z" fill="#FAC15C"/>
						<path d="m200.5 588c20.4 0 37.5-17.1 37.5-37.5s-17.1-37.5-37.5-37.5-37.5 17.1-37.5 37.5 17.1 37.5 37.5 37.5z" fill="#49D4E1"/>
						<path d="m400.5 488c20.4 0 37.5-17.1 37.5-37.5s-17.1-37.5-37.5-37.5-37.5 17.1-37.5 37.5 17.1 37.5 37.5 37.5z" fill="#FAC15C"/>
						<path d="m400.5 588c20.4 0 37.5-17.1 37.5-37.5s-17.1-37.5-37.5-37.5-37.5 17.1-37.5 37.5 17.1 37.5 37.5 37.5z" fill="#49D4E1"/>
						<path d="m100.5 738c20.4 0 37.5-17.1 37.5-37.5s-17.1-37.5-37.5-37.5-37.5 17.1-37.5 37.5 17.1 37.5 37.5 37.5z" fill="#56D7B3"/>
						<path d="m100.5 838c20.4 0 37.5-17.1 37.5-37.5s-17.1-37.5-37.5-37.5-37.5 17.1-37.5 37.5 17.1 37.5 37.5 37.5z" fill="#FF8FAE"/>
						<path d="m100.5 638c20.4 0 37.5-17.1 37.5-37.5s-17.1-37.5-37.5-37.5-37.5 17.1-37.5 37.5 17.1 37.5 37.5 37.5z" fill="#FF8FAE"/>
						<path d="m0.5 688c20.4 0 37.5-17.1 37.5-37.5s-17.1-37.5-37.5-37.5-37.5 17.1-37.5 37.5 17.1 37.5 37.5 37.5z" fill="#FAC15C"/>
						<path d="m0.5 788c20.4 0 37.5-17.1 37.5-37.5s-17.1-37.5-37.5-37.5-37.5 17.1-37.5 37.5 17.1 37.5 37.5 37.5z" fill="#49D4E1"/>
						<path d="m200.5 688c20.4 0 37.5-17.1 37.5-37.5s-17.1-37.5-37.5-37.5-37.5 17.1-37.5 37.5 17.1 37.5 37.5 37.5z" fill="#FAC15C"/>
						<path d="m200.5 788c20.4 0 37.5-17.1 37.5-37.5s-17.1-37.5-37.5-37.5-37.5 17.1-37.5 37.5 17.1 37.5 37.5 37.5z" fill="#49D4E1"/>
						<path d="m300.5 738c20.4 0 37.5-17.1 37.5-37.5s-17.1-37.5-37.5-37.5-37.5 17.1-37.5 37.5 17.1 37.5 37.5 37.5z" fill="#56D7B3"/>
						<path d="m300.5 838c20.4 0 37.5-17.1 37.5-37.5s-17.1-37.5-37.5-37.5-37.5 17.1-37.5 37.5 17.1 37.5 37.5 37.5z" fill="#FF8FAE"/>
						<path d="m300.5 638c20.4 0 37.5-17.1 37.5-37.5s-17.1-37.5-37.5-37.5-37.5 17.1-37.5 37.5 17.1 37.5 37.5 37.5z" fill="#FF8FAE"/>
						<path d="m200.5 688c20.4 0 37.5-17.1 37.5-37.5s-17.1-37.5-37.5-37.5-37.5 17.1-37.5 37.5 17.1 37.5 37.5 37.5z" fill="#FAC15C"/>
						<path d="m200.5 788c20.4 0 37.5-17.1 37.5-37.5s-17.1-37.5-37.5-37.5-37.5 17.1-37.5 37.5 17.1 37.5 37.5 37.5z" fill="#49D4E1"/>
						<path d="m400.5 688c20.4 0 37.5-17.1 37.5-37.5s-17.1-37.5-37.5-37.5-37.5 17.1-37.5 37.5 17.1 37.5 37.5 37.5z" fill="#FAC15C"/>
						<path d="m400.5 788c20.4 0 37.5-17.1 37.5-37.5s-17.1-37.5-37.5-37.5-37.5 17.1-37.5 37.5 17.1 37.5 37.5 37.5z" fill="#49D4E1"/>
						<path d="m500.5 538c20.4 0 37.5-17.1 37.5-37.5s-17.1-37.5-37.5-37.5-37.5 17.1-37.5 37.5 17.1 37.5 37.5 37.5z" fill="#56D7B3"/>
						<path d="m500.5 638c20.4 0 37.5-17.1 37.5-37.5s-17.1-37.5-37.5-37.5-37.5 17.1-37.5 37.5 17.1 37.5 37.5 37.5z" fill="#FF8FAE"/>
						<path d="m500.5 438c20.4 0 37.5-17.1 37.5-37.5s-17.1-37.5-37.5-37.5-37.5 17.1-37.5 37.5 17.1 37.5 37.5 37.5z" fill="#FF8FAE"/>
						<path d="m400.5 488c20.4 0 37.5-17.1 37.5-37.5s-17.1-37.5-37.5-37.5-37.5 17.1-37.5 37.5 17.1 37.5 37.5 37.5z" fill="#FAC15C"/>
						<path d="m400.5 588c20.4 0 37.5-17.1 37.5-37.5s-17.1-37.5-37.5-37.5-37.5 17.1-37.5 37.5 17.1 37.5 37.5 37.5z" fill="#49D4E1"/>
						<path d="m600.5 488c20.4 0 37.5-17.1 37.5-37.5s-17.1-37.5-37.5-37.5-37.5 17.1-37.5 37.5 17.1 37.5 37.5 37.5z" fill="#FAC15C"/>
						<path d="m600.5 588c20.4 0 37.5-17.1 37.5-37.5s-17.1-37.5-37.5-37.5-37.5 17.1-37.5 37.5 17.1 37.5 37.5 37.5z" fill="#49D4E1"/>
						<path d="m700.5 538c20.4 0 37.5-17.1 37.5-37.5s-17.1-37.5-37.5-37.5-37.5 17.1-37.5 37.5 17.1 37.5 37.5 37.5z" fill="#56D7B3"/>
						<path d="m700.5 638c20.4 0 37.5-17.1 37.5-37.5s-17.1-37.5-37.5-37.5-37.5 17.1-37.5 37.5 17.1 37.5 37.5 37.5z" fill="#FF8FAE"/>
						<path d="m700.5 438c20.4 0 37.5-17.1 37.5-37.5s-17.1-37.5-37.5-37.5-37.5 17.1-37.5 37.5 17.1 37.5 37.5 37.5z" fill="#FF8FAE"/>
						<path d="m600.5 488c20.4 0 37.5-17.1 37.5-37.5s-17.1-37.5-37.5-37.5-37.5 17.1-37.5 37.5 17.1 37.5 37.5 37.5z" fill="#FAC15C"/>
						<path d="m600.5 588c20.4 0 37.5-17.1 37.5-37.5s-17.1-37.5-37.5-37.5-37.5 17.1-37.5 37.5 17.1 37.5 37.5 37.5z" fill="#49D4E1"/>
						<path d="m800.5 488c20.4 0 37.5-17.1 37.5-37.5s-17.1-37.5-37.5-37.5-37.5 17.1-37.5 37.5 17.1 37.5 37.5 37.5z" fill="#FAC15C"/>
						<path d="m800.5 588c20.4 0 37.5-17.1 37.5-37.5s-17.1-37.5-37.5-37.5-37.5 17.1-37.5 37.5 17.1 37.5 37.5 37.5z" fill="#49D4E1"/>
						<path d="m500.5 738c20.4 0 37.5-17.1 37.5-37.5s-17.1-37.5-37.5-37.5-37.5 17.1-37.5 37.5 17.1 37.5 37.5 37.5z" fill="#56D7B3"/>
						<path d="m500.5 838c20.4 0 37.5-17.1 37.5-37.5s-17.1-37.5-37.5-37.5-37.5 17.1-37.5 37.5 17.1 37.5 37.5 37.5z" fill="#FF8FAE"/>
						<path d="m500.5 638c20.4 0 37.5-17.1 37.5-37.5s-17.1-37.5-37.5-37.5-37.5 17.1-37.5 37.5 17.1 37.5 37.5 37.5z" fill="#FF8FAE"/>
						<path d="m400.5 688c20.4 0 37.5-17.1 37.5-37.5s-17.1-37.5-37.5-37.5-37.5 17.1-37.5 37.5 17.1 37.5 37.5 37.5z" fill="#FAC15C"/>
						<path d="m400.5 788c20.4 0 37.5-17.1 37.5-37.5s-17.1-37.5-37.5-37.5-37.5 17.1-37.5 37.5 17.1 37.5 37.5 37.5z" fill="#49D4E1"/>
						<path d="m600.5 688c20.4 0 37.5-17.1 37.5-37.5s-17.1-37.5-37.5-37.5-37.5 17.1-37.5 37.5 17.1 37.5 37.5 37.5z" fill="#FAC15C"/>
						<path d="m600.5 788c20.4 0 37.5-17.1 37.5-37.5s-17.1-37.5-37.5-37.5-37.5 17.1-37.5 37.5 17.1 37.5 37.5 37.5z" fill="#49D4E1"/>
						<path d="m700.5 738c20.4 0 37.5-17.1 37.5-37.5s-17.1-37.5-37.5-37.5-37.5 17.1-37.5 37.5 17.1 37.5 37.5 37.5z" fill="#56D7B3"/>
						<path d="m700.5 838c20.4 0 37.5-17.1 37.5-37.5s-17.1-37.5-37.5-37.5-37.5 17.1-37.5 37.5 17.1 37.5 37.5 37.5z" fill="#FF8FAE"/>
						<path d="m700.5 638c20.4 0 37.5-17.1 37.5-37.5s-17.1-37.5-37.5-37.5-37.5 17.1-37.5 37.5 17.1 37.5 37.5 37.5z" fill="#FF8FAE"/>
						<path d="m600.5 688c20.4 0 37.5-17.1 37.5-37.5s-17.1-37.5-37.5-37.5-37.5 17.1-37.5 37.5 17.1 37.5 37.5 37.5z" fill="#FAC15C"/>
						<path d="m600.5 788c20.4 0 37.5-17.1 37.5-37.5s-17.1-37.5-37.5-37.5-37.5 17.1-37.5 37.5 17.1 37.5 37.5 37.5z" fill="#49D4E1"/>
						<path d="m800.5 688c20.4 0 37.5-17.1 37.5-37.5s-17.1-37.5-37.5-37.5-37.5 17.1-37.5 37.5 17.1 37.5 37.5 37.5z" fill="#FAC15C"/>
						<path d="m800.5 788c20.4 0 37.5-17.1 37.5-37.5s-17.1-37.5-37.5-37.5-37.5 17.1-37.5 37.5 17.1 37.5 37.5 37.5z" fill="#49D4E1"/>
						<path d="m100.5 939c20.4 0 37.5-17.1 37.5-37.5s-17.1-37.5-37.5-37.5-37.5 17.1-37.5 37.5 17.1 37.5 37.5 37.5z" fill="#56D7B3"/>
						<path d="m100.5 1039c20.4 0 37.5-17.1 37.5-37.5s-17.1-37.5-37.5-37.5-37.5 17.1-37.5 37.5 17.1 37.5 37.5 37.5z" fill="#FF8FAE"/>
						<path d="m100.5 839c20.4 0 37.5-17.1 37.5-37.5s-17.1-37.5-37.5-37.5-37.5 17.1-37.5 37.5 17.1 37.5 37.5 37.5z" fill="#FF8FAE"/>
						<path d="m0.5 889c20.4 0 37.5-17.1 37.5-37.5s-17.1-37.5-37.5-37.5-37.5 17.1-37.5 37.5 17.1 37.5 37.5 37.5z" fill="#FAC15C"/>
						<path d="m0.5 989c20.4 0 37.5-17.1 37.5-37.5s-17.1-37.5-37.5-37.5-37.5 17.1-37.5 37.5 17.1 37.5 37.5 37.5z" fill="#49D4E1"/>
						<path d="m200.5 889c20.4 0 37.5-17.1 37.5-37.5s-17.1-37.5-37.5-37.5-37.5 17.1-37.5 37.5 17.1 37.5 37.5 37.5z" fill="#FAC15C"/>
						<path d="m200.5 989c20.4 0 37.5-17.1 37.5-37.5s-17.1-37.5-37.5-37.5-37.5 17.1-37.5 37.5 17.1 37.5 37.5 37.5z" fill="#49D4E1"/>
						<path d="m300.5 939c20.4 0 37.5-17.1 37.5-37.5s-17.1-37.5-37.5-37.5-37.5 17.1-37.5 37.5 17.1 37.5 37.5 37.5z" fill="#56D7B3"/>
						<path d="m300.5 1039c20.4 0 37.5-17.1 37.5-37.5s-17.1-37.5-37.5-37.5-37.5 17.1-37.5 37.5 17.1 37.5 37.5 37.5z" fill="#FF8FAE"/>
						<path d="m300.5 839c20.4 0 37.5-17.1 37.5-37.5s-17.1-37.5-37.5-37.5-37.5 17.1-37.5 37.5 17.1 37.5 37.5 37.5z" fill="#FF8FAE"/>
						<path d="m200.5 889c20.4 0 37.5-17.1 37.5-37.5s-17.1-37.5-37.5-37.5-37.5 17.1-37.5 37.5 17.1 37.5 37.5 37.5z" fill="#FAC15C"/>
						<path d="m200.5 989c20.4 0 37.5-17.1 37.5-37.5s-17.1-37.5-37.5-37.5-37.5 17.1-37.5 37.5 17.1 37.5 37.5 37.5z" fill="#49D4E1"/>
						<path d="m400.5 889c20.4 0 37.5-17.1 37.5-37.5s-17.1-37.5-37.5-37.5-37.5 17.1-37.5 37.5 17.1 37.5 37.5 37.5z" fill="#FAC15C"/>
						<path d="m400.5 989c20.4 0 37.5-17.1 37.5-37.5s-17.1-37.5-37.5-37.5-37.5 17.1-37.5 37.5 17.1 37.5 37.5 37.5z" fill="#49D4E1"/>
						<path d="m100.5 1139c20.4 0 37.5-17.1 37.5-37.5s-17.1-37.5-37.5-37.5-37.5 17.1-37.5 37.5 17.1 37.5 37.5 37.5z" fill="#56D7B3"/>
						<path d="m100.5 1239c20.4 0 37.5-17.1 37.5-37.5s-17.1-37.5-37.5-37.5-37.5 17.1-37.5 37.5 17.1 37.5 37.5 37.5z" fill="#FF8FAE"/>
						<path d="m100.5 1039c20.4 0 37.5-17.1 37.5-37.5s-17.1-37.5-37.5-37.5-37.5 17.1-37.5 37.5 17.1 37.5 37.5 37.5z" fill="#FF8FAE"/>
						<path d="m0.5 1089c20.4 0 37.5-17.1 37.5-37.5s-17.1-37.5-37.5-37.5-37.5 17.1-37.5 37.5 17.1 37.5 37.5 37.5z" fill="#FAC15C"/>
						<path d="m0.5 1189c20.4 0 37.5-17.1 37.5-37.5s-17.1-37.5-37.5-37.5-37.5 17.1-37.5 37.5 17.1 37.5 37.5 37.5z" fill="#49D4E1"/>
						<path d="m200.5 1089c20.4 0 37.5-17.1 37.5-37.5s-17.1-37.5-37.5-37.5-37.5 17.1-37.5 37.5 17.1 37.5 37.5 37.5z" fill="#FAC15C"/>
						<path d="m200.5 1189c20.4 0 37.5-17.1 37.5-37.5s-17.1-37.5-37.5-37.5-37.5 17.1-37.5 37.5 17.1 37.5 37.5 37.5z" fill="#49D4E1"/>
						<path d="m300.5 1139c20.4 0 37.5-17.1 37.5-37.5s-17.1-37.5-37.5-37.5-37.5 17.1-37.5 37.5 17.1 37.5 37.5 37.5z" fill="#56D7B3"/>
						<path d="m300.5 1239c20.4 0 37.5-17.1 37.5-37.5s-17.1-37.5-37.5-37.5-37.5 17.1-37.5 37.5 17.1 37.5 37.5 37.5z" fill="#FF8FAE"/>
						<path d="m300.5 1039c20.4 0 37.5-17.1 37.5-37.5s-17.1-37.5-37.5-37.5-37.5 17.1-37.5 37.5 17.1 37.5 37.5 37.5z" fill="#FF8FAE"/>
						<path d="m200.5 1089c20.4 0 37.5-17.1 37.5-37.5s-17.1-37.5-37.5-37.5-37.5 17.1-37.5 37.5 17.1 37.5 37.5 37.5z" fill="#FAC15C"/>
						<path d="m200.5 1189c20.4 0 37.5-17.1 37.5-37.5s-17.1-37.5-37.5-37.5-37.5 17.1-37.5 37.5 17.1 37.5 37.5 37.5z" fill="#49D4E1"/>
						<path d="m400.5 1089c20.4 0 37.5-17.1 37.5-37.5s-17.1-37.5-37.5-37.5-37.5 17.1-37.5 37.5 17.1 37.5 37.5 37.5z" fill="#FAC15C"/>
						<path d="m400.5 1189c20.4 0 37.5-17.1 37.5-37.5s-17.1-37.5-37.5-37.5-37.5 17.1-37.5 37.5 17.1 37.5 37.5 37.5z" fill="#49D4E1"/>
						<path d="m500.5 939c20.4 0 37.5-17.1 37.5-37.5s-17.1-37.5-37.5-37.5-37.5 17.1-37.5 37.5 17.1 37.5 37.5 37.5z" fill="#56D7B3"/>
						<path d="m500.5 1039c20.4 0 37.5-17.1 37.5-37.5s-17.1-37.5-37.5-37.5-37.5 17.1-37.5 37.5 17.1 37.5 37.5 37.5z" fill="#FF8FAE"/>
						<path d="m500.5 839c20.4 0 37.5-17.1 37.5-37.5s-17.1-37.5-37.5-37.5-37.5 17.1-37.5 37.5 17.1 37.5 37.5 37.5z" fill="#FF8FAE"/>
						<path d="m400.5 889c20.4 0 37.5-17.1 37.5-37.5s-17.1-37.5-37.5-37.5-37.5 17.1-37.5 37.5 17.1 37.5 37.5 37.5z" fill="#FAC15C"/>
						<path d="m400.5 989c20.4 0 37.5-17.1 37.5-37.5s-17.1-37.5-37.5-37.5-37.5 17.1-37.5 37.5 17.1 37.5 37.5 37.5z" fill="#49D4E1"/>
						<path d="m600.5 889c20.4 0 37.5-17.1 37.5-37.5s-17.1-37.5-37.5-37.5-37.5 17.1-37.5 37.5 17.1 37.5 37.5 37.5z" fill="#FAC15C"/>
						<path d="m600.5 989c20.4 0 37.5-17.1 37.5-37.5s-17.1-37.5-37.5-37.5-37.5 17.1-37.5 37.5 17.1 37.5 37.5 37.5z" fill="#49D4E1"/>
						<path d="m700.5 939c20.4 0 37.5-17.1 37.5-37.5s-17.1-37.5-37.5-37.5-37.5 17.1-37.5 37.5 17.1 37.5 37.5 37.5z" fill="#56D7B3"/>
						<path d="m700.5 1039c20.4 0 37.5-17.1 37.5-37.5s-17.1-37.5-37.5-37.5-37.5 17.1-37.5 37.5 17.1 37.5 37.5 37.5z" fill="#FF8FAE"/>
						<path d="m700.5 839c20.4 0 37.5-17.1 37.5-37.5s-17.1-37.5-37.5-37.5-37.5 17.1-37.5 37.5 17.1 37.5 37.5 37.5z" fill="#FF8FAE"/>
						<path d="m600.5 889c20.4 0 37.5-17.1 37.5-37.5s-17.1-37.5-37.5-37.5-37.5 17.1-37.5 37.5 17.1 37.5 37.5 37.5z" fill="#FAC15C"/>
						<path d="m600.5 989c20.4 0 37.5-17.1 37.5-37.5s-17.1-37.5-37.5-37.5-37.5 17.1-37.5 37.5 17.1 37.5 37.5 37.5z" fill="#49D4E1"/>
						<path d="m800.5 889c20.4 0 37.5-17.1 37.5-37.5s-17.1-37.5-37.5-37.5-37.5 17.1-37.5 37.5 17.1 37.5 37.5 37.5z" fill="#FAC15C"/>
						<path d="m800.5 989c20.4 0 37.5-17.1 37.5-37.5s-17.1-37.5-37.5-37.5-37.5 17.1-37.5 37.5 17.1 37.5 37.5 37.5z" fill="#49D4E1"/>
						<path d="m500.5 1139c20.4 0 37.5-17.1 37.5-37.5s-17.1-37.5-37.5-37.5-37.5 17.1-37.5 37.5 17.1 37.5 37.5 37.5z" fill="#56D7B3"/>
						<path d="m500.5 1239c20.4 0 37.5-17.1 37.5-37.5s-17.1-37.5-37.5-37.5-37.5 17.1-37.5 37.5 17.1 37.5 37.5 37.5z" fill="#FF8FAE"/>
						<path d="m500.5 1039c20.4 0 37.5-17.1 37.5-37.5s-17.1-37.5-37.5-37.5-37.5 17.1-37.5 37.5 17.1 37.5 37.5 37.5z" fill="#FF8FAE"/>
						<path d="m400.5 1089c20.4 0 37.5-17.1 37.5-37.5s-17.1-37.5-37.5-37.5-37.5 17.1-37.5 37.5 17.1 37.5 37.5 37.5z" fill="#FAC15C"/>
						<path d="m400.5 1189c20.4 0 37.5-17.1 37.5-37.5s-17.1-37.5-37.5-37.5-37.5 17.1-37.5 37.5 17.1 37.5 37.5 37.5z" fill="#49D4E1"/>
						<path d="m600.5 1089c20.4 0 37.5-17.1 37.5-37.5s-17.1-37.5-37.5-37.5-37.5 17.1-37.5 37.5 17.1 37.5 37.5 37.5z" fill="#FAC15C"/>
						<path d="m600.5 1189c20.4 0 37.5-17.1 37.5-37.5s-17.1-37.5-37.5-37.5-37.5 17.1-37.5 37.5 17.1 37.5 37.5 37.5z" fill="#49D4E1"/>
						<path d="m700.5 1139c20.4 0 37.5-17.1 37.5-37.5s-17.1-37.5-37.5-37.5-37.5 17.1-37.5 37.5 17.1 37.5 37.5 37.5z" fill="#56D7B3"/>
						<path d="m700.5 1239c20.4 0 37.5-17.1 37.5-37.5s-17.1-37.5-37.5-37.5-37.5 17.1-37.5 37.5 17.1 37.5 37.5 37.5z" fill="#FF8FAE"/>
						<path d="m700.5 1039c20.4 0 37.5-17.1 37.5-37.5s-17.1-37.5-37.5-37.5-37.5 17.1-37.5 37.5 17.1 37.5 37.5 37.5z" fill="#FF8FAE"/>
						<path d="m600.5 1089c20.4 0 37.5-17.1 37.5-37.5s-17.1-37.5-37.5-37.5-37.5 17.1-37.5 37.5 17.1 37.5 37.5 37.5z" fill="#FAC15C"/>
						<path d="m600.5 1189c20.4 0 37.5-17.1 37.5-37.5s-17.1-37.5-37.5-37.5-37.5 17.1-37.5 37.5 17.1 37.5 37.5 37.5z" fill="#49D4E1"/>
						<path d="m800.5 1089c20.4 0 37.5-17.1 37.5-37.5s-17.1-37.5-37.5-37.5-37.5 17.1-37.5 37.5 17.1 37.5 37.5 37.5z" fill="#FAC15C"/>
						<path d="m800.5 1189c20.4 0 37.5-17.1 37.5-37.5s-17.1-37.5-37.5-37.5-37.5 17.1-37.5 37.5 17.1 37.5 37.5 37.5z" fill="#49D4E1"/>
						<path d="m100.5 1339c20.4 0 37.5-17.1 37.5-37.5s-17.1-37.5-37.5-37.5-37.5 17.1-37.5 37.5 17.1 37.5 37.5 37.5z" fill="#56D7B3"/>
						<path d="m100.5 1439c20.4 0 37.5-17.1 37.5-37.5s-17.1-37.5-37.5-37.5-37.5 17.1-37.5 37.5 17.1 37.5 37.5 37.5z" fill="#FF8FAE"/>
						<path d="m100.5 1239c20.4 0 37.5-17.1 37.5-37.5s-17.1-37.5-37.5-37.5-37.5 17.1-37.5 37.5 17.1 37.5 37.5 37.5z" fill="#FF8FAE"/>
						<path d="m0.5 1289c20.4 0 37.5-17.1 37.5-37.5s-17.1-37.5-37.5-37.5-37.5 17.1-37.5 37.5 17.1 37.5 37.5 37.5z" fill="#FAC15C"/>
						<path d="m0.5 1389c20.4 0 37.5-17.1 37.5-37.5s-17.1-37.5-37.5-37.5-37.5 17.1-37.5 37.5 17.1 37.5 37.5 37.5z" fill="#49D4E1"/>
						<path d="m200.5 1289c20.4 0 37.5-17.1 37.5-37.5s-17.1-37.5-37.5-37.5-37.5 17.1-37.5 37.5 17.1 37.5 37.5 37.5z" fill="#FAC15C"/>
						<path d="m200.5 1389c20.4 0 37.5-17.1 37.5-37.5s-17.1-37.5-37.5-37.5-37.5 17.1-37.5 37.5 17.1 37.5 37.5 37.5z" fill="#49D4E1"/>
						<path d="m300.5 1339c20.4 0 37.5-17.1 37.5-37.5s-17.1-37.5-37.5-37.5-37.5 17.1-37.5 37.5 17.1 37.5 37.5 37.5z" fill="#56D7B3"/>
						<path d="m300.5 1439c20.4 0 37.5-17.1 37.5-37.5s-17.1-37.5-37.5-37.5-37.5 17.1-37.5 37.5 17.1 37.5 37.5 37.5z" fill="#FF8FAE"/>
						<path d="m300.5 1239c20.4 0 37.5-17.1 37.5-37.5s-17.1-37.5-37.5-37.5-37.5 17.1-37.5 37.5 17.1 37.5 37.5 37.5z" fill="#FF8FAE"/>
						<path d="m200.5 1289c20.4 0 37.5-17.1 37.5-37.5s-17.1-37.5-37.5-37.5-37.5 17.1-37.5 37.5 17.1 37.5 37.5 37.5z" fill="#FAC15C"/>
						<path d="m200.5 1389c20.4 0 37.5-17.1 37.5-37.5s-17.1-37.5-37.5-37.5-37.5 17.1-37.5 37.5 17.1 37.5 37.5 37.5z" fill="#49D4E1"/>
						<path d="m400.5 1289c20.4 0 37.5-17.1 37.5-37.5s-17.1-37.5-37.5-37.5-37.5 17.1-37.5 37.5 17.1 37.5 37.5 37.5z" fill="#FAC15C"/>
						<path d="m400.5 1389c20.4 0 37.5-17.1 37.5-37.5s-17.1-37.5-37.5-37.5-37.5 17.1-37.5 37.5 17.1 37.5 37.5 37.5z" fill="#49D4E1"/>
						<path d="m100.5 1539c20.4 0 37.5-17.1 37.5-37.5s-17.1-37.5-37.5-37.5-37.5 17.1-37.5 37.5 17.1 37.5 37.5 37.5z" fill="#56D7B3"/>
						<path d="m100.5 1639c20.4 0 37.5-17.1 37.5-37.5s-17.1-37.5-37.5-37.5-37.5 17.1-37.5 37.5 17.1 37.5 37.5 37.5z" fill="#FF8FAE"/>
						<path d="m100.5 1439c20.4 0 37.5-17.1 37.5-37.5s-17.1-37.5-37.5-37.5-37.5 17.1-37.5 37.5 17.1 37.5 37.5 37.5z" fill="#FF8FAE"/>
						<path d="m0.5 1489c20.4 0 37.5-17.1 37.5-37.5s-17.1-37.5-37.5-37.5-37.5 17.1-37.5 37.5 17.1 37.5 37.5 37.5z" fill="#FAC15C"/>
						<path d="m0.5 1589c20.4 0 37.5-17.1 37.5-37.5s-17.1-37.5-37.5-37.5-37.5 17.1-37.5 37.5 17.1 37.5 37.5 37.5z" fill="#49D4E1"/>
						<path d="m200.5 1489c20.4 0 37.5-17.1 37.5-37.5s-17.1-37.5-37.5-37.5-37.5 17.1-37.5 37.5 17.1 37.5 37.5 37.5z" fill="#FAC15C"/>
						<path d="m200.5 1589c20.4 0 37.5-17.1 37.5-37.5s-17.1-37.5-37.5-37.5-37.5 17.1-37.5 37.5 17.1 37.5 37.5 37.5z" fill="#49D4E1"/>
						<path d="m300.5 1539c20.4 0 37.5-17.1 37.5-37.5s-17.1-37.5-37.5-37.5-37.5 17.1-37.5 37.5 17.1 37.5 37.5 37.5z" fill="#56D7B3"/>
						<path d="m300.5 1639c20.4 0 37.5-17.1 37.5-37.5s-17.1-37.5-37.5-37.5-37.5 17.1-37.5 37.5 17.1 37.5 37.5 37.5z" fill="#FF8FAE"/>
						<path d="m300.5 1439c20.4 0 37.5-17.1 37.5-37.5s-17.1-37.5-37.5-37.5-37.5 17.1-37.5 37.5 17.1 37.5 37.5 37.5z" fill="#FF8FAE"/>
						<path d="m200.5 1489c20.4 0 37.5-17.1 37.5-37.5s-17.1-37.5-37.5-37.5-37.5 17.1-37.5 37.5 17.1 37.5 37.5 37.5z" fill="#FAC15C"/>
						<path d="m200.5 1589c20.4 0 37.5-17.1 37.5-37.5s-17.1-37.5-37.5-37.5-37.5 17.1-37.5 37.5 17.1 37.5 37.5 37.5z" fill="#49D4E1"/>
						<path d="m400.5 1489c20.4 0 37.5-17.1 37.5-37.5s-17.1-37.5-37.5-37.5-37.5 17.1-37.5 37.5 17.1 37.5 37.5 37.5z" fill="#FAC15C"/>
						<path d="m400.5 1589c20.4 0 37.5-17.1 37.5-37.5s-17.1-37.5-37.5-37.5-37.5 17.1-37.5 37.5 17.1 37.5 37.5 37.5z" fill="#49D4E1"/>
						<path d="m500.5 1339c20.4 0 37.5-17.1 37.5-37.5s-17.1-37.5-37.5-37.5-37.5 17.1-37.5 37.5 17.1 37.5 37.5 37.5z" fill="#56D7B3"/>
						<path d="m500.5 1439c20.4 0 37.5-17.1 37.5-37.5s-17.1-37.5-37.5-37.5-37.5 17.1-37.5 37.5 17.1 37.5 37.5 37.5z" fill="#FF8FAE"/>
						<path d="m500.5 1239c20.4 0 37.5-17.1 37.5-37.5s-17.1-37.5-37.5-37.5-37.5 17.1-37.5 37.5 17.1 37.5 37.5 37.5z" fill="#FF8FAE"/>
						<path d="m400.5 1289c20.4 0 37.5-17.1 37.5-37.5s-17.1-37.5-37.5-37.5-37.5 17.1-37.5 37.5 17.1 37.5 37.5 37.5z" fill="#FAC15C"/>
						<path d="m400.5 1389c20.4 0 37.5-17.1 37.5-37.5s-17.1-37.5-37.5-37.5-37.5 17.1-37.5 37.5 17.1 37.5 37.5 37.5z" fill="#49D4E1"/>
						<path d="m600.5 1289c20.4 0 37.5-17.1 37.5-37.5s-17.1-37.5-37.5-37.5-37.5 17.1-37.5 37.5 17.1 37.5 37.5 37.5z" fill="#FAC15C"/>
						<path d="m600.5 1389c20.4 0 37.5-17.1 37.5-37.5s-17.1-37.5-37.5-37.5-37.5 17.1-37.5 37.5 17.1 37.5 37.5 37.5z" fill="#49D4E1"/>
						<path d="m700.5 1339c20.4 0 37.5-17.1 37.5-37.5s-17.1-37.5-37.5-37.5-37.5 17.1-37.5 37.5 17.1 37.5 37.5 37.5z" fill="#56D7B3"/>
						<path d="m700.5 1439c20.4 0 37.5-17.1 37.5-37.5s-17.1-37.5-37.5-37.5-37.5 17.1-37.5 37.5 17.1 37.5 37.5 37.5z" fill="#FF8FAE"/>
						<path d="m700.5 1239c20.4 0 37.5-17.1 37.5-37.5s-17.1-37.5-37.5-37.5-37.5 17.1-37.5 37.5 17.1 37.5 37.5 37.5z" fill="#FF8FAE"/>
						<path d="m600.5 1289c20.4 0 37.5-17.1 37.5-37.5s-17.1-37.5-37.5-37.5-37.5 17.1-37.5 37.5 17.1 37.5 37.5 37.5z" fill="#FAC15C"/>
						<path d="m600.5 1389c20.4 0 37.5-17.1 37.5-37.5s-17.1-37.5-37.5-37.5-37.5 17.1-37.5 37.5 17.1 37.5 37.5 37.5z" fill="#49D4E1"/>
						<path d="m800.5 1289c20.4 0 37.5-17.1 37.5-37.5s-17.1-37.5-37.5-37.5-37.5 17.1-37.5 37.5 17.1 37.5 37.5 37.5z" fill="#FAC15C"/>
						<path d="m800.5 1389c20.4 0 37.5-17.1 37.5-37.5s-17.1-37.5-37.5-37.5-37.5 17.1-37.5 37.5 17.1 37.5 37.5 37.5z" fill="#49D4E1"/>
						<path d="m500.5 1539c20.4 0 37.5-17.1 37.5-37.5s-17.1-37.5-37.5-37.5-37.5 17.1-37.5 37.5 17.1 37.5 37.5 37.5z" fill="#56D7B3"/>
						<path d="m500.5 1639c20.4 0 37.5-17.1 37.5-37.5s-17.1-37.5-37.5-37.5-37.5 17.1-37.5 37.5 17.1 37.5 37.5 37.5z" fill="#FF8FAE"/>
						<path d="m500.5 1439c20.4 0 37.5-17.1 37.5-37.5s-17.1-37.5-37.5-37.5-37.5 17.1-37.5 37.5 17.1 37.5 37.5 37.5z" fill="#FF8FAE"/>
						<path d="m400.5 1489c20.4 0 37.5-17.1 37.5-37.5s-17.1-37.5-37.5-37.5-37.5 17.1-37.5 37.5 17.1 37.5 37.5 37.5z" fill="#FAC15C"/>
						<path d="m400.5 1589c20.4 0 37.5-17.1 37.5-37.5s-17.1-37.5-37.5-37.5-37.5 17.1-37.5 37.5 17.1 37.5 37.5 37.5z" fill="#49D4E1"/>
						<path d="m600.5 1489c20.4 0 37.5-17.1 37.5-37.5s-17.1-37.5-37.5-37.5-37.5 17.1-37.5 37.5 17.1 37.5 37.5 37.5z" fill="#FAC15C"/>
						<path d="m600.5 1589c20.4 0 37.5-17.1 37.5-37.5s-17.1-37.5-37.5-37.5-37.5 17.1-37.5 37.5 17.1 37.5 37.5 37.5z" fill="#49D4E1"/>
						<path d="m700.5 1539c20.4 0 37.5-17.1 37.5-37.5s-17.1-37.5-37.5-37.5-37.5 17.1-37.5 37.5 17.1 37.5 37.5 37.5z" fill="#56D7B3"/>
						<path d="m700.5 1639c20.4 0 37.5-17.1 37.5-37.5s-17.1-37.5-37.5-37.5-37.5 17.1-37.5 37.5 17.1 37.5 37.5 37.5z" fill="#FF8FAE"/>
						<path d="m700.5 1439c20.4 0 37.5-17.1 37.5-37.5s-17.1-37.5-37.5-37.5-37.5 17.1-37.5 37.5 17.1 37.5 37.5 37.5z" fill="#FF8FAE"/>
						<path d="m600.5 1489c20.4 0 37.5-17.1 37.5-37.5s-17.1-37.5-37.5-37.5-37.5 17.1-37.5 37.5 17.1 37.5 37.5 37.5z" fill="#FAC15C"/>
						<path d="m600.5 1589c20.4 0 37.5-17.1 37.5-37.5s-17.1-37.5-37.5-37.5-37.5 17.1-37.5 37.5 17.1 37.5 37.5 37.5z" fill="#49D4E1"/>
						<path d="m800.5 1489c20.4 0 37.5-17.1 37.5-37.5s-17.1-37.5-37.5-37.5-37.5 17.1-37.5 37.5 17.1 37.5 37.5 37.5z" fill="#FAC15C"/>
						<path d="m800.5 1589c20.4 0 37.5-17.1 37.5-37.5s-17.1-37.5-37.5-37.5-37.5 17.1-37.5 37.5 17.1 37.5 37.5 37.5z" fill="#49D4E1"/>
</svg>
