<?xml version="1.0" standalone="no"?>
<!DOCTYPE svg PUBLIC "-//W3C//DTD SVG 20010904//EN"
 "http://www.w3.org/TR/2001/REC-SVG-20010904/DTD/svg10.dtd">
<svg version="1.0" xmlns="http://www.w3.org/2000/svg"
 width="1280.000000pt" height="800.000000pt" viewBox="0 0 1280.000000 800.000000"
 preserveAspectRatio="xMidYMid meet">
<metadata>
Created by potrace 1.15, written by Peter Selinger 2001-2017
</metadata>
<g transform="translate(0.000000,800.000000) scale(0.100000,-0.100000)"
fill="#000000" stroke="none">
<path d="M200 7992 c0 -5 7 -17 15 -28 15 -19 15 -19 30 0 22 29 19 36 -15 36
-16 0 -30 -4 -30 -8z"/>
<path d="M646 7967 c16 -33 16 -34 -35 -119 -28 -48 -51 -89 -51 -92 0 -3 48
-7 108 -8 l107 -3 50 -87 c27 -49 52 -88 55 -88 3 0 27 41 55 90 l50 90 107 0
c60 0 108 2 108 4 0 2 -23 42 -50 89 -28 47 -50 90 -50 96 0 7 7 23 16 36 l16
25 -251 0 -251 0 16 -33z"/>
<path d="M1500 7993 c1 -5 7 -19 14 -31 l13 -24 16 26 c23 34 22 36 -13 36
-16 0 -30 -3 -30 -7z"/>
<path d="M1946 7967 c15 -32 15 -33 -35 -119 -28 -47 -51 -89 -51 -92 0 -3 48
-7 107 -8 l107 -3 50 -87 c28 -49 53 -88 56 -88 3 0 27 41 54 90 l49 89 109 3
109 3 -55 92 -54 91 19 31 19 31 -250 0 -250 0 16 -33z"/>
<path d="M2807 7973 c9 -16 18 -30 19 -31 1 -2 10 10 19 27 l16 31 -36 0 -35
0 17 -27z"/>
<path d="M3230 7995 c0 -3 7 -17 16 -30 16 -24 15 -28 -35 -114 -28 -49 -51
-91 -51 -94 0 -4 48 -8 106 -9 l107 -3 49 -87 c28 -49 54 -86 58 -83 5 3 30
43 56 90 l47 84 108 3 108 3 -53 91 -54 92 19 31 19 31 -250 0 c-138 0 -250
-2 -250 -5z"/>
<path d="M4107 7973 c9 -16 18 -30 19 -31 1 -2 10 10 19 27 l16 31 -36 0 -35
0 17 -27z"/>
<path d="M4530 7995 c0 -3 7 -17 16 -30 15 -23 14 -28 -35 -113 -28 -49 -51
-92 -51 -95 0 -4 48 -8 106 -9 l107 -3 47 -83 c26 -46 51 -84 56 -84 4 0 30
37 56 83 l48 84 109 5 110 5 -54 90 c-50 85 -52 91 -39 117 8 15 14 29 14 33
0 3 -110 5 -245 5 -135 0 -245 -2 -245 -5z"/>
<path d="M5399 7983 c27 -46 28 -47 45 -14 l17 31 -36 0 c-31 0 -34 -2 -26
-17z"/>
<path d="M5830 7992 c0 -4 7 -18 16 -30 15 -21 13 -27 -38 -115 l-54 -92 -111
-3 -111 -3 -41 73 c-69 126 -60 124 -120 19 l-53 -91 -104 0 c-57 0 -104 -3
-104 -6 0 -4 23 -46 50 -95 l51 -87 -51 -86 c-27 -46 -50 -89 -50 -95 0 -6 36
-8 103 -4 l102 6 55 -98 c38 -66 57 -93 63 -83 4 7 29 49 55 93 l47 80 100 1
c55 0 103 1 107 2 4 1 -18 43 -47 94 l-55 91 19 31 c10 17 35 59 55 94 l37 62
109 0 108 0 53 -91 c60 -105 51 -106 120 19 l40 72 109 0 109 0 56 -94 56 -93
-51 -84 c-27 -46 -50 -89 -50 -96 0 -9 26 -10 103 -6 l102 6 54 -98 c38 -69
56 -93 62 -84 5 8 30 52 57 98 l47 84 103 -6 c68 -4 102 -2 102 5 0 5 -23 48
-50 95 l-50 86 53 91 53 91 111 3 111 3 41 -73 c69 -126 60 -124 120 -19 l53
91 108 0 109 0 42 -72 c23 -40 48 -82 55 -93 12 -18 7 -31 -41 -113 -29 -50
-51 -93 -47 -94 4 -1 52 -2 107 -2 l100 -1 47 -80 c26 -44 51 -86 55 -94 6 -9
25 17 62 84 l54 98 104 -6 c69 -4 103 -2 103 5 0 5 -23 48 -51 94 l-50 84 50
89 c28 48 51 91 51 95 0 3 -47 6 -104 6 l-104 0 -53 91 c-60 105 -51 107 -120
-19 l-41 -73 -111 3 -111 3 -54 92 c-51 88 -53 94 -38 115 9 12 16 26 16 30 0
5 -110 8 -245 8 -135 0 -245 -3 -245 -8 0 -4 7 -17 15 -30 15 -20 13 -27 -40
-117 l-56 -95 -109 0 -108 0 -53 91 c-60 105 -51 106 -120 -18 l-40 -73 -109
0 -109 0 -56 95 c-53 90 -55 96 -41 117 9 12 16 26 16 30 0 5 -110 8 -245 8
-135 0 -245 -3 -245 -8z"/>
<path d="M6706 7969 c17 -33 18 -32 45 14 8 15 5 17 -26 17 l-36 0 17 -31z"/>
<path d="M8006 7969 c17 -33 18 -32 45 14 8 15 5 17 -26 17 l-36 0 17 -31z"/>
<path d="M8439 7969 l19 -31 -54 -92 -53 -91 109 -3 109 -3 46 -84 c26 -47 50
-87 55 -90 4 -3 30 34 58 83 l49 87 107 3 c58 1 106 5 106 9 0 3 -23 46 -51
95 -49 85 -50 90 -35 113 9 13 16 27 16 30 0 3 -112 5 -250 5 l-250 0 19 -31z"/>
<path d="M9305 7969 c9 -17 18 -29 19 -27 1 1 10 15 19 31 l17 27 -35 0 -36 0
16 -31z"/>
<path d="M9739 7969 l19 -31 -54 -91 -54 -92 109 -3 108 -3 47 -84 c26 -47 51
-87 55 -89 4 -3 30 34 57 82 l50 87 107 3 c59 1 107 6 107 10 0 4 -23 45 -51
91 -47 78 -49 87 -38 110 8 14 15 29 17 34 2 4 -109 7 -247 7 l-251 0 19 -31z"/>
<path d="M10590 7995 c0 -3 8 -17 17 -31 l16 -26 13 24 c19 34 17 38 -16 38
-16 0 -30 -2 -30 -5z"/>
<path d="M11034 7975 c9 -13 16 -30 16 -37 0 -7 -23 -50 -50 -96 -28 -46 -50
-85 -50 -88 0 -2 48 -4 108 -4 l107 0 50 -90 c28 -49 52 -90 55 -90 3 0 28 39
56 88 l50 87 107 3 c59 1 107 5 107 8 0 3 -23 44 -51 92 -51 85 -51 86 -35
119 l16 33 -251 0 -251 0 16 -25z"/>
<path d="M11890 7993 c0 -5 8 -17 16 -28 15 -20 15 -20 30 -1 21 29 18 36 -16
36 -16 0 -30 -3 -30 -7z"/>
<path d="M12334 7975 c9 -13 16 -29 16 -36 0 -6 -22 -49 -50 -96 -27 -47 -50
-87 -50 -89 0 -2 48 -4 108 -4 l107 0 50 -90 c27 -49 52 -90 55 -90 3 0 28 40
55 90 l50 90 63 0 62 0 -1 125 -2 125 -240 0 -239 0 16 -25z"/>
<path d="M175 7840 l-50 -90 -62 0 -62 0 0 -185 0 -184 61 -3 61 -3 48 -85
c27 -47 54 -85 59 -85 6 0 32 38 58 85 l48 85 107 -2 c59 0 107 2 107 5 0 4
-23 44 -50 90 -28 46 -50 88 -50 94 0 5 23 48 50 95 27 47 50 87 50 89 0 2
-48 4 -107 4 l-108 0 -50 90 c-27 50 -52 90 -55 90 -3 0 -28 -40 -55 -90z"/>
<path d="M1474 7843 l-50 -88 -107 -3 c-59 -1 -107 -5 -107 -8 0 -3 23 -43 50
-90 28 -47 50 -88 50 -92 0 -4 -23 -45 -50 -92 -28 -47 -50 -88 -50 -92 0 -4
47 -4 104 -1 l103 6 56 -98 55 -97 42 73 c78 136 58 123 171 116 54 -3 100 -3
103 1 2 4 -18 44 -45 90 -27 45 -49 88 -49 95 0 6 23 50 50 97 l50 85 -108 3
-107 3 -50 89 c-28 49 -52 90 -55 90 -3 0 -28 -39 -56 -87z"/>
<path d="M2773 7843 l-50 -88 -107 -3 c-58 -1 -106 -5 -106 -8 0 -3 23 -44 50
-91 28 -47 50 -87 50 -90 0 -3 -22 -43 -50 -90 -27 -47 -50 -89 -50 -93 0 -5
47 -6 104 -3 l103 6 54 -96 c29 -53 56 -94 58 -91 3 2 28 44 56 92 l51 87 99
1 c55 0 103 1 107 2 4 1 -17 43 -46 93 l-54 92 54 91 53 91 -108 3 -108 3 -49
89 c-27 49 -52 90 -55 90 -4 0 -29 -39 -56 -87z"/>
<path d="M4072 7842 l-49 -87 -107 -3 c-58 -1 -106 -5 -106 -9 0 -3 23 -45 51
-93 l51 -89 -51 -86 c-28 -47 -51 -90 -51 -95 0 -5 43 -6 103 -3 l104 6 38
-69 c21 -38 46 -82 56 -97 l17 -29 38 69 c20 37 46 81 57 97 l20 29 98 -6 c53
-3 99 -4 102 -1 3 3 -19 46 -49 97 l-53 91 19 31 c10 16 34 57 53 90 l35 60
-107 3 -108 3 -47 84 c-26 47 -51 87 -56 90 -4 3 -30 -34 -58 -83z"/>
<path d="M9314 7919 c-6 -8 -30 -49 -54 -91 l-44 -77 -107 -3 -108 -3 53 -91
54 -91 -54 -92 c-29 -50 -50 -92 -46 -93 4 -1 52 -2 107 -2 l99 -1 51 -87 c28
-48 53 -90 56 -92 2 -3 29 38 59 91 l53 96 104 -6 c57 -3 103 -2 103 3 0 4
-23 47 -51 95 l-51 86 51 88 c28 49 51 91 51 95 0 3 -47 6 -105 6 l-104 0 -45
78 c-67 115 -60 106 -72 91z"/>
<path d="M10565 7840 l-50 -89 -107 -3 -108 -3 54 -91 53 -91 -53 -89 c-29
-49 -53 -92 -54 -96 0 -4 47 -4 104 -1 119 7 98 20 176 -116 l42 -73 55 97 56
98 103 -6 c57 -3 104 -3 104 1 0 4 -22 45 -50 92 -27 47 -50 88 -50 92 0 3 23
44 50 91 28 47 50 88 50 91 0 3 -48 7 -107 8 l-107 3 -50 88 c-28 48 -53 87
-56 87 -3 0 -27 -41 -55 -90z"/>
<path d="M11865 7840 l-50 -90 -107 0 c-60 0 -108 -2 -108 -4 0 -3 22 -42 50
-88 27 -46 50 -88 50 -95 0 -6 -22 -49 -50 -96 -27 -47 -50 -87 -50 -90 0 -3
47 -3 104 0 119 7 98 20 176 -116 l42 -73 53 93 53 94 106 -2 c58 0 106 1 106
4 0 3 -22 45 -50 93 -27 48 -50 91 -50 95 0 4 23 44 50 90 28 46 50 85 50 89
0 3 -48 7 -107 8 l-107 3 -50 88 c-28 48 -53 87 -56 87 -3 0 -27 -41 -55 -90z"/>
<path d="M822 7464 l-53 -94 -105 0 -105 0 36 -62 c76 -132 75 -114 16 -211
-28 -47 -51 -88 -51 -91 0 -3 48 -6 108 -6 l107 0 50 -90 c27 -50 52 -90 55
-90 3 0 27 41 55 90 l50 90 107 0 c60 0 108 2 108 4 0 3 -22 42 -50 88 -27 46
-50 88 -50 95 0 6 22 49 49 95 l49 83 -106 5 -106 5 -50 87 c-28 48 -53 89
-56 92 -3 2 -29 -38 -58 -90z"/>
<path d="M2122 7464 l-53 -94 -105 0 -106 0 33 -57 c18 -32 41 -74 52 -93 l19
-35 -51 -87 c-28 -47 -51 -89 -51 -92 0 -3 48 -7 107 -8 l107 -3 50 -87 c28
-49 53 -88 56 -88 3 0 27 41 54 90 l49 89 108 3 109 3 -54 92 -54 91 53 89 53
88 -106 5 -106 5 -50 87 c-28 48 -53 89 -56 92 -3 2 -29 -38 -58 -90z"/>
<path d="M3421 7464 l-53 -94 -104 0 c-57 0 -104 -2 -104 -4 0 -2 23 -43 51
-91 l51 -86 -51 -88 c-28 -49 -51 -91 -51 -94 0 -4 48 -8 106 -9 l107 -3 49
-87 c28 -49 54 -86 58 -83 5 3 30 43 56 90 l47 84 108 3 108 3 -53 91 -54 92
53 90 53 91 -106 3 -106 3 -51 87 c-28 48 -53 90 -56 92 -2 3 -29 -38 -58 -90z"/>
<path d="M4720 7465 l-54 -95 -103 0 c-57 0 -103 -3 -103 -6 0 -3 23 -44 51
-90 l51 -85 -54 -92 -53 -92 -111 -3 -110 -3 -48 86 c-26 47 -51 87 -56 90 -4
3 -30 -34 -58 -83 l-49 -87 -107 -3 c-58 -1 -106 -5 -106 -9 0 -3 23 -45 51
-93 l51 -89 -51 -86 c-28 -47 -51 -88 -51 -90 0 -3 47 -5 104 -5 l104 0 54
-95 c35 -65 56 -92 61 -83 4 7 29 49 55 93 l47 80 107 3 106 3 -53 92 c-48 81
-53 94 -41 112 7 11 32 53 56 93 l43 73 110 -3 110 -3 50 -89 c57 -102 49
-104 118 22 l41 73 111 -3 112 -3 53 -91 53 -92 -51 -85 c-27 -47 -50 -88 -50
-91 0 -3 46 -6 103 -6 l103 0 47 -82 c26 -46 51 -89 56 -96 6 -10 24 14 62 82
l54 96 107 0 107 0 -54 92 -55 91 19 31 c10 17 35 59 55 94 l37 62 109 0 108
0 53 -91 c60 -105 51 -106 120 19 l40 72 109 0 109 0 56 -94 56 -94 -55 -91
-56 -91 108 0 108 0 54 -95 c36 -63 57 -91 62 -82 4 6 29 49 55 95 l47 82 103
0 c57 0 103 3 103 6 0 3 -23 44 -50 91 l-50 86 53 91 53 91 111 3 111 3 41
-73 c69 -126 60 -124 120 -19 l53 91 108 0 109 0 42 -72 c23 -40 48 -82 55
-93 12 -18 7 -31 -41 -113 l-54 -92 107 0 107 0 54 -96 54 -95 16 28 c10 15
34 58 55 96 l38 67 104 0 c57 0 104 3 104 6 0 3 -23 44 -50 91 l-51 85 53 92
53 91 112 3 112 3 46 -86 c26 -46 50 -87 55 -90 4 -3 30 34 58 83 l49 87 107
3 c58 1 106 5 106 9 0 3 -23 45 -51 93 l-51 89 51 86 c28 47 51 88 51 90 0 3
-47 5 -104 5 l-104 0 -53 94 c-29 52 -56 93 -58 90 -3 -2 -28 -44 -56 -92
l-51 -87 -106 -3 -106 -3 53 -92 c48 -81 53 -94 41 -112 -7 -11 -32 -53 -55
-92 l-43 -73 -108 0 -108 0 -53 91 c-60 105 -51 107 -120 -19 l-41 -73 -111 3
-111 3 -53 92 -54 91 51 85 c27 47 50 88 50 91 0 3 -46 6 -103 6 l-103 0 -47
83 c-26 45 -51 88 -56 95 -6 10 -24 -14 -62 -82 l-54 -96 -107 0 -108 0 55
-91 55 -90 -55 -95 -56 -94 -109 0 -108 0 -53 91 c-60 105 -51 106 -120 -18
l-40 -73 -109 0 -109 0 -56 94 -55 94 50 85 c27 47 50 88 50 91 0 3 -46 6
-102 6 l-103 0 -54 96 c-38 68 -56 92 -62 82 -5 -7 -30 -50 -56 -95 l-47 -83
-103 0 c-57 0 -103 -3 -103 -6 0 -3 23 -44 50 -91 l50 -86 -53 -91 -53 -91
-111 -3 -111 -3 -41 73 c-69 126 -60 124 -120 19 l-53 -91 -108 0 -109 0 -42
73 c-23 39 -48 81 -56 93 -11 18 -7 30 41 112 l55 92 -107 0 -107 0 -53 95
c-30 52 -55 95 -56 95 -1 0 -26 -43 -56 -95z"/>
<path d="M9919 7468 l-54 -93 -107 -3 -107 -3 53 -90 53 -91 -53 -92 -54 -91
109 -3 108 -3 47 -84 c26 -47 51 -87 55 -89 4 -3 30 34 57 82 l50 87 107 3
c59 1 107 5 107 8 0 3 -22 44 -50 91 -27 47 -50 87 -50 90 0 3 23 43 50 90 28
47 50 87 50 89 0 2 -47 4 -104 4 l-104 0 -38 68 c-21 37 -45 80 -54 95 l-17
28 -54 -93z"/>
<path d="M11230 7489 c-75 -131 -56 -118 -174 -121 l-104 -3 49 -83 c27 -45
49 -88 49 -95 0 -6 -23 -50 -50 -97 l-50 -85 108 -3 107 -3 50 -89 c28 -49 52
-90 55 -90 3 0 28 39 56 88 l50 87 107 3 c59 1 107 5 107 8 0 3 -23 44 -51 92
l-52 87 20 35 c11 19 34 61 52 93 l33 57 -105 0 -106 0 -54 96 -55 96 -42 -73z"/>
<path d="M12513 7463 l-50 -88 -107 -5 -106 -5 50 -83 c28 -46 50 -88 50 -94
0 -5 -22 -48 -50 -95 -27 -47 -50 -87 -50 -89 0 -2 48 -4 108 -4 l107 0 50
-90 c27 -49 52 -90 55 -90 3 0 28 40 55 90 l50 90 62 0 62 0 0 185 0 184 -61
3 -61 3 -48 85 c-27 47 -53 86 -58 88 -4 1 -31 -37 -58 -85z"/>
<path d="M175 7090 l-50 -90 -62 0 -62 0 0 -185 0 -184 61 -3 61 -3 48 -85
c27 -47 53 -85 59 -85 6 0 32 38 58 85 l47 85 108 5 107 5 -50 83 c-28 46 -50
88 -50 94 0 5 23 48 50 95 27 47 50 87 50 89 0 2 -48 4 -107 4 l-108 0 -50 90
c-27 50 -52 90 -55 90 -3 0 -28 -40 -55 -90z"/>
<path d="M1474 7093 l-50 -88 -107 -3 c-59 -1 -107 -5 -107 -8 0 -3 23 -44 51
-92 l52 -87 -20 -35 c-11 -19 -34 -61 -52 -92 l-33 -58 105 0 106 0 54 -96 55
-96 42 73 c75 131 56 118 174 121 l104 3 -49 83 c-27 46 -49 89 -49 95 0 7 23
50 50 97 l50 85 -108 3 -107 3 -50 89 c-28 49 -52 90 -55 90 -3 0 -28 -39 -56
-87z"/>
<path d="M2772 7092 l-49 -87 -107 -3 c-58 -1 -106 -5 -106 -8 0 -3 23 -44 50
-91 28 -47 50 -87 50 -90 0 -3 -22 -43 -50 -90 -27 -47 -50 -87 -50 -89 0 -2
47 -4 104 -4 l105 0 54 -96 54 -95 54 93 54 93 107 5 106 5 -53 89 -53 88 54
92 53 91 -108 3 -108 3 -47 84 c-26 47 -51 87 -56 90 -4 3 -30 -34 -58 -83z"/>
<path d="M9314 7169 c-6 -8 -30 -49 -54 -91 l-44 -77 -107 -3 -108 -3 53 -91
54 -91 -54 -91 -53 -91 107 -3 106 -3 51 -87 c28 -48 53 -90 56 -92 2 -3 29
38 58 90 l53 94 104 0 c57 0 104 2 104 4 0 2 -22 42 -50 89 -27 47 -50 87 -50
90 0 3 22 43 50 89 27 46 50 86 50 91 0 4 -47 7 -105 7 l-104 0 -45 78 c-67
115 -60 106 -72 91z"/>
<path d="M10565 7090 l-50 -89 -107 -3 -108 -3 54 -91 53 -91 -52 -89 -53 -89
104 -3 105 -3 25 -42 c14 -23 39 -66 55 -96 l31 -54 55 97 54 96 106 0 105 0
-33 58 c-18 31 -41 73 -52 92 l-19 35 51 87 c28 47 51 89 51 92 0 3 -48 7
-107 8 l-107 3 -50 88 c-28 48 -53 87 -56 87 -3 0 -27 -41 -55 -90z"/>
<path d="M11865 7090 l-50 -90 -107 0 c-60 0 -108 -2 -108 -4 0 -3 22 -42 50
-88 27 -46 50 -88 50 -95 0 -6 -22 -49 -49 -95 l-49 -83 106 -5 106 -5 50 -88
c28 -48 54 -86 58 -85 5 2 30 41 57 88 l48 85 106 5 106 5 -49 85 c-27 47 -50
89 -50 94 0 4 23 45 50 91 28 46 50 85 50 89 0 3 -48 7 -107 8 l-107 3 -50 88
c-28 48 -53 87 -56 87 -3 0 -27 -41 -55 -90z"/>
<path d="M821 6713 l-54 -96 -103 6 c-57 3 -104 3 -104 0 0 -3 23 -45 50 -93
28 -48 50 -90 50 -93 0 -4 -22 -44 -50 -91 -27 -47 -50 -87 -50 -90 0 -3 48
-7 108 -8 l107 -3 50 -87 c27 -49 52 -88 55 -88 3 0 27 41 55 90 l50 90 107 0
c60 0 108 2 108 4 0 2 -23 42 -50 89 -27 47 -50 90 -50 95 0 6 23 48 50 95 28
47 50 87 50 90 0 3 -48 4 -107 4 l-107 -2 -50 87 c-28 48 -53 89 -56 92 -3 2
-29 -39 -59 -91z"/>
<path d="M2121 6713 l-54 -96 -103 6 c-57 3 -104 3 -104 -1 0 -4 22 -45 50
-92 27 -47 50 -88 50 -92 0 -3 -22 -44 -50 -91 -27 -47 -50 -88 -50 -91 0 -3
48 -7 107 -8 l107 -3 50 -87 c28 -49 53 -88 56 -88 3 0 27 41 54 90 l49 89
109 3 109 3 -55 92 -54 91 50 84 c28 46 52 88 55 95 3 8 -25 11 -103 10 l-108
-2 -50 87 c-28 48 -53 89 -56 92 -3 2 -29 -39 -59 -91z"/>
<path d="M3420 6713 l-53 -96 -104 6 c-57 3 -103 2 -103 -3 0 -4 23 -47 51
-95 l51 -86 -51 -88 c-28 -49 -51 -91 -51 -94 0 -4 48 -8 106 -9 l107 -3 49
-87 c28 -49 54 -86 58 -83 5 3 30 43 56 90 l47 84 108 3 108 3 -53 91 -54 92
53 91 c30 50 51 92 47 93 -4 1 -52 2 -107 2 l-99 1 -51 87 c-28 48 -53 90 -56
92 -2 3 -29 -38 -59 -91z"/>
<path d="M4720 6715 l-55 -98 -102 6 c-60 3 -103 2 -103 -3 0 -5 23 -48 51
-95 l50 -86 -50 -88 c-28 -49 -51 -91 -51 -94 0 -4 48 -8 106 -9 l107 -3 48
-85 c27 -47 52 -84 56 -83 5 1 29 40 55 85 l48 83 109 5 109 5 -35 60 c-19 33
-43 74 -54 91 l-19 31 55 91 c29 51 51 93 47 94 -4 1 -52 2 -107 2 l-100 1
-47 80 c-26 44 -51 86 -55 93 -6 10 -25 -17 -63 -83z"/>
<path d="M6019 6714 l-54 -97 -102 6 c-67 4 -103 2 -103 -4 0 -6 23 -49 50
-96 l51 -85 -54 -91 -53 -92 -111 -3 -111 -3 -41 73 c-69 126 -60 124 -120 19
l-53 -91 -104 0 c-57 0 -104 -3 -104 -6 0 -4 23 -46 50 -95 l51 -87 -51 -86
c-27 -46 -50 -89 -50 -95 0 -6 36 -8 103 -4 l102 6 55 -98 c38 -66 57 -93 63
-83 4 7 29 49 55 93 l47 80 100 1 c55 0 103 1 107 2 4 1 -18 43 -47 94 l-55
91 19 31 c10 17 35 59 55 94 l37 62 109 0 108 0 53 -91 c60 -105 51 -106 120
19 l40 72 109 0 109 0 56 -94 56 -93 -51 -84 c-27 -46 -50 -89 -50 -96 0 -9
26 -10 103 -6 l102 6 54 -98 c38 -69 56 -93 62 -84 5 8 30 52 57 98 l47 84
103 -6 c68 -4 102 -2 102 5 0 5 -23 48 -50 95 l-50 86 53 91 53 91 111 3 111
3 41 -73 c69 -126 60 -124 120 -19 l53 91 108 0 109 0 42 -72 c23 -40 48 -82
55 -93 12 -18 7 -31 -41 -113 -29 -50 -51 -93 -47 -94 4 -1 52 -2 107 -2 l100
-1 47 -80 c26 -44 51 -86 55 -94 6 -9 25 17 62 84 l54 98 104 -6 c69 -4 103
-2 103 5 0 5 -23 48 -51 94 l-50 84 50 89 c28 48 51 91 51 95 0 3 -47 6 -104
6 l-104 0 -53 91 c-60 105 -51 107 -120 -19 l-41 -73 -111 3 -111 3 -53 92
-54 91 51 85 c27 47 50 90 50 96 0 6 -36 8 -102 4 l-103 -6 -55 98 c-38 66
-57 93 -63 83 -4 -7 -29 -49 -55 -93 l-47 -80 -103 2 c-72 1 -102 -2 -102 -10
0 -7 23 -49 50 -95 l50 -83 -56 -95 -55 -94 -109 0 -108 0 -53 91 c-60 105
-51 106 -120 -18 l-40 -73 -109 0 -109 0 -56 94 -55 94 50 85 c27 47 50 90 50
95 0 7 -34 9 -102 5 l-103 -5 -53 96 c-30 53 -55 96 -56 96 -1 0 -27 -43 -57
-96z"/>
<path d="M8618 6718 l-54 -93 -99 -1 c-55 0 -103 -1 -107 -2 -4 -1 17 -43 47
-93 l53 -91 -54 -92 -53 -91 109 -3 109 -3 46 -84 c26 -47 50 -87 55 -90 4 -3
30 34 58 83 l49 87 107 3 c58 1 106 5 106 9 0 3 -23 45 -51 94 l-50 88 50 86
c28 47 51 90 51 95 0 5 -43 6 -103 3 l-104 -6 -38 69 c-21 38 -46 82 -55 97
l-17 28 -55 -93z"/>
<path d="M9918 6718 l-54 -93 -99 -1 c-55 0 -103 -1 -107 -2 -4 -1 17 -43 46
-93 l53 -91 -53 -92 -54 -91 109 -3 108 -3 47 -84 c26 -47 51 -87 55 -89 4 -3
30 34 57 82 l50 87 107 3 c59 1 107 6 107 10 0 4 -23 44 -50 90 -28 46 -50 86
-50 90 0 4 23 44 50 90 28 46 50 87 50 92 0 5 -46 6 -103 3 l-104 -6 -38 69
c-21 38 -46 82 -55 97 l-17 28 -55 -93z"/>
<path d="M11230 6739 c-78 -136 -58 -123 -171 -116 -54 3 -100 3 -103 -1 -2
-4 18 -44 45 -90 27 -45 49 -88 49 -95 0 -6 -23 -49 -50 -95 -28 -46 -50 -85
-50 -88 0 -2 48 -4 108 -4 l107 0 50 -90 c28 -49 52 -90 55 -90 3 0 28 39 56
88 l50 87 107 3 c59 1 107 5 107 8 0 3 -22 43 -50 90 -27 47 -50 87 -50 91 0
3 23 45 50 93 28 48 50 90 50 93 0 3 -47 3 -104 0 l-103 -6 -56 98 -55 97 -42
-73z"/>
<path d="M12513 6713 l-51 -88 -106 2 c-58 0 -106 -1 -106 -4 0 -3 23 -43 50
-90 28 -47 50 -89 50 -95 0 -5 -22 -48 -50 -95 -27 -47 -50 -87 -50 -89 0 -2
48 -4 108 -4 l107 0 50 -90 c27 -49 52 -90 55 -90 3 0 28 40 55 90 l50 90 62
0 62 0 0 185 0 184 -61 3 -61 3 -48 85 c-27 47 -53 86 -58 88 -4 1 -31 -37
-58 -85z"/>
<path d="M175 6340 l-50 -90 -62 0 -62 0 0 -185 0 -184 61 -3 61 -3 48 -85
c27 -47 54 -85 59 -85 6 0 32 38 58 85 l48 85 107 -2 c59 0 107 2 107 5 0 4
-23 44 -50 90 -28 46 -50 88 -50 94 0 5 23 48 50 95 27 47 50 87 50 89 0 2
-48 4 -107 4 l-108 0 -50 90 c-27 50 -52 90 -55 90 -3 0 -28 -40 -55 -90z"/>
<path d="M1474 6343 l-50 -88 -107 -3 c-59 -1 -107 -5 -107 -8 0 -3 23 -43 50
-90 28 -47 50 -88 50 -92 0 -4 -23 -45 -50 -92 -28 -47 -50 -88 -50 -92 0 -4
47 -4 104 -1 l103 6 56 -98 55 -97 42 73 c78 136 58 123 171 116 54 -3 100 -3
103 1 2 4 -18 44 -45 90 -27 45 -49 88 -49 95 0 6 23 50 50 97 l50 85 -108 3
-107 3 -50 89 c-28 49 -52 90 -55 90 -3 0 -28 -39 -56 -87z"/>
<path d="M2773 6343 l-50 -88 -107 -3 c-58 -1 -106 -5 -106 -8 0 -3 23 -44 50
-91 28 -47 50 -87 50 -90 0 -3 -22 -43 -50 -90 -27 -47 -50 -89 -50 -93 0 -5
47 -6 104 -3 l103 6 54 -96 c29 -53 56 -94 58 -91 3 2 28 44 56 92 l51 87 99
1 c55 0 103 1 107 2 4 1 -17 43 -46 93 l-54 92 54 91 53 91 -108 3 -108 3 -49
89 c-27 49 -52 90 -55 90 -4 0 -29 -39 -56 -87z"/>
<path d="M4072 6342 l-49 -87 -107 -3 c-58 -1 -106 -5 -106 -9 0 -3 23 -45 51
-93 l51 -89 -51 -86 c-28 -47 -51 -90 -51 -95 0 -5 43 -6 103 -3 l104 6 38
-69 c21 -38 46 -82 56 -97 l17 -29 38 69 c20 37 46 81 57 97 l20 29 98 -6 c53
-3 99 -4 102 -1 3 3 -19 46 -49 97 l-53 91 19 31 c10 16 34 57 53 90 l35 60
-107 3 -108 3 -47 84 c-26 47 -51 87 -56 90 -4 3 -30 -34 -58 -83z"/>
<path d="M9314 6419 c-6 -8 -30 -49 -54 -91 l-44 -77 -107 -3 -108 -3 53 -91
54 -91 -54 -92 c-29 -50 -50 -92 -46 -93 4 -1 52 -2 107 -2 l99 -1 51 -87 c28
-48 53 -90 56 -92 2 -3 29 38 59 91 l53 96 104 -6 c57 -3 103 -2 103 3 0 4
-23 47 -51 95 l-51 86 51 88 c28 49 51 91 51 95 0 3 -47 6 -105 6 l-104 0 -45
78 c-67 115 -60 106 -72 91z"/>
<path d="M10565 6340 l-50 -89 -107 -3 -108 -3 54 -91 53 -91 -53 -89 c-29
-49 -53 -92 -54 -96 0 -4 47 -4 104 -1 119 7 98 20 176 -116 l42 -73 55 97 56
98 103 -6 c57 -3 104 -3 104 1 0 4 -22 45 -50 92 -27 47 -50 88 -50 92 0 3 23
44 50 91 28 47 50 88 50 91 0 3 -48 7 -107 8 l-107 3 -50 88 c-28 48 -53 87
-56 87 -3 0 -27 -41 -55 -90z"/>
<path d="M11865 6340 l-50 -90 -107 0 c-60 0 -108 -2 -108 -4 0 -3 22 -42 50
-88 27 -46 50 -88 50 -95 0 -6 -22 -49 -50 -96 -27 -47 -50 -87 -50 -90 0 -3
47 -3 104 0 119 7 98 20 176 -116 l42 -73 53 93 53 94 106 -2 c58 0 106 1 106
4 0 3 -22 45 -50 93 -27 48 -50 91 -50 95 0 4 23 44 50 90 28 46 50 85 50 89
0 3 -48 7 -107 8 l-107 3 -50 88 c-28 48 -53 87 -56 87 -3 0 -27 -41 -55 -90z"/>
<path d="M822 5964 l-53 -94 -105 0 -105 0 36 -62 c76 -132 75 -114 16 -211
-28 -47 -51 -88 -51 -91 0 -3 48 -6 108 -6 l107 0 50 -90 c27 -50 52 -90 55
-90 3 0 27 41 55 90 l50 90 107 0 c60 0 108 2 108 4 0 3 -22 42 -50 88 -27 46
-50 88 -50 95 0 6 22 49 49 95 l49 83 -106 5 -106 5 -50 87 c-28 48 -53 89
-56 92 -3 2 -29 -38 -58 -90z"/>
<path d="M2122 5964 l-53 -94 -105 0 -106 0 33 -57 c18 -32 41 -74 52 -93 l19
-35 -51 -87 c-28 -47 -51 -89 -51 -92 0 -3 48 -7 107 -8 l107 -3 50 -87 c28
-49 53 -88 56 -88 3 0 27 41 54 90 l49 89 108 3 109 3 -54 92 -54 91 53 89 53
88 -106 5 -106 5 -50 87 c-28 48 -53 89 -56 92 -3 2 -29 -38 -58 -90z"/>
<path d="M3421 5964 l-53 -94 -104 0 c-57 0 -104 -2 -104 -4 0 -2 23 -43 51
-91 l51 -86 -51 -88 c-28 -49 -51 -91 -51 -94 0 -4 48 -8 106 -9 l107 -3 49
-87 c28 -49 54 -86 58 -83 5 3 30 43 56 90 l47 84 108 3 108 3 -53 91 -54 92
53 90 53 91 -106 3 -106 3 -51 87 c-28 48 -53 90 -56 92 -2 3 -29 -38 -58 -90z"/>
<path d="M4720 5965 l-54 -95 -103 0 c-57 0 -103 -3 -103 -6 0 -3 23 -44 51
-90 l51 -85 -54 -92 -53 -92 -111 -3 -110 -3 -48 86 c-26 47 -51 87 -56 90 -4
3 -30 -34 -58 -83 l-49 -87 -107 -3 c-58 -1 -106 -5 -106 -9 0 -3 23 -45 51
-93 l51 -89 -51 -86 c-28 -47 -51 -88 -51 -90 0 -3 47 -5 104 -5 l104 0 38
-67 c21 -38 45 -81 55 -96 l17 -29 38 69 c72 131 60 123 179 123 l104 0 -54
92 c-48 82 -53 95 -41 113 7 11 32 53 56 93 l43 73 110 -3 110 -3 50 -89 c57
-102 49 -104 118 22 l41 73 111 -3 112 -3 53 -91 53 -92 -51 -85 c-27 -47 -50
-88 -50 -91 0 -3 46 -6 103 -6 l103 0 47 -82 c26 -46 51 -89 56 -96 6 -10 24
14 62 82 l54 96 107 0 107 0 -54 92 -55 91 19 31 c10 17 35 59 55 94 l37 62
109 0 108 0 53 -91 c60 -105 51 -106 120 19 l40 72 109 0 109 0 56 -94 56 -94
-55 -91 -56 -91 108 0 108 0 54 -95 c36 -63 57 -91 62 -82 4 6 29 49 55 95
l47 82 103 0 c57 0 103 3 103 6 0 3 -23 44 -50 91 l-50 86 53 91 53 91 111 3
111 3 41 -73 c69 -126 60 -124 120 -19 l53 91 108 0 109 0 42 -72 c23 -40 48
-82 55 -93 12 -18 7 -31 -41 -113 l-54 -92 107 0 107 0 54 -96 54 -95 16 28
c10 15 34 58 55 96 l38 67 104 0 c57 0 104 3 104 6 0 3 -23 44 -50 91 l-51 85
53 92 53 91 112 3 112 3 46 -86 c26 -46 50 -87 55 -90 4 -3 30 34 58 83 l49
87 107 3 c58 1 106 5 106 9 0 3 -23 45 -51 93 l-51 89 51 86 c28 47 51 88 51
90 0 3 -47 5 -104 5 l-104 0 -53 94 c-29 52 -56 93 -58 90 -3 -2 -28 -44 -56
-92 l-51 -87 -106 -3 -106 -3 53 -92 c48 -81 53 -94 41 -112 -7 -11 -32 -53
-55 -92 l-43 -73 -108 0 -108 0 -53 91 c-60 105 -51 107 -120 -19 l-41 -73
-111 3 -111 3 -53 92 -54 91 51 85 c27 47 50 88 50 91 0 3 -46 6 -103 6 l-103
0 -47 83 c-26 45 -51 88 -56 95 -6 10 -24 -14 -62 -82 l-54 -96 -107 0 -108 0
55 -91 55 -90 -55 -95 -56 -94 -109 0 -108 0 -53 91 c-60 105 -51 106 -120
-18 l-40 -73 -109 0 -109 0 -56 94 -55 94 50 85 c27 47 50 88 50 91 0 3 -46 6
-102 6 l-103 0 -54 96 c-38 68 -56 92 -62 82 -5 -7 -30 -50 -56 -95 l-47 -83
-103 0 c-57 0 -103 -3 -103 -6 0 -3 23 -44 50 -91 l50 -86 -53 -91 -53 -91
-111 -3 -111 -3 -41 73 c-69 126 -60 124 -120 19 l-53 -91 -108 0 -109 0 -42
73 c-23 39 -48 81 -56 93 -11 18 -7 30 41 112 l55 92 -107 0 -107 0 -53 95
c-30 52 -55 95 -56 95 -1 0 -26 -43 -56 -95z"/>
<path d="M9919 5968 l-54 -93 -107 -3 -107 -3 53 -90 53 -91 -53 -92 -54 -91
109 -3 108 -3 47 -84 c26 -47 51 -87 55 -89 4 -3 30 34 57 82 l50 87 107 3
c59 1 107 5 107 8 0 3 -22 44 -50 91 -27 47 -50 87 -50 90 0 3 23 43 50 90 28
47 50 87 50 89 0 2 -47 4 -104 4 l-104 0 -38 68 c-21 37 -45 80 -54 95 l-17
28 -54 -93z"/>
<path d="M11230 5989 c-75 -131 -56 -118 -174 -121 l-104 -3 49 -83 c27 -45
49 -88 49 -95 0 -6 -23 -50 -50 -97 l-50 -85 108 -3 107 -3 50 -89 c28 -49 52
-90 55 -90 3 0 28 39 56 88 l50 87 107 3 c59 1 107 5 107 8 0 3 -23 44 -51 92
l-52 87 20 35 c11 19 34 61 52 93 l33 57 -105 0 -106 0 -54 96 -55 96 -42 -73z"/>
<path d="M12513 5963 l-50 -88 -107 -5 -106 -5 50 -83 c28 -46 50 -88 50 -94
0 -5 -22 -48 -50 -95 -27 -47 -50 -87 -50 -89 0 -2 48 -4 108 -4 l107 0 50
-90 c27 -49 52 -90 55 -90 3 0 28 40 55 90 l50 90 62 0 62 0 0 185 0 184 -61
3 -61 3 -48 85 c-27 47 -53 86 -58 88 -4 1 -31 -37 -58 -85z"/>
<path d="M175 5590 l-50 -90 -62 0 -62 0 0 -185 0 -184 61 -3 61 -3 48 -85
c27 -47 53 -85 59 -85 6 0 32 38 58 85 l47 85 108 5 107 5 -50 83 c-28 46 -50
88 -50 94 0 5 23 48 50 95 27 47 50 87 50 89 0 2 -48 4 -107 4 l-108 0 -50 90
c-27 50 -52 90 -55 90 -3 0 -28 -40 -55 -90z"/>
<path d="M1474 5593 l-50 -88 -107 -3 c-59 -1 -107 -5 -107 -8 0 -3 23 -44 51
-92 l52 -87 -20 -35 c-11 -19 -34 -61 -52 -92 l-33 -58 105 0 106 0 54 -96 55
-96 42 73 c75 131 56 118 174 121 l104 3 -49 83 c-27 46 -49 89 -49 95 0 7 23
50 50 97 l50 85 -108 3 -107 3 -50 89 c-28 49 -52 90 -55 90 -3 0 -28 -39 -56
-87z"/>
<path d="M2772 5592 l-49 -87 -107 -3 c-58 -1 -106 -5 -106 -8 0 -3 23 -44 50
-91 28 -47 50 -87 50 -90 0 -3 -22 -43 -50 -90 -27 -47 -50 -87 -50 -89 0 -2
47 -4 104 -4 l105 0 54 -96 54 -95 54 93 54 93 107 5 106 5 -53 89 -53 88 54
92 53 91 -108 3 -108 3 -47 84 c-26 47 -51 87 -56 90 -4 3 -30 -34 -58 -83z"/>
<path d="M9314 5669 c-6 -8 -30 -49 -54 -91 l-44 -77 -107 -3 -108 -3 53 -91
54 -91 -54 -91 -53 -91 107 -3 106 -3 51 -87 c28 -48 53 -90 56 -92 2 -3 29
38 58 90 l53 94 104 0 c57 0 104 2 104 5 0 2 -22 42 -50 89 -27 47 -50 87 -50
90 0 3 22 42 50 88 27 46 50 86 50 91 0 4 -47 7 -105 7 l-104 0 -45 78 c-67
115 -60 106 -72 91z"/>
<path d="M10565 5590 l-50 -89 -107 -3 -108 -3 54 -91 53 -91 -52 -89 -53 -89
104 -3 105 -3 25 -42 c14 -23 39 -66 55 -96 l31 -54 55 97 54 96 106 0 105 0
-33 58 c-18 31 -41 73 -52 92 l-19 35 51 87 c28 47 51 89 51 92 0 3 -48 7
-107 8 l-107 3 -50 88 c-28 48 -53 87 -56 87 -3 0 -27 -41 -55 -90z"/>
<path d="M11865 5590 l-50 -90 -107 0 c-60 0 -108 -2 -108 -4 0 -3 22 -42 50
-88 27 -46 50 -88 50 -95 0 -6 -22 -49 -49 -95 l-49 -83 106 -5 106 -5 50 -88
c28 -48 54 -86 58 -85 5 2 30 41 57 88 l48 85 106 5 106 5 -49 85 c-27 47 -50
89 -50 94 0 4 23 45 50 91 28 46 50 85 50 89 0 3 -48 7 -107 8 l-107 3 -50 88
c-28 48 -53 87 -56 87 -3 0 -27 -41 -55 -90z"/>
<path d="M821 5213 l-54 -96 -103 6 c-57 3 -104 3 -104 0 0 -3 23 -45 50 -93
28 -48 50 -90 50 -93 0 -4 -22 -44 -50 -91 -27 -47 -50 -87 -50 -90 0 -3 48
-7 108 -8 l107 -3 50 -87 c27 -49 52 -88 55 -88 3 0 27 41 55 90 l50 90 107 0
c60 0 108 2 108 4 0 2 -23 42 -50 89 -27 47 -50 90 -50 95 0 6 23 48 50 95 28
47 50 87 50 90 0 3 -48 4 -107 4 l-107 -2 -50 87 c-28 48 -53 89 -56 92 -3 2
-29 -39 -59 -91z"/>
<path d="M2121 5213 l-54 -96 -103 6 c-57 3 -104 3 -104 -1 0 -4 22 -45 50
-92 27 -47 50 -88 50 -92 0 -3 -22 -44 -50 -91 -27 -47 -50 -88 -50 -91 0 -3
48 -7 107 -8 l107 -3 50 -87 c28 -49 53 -88 56 -88 3 0 27 41 54 90 l49 89
109 3 109 3 -55 92 -54 91 50 84 c28 46 52 88 55 95 3 8 -25 11 -103 10 l-108
-2 -50 87 c-28 48 -53 89 -56 92 -3 2 -29 -39 -59 -91z"/>
<path d="M3420 5213 l-53 -96 -104 6 c-57 3 -103 2 -103 -3 0 -4 23 -47 51
-95 l51 -86 -51 -88 c-28 -49 -51 -91 -51 -94 0 -4 48 -8 106 -9 l107 -3 49
-87 c28 -49 54 -86 58 -83 5 3 30 43 56 90 l47 84 108 3 108 3 -53 91 -54 92
53 91 c30 50 51 92 47 93 -4 1 -52 2 -107 2 l-99 1 -51 87 c-28 48 -53 90 -56
92 -2 3 -29 -38 -59 -91z"/>
<path d="M4720 5215 l-55 -98 -102 6 c-60 3 -103 2 -103 -3 0 -5 23 -48 51
-95 l50 -86 -50 -88 c-28 -49 -51 -91 -51 -94 0 -4 48 -8 106 -9 l107 -3 48
-85 c27 -47 52 -84 56 -83 5 1 29 40 55 85 l48 83 109 5 109 5 -35 60 c-19 33
-43 74 -54 91 l-19 31 55 91 c29 51 51 93 47 94 -4 1 -52 2 -107 2 l-100 1
-47 80 c-26 44 -51 86 -55 93 -6 10 -25 -17 -63 -83z"/>
<path d="M6019 5214 l-54 -97 -102 6 c-69 4 -103 2 -103 -5 0 -5 23 -48 50
-95 l50 -86 -53 -91 -53 -91 -111 -3 -111 -3 -41 73 c-69 126 -60 124 -120 19
l-53 -91 -104 0 c-57 0 -104 -3 -104 -6 0 -4 23 -46 50 -95 l51 -87 -51 -86
c-27 -46 -50 -89 -50 -95 0 -6 36 -8 103 -4 l102 6 55 -98 c38 -66 57 -93 63
-83 4 7 29 49 55 93 l47 80 100 1 c55 0 103 1 107 2 4 1 -18 43 -47 94 l-55
91 19 31 c10 17 35 59 55 94 l37 62 109 0 108 0 53 -91 c60 -105 51 -106 120
19 l40 72 109 0 109 0 56 -94 56 -93 -51 -84 c-27 -46 -50 -89 -50 -96 0 -9
26 -10 103 -6 l102 6 54 -98 c38 -69 56 -93 62 -84 5 8 30 52 57 98 l47 84
103 -6 c68 -4 102 -2 102 5 0 5 -23 48 -50 95 l-50 86 53 91 53 91 111 3 111
3 41 -73 c69 -126 60 -124 120 -19 l53 91 108 0 109 0 42 -72 c23 -40 48 -82
55 -93 12 -18 7 -31 -41 -113 -29 -50 -51 -93 -47 -94 4 -1 52 -2 107 -2 l100
-1 47 -80 c26 -44 51 -86 55 -94 6 -9 25 17 62 84 l54 98 104 -6 c69 -4 103
-2 103 5 0 5 -23 48 -51 94 l-50 84 50 89 c28 48 51 91 51 95 0 3 -47 6 -104
6 l-104 0 -53 91 c-60 105 -51 107 -120 -19 l-41 -73 -111 3 -111 3 -53 92
-54 91 51 85 c27 47 50 90 50 96 0 6 -36 8 -102 4 l-103 -6 -55 98 c-38 66
-57 93 -63 83 -4 -7 -29 -49 -55 -93 l-47 -80 -103 2 c-72 1 -102 -2 -102 -10
0 -7 23 -49 50 -95 l50 -83 -56 -95 -55 -94 -109 0 -108 0 -53 91 c-60 105
-51 106 -120 -18 l-40 -73 -109 0 -109 0 -56 94 -55 94 50 85 c27 47 50 90 50
95 0 7 -34 9 -102 5 l-103 -5 -53 96 c-30 53 -55 96 -56 96 -1 0 -27 -43 -57
-96z"/>
<path d="M8618 5218 l-54 -93 -99 -1 c-55 0 -103 -1 -107 -2 -4 -1 17 -43 47
-93 l53 -91 -54 -92 -53 -91 109 -3 109 -3 46 -84 c26 -47 50 -87 55 -90 4 -3
30 34 58 83 l49 87 107 3 c58 1 106 5 106 9 0 3 -23 45 -51 94 l-50 88 50 86
c28 47 51 90 51 95 0 5 -43 6 -103 3 l-104 -6 -38 69 c-21 38 -46 82 -55 97
l-17 28 -55 -93z"/>
<path d="M9918 5218 l-54 -93 -99 -1 c-55 0 -103 -1 -107 -2 -4 -1 17 -43 46
-93 l53 -91 -53 -92 -54 -91 109 -3 108 -3 47 -84 c26 -47 51 -87 56 -90 4 -3
30 34 56 83 l49 87 108 3 c59 1 107 6 107 10 0 4 -23 44 -50 90 -28 46 -50 86
-50 90 0 4 23 44 50 90 28 46 50 87 50 92 0 5 -46 6 -103 3 l-104 -6 -38 69
c-21 38 -46 82 -55 97 l-17 28 -55 -93z"/>
<path d="M11230 5239 c-78 -136 -58 -123 -171 -116 -54 3 -100 3 -103 -1 -2
-4 18 -44 45 -90 27 -45 49 -88 49 -95 0 -6 -23 -49 -50 -95 -28 -46 -50 -85
-50 -88 0 -2 48 -4 108 -4 l107 0 50 -90 c28 -49 52 -90 55 -90 3 0 28 39 56
88 l50 87 107 3 c59 1 107 5 107 8 0 3 -22 43 -50 90 -27 47 -50 87 -50 91 0
3 23 45 50 93 28 48 50 90 50 93 0 3 -47 3 -104 0 l-103 -6 -56 98 -55 97 -42
-73z"/>
<path d="M12513 5213 l-51 -88 -106 2 c-58 0 -106 -1 -106 -4 0 -3 23 -43 50
-90 28 -47 50 -89 50 -95 0 -5 -22 -48 -50 -95 -27 -47 -50 -87 -50 -89 0 -2
48 -4 108 -4 l107 0 50 -90 c27 -49 52 -90 55 -90 3 0 28 40 55 90 l50 90 62
0 62 0 0 185 0 184 -61 3 -61 3 -48 85 c-27 47 -53 86 -58 88 -4 1 -31 -37
-58 -85z"/>
<path d="M175 4840 l-50 -90 -62 0 -62 0 0 -185 0 -184 61 -3 61 -3 48 -85
c27 -47 54 -85 59 -85 6 0 32 38 58 85 l48 85 107 -2 c59 0 107 2 107 5 0 4
-23 44 -50 90 -28 46 -50 88 -50 94 0 5 23 48 50 95 27 47 50 87 50 89 0 2
-48 4 -107 4 l-108 0 -50 90 c-27 50 -52 90 -55 90 -3 0 -28 -40 -55 -90z"/>
<path d="M1474 4843 l-50 -88 -107 -3 c-59 -1 -107 -5 -107 -8 0 -3 23 -43 50
-90 28 -47 50 -88 50 -92 0 -4 -23 -45 -50 -92 -28 -47 -50 -88 -50 -92 0 -4
47 -4 104 -1 l103 6 56 -98 55 -97 42 73 c78 136 58 123 171 116 54 -3 100 -3
103 1 2 4 -18 44 -45 90 -27 45 -49 88 -49 95 0 6 23 50 50 97 l50 85 -108 3
-107 3 -50 89 c-28 49 -52 90 -55 90 -3 0 -28 -39 -56 -87z"/>
<path d="M2773 4843 l-50 -88 -107 -3 c-58 -1 -106 -5 -106 -8 0 -3 23 -44 50
-91 28 -47 50 -87 50 -90 0 -3 -22 -43 -50 -90 -27 -47 -50 -89 -50 -93 0 -5
47 -6 104 -3 l103 6 54 -96 c29 -53 56 -94 58 -91 3 2 28 44 56 92 l51 87 99
1 c55 0 103 1 107 2 4 1 -17 43 -46 93 l-54 92 54 91 53 91 -108 3 -108 3 -49
89 c-27 49 -52 90 -55 90 -4 0 -29 -39 -56 -87z"/>
<path d="M4072 4842 l-49 -87 -107 -3 c-58 -1 -106 -5 -106 -9 0 -3 23 -45 51
-93 l51 -89 -51 -86 c-28 -47 -51 -90 -51 -95 0 -5 43 -6 103 -3 l104 6 38
-69 c21 -38 46 -82 56 -97 l17 -29 38 69 c20 37 46 81 57 97 l20 29 98 -6 c53
-3 99 -4 102 -1 3 3 -19 46 -49 97 l-53 91 19 31 c10 16 34 57 53 90 l35 60
-107 3 -108 3 -47 84 c-26 47 -51 87 -56 90 -4 3 -30 -34 -58 -83z"/>
<path d="M9314 4919 c-6 -8 -30 -49 -54 -91 l-44 -77 -107 -3 -108 -3 53 -91
54 -91 -54 -92 c-29 -50 -50 -92 -46 -93 4 -1 52 -2 107 -2 l99 -1 51 -87 c28
-48 53 -90 56 -92 2 -3 29 38 59 91 l53 96 104 -6 c57 -3 103 -2 103 3 0 4
-23 47 -51 95 l-51 86 51 88 c28 49 51 91 51 95 0 3 -47 6 -105 6 l-104 0 -45
78 c-67 115 -60 106 -72 91z"/>
<path d="M10565 4840 l-50 -89 -107 -3 -108 -3 54 -91 53 -91 -53 -89 c-29
-49 -53 -92 -54 -96 0 -4 47 -4 104 -1 119 7 98 20 176 -116 l42 -73 55 97 56
98 103 -6 c57 -3 104 -3 104 1 0 4 -22 45 -50 92 -27 47 -50 88 -50 92 0 3 23
44 50 91 28 47 50 88 50 91 0 3 -48 7 -107 8 l-107 3 -50 88 c-28 48 -53 87
-56 87 -3 0 -27 -41 -55 -90z"/>
<path d="M11865 4840 l-50 -90 -107 0 c-60 0 -108 -2 -108 -4 0 -3 22 -42 50
-88 27 -46 50 -88 50 -95 0 -6 -22 -49 -50 -96 -27 -47 -50 -87 -50 -90 0 -3
47 -3 104 0 119 7 98 20 176 -116 l42 -73 53 93 53 94 106 -2 c58 0 106 1 106
4 0 3 -22 45 -50 93 -27 48 -50 91 -50 95 0 4 23 44 50 90 28 46 50 85 50 89
0 3 -48 7 -107 8 l-107 3 -50 88 c-28 48 -53 87 -56 87 -3 0 -27 -41 -55 -90z"/>
<path d="M822 4464 l-53 -94 -105 0 -105 0 36 -62 c76 -132 75 -114 16 -211
-28 -47 -51 -88 -51 -91 0 -3 48 -6 108 -6 l107 0 50 -90 c27 -50 52 -90 55
-90 3 0 27 41 55 90 l50 90 107 0 c60 0 108 2 108 4 0 3 -22 42 -50 88 -27 46
-50 88 -50 95 0 6 22 49 49 95 l49 83 -106 5 -106 5 -50 87 c-28 48 -53 89
-56 92 -3 2 -29 -38 -58 -90z"/>
<path d="M2122 4464 l-53 -94 -105 0 -106 0 33 -57 c18 -32 41 -74 52 -93 l19
-35 -51 -87 c-28 -47 -51 -89 -51 -92 0 -3 48 -7 107 -8 l107 -3 50 -87 c28
-49 53 -88 56 -88 3 0 27 41 54 90 l49 89 108 3 109 3 -54 92 -54 91 53 89 53
88 -106 5 -106 5 -50 87 c-28 48 -53 89 -56 92 -3 2 -29 -38 -58 -90z"/>
<path d="M3421 4464 l-53 -94 -104 0 c-57 0 -104 -2 -104 -4 0 -2 23 -43 51
-91 l51 -86 -51 -88 c-28 -49 -51 -91 -51 -94 0 -4 48 -8 106 -9 l107 -3 49
-87 c28 -49 54 -86 58 -83 5 3 30 43 56 90 l47 84 108 3 108 3 -53 91 -54 92
53 90 53 91 -106 3 -106 3 -51 87 c-28 48 -53 90 -56 92 -2 3 -29 -38 -58 -90z"/>
<path d="M4720 4465 l-54 -95 -103 0 c-57 0 -103 -3 -103 -6 0 -3 23 -44 51
-90 l51 -85 -54 -92 -53 -92 -111 -3 -110 -3 -48 86 c-26 47 -51 87 -56 90 -4
3 -30 -34 -58 -83 l-49 -87 -107 -3 c-58 -1 -106 -5 -106 -9 0 -3 23 -45 51
-93 l51 -89 -51 -86 c-28 -47 -51 -88 -51 -90 0 -3 47 -5 104 -5 l104 0 54
-95 c35 -65 56 -92 61 -83 4 7 29 49 55 93 l47 80 107 3 106 3 -53 92 c-48 81
-53 94 -41 112 7 11 32 53 56 93 l43 73 110 -3 110 -3 50 -89 c57 -102 49
-104 118 22 l41 73 111 -3 112 -3 53 -91 53 -92 -51 -85 c-27 -47 -50 -88 -50
-91 0 -3 46 -6 103 -6 l103 0 47 -82 c26 -46 51 -89 56 -96 6 -10 24 14 62 82
l54 96 107 0 107 0 -54 92 -55 91 19 31 c10 17 35 59 55 94 l37 62 109 0 108
0 53 -91 c60 -105 51 -106 120 19 l40 72 109 0 109 0 56 -94 56 -94 -55 -91
-56 -91 108 0 108 0 54 -95 c36 -63 57 -91 62 -82 4 6 29 49 55 95 l47 82 103
0 c57 0 103 3 103 6 0 3 -23 44 -50 91 l-50 86 53 91 53 91 111 3 111 3 41
-73 c69 -126 60 -124 120 -19 l53 91 108 0 109 0 42 -72 c23 -40 48 -82 55
-93 12 -18 7 -31 -41 -113 l-54 -92 107 0 107 0 54 -96 54 -95 16 28 c10 15
34 58 55 96 l38 67 104 0 c57 0 104 3 104 6 0 3 -23 44 -50 91 l-51 85 53 92
53 91 112 3 112 3 46 -86 c26 -46 50 -87 55 -90 4 -3 30 34 58 83 l49 87 107
3 c58 1 106 5 106 9 0 3 -23 45 -51 93 l-51 89 51 86 c28 47 51 88 51 90 0 3
-47 5 -104 5 l-104 0 -53 94 c-29 52 -56 93 -58 90 -3 -2 -28 -44 -56 -92
l-51 -87 -106 -3 -106 -3 53 -92 c48 -81 53 -94 41 -112 -7 -11 -32 -53 -55
-92 l-43 -73 -108 0 -108 0 -53 91 c-60 105 -51 107 -120 -19 l-41 -73 -111 3
-111 3 -53 92 -54 91 51 85 c27 47 50 88 50 91 0 3 -46 6 -103 6 l-103 0 -47
83 c-26 45 -51 88 -56 95 -6 10 -24 -14 -62 -82 l-54 -96 -107 0 -108 0 55
-91 55 -90 -55 -95 -56 -94 -109 0 -108 0 -53 91 c-60 105 -51 106 -120 -18
l-40 -73 -109 0 -109 0 -56 94 -55 94 50 85 c27 47 50 88 50 91 0 3 -46 6
-102 6 l-103 0 -54 96 c-38 68 -56 92 -62 82 -5 -7 -30 -50 -56 -95 l-47 -83
-103 0 c-57 0 -103 -3 -103 -6 0 -3 23 -44 50 -91 l50 -86 -53 -91 -53 -91
-111 -3 -111 -3 -41 73 c-69 126 -60 124 -120 19 l-53 -91 -108 0 -109 0 -42
73 c-23 39 -48 81 -56 93 -11 18 -7 30 41 112 l55 92 -107 0 -107 0 -53 95
c-30 52 -55 95 -56 95 -1 0 -26 -43 -56 -95z"/>
<path d="M9919 4468 l-54 -93 -107 -3 -107 -3 53 -90 53 -91 -53 -92 -54 -91
109 -3 108 -3 47 -84 c26 -47 51 -87 55 -89 4 -3 30 34 57 82 l50 87 107 3
c59 1 107 5 107 8 0 3 -22 44 -50 91 -27 47 -50 87 -50 90 0 3 23 43 50 90 28
47 50 87 50 89 0 2 -47 4 -104 4 l-104 0 -38 68 c-21 37 -45 80 -54 95 l-17
28 -54 -93z"/>
<path d="M11230 4489 c-75 -131 -56 -118 -174 -121 l-104 -3 49 -83 c27 -45
49 -88 49 -95 0 -6 -23 -50 -50 -97 l-50 -85 108 -3 107 -3 50 -89 c28 -49 52
-90 55 -90 3 0 28 39 56 88 l50 87 107 3 c59 1 107 5 107 8 0 3 -23 44 -51 92
l-52 87 20 35 c11 19 34 61 52 93 l33 57 -105 0 -106 0 -54 96 -55 96 -42 -73z"/>
<path d="M12513 4463 l-50 -88 -107 -5 -106 -5 50 -83 c28 -46 50 -88 50 -94
0 -5 -22 -48 -50 -95 -27 -47 -50 -87 -50 -89 0 -2 48 -4 108 -4 l107 0 50
-90 c27 -49 52 -90 55 -90 3 0 28 40 55 90 l50 90 62 0 62 0 0 185 0 184 -61
3 -61 3 -48 85 c-27 47 -53 86 -58 88 -4 1 -31 -37 -58 -85z"/>
<path d="M175 4090 l-50 -90 -62 0 -62 0 0 -185 0 -184 61 -3 61 -3 48 -85
c27 -47 53 -85 59 -85 6 0 32 38 58 85 l47 85 108 5 107 5 -50 83 c-28 46 -50
88 -50 94 0 5 23 48 50 95 27 47 50 87 50 89 0 2 -48 4 -107 4 l-108 0 -50 90
c-27 50 -52 90 -55 90 -3 0 -28 -40 -55 -90z"/>
<path d="M1474 4093 l-50 -88 -107 -3 c-59 -1 -107 -5 -107 -8 0 -3 23 -44 51
-92 l52 -87 -20 -35 c-11 -19 -34 -61 -52 -92 l-33 -58 105 0 106 0 54 -96 55
-96 42 73 c75 131 56 118 174 121 l104 3 -49 83 c-27 45 -49 88 -49 95 0 6 23
50 50 97 l50 85 -108 3 -107 3 -50 89 c-28 49 -52 90 -55 90 -3 0 -28 -39 -56
-87z"/>
<path d="M2772 4092 l-49 -87 -107 -3 c-58 -1 -106 -5 -106 -8 0 -3 23 -44 50
-91 28 -47 50 -87 50 -90 0 -3 -22 -43 -50 -90 -27 -47 -50 -87 -50 -89 0 -2
47 -4 104 -4 l105 0 54 -96 54 -95 54 93 54 93 107 5 106 5 -53 89 -53 88 54
92 53 91 -108 3 -108 3 -47 84 c-26 47 -51 87 -56 90 -4 3 -30 -34 -58 -83z"/>
<path d="M9314 4169 c-6 -8 -30 -49 -54 -91 l-44 -77 -107 -3 -108 -3 53 -91
54 -91 -54 -91 -53 -91 107 -3 106 -3 51 -87 c28 -48 53 -90 56 -92 2 -3 29
38 58 90 l53 94 104 0 c57 0 104 2 104 5 0 2 -22 42 -50 89 -27 47 -50 87 -50
90 0 3 22 42 50 88 27 46 50 86 50 91 0 4 -47 7 -105 7 l-104 0 -45 78 c-67
115 -60 106 -72 91z"/>
<path d="M10565 4090 l-50 -89 -107 -3 -108 -3 54 -91 53 -91 -52 -89 -53 -89
104 -3 105 -3 25 -42 c14 -23 39 -66 55 -96 l31 -54 55 97 54 96 106 0 105 0
-33 58 c-18 31 -41 73 -52 92 l-19 35 51 87 c28 47 51 89 51 92 0 3 -48 7
-107 8 l-107 3 -50 88 c-28 48 -53 87 -56 87 -3 0 -27 -41 -55 -90z"/>
<path d="M11865 4090 l-50 -90 -107 0 c-60 0 -108 -2 -108 -4 0 -3 22 -42 50
-88 27 -46 50 -88 50 -95 0 -6 -22 -49 -49 -95 l-49 -83 106 -5 106 -5 50 -88
c28 -48 54 -86 58 -85 5 2 30 41 57 88 l48 85 106 5 106 5 -49 85 c-27 47 -50
89 -50 94 0 4 23 45 50 91 28 46 50 85 50 89 0 3 -48 7 -107 8 l-107 3 -50 88
c-28 48 -53 87 -56 87 -3 0 -27 -41 -55 -90z"/>
<path d="M821 3713 l-54 -96 -103 6 c-57 3 -104 3 -104 0 0 -3 23 -45 50 -93
28 -48 50 -90 50 -93 0 -4 -22 -44 -50 -91 -27 -47 -50 -87 -50 -90 0 -3 48
-7 108 -8 l107 -3 50 -87 c27 -49 52 -88 55 -88 3 0 27 41 55 90 l50 90 107 0
c60 0 108 2 108 4 0 2 -23 42 -50 89 -27 47 -50 90 -50 95 0 6 23 48 50 95 28
47 50 87 50 90 0 3 -48 4 -107 4 l-107 -2 -50 87 c-28 48 -53 89 -56 92 -3 2
-29 -39 -59 -91z"/>
<path d="M2121 3713 l-54 -96 -103 6 c-57 3 -104 3 -104 -1 0 -4 22 -45 50
-92 27 -47 50 -88 50 -92 0 -3 -22 -44 -50 -91 -27 -47 -50 -88 -50 -91 0 -3
48 -7 107 -8 l107 -3 50 -87 c28 -49 53 -88 56 -88 3 0 27 41 54 90 l49 89
109 3 109 3 -55 92 -54 91 50 84 c28 46 52 88 55 95 3 8 -25 11 -103 10 l-108
-2 -50 87 c-28 48 -53 89 -56 92 -3 2 -29 -39 -59 -91z"/>
<path d="M3420 3713 l-53 -96 -104 6 c-57 3 -103 2 -103 -3 0 -4 23 -47 51
-95 l51 -86 -51 -88 c-28 -49 -51 -91 -51 -94 0 -4 48 -8 106 -9 l107 -3 49
-87 c28 -49 54 -86 58 -83 5 3 30 43 56 90 l47 84 108 3 108 3 -53 91 -54 92
53 91 c30 50 51 92 47 93 -4 1 -52 2 -107 2 l-99 1 -51 87 c-28 48 -53 90 -56
92 -2 3 -29 -38 -59 -91z"/>
<path d="M4720 3715 l-55 -98 -102 6 c-60 3 -103 2 -103 -3 0 -5 23 -48 51
-95 l50 -86 -50 -88 c-28 -49 -51 -91 -51 -94 0 -4 48 -8 106 -9 l107 -3 48
-85 c27 -47 52 -84 56 -83 5 1 29 40 55 85 l48 83 109 5 109 5 -35 60 c-19 33
-43 74 -54 91 l-19 31 55 91 c29 51 51 93 47 94 -4 1 -52 2 -107 2 l-100 1
-47 80 c-26 44 -51 86 -55 93 -6 10 -25 -17 -63 -83z"/>
<path d="M6019 3714 l-54 -97 -102 6 c-67 4 -103 2 -103 -4 0 -6 23 -49 50
-96 l51 -85 -54 -91 -53 -92 -111 -3 -111 -3 -41 73 c-69 126 -60 124 -120 19
l-53 -91 -104 0 c-57 0 -104 -3 -104 -6 0 -4 23 -46 50 -95 l51 -87 -51 -86
c-27 -46 -50 -89 -50 -95 0 -6 36 -8 103 -4 l102 6 55 -98 c38 -66 57 -93 63
-83 4 7 29 49 55 93 l47 80 100 1 c55 0 103 1 107 2 4 1 -18 43 -47 94 l-55
91 19 31 c10 17 35 59 55 94 l37 62 109 0 108 0 53 -91 c60 -105 51 -106 120
19 l40 72 109 0 109 0 56 -94 56 -93 -51 -84 c-27 -46 -50 -89 -50 -96 0 -9
26 -10 103 -6 l102 6 54 -98 c38 -69 56 -93 62 -84 5 8 30 52 57 98 l47 84
103 -6 c68 -4 102 -2 102 5 0 5 -23 48 -50 95 l-50 86 53 91 53 91 111 3 111
3 41 -73 c69 -126 60 -124 120 -19 l53 91 108 0 109 0 42 -72 c23 -40 48 -82
55 -93 12 -18 7 -31 -41 -113 -29 -50 -51 -93 -47 -94 4 -1 52 -2 107 -2 l100
-1 47 -80 c26 -44 51 -86 55 -94 6 -9 25 17 62 84 l54 98 104 -6 c69 -4 103
-2 103 5 0 5 -23 48 -51 94 l-50 84 50 89 c28 48 51 91 51 95 0 3 -47 6 -104
6 l-104 0 -53 91 c-60 105 -51 107 -120 -19 l-41 -73 -111 3 -111 3 -53 92
-54 91 51 85 c27 47 50 90 50 96 0 6 -36 8 -102 4 l-103 -6 -55 98 c-38 66
-57 93 -63 83 -4 -7 -29 -49 -55 -93 l-47 -80 -103 2 c-72 1 -102 -2 -102 -10
0 -7 23 -49 50 -95 l50 -83 -56 -95 -55 -94 -109 0 -108 0 -53 91 c-60 105
-51 106 -120 -18 l-40 -73 -109 0 -109 0 -56 94 -55 94 50 85 c27 47 50 90 50
95 0 7 -34 9 -102 5 l-103 -5 -53 96 c-30 53 -55 96 -56 96 -1 0 -27 -43 -57
-96z"/>
<path d="M8618 3718 l-54 -93 -99 -1 c-55 0 -103 -1 -107 -2 -4 -1 17 -43 47
-93 l53 -91 -54 -92 -53 -91 109 -3 109 -3 46 -84 c26 -47 50 -87 55 -90 4 -3
30 34 58 83 l49 87 107 3 c58 1 106 5 106 9 0 3 -23 45 -51 94 l-50 88 50 86
c28 47 51 90 51 95 0 5 -43 6 -103 3 l-104 -6 -38 69 c-21 38 -46 82 -55 97
l-17 28 -55 -93z"/>
<path d="M9918 3718 l-54 -93 -99 -1 c-55 0 -103 -1 -107 -2 -4 -1 17 -43 46
-93 l53 -91 -53 -92 -54 -91 109 -3 108 -3 47 -84 c26 -47 51 -87 55 -89 4 -3
30 34 57 82 l50 87 107 3 c59 1 107 6 107 10 0 4 -23 44 -50 90 -28 46 -50 86
-50 90 0 4 23 44 50 90 28 46 50 87 50 92 0 5 -46 6 -103 3 l-104 -6 -38 69
c-21 38 -46 82 -55 97 l-17 28 -55 -93z"/>
<path d="M11230 3739 c-78 -136 -58 -123 -171 -116 -54 3 -100 3 -103 -1 -2
-4 18 -44 45 -90 27 -45 49 -88 49 -95 0 -6 -23 -49 -50 -95 -28 -46 -50 -85
-50 -88 0 -2 48 -4 108 -4 l107 0 50 -90 c28 -49 52 -90 55 -90 3 0 28 39 56
88 l50 87 107 3 c59 1 107 5 107 8 0 3 -22 43 -50 90 -27 47 -50 87 -50 91 0
3 23 45 50 93 28 48 50 90 50 93 0 3 -47 3 -104 0 l-103 -6 -56 98 -55 97 -42
-73z"/>
<path d="M12513 3713 l-51 -88 -106 2 c-58 0 -106 -1 -106 -4 0 -3 23 -43 50
-90 28 -47 50 -89 50 -95 0 -5 -22 -48 -50 -95 -27 -47 -50 -87 -50 -89 0 -2
48 -4 108 -4 l107 0 50 -90 c27 -49 52 -90 55 -90 3 0 28 40 55 90 l50 90 62
0 62 0 0 185 0 184 -61 3 -61 3 -48 85 c-27 47 -53 86 -58 88 -4 1 -31 -37
-58 -85z"/>
<path d="M175 3340 l-50 -90 -62 0 -62 0 0 -185 0 -184 61 -3 61 -3 48 -85
c27 -47 54 -85 59 -85 6 0 32 38 58 85 l48 85 107 -2 c59 0 107 2 107 5 0 4
-23 44 -50 90 -28 46 -50 88 -50 94 0 5 23 48 50 95 27 47 50 87 50 89 0 2
-48 4 -107 4 l-108 0 -50 90 c-27 50 -52 90 -55 90 -3 0 -28 -40 -55 -90z"/>
<path d="M1474 3343 l-50 -88 -107 -3 c-59 -1 -107 -5 -107 -8 0 -3 23 -43 50
-90 28 -47 50 -88 50 -92 0 -4 -23 -45 -50 -92 -28 -47 -50 -88 -50 -92 0 -4
47 -4 104 -1 l103 6 56 -98 55 -97 42 73 c78 136 58 123 171 116 54 -3 100 -3
103 1 2 4 -18 44 -45 90 -27 45 -49 88 -49 95 0 6 23 50 50 97 l50 85 -108 3
-107 3 -50 89 c-28 49 -52 90 -55 90 -3 0 -28 -39 -56 -87z"/>
<path d="M2773 3343 l-50 -88 -107 -3 c-58 -1 -106 -5 -106 -8 0 -3 23 -44 50
-91 28 -47 50 -87 50 -90 0 -3 -22 -43 -50 -90 -27 -47 -50 -89 -50 -93 0 -5
47 -6 104 -3 l103 6 54 -96 c29 -53 56 -94 58 -91 3 2 28 44 56 92 l51 87 99
1 c55 0 103 1 107 2 4 1 -17 43 -46 93 l-54 92 54 91 53 91 -108 3 -108 3 -49
89 c-27 49 -52 90 -55 90 -4 0 -29 -39 -56 -87z"/>
<path d="M4072 3342 l-49 -87 -107 -3 c-58 -1 -106 -5 -106 -9 0 -3 23 -45 51
-93 l51 -89 -51 -86 c-28 -47 -51 -90 -51 -95 0 -5 43 -6 103 -3 l104 6 38
-69 c21 -38 46 -82 56 -97 l17 -29 38 69 c20 37 46 81 57 97 l20 29 98 -6 c53
-3 99 -4 102 -1 3 3 -19 46 -49 97 l-53 91 19 31 c10 16 34 57 53 90 l35 60
-107 3 -108 3 -47 84 c-26 47 -51 87 -56 90 -4 3 -30 -34 -58 -83z"/>
<path d="M9314 3419 c-6 -8 -30 -49 -54 -91 l-44 -77 -107 -3 -108 -3 53 -91
54 -91 -54 -92 c-29 -50 -50 -92 -46 -93 4 -1 52 -2 107 -2 l99 -1 51 -87 c28
-48 53 -90 56 -92 2 -3 29 38 59 91 l53 96 104 -6 c57 -3 103 -2 103 3 0 4
-23 47 -51 95 l-51 86 51 88 c28 49 51 91 51 95 0 3 -47 6 -105 6 l-104 0 -45
78 c-67 115 -60 106 -72 91z"/>
<path d="M10565 3340 l-50 -89 -107 -3 -108 -3 54 -91 53 -91 -53 -89 c-29
-49 -53 -92 -54 -96 0 -4 47 -4 104 -1 119 7 98 20 176 -116 l42 -73 55 97 56
98 103 -6 c57 -3 104 -3 104 1 0 4 -22 45 -50 92 -27 47 -50 88 -50 92 0 3 23
44 50 91 28 47 50 88 50 91 0 3 -48 7 -107 8 l-107 3 -50 88 c-28 48 -53 87
-56 87 -3 0 -27 -41 -55 -90z"/>
<path d="M11865 3340 l-50 -90 -107 0 c-60 0 -108 -2 -108 -4 0 -3 22 -42 50
-88 27 -46 50 -88 50 -95 0 -6 -22 -49 -50 -96 -27 -47 -50 -87 -50 -90 0 -3
47 -3 104 0 119 7 98 20 176 -116 l42 -73 53 93 53 94 106 -2 c58 0 106 1 106
4 0 3 -22 45 -50 93 -27 48 -50 91 -50 95 0 4 23 44 50 90 28 46 50 85 50 89
0 3 -48 7 -107 8 l-107 3 -50 88 c-28 48 -53 87 -56 87 -3 0 -27 -41 -55 -90z"/>
<path d="M822 2964 l-53 -94 -105 0 -105 0 36 -62 c76 -132 75 -114 16 -211
-28 -47 -51 -88 -51 -91 0 -3 48 -6 108 -6 l107 0 50 -90 c27 -50 52 -90 55
-90 3 0 27 41 55 90 l50 90 107 0 c60 0 108 2 108 4 0 3 -22 42 -50 88 -27 46
-50 88 -50 95 0 6 22 49 49 95 l49 83 -106 5 -106 5 -50 87 c-28 48 -53 89
-56 92 -3 2 -29 -38 -58 -90z"/>
<path d="M2122 2964 l-53 -94 -105 0 -106 0 33 -57 c18 -32 41 -74 52 -93 l19
-35 -51 -87 c-28 -47 -51 -89 -51 -92 0 -3 48 -7 107 -8 l107 -3 50 -87 c28
-49 53 -88 56 -88 3 0 27 41 54 90 l49 89 108 3 109 3 -54 92 -54 91 53 89 53
88 -106 5 -106 5 -50 87 c-28 48 -53 89 -56 92 -3 2 -29 -38 -58 -90z"/>
<path d="M3421 2964 l-53 -94 -104 0 c-57 0 -104 -2 -104 -4 0 -2 23 -43 51
-91 l51 -86 -51 -88 c-28 -49 -51 -91 -51 -94 0 -4 48 -8 106 -9 l107 -3 49
-87 c28 -49 54 -86 58 -83 5 3 30 43 56 90 l47 84 108 3 108 3 -53 91 -54 92
53 90 53 91 -106 3 -106 3 -51 87 c-28 48 -53 90 -56 92 -2 3 -29 -38 -58 -90z"/>
<path d="M4720 2965 l-54 -95 -103 0 c-57 0 -103 -3 -103 -6 0 -3 23 -44 51
-90 l51 -85 -54 -92 -53 -92 -111 -3 -110 -3 -48 86 c-26 47 -51 87 -56 90 -4
3 -30 -34 -58 -83 l-49 -87 -107 -3 c-58 -1 -106 -5 -106 -9 0 -3 23 -45 51
-93 l51 -89 -51 -86 c-28 -47 -51 -88 -51 -90 0 -3 47 -5 104 -5 l104 0 54
-95 c35 -65 56 -92 61 -83 4 7 29 49 55 93 l47 80 107 3 106 3 -53 92 c-48 81
-53 94 -41 112 7 11 32 53 56 93 l43 73 110 -3 110 -3 50 -89 c57 -102 49
-104 118 22 l41 73 111 -3 112 -3 53 -91 53 -92 -51 -85 c-27 -47 -50 -88 -50
-91 0 -3 46 -6 103 -6 l103 0 47 -82 c26 -46 51 -89 56 -96 6 -10 24 14 62 82
l54 96 107 0 107 0 -54 92 -55 91 19 31 c10 17 35 59 55 94 l37 62 109 0 108
0 53 -91 c60 -105 51 -106 120 19 l40 72 109 0 109 0 56 -94 56 -94 -55 -91
-56 -91 108 0 108 0 54 -95 c36 -63 57 -91 62 -82 4 6 29 49 55 95 l47 82 103
0 c57 0 103 3 103 6 0 3 -23 44 -50 91 l-50 86 53 91 53 91 111 3 111 3 41
-73 c69 -126 60 -124 120 -19 l53 91 108 0 109 0 42 -72 c23 -40 48 -82 55
-93 12 -18 7 -31 -41 -113 l-54 -92 107 0 107 0 54 -96 54 -95 16 28 c10 15
34 58 55 96 l38 67 104 0 c57 0 104 3 104 6 0 3 -23 44 -50 91 l-51 85 53 92
53 91 112 3 112 3 46 -86 c26 -46 50 -87 55 -90 4 -3 30 34 58 83 l49 87 107
3 c58 1 106 5 106 9 0 3 -23 45 -51 93 l-51 89 51 86 c28 47 51 88 51 90 0 3
-47 5 -104 5 l-104 0 -53 94 c-29 52 -56 93 -58 90 -3 -2 -28 -44 -56 -92
l-51 -87 -106 -3 -106 -3 53 -92 c48 -81 53 -94 41 -112 -7 -11 -32 -53 -55
-92 l-43 -73 -108 0 -108 0 -53 91 c-60 105 -51 107 -120 -19 l-41 -73 -111 3
-111 3 -53 92 -54 91 51 85 c27 47 50 88 50 91 0 3 -46 6 -103 6 l-103 0 -47
83 c-26 45 -51 88 -56 95 -6 10 -24 -14 -62 -82 l-54 -96 -107 0 -108 0 55
-91 55 -90 -55 -95 -56 -94 -109 0 -108 0 -53 91 c-60 105 -51 106 -120 -18
l-40 -73 -109 0 -109 0 -56 94 -55 94 50 85 c27 47 50 88 50 91 0 3 -46 6
-102 6 l-103 0 -54 96 c-38 68 -56 92 -62 82 -5 -7 -30 -50 -56 -95 l-47 -83
-103 0 c-57 0 -103 -3 -103 -6 0 -3 23 -44 50 -91 l50 -86 -53 -91 -53 -91
-111 -3 -111 -3 -41 73 c-69 126 -60 124 -120 19 l-53 -91 -108 0 -109 0 -42
73 c-23 39 -48 81 -56 93 -11 18 -7 30 41 112 l55 92 -107 0 -107 0 -53 95
c-30 52 -55 95 -56 95 -1 0 -26 -43 -56 -95z"/>
<path d="M9919 2968 l-54 -93 -107 -3 -107 -3 53 -90 53 -91 -53 -92 -54 -91
109 -3 108 -3 47 -84 c26 -47 51 -87 55 -89 4 -3 30 34 57 82 l50 87 107 3
c59 1 107 5 107 8 0 3 -22 44 -50 91 -27 47 -50 87 -50 90 0 3 23 43 50 90 28
47 50 87 50 89 0 2 -47 4 -104 4 l-104 0 -38 68 c-21 37 -45 80 -54 95 l-17
28 -54 -93z"/>
<path d="M11230 2989 c-75 -131 -56 -118 -174 -121 l-104 -3 49 -83 c27 -45
49 -88 49 -95 0 -6 -23 -50 -50 -97 l-50 -85 108 -3 107 -3 50 -89 c28 -49 52
-90 55 -90 3 0 28 39 56 88 l50 87 107 3 c59 1 107 5 107 8 0 3 -23 44 -51 92
l-52 87 20 35 c11 19 34 61 52 93 l33 57 -105 0 -106 0 -54 96 -55 96 -42 -73z"/>
<path d="M12513 2963 l-50 -88 -107 -5 -106 -5 50 -83 c28 -46 50 -88 50 -94
0 -5 -22 -48 -50 -95 -27 -47 -50 -87 -50 -89 0 -2 48 -4 108 -4 l107 0 50
-90 c27 -50 52 -90 55 -90 3 0 28 40 55 90 l50 90 62 0 62 0 0 185 0 184 -61
3 -61 3 -48 85 c-27 47 -53 86 -58 88 -4 1 -31 -37 -58 -85z"/>
<path d="M175 2590 l-50 -90 -62 0 -62 0 0 -185 0 -184 61 -3 61 -3 48 -85
c27 -47 53 -85 59 -85 6 0 32 38 58 85 l47 85 108 5 107 5 -50 83 c-28 46 -50
88 -50 94 0 5 23 48 50 95 27 47 50 87 50 89 0 2 -48 4 -107 4 l-108 0 -50 90
c-27 50 -52 90 -55 90 -3 0 -28 -40 -55 -90z"/>
<path d="M1474 2593 l-50 -88 -107 -3 c-59 -1 -107 -5 -107 -8 0 -3 23 -44 51
-92 l52 -87 -20 -35 c-11 -19 -34 -61 -52 -92 l-33 -58 105 0 106 0 54 -96 55
-96 42 73 c75 131 56 118 174 121 l104 3 -49 83 c-27 46 -49 89 -49 95 0 7 23
50 50 97 l50 85 -108 3 -107 3 -50 89 c-28 49 -52 90 -55 90 -3 0 -28 -39 -56
-87z"/>
<path d="M2772 2592 l-49 -87 -107 -3 c-58 -1 -106 -5 -106 -8 0 -3 23 -44 50
-91 28 -47 50 -87 50 -90 0 -3 -22 -43 -50 -90 -27 -47 -50 -87 -50 -89 0 -2
47 -4 104 -4 l105 0 54 -96 54 -95 54 93 54 93 107 5 106 5 -53 89 -53 88 54
92 53 91 -108 3 -108 3 -47 84 c-26 47 -51 87 -56 90 -4 3 -30 -34 -58 -83z"/>
<path d="M9314 2669 c-6 -8 -30 -49 -54 -91 l-44 -77 -107 -3 -108 -3 53 -91
54 -91 -54 -91 -53 -91 107 -3 106 -3 51 -87 c28 -48 53 -90 56 -92 2 -3 29
38 58 90 l53 94 104 0 c57 0 104 2 104 5 0 2 -22 42 -50 89 -27 47 -50 87 -50
90 0 3 22 42 50 88 27 46 50 86 50 91 0 4 -47 7 -105 7 l-104 0 -45 78 c-67
115 -60 106 -72 91z"/>
<path d="M10565 2590 l-50 -89 -107 -3 -108 -3 54 -91 53 -91 -52 -89 -53 -89
104 -3 105 -3 25 -42 c14 -23 39 -66 55 -96 l31 -54 55 97 54 96 106 0 105 0
-33 58 c-18 31 -41 73 -52 92 l-19 35 51 87 c28 47 51 89 51 92 0 3 -48 7
-107 8 l-107 3 -50 88 c-28 48 -53 87 -56 87 -3 0 -27 -41 -55 -90z"/>
<path d="M11865 2590 l-50 -90 -107 0 c-60 0 -108 -2 -108 -4 0 -3 22 -42 50
-88 27 -46 50 -88 50 -95 0 -6 -22 -49 -49 -95 l-49 -83 106 -5 106 -5 50 -88
c28 -48 54 -86 58 -85 5 2 30 41 57 88 l48 85 106 5 106 5 -49 85 c-27 47 -50
89 -50 94 0 4 23 45 50 91 28 46 50 85 50 89 0 3 -48 7 -107 8 l-107 3 -50 88
c-28 48 -53 87 -56 87 -3 0 -27 -41 -55 -90z"/>
<path d="M821 2213 l-54 -96 -103 6 c-57 3 -104 3 -104 0 0 -3 23 -45 50 -93
28 -48 50 -90 50 -93 0 -4 -22 -44 -50 -91 -27 -47 -50 -87 -50 -90 0 -3 48
-7 108 -8 l107 -3 50 -87 c27 -49 52 -88 55 -88 3 0 27 41 55 90 l50 90 107 0
c60 0 108 2 108 4 0 2 -23 42 -50 89 -27 47 -50 90 -50 95 0 6 23 48 50 95 28
47 50 87 50 90 0 3 -48 4 -107 4 l-107 -2 -50 87 c-28 48 -53 89 -56 92 -3 2
-29 -39 -59 -91z"/>
<path d="M2121 2213 l-54 -96 -103 6 c-57 3 -104 3 -104 -1 0 -4 22 -45 50
-92 27 -47 50 -88 50 -92 0 -3 -22 -44 -50 -91 -27 -47 -50 -88 -50 -91 0 -3
48 -7 107 -8 l107 -3 50 -87 c28 -49 53 -88 56 -88 3 0 27 41 54 90 l49 89
109 3 109 3 -55 92 -54 91 50 84 c28 46 52 88 55 95 3 8 -25 11 -103 10 l-108
-2 -50 87 c-28 48 -53 89 -56 92 -3 2 -29 -39 -59 -91z"/>
<path d="M3420 2213 l-53 -96 -104 6 c-57 3 -103 2 -103 -3 0 -4 23 -47 51
-95 l51 -86 -51 -88 c-28 -49 -51 -91 -51 -94 0 -4 48 -8 106 -9 l107 -3 49
-87 c28 -49 54 -86 58 -83 5 3 30 43 56 90 l47 84 108 3 108 3 -53 91 -54 92
53 91 c30 50 51 92 47 93 -4 1 -52 2 -107 2 l-99 1 -51 87 c-28 48 -53 90 -56
92 -2 3 -29 -38 -59 -91z"/>
<path d="M4720 2215 l-55 -98 -102 6 c-60 3 -103 2 -103 -3 0 -5 23 -48 51
-95 l50 -86 -50 -88 c-28 -49 -51 -91 -51 -94 0 -4 48 -8 106 -9 l107 -3 48
-85 c27 -47 52 -84 56 -83 5 1 29 40 55 85 l48 83 109 5 109 5 -35 60 c-19 33
-43 74 -54 91 l-19 31 55 91 c29 51 51 93 47 94 -4 1 -52 2 -107 2 l-100 1
-47 80 c-26 44 -51 86 -55 93 -6 10 -25 -17 -63 -83z"/>
<path d="M6019 2214 l-54 -97 -102 6 c-67 4 -103 2 -103 -4 0 -6 23 -49 50
-96 l51 -85 -54 -91 -53 -92 -111 -3 -111 -3 -41 73 c-69 126 -60 124 -120 19
l-53 -91 -104 0 c-57 0 -104 -3 -104 -6 0 -4 23 -46 50 -95 l51 -87 -51 -86
c-27 -46 -50 -89 -50 -95 0 -6 36 -8 103 -4 l102 6 55 -98 c38 -66 57 -93 63
-83 4 7 29 49 55 93 l47 80 100 1 c55 0 103 1 107 2 4 1 -18 43 -47 94 l-55
91 19 31 c10 17 35 59 55 94 l37 62 109 0 108 0 53 -91 c60 -105 51 -106 120
19 l40 72 109 0 109 0 56 -94 56 -93 -51 -84 c-27 -46 -50 -89 -50 -96 0 -9
26 -10 103 -6 l102 6 54 -98 c38 -69 56 -93 62 -84 5 8 30 52 57 98 l47 84
103 -6 c68 -4 102 -2 102 5 0 5 -23 48 -50 95 l-50 86 53 91 53 91 111 3 111
3 41 -73 c69 -126 60 -124 120 -19 l53 91 108 0 109 0 42 -72 c23 -40 48 -82
55 -93 12 -18 7 -31 -41 -113 -29 -50 -51 -93 -47 -94 4 -1 52 -2 107 -2 l100
-1 47 -80 c26 -44 51 -86 55 -94 6 -9 25 17 62 84 l54 98 104 -6 c69 -4 103
-2 103 5 0 5 -23 48 -51 94 l-50 84 50 89 c28 48 51 91 51 95 0 3 -47 6 -104
6 l-104 0 -53 91 c-60 105 -51 107 -120 -19 l-41 -73 -111 3 -111 3 -53 92
-54 91 51 85 c27 47 50 90 50 96 0 6 -36 8 -102 4 l-103 -6 -55 98 c-38 66
-57 93 -63 83 -4 -7 -29 -49 -55 -93 l-47 -80 -103 2 c-72 1 -102 -2 -102 -10
0 -7 23 -49 50 -95 l50 -83 -56 -95 -55 -94 -109 0 -108 0 -53 91 c-60 105
-51 106 -120 -18 l-40 -73 -109 0 -109 0 -56 94 -55 94 50 85 c27 47 50 90 50
95 0 7 -34 9 -102 5 l-103 -5 -53 96 c-30 53 -55 96 -56 96 -1 0 -27 -43 -57
-96z"/>
<path d="M8618 2218 l-54 -93 -99 -1 c-55 0 -103 -1 -107 -2 -4 -1 17 -43 47
-93 l53 -91 -54 -92 -53 -91 109 -3 109 -3 46 -84 c26 -47 50 -87 55 -90 4 -3
30 34 58 83 l49 87 107 3 c58 1 106 5 106 9 0 3 -23 45 -51 94 l-50 88 50 86
c28 47 51 90 51 95 0 5 -43 6 -103 3 l-104 -6 -38 69 c-21 38 -46 82 -55 97
l-17 28 -55 -93z"/>
<path d="M9918 2218 l-54 -93 -99 -1 c-55 0 -103 -1 -107 -2 -4 -1 17 -43 46
-93 l53 -91 -53 -92 -54 -91 109 -3 108 -3 47 -84 c26 -47 51 -87 55 -89 4 -3
30 34 57 82 l50 87 107 3 c59 1 107 6 107 10 0 4 -23 44 -50 90 -28 46 -50 86
-50 90 0 4 23 44 50 90 28 46 50 87 50 92 0 5 -46 6 -103 3 l-104 -6 -38 69
c-21 38 -46 82 -55 97 l-17 28 -55 -93z"/>
<path d="M11230 2239 c-78 -136 -58 -123 -171 -116 -54 3 -100 3 -103 -1 -2
-4 18 -44 45 -90 27 -45 49 -88 49 -95 0 -6 -23 -49 -50 -95 -28 -46 -50 -85
-50 -88 0 -2 48 -4 108 -4 l107 0 50 -90 c28 -49 52 -90 55 -90 3 0 28 39 56
88 l50 87 107 3 c59 1 107 5 107 8 0 3 -22 43 -50 90 -27 47 -50 87 -50 91 0
3 23 45 50 93 28 48 50 90 50 93 0 3 -47 3 -104 0 l-103 -6 -56 98 -55 97 -42
-73z"/>
<path d="M12513 2213 l-51 -88 -106 2 c-58 0 -106 -1 -106 -4 0 -3 23 -43 50
-90 28 -47 50 -89 50 -95 0 -5 -22 -48 -50 -95 -27 -47 -50 -87 -50 -89 0 -2
48 -4 108 -4 l107 0 50 -90 c27 -49 52 -90 55 -90 3 0 28 40 55 90 l50 90 62
0 62 0 0 185 0 184 -61 3 -61 3 -48 85 c-27 47 -53 86 -58 88 -4 1 -31 -37
-58 -85z"/>
<path d="M175 1840 l-50 -90 -62 0 -62 0 0 -185 0 -184 61 -3 61 -3 48 -85
c27 -47 54 -85 59 -85 6 0 32 38 58 85 l48 85 107 -2 c59 0 107 2 107 5 0 4
-23 44 -50 90 -28 46 -50 88 -50 94 0 5 23 48 50 95 27 47 50 87 50 89 0 2
-48 4 -107 4 l-108 0 -50 90 c-27 50 -52 90 -55 90 -3 0 -28 -40 -55 -90z"/>
<path d="M1474 1843 l-50 -88 -107 -3 c-59 -1 -107 -5 -107 -8 0 -3 23 -43 50
-90 28 -47 50 -88 50 -92 0 -4 -23 -45 -50 -92 -28 -47 -50 -88 -50 -92 0 -4
47 -4 104 -1 l103 6 56 -98 55 -97 42 73 c78 136 58 123 171 116 54 -3 100 -3
103 1 2 4 -18 44 -45 90 -27 45 -49 88 -49 95 0 6 23 50 50 97 l50 85 -108 3
-107 3 -50 89 c-28 49 -52 90 -55 90 -3 0 -28 -39 -56 -87z"/>
<path d="M2773 1843 l-50 -88 -107 -3 c-58 -1 -106 -5 -106 -8 0 -3 23 -44 50
-91 28 -47 50 -87 50 -90 0 -3 -22 -43 -50 -90 -27 -47 -50 -89 -50 -93 0 -5
47 -6 104 -3 l103 6 54 -96 c29 -53 56 -94 58 -91 3 2 28 44 56 92 l51 87 99
1 c55 0 103 1 107 2 4 1 -17 43 -46 93 l-54 92 54 91 53 91 -108 3 -108 3 -49
89 c-27 49 -52 90 -55 90 -4 0 -29 -39 -56 -87z"/>
<path d="M4072 1842 l-49 -87 -107 -3 c-58 -1 -106 -5 -106 -9 0 -3 23 -45 51
-93 l51 -89 -51 -86 c-28 -47 -51 -90 -51 -95 0 -5 43 -6 103 -3 l104 6 38
-69 c21 -38 46 -82 56 -97 l17 -29 38 69 c20 37 46 81 57 97 l20 29 98 -6 c53
-3 99 -4 102 -1 3 3 -19 46 -49 97 l-53 91 19 31 c10 16 34 57 53 90 l35 60
-107 3 -108 3 -47 84 c-26 47 -51 87 -56 90 -4 3 -30 -34 -58 -83z"/>
<path d="M9314 1919 c-6 -8 -30 -49 -54 -91 l-44 -77 -107 -3 -108 -3 53 -91
54 -91 -54 -92 c-29 -50 -50 -92 -46 -93 4 -1 52 -2 107 -2 l99 -1 51 -87 c28
-48 53 -90 56 -92 2 -3 29 38 59 91 l53 96 104 -6 c57 -3 103 -2 103 3 0 4
-23 47 -51 95 l-51 86 51 88 c28 49 51 91 51 95 0 3 -47 6 -105 6 l-104 0 -45
78 c-67 115 -60 106 -72 91z"/>
<path d="M10565 1840 l-50 -89 -107 -3 -108 -3 54 -91 53 -91 -53 -89 c-29
-49 -53 -92 -54 -96 0 -4 47 -4 104 -1 119 7 98 20 176 -116 l42 -73 55 97 56
98 103 -6 c57 -3 104 -3 104 1 0 4 -22 45 -50 92 -27 47 -50 88 -50 92 0 3 23
44 50 91 28 47 50 88 50 91 0 3 -48 7 -107 8 l-107 3 -50 88 c-28 48 -53 87
-56 87 -3 0 -27 -41 -55 -90z"/>
<path d="M11865 1840 l-50 -90 -107 0 c-60 0 -108 -2 -108 -4 0 -3 22 -42 50
-88 27 -46 50 -88 50 -95 0 -6 -22 -49 -50 -96 -27 -47 -50 -87 -50 -90 0 -3
47 -3 104 0 119 7 98 20 176 -116 l42 -73 53 93 53 94 106 -2 c58 0 106 1 106
4 0 3 -22 45 -50 93 -27 48 -50 91 -50 95 0 4 23 44 50 90 28 46 50 85 50 89
0 3 -48 7 -107 8 l-107 3 -50 88 c-28 48 -53 87 -56 87 -3 0 -27 -41 -55 -90z"/>
<path d="M822 1464 l-53 -94 -105 0 -105 0 36 -62 c76 -132 75 -114 16 -211
-28 -47 -51 -88 -51 -91 0 -3 48 -6 108 -6 l107 0 50 -90 c27 -50 52 -90 55
-90 3 0 27 41 55 90 l50 90 107 0 c60 0 108 2 108 4 0 3 -22 42 -50 88 -27 46
-50 88 -50 95 0 6 22 49 49 95 l49 83 -106 5 -106 5 -50 87 c-28 48 -53 89
-56 92 -3 2 -29 -38 -58 -90z"/>
<path d="M2122 1464 l-53 -94 -105 0 -106 0 33 -57 c18 -32 41 -74 52 -93 l19
-35 -51 -87 c-28 -47 -51 -89 -51 -92 0 -3 48 -7 107 -8 l107 -3 50 -87 c28
-49 53 -88 56 -88 3 0 27 41 54 90 l49 89 108 3 109 3 -54 92 -54 91 53 89 53
88 -106 5 -106 5 -50 87 c-28 48 -53 89 -56 92 -3 2 -29 -38 -58 -90z"/>
<path d="M3421 1464 l-53 -94 -104 0 c-57 0 -104 -2 -104 -4 0 -2 23 -43 51
-91 l51 -86 -51 -88 c-28 -49 -51 -91 -51 -94 0 -4 48 -8 106 -9 l107 -3 49
-87 c28 -49 54 -86 58 -83 5 3 30 43 56 90 l47 84 108 3 108 3 -53 91 -54 92
53 90 53 91 -106 3 -106 3 -51 87 c-28 48 -53 90 -56 92 -2 3 -29 -38 -58 -90z"/>
<path d="M4720 1465 l-54 -95 -103 0 c-57 0 -103 -3 -103 -6 0 -3 23 -44 51
-90 l51 -85 -54 -92 -53 -92 -111 -3 -110 -3 -48 86 c-26 47 -51 87 -56 90 -4
3 -30 -34 -58 -83 l-49 -87 -107 -3 c-58 -1 -106 -5 -106 -9 0 -3 23 -45 51
-93 l51 -89 -51 -86 c-28 -47 -51 -88 -51 -90 0 -3 47 -5 104 -5 l104 0 54
-95 c35 -65 56 -92 61 -83 4 7 29 49 55 93 l47 80 107 3 106 3 -53 92 c-48 81
-53 94 -41 112 7 11 32 53 56 93 l43 73 110 -3 110 -3 50 -89 c57 -102 49
-104 118 22 l41 73 111 -3 112 -3 53 -91 53 -92 -51 -85 c-27 -47 -50 -88 -50
-91 0 -3 46 -6 103 -6 l103 0 47 -82 c26 -46 51 -89 56 -96 6 -10 24 14 62 82
l54 96 107 0 107 0 -54 92 -55 91 19 31 c10 17 35 59 55 93 l37 63 109 0 108
0 53 -91 c60 -105 51 -106 120 19 l40 72 109 0 109 0 56 -94 56 -94 -55 -91
-56 -91 108 0 108 0 54 -95 c36 -63 57 -91 62 -82 4 6 29 49 55 94 l47 83 103
0 c57 0 103 3 103 6 0 3 -23 44 -50 91 l-50 86 53 91 53 91 111 3 111 3 41
-73 c69 -126 60 -124 120 -19 l53 91 108 0 109 0 42 -72 c23 -40 48 -82 55
-93 12 -18 7 -31 -41 -113 l-54 -92 107 0 107 0 54 -96 54 -95 16 28 c10 15
34 58 55 96 l38 67 104 0 c57 0 104 3 104 6 0 3 -23 44 -50 91 l-51 85 53 92
53 91 112 3 112 3 46 -86 c26 -46 50 -87 55 -90 4 -3 30 34 58 83 l49 87 107
3 c58 1 106 5 106 9 0 3 -23 45 -51 93 l-51 89 51 86 c28 47 51 88 51 90 0 3
-47 5 -104 5 l-104 0 -53 94 c-29 52 -56 93 -58 90 -3 -2 -28 -44 -56 -92
l-51 -87 -106 -3 -106 -3 53 -92 c48 -81 53 -94 41 -112 -7 -11 -32 -53 -55
-92 l-43 -73 -108 0 -108 0 -53 91 c-60 105 -51 107 -120 -19 l-41 -73 -111 3
-111 3 -53 92 -54 91 51 85 c27 47 50 88 50 91 0 3 -46 6 -103 6 l-103 0 -47
83 c-26 45 -51 88 -56 95 -6 10 -24 -14 -62 -82 l-54 -96 -107 0 -108 0 55
-91 55 -90 -55 -95 -56 -94 -109 0 -108 0 -53 91 c-60 105 -51 106 -120 -18
l-40 -73 -109 0 -109 0 -56 94 -55 94 50 85 c27 47 50 88 50 91 0 3 -46 6
-102 6 l-103 0 -54 96 c-38 68 -56 92 -62 82 -5 -7 -30 -50 -56 -95 l-47 -83
-103 0 c-57 0 -103 -3 -103 -6 0 -3 23 -44 50 -91 l50 -86 -53 -91 -53 -91
-111 -3 -111 -3 -41 73 c-69 126 -60 124 -120 19 l-53 -91 -108 0 -109 0 -42
73 c-23 39 -48 81 -56 93 -11 18 -7 30 41 112 l55 92 -107 0 -107 0 -53 95
c-30 52 -55 95 -56 95 -1 0 -26 -43 -56 -95z"/>
<path d="M9919 1468 l-54 -93 -107 -3 -107 -3 53 -90 53 -91 -53 -92 -54 -91
109 -3 108 -3 47 -84 c26 -47 51 -87 55 -89 4 -3 30 34 57 82 l50 87 107 3
c59 1 107 5 107 8 0 3 -22 44 -50 91 -27 47 -50 87 -50 90 0 3 23 43 50 90 28
47 50 87 50 89 0 2 -47 4 -104 4 l-104 0 -38 68 c-21 37 -45 80 -54 95 l-17
28 -54 -93z"/>
<path d="M11230 1489 c-75 -131 -56 -118 -174 -121 l-104 -3 49 -83 c27 -45
49 -88 49 -95 0 -6 -23 -50 -50 -97 l-50 -85 108 -3 107 -3 50 -89 c28 -49 52
-90 55 -90 3 0 28 39 56 88 l50 87 107 3 c59 1 107 5 107 8 0 3 -23 44 -51 92
l-52 87 20 35 c11 19 34 61 52 93 l33 57 -105 0 -106 0 -54 96 -55 96 -42 -73z"/>
<path d="M12513 1463 l-50 -88 -107 -5 -106 -5 50 -83 c28 -46 50 -88 50 -94
0 -5 -22 -48 -50 -95 -27 -47 -50 -87 -50 -89 0 -2 48 -4 108 -4 l107 0 50
-90 c27 -50 52 -90 55 -90 3 0 28 40 55 90 l50 90 62 0 62 0 0 185 0 184 -61
3 -61 3 -48 85 c-27 47 -53 86 -58 88 -4 1 -31 -37 -58 -85z"/>
<path d="M175 1090 l-50 -90 -62 0 -62 0 0 -185 0 -184 61 -3 61 -3 48 -85
c27 -47 53 -85 59 -85 6 0 32 38 58 85 l47 85 108 5 107 5 -50 83 c-28 46 -50
88 -50 94 0 5 23 48 50 95 27 47 50 87 50 89 0 2 -48 4 -107 4 l-108 0 -50 90
c-27 50 -52 90 -55 90 -3 0 -28 -40 -55 -90z"/>
<path d="M1474 1093 l-50 -88 -107 -3 c-59 -1 -107 -5 -107 -8 0 -3 23 -44 51
-92 l52 -87 -20 -35 c-11 -19 -34 -61 -52 -92 l-33 -58 105 0 106 0 54 -96 55
-96 42 73 c75 131 56 118 174 121 l104 3 -49 83 c-27 46 -49 89 -49 95 0 7 23
50 50 97 l50 85 -108 3 -107 3 -50 89 c-28 49 -52 90 -55 90 -3 0 -28 -39 -56
-87z"/>
<path d="M2772 1092 l-49 -87 -107 -3 c-58 -1 -106 -5 -106 -8 0 -3 23 -44 50
-91 28 -47 50 -87 50 -90 0 -3 -22 -43 -50 -90 -27 -47 -50 -87 -50 -89 0 -2
47 -4 104 -4 l105 0 54 -96 54 -95 54 93 54 93 107 5 106 5 -53 89 -53 88 54
92 53 91 -108 3 -108 3 -47 84 c-26 47 -51 87 -56 90 -4 3 -30 -34 -58 -83z"/>
<path d="M9314 1169 c-6 -8 -30 -49 -54 -91 l-44 -77 -107 -3 -108 -3 53 -91
54 -91 -54 -91 -53 -91 107 -3 106 -3 51 -87 c28 -48 53 -90 56 -92 2 -3 29
38 58 90 l53 94 104 0 c57 0 104 2 104 5 0 2 -22 42 -50 89 -27 47 -50 87 -50
90 0 3 22 42 50 88 27 46 50 86 50 91 0 4 -47 7 -105 7 l-104 0 -45 78 c-67
115 -60 106 -72 91z"/>
<path d="M10565 1090 l-50 -89 -107 -3 -108 -3 54 -91 53 -91 -52 -89 -53 -89
104 -3 105 -3 25 -42 c14 -23 39 -66 55 -96 l31 -54 55 97 54 96 106 0 105 0
-33 58 c-18 31 -41 73 -52 92 l-19 35 51 87 c28 47 51 89 51 92 0 3 -48 7
-107 8 l-107 3 -50 88 c-28 48 -53 87 -56 87 -3 0 -27 -41 -55 -90z"/>
<path d="M11865 1090 l-50 -90 -107 0 c-60 0 -108 -2 -108 -4 0 -3 22 -42 50
-88 27 -46 50 -88 50 -95 0 -6 -22 -49 -49 -95 l-49 -83 106 -5 106 -5 50 -88
c28 -48 54 -86 58 -85 5 2 30 41 57 88 l48 85 106 5 106 5 -49 85 c-27 47 -50
89 -50 94 0 4 23 45 50 91 28 46 50 85 50 89 0 3 -48 7 -107 8 l-107 3 -50 88
c-28 48 -53 87 -56 87 -3 0 -27 -41 -55 -90z"/>
<path d="M821 713 l-54 -96 -103 6 c-57 3 -104 3 -104 0 0 -3 23 -45 50 -93
28 -48 50 -90 50 -93 0 -4 -22 -44 -50 -91 -27 -47 -50 -87 -50 -90 0 -3 48
-7 108 -8 l107 -3 50 -87 c27 -49 52 -88 55 -88 3 0 27 41 55 90 l50 90 107 0
c60 0 108 2 108 4 0 2 -23 42 -50 89 -27 47 -50 90 -50 95 0 6 23 48 50 95 28
47 50 87 50 90 0 3 -48 4 -107 4 l-107 -2 -50 87 c-28 48 -53 89 -56 92 -3 2
-29 -39 -59 -91z"/>
<path d="M2121 713 l-54 -96 -103 6 c-57 3 -104 3 -104 -1 0 -4 22 -45 50 -92
27 -47 50 -88 50 -92 0 -3 -22 -44 -50 -91 -27 -47 -50 -88 -50 -91 0 -3 48
-7 107 -8 l107 -3 50 -87 c28 -49 53 -88 56 -88 3 0 27 41 54 90 l49 89 108 3
109 3 -54 92 -54 92 50 83 c28 46 52 88 55 95 3 8 -25 11 -103 10 l-108 -2
-50 87 c-28 48 -53 89 -56 92 -3 2 -29 -39 -59 -91z"/>
<path d="M3420 713 l-53 -96 -104 6 c-57 3 -103 2 -103 -3 0 -4 23 -47 51 -95
l51 -86 -51 -88 c-28 -49 -51 -91 -51 -94 0 -4 48 -8 106 -9 l107 -3 49 -87
c28 -49 54 -86 58 -83 5 3 30 43 56 90 l47 84 108 3 108 3 -53 91 -54 92 53
91 c30 50 51 92 47 93 -4 1 -52 2 -107 2 l-99 1 -51 87 c-28 48 -53 90 -56 92
-2 3 -29 -38 -59 -91z"/>
<path d="M4720 715 l-55 -98 -102 6 c-60 3 -103 2 -103 -3 0 -5 23 -48 51 -95
l50 -86 -50 -88 c-28 -49 -51 -91 -51 -94 0 -4 48 -8 106 -9 l107 -3 48 -85
c27 -47 52 -84 56 -83 5 1 29 40 55 85 l48 83 109 5 109 5 -35 60 c-19 33 -43
74 -54 91 l-19 31 55 91 c29 51 51 93 47 94 -4 1 -52 2 -107 2 l-100 1 -47 80
c-26 44 -51 86 -55 93 -6 10 -25 -17 -63 -83z"/>
<path d="M6019 714 l-54 -97 -102 6 c-67 4 -103 2 -103 -4 0 -6 23 -49 50 -96
l51 -85 -54 -91 -53 -92 -111 -3 -111 -3 -41 73 c-69 126 -60 124 -120 19
l-53 -91 -104 0 c-57 0 -104 -3 -104 -6 0 -4 23 -46 51 -95 48 -84 50 -90 35
-111 -9 -12 -16 -26 -16 -30 0 -5 110 -8 245 -8 135 0 245 2 245 5 0 4 -6 18
-14 33 -13 26 -11 32 40 120 l55 92 109 0 108 0 53 -91 c60 -105 51 -106 120
18 l40 73 109 0 109 0 56 -94 c54 -91 56 -96 41 -118 -9 -12 -16 -26 -16 -30
0 -5 110 -8 245 -8 135 0 245 3 245 8 0 4 -7 18 -16 30 -15 21 -13 27 38 115
l54 92 111 3 111 3 41 -73 c69 -126 60 -124 120 -19 l53 91 108 0 109 0 54
-92 c52 -88 54 -94 41 -120 -8 -15 -14 -29 -14 -33 0 -3 110 -5 245 -5 135 0
245 2 245 5 0 3 -7 17 -16 30 -15 23 -14 28 35 113 28 49 51 92 51 96 0 3 -47
6 -104 6 l-104 0 -53 91 c-60 105 -51 107 -120 -19 l-41 -73 -111 3 -111 3
-53 92 -54 91 51 85 c27 47 50 90 50 96 0 6 -36 8 -102 4 l-103 -6 -55 98
c-38 66 -57 93 -63 83 -4 -7 -29 -49 -55 -93 l-47 -80 -103 2 c-72 1 -102 -2
-102 -10 0 -7 23 -49 50 -95 l50 -83 -56 -95 -55 -94 -109 0 -108 0 -53 91
c-60 105 -51 106 -120 -19 l-40 -72 -109 0 -109 0 -56 94 -55 94 50 85 c27 47
50 90 50 95 0 7 -34 9 -102 5 l-103 -5 -53 96 c-30 53 -55 96 -56 96 -1 0 -27
-43 -57 -96z"/>
<path d="M8618 718 l-54 -93 -99 -1 c-55 0 -103 -1 -107 -2 -4 -1 17 -43 47
-93 l53 -91 -54 -92 -53 -91 109 -3 109 -3 46 -84 c26 -47 50 -87 55 -90 4 -3
30 34 58 83 l49 87 107 3 c58 1 106 5 106 9 0 3 -23 45 -51 94 l-50 88 50 86
c28 47 51 90 51 95 0 5 -43 6 -103 3 l-104 -6 -38 69 c-21 38 -46 82 -55 97
l-17 28 -55 -93z"/>
<path d="M9918 718 l-54 -93 -99 -1 c-55 0 -103 -1 -107 -2 -4 -1 17 -43 46
-93 l53 -91 -53 -92 -54 -91 109 -3 108 -3 47 -84 c26 -47 51 -87 55 -89 4 -3
30 34 57 82 l50 87 107 3 c59 1 107 6 107 10 0 4 -23 44 -50 90 -28 46 -50 86
-50 90 0 4 23 44 50 90 28 46 50 87 50 92 0 5 -46 6 -103 3 l-104 -6 -38 69
c-21 38 -46 82 -55 97 l-17 28 -55 -93z"/>
<path d="M11230 739 c-78 -136 -58 -123 -171 -116 -54 3 -100 3 -103 -1 -2 -4
18 -44 45 -90 27 -45 49 -88 49 -95 0 -6 -23 -49 -50 -95 -28 -46 -50 -85 -50
-88 0 -2 48 -4 108 -4 l107 0 50 -90 c28 -49 52 -90 55 -90 3 0 28 39 56 88
l50 87 107 3 c59 1 107 5 107 8 0 3 -22 43 -50 90 -27 47 -50 87 -50 91 0 3
23 45 50 93 28 48 50 90 50 93 0 3 -47 3 -104 0 l-103 -6 -56 98 -55 97 -42
-73z"/>
<path d="M12513 713 l-51 -88 -106 2 c-58 0 -106 -1 -106 -4 0 -3 23 -43 50
-90 28 -47 50 -89 50 -95 0 -5 -22 -48 -50 -95 -27 -47 -50 -87 -50 -89 0 -2
48 -4 108 -4 l107 0 50 -90 c27 -50 52 -90 55 -90 3 0 28 40 55 90 l50 90 62
0 62 0 0 185 0 184 -61 3 -61 3 -48 85 c-27 47 -53 86 -58 88 -4 1 -31 -37
-58 -85z"/>
<path d="M175 340 l-50 -90 -63 0 -62 0 1 -125 2 -125 240 0 239 0 -16 25 c-9
13 -16 29 -16 36 0 6 23 49 50 96 27 47 50 87 50 89 0 2 -48 4 -107 4 l-108 0
-50 90 c-27 50 -52 90 -55 90 -3 0 -28 -40 -55 -90z"/>
<path d="M1474 343 l-50 -88 -107 -3 c-59 -1 -107 -5 -107 -8 0 -3 23 -44 51
-92 51 -85 51 -86 35 -119 l-16 -33 251 0 250 0 -18 31 c-20 34 -25 19 56 162
l33 57 -109 0 -108 0 -50 90 c-28 49 -52 90 -55 90 -3 0 -28 -39 -56 -87z"/>
<path d="M2773 343 l-50 -88 -107 -3 c-58 -1 -106 -5 -106 -8 0 -3 23 -45 51
-92 46 -79 49 -88 37 -112 -7 -14 -14 -28 -16 -32 -2 -5 109 -8 247 -8 l251 0
-19 31 -19 31 54 92 53 91 -108 3 -108 3 -49 89 c-27 49 -52 90 -55 90 -4 0
-29 -39 -56 -87z"/>
<path d="M4072 342 l-49 -87 -107 -3 c-58 -1 -106 -5 -106 -9 0 -3 23 -45 51
-94 50 -86 51 -90 35 -114 -9 -13 -16 -27 -16 -30 0 -3 112 -5 250 -5 l249 0
-19 33 -18 32 53 90 53 90 -107 3 -108 3 -47 84 c-26 47 -51 87 -56 90 -4 3
-30 -34 -58 -83z"/>
<path d="M9314 419 c-6 -8 -30 -49 -54 -91 l-44 -77 -107 -3 -108 -3 53 -91
54 -92 -19 -31 -19 -31 250 0 c138 0 250 2 250 5 0 3 -7 17 -16 30 -16 24 -15
28 35 114 28 49 51 91 51 95 0 3 -47 6 -105 6 l-104 0 -45 78 c-67 115 -60
106 -72 91z"/>
<path d="M10565 340 l-50 -89 -107 -3 -108 -3 54 -91 53 -92 -19 -31 -20 -31
251 0 251 0 -16 33 c-15 32 -15 33 35 119 28 47 51 89 51 92 0 3 -48 7 -107 8
l-107 3 -50 88 c-28 48 -53 87 -56 87 -3 0 -27 -41 -55 -90z"/>
<path d="M11865 340 l-50 -90 -107 0 c-60 0 -108 -2 -108 -4 0 -3 22 -42 50
-88 27 -46 50 -89 50 -96 0 -7 -7 -24 -16 -37 l-16 -25 251 0 251 0 -16 34
-17 34 52 85 c28 47 51 87 51 91 0 3 -48 7 -107 8 l-107 3 -50 88 c-28 48 -53
87 -56 87 -3 0 -27 -41 -55 -90z"/>
<path d="M862 35 c-16 -35 -16 -35 18 -35 35 0 36 6 12 38 l-18 23 -12 -26z"/>
<path d="M2162 35 c-16 -35 -16 -35 18 -35 35 0 36 6 12 38 l-18 23 -12 -26z"/>
<path d="M3458 30 l-17 -30 35 0 35 0 -16 30 c-9 17 -17 30 -18 30 -1 0 -10
-14 -19 -30z"/>
<path d="M4757 30 l-18 -30 36 0 36 0 -16 30 c-9 17 -17 30 -18 30 -2 0 -11
-13 -20 -30z"/>
<path d="M6057 30 l-18 -30 36 0 36 0 -16 30 c-9 17 -17 30 -18 30 -2 0 -11
-13 -20 -30z"/>
<path d="M7356 31 l-17 -31 36 0 c31 0 34 2 26 18 -27 45 -28 46 -45 13z"/>
<path d="M8655 31 l-16 -31 36 0 35 0 -17 28 c-9 15 -18 29 -19 30 -1 2 -10
-10 -19 -27z"/>
<path d="M9955 31 l-16 -31 36 0 35 0 -17 28 c-9 15 -18 29 -19 30 -1 2 -10
-10 -19 -27z"/>
<path d="M11257 36 c-23 -34 -22 -36 13 -36 33 0 35 4 16 38 l-13 24 -16 -26z"/>
<path d="M12550 31 c-15 -28 -13 -31 20 -31 17 0 30 3 30 6 0 12 -21 44 -30
44 -5 0 -14 -9 -20 -19z"/>
</g>
</svg>
